<?xml version="1.0" encoding="utf-8"?>
<svg xmlns="http://www.w3.org/2000/svg" xmlns:xlink="http://www.w3.org/1999/xlink" width="426.75" height="263.5" viewBox="0 0 1707 1054">
<defs>
  <clipPath id="clip020">
    <rect x="0" y="0" width="1707" height="1054"/>
  </clipPath>
</defs>
<path clip-path="url(#clip020)" d="M0 1054 L1707 1054 L1707 0 L0 0  Z" fill="#ffffff" fill-rule="evenodd" fill-opacity="1"/>
<defs>
  <clipPath id="clip021">
    <rect x="341" y="0" width="1196" height="1054"/>
  </clipPath>
</defs>
<defs>
  <clipPath id="clip022">
    <rect x="297" y="47" width="1363" height="826"/>
  </clipPath>
</defs>
<path clip-path="url(#clip020)" d="M262.739 857.047 L1659.76 857.047 L1659.76 47.2528 L262.739 47.2528  Z" fill="#ffffff" fill-rule="evenodd" fill-opacity="1"/>
<defs>
  <clipPath id="clip023">
    <rect x="262" y="47" width="1398" height="811"/>
  </clipPath>
</defs>
<polyline clip-path="url(#clip023)" style="stroke:#000000; stroke-linecap:round; stroke-linejoin:round; stroke-width:2.00037; stroke-opacity:0.1; fill:none" points="722.521,857.047 722.521,47.2528 "/>
<polyline clip-path="url(#clip023)" style="stroke:#000000; stroke-linecap:round; stroke-linejoin:round; stroke-width:2.00037; stroke-opacity:0.1; fill:none" points="1255.02,857.047 1255.02,47.2528 "/>
<polyline clip-path="url(#clip020)" style="stroke:#000000; stroke-linecap:round; stroke-linejoin:round; stroke-width:4.00074; stroke-opacity:1; fill:none" points="262.739,857.047 1659.76,857.047 "/>
<polyline clip-path="url(#clip020)" style="stroke:#000000; stroke-linecap:round; stroke-linejoin:round; stroke-width:4.00074; stroke-opacity:1; fill:none" points="262.739,47.2528 1659.76,47.2528 "/>
<polyline clip-path="url(#clip020)" style="stroke:#000000; stroke-linecap:round; stroke-linejoin:round; stroke-width:4.00074; stroke-opacity:1; fill:none" points="722.521,857.047 722.521,838.146 "/>
<polyline clip-path="url(#clip020)" style="stroke:#000000; stroke-linecap:round; stroke-linejoin:round; stroke-width:4.00074; stroke-opacity:1; fill:none" points="1255.02,857.047 1255.02,838.146 "/>
<path clip-path="url(#clip020)" d="M667.61 911.94 L667.61 909.765 Q675.965 909.765 680.279 905.315 Q681.467 905.315 681.671 905.587 Q681.875 905.858 681.875 907.115 L681.875 946.151 Q681.875 948.223 682.894 948.869 Q683.913 949.514 688.362 949.514 L690.57 949.514 L690.57 951.654 Q688.124 951.451 679.294 951.451 Q670.463 951.451 668.052 951.654 L668.052 949.514 L670.259 949.514 Q674.641 949.514 675.693 948.903 Q676.746 948.257 676.746 946.151 L676.746 910.105 Q673.112 911.94 667.61 911.94 Z" fill="#000000" fill-rule="evenodd" fill-opacity="1" /><path clip-path="url(#clip020)" d="M698.925 929.402 Q698.925 919.176 701.506 913.604 Q705.106 905.315 713.597 905.315 Q715.397 905.315 717.265 905.824 Q719.167 906.3 721.545 908.168 Q723.956 910.037 725.416 913.095 Q728.202 919.006 728.202 929.402 Q728.202 939.56 725.62 945.098 Q721.85 953.183 713.529 953.183 Q710.404 953.183 707.212 951.586 Q704.053 949.99 702.049 946.151 Q698.925 940.409 698.925 929.402 M704.699 928.553 Q704.699 939.05 705.446 943.229 Q706.295 947.747 708.604 949.718 Q710.948 951.654 713.529 951.654 Q716.314 951.654 718.624 949.582 Q720.967 947.476 721.68 942.957 Q722.462 938.507 722.428 928.553 Q722.428 918.87 721.748 914.997 Q720.831 910.479 718.386 908.678 Q715.975 906.844 713.529 906.844 Q712.612 906.844 711.627 907.115 Q710.676 907.387 709.284 908.168 Q707.891 908.95 706.804 910.886 Q705.751 912.823 705.242 915.745 Q704.699 919.516 704.699 928.553 Z" fill="#000000" fill-rule="evenodd" fill-opacity="1" /><path clip-path="url(#clip020)" d="M728.202 881.69 L728.202 879.923 Q734.99 879.923 738.495 876.307 Q739.461 876.307 739.626 876.528 Q739.792 876.749 739.792 877.77 L739.792 909.486 Q739.792 911.17 740.62 911.695 Q741.447 912.219 745.062 912.219 L746.856 912.219 L746.856 913.958 Q744.869 913.793 737.694 913.793 Q730.52 913.793 728.56 913.958 L728.56 912.219 L730.354 912.219 Q733.914 912.219 734.769 911.722 Q735.625 911.198 735.625 909.486 L735.625 880.199 Q732.672 881.69 728.202 881.69 Z" fill="#000000" fill-rule="evenodd" fill-opacity="1" /><path clip-path="url(#clip020)" d="M753.645 895.878 Q753.645 887.569 755.742 883.042 Q758.667 876.307 765.566 876.307 Q767.029 876.307 768.546 876.721 Q770.092 877.108 772.023 878.626 Q773.983 880.144 775.169 882.628 Q777.432 887.431 777.432 895.878 Q777.432 904.131 775.335 908.631 Q772.272 915.2 765.511 915.2 Q762.972 915.2 760.378 913.903 Q757.812 912.606 756.183 909.486 Q753.645 904.821 753.645 895.878 M758.336 895.188 Q758.336 903.717 758.943 907.113 Q759.633 910.784 761.509 912.385 Q763.414 913.958 765.511 913.958 Q767.774 913.958 769.65 912.274 Q771.554 910.563 772.134 906.892 Q772.768 903.276 772.741 895.188 Q772.741 887.321 772.189 884.174 Q771.444 880.503 769.457 879.04 Q767.498 877.549 765.511 877.549 Q764.766 877.549 763.965 877.77 Q763.193 877.991 762.061 878.626 Q760.93 879.261 760.047 880.834 Q759.191 882.408 758.777 884.781 Q758.336 887.845 758.336 895.188 Z" fill="#000000" fill-rule="evenodd" fill-opacity="1" /><path clip-path="url(#clip020)" d="M1200.41 911.94 L1200.41 909.765 Q1208.76 909.765 1213.08 905.315 Q1214.27 905.315 1214.47 905.587 Q1214.67 905.858 1214.67 907.115 L1214.67 946.151 Q1214.67 948.223 1215.69 948.869 Q1216.71 949.514 1221.16 949.514 L1223.37 949.514 L1223.37 951.654 Q1220.92 951.451 1212.09 951.451 Q1203.26 951.451 1200.85 951.654 L1200.85 949.514 L1203.06 949.514 Q1207.44 949.514 1208.49 948.903 Q1209.54 948.257 1209.54 946.151 L1209.54 910.105 Q1205.91 911.94 1200.41 911.94 Z" fill="#000000" fill-rule="evenodd" fill-opacity="1" /><path clip-path="url(#clip020)" d="M1231.72 929.402 Q1231.72 919.176 1234.3 913.604 Q1237.9 905.315 1246.4 905.315 Q1248.2 905.315 1250.06 905.824 Q1251.97 906.3 1254.34 908.168 Q1256.75 910.037 1258.21 913.095 Q1261 919.006 1261 929.402 Q1261 939.56 1258.42 945.098 Q1254.65 953.183 1246.33 953.183 Q1243.2 953.183 1240.01 951.586 Q1236.85 949.99 1234.85 946.151 Q1231.72 940.409 1231.72 929.402 M1237.5 928.553 Q1237.5 939.05 1238.24 943.229 Q1239.09 947.747 1241.4 949.718 Q1243.75 951.654 1246.33 951.654 Q1249.11 951.654 1251.42 949.582 Q1253.77 947.476 1254.48 942.957 Q1255.26 938.507 1255.23 928.553 Q1255.23 918.87 1254.55 914.997 Q1253.63 910.479 1251.18 908.678 Q1248.77 906.844 1246.33 906.844 Q1245.41 906.844 1244.43 907.115 Q1243.47 907.387 1242.08 908.168 Q1240.69 908.95 1239.6 910.886 Q1238.55 912.823 1238.04 915.745 Q1237.5 919.516 1237.5 928.553 Z" fill="#000000" fill-rule="evenodd" fill-opacity="1" /><path clip-path="url(#clip020)" d="M1261 881.69 L1261 879.923 Q1267.79 879.923 1271.29 876.307 Q1272.26 876.307 1272.42 876.528 Q1272.59 876.749 1272.59 877.77 L1272.59 909.486 Q1272.59 911.17 1273.42 911.695 Q1274.25 912.219 1277.86 912.219 L1279.65 912.219 L1279.65 913.958 Q1277.67 913.793 1270.49 913.793 Q1263.32 913.793 1261.36 913.958 L1261.36 912.219 L1263.15 912.219 Q1266.71 912.219 1267.57 911.722 Q1268.42 911.198 1268.42 909.486 L1268.42 880.199 Q1265.47 881.69 1261 881.69 Z" fill="#000000" fill-rule="evenodd" fill-opacity="1" /><path clip-path="url(#clip020)" d="M1287.05 913.958 Q1287.05 912.937 1287.13 912.633 Q1287.24 912.33 1287.68 911.86 L1298.53 899.77 Q1304.46 893.09 1304.46 887.266 Q1304.46 883.484 1302.48 880.779 Q1300.52 878.074 1296.9 878.074 Q1294.42 878.074 1292.32 879.592 Q1290.22 881.11 1289.26 883.815 Q1289.42 883.76 1290 883.76 Q1291.41 883.76 1292.18 884.643 Q1292.98 885.527 1292.98 886.714 Q1292.98 888.232 1291.99 888.977 Q1291.02 889.695 1290.06 889.695 Q1289.67 889.695 1289.15 889.612 Q1288.65 889.529 1287.85 888.756 Q1287.05 887.956 1287.05 886.548 Q1287.05 882.601 1290.03 879.454 Q1293.04 876.307 1297.62 876.307 Q1302.81 876.307 1306.2 879.399 Q1309.62 882.463 1309.62 887.266 Q1309.62 888.95 1309.1 890.495 Q1308.6 892.013 1307.91 893.2 Q1307.25 894.387 1305.43 896.292 Q1303.61 898.197 1302.14 899.549 Q1300.68 900.902 1297.4 903.773 L1291.41 909.597 L1301.59 909.597 Q1306.56 909.597 1306.95 909.155 Q1307.5 908.355 1308.19 904.131 L1309.62 904.131 L1308.02 913.958 L1287.05 913.958 Z" fill="#000000" fill-rule="evenodd" fill-opacity="1" /><path clip-path="url(#clip020)" d="M703.82 989.992 L705.265 972.944 L751.616 972.944 L753.061 989.992 L751.172 989.992 Q750.875 986.583 750.579 984.618 Q750.32 982.654 749.653 980.801 Q749.023 978.911 748.208 978.021 Q747.43 977.095 745.91 976.391 Q744.391 975.649 742.428 975.464 Q740.464 975.279 737.5 975.279 Q734.017 975.279 733.165 975.427 Q732.238 975.649 732.016 976.317 Q731.794 976.947 731.794 978.318 L731.794 1018.31 Q731.794 1019.83 732.09 1020.46 Q732.424 1021.05 734.165 1021.53 Q735.907 1021.98 739.76 1021.98 L742.798 1021.98 L742.798 1024.31 Q739.686 1024.09 728.385 1024.09 Q717.159 1024.09 714.046 1024.31 L714.046 1021.98 L717.084 1021.98 Q720.938 1021.98 722.679 1021.53 Q724.458 1021.05 724.754 1020.46 Q725.05 1019.83 725.05 1018.31 L725.05 978.318 Q725.05 977.243 724.976 976.798 Q724.902 976.354 724.569 975.983 Q724.235 975.575 723.457 975.427 Q722.716 975.279 719.382 975.279 Q716.417 975.279 714.417 975.464 Q712.453 975.649 710.934 976.391 Q709.415 977.095 708.6 978.021 Q707.822 978.911 707.155 980.801 Q706.525 982.654 706.265 984.618 Q706.006 986.583 705.71 989.992 L703.82 989.992 Z" fill="#000000" fill-rule="evenodd" fill-opacity="1" /><path clip-path="url(#clip020)" d="M756.655 1020.23 Q751.653 1015.27 751.653 1008.08 Q751.653 1000.85 756.544 995.589 Q761.472 990.289 768.512 990.289 Q775.403 990.289 780.331 995.552 Q785.296 1000.78 785.296 1008.08 Q785.296 1015.23 780.294 1020.2 Q775.329 1025.16 768.438 1025.16 Q761.694 1025.16 756.655 1020.23 M757.952 1007.45 Q757.952 1014.82 759.879 1018.16 Q762.843 1023.24 768.512 1023.24 Q771.328 1023.24 773.662 1021.72 Q776.033 1020.2 777.33 1017.64 Q778.997 1014.3 778.997 1007.45 Q778.997 1000.15 776.997 996.923 Q774.033 991.994 768.438 991.994 Q765.992 991.994 763.584 993.291 Q761.213 994.551 759.768 997.071 Q757.952 1000.41 757.952 1007.45 Z" fill="#000000" fill-rule="evenodd" fill-opacity="1" /><path clip-path="url(#clip020)" d="M788.927 993.958 L788.927 992.29 Q792.41 992.142 794.707 989.696 Q797.041 987.213 797.82 984.174 Q798.635 981.135 798.709 977.614 L800.598 977.614 L800.598 991.586 L811.454 991.586 L811.454 993.958 L800.598 993.958 L800.598 1015.05 Q800.598 1023.24 805.711 1023.24 Q807.898 1023.24 809.343 1021.01 Q810.788 1018.75 810.788 1014.75 L810.788 1010.56 L812.677 1010.56 L812.677 1014.9 Q812.677 1019.01 810.788 1022.09 Q808.898 1025.16 805.156 1025.16 Q803.785 1025.16 802.414 1024.79 Q801.08 1024.46 799.302 1023.57 Q797.56 1022.64 796.449 1020.42 Q795.374 1018.16 795.374 1014.9 L795.374 993.958 L788.927 993.958 Z" fill="#000000" fill-rule="evenodd" fill-opacity="1" /><path clip-path="url(#clip020)" d="M820.087 1017.08 Q820.087 1010.64 827.683 1007.23 Q832.24 1005.04 841.651 1004.48 L841.651 1001.7 Q841.651 996.997 839.169 994.514 Q836.724 991.994 833.611 991.994 Q828.054 991.994 825.386 995.477 Q827.646 995.552 828.461 996.701 Q829.276 997.812 829.276 998.961 Q829.276 1000.48 828.313 1001.48 Q827.387 1002.45 825.793 1002.45 Q824.274 1002.45 823.274 1001.52 Q822.273 1000.55 822.273 998.887 Q822.273 995.181 825.608 992.735 Q828.98 990.289 833.759 990.289 Q839.984 990.289 844.134 994.477 Q845.431 995.774 846.061 997.442 Q846.727 999.11 846.802 1000.22 Q846.876 1001.3 846.876 1003.45 L846.876 1018.6 Q846.876 1019.05 847.024 1019.79 Q847.172 1020.53 847.839 1021.49 Q848.543 1022.42 849.692 1022.42 Q852.433 1022.42 852.396 1017.57 L852.396 1013.3 L854.323 1013.3 L854.323 1017.57 Q854.323 1021.61 852.174 1023.2 Q850.062 1024.76 848.098 1024.76 Q845.579 1024.76 843.986 1022.9 Q842.392 1021.05 842.17 1018.53 Q841.022 1021.42 838.391 1023.31 Q835.797 1025.16 832.24 1025.16 Q829.499 1025.16 826.905 1024.46 Q824.348 1023.79 822.199 1021.9 Q820.087 1019.98 820.087 1017.08 M825.942 1017.01 Q825.942 1019.83 827.942 1021.64 Q829.943 1023.46 832.759 1023.46 Q835.945 1023.46 838.798 1021.01 Q841.651 1018.53 841.651 1013.67 L841.651 1006.08 Q833.241 1006.37 829.573 1009.75 Q825.942 1013.08 825.942 1017.01 Z" fill="#000000" fill-rule="evenodd" fill-opacity="1" /><path clip-path="url(#clip020)" d="M857.361 1024.31 L857.361 1021.98 Q861.4 1021.98 862.326 1021.49 Q863.252 1020.98 863.252 1018.53 L863.252 979.059 Q863.252 976.242 862.252 975.538 Q861.289 974.834 857.361 974.834 L857.361 972.462 L868.254 971.647 L868.254 1018.53 Q868.254 1020.98 869.218 1021.49 Q870.181 1021.98 874.183 1021.98 L874.183 1024.31 Q873.256 1024.31 871.33 1024.24 Q869.403 1024.16 867.995 1024.13 Q866.587 1024.09 865.772 1024.09 Q864.883 1024.09 857.361 1024.31 Z" fill="#000000" fill-rule="evenodd" fill-opacity="1" /><path clip-path="url(#clip020)" d="M903.601 1023.31 L903.601 1013.3 Q903.601 1012.45 903.638 1012.16 Q903.676 1011.86 903.898 1011.64 Q904.12 1011.41 904.565 1011.41 Q905.083 1011.41 905.269 1011.64 Q905.491 1011.86 905.639 1012.71 Q906.788 1017.94 909.233 1020.72 Q911.716 1023.46 916.199 1023.46 Q920.46 1023.46 922.609 1021.57 Q924.758 1019.68 924.758 1016.57 Q924.758 1011.01 916.866 1009.6 Q912.309 1008.67 910.419 1008.08 Q908.529 1007.45 906.862 1006.08 Q903.601 1003.41 903.601 999.628 Q903.601 995.848 906.454 993.068 Q909.344 990.289 915.717 990.289 Q919.978 990.289 922.868 992.438 Q923.72 991.771 924.165 991.215 Q925.165 990.289 925.684 990.289 Q926.277 990.289 926.388 990.697 Q926.499 991.067 926.499 992.142 L926.499 999.777 Q926.499 1000.63 926.462 1000.93 Q926.425 1001.22 926.203 1001.44 Q925.98 1001.63 925.499 1001.63 Q924.647 1001.63 924.61 1000.93 Q924.017 991.734 915.717 991.734 Q911.234 991.734 909.233 993.476 Q907.232 995.181 907.232 997.516 Q907.232 998.813 907.825 999.814 Q908.455 1000.78 909.233 1001.37 Q910.048 1001.93 911.53 1002.48 Q913.012 1003 913.902 1003.19 Q914.828 1003.37 916.569 1003.74 Q922.646 1004.89 925.202 1007.37 Q928.389 1010.56 928.389 1014.6 Q928.389 1019.09 925.351 1022.12 Q922.312 1025.16 916.199 1025.16 Q911.271 1025.16 907.825 1021.87 Q907.381 1022.31 907.047 1022.72 Q906.714 1023.09 906.566 1023.24 Q906.454 1023.39 906.417 1023.5 Q906.38 1023.57 906.306 1023.64 Q904.787 1025.16 904.417 1025.16 Q903.824 1025.16 903.713 1024.76 Q903.601 1024.39 903.601 1023.31 Z" fill="#000000" fill-rule="evenodd" fill-opacity="1" /><path clip-path="url(#clip020)" d="M933.391 1024.31 L933.391 1021.98 Q937.429 1021.98 938.356 1021.49 Q939.282 1020.98 939.282 1018.53 L939.282 979.059 Q939.282 976.242 938.282 975.538 Q937.318 974.834 933.391 974.834 L933.391 972.462 L944.284 971.647 L944.284 998.035 L944.358 998.035 Q945.581 995.292 948.323 993.031 Q951.064 990.771 955.288 990.771 Q960.994 990.771 963.254 993.587 Q964.922 995.477 965.255 997.59 Q965.626 999.703 965.626 1005.19 L965.626 1019.68 Q965.7 1021.27 966.922 1021.64 Q968.145 1021.98 971.554 1021.98 L971.554 1024.31 Q963.81 1024.09 963.032 1024.09 Q962.439 1024.09 954.473 1024.31 L954.473 1021.98 Q958.512 1021.98 959.438 1021.49 Q960.401 1020.98 960.401 1018.53 L960.401 1000.85 Q960.401 996.997 959.216 994.736 Q958.03 992.438 954.769 992.438 Q950.842 992.438 947.693 995.737 Q944.543 999.035 944.543 1004.59 L944.543 1018.53 Q944.543 1020.98 945.47 1021.49 Q946.433 1021.98 950.434 1021.98 L950.434 1024.31 Q942.691 1024.09 941.95 1024.09 Q941.357 1024.09 933.391 1024.31 Z" fill="#000000" fill-rule="evenodd" fill-opacity="1" /><path clip-path="url(#clip020)" d="M980.15 1020.23 Q975.148 1015.27 975.148 1008.08 Q975.148 1000.85 980.039 995.589 Q984.966 990.289 992.006 990.289 Q998.898 990.289 1003.83 995.552 Q1008.79 1000.78 1008.79 1008.08 Q1008.79 1015.23 1003.79 1020.2 Q998.824 1025.16 991.932 1025.16 Q985.189 1025.16 980.15 1020.23 M981.447 1007.45 Q981.447 1014.82 983.373 1018.16 Q986.337 1023.24 992.006 1023.24 Q994.822 1023.24 997.156 1021.72 Q999.528 1020.2 1000.82 1017.64 Q1002.49 1014.3 1002.49 1007.45 Q1002.49 1000.15 1000.49 996.923 Q997.527 991.994 991.932 991.994 Q989.487 991.994 987.078 993.291 Q984.707 994.551 983.262 997.071 Q981.447 1000.41 981.447 1007.45 Z" fill="#000000" fill-rule="evenodd" fill-opacity="1" /><path clip-path="url(#clip020)" d="M1012.42 993.958 L1012.42 992.29 Q1015.9 992.142 1018.2 989.696 Q1020.54 987.213 1021.31 984.174 Q1022.13 981.135 1022.2 977.614 L1024.09 977.614 L1024.09 991.586 L1034.95 991.586 L1034.95 993.958 L1024.09 993.958 L1024.09 1015.05 Q1024.09 1023.24 1029.21 1023.24 Q1031.39 1023.24 1032.84 1021.01 Q1034.28 1018.75 1034.28 1014.75 L1034.28 1010.56 L1036.17 1010.56 L1036.17 1014.9 Q1036.17 1019.01 1034.28 1022.09 Q1032.39 1025.16 1028.65 1025.16 Q1027.28 1025.16 1025.91 1024.79 Q1024.57 1024.46 1022.8 1023.57 Q1021.05 1022.64 1019.94 1020.42 Q1018.87 1018.16 1018.87 1014.9 L1018.87 993.958 L1012.42 993.958 Z" fill="#000000" fill-rule="evenodd" fill-opacity="1" /><path clip-path="url(#clip020)" d="M1042.91 1023.31 L1042.91 1013.3 Q1042.91 1012.45 1042.95 1012.16 Q1042.99 1011.86 1043.21 1011.64 Q1043.43 1011.41 1043.88 1011.41 Q1044.4 1011.41 1044.58 1011.64 Q1044.8 1011.86 1044.95 1012.71 Q1046.1 1017.94 1048.55 1020.72 Q1051.03 1023.46 1055.51 1023.46 Q1059.77 1023.46 1061.92 1021.57 Q1064.07 1019.68 1064.07 1016.57 Q1064.07 1011.01 1056.18 1009.6 Q1051.62 1008.67 1049.73 1008.08 Q1047.84 1007.45 1046.18 1006.08 Q1042.91 1003.41 1042.91 999.628 Q1042.91 995.848 1045.77 993.068 Q1048.66 990.289 1055.03 990.289 Q1059.29 990.289 1062.18 992.438 Q1063.03 991.771 1063.48 991.215 Q1064.48 990.289 1065 990.289 Q1065.59 990.289 1065.7 990.697 Q1065.81 991.067 1065.81 992.142 L1065.81 999.777 Q1065.81 1000.63 1065.78 1000.93 Q1065.74 1001.22 1065.52 1001.44 Q1065.29 1001.63 1064.81 1001.63 Q1063.96 1001.63 1063.92 1000.93 Q1063.33 991.734 1055.03 991.734 Q1050.55 991.734 1048.55 993.476 Q1046.55 995.181 1046.55 997.516 Q1046.55 998.813 1047.14 999.814 Q1047.77 1000.78 1048.55 1001.37 Q1049.36 1001.93 1050.84 1002.48 Q1052.33 1003 1053.22 1003.19 Q1054.14 1003.37 1055.88 1003.74 Q1061.96 1004.89 1064.52 1007.37 Q1067.7 1010.56 1067.7 1014.6 Q1067.7 1019.09 1064.66 1022.12 Q1061.63 1025.16 1055.51 1025.16 Q1050.58 1025.16 1047.14 1021.87 Q1046.69 1022.31 1046.36 1022.72 Q1046.03 1023.09 1045.88 1023.24 Q1045.77 1023.39 1045.73 1023.5 Q1045.69 1023.57 1045.62 1023.64 Q1044.1 1025.16 1043.73 1025.16 Q1043.14 1025.16 1043.03 1024.76 Q1042.91 1024.39 1042.91 1023.31 Z" fill="#000000" fill-rule="evenodd" fill-opacity="1" /><path clip-path="url(#clip020)" d="M1139.02 984.498 Q1139.02 983.338 1138.7 982.389 Q1138.42 981.406 1137.96 980.738 Q1137.54 980.035 1136.73 979.508 Q1135.93 978.946 1135.26 978.594 Q1134.59 978.243 1133.47 978.032 Q1132.34 977.786 1131.6 977.681 Q1130.87 977.54 1129.6 977.47 Q1128.34 977.4 1127.71 977.4 Q1127.11 977.4 1125.91 977.4 Q1122.15 977.4 1121.52 977.47 Q1120.57 977.61 1120.22 978.173 Q1119.87 978.7 1119.52 980.14 L1114.85 998.905 L1122.89 998.905 Q1127.28 998.905 1130.3 997.675 Q1133.33 996.445 1135.05 994.724 Q1136.94 992.826 1137.96 989.769 Q1139.02 986.712 1139.02 984.498 M1146.85 1017.63 Q1146.85 1018.02 1146.54 1018.9 Q1146.25 1019.78 1145.55 1021.01 Q1144.85 1022.2 1143.9 1023.29 Q1142.95 1024.38 1141.44 1025.12 Q1139.93 1025.89 1138.21 1025.89 Q1137.79 1025.89 1137.37 1025.86 Q1136.94 1025.86 1135.89 1025.68 Q1134.87 1025.54 1134.03 1025.26 Q1133.19 1025.01 1132.13 1024.42 Q1131.08 1023.85 1130.34 1023.08 Q1129.64 1022.27 1129.15 1021.01 Q1128.65 1019.71 1128.65 1018.13 Q1128.65 1016.72 1129.81 1012.01 Q1130.83 1008.01 1130.83 1007.02 Q1130.83 1005.93 1130.48 1004.91 Q1130.16 1003.9 1129.36 1002.84 Q1128.58 1001.79 1126.93 1001.15 Q1125.28 1000.49 1122.96 1000.49 L1114.43 1000.49 L1109.65 1019.57 Q1109.65 1019.6 1109.54 1020.09 Q1109.44 1020.55 1109.44 1020.8 Q1109.44 1021.25 1109.72 1021.54 Q1110.03 1021.82 1110.81 1021.96 Q1111.58 1022.06 1112.18 1022.1 Q1112.81 1022.1 1114.11 1022.1 Q1115.73 1022.1 1116.01 1022.38 Q1116.15 1022.55 1116.15 1022.87 Q1116.15 1023.36 1116.01 1023.71 Q1115.9 1024.03 1115.62 1024.14 Q1115.37 1024.24 1115.2 1024.28 Q1115.02 1024.31 1114.71 1024.31 L1105.57 1024.1 L1096.51 1024.31 Q1095.49 1024.31 1095.49 1023.5 Q1095.49 1022.8 1095.74 1022.52 Q1095.98 1022.2 1096.3 1022.17 Q1096.62 1022.1 1097.42 1022.1 Q1099.18 1022.1 1100.23 1021.99 Q1101.29 1021.89 1101.95 1021.75 Q1102.66 1021.57 1103.01 1021.08 Q1103.4 1020.59 1103.57 1020.17 Q1103.75 1019.71 1103.99 1018.69 L1113.62 980.035 Q1113.9 978.875 1113.9 978.7 Q1113.9 978.032 1113.48 977.856 Q1113.09 977.646 1111.97 977.54 L1109.23 977.4 Q1108.38 977.4 1108.03 977.364 Q1107.72 977.329 1107.47 977.154 Q1107.22 976.978 1107.22 976.591 Q1107.22 975.607 1107.65 975.397 Q1108.07 975.151 1109.3 975.151 L1129.81 975.151 Q1136.8 975.151 1141.23 978.208 Q1145.69 981.265 1145.69 985.939 Q1145.69 988.047 1144.74 990.015 Q1143.79 991.983 1142.21 993.529 Q1140.67 995.075 1138.6 996.375 Q1136.52 997.64 1134.31 998.519 Q1132.13 999.362 1129.88 999.854 Q1130.87 1000.21 1131.78 1000.73 Q1132.73 1001.26 1133.92 1002.24 Q1135.15 1003.23 1135.89 1004.81 Q1136.63 1006.39 1136.63 1008.32 Q1136.63 1009.69 1136.35 1011.73 Q1135.64 1017.53 1135.64 1019.92 Q1135.64 1022.2 1136.24 1023.26 Q1136.84 1024.31 1138.53 1024.31 Q1140.18 1024.31 1142 1022.84 Q1143.87 1021.32 1145.06 1017.78 Q1145.34 1016.76 1146.01 1016.76 Q1146.04 1016.76 1146.08 1016.76 Q1146.15 1016.76 1146.29 1016.83 Q1146.43 1016.86 1146.54 1016.97 Q1146.68 1017.04 1146.75 1017.21 Q1146.85 1017.39 1146.85 1017.63 Z" fill="#000000" fill-rule="evenodd" fill-opacity="1" /><path clip-path="url(#clip020)" d="M1169.5 1023.47 Q1169.5 1024.15 1169.18 1024.33 Q1168.86 1024.47 1167.98 1024.47 L1163.26 1024.47 L1159.52 1039.33 Q1159.22 1040.64 1159.22 1041.74 Q1159.22 1042.97 1159.59 1043.51 Q1159.99 1044.05 1160.8 1044.05 Q1162.4 1044.05 1164.12 1042.6 Q1165.86 1041.15 1167.34 1037.61 Q1167.54 1037.14 1167.63 1037.04 Q1167.76 1036.92 1168.08 1036.92 Q1168.69 1036.92 1168.69 1037.41 Q1168.69 1037.58 1168.35 1038.37 Q1168.03 1039.16 1167.31 1040.32 Q1166.63 1041.47 1165.72 1042.55 Q1164.83 1043.64 1163.48 1044.42 Q1162.13 1045.19 1160.68 1045.19 Q1158.63 1045.19 1157.33 1043.88 Q1156.05 1042.58 1156.05 1040.54 Q1156.05 1039.87 1156.57 1037.76 Q1157.08 1035.62 1159.89 1024.47 L1155.44 1024.47 Q1154.82 1024.47 1154.58 1024.45 Q1154.36 1024.42 1154.18 1024.3 Q1154.04 1024.15 1154.04 1023.86 Q1154.04 1023.39 1154.23 1023.2 Q1154.43 1022.97 1154.67 1022.95 Q1154.95 1022.9 1155.56 1022.9 L1160.28 1022.9 L1162.25 1014.91 Q1162.45 1014.12 1162.94 1013.68 Q1163.45 1013.21 1163.75 1013.16 Q1164.04 1013.09 1164.27 1013.09 Q1164.93 1013.09 1165.32 1013.45 Q1165.72 1013.8 1165.72 1014.44 Q1165.72 1014.78 1163.65 1022.9 L1168.08 1022.9 Q1168.64 1022.9 1168.86 1022.92 Q1169.11 1022.95 1169.31 1023.07 Q1169.5 1023.2 1169.5 1023.47 Z" fill="#000000" fill-rule="evenodd" fill-opacity="1" /><path clip-path="url(#clip020)" d="M1192.32 1030.87 Q1192.32 1033.55 1191.14 1036.21 Q1189.96 1038.84 1188.07 1040.81 Q1186.2 1042.75 1183.74 1043.98 Q1181.28 1045.19 1178.82 1045.19 Q1175.31 1045.19 1173.02 1042.8 Q1170.76 1040.39 1170.76 1036.65 Q1170.76 1033.16 1172.7 1029.84 Q1174.67 1026.49 1177.82 1024.42 Q1180.96 1022.36 1184.26 1022.36 Q1187.73 1022.36 1190.01 1024.7 Q1192.32 1027.03 1192.32 1030.87 M1188.64 1028.9 Q1188.64 1026.52 1187.48 1024.99 Q1186.32 1023.47 1184.21 1023.47 Q1183.59 1023.47 1182.88 1023.66 Q1182.17 1023.83 1181.23 1024.3 Q1180.32 1024.77 1179.29 1025.75 Q1178.28 1026.71 1177.4 1028.09 Q1176.24 1029.91 1175.36 1033.26 Q1174.5 1036.58 1174.5 1038.57 Q1174.5 1041.32 1175.77 1042.7 Q1177.05 1044.05 1178.87 1044.05 Q1180.64 1044.05 1182.51 1042.82 Q1184.41 1041.57 1185.71 1039.43 Q1187.01 1037.22 1187.82 1033.97 Q1188.64 1030.7 1188.64 1028.9 Z" fill="#000000" fill-rule="evenodd" fill-opacity="1" /><path clip-path="url(#clip020)" d="M1208.47 1023.47 Q1208.47 1024.15 1208.15 1024.33 Q1207.83 1024.47 1206.94 1024.47 L1202.22 1024.47 L1198.49 1039.33 Q1198.19 1040.64 1198.19 1041.74 Q1198.19 1042.97 1198.56 1043.51 Q1198.95 1044.05 1199.76 1044.05 Q1201.36 1044.05 1203.08 1042.6 Q1204.83 1041.15 1206.31 1037.61 Q1206.5 1037.14 1206.6 1037.04 Q1206.72 1036.92 1207.04 1036.92 Q1207.66 1036.92 1207.66 1037.41 Q1207.66 1037.58 1207.31 1038.37 Q1206.99 1039.16 1206.28 1040.32 Q1205.59 1041.47 1204.68 1042.55 Q1203.8 1043.64 1202.44 1044.42 Q1201.09 1045.19 1199.64 1045.19 Q1197.6 1045.19 1196.3 1043.88 Q1195.02 1042.58 1195.02 1040.54 Q1195.02 1039.87 1195.53 1037.76 Q1196.05 1035.62 1198.85 1024.47 L1194.4 1024.47 Q1193.79 1024.47 1193.54 1024.45 Q1193.32 1024.42 1193.15 1024.3 Q1193 1024.15 1193 1023.86 Q1193 1023.39 1193.2 1023.2 Q1193.39 1022.97 1193.64 1022.95 Q1193.91 1022.9 1194.53 1022.9 L1199.25 1022.9 L1201.21 1014.91 Q1201.41 1014.12 1201.9 1013.68 Q1202.42 1013.21 1202.71 1013.16 Q1203.01 1013.09 1203.23 1013.09 Q1203.9 1013.09 1204.29 1013.45 Q1204.68 1013.8 1204.68 1014.44 Q1204.68 1014.78 1202.62 1022.9 L1207.04 1022.9 Q1207.61 1022.9 1207.83 1022.92 Q1208.08 1022.95 1208.27 1023.07 Q1208.47 1023.2 1208.47 1023.47 Z" fill="#000000" fill-rule="evenodd" fill-opacity="1" /><polyline clip-path="url(#clip023)" style="stroke:#000000; stroke-linecap:round; stroke-linejoin:round; stroke-width:2.00037; stroke-opacity:0.1; fill:none" points="262.739,857.047 1659.76,857.047 "/>
<polyline clip-path="url(#clip023)" style="stroke:#000000; stroke-linecap:round; stroke-linejoin:round; stroke-width:2.00037; stroke-opacity:0.1; fill:none" points="262.739,641.102 1659.76,641.102 "/>
<polyline clip-path="url(#clip023)" style="stroke:#000000; stroke-linecap:round; stroke-linejoin:round; stroke-width:2.00037; stroke-opacity:0.1; fill:none" points="262.739,425.157 1659.76,425.157 "/>
<polyline clip-path="url(#clip023)" style="stroke:#000000; stroke-linecap:round; stroke-linejoin:round; stroke-width:2.00037; stroke-opacity:0.1; fill:none" points="262.739,209.212 1659.76,209.212 "/>
<polyline clip-path="url(#clip020)" style="stroke:#000000; stroke-linecap:round; stroke-linejoin:round; stroke-width:4.00074; stroke-opacity:1; fill:none" points="262.739,857.047 262.739,47.2528 "/>
<polyline clip-path="url(#clip020)" style="stroke:#000000; stroke-linecap:round; stroke-linejoin:round; stroke-width:4.00074; stroke-opacity:1; fill:none" points="1659.76,857.047 1659.76,47.2528 "/>
<polyline clip-path="url(#clip020)" style="stroke:#000000; stroke-linecap:round; stroke-linejoin:round; stroke-width:4.00074; stroke-opacity:1; fill:none" points="262.739,857.047 281.635,857.047 "/>
<polyline clip-path="url(#clip020)" style="stroke:#000000; stroke-linecap:round; stroke-linejoin:round; stroke-width:4.00074; stroke-opacity:1; fill:none" points="262.739,641.102 281.635,641.102 "/>
<polyline clip-path="url(#clip020)" style="stroke:#000000; stroke-linecap:round; stroke-linejoin:round; stroke-width:4.00074; stroke-opacity:1; fill:none" points="262.739,425.157 281.635,425.157 "/>
<polyline clip-path="url(#clip020)" style="stroke:#000000; stroke-linecap:round; stroke-linejoin:round; stroke-width:4.00074; stroke-opacity:1; fill:none" points="262.739,209.212 281.635,209.212 "/>
<path clip-path="url(#clip020)" d="M118.974 858.559 Q118.974 848.333 121.555 842.761 Q125.155 834.472 133.646 834.472 Q135.447 834.472 137.315 834.981 Q139.216 835.457 141.594 837.326 Q144.005 839.194 145.466 842.252 Q148.251 848.163 148.251 858.559 Q148.251 868.717 145.67 874.255 Q141.9 882.34 133.578 882.34 Q130.454 882.34 127.261 880.744 Q124.103 879.147 122.099 875.308 Q118.974 869.566 118.974 858.559 M124.748 857.71 Q124.748 868.207 125.495 872.386 Q126.344 876.905 128.654 878.875 Q130.997 880.812 133.578 880.812 Q136.364 880.812 138.673 878.739 Q141.017 876.633 141.73 872.114 Q142.511 867.664 142.477 857.71 Q142.477 848.027 141.798 844.154 Q140.881 839.636 138.435 837.835 Q136.024 836.001 133.578 836.001 Q132.661 836.001 131.677 836.272 Q130.726 836.544 129.333 837.326 Q127.94 838.107 126.854 840.043 Q125.801 841.98 125.291 844.902 Q124.748 848.673 124.748 857.71 Z" fill="#000000" fill-rule="evenodd" fill-opacity="1" /><path clip-path="url(#clip020)" d="M157.998 879.69 Q156.946 878.569 156.946 877.108 Q156.946 875.648 157.998 874.594 Q159.051 873.507 160.648 873.507 Q162.176 873.507 163.195 874.526 Q164.248 875.512 164.248 877.142 Q164.248 878.739 163.127 879.792 Q162.04 880.812 160.648 880.812 Q159.051 880.812 157.998 879.69 Z" fill="#000000" fill-rule="evenodd" fill-opacity="1" /><path clip-path="url(#clip020)" d="M173.078 858.559 Q173.078 848.333 175.66 842.761 Q179.26 834.472 187.751 834.472 Q189.551 834.472 191.419 834.981 Q193.321 835.457 195.698 837.326 Q198.11 839.194 199.57 842.252 Q202.355 848.163 202.355 858.559 Q202.355 868.717 199.774 874.255 Q196.004 882.34 187.683 882.34 Q184.558 882.34 181.366 880.744 Q178.207 879.147 176.203 875.308 Q173.078 869.566 173.078 858.559 M178.852 857.71 Q178.852 868.207 179.599 872.386 Q180.449 876.905 182.758 878.875 Q185.102 880.812 187.683 880.812 Q190.468 880.812 192.777 878.739 Q195.121 876.633 195.834 872.114 Q196.615 867.664 196.581 857.71 Q196.581 848.027 195.902 844.154 Q194.985 839.636 192.54 837.835 Q190.128 836.001 187.683 836.001 Q186.766 836.001 185.781 836.272 Q184.83 836.544 183.437 837.326 Q182.045 838.107 180.958 840.043 Q179.905 841.98 179.396 844.902 Q178.852 848.673 178.852 857.71 Z" fill="#000000" fill-rule="evenodd" fill-opacity="1" /><path clip-path="url(#clip020)" d="M207.857 858.559 Q207.857 848.333 210.439 842.761 Q214.039 834.472 222.53 834.472 Q224.33 834.472 226.198 834.981 Q228.1 835.457 230.477 837.326 Q232.889 839.194 234.349 842.252 Q237.134 848.163 237.134 858.559 Q237.134 868.717 234.553 874.255 Q230.783 882.34 222.462 882.34 Q219.337 882.34 216.145 880.744 Q212.986 879.147 210.982 875.308 Q207.857 869.566 207.857 858.559 M213.631 857.71 Q213.631 868.207 214.378 872.386 Q215.228 876.905 217.537 878.875 Q219.881 880.812 222.462 880.812 Q225.247 880.812 227.556 878.739 Q229.9 876.633 230.613 872.114 Q231.394 867.664 231.36 857.71 Q231.36 848.027 230.681 844.154 Q229.764 839.636 227.319 837.835 Q224.907 836.001 222.462 836.001 Q221.545 836.001 220.56 836.272 Q219.609 836.544 218.216 837.326 Q216.824 838.107 215.737 840.043 Q214.684 841.98 214.175 844.902 Q213.631 848.673 213.631 857.71 Z" fill="#000000" fill-rule="evenodd" fill-opacity="1" /><path clip-path="url(#clip020)" d="M119.721 642.614 Q119.721 632.388 122.303 626.816 Q125.903 618.527 134.394 618.527 Q136.194 618.527 138.062 619.036 Q139.964 619.512 142.341 621.38 Q144.753 623.249 146.213 626.307 Q148.998 632.218 148.998 642.614 Q148.998 652.772 146.417 658.31 Q142.647 666.395 134.326 666.395 Q131.201 666.395 128.008 664.798 Q124.85 663.202 122.846 659.363 Q119.721 653.621 119.721 642.614 M125.495 641.764 Q125.495 652.262 126.242 656.441 Q127.091 660.959 129.401 662.93 Q131.744 664.866 134.326 664.866 Q137.111 664.866 139.42 662.794 Q141.764 660.688 142.477 656.169 Q143.258 651.719 143.224 641.764 Q143.224 632.082 142.545 628.209 Q141.628 623.691 139.183 621.89 Q136.771 620.055 134.326 620.055 Q133.409 620.055 132.424 620.327 Q131.473 620.599 130.08 621.38 Q128.688 622.162 127.601 624.098 Q126.548 626.035 126.039 628.957 Q125.495 632.728 125.495 641.764 Z" fill="#000000" fill-rule="evenodd" fill-opacity="1" /><path clip-path="url(#clip020)" d="M158.746 663.745 Q157.693 662.624 157.693 661.163 Q157.693 659.702 158.746 658.649 Q159.799 657.562 161.395 657.562 Q162.923 657.562 163.942 658.581 Q164.995 659.567 164.995 661.197 Q164.995 662.794 163.874 663.847 Q162.787 664.866 161.395 664.866 Q159.799 664.866 158.746 663.745 Z" fill="#000000" fill-rule="evenodd" fill-opacity="1" /><path clip-path="url(#clip020)" d="M173.826 642.614 Q173.826 632.388 176.407 626.816 Q180.007 618.527 188.498 618.527 Q190.298 618.527 192.166 619.036 Q194.068 619.512 196.446 621.38 Q198.857 623.249 200.317 626.307 Q203.102 632.218 203.102 642.614 Q203.102 652.772 200.521 658.31 Q196.751 666.395 188.43 666.395 Q185.305 666.395 182.113 664.798 Q178.954 663.202 176.95 659.363 Q173.826 653.621 173.826 642.614 M179.599 641.764 Q179.599 652.262 180.347 656.441 Q181.196 660.959 183.505 662.93 Q185.849 664.866 188.43 664.866 Q191.215 664.866 193.525 662.794 Q195.868 660.688 196.581 656.169 Q197.363 651.719 197.329 641.764 Q197.329 632.082 196.649 628.209 Q195.732 623.691 193.287 621.89 Q190.875 620.055 188.43 620.055 Q187.513 620.055 186.528 620.327 Q185.577 620.599 184.185 621.38 Q182.792 622.162 181.705 624.098 Q180.652 626.035 180.143 628.957 Q179.599 632.728 179.599 641.764 Z" fill="#000000" fill-rule="evenodd" fill-opacity="1" /><path clip-path="url(#clip020)" d="M209.352 664.866 Q209.352 663.609 209.454 663.236 Q209.59 662.862 210.133 662.284 L223.481 647.404 Q230.783 639.183 230.783 632.014 Q230.783 627.36 228.338 624.03 Q225.926 620.701 221.477 620.701 Q218.42 620.701 215.839 622.57 Q213.258 624.438 212.069 627.767 Q212.273 627.7 212.986 627.7 Q214.718 627.7 215.669 628.787 Q216.654 629.874 216.654 631.335 Q216.654 633.203 215.431 634.12 Q214.243 635.004 213.054 635.004 Q212.578 635.004 211.933 634.902 Q211.322 634.8 210.337 633.849 Q209.352 632.863 209.352 631.131 Q209.352 626.273 213.02 622.4 Q216.722 618.527 222.36 618.527 Q228.745 618.527 232.923 622.332 Q237.134 626.103 237.134 632.014 Q237.134 634.086 236.489 635.989 Q235.878 637.858 235.028 639.318 Q234.213 640.779 231.972 643.123 Q229.73 645.468 227.93 647.132 Q226.13 648.797 222.088 652.33 L214.718 659.499 L227.251 659.499 Q233.364 659.499 233.84 658.955 Q234.519 657.97 235.368 652.772 L237.134 652.772 L235.164 664.866 L209.352 664.866 Z" fill="#000000" fill-rule="evenodd" fill-opacity="1" /><path clip-path="url(#clip020)" d="M118.193 426.669 Q118.193 416.443 120.774 410.871 Q124.374 402.582 132.865 402.582 Q134.665 402.582 136.533 403.091 Q138.435 403.567 140.813 405.435 Q143.224 407.304 144.685 410.361 Q147.47 416.273 147.47 426.669 Q147.47 436.827 144.888 442.364 Q141.118 450.45 132.797 450.45 Q129.673 450.45 126.48 448.853 Q123.321 447.257 121.318 443.418 Q118.193 437.676 118.193 426.669 M123.967 425.819 Q123.967 436.317 124.714 440.496 Q125.563 445.014 127.873 446.985 Q130.216 448.921 132.797 448.921 Q135.582 448.921 137.892 446.849 Q140.235 444.742 140.949 440.224 Q141.73 435.774 141.696 425.819 Q141.696 416.137 141.017 412.264 Q140.1 407.745 137.654 405.945 Q135.243 404.11 132.797 404.11 Q131.88 404.11 130.895 404.382 Q129.944 404.654 128.552 405.435 Q127.159 406.217 126.072 408.153 Q125.02 410.09 124.51 413.011 Q123.967 416.782 123.967 425.819 Z" fill="#000000" fill-rule="evenodd" fill-opacity="1" /><path clip-path="url(#clip020)" d="M157.217 447.8 Q156.164 446.679 156.164 445.218 Q156.164 443.757 157.217 442.704 Q158.27 441.617 159.866 441.617 Q161.395 441.617 162.414 442.636 Q163.467 443.621 163.467 445.252 Q163.467 446.849 162.346 447.902 Q161.259 448.921 159.866 448.921 Q158.27 448.921 157.217 447.8 Z" fill="#000000" fill-rule="evenodd" fill-opacity="1" /><path clip-path="url(#clip020)" d="M172.297 426.669 Q172.297 416.443 174.879 410.871 Q178.479 402.582 186.97 402.582 Q188.77 402.582 190.638 403.091 Q192.54 403.567 194.917 405.435 Q197.329 407.304 198.789 410.361 Q201.574 416.273 201.574 426.669 Q201.574 436.827 198.993 442.364 Q195.223 450.45 186.902 450.45 Q183.777 450.45 180.584 448.853 Q177.426 447.257 175.422 443.418 Q172.297 437.676 172.297 426.669 M178.071 425.819 Q178.071 436.317 178.818 440.496 Q179.667 445.014 181.977 446.985 Q184.32 448.921 186.902 448.921 Q189.687 448.921 191.996 446.849 Q194.34 444.742 195.053 440.224 Q195.834 435.774 195.8 425.819 Q195.8 416.137 195.121 412.264 Q194.204 407.745 191.759 405.945 Q189.347 404.11 186.902 404.11 Q185.985 404.11 185 404.382 Q184.049 404.654 182.656 405.435 Q181.264 406.217 180.177 408.153 Q179.124 410.09 178.615 413.011 Q178.071 416.782 178.071 425.819 Z" fill="#000000" fill-rule="evenodd" fill-opacity="1" /><path clip-path="url(#clip020)" d="M206.295 437.438 L206.295 435.298 L227.658 402.649 Q228.202 401.8 229.051 401.834 Q229.832 401.834 230.002 402.14 Q230.172 402.446 230.172 403.635 L230.172 435.298 L237.134 435.298 L237.134 437.438 L230.172 437.438 L230.172 443.485 Q230.172 445.49 230.987 446.135 Q231.836 446.781 235.436 446.781 L236.896 446.781 L236.896 448.921 Q234.043 448.717 227.455 448.717 Q220.899 448.717 218.047 448.921 L218.047 446.781 L219.507 446.781 Q223.107 446.781 223.956 446.169 Q224.805 445.524 224.805 443.485 L224.805 437.438 L206.295 437.438 M208.265 435.298 L225.213 435.298 L225.213 409.342 L208.265 435.298 Z" fill="#000000" fill-rule="evenodd" fill-opacity="1" /><path clip-path="url(#clip020)" d="M119.178 210.723 Q119.178 200.498 121.759 194.926 Q125.359 186.636 133.85 186.636 Q135.65 186.636 137.518 187.146 Q139.42 187.622 141.798 189.49 Q144.209 191.359 145.67 194.416 Q148.455 200.328 148.455 210.723 Q148.455 220.882 145.873 226.419 Q142.103 234.505 133.782 234.505 Q130.658 234.505 127.465 232.908 Q124.306 231.311 122.303 227.472 Q119.178 221.731 119.178 210.723 M124.952 209.874 Q124.952 220.372 125.699 224.551 Q126.548 229.069 128.858 231.04 Q131.201 232.976 133.782 232.976 Q136.567 232.976 138.877 230.904 Q141.22 228.797 141.934 224.279 Q142.715 219.828 142.681 209.874 Q142.681 200.192 142.002 196.319 Q141.084 191.8 138.639 190 Q136.228 188.165 133.782 188.165 Q132.865 188.165 131.88 188.437 Q130.929 188.709 129.537 189.49 Q128.144 190.272 127.057 192.208 Q126.005 194.144 125.495 197.066 Q124.952 200.837 124.952 209.874 Z" fill="#000000" fill-rule="evenodd" fill-opacity="1" /><path clip-path="url(#clip020)" d="M158.202 231.855 Q157.149 230.734 157.149 229.273 Q157.149 227.812 158.202 226.759 Q159.255 225.672 160.851 225.672 Q162.38 225.672 163.399 226.691 Q164.452 227.676 164.452 229.307 Q164.452 230.904 163.331 231.957 Q162.244 232.976 160.851 232.976 Q159.255 232.976 158.202 231.855 Z" fill="#000000" fill-rule="evenodd" fill-opacity="1" /><path clip-path="url(#clip020)" d="M173.282 210.723 Q173.282 200.498 175.863 194.926 Q179.464 186.636 187.955 186.636 Q189.755 186.636 191.623 187.146 Q193.525 187.622 195.902 189.49 Q198.314 191.359 199.774 194.416 Q202.559 200.328 202.559 210.723 Q202.559 220.882 199.978 226.419 Q196.208 234.505 187.887 234.505 Q184.762 234.505 181.569 232.908 Q178.411 231.311 176.407 227.472 Q173.282 221.731 173.282 210.723 M179.056 209.874 Q179.056 220.372 179.803 224.551 Q180.652 229.069 182.962 231.04 Q185.305 232.976 187.887 232.976 Q190.672 232.976 192.981 230.904 Q195.325 228.797 196.038 224.279 Q196.819 219.828 196.785 209.874 Q196.785 200.192 196.106 196.319 Q195.189 191.8 192.743 190 Q190.332 188.165 187.887 188.165 Q186.97 188.165 185.985 188.437 Q185.034 188.709 183.641 189.49 Q182.249 190.272 181.162 192.208 Q180.109 194.144 179.599 197.066 Q179.056 200.837 179.056 209.874 Z" fill="#000000" fill-rule="evenodd" fill-opacity="1" /><path clip-path="url(#clip020)" d="M208.265 210.995 Q208.265 200.056 213.835 193.363 Q219.405 186.636 226.571 186.636 Q230.749 186.636 233.059 188.777 Q235.402 190.883 235.402 194.144 Q235.402 195.945 234.349 196.726 Q233.296 197.508 232.209 197.508 Q230.953 197.508 229.968 196.659 Q228.983 195.809 228.983 194.28 Q228.983 191.155 232.821 191.155 Q231.021 188.369 226.707 188.369 Q225.383 188.369 224.024 188.777 Q222.666 189.15 220.899 190.441 Q219.133 191.732 217.775 193.771 Q216.416 195.809 215.465 199.648 Q214.514 203.487 214.514 208.481 L214.514 210.146 Q217.367 203.249 223.209 203.283 Q229.051 203.283 233.093 207.734 Q237.134 212.184 237.134 218.775 Q237.134 225.536 232.923 230.02 Q228.711 234.505 222.801 234.505 Q220.152 234.505 217.741 233.384 Q215.363 232.297 213.122 229.783 Q210.914 227.269 209.59 222.444 Q208.265 217.62 208.265 210.995 M214.65 217.246 Q214.65 224.075 215.907 227.336 Q216.111 227.88 216.552 228.627 Q217.028 229.375 217.809 230.36 Q218.624 231.311 219.949 231.957 Q221.273 232.568 222.801 232.568 Q227.455 232.568 229.696 228.05 Q230.885 225.536 230.885 218.707 Q230.885 211.743 229.628 209.195 Q227.488 204.88 223.141 204.88 Q220.22 204.88 218.182 206.884 Q216.179 208.889 215.397 211.573 Q214.65 214.257 214.65 217.246 Z" fill="#000000" fill-rule="evenodd" fill-opacity="1" /><path clip-path="url(#clip020)" d="M77.0374 700.446 L74.7031 700.446 Q74.7031 697.703 74.1844 695.961 Q73.6287 694.22 72.6283 693.59 Q71.5908 692.922 70.9239 692.774 Q70.2199 692.626 69.0713 692.626 L31.1306 692.626 Q28.9446 692.626 28.2777 693.59 Q27.5737 694.516 27.5737 698.63 L27.5737 700.446 L25.2024 700.446 L25.2024 687.623 Q25.2024 686.251 25.4618 685.881 Q25.6841 685.51 26.8697 684.954 L69.3677 668.499 L26.6474 651.895 Q25.5729 651.524 25.3877 651.191 Q25.2024 650.82 25.2024 649.375 L25.2024 636.551 L27.5737 636.551 L27.5737 638.367 Q27.5737 642.481 28.2777 643.445 Q28.9446 644.371 31.1306 644.371 L71.1092 644.371 Q73.2952 644.371 73.9992 643.445 Q74.7031 642.481 74.7031 638.367 L74.7031 636.551 L77.0374 636.551 Q76.8151 639.368 76.8151 647.41 Q76.8151 655.527 77.0374 658.344 L74.7031 658.344 L74.7031 656.491 Q74.7031 652.377 74.0362 651.45 Q73.3322 650.524 71.1092 650.524 L27.5737 650.524 L27.5737 650.598 L75.5924 669.24 Q77.0374 669.759 77.0374 670.611 Q77.0374 671.538 75.3701 672.131 L28.1665 690.439 L28.1665 690.513 L69.0713 690.513 Q70.2199 690.513 70.9239 690.365 Q71.5908 690.217 72.6283 689.587 Q73.6287 688.92 74.1844 687.178 Q74.7031 685.436 74.7031 682.693 L77.0374 682.693 Q76.8151 690.662 76.8151 691.588 Q76.8151 692.478 77.0374 700.446 Z" fill="#000000" fill-rule="evenodd" fill-opacity="1" /><path clip-path="url(#clip020)" d="M60.3272 631.659 Q53.1763 631.659 48.1002 627.063 Q43.0242 622.468 43.0242 615.871 Q43.0242 609.2 47.3592 605.753 Q51.6942 602.269 57.9188 602.269 Q59.0674 602.269 59.2897 602.566 Q59.512 602.862 59.512 604.159 L59.512 625.359 Q67.2558 625.359 70.8868 623.061 Q75.9629 619.873 75.9629 614.499 Q75.9629 613.758 75.8147 612.869 Q75.6665 611.979 75.0366 610.163 Q74.3697 608.347 72.6283 606.754 Q70.8868 605.16 68.145 604.233 Q67.0705 604.011 67.1076 603.27 Q67.1076 602.269 67.9968 602.269 Q68.6638 602.269 70.1829 603.01 Q71.6649 603.714 73.4434 605.086 Q75.2219 606.457 76.5557 609.126 Q77.8896 611.757 77.8896 614.944 Q77.8896 621.615 72.8506 626.656 Q67.7745 631.659 60.3272 631.659 M57.9188 625.284 L57.9188 607.272 Q56.3256 607.272 54.5472 607.569 Q52.7687 607.828 50.3233 608.644 Q47.8408 609.422 46.2847 611.275 Q44.7285 613.128 44.7285 615.871 Q44.7285 617.094 45.2472 618.428 Q45.766 619.725 47.0257 621.319 Q48.2855 622.913 51.1384 624.024 Q53.9914 625.136 57.9188 625.284 Z" fill="#000000" fill-rule="evenodd" fill-opacity="1" /><path clip-path="url(#clip020)" d="M69.8124 596.895 Q63.3654 596.895 59.9567 589.297 Q57.7706 584.739 57.2149 575.325 L54.436 575.325 Q49.7305 575.325 47.248 577.808 Q44.7285 580.254 44.7285 583.368 Q44.7285 588.927 48.2114 591.595 Q48.2855 589.334 49.4341 588.519 Q50.5456 587.704 51.6942 587.704 Q53.2133 587.704 54.2137 588.667 Q55.177 589.594 55.177 591.188 Q55.177 592.707 54.2507 593.708 Q53.2874 594.708 51.6201 594.708 Q47.9149 594.708 45.4696 591.373 Q43.0242 588 43.0242 583.219 Q43.0242 576.993 47.211 572.842 Q48.5078 571.545 50.1751 570.915 Q51.8424 570.248 52.9539 570.174 Q54.0284 570.099 56.1774 570.099 L71.3315 570.099 Q71.7761 570.099 72.5171 569.951 Q73.2581 569.803 74.2215 569.136 Q75.1478 568.432 75.1478 567.283 Q75.1478 564.54 70.294 564.577 L66.0331 564.577 L66.0331 562.65 L70.294 562.65 Q74.3326 562.65 75.9258 564.8 Q77.482 566.912 77.482 568.876 Q77.482 571.397 75.6294 572.99 Q73.7769 574.584 71.2574 574.806 Q74.1474 575.955 76.037 578.587 Q77.8896 581.181 77.8896 584.739 Q77.8896 587.481 77.1856 590.076 Q76.5187 592.633 74.629 594.783 Q72.7024 596.895 69.8124 596.895 M69.7382 591.039 Q72.5542 591.039 74.3697 589.038 Q76.1852 587.037 76.1852 584.22 Q76.1852 581.033 73.7398 578.179 Q71.2574 575.325 66.4036 575.325 L58.8081 575.325 Q59.1045 583.738 62.4762 587.407 Q65.8108 591.039 69.7382 591.039 Z" fill="#000000" fill-rule="evenodd" fill-opacity="1" /><path clip-path="url(#clip020)" d="M77.0374 559.685 L74.7031 559.685 Q74.7031 555.645 74.2215 554.719 Q73.7028 553.792 71.2574 553.792 L50.9161 553.792 Q48.1002 553.792 47.3962 554.793 Q46.6922 555.756 46.6922 559.685 L44.321 559.685 L43.5058 549.011 L51.4719 549.011 Q43.5058 545.453 43.5058 537.781 Q43.5058 532.074 46.3217 529.813 Q48.2114 528.145 50.3233 527.812 Q52.4352 527.441 57.9188 527.441 L72.406 527.441 Q73.9992 527.367 74.3697 526.144 Q74.7031 524.921 74.7031 521.511 L77.0374 521.511 Q76.8151 529.257 76.8151 530.035 Q76.8151 530.628 77.0374 538.597 L74.7031 538.597 Q74.7031 534.557 74.2215 533.63 Q73.7028 532.667 71.2574 532.667 L53.5838 532.667 Q49.7305 532.667 47.4703 533.853 Q45.1731 535.039 45.1731 538.3 Q45.1731 542.229 48.4707 545.379 Q51.7683 548.529 57.326 548.529 L71.2574 548.529 Q73.7028 548.529 74.2215 547.603 Q74.7031 546.639 74.7031 542.637 L77.0374 542.637 Q76.8151 550.382 76.8151 551.124 Q76.8151 551.717 77.0374 559.685 Z" fill="#000000" fill-rule="evenodd" fill-opacity="1" /><path clip-path="url(#clip020)" d="M77.0374 492.269 L74.7031 492.269 Q74.7031 488.23 74.2215 487.303 Q73.7028 486.377 71.2574 486.377 L50.842 486.377 Q48.0261 486.377 47.3592 487.34 Q46.6922 488.267 46.6922 491.973 L44.321 491.973 L43.5058 481.373 L71.3315 481.373 Q73.5916 481.373 74.1474 480.558 Q74.7031 479.743 74.7031 476.036 L77.0374 476.036 Q76.8151 483.782 76.8151 483.931 Q76.8151 484.968 77.0374 492.269 M30.2785 489.082 Q28.7593 489.082 27.5366 487.933 Q26.2769 486.747 26.2769 485.079 Q26.2769 483.412 27.4255 482.226 Q28.537 481.04 30.3155 481.04 Q32.0569 481.04 33.2055 482.226 Q34.3171 483.412 34.3171 485.079 Q34.3171 486.821 33.0944 487.97 Q31.8717 489.082 30.2785 489.082 Z" fill="#000000" fill-rule="evenodd" fill-opacity="1" /><path clip-path="url(#clip020)" d="M77.0374 471.329 L74.7031 471.329 Q74.7031 467.29 74.2215 466.363 Q73.7028 465.437 71.2574 465.437 L50.9161 465.437 Q48.1002 465.437 47.3962 466.437 Q46.6922 467.401 46.6922 471.329 L44.321 471.329 L43.5058 460.656 L51.4719 460.656 Q43.5058 457.098 43.5058 449.426 Q43.5058 443.718 46.3217 441.458 Q48.2114 439.79 50.3233 439.456 Q52.4352 439.086 57.9188 439.086 L72.406 439.086 Q73.9992 439.012 74.3697 437.789 Q74.7031 436.565 74.7031 433.156 L77.0374 433.156 Q76.8151 440.902 76.8151 441.68 Q76.8151 442.273 77.0374 450.241 L74.7031 450.241 Q74.7031 446.202 74.2215 445.275 Q73.7028 444.311 71.2574 444.311 L53.5838 444.311 Q49.7305 444.311 47.4703 445.497 Q45.1731 446.683 45.1731 449.945 Q45.1731 453.873 48.4707 457.024 Q51.7683 460.174 57.326 460.174 L71.2574 460.174 Q73.7028 460.174 74.2215 459.247 Q74.7031 458.284 74.7031 454.281 L77.0374 454.281 Q76.8151 462.027 76.8151 462.768 Q76.8151 463.361 77.0374 471.329 Z" fill="#000000" fill-rule="evenodd" fill-opacity="1" /><path clip-path="url(#clip020)" d="M46.6922 429.153 L44.321 429.153 L44.321 423.186 L35.6139 423.186 Q29.982 423.186 26.7586 419.554 Q23.5351 415.885 23.5351 411.4 Q23.5351 408.436 25.1283 406.508 Q26.7215 404.581 28.8705 404.581 Q30.3155 404.581 31.2788 405.471 Q32.2051 406.323 32.2051 407.917 Q32.2051 409.436 31.2418 410.326 Q30.2785 411.178 28.9446 411.178 Q26.4992 411.178 25.7582 408.917 Q25.2395 410.066 25.2024 411.4 Q25.2024 414.143 28.0183 416.293 Q30.8342 418.405 35.5398 418.405 L44.321 418.405 L44.321 409.51 L46.6922 409.51 L46.6922 418.146 L71.1092 418.146 Q73.2952 418.146 73.9992 417.256 Q74.7031 416.33 74.7031 412.401 L74.7031 410.807 L77.0374 410.807 Q76.8151 413.847 76.8151 420.444 Q76.8151 421.37 76.8521 422.816 Q76.8892 424.224 76.9633 426.151 Q77.0374 428.041 77.0374 429.079 L74.7031 429.079 Q74.7031 425.039 74.2215 424.113 Q73.7028 423.186 71.2574 423.186 L46.6922 423.186 L46.6922 429.153 Z" fill="#000000" fill-rule="evenodd" fill-opacity="1" /><path clip-path="url(#clip020)" d="M77.0374 406.026 L74.7031 406.026 Q74.7031 401.987 74.2215 401.06 Q73.7028 400.134 71.2574 400.134 L50.842 400.134 Q48.0261 400.134 47.3592 401.097 Q46.6922 402.024 46.6922 405.73 L44.321 405.73 L43.5058 395.13 L71.3315 395.13 Q73.5916 395.13 74.1474 394.315 Q74.7031 393.5 74.7031 389.793 L77.0374 389.793 Q76.8151 397.539 76.8151 397.688 Q76.8151 398.725 77.0374 406.026 M30.2785 402.839 Q28.7593 402.839 27.5366 401.69 Q26.2769 400.504 26.2769 398.836 Q26.2769 397.169 27.4255 395.983 Q28.537 394.797 30.3155 394.797 Q32.0569 394.797 33.2055 395.983 Q34.3171 397.169 34.3171 398.836 Q34.3171 400.578 33.0944 401.727 Q31.8717 402.839 30.2785 402.839 Z" fill="#000000" fill-rule="evenodd" fill-opacity="1" /><path clip-path="url(#clip020)" d="M60.7347 384.938 Q53.5097 384.938 48.5078 379.898 Q43.5058 374.857 43.5058 368.038 Q43.5058 362.256 48.2114 358.476 L31.7976 358.476 Q28.9817 358.476 28.2777 359.477 Q27.5737 360.44 27.5737 364.369 L25.2024 364.369 L24.3873 353.436 L70.4422 353.436 Q73.2581 353.436 73.9992 352.472 Q74.7031 351.471 74.7031 347.543 L77.0374 347.543 L77.8896 358.698 L72.8506 358.698 Q77.8525 362.627 77.8896 368.853 Q77.8896 375.376 72.8876 380.157 Q67.8857 384.938 60.7347 384.938 M60.8089 378.638 Q67.8486 378.638 71.3315 376.451 Q76.1852 373.412 76.1852 368.483 Q76.1852 362.849 70.8868 359.514 Q69.59 358.661 68.0709 358.698 L52.5093 358.698 Q50.9902 358.698 49.7305 359.514 Q45.1731 362.627 45.1731 367.705 Q45.1731 373.004 50.0269 376.303 Q53.6579 378.638 60.8089 378.638 Z" fill="#000000" fill-rule="evenodd" fill-opacity="1" /><path clip-path="url(#clip020)" d="M60.3272 343.318 Q53.1763 343.318 48.1002 338.722 Q43.0242 334.126 43.0242 327.529 Q43.0242 320.858 47.3592 317.412 Q51.6942 313.928 57.9188 313.928 Q59.0674 313.928 59.2897 314.224 Q59.512 314.521 59.512 315.818 L59.512 337.017 Q67.2558 337.017 70.8868 334.719 Q75.9629 331.532 75.9629 326.158 Q75.9629 325.417 75.8147 324.527 Q75.6665 323.638 75.0366 321.822 Q74.3697 320.006 72.6283 318.412 Q70.8868 316.819 68.145 315.892 Q67.0705 315.67 67.1076 314.928 Q67.1076 313.928 67.9968 313.928 Q68.6638 313.928 70.1829 314.669 Q71.6649 315.373 73.4434 316.744 Q75.2219 318.116 76.5557 320.784 Q77.8896 323.416 77.8896 326.603 Q77.8896 333.274 72.8506 338.314 Q67.7745 343.318 60.3272 343.318 M57.9188 336.943 L57.9188 318.931 Q56.3256 318.931 54.5472 319.228 Q52.7687 319.487 50.3233 320.302 Q47.8408 321.081 46.2847 322.934 Q44.7285 324.787 44.7285 327.529 Q44.7285 328.752 45.2472 330.087 Q45.766 331.384 47.0257 332.978 Q48.2855 334.571 51.1384 335.683 Q53.9914 336.795 57.9188 336.943 Z" fill="#000000" fill-rule="evenodd" fill-opacity="1" /><path clip-path="url(#clip020)" d="M77.0374 309.221 L74.7031 309.221 Q74.7031 305.181 74.2215 304.255 Q73.7028 303.328 71.2574 303.328 L31.7976 303.328 Q28.9817 303.328 28.2777 304.329 Q27.5737 305.292 27.5737 309.221 L25.2024 309.221 L24.3873 298.325 L71.2574 298.325 Q73.7028 298.325 74.2215 297.361 Q74.7031 296.397 74.7031 292.395 L77.0374 292.395 Q77.0374 293.321 76.9633 295.249 Q76.8892 297.176 76.8521 298.584 Q76.8151 299.992 76.8151 300.808 Q76.8151 301.697 77.0374 309.221 Z" fill="#000000" fill-rule="evenodd" fill-opacity="1" /><path clip-path="url(#clip020)" d="M77.0374 288.207 L74.7031 288.207 Q74.7031 284.167 74.2215 283.241 Q73.7028 282.314 71.2574 282.314 L50.842 282.314 Q48.0261 282.314 47.3592 283.278 Q46.6922 284.204 46.6922 287.91 L44.321 287.91 L43.5058 277.311 L71.3315 277.311 Q73.5916 277.311 74.1474 276.495 Q74.7031 275.68 74.7031 271.974 L77.0374 271.974 Q76.8151 279.72 76.8151 279.868 Q76.8151 280.906 77.0374 288.207 M30.2785 285.019 Q28.7593 285.019 27.5366 283.871 Q26.2769 282.685 26.2769 281.017 Q26.2769 279.349 27.4255 278.163 Q28.537 276.977 30.3155 276.977 Q32.0569 276.977 33.2055 278.163 Q34.3171 279.349 34.3171 281.017 Q34.3171 282.759 33.0944 283.908 Q31.8717 285.019 30.2785 285.019 Z" fill="#000000" fill-rule="evenodd" fill-opacity="1" /><path clip-path="url(#clip020)" d="M46.6922 268.268 L45.0249 268.268 Q44.8767 264.784 42.4313 262.486 Q39.9489 260.151 36.9107 259.373 Q33.8724 258.557 30.3526 258.483 L30.3526 256.593 L44.321 256.593 L44.321 245.734 L46.6922 245.734 L46.6922 256.593 L67.7745 256.593 Q75.9629 256.593 75.9629 251.478 Q75.9629 249.292 73.7398 247.846 Q71.4797 246.401 67.4781 246.401 L63.2913 246.401 L63.2913 244.511 L67.6263 244.511 Q71.739 244.511 74.8143 246.401 Q77.8896 248.291 77.8896 252.034 Q77.8896 253.406 77.5191 254.777 Q77.1856 256.111 76.2964 257.89 Q75.3701 259.632 73.147 260.744 Q70.8868 261.819 67.6263 261.819 L46.6922 261.819 L46.6922 268.268 Z" fill="#000000" fill-rule="evenodd" fill-opacity="1" /><path clip-path="url(#clip020)" d="M86.4485 240.953 Q84.8552 240.953 84.0031 240.026 Q83.1879 239.063 83.1879 237.766 Q83.1879 236.394 84.0401 235.505 Q84.9293 234.578 86.3744 234.578 Q89.1903 234.578 89.5608 237.543 Q90.9317 236.098 90.9317 233.985 Q90.9317 231.725 89.2644 229.908 Q87.597 228.055 86.0038 227.277 Q84.4106 226.462 81.5206 225.313 Q79.2605 224.238 77.0374 223.423 L49.3229 234.801 Q47.5074 235.542 47.0998 236.691 Q46.6922 237.84 46.6922 240.953 L44.321 240.953 Q44.5433 237.543 44.5433 233.578 Q44.5433 231.243 44.321 225.313 L46.6922 225.313 Q46.6922 229.575 48.656 229.575 Q48.8783 229.575 50.0269 229.13 L70.4422 220.68 L51.7683 213.008 Q50.6938 212.564 49.9528 212.564 Q46.8405 212.564 46.6922 216.121 L44.321 216.121 Q44.5433 211.118 44.5433 209.524 Q44.5433 206.411 44.321 203.854 L46.6922 203.854 Q46.6922 208.931 51.546 210.896 L83.929 224.275 Q92.5619 227.907 92.599 233.985 Q92.599 236.876 90.8205 238.915 Q89.0421 240.953 86.4485 240.953 Z" fill="#000000" fill-rule="evenodd" fill-opacity="1" /><polyline clip-path="url(#clip023)" style="stroke:#000000; stroke-linecap:round; stroke-linejoin:round; stroke-width:4.00074; stroke-opacity:1; fill:none" points="568.525,189.797 568.525,189.797 "/>
<polyline clip-path="url(#clip023)" style="stroke:#000000; stroke-linecap:round; stroke-linejoin:round; stroke-width:4.00074; stroke-opacity:1; fill:none" points="382.426,148.136 382.426,148.136 "/>
<polyline clip-path="url(#clip023)" style="stroke:#000000; stroke-linecap:round; stroke-linejoin:round; stroke-width:4.00074; stroke-opacity:1; fill:none" points="302.278,101.037 302.278,101.037 "/>
<polyline clip-path="url(#clip023)" style="stroke:#000000; stroke-linecap:round; stroke-linejoin:round; stroke-width:4.00074; stroke-opacity:1; fill:none" points="648.673,209.803 648.673,209.803 "/>
<polyline clip-path="url(#clip023)" style="stroke:#000000; stroke-linecap:round; stroke-linejoin:round; stroke-width:4.00074; stroke-opacity:1; fill:none" points="834.772,224.406 834.772,224.406 "/>
<polyline clip-path="url(#clip023)" style="stroke:#000000; stroke-linecap:round; stroke-linejoin:round; stroke-width:4.00074; stroke-opacity:1; fill:none" points="462.574,176.446 462.574,176.446 "/>
<line clip-path="url(#clip023)" x1="568.525" y1="209.801" x2="568.525" y2="169.793" style="stroke:#000000; stroke-width:2.108; stroke-opacity:1"/>
<line clip-path="url(#clip023)" x1="568.525" y1="209.801" x2="568.525" y2="169.793" style="stroke:#000000; stroke-width:2.108; stroke-opacity:1"/>
<line clip-path="url(#clip023)" x1="382.426" y1="168.14" x2="382.426" y2="128.133" style="stroke:#000000; stroke-width:2.108; stroke-opacity:1"/>
<line clip-path="url(#clip023)" x1="382.426" y1="168.14" x2="382.426" y2="128.133" style="stroke:#000000; stroke-width:2.108; stroke-opacity:1"/>
<line clip-path="url(#clip023)" x1="302.278" y1="121.041" x2="302.278" y2="81.0335" style="stroke:#000000; stroke-width:2.108; stroke-opacity:1"/>
<line clip-path="url(#clip023)" x1="302.278" y1="121.041" x2="302.278" y2="81.0335" style="stroke:#000000; stroke-width:2.108; stroke-opacity:1"/>
<line clip-path="url(#clip023)" x1="648.673" y1="229.807" x2="648.673" y2="189.799" style="stroke:#000000; stroke-width:2.108; stroke-opacity:1"/>
<line clip-path="url(#clip023)" x1="648.673" y1="229.807" x2="648.673" y2="189.799" style="stroke:#000000; stroke-width:2.108; stroke-opacity:1"/>
<line clip-path="url(#clip023)" x1="834.772" y1="244.409" x2="834.772" y2="204.402" style="stroke:#000000; stroke-width:2.108; stroke-opacity:1"/>
<line clip-path="url(#clip023)" x1="834.772" y1="244.409" x2="834.772" y2="204.402" style="stroke:#000000; stroke-width:2.108; stroke-opacity:1"/>
<line clip-path="url(#clip023)" x1="462.574" y1="196.45" x2="462.574" y2="156.442" style="stroke:#000000; stroke-width:2.108; stroke-opacity:1"/>
<line clip-path="url(#clip023)" x1="462.574" y1="196.45" x2="462.574" y2="156.442" style="stroke:#000000; stroke-width:2.108; stroke-opacity:1"/>
<polyline clip-path="url(#clip023)" style="stroke:#000000; stroke-linecap:round; stroke-linejoin:round; stroke-width:4.00074; stroke-opacity:1; fill:none" points="568.525,213.651 568.525,165.942 "/>
<polyline clip-path="url(#clip023)" style="stroke:#000000; stroke-linecap:round; stroke-linejoin:round; stroke-width:4.00074; stroke-opacity:1; fill:none" points="382.426,196.423 382.426,99.8501 "/>
<polyline clip-path="url(#clip023)" style="stroke:#000000; stroke-linecap:round; stroke-linejoin:round; stroke-width:4.00074; stroke-opacity:1; fill:none" points="302.278,142.745 302.278,59.3295 "/>
<polyline clip-path="url(#clip023)" style="stroke:#000000; stroke-linecap:round; stroke-linejoin:round; stroke-width:4.00074; stroke-opacity:1; fill:none" points="648.673,225.194 648.673,194.412 "/>
<polyline clip-path="url(#clip023)" style="stroke:#000000; stroke-linecap:round; stroke-linejoin:round; stroke-width:4.00074; stroke-opacity:1; fill:none" points="834.772,241.573 834.772,207.238 "/>
<polyline clip-path="url(#clip023)" style="stroke:#000000; stroke-linecap:round; stroke-linejoin:round; stroke-width:4.00074; stroke-opacity:1; fill:none" points="462.574,200.312 462.574,152.58 "/>
<line clip-path="url(#clip023)" x1="588.528" y1="213.651" x2="548.521" y2="213.651" style="stroke:#000000; stroke-width:2.108; stroke-opacity:1"/>
<line clip-path="url(#clip023)" x1="588.528" y1="165.942" x2="548.521" y2="165.942" style="stroke:#000000; stroke-width:2.108; stroke-opacity:1"/>
<line clip-path="url(#clip023)" x1="402.43" y1="196.423" x2="362.422" y2="196.423" style="stroke:#000000; stroke-width:2.108; stroke-opacity:1"/>
<line clip-path="url(#clip023)" x1="402.43" y1="99.8501" x2="362.422" y2="99.8501" style="stroke:#000000; stroke-width:2.108; stroke-opacity:1"/>
<line clip-path="url(#clip023)" x1="322.281" y1="142.745" x2="282.274" y2="142.745" style="stroke:#000000; stroke-width:2.108; stroke-opacity:1"/>
<line clip-path="url(#clip023)" x1="322.281" y1="59.3295" x2="282.274" y2="59.3295" style="stroke:#000000; stroke-width:2.108; stroke-opacity:1"/>
<line clip-path="url(#clip023)" x1="668.677" y1="225.194" x2="628.669" y2="225.194" style="stroke:#000000; stroke-width:2.108; stroke-opacity:1"/>
<line clip-path="url(#clip023)" x1="668.677" y1="194.412" x2="628.669" y2="194.412" style="stroke:#000000; stroke-width:2.108; stroke-opacity:1"/>
<line clip-path="url(#clip023)" x1="854.776" y1="241.573" x2="814.768" y2="241.573" style="stroke:#000000; stroke-width:2.108; stroke-opacity:1"/>
<line clip-path="url(#clip023)" x1="854.776" y1="207.238" x2="814.768" y2="207.238" style="stroke:#000000; stroke-width:2.108; stroke-opacity:1"/>
<line clip-path="url(#clip023)" x1="482.578" y1="200.312" x2="442.571" y2="200.312" style="stroke:#000000; stroke-width:2.108; stroke-opacity:1"/>
<line clip-path="url(#clip023)" x1="482.578" y1="152.58" x2="442.571" y2="152.58" style="stroke:#000000; stroke-width:2.108; stroke-opacity:1"/>
<path clip-path="url(#clip023)" d="M568.525 169.793 L563.824 183.316 L549.501 183.616 L560.923 192.277 L556.763 205.98 L568.525 197.798 L580.287 205.98 L576.126 192.277 L587.548 183.616 L573.226 183.316 L568.525 169.793 Z" fill="#66c5cc" fill-rule="evenodd" fill-opacity="1" stroke="#000000" stroke-opacity="1" stroke-width="2.108"/>
<path clip-path="url(#clip023)" d="M382.426 128.133 L377.725 141.655 L363.402 141.955 L374.825 150.617 L370.664 164.319 L382.426 156.138 L394.188 164.319 L390.027 150.617 L401.449 141.955 L387.127 141.655 L382.426 128.133 Z" fill="#66c5cc" fill-rule="evenodd" fill-opacity="1" stroke="#000000" stroke-opacity="1" stroke-width="2.108"/>
<path clip-path="url(#clip023)" d="M302.278 81.0335 L297.577 94.556 L283.254 94.856 L294.676 103.518 L290.515 117.22 L302.278 109.039 L314.04 117.22 L309.879 103.518 L321.301 94.856 L306.978 94.556 L302.278 81.0335 Z" fill="#66c5cc" fill-rule="evenodd" fill-opacity="1" stroke="#000000" stroke-opacity="1" stroke-width="2.108"/>
<path clip-path="url(#clip023)" d="M648.673 189.799 L643.972 203.322 L629.65 203.622 L641.072 212.283 L636.911 225.986 L648.673 217.804 L660.435 225.986 L656.275 212.283 L667.697 203.622 L653.374 203.322 L648.673 189.799 Z" fill="#66c5cc" fill-rule="evenodd" fill-opacity="1" stroke="#000000" stroke-opacity="1" stroke-width="2.108"/>
<path clip-path="url(#clip023)" d="M834.772 204.402 L830.071 217.924 L815.748 218.224 L827.171 226.886 L823.01 240.589 L834.772 232.407 L846.534 240.589 L842.373 226.886 L853.795 218.224 L839.473 217.924 L834.772 204.402 Z" fill="#66c5cc" fill-rule="evenodd" fill-opacity="1" stroke="#000000" stroke-opacity="1" stroke-width="2.108"/>
<path clip-path="url(#clip023)" d="M462.574 156.442 L457.873 169.965 L443.551 170.265 L454.973 178.927 L450.812 192.629 L462.574 184.448 L474.336 192.629 L470.176 178.927 L481.598 170.265 L467.275 169.965 L462.574 156.442 Z" fill="#66c5cc" fill-rule="evenodd" fill-opacity="1" stroke="#000000" stroke-opacity="1" stroke-width="2.108"/>
<polyline clip-path="url(#clip023)" style="stroke:#000000; stroke-linecap:round; stroke-linejoin:round; stroke-width:4.00074; stroke-opacity:1; fill:none" points="591.089,358.463 591.089,358.463 "/>
<polyline clip-path="url(#clip023)" style="stroke:#000000; stroke-linecap:round; stroke-linejoin:round; stroke-width:4.00074; stroke-opacity:1; fill:none" points="404.99,313.997 404.99,313.997 "/>
<polyline clip-path="url(#clip023)" style="stroke:#000000; stroke-linecap:round; stroke-linejoin:round; stroke-width:4.00074; stroke-opacity:1; fill:none" points="324.842,276.79 324.842,276.79 "/>
<polyline clip-path="url(#clip023)" style="stroke:#000000; stroke-linecap:round; stroke-linejoin:round; stroke-width:4.00074; stroke-opacity:1; fill:none" points="671.237,368.681 671.237,368.681 "/>
<polyline clip-path="url(#clip023)" style="stroke:#000000; stroke-linecap:round; stroke-linejoin:round; stroke-width:4.00074; stroke-opacity:1; fill:none" points="857.336,381.225 857.336,381.225 "/>
<polyline clip-path="url(#clip023)" style="stroke:#000000; stroke-linecap:round; stroke-linejoin:round; stroke-width:4.00074; stroke-opacity:1; fill:none" points="485.138,333.53 485.138,333.53 "/>
<line clip-path="url(#clip023)" x1="591.089" y1="378.467" x2="591.089" y2="338.459" style="stroke:#000000; stroke-width:2.108; stroke-opacity:1"/>
<line clip-path="url(#clip023)" x1="591.089" y1="378.467" x2="591.089" y2="338.459" style="stroke:#000000; stroke-width:2.108; stroke-opacity:1"/>
<line clip-path="url(#clip023)" x1="404.99" y1="334.001" x2="404.99" y2="293.994" style="stroke:#000000; stroke-width:2.108; stroke-opacity:1"/>
<line clip-path="url(#clip023)" x1="404.99" y1="334.001" x2="404.99" y2="293.994" style="stroke:#000000; stroke-width:2.108; stroke-opacity:1"/>
<line clip-path="url(#clip023)" x1="324.842" y1="296.794" x2="324.842" y2="256.786" style="stroke:#000000; stroke-width:2.108; stroke-opacity:1"/>
<line clip-path="url(#clip023)" x1="324.842" y1="296.794" x2="324.842" y2="256.786" style="stroke:#000000; stroke-width:2.108; stroke-opacity:1"/>
<line clip-path="url(#clip023)" x1="671.237" y1="388.685" x2="671.237" y2="348.677" style="stroke:#000000; stroke-width:2.108; stroke-opacity:1"/>
<line clip-path="url(#clip023)" x1="671.237" y1="388.685" x2="671.237" y2="348.677" style="stroke:#000000; stroke-width:2.108; stroke-opacity:1"/>
<line clip-path="url(#clip023)" x1="857.336" y1="401.228" x2="857.336" y2="361.221" style="stroke:#000000; stroke-width:2.108; stroke-opacity:1"/>
<line clip-path="url(#clip023)" x1="857.336" y1="401.228" x2="857.336" y2="361.221" style="stroke:#000000; stroke-width:2.108; stroke-opacity:1"/>
<line clip-path="url(#clip023)" x1="485.138" y1="353.534" x2="485.138" y2="313.526" style="stroke:#000000; stroke-width:2.108; stroke-opacity:1"/>
<line clip-path="url(#clip023)" x1="485.138" y1="353.534" x2="485.138" y2="313.526" style="stroke:#000000; stroke-width:2.108; stroke-opacity:1"/>
<polyline clip-path="url(#clip023)" style="stroke:#000000; stroke-linecap:round; stroke-linejoin:round; stroke-width:4.00074; stroke-opacity:1; fill:none" points="591.089,368.754 591.089,348.172 "/>
<polyline clip-path="url(#clip023)" style="stroke:#000000; stroke-linecap:round; stroke-linejoin:round; stroke-width:4.00074; stroke-opacity:1; fill:none" points="404.99,338.627 404.99,289.368 "/>
<polyline clip-path="url(#clip023)" style="stroke:#000000; stroke-linecap:round; stroke-linejoin:round; stroke-width:4.00074; stroke-opacity:1; fill:none" points="324.842,326.384 324.842,227.197 "/>
<polyline clip-path="url(#clip023)" style="stroke:#000000; stroke-linecap:round; stroke-linejoin:round; stroke-width:4.00074; stroke-opacity:1; fill:none" points="671.237,376.379 671.237,360.983 "/>
<polyline clip-path="url(#clip023)" style="stroke:#000000; stroke-linecap:round; stroke-linejoin:round; stroke-width:4.00074; stroke-opacity:1; fill:none" points="857.336,383.681 857.336,378.768 "/>
<polyline clip-path="url(#clip023)" style="stroke:#000000; stroke-linecap:round; stroke-linejoin:round; stroke-width:4.00074; stroke-opacity:1; fill:none" points="485.138,348.724 485.138,318.336 "/>
<line clip-path="url(#clip023)" x1="611.093" y1="368.754" x2="571.085" y2="368.754" style="stroke:#000000; stroke-width:2.108; stroke-opacity:1"/>
<line clip-path="url(#clip023)" x1="611.093" y1="348.172" x2="571.085" y2="348.172" style="stroke:#000000; stroke-width:2.108; stroke-opacity:1"/>
<line clip-path="url(#clip023)" x1="424.994" y1="338.627" x2="384.986" y2="338.627" style="stroke:#000000; stroke-width:2.108; stroke-opacity:1"/>
<line clip-path="url(#clip023)" x1="424.994" y1="289.368" x2="384.986" y2="289.368" style="stroke:#000000; stroke-width:2.108; stroke-opacity:1"/>
<line clip-path="url(#clip023)" x1="344.845" y1="326.384" x2="304.838" y2="326.384" style="stroke:#000000; stroke-width:2.108; stroke-opacity:1"/>
<line clip-path="url(#clip023)" x1="344.845" y1="227.197" x2="304.838" y2="227.197" style="stroke:#000000; stroke-width:2.108; stroke-opacity:1"/>
<line clip-path="url(#clip023)" x1="691.241" y1="376.379" x2="651.234" y2="376.379" style="stroke:#000000; stroke-width:2.108; stroke-opacity:1"/>
<line clip-path="url(#clip023)" x1="691.241" y1="360.983" x2="651.234" y2="360.983" style="stroke:#000000; stroke-width:2.108; stroke-opacity:1"/>
<line clip-path="url(#clip023)" x1="877.34" y1="383.681" x2="837.332" y2="383.681" style="stroke:#000000; stroke-width:2.108; stroke-opacity:1"/>
<line clip-path="url(#clip023)" x1="877.34" y1="378.768" x2="837.332" y2="378.768" style="stroke:#000000; stroke-width:2.108; stroke-opacity:1"/>
<line clip-path="url(#clip023)" x1="505.142" y1="348.724" x2="465.135" y2="348.724" style="stroke:#000000; stroke-width:2.108; stroke-opacity:1"/>
<line clip-path="url(#clip023)" x1="505.142" y1="318.336" x2="465.135" y2="318.336" style="stroke:#000000; stroke-width:2.108; stroke-opacity:1"/>
<path clip-path="url(#clip023)" d="M591.089 378.467 L573.766 368.465 L573.766 348.461 L591.089 338.459 L608.412 348.461 L608.412 368.465 Z" fill="#f6cf71" fill-rule="evenodd" fill-opacity="1" stroke="#000000" stroke-opacity="1" stroke-width="2.108"/>
<path clip-path="url(#clip023)" d="M404.99 334.001 L387.667 323.999 L387.667 303.996 L404.99 293.994 L422.313 303.996 L422.313 323.999 Z" fill="#f6cf71" fill-rule="evenodd" fill-opacity="1" stroke="#000000" stroke-opacity="1" stroke-width="2.108"/>
<path clip-path="url(#clip023)" d="M324.842 296.794 L307.518 286.792 L307.518 266.788 L324.842 256.786 L342.165 266.788 L342.165 286.792 Z" fill="#f6cf71" fill-rule="evenodd" fill-opacity="1" stroke="#000000" stroke-opacity="1" stroke-width="2.108"/>
<path clip-path="url(#clip023)" d="M671.237 388.685 L653.914 378.683 L653.914 358.679 L671.237 348.677 L688.56 358.679 L688.56 378.683 Z" fill="#f6cf71" fill-rule="evenodd" fill-opacity="1" stroke="#000000" stroke-opacity="1" stroke-width="2.108"/>
<path clip-path="url(#clip023)" d="M857.336 401.228 L840.013 391.227 L840.013 371.223 L857.336 361.221 L874.659 371.223 L874.659 391.227 Z" fill="#f6cf71" fill-rule="evenodd" fill-opacity="1" stroke="#000000" stroke-opacity="1" stroke-width="2.108"/>
<path clip-path="url(#clip023)" d="M485.138 353.534 L467.815 343.532 L467.815 323.528 L485.138 313.526 L502.462 323.528 L502.462 343.532 Z" fill="#f6cf71" fill-rule="evenodd" fill-opacity="1" stroke="#000000" stroke-opacity="1" stroke-width="2.108"/>
<polyline clip-path="url(#clip023)" style="stroke:#000000; stroke-linecap:round; stroke-linejoin:round; stroke-width:4.00074; stroke-opacity:1; fill:none" points="1091.05,636.893 1102.1,636.893 "/>
<polyline clip-path="url(#clip023)" style="stroke:#000000; stroke-linecap:round; stroke-linejoin:round; stroke-width:4.00074; stroke-opacity:1; fill:none" points="899.722,559.314 918.5,559.314 "/>
<polyline clip-path="url(#clip023)" style="stroke:#000000; stroke-linecap:round; stroke-linejoin:round; stroke-width:4.00074; stroke-opacity:1; fill:none" points="817.545,496.175 836.928,496.175 "/>
<polyline clip-path="url(#clip023)" style="stroke:#000000; stroke-linecap:round; stroke-linejoin:round; stroke-width:4.00074; stroke-opacity:1; fill:none" points="1172.02,659.551 1180.42,659.551 "/>
<polyline clip-path="url(#clip023)" style="stroke:#000000; stroke-linecap:round; stroke-linejoin:round; stroke-width:4.00074; stroke-opacity:1; fill:none" points="1352.48,659.881 1369.22,659.881 "/>
<polyline clip-path="url(#clip023)" style="stroke:#000000; stroke-linecap:round; stroke-linejoin:round; stroke-width:4.00074; stroke-opacity:1; fill:none" points="985.763,622.679 1000.55,622.679 "/>
<line clip-path="url(#clip023)" x1="1091.05" y1="656.896" x2="1091.05" y2="616.889" style="stroke:#000000; stroke-width:2.108; stroke-opacity:1"/>
<line clip-path="url(#clip023)" x1="1102.1" y1="656.896" x2="1102.1" y2="616.889" style="stroke:#000000; stroke-width:2.108; stroke-opacity:1"/>
<line clip-path="url(#clip023)" x1="899.722" y1="579.317" x2="899.722" y2="539.31" style="stroke:#000000; stroke-width:2.108; stroke-opacity:1"/>
<line clip-path="url(#clip023)" x1="918.5" y1="579.317" x2="918.5" y2="539.31" style="stroke:#000000; stroke-width:2.108; stroke-opacity:1"/>
<line clip-path="url(#clip023)" x1="817.545" y1="516.178" x2="817.545" y2="476.171" style="stroke:#000000; stroke-width:2.108; stroke-opacity:1"/>
<line clip-path="url(#clip023)" x1="836.928" y1="516.178" x2="836.928" y2="476.171" style="stroke:#000000; stroke-width:2.108; stroke-opacity:1"/>
<line clip-path="url(#clip023)" x1="1172.02" y1="679.555" x2="1172.02" y2="639.547" style="stroke:#000000; stroke-width:2.108; stroke-opacity:1"/>
<line clip-path="url(#clip023)" x1="1180.42" y1="679.555" x2="1180.42" y2="639.547" style="stroke:#000000; stroke-width:2.108; stroke-opacity:1"/>
<line clip-path="url(#clip023)" x1="1352.48" y1="679.885" x2="1352.48" y2="639.877" style="stroke:#000000; stroke-width:2.108; stroke-opacity:1"/>
<line clip-path="url(#clip023)" x1="1369.22" y1="679.885" x2="1369.22" y2="639.877" style="stroke:#000000; stroke-width:2.108; stroke-opacity:1"/>
<line clip-path="url(#clip023)" x1="985.763" y1="642.683" x2="985.763" y2="602.676" style="stroke:#000000; stroke-width:2.108; stroke-opacity:1"/>
<line clip-path="url(#clip023)" x1="1000.55" y1="642.683" x2="1000.55" y2="602.676" style="stroke:#000000; stroke-width:2.108; stroke-opacity:1"/>
<polyline clip-path="url(#clip023)" style="stroke:#000000; stroke-linecap:round; stroke-linejoin:round; stroke-width:4.00074; stroke-opacity:1; fill:none" points="1096.71,699.466 1096.71,574.32 "/>
<polyline clip-path="url(#clip023)" style="stroke:#000000; stroke-linecap:round; stroke-linejoin:round; stroke-width:4.00074; stroke-opacity:1; fill:none" points="909.492,630.71 909.492,487.918 "/>
<polyline clip-path="url(#clip023)" style="stroke:#000000; stroke-linecap:round; stroke-linejoin:round; stroke-width:4.00074; stroke-opacity:1; fill:none" points="827.642,560.228 827.642,432.122 "/>
<polyline clip-path="url(#clip023)" style="stroke:#000000; stroke-linecap:round; stroke-linejoin:round; stroke-width:4.00074; stroke-opacity:1; fill:none" points="1176.3,709.115 1176.3,609.987 "/>
<polyline clip-path="url(#clip023)" style="stroke:#000000; stroke-linecap:round; stroke-linejoin:round; stroke-width:4.00074; stroke-opacity:1; fill:none" points="1361.15,716.923 1361.15,602.838 "/>
<polyline clip-path="url(#clip023)" style="stroke:#000000; stroke-linecap:round; stroke-linejoin:round; stroke-width:4.00074; stroke-opacity:1; fill:none" points="993.391,660.725 993.391,584.634 "/>
<line clip-path="url(#clip023)" x1="1116.71" y1="699.466" x2="1076.7" y2="699.466" style="stroke:#000000; stroke-width:2.108; stroke-opacity:1"/>
<line clip-path="url(#clip023)" x1="1116.71" y1="574.32" x2="1076.7" y2="574.32" style="stroke:#000000; stroke-width:2.108; stroke-opacity:1"/>
<line clip-path="url(#clip023)" x1="929.495" y1="630.71" x2="889.488" y2="630.71" style="stroke:#000000; stroke-width:2.108; stroke-opacity:1"/>
<line clip-path="url(#clip023)" x1="929.495" y1="487.918" x2="889.488" y2="487.918" style="stroke:#000000; stroke-width:2.108; stroke-opacity:1"/>
<line clip-path="url(#clip023)" x1="847.646" y1="560.228" x2="807.638" y2="560.228" style="stroke:#000000; stroke-width:2.108; stroke-opacity:1"/>
<line clip-path="url(#clip023)" x1="847.646" y1="432.122" x2="807.638" y2="432.122" style="stroke:#000000; stroke-width:2.108; stroke-opacity:1"/>
<line clip-path="url(#clip023)" x1="1196.3" y1="709.115" x2="1156.29" y2="709.115" style="stroke:#000000; stroke-width:2.108; stroke-opacity:1"/>
<line clip-path="url(#clip023)" x1="1196.3" y1="609.987" x2="1156.29" y2="609.987" style="stroke:#000000; stroke-width:2.108; stroke-opacity:1"/>
<line clip-path="url(#clip023)" x1="1381.15" y1="716.923" x2="1341.15" y2="716.923" style="stroke:#000000; stroke-width:2.108; stroke-opacity:1"/>
<line clip-path="url(#clip023)" x1="1381.15" y1="602.838" x2="1341.15" y2="602.838" style="stroke:#000000; stroke-width:2.108; stroke-opacity:1"/>
<line clip-path="url(#clip023)" x1="1013.39" y1="660.725" x2="973.387" y2="660.725" style="stroke:#000000; stroke-width:2.108; stroke-opacity:1"/>
<line clip-path="url(#clip023)" x1="1013.39" y1="584.634" x2="973.387" y2="584.634" style="stroke:#000000; stroke-width:2.108; stroke-opacity:1"/>
<path clip-path="url(#clip023)" d="M1096.71 616.889 L1076.7 636.893 L1096.71 656.896 L1116.71 636.893 L1096.71 616.889 Z" fill="#f89c74" fill-rule="evenodd" fill-opacity="1" stroke="#000000" stroke-opacity="1" stroke-width="2.108"/>
<path clip-path="url(#clip023)" d="M909.492 539.31 L889.488 559.314 L909.492 579.317 L929.495 559.314 L909.492 539.31 Z" fill="#f89c74" fill-rule="evenodd" fill-opacity="1" stroke="#000000" stroke-opacity="1" stroke-width="2.108"/>
<path clip-path="url(#clip023)" d="M827.642 476.171 L807.638 496.175 L827.642 516.178 L847.646 496.175 L827.642 476.171 Z" fill="#f89c74" fill-rule="evenodd" fill-opacity="1" stroke="#000000" stroke-opacity="1" stroke-width="2.108"/>
<path clip-path="url(#clip023)" d="M1176.3 639.547 L1156.29 659.551 L1176.3 679.555 L1196.3 659.551 L1176.3 639.547 Z" fill="#f89c74" fill-rule="evenodd" fill-opacity="1" stroke="#000000" stroke-opacity="1" stroke-width="2.108"/>
<path clip-path="url(#clip023)" d="M1361.15 639.877 L1341.15 659.881 L1361.15 679.885 L1381.15 659.881 L1361.15 639.877 Z" fill="#f89c74" fill-rule="evenodd" fill-opacity="1" stroke="#000000" stroke-opacity="1" stroke-width="2.108"/>
<path clip-path="url(#clip023)" d="M993.391 602.676 L973.387 622.679 L993.391 642.683 L1013.39 622.679 L993.391 602.676 Z" fill="#f89c74" fill-rule="evenodd" fill-opacity="1" stroke="#000000" stroke-opacity="1" stroke-width="2.108"/>
<polyline clip-path="url(#clip023)" style="stroke:#000000; stroke-linecap:round; stroke-linejoin:round; stroke-width:4.00074; stroke-opacity:1; fill:none" points="1332.8,710.751 1354.7,710.751 "/>
<polyline clip-path="url(#clip023)" style="stroke:#000000; stroke-linecap:round; stroke-linejoin:round; stroke-width:4.00074; stroke-opacity:1; fill:none" points="1141.8,598.95 1171.52,598.95 "/>
<polyline clip-path="url(#clip023)" style="stroke:#000000; stroke-linecap:round; stroke-linejoin:round; stroke-width:4.00074; stroke-opacity:1; fill:none" points="1052.39,532.601 1090.09,532.601 "/>
<polyline clip-path="url(#clip023)" style="stroke:#000000; stroke-linecap:round; stroke-linejoin:round; stroke-width:4.00074; stroke-opacity:1; fill:none" points="1411.04,747.297 1432.55,747.297 "/>
<polyline clip-path="url(#clip023)" style="stroke:#000000; stroke-linecap:round; stroke-linejoin:round; stroke-width:4.00074; stroke-opacity:1; fill:none" points="1594.78,754.348 1620.22,754.348 "/>
<polyline clip-path="url(#clip023)" style="stroke:#000000; stroke-linecap:round; stroke-linejoin:round; stroke-width:4.00074; stroke-opacity:1; fill:none" points="1235.04,655.839 1257.72,655.839 "/>
<line clip-path="url(#clip023)" x1="1332.8" y1="730.755" x2="1332.8" y2="690.748" style="stroke:#000000; stroke-width:2.108; stroke-opacity:1"/>
<line clip-path="url(#clip023)" x1="1354.7" y1="730.755" x2="1354.7" y2="690.748" style="stroke:#000000; stroke-width:2.108; stroke-opacity:1"/>
<line clip-path="url(#clip023)" x1="1141.8" y1="618.954" x2="1141.8" y2="578.946" style="stroke:#000000; stroke-width:2.108; stroke-opacity:1"/>
<line clip-path="url(#clip023)" x1="1171.52" y1="618.954" x2="1171.52" y2="578.946" style="stroke:#000000; stroke-width:2.108; stroke-opacity:1"/>
<line clip-path="url(#clip023)" x1="1052.39" y1="552.604" x2="1052.39" y2="512.597" style="stroke:#000000; stroke-width:2.108; stroke-opacity:1"/>
<line clip-path="url(#clip023)" x1="1090.09" y1="552.604" x2="1090.09" y2="512.597" style="stroke:#000000; stroke-width:2.108; stroke-opacity:1"/>
<line clip-path="url(#clip023)" x1="1411.04" y1="767.3" x2="1411.04" y2="727.293" style="stroke:#000000; stroke-width:2.108; stroke-opacity:1"/>
<line clip-path="url(#clip023)" x1="1432.55" y1="767.3" x2="1432.55" y2="727.293" style="stroke:#000000; stroke-width:2.108; stroke-opacity:1"/>
<line clip-path="url(#clip023)" x1="1594.78" y1="774.352" x2="1594.78" y2="734.344" style="stroke:#000000; stroke-width:2.108; stroke-opacity:1"/>
<line clip-path="url(#clip023)" x1="1620.22" y1="774.352" x2="1620.22" y2="734.344" style="stroke:#000000; stroke-width:2.108; stroke-opacity:1"/>
<line clip-path="url(#clip023)" x1="1235.04" y1="675.842" x2="1235.04" y2="635.835" style="stroke:#000000; stroke-width:2.108; stroke-opacity:1"/>
<line clip-path="url(#clip023)" x1="1257.72" y1="675.842" x2="1257.72" y2="635.835" style="stroke:#000000; stroke-width:2.108; stroke-opacity:1"/>
<polyline clip-path="url(#clip023)" style="stroke:#000000; stroke-linecap:round; stroke-linejoin:round; stroke-width:4.00074; stroke-opacity:1; fill:none" points="1344.27,760.171 1344.27,661.332 "/>
<polyline clip-path="url(#clip023)" style="stroke:#000000; stroke-linecap:round; stroke-linejoin:round; stroke-width:4.00074; stroke-opacity:1; fill:none" points="1157.61,666.613 1157.61,531.287 "/>
<polyline clip-path="url(#clip023)" style="stroke:#000000; stroke-linecap:round; stroke-linejoin:round; stroke-width:4.00074; stroke-opacity:1; fill:none" points="1072.77,601.528 1072.77,463.673 "/>
<polyline clip-path="url(#clip023)" style="stroke:#000000; stroke-linecap:round; stroke-linejoin:round; stroke-width:4.00074; stroke-opacity:1; fill:none" points="1422.3,793.434 1422.3,701.159 "/>
<polyline clip-path="url(#clip023)" style="stroke:#000000; stroke-linecap:round; stroke-linejoin:round; stroke-width:4.00074; stroke-opacity:1; fill:none" points="1608.2,803.297 1608.2,705.4 "/>
<polyline clip-path="url(#clip023)" style="stroke:#000000; stroke-linecap:round; stroke-linejoin:round; stroke-width:4.00074; stroke-opacity:1; fill:none" points="1246.94,702.878 1246.94,608.799 "/>
<line clip-path="url(#clip023)" x1="1364.27" y1="760.171" x2="1324.26" y2="760.171" style="stroke:#000000; stroke-width:2.108; stroke-opacity:1"/>
<line clip-path="url(#clip023)" x1="1364.27" y1="661.332" x2="1324.26" y2="661.332" style="stroke:#000000; stroke-width:2.108; stroke-opacity:1"/>
<line clip-path="url(#clip023)" x1="1177.62" y1="666.613" x2="1137.61" y2="666.613" style="stroke:#000000; stroke-width:2.108; stroke-opacity:1"/>
<line clip-path="url(#clip023)" x1="1177.62" y1="531.287" x2="1137.61" y2="531.287" style="stroke:#000000; stroke-width:2.108; stroke-opacity:1"/>
<line clip-path="url(#clip023)" x1="1092.77" y1="601.528" x2="1052.77" y2="601.528" style="stroke:#000000; stroke-width:2.108; stroke-opacity:1"/>
<line clip-path="url(#clip023)" x1="1092.77" y1="463.673" x2="1052.77" y2="463.673" style="stroke:#000000; stroke-width:2.108; stroke-opacity:1"/>
<line clip-path="url(#clip023)" x1="1442.3" y1="793.434" x2="1402.29" y2="793.434" style="stroke:#000000; stroke-width:2.108; stroke-opacity:1"/>
<line clip-path="url(#clip023)" x1="1442.3" y1="701.159" x2="1402.29" y2="701.159" style="stroke:#000000; stroke-width:2.108; stroke-opacity:1"/>
<line clip-path="url(#clip023)" x1="1628.21" y1="803.297" x2="1588.2" y2="803.297" style="stroke:#000000; stroke-width:2.108; stroke-opacity:1"/>
<line clip-path="url(#clip023)" x1="1628.21" y1="705.4" x2="1588.2" y2="705.4" style="stroke:#000000; stroke-width:2.108; stroke-opacity:1"/>
<line clip-path="url(#clip023)" x1="1266.94" y1="702.878" x2="1226.93" y2="702.878" style="stroke:#000000; stroke-width:2.108; stroke-opacity:1"/>
<line clip-path="url(#clip023)" x1="1266.94" y1="608.799" x2="1226.93" y2="608.799" style="stroke:#000000; stroke-width:2.108; stroke-opacity:1"/>
<path clip-path="url(#clip023)" d="M1344.27 690.748 L1324.26 730.755 L1364.27 730.755 L1344.27 690.748 Z" fill="#87c55f" fill-rule="evenodd" fill-opacity="1" stroke="#000000" stroke-opacity="1" stroke-width="2.108"/>
<path clip-path="url(#clip023)" d="M1157.61 578.946 L1137.61 618.954 L1177.62 618.954 L1157.61 578.946 Z" fill="#87c55f" fill-rule="evenodd" fill-opacity="1" stroke="#000000" stroke-opacity="1" stroke-width="2.108"/>
<path clip-path="url(#clip023)" d="M1072.77 512.597 L1052.77 552.604 L1092.77 552.604 L1072.77 512.597 Z" fill="#87c55f" fill-rule="evenodd" fill-opacity="1" stroke="#000000" stroke-opacity="1" stroke-width="2.108"/>
<path clip-path="url(#clip023)" d="M1422.3 727.293 L1402.29 767.3 L1442.3 767.3 L1422.3 727.293 Z" fill="#87c55f" fill-rule="evenodd" fill-opacity="1" stroke="#000000" stroke-opacity="1" stroke-width="2.108"/>
<path clip-path="url(#clip023)" d="M1608.2 734.344 L1588.2 774.352 L1628.21 774.352 L1608.2 734.344 Z" fill="#87c55f" fill-rule="evenodd" fill-opacity="1" stroke="#000000" stroke-opacity="1" stroke-width="2.108"/>
<path clip-path="url(#clip023)" d="M1246.94 635.835 L1226.93 675.842 L1266.94 675.842 L1246.94 635.835 Z" fill="#87c55f" fill-rule="evenodd" fill-opacity="1" stroke="#000000" stroke-opacity="1" stroke-width="2.108"/>
<polyline clip-path="url(#clip023)" style="stroke:#66c5cc; stroke-linecap:round; stroke-linejoin:round; stroke-width:4.00074; stroke-opacity:1; fill:none" stroke-dasharray="16, 10" points="-1134.28,226.939 3056.78,226.939 "/>
<polyline clip-path="url(#clip023)" style="stroke:#f6cf71; stroke-linecap:round; stroke-linejoin:round; stroke-width:4.00074; stroke-opacity:1; fill:none" stroke-dasharray="16, 10" points="-1134.28,387.974 3056.78,387.974 "/>
<polyline clip-path="url(#clip023)" style="stroke:#f89c74; stroke-linecap:round; stroke-linejoin:round; stroke-width:4.00074; stroke-opacity:1; fill:none" stroke-dasharray="16, 10" points="-1134.28,792.789 3056.78,792.789 "/>
<polyline clip-path="url(#clip023)" style="stroke:#87c55f; stroke-linecap:round; stroke-linejoin:round; stroke-width:4.00074; stroke-opacity:1; fill:none" stroke-dasharray="16, 10" points="-1134.28,840.905 3056.78,840.905 "/>
</svg>
