<?xml version="1.0" encoding="utf-8"?>
<svg xmlns="http://www.w3.org/2000/svg" xmlns:xlink="http://www.w3.org/1999/xlink" width="426.75" height="263.5" viewBox="0 0 1707 1054">
<defs>
  <clipPath id="clip370">
    <rect x="0" y="0" width="1707" height="1054"/>
  </clipPath>
</defs>
<path clip-path="url(#clip370)" d="M0 1054 L1707 1054 L1707 0 L0 0  Z" fill="#ffffff" fill-rule="evenodd" fill-opacity="1"/>
<defs>
  <clipPath id="clip371">
    <rect x="341" y="0" width="1196" height="1054"/>
  </clipPath>
</defs>
<path clip-path="url(#clip370)" d="M242.285 888.691 L1659.76 888.691 L1659.76 47.2528 L242.285 47.2528  Z" fill="#ffffff" fill-rule="evenodd" fill-opacity="1"/>
<defs>
  <clipPath id="clip372">
    <rect x="242" y="47" width="1418" height="842"/>
  </clipPath>
</defs>
<polyline clip-path="url(#clip372)" style="stroke:#000000; stroke-linecap:round; stroke-linejoin:round; stroke-width:2.00037; stroke-opacity:0.1; fill:none" points="242.285,888.691 242.285,47.2528 "/>
<polyline clip-path="url(#clip372)" style="stroke:#000000; stroke-linecap:round; stroke-linejoin:round; stroke-width:2.00037; stroke-opacity:0.1; fill:none" points="525.78,888.691 525.78,47.2528 "/>
<polyline clip-path="url(#clip372)" style="stroke:#000000; stroke-linecap:round; stroke-linejoin:round; stroke-width:2.00037; stroke-opacity:0.1; fill:none" points="809.275,888.691 809.275,47.2528 "/>
<polyline clip-path="url(#clip372)" style="stroke:#000000; stroke-linecap:round; stroke-linejoin:round; stroke-width:2.00037; stroke-opacity:0.1; fill:none" points="1092.77,888.691 1092.77,47.2528 "/>
<polyline clip-path="url(#clip372)" style="stroke:#000000; stroke-linecap:round; stroke-linejoin:round; stroke-width:2.00037; stroke-opacity:0.1; fill:none" points="1376.27,888.691 1376.27,47.2528 "/>
<polyline clip-path="url(#clip372)" style="stroke:#000000; stroke-linecap:round; stroke-linejoin:round; stroke-width:2.00037; stroke-opacity:0.1; fill:none" points="1659.76,888.691 1659.76,47.2528 "/>
<polyline clip-path="url(#clip370)" style="stroke:#000000; stroke-linecap:round; stroke-linejoin:round; stroke-width:4.00074; stroke-opacity:1; fill:none" points="242.285,888.691 1659.76,888.691 "/>
<polyline clip-path="url(#clip370)" style="stroke:#000000; stroke-linecap:round; stroke-linejoin:round; stroke-width:4.00074; stroke-opacity:1; fill:none" points="242.285,47.2528 1659.76,47.2528 "/>
<polyline clip-path="url(#clip370)" style="stroke:#000000; stroke-linecap:round; stroke-linejoin:round; stroke-width:4.00074; stroke-opacity:1; fill:none" points="242.285,888.691 242.285,869.79 "/>
<polyline clip-path="url(#clip370)" style="stroke:#000000; stroke-linecap:round; stroke-linejoin:round; stroke-width:4.00074; stroke-opacity:1; fill:none" points="525.78,888.691 525.78,869.79 "/>
<polyline clip-path="url(#clip370)" style="stroke:#000000; stroke-linecap:round; stroke-linejoin:round; stroke-width:4.00074; stroke-opacity:1; fill:none" points="809.275,888.691 809.275,869.79 "/>
<polyline clip-path="url(#clip370)" style="stroke:#000000; stroke-linecap:round; stroke-linejoin:round; stroke-width:4.00074; stroke-opacity:1; fill:none" points="1092.77,888.691 1092.77,869.79 "/>
<polyline clip-path="url(#clip370)" style="stroke:#000000; stroke-linecap:round; stroke-linejoin:round; stroke-width:4.00074; stroke-opacity:1; fill:none" points="1376.27,888.691 1376.27,869.79 "/>
<polyline clip-path="url(#clip370)" style="stroke:#000000; stroke-linecap:round; stroke-linejoin:round; stroke-width:4.00074; stroke-opacity:1; fill:none" points="1659.76,888.691 1659.76,869.79 "/>
<path clip-path="url(#clip370)" d="M208.174 932.753 Q208.174 924.387 210.286 919.828 Q213.232 913.046 220.179 913.046 Q221.651 913.046 223.18 913.463 Q224.736 913.852 226.681 915.381 Q228.654 916.91 229.849 919.411 Q232.128 924.248 232.128 932.753 Q232.128 941.065 230.016 945.595 Q226.931 952.211 220.123 952.211 Q217.567 952.211 214.954 950.905 Q212.37 949.598 210.731 946.457 Q208.174 941.76 208.174 932.753 M212.898 932.059 Q212.898 940.648 213.509 944.067 Q214.204 947.764 216.094 949.376 Q218.011 950.96 220.123 950.96 Q222.402 950.96 224.291 949.265 Q226.209 947.541 226.792 943.844 Q227.432 940.203 227.404 932.059 Q227.404 924.137 226.848 920.968 Q226.098 917.271 224.097 915.798 Q222.124 914.297 220.123 914.297 Q219.373 914.297 218.567 914.519 Q217.789 914.741 216.65 915.381 Q215.51 916.02 214.621 917.604 Q213.76 919.189 213.343 921.579 Q212.898 924.665 212.898 932.059 Z" fill="#000000" fill-rule="evenodd" fill-opacity="1" /><path clip-path="url(#clip370)" d="M240.103 950.043 Q239.242 949.126 239.242 947.93 Q239.242 946.735 240.103 945.873 Q240.965 944.984 242.271 944.984 Q243.521 944.984 244.355 945.818 Q245.216 946.624 245.216 947.958 Q245.216 949.265 244.299 950.126 Q243.41 950.96 242.271 950.96 Q240.965 950.96 240.103 950.043 Z" fill="#000000" fill-rule="evenodd" fill-opacity="1" /><path clip-path="url(#clip370)" d="M252.441 932.753 Q252.441 924.387 254.553 919.828 Q257.499 913.046 264.446 913.046 Q265.919 913.046 267.447 913.463 Q269.003 913.852 270.948 915.381 Q272.921 916.91 274.116 919.411 Q276.395 924.248 276.395 932.753 Q276.395 941.065 274.283 945.595 Q271.199 952.211 264.39 952.211 Q261.834 952.211 259.222 950.905 Q256.637 949.598 254.998 946.457 Q252.441 941.76 252.441 932.753 M257.165 932.059 Q257.165 940.648 257.777 944.067 Q258.471 947.764 260.361 949.376 Q262.278 950.96 264.39 950.96 Q266.669 950.96 268.559 949.265 Q270.476 947.541 271.06 943.844 Q271.699 940.203 271.671 932.059 Q271.671 924.137 271.115 920.968 Q270.365 917.271 268.364 915.798 Q266.391 914.297 264.39 914.297 Q263.64 914.297 262.834 914.519 Q262.056 914.741 260.917 915.381 Q259.777 916.02 258.888 917.604 Q258.027 919.189 257.61 921.579 Q257.165 924.665 257.165 932.059 Z" fill="#000000" fill-rule="evenodd" fill-opacity="1" /><path clip-path="url(#clip370)" d="M491.975 932.753 Q491.975 924.387 494.087 919.828 Q497.032 913.046 503.98 913.046 Q505.452 913.046 506.981 913.463 Q508.537 913.852 510.482 915.381 Q512.455 916.91 513.65 919.411 Q515.929 924.248 515.929 932.753 Q515.929 941.065 513.817 945.595 Q510.732 952.211 503.924 952.211 Q501.367 952.211 498.755 950.905 Q496.171 949.598 494.531 946.457 Q491.975 941.76 491.975 932.753 M496.699 932.059 Q496.699 940.648 497.31 944.067 Q498.005 947.764 499.895 949.376 Q501.812 950.96 503.924 950.96 Q506.203 950.96 508.092 949.265 Q510.01 947.541 510.593 943.844 Q511.232 940.203 511.205 932.059 Q511.205 924.137 510.649 920.968 Q509.899 917.271 507.898 915.798 Q505.925 914.297 503.924 914.297 Q503.174 914.297 502.368 914.519 Q501.59 914.741 500.45 915.381 Q499.311 916.02 498.422 917.604 Q497.56 919.189 497.144 921.579 Q496.699 924.665 496.699 932.059 Z" fill="#000000" fill-rule="evenodd" fill-opacity="1" /><path clip-path="url(#clip370)" d="M523.904 950.043 Q523.043 949.126 523.043 947.93 Q523.043 946.735 523.904 945.873 Q524.765 944.984 526.071 944.984 Q527.322 944.984 528.156 945.818 Q529.017 946.624 529.017 947.958 Q529.017 949.265 528.1 950.126 Q527.211 950.96 526.071 950.96 Q524.765 950.96 523.904 950.043 Z" fill="#000000" fill-rule="evenodd" fill-opacity="1" /><path clip-path="url(#clip370)" d="M536.853 950.96 Q536.853 949.932 536.937 949.626 Q537.048 949.32 537.493 948.848 L548.414 936.673 Q554.388 929.946 554.388 924.081 Q554.388 920.273 552.387 917.549 Q550.414 914.825 546.774 914.825 Q544.273 914.825 542.161 916.354 Q540.049 917.882 539.077 920.606 Q539.243 920.551 539.827 920.551 Q541.244 920.551 542.022 921.44 Q542.828 922.33 542.828 923.525 Q542.828 925.054 541.828 925.804 Q540.855 926.527 539.882 926.527 Q539.493 926.527 538.965 926.444 Q538.465 926.36 537.659 925.582 Q536.853 924.776 536.853 923.358 Q536.853 919.383 539.855 916.215 Q542.884 913.046 547.496 913.046 Q552.721 913.046 556.139 916.159 Q559.585 919.244 559.585 924.081 Q559.585 925.777 559.057 927.333 Q558.556 928.862 557.862 930.057 Q557.195 931.252 555.361 933.17 Q553.527 935.088 552.054 936.45 Q550.581 937.812 547.274 940.703 L541.244 946.568 L551.498 946.568 Q556.5 946.568 556.889 946.124 Q557.445 945.317 558.14 941.065 L559.585 941.065 L557.973 950.96 L536.853 950.96 Z" fill="#000000" fill-rule="evenodd" fill-opacity="1" /><path clip-path="url(#clip370)" d="M774.845 932.753 Q774.845 924.387 776.957 919.828 Q779.902 913.046 786.85 913.046 Q788.322 913.046 789.851 913.463 Q791.407 913.852 793.352 915.381 Q795.325 916.91 796.52 919.411 Q798.799 924.248 798.799 932.753 Q798.799 941.065 796.687 945.595 Q793.602 952.211 786.794 952.211 Q784.237 952.211 781.625 950.905 Q779.041 949.598 777.401 946.457 Q774.845 941.76 774.845 932.753 M779.569 932.059 Q779.569 940.648 780.18 944.067 Q780.875 947.764 782.765 949.376 Q784.682 950.96 786.794 950.96 Q789.073 950.96 790.962 949.265 Q792.88 947.541 793.463 943.844 Q794.102 940.203 794.075 932.059 Q794.075 924.137 793.519 920.968 Q792.768 917.271 790.768 915.798 Q788.795 914.297 786.794 914.297 Q786.044 914.297 785.238 914.519 Q784.46 914.741 783.32 915.381 Q782.181 916.02 781.292 917.604 Q780.43 919.189 780.014 921.579 Q779.569 924.665 779.569 932.059 Z" fill="#000000" fill-rule="evenodd" fill-opacity="1" /><path clip-path="url(#clip370)" d="M806.774 950.043 Q805.912 949.126 805.912 947.93 Q805.912 946.735 806.774 945.873 Q807.635 944.984 808.941 944.984 Q810.192 944.984 811.026 945.818 Q811.887 946.624 811.887 947.958 Q811.887 949.265 810.97 950.126 Q810.081 950.96 808.941 950.96 Q807.635 950.96 806.774 950.043 Z" fill="#000000" fill-rule="evenodd" fill-opacity="1" /><path clip-path="url(#clip370)" d="M818.473 941.565 L818.473 939.814 L835.952 913.101 Q836.397 912.407 837.091 912.434 Q837.73 912.434 837.869 912.684 Q838.008 912.935 838.008 913.908 L838.008 939.814 L843.705 939.814 L843.705 941.565 L838.008 941.565 L838.008 946.513 Q838.008 948.153 838.675 948.681 Q839.37 949.209 842.316 949.209 L843.51 949.209 L843.51 950.96 Q841.176 950.793 835.785 950.793 Q830.422 950.793 828.088 950.96 L828.088 949.209 L829.283 949.209 Q832.228 949.209 832.923 948.709 Q833.618 948.18 833.618 946.513 L833.618 941.565 L818.473 941.565 M820.085 939.814 L833.951 939.814 L833.951 918.577 L820.085 939.814 Z" fill="#000000" fill-rule="evenodd" fill-opacity="1" /><path clip-path="url(#clip370)" d="M1058.74 932.753 Q1058.74 924.387 1060.85 919.828 Q1063.8 913.046 1070.75 913.046 Q1072.22 913.046 1073.75 913.463 Q1075.3 913.852 1077.25 915.381 Q1079.22 916.91 1080.42 919.411 Q1082.7 924.248 1082.7 932.753 Q1082.7 941.065 1080.58 945.595 Q1077.5 952.211 1070.69 952.211 Q1068.14 952.211 1065.52 950.905 Q1062.94 949.598 1061.3 946.457 Q1058.74 941.76 1058.74 932.753 M1063.47 932.059 Q1063.47 940.648 1064.08 944.067 Q1064.77 947.764 1066.66 949.376 Q1068.58 950.96 1070.69 950.96 Q1072.97 950.96 1074.86 949.265 Q1076.78 947.541 1077.36 943.844 Q1078 940.203 1077.97 932.059 Q1077.97 924.137 1077.42 920.968 Q1076.67 917.271 1074.67 915.798 Q1072.69 914.297 1070.69 914.297 Q1069.94 914.297 1069.14 914.519 Q1068.36 914.741 1067.22 915.381 Q1066.08 916.02 1065.19 917.604 Q1064.33 919.189 1063.91 921.579 Q1063.47 924.665 1063.47 932.059 Z" fill="#000000" fill-rule="evenodd" fill-opacity="1" /><path clip-path="url(#clip370)" d="M1090.67 950.043 Q1089.81 949.126 1089.81 947.93 Q1089.81 946.735 1090.67 945.873 Q1091.53 944.984 1092.84 944.984 Q1094.09 944.984 1094.92 945.818 Q1095.79 946.624 1095.79 947.958 Q1095.79 949.265 1094.87 950.126 Q1093.98 950.96 1092.84 950.96 Q1091.53 950.96 1090.67 950.043 Z" fill="#000000" fill-rule="evenodd" fill-opacity="1" /><path clip-path="url(#clip370)" d="M1103.18 932.976 Q1103.18 924.025 1107.73 918.55 Q1112.29 913.046 1118.15 913.046 Q1121.57 913.046 1123.46 914.797 Q1125.38 916.52 1125.38 919.189 Q1125.38 920.662 1124.52 921.301 Q1123.66 921.941 1122.77 921.941 Q1121.74 921.941 1120.93 921.246 Q1120.13 920.551 1120.13 919.3 Q1120.13 916.743 1123.27 916.743 Q1121.8 914.463 1118.27 914.463 Q1117.18 914.463 1116.07 914.797 Q1114.96 915.103 1113.51 916.159 Q1112.07 917.215 1110.96 918.883 Q1109.85 920.551 1109.07 923.692 Q1108.29 926.833 1108.29 930.919 L1108.29 932.281 Q1110.62 926.638 1115.4 926.666 Q1120.18 926.666 1123.49 930.307 Q1126.8 933.949 1126.8 939.341 Q1126.8 944.873 1123.35 948.542 Q1119.91 952.211 1115.07 952.211 Q1112.9 952.211 1110.93 951.294 Q1108.98 950.404 1107.15 948.347 Q1105.34 946.29 1104.26 942.343 Q1103.18 938.396 1103.18 932.976 M1108.4 938.09 Q1108.4 943.677 1109.43 946.346 Q1109.6 946.791 1109.96 947.402 Q1110.35 948.014 1110.99 948.82 Q1111.65 949.598 1112.74 950.126 Q1113.82 950.627 1115.07 950.627 Q1118.88 950.627 1120.71 946.93 Q1121.68 944.873 1121.68 939.286 Q1121.68 933.587 1120.66 931.503 Q1118.91 927.972 1115.35 927.972 Q1112.96 927.972 1111.29 929.612 Q1109.65 931.252 1109.01 933.448 Q1108.4 935.644 1108.4 938.09 Z" fill="#000000" fill-rule="evenodd" fill-opacity="1" /><path clip-path="url(#clip370)" d="M1342.24 932.753 Q1342.24 924.387 1344.35 919.828 Q1347.3 913.046 1354.24 913.046 Q1355.72 913.046 1357.24 913.463 Q1358.8 913.852 1360.75 915.381 Q1362.72 916.91 1363.91 919.411 Q1366.19 924.248 1366.19 932.753 Q1366.19 941.065 1364.08 945.595 Q1361 952.211 1354.19 952.211 Q1351.63 952.211 1349.02 950.905 Q1346.43 949.598 1344.79 946.457 Q1342.24 941.76 1342.24 932.753 M1346.96 932.059 Q1346.96 940.648 1347.57 944.067 Q1348.27 947.764 1350.16 949.376 Q1352.08 950.96 1354.19 950.96 Q1356.47 950.96 1358.36 949.265 Q1360.27 947.541 1360.86 943.844 Q1361.5 940.203 1361.47 932.059 Q1361.47 924.137 1360.91 920.968 Q1360.16 917.271 1358.16 915.798 Q1356.19 914.297 1354.19 914.297 Q1353.44 914.297 1352.63 914.519 Q1351.85 914.741 1350.71 915.381 Q1349.57 916.02 1348.69 917.604 Q1347.82 919.189 1347.41 921.579 Q1346.96 924.665 1346.96 932.059 Z" fill="#000000" fill-rule="evenodd" fill-opacity="1" /><path clip-path="url(#clip370)" d="M1374.17 950.043 Q1373.31 949.126 1373.31 947.93 Q1373.31 946.735 1374.17 945.873 Q1375.03 944.984 1376.33 944.984 Q1377.59 944.984 1378.42 945.818 Q1379.28 946.624 1379.28 947.958 Q1379.28 949.265 1378.36 950.126 Q1377.47 950.96 1376.33 950.96 Q1375.03 950.96 1374.17 950.043 Z" fill="#000000" fill-rule="evenodd" fill-opacity="1" /><path clip-path="url(#clip370)" d="M1386.67 942.371 Q1386.67 936.006 1394.87 931.892 Q1391.34 929.501 1390.7 928.806 Q1388.2 926.027 1388.2 922.552 Q1388.2 918.577 1391.2 915.825 Q1394.23 913.046 1398.51 913.046 Q1402.59 913.046 1405.68 915.409 Q1408.76 917.771 1408.76 921.524 Q1408.76 926.805 1401.87 930.363 Q1406.43 933.198 1407.51 934.393 Q1410.29 937.479 1410.29 941.398 Q1410.29 945.957 1406.79 949.098 Q1403.29 952.211 1398.45 952.211 Q1393.73 952.211 1390.2 949.459 Q1386.67 946.707 1386.67 942.371 M1389.51 942.371 Q1389.51 945.901 1392.15 948.264 Q1394.81 950.627 1398.51 950.627 Q1402.09 950.627 1404.76 948.57 Q1407.46 946.513 1407.46 943.455 Q1407.46 942.26 1407.04 941.231 Q1406.65 940.203 1405.85 939.397 Q1405.07 938.563 1404.57 938.202 Q1404.1 937.812 1403.18 937.173 L1396.18 932.753 Q1389.51 936.45 1389.51 942.371 M1390.7 920.328 Q1390.7 923.053 1393.56 924.943 L1400.62 929.501 Q1406.26 926.194 1406.26 921.524 Q1406.26 918.494 1403.96 916.493 Q1401.65 914.463 1398.45 914.463 Q1395.31 914.463 1393.01 916.131 Q1390.7 917.771 1390.7 920.328 Z" fill="#000000" fill-rule="evenodd" fill-opacity="1" /><path clip-path="url(#clip370)" d="M1627.07 918.466 L1627.07 916.687 Q1633.9 916.687 1637.43 913.046 Q1638.4 913.046 1638.57 913.268 Q1638.74 913.491 1638.74 914.519 L1638.74 946.457 Q1638.74 948.153 1639.57 948.681 Q1640.41 949.209 1644.05 949.209 L1645.85 949.209 L1645.85 950.96 Q1643.85 950.793 1636.63 950.793 Q1629.4 950.793 1627.43 950.96 L1627.43 949.209 L1629.23 949.209 Q1632.82 949.209 1633.68 948.709 Q1634.54 948.18 1634.54 946.457 L1634.54 916.965 Q1631.57 918.466 1627.07 918.466 Z" fill="#000000" fill-rule="evenodd" fill-opacity="1" /><path clip-path="url(#clip370)" d="M1656.16 950.043 Q1655.3 949.126 1655.3 947.93 Q1655.3 946.735 1656.16 945.873 Q1657.02 944.984 1658.33 944.984 Q1659.58 944.984 1660.41 945.818 Q1661.27 946.624 1661.27 947.958 Q1661.27 949.265 1660.36 950.126 Q1659.47 950.96 1658.33 950.96 Q1657.02 950.96 1656.16 950.043 Z" fill="#000000" fill-rule="evenodd" fill-opacity="1" /><path clip-path="url(#clip370)" d="M1668.5 932.753 Q1668.5 924.387 1670.61 919.828 Q1673.56 913.046 1680.5 913.046 Q1681.98 913.046 1683.51 913.463 Q1685.06 913.852 1687.01 915.381 Q1688.98 916.91 1690.18 919.411 Q1692.45 924.248 1692.45 932.753 Q1692.45 941.065 1690.34 945.595 Q1687.26 952.211 1680.45 952.211 Q1677.89 952.211 1675.28 950.905 Q1672.7 949.598 1671.06 946.457 Q1668.5 941.76 1668.5 932.753 M1673.22 932.059 Q1673.22 940.648 1673.84 944.067 Q1674.53 947.764 1676.42 949.376 Q1678.34 950.96 1680.45 950.96 Q1682.73 950.96 1684.62 949.265 Q1686.53 947.541 1687.12 943.844 Q1687.76 940.203 1687.73 932.059 Q1687.73 924.137 1687.17 920.968 Q1686.42 917.271 1684.42 915.798 Q1682.45 914.297 1680.45 914.297 Q1679.7 914.297 1678.89 914.519 Q1678.11 914.741 1676.98 915.381 Q1675.84 916.02 1674.95 917.604 Q1674.09 919.189 1673.67 921.579 Q1673.22 924.665 1673.22 932.059 Z" fill="#000000" fill-rule="evenodd" fill-opacity="1" /><path clip-path="url(#clip370)" d="M881.15 995.884 L882.354 981.677 L920.98 981.677 L922.184 995.884 L920.609 995.884 Q920.362 993.043 920.115 991.406 Q919.899 989.769 919.344 988.225 Q918.819 986.65 918.139 985.909 Q917.491 985.136 916.225 984.55 Q914.959 983.932 913.323 983.778 Q911.686 983.623 909.216 983.623 Q906.314 983.623 905.604 983.747 Q904.832 983.932 904.646 984.488 Q904.461 985.013 904.461 986.156 L904.461 1019.48 Q904.461 1020.75 904.708 1021.27 Q904.986 1021.77 906.437 1022.17 Q907.888 1022.54 911.1 1022.54 L913.631 1022.54 L913.631 1024.48 Q911.038 1024.3 901.621 1024.3 Q892.265 1024.3 889.671 1024.48 L889.671 1022.54 L892.203 1022.54 Q895.414 1022.54 896.866 1022.17 Q898.348 1021.77 898.595 1021.27 Q898.842 1020.75 898.842 1019.48 L898.842 986.156 Q898.842 985.26 898.78 984.889 Q898.718 984.519 898.44 984.21 Q898.162 983.87 897.514 983.747 Q896.897 983.623 894.118 983.623 Q891.648 983.623 889.98 983.778 Q888.344 983.932 887.078 984.55 Q885.812 985.136 885.133 985.909 Q884.484 986.65 883.929 988.225 Q883.404 989.769 883.187 991.406 Q882.971 993.043 882.724 995.884 L881.15 995.884 Z" fill="#000000" fill-rule="evenodd" fill-opacity="1" /><path clip-path="url(#clip370)" d="M926.599 1024.48 L926.599 1022.54 Q929.965 1022.54 930.737 1022.14 Q931.509 1021.7 931.509 1019.67 L931.509 1002.65 Q931.509 1000.3 930.706 999.745 Q929.934 999.189 926.846 999.189 L926.846 997.212 L935.677 996.533 L935.677 1019.73 Q935.677 1021.61 936.356 1022.07 Q937.036 1022.54 940.123 1022.54 L940.123 1024.48 Q933.67 1024.3 933.547 1024.3 Q932.682 1024.3 926.599 1024.48 M929.255 985.507 Q929.255 984.241 930.212 983.222 Q931.2 982.172 932.589 982.172 Q933.979 982.172 934.967 983.129 Q935.955 984.056 935.955 985.538 Q935.955 986.99 934.967 987.947 Q933.979 988.874 932.589 988.874 Q931.138 988.874 930.181 987.854 Q929.255 986.835 929.255 985.507 Z" fill="#000000" fill-rule="evenodd" fill-opacity="1" /><path clip-path="url(#clip370)" d="M944.044 1024.48 L944.044 1022.54 Q947.41 1022.54 948.182 1022.14 Q948.954 1021.7 948.954 1019.67 L948.954 1002.71 Q948.954 1000.36 948.12 999.776 Q947.317 999.189 944.044 999.189 L944.044 997.212 L952.937 996.533 L952.937 1003.17 Q955.901 996.533 962.292 996.533 Q969.703 996.533 970.722 1002.71 Q971.802 1000.3 974.056 998.417 Q976.341 996.533 979.892 996.533 Q984.647 996.533 986.53 998.88 Q987.92 1000.46 988.197 1002.22 Q988.475 1003.98 988.475 1008.55 L988.475 1020.62 Q988.537 1021.95 989.556 1022.26 Q990.575 1022.54 993.416 1022.54 L993.416 1024.48 Q986.962 1024.3 986.345 1024.3 Q985.851 1024.3 979.182 1024.48 L979.182 1022.54 Q982.547 1022.54 983.319 1022.14 Q984.122 1021.7 984.122 1019.67 L984.122 1004.93 Q984.122 1001.72 983.134 999.838 Q982.146 997.923 979.429 997.923 Q976.156 997.923 973.531 1000.67 Q970.907 1003.42 970.907 1008.05 L970.907 1019.67 Q970.907 1021.7 971.679 1022.14 Q972.481 1022.54 975.847 1022.54 L975.847 1024.48 Q969.394 1024.3 968.745 1024.3 Q968.251 1024.3 961.613 1024.48 L961.613 1022.54 Q964.979 1022.54 965.75 1022.14 Q966.553 1021.7 966.553 1019.67 L966.553 1004.93 Q966.553 1001.72 965.565 999.838 Q964.577 997.923 961.86 997.923 Q958.587 997.923 955.963 1000.67 Q953.338 1003.42 953.338 1008.05 L953.338 1019.67 Q953.338 1021.7 954.11 1022.14 Q954.913 1022.54 958.248 1022.54 L958.248 1024.48 Q951.794 1024.3 951.177 1024.3 Q950.683 1024.3 944.044 1024.48 Z" fill="#000000" fill-rule="evenodd" fill-opacity="1" /><path clip-path="url(#clip370)" d="M996.411 1010.55 Q996.411 1004.59 1000.24 1000.36 Q1004.07 996.131 1009.56 996.131 Q1015.12 996.131 1017.99 999.745 Q1020.9 1003.36 1020.9 1008.55 Q1020.9 1009.5 1020.65 1009.69 Q1020.4 1009.88 1019.32 1009.88 L1001.66 1009.88 Q1001.66 1016.33 1003.57 1019.36 Q1006.23 1023.59 1010.71 1023.59 Q1011.32 1023.59 1012.06 1023.46 Q1012.81 1023.34 1014.32 1022.82 Q1015.83 1022.26 1017.16 1020.81 Q1018.49 1019.36 1019.26 1017.07 Q1019.44 1016.18 1020.06 1016.21 Q1020.9 1016.21 1020.9 1016.95 Q1020.9 1017.5 1020.28 1018.77 Q1019.69 1020.01 1018.55 1021.49 Q1017.41 1022.97 1015.18 1024.08 Q1012.99 1025.19 1010.34 1025.19 Q1004.78 1025.19 1000.58 1020.99 Q996.411 1016.76 996.411 1010.55 M1001.72 1008.55 L1016.73 1008.55 Q1016.73 1007.22 1016.48 1005.74 Q1016.26 1004.25 1015.58 1002.22 Q1014.94 1000.15 1013.39 998.849 Q1011.85 997.552 1009.56 997.552 Q1008.54 997.552 1007.43 997.985 Q1006.35 998.417 1005.02 999.467 Q1003.7 1000.52 1002.77 1002.9 Q1001.84 1005.27 1001.72 1008.55 Z" fill="#000000" fill-rule="evenodd" fill-opacity="1" /><polyline clip-path="url(#clip372)" style="stroke:#000000; stroke-linecap:round; stroke-linejoin:round; stroke-width:2.00037; stroke-opacity:0.1; fill:none" points="242.285,47.2528 1659.76,47.2528 "/>
<polyline clip-path="url(#clip372)" style="stroke:#000000; stroke-linecap:round; stroke-linejoin:round; stroke-width:2.00037; stroke-opacity:0.1; fill:none" points="242.285,-7525.69 1659.76,-7525.69 "/>
<polyline clip-path="url(#clip372)" style="stroke:#000000; stroke-linecap:round; stroke-linejoin:round; stroke-width:2.00037; stroke-opacity:0.1; fill:none" points="242.285,-83255.2 1659.76,-83255.2 "/>
<polyline clip-path="url(#clip372)" style="stroke:#000000; stroke-linecap:round; stroke-linejoin:round; stroke-width:2.00037; stroke-opacity:0.1; fill:none" points="242.285,-840550 1659.76,-840550 "/>
<polyline clip-path="url(#clip370)" style="stroke:#000000; stroke-linecap:round; stroke-linejoin:round; stroke-width:4.00074; stroke-opacity:1; fill:none" points="242.285,888.691 242.285,47.2528 "/>
<polyline clip-path="url(#clip370)" style="stroke:#000000; stroke-linecap:round; stroke-linejoin:round; stroke-width:4.00074; stroke-opacity:1; fill:none" points="1659.76,888.691 1659.76,47.2528 "/>
<polyline clip-path="url(#clip370)" style="stroke:#000000; stroke-linecap:round; stroke-linejoin:round; stroke-width:4.00074; stroke-opacity:1; fill:none" points="242.285,47.2528 261.18,47.2528 "/>
<polyline clip-path="url(#clip370)" style="stroke:#000000; stroke-linecap:round; stroke-linejoin:round; stroke-width:4.00074; stroke-opacity:1; fill:none" points="242.285,-7525.69 261.18,-7525.69 "/>
<polyline clip-path="url(#clip370)" style="stroke:#000000; stroke-linecap:round; stroke-linejoin:round; stroke-width:4.00074; stroke-opacity:1; fill:none" points="242.285,-83255.2 261.18,-83255.2 "/>
<polyline clip-path="url(#clip370)" style="stroke:#000000; stroke-linecap:round; stroke-linejoin:round; stroke-width:4.00074; stroke-opacity:1; fill:none" points="242.285,-840550 261.18,-840550 "/>
<path clip-path="url(#clip370)" d="M197.894 34.2024 L197.894 32.4234 Q204.73 32.4234 208.26 28.7821 Q209.232 28.7821 209.399 29.0045 Q209.566 29.2268 209.566 30.2553 L209.566 62.1934 Q209.566 63.8889 210.399 64.4171 Q211.233 64.9452 214.873 64.9452 L216.68 64.9452 L216.68 66.6964 Q214.679 66.5296 207.454 66.5296 Q200.229 66.5296 198.256 66.6964 L198.256 64.9452 L200.062 64.9452 Q203.647 64.9452 204.508 64.4449 Q205.37 63.9167 205.37 62.1934 L205.37 32.7014 Q202.396 34.2024 197.894 34.2024 Z" fill="#000000" fill-rule="evenodd" fill-opacity="1" /><path clip-path="url(#clip370)" d="M167.105 -7538.74 L167.105 -7540.52 Q173.941 -7540.52 177.47 -7544.16 Q178.442 -7544.16 178.609 -7543.94 Q178.776 -7543.72 178.776 -7542.69 L178.776 -7510.75 Q178.776 -7509.06 179.61 -7508.53 Q180.443 -7508 184.084 -7508 L185.89 -7508 L185.89 -7506.25 Q183.889 -7506.42 176.664 -7506.42 Q169.439 -7506.42 167.466 -7506.25 L167.466 -7508 L169.272 -7508 Q172.857 -7508 173.718 -7508.5 Q174.58 -7509.03 174.58 -7510.75 L174.58 -7540.25 Q171.606 -7538.74 167.105 -7538.74 Z" fill="#000000" fill-rule="evenodd" fill-opacity="1" /><path clip-path="url(#clip370)" d="M192.726 -7524.46 Q192.726 -7532.82 194.838 -7537.38 Q197.783 -7544.16 204.73 -7544.16 Q206.203 -7544.16 207.732 -7543.75 Q209.288 -7543.36 211.233 -7541.83 Q213.206 -7540.3 214.401 -7537.8 Q216.68 -7532.96 216.68 -7524.46 Q216.68 -7516.15 214.568 -7511.62 Q211.483 -7505 204.675 -7505 Q202.118 -7505 199.506 -7506.31 Q196.922 -7507.61 195.282 -7510.75 Q192.726 -7515.45 192.726 -7524.46 M197.45 -7525.15 Q197.45 -7516.56 198.061 -7513.14 Q198.756 -7509.45 200.646 -7507.83 Q202.563 -7506.25 204.675 -7506.25 Q206.954 -7506.25 208.843 -7507.95 Q210.761 -7509.67 211.344 -7513.37 Q211.983 -7517.01 211.955 -7525.15 Q211.955 -7533.07 211.4 -7536.24 Q210.649 -7539.94 208.649 -7541.41 Q206.676 -7542.91 204.675 -7542.91 Q203.925 -7542.91 203.119 -7542.69 Q202.341 -7542.47 201.201 -7541.83 Q200.062 -7541.19 199.173 -7539.61 Q198.311 -7538.02 197.894 -7535.63 Q197.45 -7532.55 197.45 -7525.15 Z" fill="#000000" fill-rule="evenodd" fill-opacity="1" /><path clip-path="url(#clip370)" d="M138.649 -83268.2 L138.649 -83270 Q145.485 -83270 149.014 -83273.6 Q149.987 -83273.6 150.154 -83273.4 Q150.32 -83273.2 150.32 -83272.2 L150.32 -83240.2 Q150.32 -83238.5 151.154 -83238 Q151.988 -83237.5 155.628 -83237.5 L157.434 -83237.5 L157.434 -83235.7 Q155.433 -83235.9 148.208 -83235.9 Q140.983 -83235.9 139.01 -83235.7 L139.01 -83237.5 L140.817 -83237.5 Q144.401 -83237.5 145.263 -83238 Q146.124 -83238.5 146.124 -83240.2 L146.124 -83269.7 Q143.151 -83268.2 138.649 -83268.2 Z" fill="#000000" fill-rule="evenodd" fill-opacity="1" /><path clip-path="url(#clip370)" d="M164.27 -83253.9 Q164.27 -83262.3 166.382 -83266.8 Q169.328 -83273.6 176.275 -83273.6 Q177.748 -83273.6 179.276 -83273.2 Q180.832 -83272.8 182.777 -83271.3 Q184.75 -83269.8 185.945 -83267.3 Q188.224 -83262.4 188.224 -83253.9 Q188.224 -83245.6 186.112 -83241.1 Q183.028 -83234.5 176.219 -83234.5 Q173.663 -83234.5 171.051 -83235.8 Q168.466 -83237.1 166.827 -83240.2 Q164.27 -83244.9 164.27 -83253.9 M168.994 -83254.6 Q168.994 -83246 169.606 -83242.6 Q170.3 -83238.9 172.19 -83237.3 Q174.107 -83235.7 176.219 -83235.7 Q178.498 -83235.7 180.388 -83237.4 Q182.305 -83239.1 182.889 -83242.8 Q183.528 -83246.5 183.5 -83254.6 Q183.5 -83262.5 182.944 -83265.7 Q182.194 -83269.4 180.193 -83270.9 Q178.22 -83272.4 176.219 -83272.4 Q175.469 -83272.4 174.663 -83272.2 Q173.885 -83271.9 172.746 -83271.3 Q171.606 -83270.7 170.717 -83269.1 Q169.856 -83267.5 169.439 -83265.1 Q168.994 -83262 168.994 -83254.6 Z" fill="#000000" fill-rule="evenodd" fill-opacity="1" /><path clip-path="url(#clip370)" d="M192.726 -83253.9 Q192.726 -83262.3 194.838 -83266.8 Q197.783 -83273.6 204.73 -83273.6 Q206.203 -83273.6 207.732 -83273.2 Q209.288 -83272.8 211.233 -83271.3 Q213.206 -83269.8 214.401 -83267.3 Q216.68 -83262.4 216.68 -83253.9 Q216.68 -83245.6 214.568 -83241.1 Q211.483 -83234.5 204.675 -83234.5 Q202.118 -83234.5 199.506 -83235.8 Q196.922 -83237.1 195.282 -83240.2 Q192.726 -83244.9 192.726 -83253.9 M197.45 -83254.6 Q197.45 -83246 198.061 -83242.6 Q198.756 -83238.9 200.646 -83237.3 Q202.563 -83235.7 204.675 -83235.7 Q206.954 -83235.7 208.843 -83237.4 Q210.761 -83239.1 211.344 -83242.8 Q211.983 -83246.5 211.955 -83254.6 Q211.955 -83262.5 211.4 -83265.7 Q210.649 -83269.4 208.649 -83270.9 Q206.676 -83272.4 204.675 -83272.4 Q203.925 -83272.4 203.119 -83272.2 Q202.341 -83271.9 201.201 -83271.3 Q200.062 -83270.7 199.173 -83269.1 Q198.311 -83267.5 197.894 -83265.1 Q197.45 -83262 197.45 -83254.6 Z" fill="#000000" fill-rule="evenodd" fill-opacity="1" /><path clip-path="url(#clip370)" d="M110.194 -840563 L110.194 -840565 Q117.03 -840565 120.559 -840568 Q121.531 -840568 121.698 -840568 Q121.865 -840568 121.865 -840567 L121.865 -840535 Q121.865 -840533 122.699 -840533 Q123.532 -840532 127.172 -840532 L128.979 -840532 L128.979 -840530 Q126.978 -840531 119.753 -840531 Q112.528 -840531 110.555 -840530 L110.555 -840532 L112.361 -840532 Q115.946 -840532 116.807 -840533 Q117.669 -840533 117.669 -840535 L117.669 -840564 Q114.695 -840563 110.194 -840563 Z" fill="#000000" fill-rule="evenodd" fill-opacity="1" /><path clip-path="url(#clip370)" d="M135.815 -840549 Q135.815 -840557 137.927 -840562 Q140.872 -840568 147.819 -840568 Q149.292 -840568 150.821 -840568 Q152.377 -840567 154.322 -840566 Q156.295 -840564 157.49 -840562 Q159.768 -840557 159.768 -840549 Q159.768 -840540 157.657 -840536 Q154.572 -840529 147.764 -840529 Q145.207 -840529 142.595 -840530 Q140.011 -840532 138.371 -840535 Q135.815 -840540 135.815 -840549 M140.539 -840549 Q140.539 -840541 141.15 -840537 Q141.845 -840534 143.734 -840532 Q145.652 -840530 147.764 -840530 Q150.042 -840530 151.932 -840532 Q153.85 -840534 154.433 -840538 Q155.072 -840541 155.044 -840549 Q155.044 -840557 154.489 -840560 Q153.738 -840564 151.738 -840566 Q149.765 -840567 147.764 -840567 Q147.014 -840567 146.208 -840567 Q145.43 -840567 144.29 -840566 Q143.151 -840565 142.262 -840564 Q141.4 -840562 140.983 -840560 Q140.539 -840557 140.539 -840549 Z" fill="#000000" fill-rule="evenodd" fill-opacity="1" /><path clip-path="url(#clip370)" d="M164.27 -840549 Q164.27 -840557 166.382 -840562 Q169.328 -840568 176.275 -840568 Q177.748 -840568 179.276 -840568 Q180.832 -840567 182.777 -840566 Q184.75 -840564 185.945 -840562 Q188.224 -840557 188.224 -840549 Q188.224 -840540 186.112 -840536 Q183.028 -840529 176.219 -840529 Q173.663 -840529 171.051 -840530 Q168.466 -840532 166.827 -840535 Q164.27 -840540 164.27 -840549 M168.994 -840549 Q168.994 -840541 169.606 -840537 Q170.3 -840534 172.19 -840532 Q174.107 -840530 176.219 -840530 Q178.498 -840530 180.388 -840532 Q182.305 -840534 182.889 -840538 Q183.528 -840541 183.5 -840549 Q183.5 -840557 182.944 -840560 Q182.194 -840564 180.193 -840566 Q178.22 -840567 176.219 -840567 Q175.469 -840567 174.663 -840567 Q173.885 -840567 172.746 -840566 Q171.606 -840565 170.717 -840564 Q169.856 -840562 169.439 -840560 Q168.994 -840557 168.994 -840549 Z" fill="#000000" fill-rule="evenodd" fill-opacity="1" /><path clip-path="url(#clip370)" d="M192.726 -840549 Q192.726 -840557 194.838 -840562 Q197.783 -840568 204.73 -840568 Q206.203 -840568 207.732 -840568 Q209.288 -840567 211.233 -840566 Q213.206 -840564 214.401 -840562 Q216.68 -840557 216.68 -840549 Q216.68 -840540 214.568 -840536 Q211.483 -840529 204.675 -840529 Q202.118 -840529 199.506 -840530 Q196.922 -840532 195.282 -840535 Q192.726 -840540 192.726 -840549 M197.45 -840549 Q197.45 -840541 198.061 -840537 Q198.756 -840534 200.646 -840532 Q202.563 -840530 204.675 -840530 Q206.954 -840530 208.843 -840532 Q210.761 -840534 211.344 -840538 Q211.983 -840541 211.955 -840549 Q211.955 -840557 211.4 -840560 Q210.649 -840564 208.649 -840566 Q206.676 -840567 204.675 -840567 Q203.925 -840567 203.119 -840567 Q202.341 -840567 201.201 -840566 Q200.062 -840565 199.173 -840564 Q198.311 -840562 197.894 -840560 Q197.45 -840557 197.45 -840549 Z" fill="#000000" fill-rule="evenodd" fill-opacity="1" /><path clip-path="url(#clip370)" d="M50.2018 596.994 Q40.5376 596.994 33.8066 590.817 Q27.0447 584.609 27.0447 575.992 Q27.0447 567.313 33.8066 561.136 Q40.5684 554.928 50.2018 554.928 Q59.7426 554.928 66.381 561.136 Q73.0193 567.344 73.0193 575.992 Q73.0193 584.516 66.4118 590.755 Q59.8043 596.994 50.2018 596.994 M49.3064 590.477 Q55.1729 590.477 59.6808 589.087 Q64.1579 587.697 66.5971 585.474 Q69.0363 583.219 70.2096 580.81 Q71.3829 578.401 71.3829 575.93 Q71.3829 573.521 70.2405 571.174 Q69.0981 568.796 66.6897 566.541 Q64.2814 564.287 59.7734 562.866 Q55.2655 561.445 49.3064 561.445 Q44.675 561.445 40.9698 562.433 Q37.2338 563.422 34.9799 564.966 Q32.7259 566.51 31.2438 568.518 Q29.7618 570.494 29.206 572.378 Q28.6194 574.232 28.6194 575.992 Q28.6194 578.216 29.6074 580.532 Q30.5954 582.848 32.7876 585.196 Q34.949 587.512 39.2408 588.995 Q43.5017 590.477 49.3064 590.477 Z" fill="#000000" fill-rule="evenodd" fill-opacity="1" /><path clip-path="url(#clip370)" d="M46.3423 550.203 L44.3662 550.203 Q44.5515 547.362 44.5515 544.057 Q44.5515 542.852 44.3662 537.17 L46.3423 537.17 Q46.3423 540.783 47.9787 540.783 Q48.2257 540.783 49.0594 540.413 L66.6897 533.309 L50.5723 526.854 Q49.4917 526.483 49.0594 526.483 Q47.9787 526.483 47.2068 527.225 Q46.404 527.935 46.3423 529.51 L44.3662 529.51 Q44.5515 526.298 44.5515 524.013 Q44.5515 521.418 44.3662 519.287 L46.3423 519.287 Q46.3423 521.171 47.2068 522.499 Q48.0405 523.827 48.7815 524.26 Q49.4917 524.661 50.5723 525.094 L71.1359 533.371 Q72.3401 533.865 72.3401 534.699 Q72.3401 535.255 72.0931 535.502 Q71.8769 535.718 71.1359 536.027 L48.6889 545.138 Q47.1142 545.756 46.7437 546.559 Q46.3423 547.362 46.3423 550.203 Z" fill="#000000" fill-rule="evenodd" fill-opacity="1" /><path clip-path="url(#clip370)" d="M57.7047 518.083 Q51.7456 518.083 47.5156 514.253 Q43.2856 510.423 43.2856 504.926 Q43.2856 499.367 46.8981 496.494 Q50.5106 493.591 55.6978 493.591 Q56.6549 493.591 56.8402 493.838 Q57.0255 494.085 57.0255 495.166 L57.0255 512.832 Q63.4786 512.832 66.5045 510.918 Q70.7345 508.261 70.7345 503.783 Q70.7345 503.165 70.611 502.424 Q70.4875 501.683 69.9626 500.17 Q69.4068 498.656 67.9556 497.328 Q66.5045 496 64.2196 495.228 Q63.3242 495.043 63.3551 494.425 Q63.3551 493.591 64.0961 493.591 Q64.6519 493.591 65.9178 494.209 Q67.1529 494.796 68.6349 495.938 Q70.117 497.081 71.2285 499.305 Q72.3401 501.498 72.3401 504.154 Q72.3401 509.713 68.1409 513.913 Q63.9109 518.083 57.7047 518.083 M55.6978 512.771 L55.6978 497.761 Q54.3701 497.761 52.8881 498.008 Q51.406 498.224 49.3682 498.903 Q47.2995 499.552 46.0027 501.096 Q44.7059 502.64 44.7059 504.926 Q44.7059 505.945 45.1381 507.057 Q45.5704 508.138 46.6202 509.466 Q47.67 510.794 50.0474 511.721 Q52.4249 512.647 55.6978 512.771 Z" fill="#000000" fill-rule="evenodd" fill-opacity="1" /><path clip-path="url(#clip370)" d="M71.6299 490.008 L69.6847 490.008 Q69.6847 486.642 69.2833 485.87 Q68.8511 485.067 66.8132 485.067 L49.8622 485.067 Q47.5156 485.067 46.9289 485.901 Q46.3423 486.704 46.3423 490.008 L44.3662 490.008 L43.6869 481.206 L50.6341 481.206 Q47.917 480.311 45.8174 478.427 Q43.6869 476.512 43.6869 473.423 Q43.6869 471.385 44.8294 470.088 Q45.9718 468.76 47.5465 468.76 Q48.9359 468.76 49.646 469.624 Q50.3253 470.458 50.3253 471.477 Q50.3253 472.62 49.6152 473.423 Q48.8741 474.195 47.6082 474.195 Q46.8363 474.195 46.2497 473.856 Q45.6321 473.485 45.416 473.207 Q45.1999 472.929 45.1381 472.744 Q45.0764 472.867 45.0764 473.423 Q45.0764 476.913 48.5654 478.921 Q52.0235 480.897 56.9637 480.897 L66.6897 480.897 Q68.5114 480.897 69.0981 480.156 Q69.6847 479.384 69.6847 476.079 L69.6847 474.751 L71.6299 474.751 Q71.4447 477.284 71.4447 482.781 Q71.4447 483.553 71.4755 484.758 Q71.5064 485.963 71.5682 487.538 Q71.6299 489.113 71.6299 490.008 Z" fill="#000000" fill-rule="evenodd" fill-opacity="1" /><path clip-path="url(#clip370)" d="M71.6299 465.023 L69.6847 465.023 Q69.6847 461.656 69.2833 460.884 Q68.8511 460.112 66.8132 460.112 L33.9301 460.112 Q31.5835 460.112 30.9968 460.946 Q30.4102 461.749 30.4102 465.023 L28.4341 465.023 L27.7548 455.942 L49.7387 455.942 L49.7387 455.881 Q47.4538 454.861 45.5704 452.576 Q43.6869 450.29 43.6869 446.77 Q43.6869 442.013 46.0335 440.129 Q47.6082 438.74 49.3682 438.462 Q51.1281 438.153 55.6978 438.153 L67.7704 438.153 Q69.0981 438.091 69.4068 437.072 Q69.6847 436.053 69.6847 433.211 L71.6299 433.211 Q71.4447 439.666 71.4447 440.315 Q71.4447 440.809 71.6299 447.449 L69.6847 447.449 Q69.6847 444.083 69.2833 443.31 Q68.8511 442.507 66.8132 442.507 L52.0853 442.507 Q48.8741 442.507 46.9907 443.496 Q45.0764 444.484 45.0764 447.202 Q45.0764 450.476 47.8244 453.101 Q50.5723 455.726 55.2038 455.726 L66.8132 455.726 Q68.8511 455.726 69.2833 454.954 Q69.6847 454.151 69.6847 450.816 L71.6299 450.816 Q71.4447 457.27 71.4447 457.888 Q71.4447 458.382 71.6299 465.023 Z" fill="#000000" fill-rule="evenodd" fill-opacity="1" /><path clip-path="url(#clip370)" d="M57.7047 430.215 Q51.7456 430.215 47.5156 426.386 Q43.2856 422.556 43.2856 417.058 Q43.2856 411.499 46.8981 408.627 Q50.5106 405.724 55.6978 405.724 Q56.6549 405.724 56.8402 405.971 Q57.0255 406.218 57.0255 407.299 L57.0255 424.965 Q63.4786 424.965 66.5045 423.05 Q70.7345 420.394 70.7345 415.916 Q70.7345 415.298 70.611 414.557 Q70.4875 413.815 69.9626 412.302 Q69.4068 410.789 67.9556 409.461 Q66.5045 408.133 64.2196 407.36 Q63.3242 407.175 63.3551 406.557 Q63.3551 405.724 64.0961 405.724 Q64.6519 405.724 65.9178 406.341 Q67.1529 406.928 68.6349 408.071 Q70.117 409.214 71.2285 411.437 Q72.3401 413.63 72.3401 416.286 Q72.3401 421.845 68.1409 426.046 Q63.9109 430.215 57.7047 430.215 M55.6978 424.903 L55.6978 409.893 Q54.3701 409.893 52.8881 410.14 Q51.406 410.356 49.3682 411.036 Q47.2995 411.684 46.0027 413.229 Q44.7059 414.773 44.7059 417.058 Q44.7059 418.078 45.1381 419.189 Q45.5704 420.27 46.6202 421.598 Q47.67 422.926 50.0474 423.853 Q52.4249 424.78 55.6978 424.903 Z" fill="#000000" fill-rule="evenodd" fill-opacity="1" /><path clip-path="url(#clip370)" d="M65.609 401.245 Q60.2366 401.245 57.396 394.914 Q55.5743 391.115 55.1111 383.27 L52.7954 383.27 Q48.8741 383.27 46.8054 385.34 Q44.7059 387.378 44.7059 389.972 Q44.7059 394.605 47.6082 396.829 Q47.67 394.945 48.6271 394.265 Q49.5534 393.586 50.5106 393.586 Q51.7765 393.586 52.6102 394.389 Q53.4129 395.161 53.4129 396.489 Q53.4129 397.755 52.641 398.589 Q51.8383 399.423 50.4488 399.423 Q47.3612 399.423 45.3234 396.643 Q43.2856 393.833 43.2856 389.849 Q43.2856 384.66 46.7746 381.201 Q47.8552 380.12 49.2447 379.595 Q50.6341 379.039 51.5604 378.977 Q52.4558 378.915 54.2466 378.915 L66.875 378.915 Q67.2455 378.915 67.863 378.792 Q68.4805 378.668 69.2833 378.112 Q70.0552 377.526 70.0552 376.568 Q70.0552 374.283 66.0104 374.314 L62.4597 374.314 L62.4597 372.708 L66.0104 372.708 Q69.3759 372.708 70.7036 374.499 Q72.0004 376.259 72.0004 377.896 Q72.0004 379.996 70.4566 381.325 Q68.9128 382.653 66.8132 382.838 Q69.2216 383.795 70.7963 385.988 Q72.3401 388.15 72.3401 391.115 Q72.3401 393.4 71.7534 395.562 Q71.1976 397.693 69.623 399.485 Q68.0174 401.245 65.609 401.245 M65.5473 396.365 Q67.8939 396.365 69.4068 394.698 Q70.9198 393.03 70.9198 390.683 Q70.9198 388.027 68.8819 385.648 Q66.8132 383.27 62.7684 383.27 L56.4388 383.27 Q56.6858 390.281 59.4956 393.339 Q62.2744 396.365 65.5473 396.365 Z" fill="#000000" fill-rule="evenodd" fill-opacity="1" /><path clip-path="url(#clip370)" d="M58.0444 370.113 Q52.0235 370.113 47.8552 365.913 Q43.6869 361.713 43.6869 356.03 Q43.6869 351.212 47.6082 348.061 L33.9301 348.061 Q31.5835 348.061 30.9968 348.895 Q30.4102 349.698 30.4102 352.972 L28.4341 352.972 L27.7548 343.861 L66.1339 343.861 Q68.4805 343.861 69.0981 343.058 Q69.6847 342.224 69.6847 338.95 L71.6299 338.95 L72.3401 348.247 L68.1409 348.247 Q72.3092 351.521 72.3401 356.709 Q72.3401 362.145 68.1718 366.129 Q64.0035 370.113 58.0444 370.113 M58.1061 364.863 Q63.9726 364.863 66.875 363.041 Q70.9198 360.508 70.9198 356.4 Q70.9198 351.706 66.5045 348.926 Q65.4238 348.216 64.1579 348.247 L51.1899 348.247 Q49.9239 348.247 48.8741 348.926 Q45.0764 351.521 45.0764 355.752 Q45.0764 360.168 49.1212 362.917 Q52.147 364.863 58.1061 364.863 Z" fill="#000000" fill-rule="evenodd" fill-opacity="1" /></svg>
