<?xml version="1.0" encoding="utf-8"?>
<svg xmlns="http://www.w3.org/2000/svg" xmlns:xlink="http://www.w3.org/1999/xlink" width="426.75" height="263.5" viewBox="0 0 1707 1054">
<defs>
  <clipPath id="clip300">
    <rect x="0" y="0" width="1707" height="1054"/>
  </clipPath>
</defs>
<path clip-path="url(#clip300)" d="M0 1054 L1707 1054 L1707 0 L0 0  Z" fill="#ffffff" fill-rule="evenodd" fill-opacity="1"/>
<defs>
  <clipPath id="clip301">
    <rect x="341" y="0" width="1196" height="1054"/>
  </clipPath>
</defs>
<path clip-path="url(#clip300)" d="M273.947 872.688 L1659.76 872.688 L1659.76 47.2528 L273.947 47.2528  Z" fill="#ffffff" fill-rule="evenodd" fill-opacity="1"/>
<defs>
  <clipPath id="clip302">
    <rect x="273" y="47" width="1387" height="826"/>
  </clipPath>
</defs>
<polyline clip-path="url(#clip302)" style="stroke:#000000; stroke-linecap:round; stroke-linejoin:round; stroke-width:2.00037; stroke-opacity:0.1; fill:none" points="279.646,872.688 279.646,47.2528 "/>
<polyline clip-path="url(#clip302)" style="stroke:#000000; stroke-linecap:round; stroke-linejoin:round; stroke-width:2.00037; stroke-opacity:0.1; fill:none" points="614.869,872.688 614.869,47.2528 "/>
<polyline clip-path="url(#clip302)" style="stroke:#000000; stroke-linecap:round; stroke-linejoin:round; stroke-width:2.00037; stroke-opacity:0.1; fill:none" points="950.093,872.688 950.093,47.2528 "/>
<polyline clip-path="url(#clip302)" style="stroke:#000000; stroke-linecap:round; stroke-linejoin:round; stroke-width:2.00037; stroke-opacity:0.1; fill:none" points="1285.32,872.688 1285.32,47.2528 "/>
<polyline clip-path="url(#clip302)" style="stroke:#000000; stroke-linecap:round; stroke-linejoin:round; stroke-width:2.00037; stroke-opacity:0.1; fill:none" points="1620.54,872.688 1620.54,47.2528 "/>
<polyline clip-path="url(#clip300)" style="stroke:#000000; stroke-linecap:round; stroke-linejoin:round; stroke-width:4.00074; stroke-opacity:1; fill:none" points="273.947,872.688 1659.76,872.688 "/>
<polyline clip-path="url(#clip300)" style="stroke:#000000; stroke-linecap:round; stroke-linejoin:round; stroke-width:4.00074; stroke-opacity:1; fill:none" points="273.947,47.2528 1659.76,47.2528 "/>
<polyline clip-path="url(#clip300)" style="stroke:#000000; stroke-linecap:round; stroke-linejoin:round; stroke-width:4.00074; stroke-opacity:1; fill:none" points="279.646,872.688 279.646,853.787 "/>
<polyline clip-path="url(#clip300)" style="stroke:#000000; stroke-linecap:round; stroke-linejoin:round; stroke-width:4.00074; stroke-opacity:1; fill:none" points="614.869,872.688 614.869,853.787 "/>
<polyline clip-path="url(#clip300)" style="stroke:#000000; stroke-linecap:round; stroke-linejoin:round; stroke-width:4.00074; stroke-opacity:1; fill:none" points="950.093,872.688 950.093,853.787 "/>
<polyline clip-path="url(#clip300)" style="stroke:#000000; stroke-linecap:round; stroke-linejoin:round; stroke-width:4.00074; stroke-opacity:1; fill:none" points="1285.32,872.688 1285.32,853.787 "/>
<polyline clip-path="url(#clip300)" style="stroke:#000000; stroke-linecap:round; stroke-linejoin:round; stroke-width:4.00074; stroke-opacity:1; fill:none" points="1620.54,872.688 1620.54,853.787 "/>
<path clip-path="url(#clip300)" d="M237.955 923.507 Q237.955 913.281 240.537 907.709 Q244.137 899.419 252.628 899.419 Q254.428 899.419 256.296 899.929 Q258.198 900.405 260.575 902.273 Q262.987 904.142 264.447 907.199 Q267.232 913.111 267.232 923.507 Q267.232 933.665 264.651 939.202 Q260.881 947.288 252.56 947.288 Q249.435 947.288 246.243 945.691 Q243.084 944.094 241.08 940.255 Q237.955 934.514 237.955 923.507 M243.729 922.657 Q243.729 933.155 244.477 937.334 Q245.326 941.852 247.635 943.823 Q249.979 945.759 252.56 945.759 Q255.345 945.759 257.654 943.687 Q259.998 941.58 260.711 937.062 Q261.492 932.611 261.458 922.657 Q261.458 912.975 260.779 909.102 Q259.862 904.583 257.417 902.783 Q255.005 900.948 252.56 900.948 Q251.643 900.948 250.658 901.22 Q249.707 901.492 248.314 902.273 Q246.922 903.055 245.835 904.991 Q244.782 906.928 244.273 909.849 Q243.729 913.62 243.729 922.657 Z" fill="#000000" fill-rule="evenodd" fill-opacity="1" /><path clip-path="url(#clip300)" d="M276.98 944.638 Q275.927 943.517 275.927 942.056 Q275.927 940.595 276.98 939.542 Q278.033 938.455 279.629 938.455 Q281.157 938.455 282.176 939.474 Q283.229 940.459 283.229 942.09 Q283.229 943.687 282.108 944.74 Q281.022 945.759 279.629 945.759 Q278.033 945.759 276.98 944.638 Z" fill="#000000" fill-rule="evenodd" fill-opacity="1" /><path clip-path="url(#clip300)" d="M292.06 923.507 Q292.06 913.281 294.641 907.709 Q298.241 899.419 306.732 899.419 Q308.532 899.419 310.4 899.929 Q312.302 900.405 314.68 902.273 Q317.091 904.142 318.552 907.199 Q321.337 913.111 321.337 923.507 Q321.337 933.665 318.755 939.202 Q314.985 947.288 306.664 947.288 Q303.54 947.288 300.347 945.691 Q297.188 944.094 295.185 940.255 Q292.06 934.514 292.06 923.507 M297.834 922.657 Q297.834 933.155 298.581 937.334 Q299.43 941.852 301.74 943.823 Q304.083 945.759 306.664 945.759 Q309.449 945.759 311.759 943.687 Q314.102 941.58 314.816 937.062 Q315.597 932.611 315.563 922.657 Q315.563 912.975 314.884 909.102 Q313.967 904.583 311.521 902.783 Q309.11 900.948 306.664 900.948 Q305.747 900.948 304.762 901.22 Q303.811 901.492 302.419 902.273 Q301.026 903.055 299.939 904.991 Q298.887 906.928 298.377 909.849 Q297.834 913.62 297.834 922.657 Z" fill="#000000" fill-rule="evenodd" fill-opacity="1" /><path clip-path="url(#clip300)" d="M573.552 923.507 Q573.552 913.281 576.134 907.709 Q579.734 899.419 588.225 899.419 Q590.025 899.419 591.893 899.929 Q593.795 900.405 596.172 902.273 Q598.584 904.142 600.044 907.199 Q602.829 913.111 602.829 923.507 Q602.829 933.665 600.248 939.202 Q596.478 947.288 588.157 947.288 Q585.032 947.288 581.84 945.691 Q578.681 944.094 576.677 940.255 Q573.552 934.514 573.552 923.507 M579.326 922.657 Q579.326 933.155 580.073 937.334 Q580.923 941.852 583.232 943.823 Q585.576 945.759 588.157 945.759 Q590.942 945.759 593.251 943.687 Q595.595 941.58 596.308 937.062 Q597.089 932.611 597.055 922.657 Q597.055 912.975 596.376 909.102 Q595.459 904.583 593.014 902.783 Q590.602 900.948 588.157 900.948 Q587.24 900.948 586.255 901.22 Q585.304 901.492 583.911 902.273 Q582.519 903.055 581.432 904.991 Q580.379 906.928 579.87 909.849 Q579.326 913.62 579.326 922.657 Z" fill="#000000" fill-rule="evenodd" fill-opacity="1" /><path clip-path="url(#clip300)" d="M612.577 944.638 Q611.524 943.517 611.524 942.056 Q611.524 940.595 612.577 939.542 Q613.63 938.455 615.226 938.455 Q616.754 938.455 617.773 939.474 Q618.826 940.459 618.826 942.09 Q618.826 943.687 617.705 944.74 Q616.619 945.759 615.226 945.759 Q613.63 945.759 612.577 944.638 Z" fill="#000000" fill-rule="evenodd" fill-opacity="1" /><path clip-path="url(#clip300)" d="M628.404 934.548 Q628.404 932.476 629.525 931.694 Q630.646 930.879 631.834 930.879 Q633.431 930.879 634.348 931.898 Q635.299 932.883 635.299 934.276 Q635.299 935.669 634.348 936.688 Q633.431 937.674 631.834 937.674 Q631.053 937.674 630.646 937.538 Q631.563 940.731 634.348 943.041 Q637.167 945.351 640.869 945.351 Q645.522 945.351 648.307 940.833 Q649.971 937.911 649.971 931.287 Q649.971 925.443 648.714 922.521 Q646.778 918.071 642.805 918.071 Q637.167 918.071 633.838 922.929 Q633.431 923.541 632.955 923.575 Q632.276 923.575 632.106 923.201 Q631.97 922.793 631.97 921.74 L631.97 901.152 Q631.97 899.487 632.649 899.487 Q632.921 899.487 633.499 899.691 Q637.88 901.628 642.737 901.662 Q647.729 901.662 652.213 899.623 Q652.552 899.419 652.756 899.419 Q653.435 899.419 653.469 900.201 Q653.469 900.473 652.892 901.288 Q652.348 902.069 651.16 903.123 Q649.971 904.142 648.443 905.127 Q646.914 906.112 644.673 906.792 Q642.465 907.437 640.02 907.437 Q637.099 907.437 634.11 906.52 L634.11 920.075 Q637.71 916.542 642.94 916.542 Q648.511 916.542 652.348 921.027 Q656.186 925.511 656.186 931.762 Q656.186 938.319 651.635 942.803 Q647.118 947.288 641.005 947.288 Q635.434 947.288 631.902 943.313 Q628.404 939.338 628.404 934.548 Z" fill="#000000" fill-rule="evenodd" fill-opacity="1" /><path clip-path="url(#clip300)" d="M910.134 906.044 L910.134 903.87 Q918.489 903.87 922.803 899.419 Q923.992 899.419 924.195 899.691 Q924.399 899.963 924.399 901.22 L924.399 940.255 Q924.399 942.328 925.418 942.973 Q926.437 943.619 930.886 943.619 L933.094 943.619 L933.094 945.759 Q930.648 945.555 921.818 945.555 Q912.987 945.555 910.576 945.759 L910.576 943.619 L912.783 943.619 Q917.165 943.619 918.218 943.007 Q919.271 942.362 919.271 940.255 L919.271 904.21 Q915.636 906.044 910.134 906.044 Z" fill="#000000" fill-rule="evenodd" fill-opacity="1" /><path clip-path="url(#clip300)" d="M945.694 944.638 Q944.642 943.517 944.642 942.056 Q944.642 940.595 945.694 939.542 Q946.747 938.455 948.344 938.455 Q949.872 938.455 950.891 939.474 Q951.944 940.459 951.944 942.09 Q951.944 943.687 950.823 944.74 Q949.736 945.759 948.344 945.759 Q946.747 945.759 945.694 944.638 Z" fill="#000000" fill-rule="evenodd" fill-opacity="1" /><path clip-path="url(#clip300)" d="M960.774 923.507 Q960.774 913.281 963.356 907.709 Q966.956 899.419 975.447 899.419 Q977.247 899.419 979.115 899.929 Q981.017 900.405 983.394 902.273 Q985.806 904.142 987.266 907.199 Q990.051 913.111 990.051 923.507 Q990.051 933.665 987.47 939.202 Q983.7 947.288 975.379 947.288 Q972.254 947.288 969.062 945.691 Q965.903 944.094 963.899 940.255 Q960.774 934.514 960.774 923.507 M966.548 922.657 Q966.548 933.155 967.295 937.334 Q968.144 941.852 970.454 943.823 Q972.798 945.759 975.379 945.759 Q978.164 945.759 980.473 943.687 Q982.817 941.58 983.53 937.062 Q984.311 932.611 984.277 922.657 Q984.277 912.975 983.598 909.102 Q982.681 904.583 980.236 902.783 Q977.824 900.948 975.379 900.948 Q974.462 900.948 973.477 901.22 Q972.526 901.492 971.133 902.273 Q969.741 903.055 968.654 904.991 Q967.601 906.928 967.092 909.849 Q966.548 913.62 966.548 922.657 Z" fill="#000000" fill-rule="evenodd" fill-opacity="1" /><path clip-path="url(#clip300)" d="M1245.73 906.044 L1245.73 903.87 Q1254.09 903.87 1258.4 899.419 Q1259.59 899.419 1259.79 899.691 Q1260 899.963 1260 901.22 L1260 940.255 Q1260 942.328 1261.01 942.973 Q1262.03 943.619 1266.48 943.619 L1268.69 943.619 L1268.69 945.759 Q1266.25 945.555 1257.41 945.555 Q1248.58 945.555 1246.17 945.759 L1246.17 943.619 L1248.38 943.619 Q1252.76 943.619 1253.81 943.007 Q1254.87 942.362 1254.87 940.255 L1254.87 904.21 Q1251.23 906.044 1245.73 906.044 Z" fill="#000000" fill-rule="evenodd" fill-opacity="1" /><path clip-path="url(#clip300)" d="M1281.29 944.638 Q1280.24 943.517 1280.24 942.056 Q1280.24 940.595 1281.29 939.542 Q1282.34 938.455 1283.94 938.455 Q1285.47 938.455 1286.49 939.474 Q1287.54 940.459 1287.54 942.09 Q1287.54 943.687 1286.42 944.74 Q1285.33 945.759 1283.94 945.759 Q1282.34 945.759 1281.29 944.638 Z" fill="#000000" fill-rule="evenodd" fill-opacity="1" /><path clip-path="url(#clip300)" d="M1297.12 934.548 Q1297.12 932.476 1298.24 931.694 Q1299.36 930.879 1300.55 930.879 Q1302.15 930.879 1303.06 931.898 Q1304.01 932.883 1304.01 934.276 Q1304.01 935.669 1303.06 936.688 Q1302.15 937.674 1300.55 937.674 Q1299.77 937.674 1299.36 937.538 Q1300.28 940.731 1303.06 943.041 Q1305.88 945.351 1309.58 945.351 Q1314.24 945.351 1317.02 940.833 Q1318.69 937.911 1318.69 931.287 Q1318.69 925.443 1317.43 922.521 Q1315.49 918.071 1311.52 918.071 Q1305.88 918.071 1302.55 922.929 Q1302.15 923.541 1301.67 923.575 Q1300.99 923.575 1300.82 923.201 Q1300.68 922.793 1300.68 921.74 L1300.68 901.152 Q1300.68 899.487 1301.36 899.487 Q1301.64 899.487 1302.21 899.691 Q1306.59 901.628 1311.45 901.662 Q1316.44 901.662 1320.93 899.623 Q1321.27 899.419 1321.47 899.419 Q1322.15 899.419 1322.18 900.201 Q1322.18 900.473 1321.61 901.288 Q1321.06 902.069 1319.87 903.123 Q1318.69 904.142 1317.16 905.127 Q1315.63 906.112 1313.39 906.792 Q1311.18 907.437 1308.73 907.437 Q1305.81 907.437 1302.82 906.52 L1302.82 920.075 Q1306.42 916.542 1311.65 916.542 Q1317.23 916.542 1321.06 921.027 Q1324.9 925.511 1324.9 931.762 Q1324.9 938.319 1320.35 942.803 Q1315.83 947.288 1309.72 947.288 Q1304.15 947.288 1300.62 943.313 Q1297.12 939.338 1297.12 934.548 Z" fill="#000000" fill-rule="evenodd" fill-opacity="1" /><path clip-path="url(#clip300)" d="M1579.22 945.759 Q1579.22 944.502 1579.32 944.128 Q1579.46 943.755 1580 943.177 L1593.35 928.297 Q1600.65 920.075 1600.65 912.907 Q1600.65 908.253 1598.21 904.923 Q1595.8 901.594 1591.35 901.594 Q1588.29 901.594 1585.71 903.462 Q1583.13 905.331 1581.94 908.66 Q1582.14 908.592 1582.86 908.592 Q1584.59 908.592 1585.54 909.679 Q1586.52 910.767 1586.52 912.227 Q1586.52 914.096 1585.3 915.013 Q1584.11 915.897 1582.92 915.897 Q1582.45 915.897 1581.8 915.795 Q1581.19 915.693 1580.21 914.741 Q1579.22 913.756 1579.22 912.024 Q1579.22 907.165 1582.89 903.292 Q1586.59 899.419 1592.23 899.419 Q1598.62 899.419 1602.79 903.224 Q1607 906.996 1607 912.907 Q1607 914.979 1606.36 916.882 Q1605.75 918.75 1604.9 920.211 Q1604.08 921.672 1601.84 924.016 Q1599.6 926.36 1597.8 928.025 Q1596 929.69 1591.96 933.223 L1584.59 940.391 L1597.12 940.391 Q1603.23 940.391 1603.71 939.848 Q1604.39 938.863 1605.24 933.665 L1607 933.665 L1605.03 945.759 L1579.22 945.759 Z" fill="#000000" fill-rule="evenodd" fill-opacity="1" /><path clip-path="url(#clip300)" d="M1617.5 944.638 Q1616.45 943.517 1616.45 942.056 Q1616.45 940.595 1617.5 939.542 Q1618.55 938.455 1620.15 938.455 Q1621.68 938.455 1622.7 939.474 Q1623.75 940.459 1623.75 942.09 Q1623.75 943.687 1622.63 944.74 Q1621.54 945.759 1620.15 945.759 Q1618.55 945.759 1617.5 944.638 Z" fill="#000000" fill-rule="evenodd" fill-opacity="1" /><path clip-path="url(#clip300)" d="M1632.58 923.507 Q1632.58 913.281 1635.16 907.709 Q1638.76 899.419 1647.25 899.419 Q1649.05 899.419 1650.92 899.929 Q1652.82 900.405 1655.2 902.273 Q1657.61 904.142 1659.07 907.199 Q1661.86 913.111 1661.86 923.507 Q1661.86 933.665 1659.28 939.202 Q1655.51 947.288 1647.18 947.288 Q1644.06 947.288 1640.87 945.691 Q1637.71 944.094 1635.7 940.255 Q1632.58 934.514 1632.58 923.507 M1638.35 922.657 Q1638.35 933.155 1639.1 937.334 Q1639.95 941.852 1642.26 943.823 Q1644.6 945.759 1647.18 945.759 Q1649.97 945.759 1652.28 943.687 Q1654.62 941.58 1655.34 937.062 Q1656.12 932.611 1656.08 922.657 Q1656.08 912.975 1655.4 909.102 Q1654.49 904.583 1652.04 902.783 Q1649.63 900.948 1647.18 900.948 Q1646.27 900.948 1645.28 901.22 Q1644.33 901.492 1642.94 902.273 Q1641.55 903.055 1640.46 904.991 Q1639.41 906.928 1638.9 909.849 Q1638.35 913.62 1638.35 922.657 Z" fill="#000000" fill-rule="evenodd" fill-opacity="1" /><path clip-path="url(#clip300)" d="M883.006 997.494 L884.451 980.445 L930.803 980.445 L932.248 997.494 L930.358 997.494 Q930.062 994.084 929.765 992.12 Q929.506 990.156 928.839 988.303 Q928.209 986.412 927.394 985.523 Q926.616 984.596 925.097 983.892 Q923.578 983.151 921.614 982.966 Q919.65 982.78 916.686 982.78 Q913.203 982.78 912.351 982.929 Q911.425 983.151 911.203 983.818 Q910.98 984.448 910.98 985.819 L910.98 1025.81 Q910.98 1027.33 911.277 1027.96 Q911.61 1028.55 913.352 1029.03 Q915.093 1029.48 918.946 1029.48 L921.985 1029.48 L921.985 1031.81 Q918.872 1031.59 907.572 1031.59 Q896.345 1031.59 893.233 1031.81 L893.233 1029.48 L896.271 1029.48 Q900.124 1029.48 901.866 1029.03 Q903.644 1028.55 903.941 1027.96 Q904.237 1027.33 904.237 1025.81 L904.237 985.819 Q904.237 984.745 904.163 984.3 Q904.089 983.855 903.755 983.485 Q903.422 983.077 902.644 982.929 Q901.903 982.78 898.568 982.78 Q895.604 982.78 893.603 982.966 Q891.639 983.151 890.12 983.892 Q888.601 984.596 887.786 985.523 Q887.008 986.412 886.341 988.303 Q885.711 990.156 885.452 992.12 Q885.192 994.084 884.896 997.494 L883.006 997.494 Z" fill="#000000" fill-rule="evenodd" fill-opacity="1" /><path clip-path="url(#clip300)" d="M937.546 1031.81 L937.546 1029.48 Q941.585 1029.48 942.511 1029 Q943.437 1028.48 943.437 1026.03 L943.437 1005.61 Q943.437 1002.79 942.474 1002.13 Q941.548 1001.46 937.843 1001.46 L937.843 999.088 L948.439 998.272 L948.439 1026.11 Q948.439 1028.37 949.254 1028.92 Q950.07 1029.48 953.775 1029.48 L953.775 1031.81 Q946.031 1031.59 945.883 1031.59 Q944.845 1031.59 937.546 1031.81 M940.733 985.041 Q940.733 983.522 941.881 982.299 Q943.067 981.038 944.734 981.038 Q946.401 981.038 947.587 982.187 Q948.773 983.299 948.773 985.078 Q948.773 986.82 947.587 987.969 Q946.401 989.081 944.734 989.081 Q942.993 989.081 941.844 987.858 Q940.733 986.635 940.733 985.041 Z" fill="#000000" fill-rule="evenodd" fill-opacity="1" /><path clip-path="url(#clip300)" d="M958.48 1031.81 L958.48 1029.48 Q962.519 1029.48 963.445 1029 Q964.371 1028.48 964.371 1026.03 L964.371 1005.68 Q964.371 1002.87 963.371 1002.16 Q962.408 1001.46 958.48 1001.46 L958.48 999.088 L969.151 998.272 L969.151 1006.24 Q972.708 998.272 980.378 998.272 Q989.27 998.272 990.493 1005.68 Q991.79 1002.79 994.494 1000.53 Q997.236 998.272 1001.5 998.272 Q1007.2 998.272 1009.46 1001.09 Q1011.13 1002.98 1011.46 1005.09 Q1011.8 1007.2 1011.8 1012.69 L1011.8 1027.18 Q1011.87 1028.77 1013.09 1029.14 Q1014.32 1029.48 1017.73 1029.48 L1017.73 1031.81 Q1009.98 1031.59 1009.24 1031.59 Q1008.65 1031.59 1000.64 1031.81 L1000.64 1029.48 Q1004.68 1029.48 1005.61 1029 Q1006.57 1028.48 1006.57 1026.03 L1006.57 1008.35 Q1006.57 1004.5 1005.39 1002.24 Q1004.2 999.94 1000.94 999.94 Q997.014 999.94 993.864 1003.24 Q990.715 1006.54 990.715 1012.1 L990.715 1026.03 Q990.715 1028.48 991.641 1029 Q992.605 1029.48 996.643 1029.48 L996.643 1031.81 Q988.899 1031.59 988.121 1031.59 Q987.529 1031.59 979.563 1031.81 L979.563 1029.48 Q983.601 1029.48 984.527 1029 Q985.491 1028.48 985.491 1026.03 L985.491 1008.35 Q985.491 1004.5 984.305 1002.24 Q983.119 999.94 979.859 999.94 Q975.931 999.94 972.782 1003.24 Q969.633 1006.54 969.633 1012.1 L969.633 1026.03 Q969.633 1028.48 970.559 1029 Q971.522 1029.48 975.524 1029.48 L975.524 1031.81 Q967.78 1031.59 967.039 1031.59 Q966.446 1031.59 958.48 1031.81 Z" fill="#000000" fill-rule="evenodd" fill-opacity="1" /><path clip-path="url(#clip300)" d="M1021.32 1015.1 Q1021.32 1007.95 1025.91 1002.87 Q1030.51 997.79 1037.1 997.79 Q1043.77 997.79 1047.22 1002.13 Q1050.7 1006.46 1050.7 1012.69 Q1050.7 1013.84 1050.4 1014.06 Q1050.11 1014.28 1048.81 1014.28 L1027.62 1014.28 Q1027.62 1022.03 1029.92 1025.66 Q1033.1 1030.74 1038.47 1030.74 Q1039.22 1030.74 1040.1 1030.59 Q1040.99 1030.44 1042.81 1029.81 Q1044.62 1029.14 1046.22 1027.4 Q1047.81 1025.66 1048.74 1022.92 Q1048.96 1021.84 1049.7 1021.88 Q1050.7 1021.88 1050.7 1022.77 Q1050.7 1023.44 1049.96 1024.96 Q1049.26 1026.44 1047.89 1028.22 Q1046.51 1030 1043.85 1031.33 Q1041.22 1032.67 1038.03 1032.67 Q1031.36 1032.67 1026.32 1027.63 Q1021.32 1022.55 1021.32 1015.1 M1027.69 1012.69 L1045.7 1012.69 Q1045.7 1011.1 1045.4 1009.32 Q1045.14 1007.54 1044.33 1005.09 Q1043.55 1002.61 1041.7 1001.05 Q1039.85 999.495 1037.1 999.495 Q1035.88 999.495 1034.55 1000.01 Q1033.25 1000.53 1031.66 1001.79 Q1030.06 1003.05 1028.95 1005.91 Q1027.84 1008.76 1027.69 1012.69 Z" fill="#000000" fill-rule="evenodd" fill-opacity="1" /><polyline clip-path="url(#clip302)" style="stroke:#000000; stroke-linecap:round; stroke-linejoin:round; stroke-width:2.00037; stroke-opacity:0.1; fill:none" points="273.947,849.327 1659.76,849.327 "/>
<polyline clip-path="url(#clip302)" style="stroke:#000000; stroke-linecap:round; stroke-linejoin:round; stroke-width:2.00037; stroke-opacity:0.1; fill:none" points="273.947,752.469 1659.76,752.469 "/>
<polyline clip-path="url(#clip302)" style="stroke:#000000; stroke-linecap:round; stroke-linejoin:round; stroke-width:2.00037; stroke-opacity:0.1; fill:none" points="273.947,655.61 1659.76,655.61 "/>
<polyline clip-path="url(#clip302)" style="stroke:#000000; stroke-linecap:round; stroke-linejoin:round; stroke-width:2.00037; stroke-opacity:0.1; fill:none" points="273.947,558.752 1659.76,558.752 "/>
<polyline clip-path="url(#clip300)" style="stroke:#000000; stroke-linecap:round; stroke-linejoin:round; stroke-width:4.00074; stroke-opacity:1; fill:none" points="273.947,872.688 273.947,47.2528 "/>
<polyline clip-path="url(#clip300)" style="stroke:#000000; stroke-linecap:round; stroke-linejoin:round; stroke-width:4.00074; stroke-opacity:1; fill:none" points="1659.76,872.688 1659.76,47.2528 "/>
<polyline clip-path="url(#clip300)" style="stroke:#000000; stroke-linecap:round; stroke-linejoin:round; stroke-width:4.00074; stroke-opacity:1; fill:none" points="273.947,849.327 292.843,849.327 "/>
<polyline clip-path="url(#clip300)" style="stroke:#000000; stroke-linecap:round; stroke-linejoin:round; stroke-width:4.00074; stroke-opacity:1; fill:none" points="273.947,752.469 292.843,752.469 "/>
<polyline clip-path="url(#clip300)" style="stroke:#000000; stroke-linecap:round; stroke-linejoin:round; stroke-width:4.00074; stroke-opacity:1; fill:none" points="273.947,655.61 292.843,655.61 "/>
<polyline clip-path="url(#clip300)" style="stroke:#000000; stroke-linecap:round; stroke-linejoin:round; stroke-width:4.00074; stroke-opacity:1; fill:none" points="273.947,558.752 292.843,558.752 "/>
<path clip-path="url(#clip300)" d="M225.383 833.376 L225.383 831.202 Q233.738 831.202 238.051 826.752 Q239.24 826.752 239.444 827.023 Q239.648 827.295 239.648 828.552 L239.648 867.588 Q239.648 869.66 240.666 870.306 Q241.685 870.951 246.135 870.951 L248.342 870.951 L248.342 873.091 Q245.897 872.888 237.066 872.888 Q228.236 872.888 225.824 873.091 L225.824 870.951 L228.032 870.951 Q232.413 870.951 233.466 870.34 Q234.519 869.694 234.519 867.588 L234.519 831.542 Q230.885 833.376 225.383 833.376 Z" fill="#000000" fill-rule="evenodd" fill-opacity="1" /><path clip-path="url(#clip300)" d="M187.751 736.518 L187.751 734.344 Q196.106 734.344 200.419 729.893 Q201.608 729.893 201.812 730.165 Q202.016 730.437 202.016 731.694 L202.016 770.729 Q202.016 772.802 203.035 773.447 Q204.053 774.093 208.503 774.093 L210.71 774.093 L210.71 776.233 Q208.265 776.029 199.434 776.029 Q190.604 776.029 188.192 776.233 L188.192 774.093 L190.4 774.093 Q194.781 774.093 195.834 773.481 Q196.887 772.836 196.887 770.729 L196.887 734.684 Q193.253 736.518 187.751 736.518 Z" fill="#000000" fill-rule="evenodd" fill-opacity="1" /><path clip-path="url(#clip300)" d="M219.065 753.98 Q219.065 743.754 221.647 738.183 Q225.247 729.893 233.738 729.893 Q235.538 729.893 237.406 730.403 Q239.308 730.879 241.685 732.747 Q244.097 734.616 245.557 737.673 Q248.342 743.585 248.342 753.98 Q248.342 764.138 245.761 769.676 Q241.991 777.762 233.67 777.762 Q230.545 777.762 227.353 776.165 Q224.194 774.568 222.19 770.729 Q219.065 764.988 219.065 753.98 M224.839 753.131 Q224.839 763.629 225.587 767.808 Q226.436 772.326 228.745 774.297 Q231.089 776.233 233.67 776.233 Q236.455 776.233 238.764 774.161 Q241.108 772.054 241.821 767.536 Q242.602 763.085 242.568 753.131 Q242.568 743.449 241.889 739.576 Q240.972 735.057 238.527 733.257 Q236.115 731.422 233.67 731.422 Q232.753 731.422 231.768 731.694 Q230.817 731.966 229.424 732.747 Q228.032 733.528 226.945 735.465 Q225.892 737.401 225.383 740.323 Q224.839 744.094 224.839 753.131 Z" fill="#000000" fill-rule="evenodd" fill-opacity="1" /><path clip-path="url(#clip300)" d="M152.972 639.66 L152.972 637.485 Q161.327 637.485 165.64 633.035 Q166.829 633.035 167.033 633.307 Q167.237 633.579 167.237 634.836 L167.237 673.871 Q167.237 675.943 168.256 676.589 Q169.274 677.234 173.724 677.234 L175.931 677.234 L175.931 679.375 Q173.486 679.171 164.655 679.171 Q155.825 679.171 153.413 679.375 L153.413 677.234 L155.621 677.234 Q160.002 677.234 161.055 676.623 Q162.108 675.977 162.108 673.871 L162.108 637.825 Q158.474 639.66 152.972 639.66 Z" fill="#000000" fill-rule="evenodd" fill-opacity="1" /><path clip-path="url(#clip300)" d="M184.286 657.122 Q184.286 646.896 186.868 641.324 Q190.468 633.035 198.959 633.035 Q200.759 633.035 202.627 633.545 Q204.529 634.02 206.906 635.889 Q209.318 637.757 210.778 640.815 Q213.563 646.726 213.563 657.122 Q213.563 667.28 210.982 672.818 Q207.212 680.903 198.891 680.903 Q195.766 680.903 192.574 679.307 Q189.415 677.71 187.411 673.871 Q184.286 668.129 184.286 657.122 M190.06 656.273 Q190.06 666.771 190.808 670.949 Q191.657 675.468 193.966 677.438 Q196.31 679.375 198.891 679.375 Q201.676 679.375 203.986 677.302 Q206.329 675.196 207.042 670.677 Q207.823 666.227 207.789 656.273 Q207.789 646.59 207.11 642.717 Q206.193 638.199 203.748 636.398 Q201.336 634.564 198.891 634.564 Q197.974 634.564 196.989 634.836 Q196.038 635.107 194.645 635.889 Q193.253 636.67 192.166 638.607 Q191.113 640.543 190.604 643.465 Q190.06 647.236 190.06 656.273 Z" fill="#000000" fill-rule="evenodd" fill-opacity="1" /><path clip-path="url(#clip300)" d="M219.065 657.122 Q219.065 646.896 221.647 641.324 Q225.247 633.035 233.738 633.035 Q235.538 633.035 237.406 633.545 Q239.308 634.02 241.685 635.889 Q244.097 637.757 245.557 640.815 Q248.342 646.726 248.342 657.122 Q248.342 667.28 245.761 672.818 Q241.991 680.903 233.67 680.903 Q230.545 680.903 227.353 679.307 Q224.194 677.71 222.19 673.871 Q219.065 668.129 219.065 657.122 M224.839 656.273 Q224.839 666.771 225.587 670.949 Q226.436 675.468 228.745 677.438 Q231.089 679.375 233.67 679.375 Q236.455 679.375 238.764 677.302 Q241.108 675.196 241.821 670.677 Q242.602 666.227 242.568 656.273 Q242.568 646.59 241.889 642.717 Q240.972 638.199 238.527 636.398 Q236.115 634.564 233.67 634.564 Q232.753 634.564 231.768 634.836 Q230.817 635.107 229.424 635.889 Q228.032 636.67 226.945 638.607 Q225.892 640.543 225.383 643.465 Q224.839 647.236 224.839 656.273 Z" fill="#000000" fill-rule="evenodd" fill-opacity="1" /><path clip-path="url(#clip300)" d="M118.193 542.801 L118.193 540.627 Q126.548 540.627 130.861 536.177 Q132.05 536.177 132.254 536.448 Q132.458 536.72 132.458 537.977 L132.458 577.013 Q132.458 579.085 133.477 579.73 Q134.496 580.376 138.945 580.376 L141.152 580.376 L141.152 582.516 Q138.707 582.312 129.876 582.312 Q121.046 582.312 118.634 582.516 L118.634 580.376 L120.842 580.376 Q125.223 580.376 126.276 579.764 Q127.329 579.119 127.329 577.013 L127.329 540.967 Q123.695 542.801 118.193 542.801 Z" fill="#000000" fill-rule="evenodd" fill-opacity="1" /><path clip-path="url(#clip300)" d="M149.508 560.264 Q149.508 550.038 152.089 544.466 Q155.689 536.177 164.18 536.177 Q165.98 536.177 167.848 536.686 Q169.75 537.162 172.127 539.03 Q174.539 540.899 175.999 543.956 Q178.784 549.868 178.784 560.264 Q178.784 570.422 176.203 575.959 Q172.433 584.045 164.112 584.045 Q160.987 584.045 157.795 582.448 Q154.636 580.852 152.632 577.013 Q149.508 571.271 149.508 560.264 M155.281 559.414 Q155.281 569.912 156.029 574.091 Q156.878 578.609 159.187 580.58 Q161.531 582.516 164.112 582.516 Q166.897 582.516 169.207 580.444 Q171.55 578.338 172.263 573.819 Q173.044 569.369 173.01 559.414 Q173.01 549.732 172.331 545.859 Q171.414 541.341 168.969 539.54 Q166.557 537.705 164.112 537.705 Q163.195 537.705 162.21 537.977 Q161.259 538.249 159.866 539.03 Q158.474 539.812 157.387 541.748 Q156.334 543.685 155.825 546.606 Q155.281 550.377 155.281 559.414 Z" fill="#000000" fill-rule="evenodd" fill-opacity="1" /><path clip-path="url(#clip300)" d="M184.286 560.264 Q184.286 550.038 186.868 544.466 Q190.468 536.177 198.959 536.177 Q200.759 536.177 202.627 536.686 Q204.529 537.162 206.906 539.03 Q209.318 540.899 210.778 543.956 Q213.563 549.868 213.563 560.264 Q213.563 570.422 210.982 575.959 Q207.212 584.045 198.891 584.045 Q195.766 584.045 192.574 582.448 Q189.415 580.852 187.411 577.013 Q184.286 571.271 184.286 560.264 M190.06 559.414 Q190.06 569.912 190.808 574.091 Q191.657 578.609 193.966 580.58 Q196.31 582.516 198.891 582.516 Q201.676 582.516 203.986 580.444 Q206.329 578.338 207.042 573.819 Q207.823 569.369 207.789 559.414 Q207.789 549.732 207.11 545.859 Q206.193 541.341 203.748 539.54 Q201.336 537.705 198.891 537.705 Q197.974 537.705 196.989 537.977 Q196.038 538.249 194.645 539.03 Q193.253 539.812 192.166 541.748 Q191.113 543.685 190.604 546.606 Q190.06 550.377 190.06 559.414 Z" fill="#000000" fill-rule="evenodd" fill-opacity="1" /><path clip-path="url(#clip300)" d="M219.065 560.264 Q219.065 550.038 221.647 544.466 Q225.247 536.177 233.738 536.177 Q235.538 536.177 237.406 536.686 Q239.308 537.162 241.685 539.03 Q244.097 540.899 245.557 543.956 Q248.342 549.868 248.342 560.264 Q248.342 570.422 245.761 575.959 Q241.991 584.045 233.67 584.045 Q230.545 584.045 227.353 582.448 Q224.194 580.852 222.19 577.013 Q219.065 571.271 219.065 560.264 M224.839 559.414 Q224.839 569.912 225.587 574.091 Q226.436 578.609 228.745 580.58 Q231.089 582.516 233.67 582.516 Q236.455 582.516 238.764 580.444 Q241.108 578.338 241.821 573.819 Q242.602 569.369 242.568 559.414 Q242.568 549.732 241.889 545.859 Q240.972 541.341 238.527 539.54 Q236.115 537.705 233.67 537.705 Q232.753 537.705 231.768 537.977 Q230.817 538.249 229.424 539.03 Q228.032 539.812 226.945 541.748 Q225.892 543.685 225.383 546.606 Q224.839 550.377 224.839 559.414 Z" fill="#000000" fill-rule="evenodd" fill-opacity="1" /><path clip-path="url(#clip300)" d="M51.3237 614.797 Q39.7266 614.797 31.6494 607.384 Q23.5351 599.935 23.5351 589.594 Q23.5351 579.18 31.6494 571.768 Q39.7636 564.318 51.3237 564.318 Q62.7726 564.318 70.7386 571.768 Q78.7047 579.217 78.7047 589.594 Q78.7047 599.824 70.7757 607.31 Q62.8467 614.797 51.3237 614.797 M50.2492 606.976 Q57.289 606.976 62.6985 605.309 Q68.0709 603.641 70.998 600.972 Q73.9251 598.267 75.333 595.376 Q76.741 592.485 76.741 589.52 Q76.741 586.63 75.3701 583.813 Q73.9992 580.959 71.1092 578.254 Q68.2191 575.548 62.8096 573.843 Q57.4001 572.138 50.2492 572.138 Q44.6915 572.138 40.2453 573.324 Q35.7621 574.51 33.0573 576.363 Q30.3526 578.216 28.5741 580.626 Q26.7956 582.997 26.1287 585.258 Q25.4247 587.482 25.4247 589.594 Q25.4247 592.263 26.6104 595.043 Q27.796 597.822 30.4267 600.639 Q33.0203 603.419 38.1704 605.198 Q43.2835 606.976 50.2492 606.976 Z" fill="#000000" fill-rule="evenodd" fill-opacity="1" /><path clip-path="url(#clip300)" d="M46.6922 558.648 L44.321 558.648 Q44.5433 555.238 44.5433 551.273 Q44.5433 549.827 44.321 543.008 L46.6922 543.008 Q46.6922 547.344 48.656 547.344 Q48.9524 547.344 49.9528 546.899 L71.1092 538.375 L51.7683 530.629 Q50.4715 530.184 49.9528 530.184 Q48.656 530.184 47.7297 531.074 Q46.7664 531.926 46.6922 533.816 L44.321 533.816 Q44.5433 529.962 44.5433 527.219 Q44.5433 524.106 44.321 521.549 L46.6922 521.549 Q46.6922 523.81 47.7297 525.403 Q48.7301 526.997 49.6193 527.516 Q50.4715 527.998 51.7683 528.517 L76.4446 538.449 Q77.8896 539.042 77.8896 540.043 Q77.8896 540.71 77.5932 541.006 Q77.3338 541.266 76.4446 541.636 L49.5082 552.57 Q47.6185 553.311 47.1739 554.275 Q46.6922 555.238 46.6922 558.648 Z" fill="#000000" fill-rule="evenodd" fill-opacity="1" /><path clip-path="url(#clip300)" d="M60.3272 520.103 Q53.1763 520.103 48.1002 515.508 Q43.0242 510.912 43.0242 504.315 Q43.0242 497.644 47.3592 494.197 Q51.6942 490.713 57.9188 490.713 Q59.0674 490.713 59.2897 491.01 Q59.512 491.306 59.512 492.604 L59.512 513.803 Q67.2558 513.803 70.8868 511.505 Q75.9629 508.318 75.9629 502.944 Q75.9629 502.203 75.8147 501.313 Q75.6665 500.424 75.0366 498.608 Q74.3697 496.792 72.6283 495.198 Q70.8868 493.604 68.145 492.678 Q67.0705 492.455 67.1076 491.714 Q67.1076 490.713 67.9968 490.713 Q68.6638 490.713 70.1829 491.455 Q71.6649 492.159 73.4434 493.53 Q75.2219 494.901 76.5557 497.57 Q77.8896 500.201 77.8896 503.389 Q77.8896 510.06 72.8506 515.1 Q67.7745 520.103 60.3272 520.103 M57.9188 513.729 L57.9188 495.717 Q56.3256 495.717 54.5472 496.013 Q52.7687 496.273 50.3233 497.088 Q47.8408 497.866 46.2847 499.719 Q44.7285 501.573 44.7285 504.315 Q44.7285 505.538 45.2472 506.872 Q45.766 508.17 47.0257 509.763 Q48.2855 511.357 51.1384 512.469 Q53.9914 513.581 57.9188 513.729 Z" fill="#000000" fill-rule="evenodd" fill-opacity="1" /><path clip-path="url(#clip300)" d="M77.0374 486.414 L74.7031 486.414 Q74.7031 482.374 74.2215 481.448 Q73.7028 480.484 71.2574 480.484 L50.9161 480.484 Q48.1002 480.484 47.3962 481.485 Q46.6922 482.449 46.6922 486.414 L44.321 486.414 L43.5058 475.852 L51.8424 475.852 Q48.5819 474.777 46.0624 472.516 Q43.5058 470.218 43.5058 466.512 Q43.5058 464.066 44.8767 462.509 Q46.2476 460.916 48.1373 460.916 Q49.8046 460.916 50.6568 461.953 Q51.4719 462.954 51.4719 464.177 Q51.4719 465.548 50.6197 466.512 Q49.7305 467.439 48.2114 467.439 Q47.2851 467.439 46.5811 467.031 Q45.8401 466.586 45.5807 466.253 Q45.3213 465.919 45.2472 465.697 Q45.1731 465.845 45.1731 466.512 Q45.1731 470.7 49.36 473.109 Q53.5097 475.481 59.4379 475.481 L71.1092 475.481 Q73.2952 475.481 73.9992 474.591 Q74.7031 473.665 74.7031 469.699 L74.7031 468.106 L77.0374 468.106 Q76.8151 471.145 76.8151 477.742 Q76.8151 478.668 76.8521 480.114 Q76.8892 481.559 76.9633 483.449 Q77.0374 485.339 77.0374 486.414 Z" fill="#000000" fill-rule="evenodd" fill-opacity="1" /><path clip-path="url(#clip300)" d="M77.0374 456.431 L74.7031 456.431 Q74.7031 452.391 74.2215 451.465 Q73.7028 450.538 71.2574 450.538 L31.7976 450.538 Q28.9817 450.538 28.2777 451.539 Q27.5737 452.503 27.5737 456.431 L25.2024 456.431 L24.3873 445.535 L50.7679 445.535 L50.7679 445.461 Q48.0261 444.238 45.766 441.495 Q43.5058 438.753 43.5058 434.528 Q43.5058 428.82 46.3217 426.559 Q48.2114 424.892 50.3233 424.558 Q52.4352 424.187 57.9188 424.187 L72.406 424.187 Q73.9992 424.113 74.3697 422.89 Q74.7031 421.667 74.7031 418.257 L77.0374 418.257 Q76.8151 426.003 76.8151 426.782 Q76.8151 427.375 77.0374 435.343 L74.7031 435.343 Q74.7031 431.303 74.2215 430.377 Q73.7028 429.413 71.2574 429.413 L53.5838 429.413 Q49.7305 429.413 47.4703 430.599 Q45.1731 431.785 45.1731 435.046 Q45.1731 438.975 48.4707 442.125 Q51.7683 445.276 57.326 445.276 L71.2574 445.276 Q73.7028 445.276 74.2215 444.349 Q74.7031 443.385 74.7031 439.383 L77.0374 439.383 Q76.8151 447.129 76.8151 447.87 Q76.8151 448.463 77.0374 456.431 Z" fill="#000000" fill-rule="evenodd" fill-opacity="1" /><path clip-path="url(#clip300)" d="M60.3272 414.662 Q53.1763 414.662 48.1002 410.067 Q43.0242 405.471 43.0242 398.874 Q43.0242 392.203 47.3592 388.756 Q51.6942 385.272 57.9188 385.272 Q59.0674 385.272 59.2897 385.569 Q59.512 385.865 59.512 387.163 L59.512 408.362 Q67.2558 408.362 70.8868 406.064 Q75.9629 402.877 75.9629 397.503 Q75.9629 396.762 75.8147 395.872 Q75.6665 394.983 75.0366 393.167 Q74.3697 391.351 72.6283 389.757 Q70.8868 388.163 68.145 387.237 Q67.0705 387.014 67.1076 386.273 Q67.1076 385.272 67.9968 385.272 Q68.6638 385.272 70.1829 386.014 Q71.6649 386.718 73.4434 388.089 Q75.2219 389.46 76.5557 392.129 Q77.8896 394.76 77.8896 397.948 Q77.8896 404.619 72.8506 409.659 Q67.7745 414.662 60.3272 414.662 M57.9188 408.288 L57.9188 390.276 Q56.3256 390.276 54.5472 390.572 Q52.7687 390.832 50.3233 391.647 Q47.8408 392.425 46.2847 394.278 Q44.7285 396.132 44.7285 398.874 Q44.7285 400.097 45.2472 401.431 Q45.766 402.729 47.0257 404.322 Q48.2855 405.916 51.1384 407.028 Q53.9914 408.14 57.9188 408.288 Z" fill="#000000" fill-rule="evenodd" fill-opacity="1" /><path clip-path="url(#clip300)" d="M69.8124 379.898 Q63.3654 379.898 59.9567 372.301 Q57.7706 367.742 57.2149 358.328 L54.436 358.328 Q49.7305 358.328 47.248 360.812 Q44.7285 363.258 44.7285 366.371 Q44.7285 371.93 48.2114 374.599 Q48.2855 372.338 49.4341 371.522 Q50.5456 370.707 51.6942 370.707 Q53.2133 370.707 54.2137 371.671 Q55.177 372.597 55.177 374.191 Q55.177 375.71 54.2507 376.711 Q53.2874 377.712 51.6201 377.712 Q47.9149 377.712 45.4696 374.376 Q43.0242 371.004 43.0242 366.223 Q43.0242 359.996 47.211 355.845 Q48.5078 354.548 50.1751 353.918 Q51.8424 353.251 52.9539 353.177 Q54.0284 353.103 56.1774 353.103 L71.3315 353.103 Q71.7761 353.103 72.5171 352.954 Q73.2581 352.806 74.2215 352.139 Q75.1478 351.435 75.1478 350.286 Q75.1478 347.543 70.294 347.58 L66.0331 347.58 L66.0331 345.653 L70.294 345.653 Q74.3326 345.653 75.9258 347.803 Q77.482 349.915 77.482 351.88 Q77.482 354.4 75.6294 355.994 Q73.7769 357.587 71.2574 357.81 Q74.1474 358.958 76.037 361.59 Q77.8896 364.184 77.8896 367.742 Q77.8896 370.485 77.1856 373.079 Q76.5187 375.636 74.629 377.786 Q72.7024 379.898 69.8124 379.898 M69.7382 374.043 Q72.5542 374.043 74.3697 372.041 Q76.1852 370.04 76.1852 367.223 Q76.1852 364.036 73.7398 361.182 Q71.2574 358.328 66.4036 358.328 L58.8081 358.328 Q59.1045 366.741 62.4762 370.411 Q65.8108 374.043 69.7382 374.043 Z" fill="#000000" fill-rule="evenodd" fill-opacity="1" /><path clip-path="url(#clip300)" d="M60.7347 342.54 Q53.5097 342.54 48.5078 337.5 Q43.5058 332.459 43.5058 325.64 Q43.5058 319.858 48.2114 316.078 L31.7976 316.078 Q28.9817 316.078 28.2777 317.079 Q27.5737 318.042 27.5737 321.971 L25.2024 321.971 L24.3873 311.037 L70.4422 311.037 Q73.2581 311.037 73.9992 310.074 Q74.7031 309.073 74.7031 305.145 L77.0374 305.145 L77.8896 316.3 L72.8506 316.3 Q77.8525 320.229 77.8896 326.455 Q77.8896 332.978 72.8876 337.759 Q67.8857 342.54 60.7347 342.54 M60.8089 336.24 Q67.8486 336.24 71.3315 334.053 Q76.1852 331.014 76.1852 326.085 Q76.1852 320.451 70.8868 317.116 Q69.59 316.263 68.0709 316.3 L52.5093 316.3 Q50.9902 316.3 49.7305 317.116 Q45.1731 320.229 45.1731 325.306 Q45.1731 330.606 50.0269 333.905 Q53.6579 336.24 60.8089 336.24 Z" fill="#000000" fill-rule="evenodd" fill-opacity="1" /><path clip-path="url(#clip302)" d="M313.168 840.808 L346.691 826.418 L380.213 811.946 L413.735 797.576 L447.258 782.559 L480.78 767.331 L514.302 752.877 L547.825 738.702 L581.347 724.816 L614.869 711.295 L648.392 697.712 L681.914 684.365 L715.436 670.635 L748.959 655.365 L782.481 636.379 L816.003 617.685 L849.526 601.285 L883.048 586.703 L916.57 573.307 L950.093 560.888 L983.615 548.606 L1017.14 536.398 L1050.66 520.547 L1084.18 499.041 L1117.7 473.539 L1151.23 444.152 L1184.75 413.596 L1218.27 386.248 L1251.79 362.306 L1285.32 338.707 L1318.84 312.218 L1352.36 282.023 L1385.88 249.45 L1419.41 215.742 L1452.93 182.358 L1486.45 151.007 L1519.97 123.405 L1553.49 100.303 L1587.02 82.7926 L1620.54 70.6142 L1620.54 70.6142 L1587.02 82.7926 L1553.49 100.303 L1519.97 123.405 L1486.45 151.007 L1452.93 182.358 L1419.41 215.742 L1385.88 249.45 L1352.36 282.023 L1318.84 312.218 L1285.32 338.707 L1251.79 362.306 L1218.27 386.248 L1184.75 413.596 L1151.23 444.152 L1117.7 473.539 L1084.18 499.041 L1050.66 520.547 L1017.14 536.398 L983.615 548.606 L950.093 560.888 L916.57 573.307 L883.048 586.703 L849.526 601.285 L816.003 617.685 L782.481 636.379 L748.959 655.365 L715.436 670.635 L681.914 684.365 L648.392 697.712 L614.869 711.295 L581.347 724.816 L547.825 738.702 L514.302 752.877 L480.78 767.331 L447.258 782.559 L413.735 797.576 L380.213 811.946 L346.691 826.418 L313.168 840.808  Z" fill="#dcb0f2" fill-rule="evenodd" fill-opacity="0.5"/>
<polyline clip-path="url(#clip302)" style="stroke:#dcb0f2; stroke-linecap:round; stroke-linejoin:round; stroke-width:12.0022; stroke-opacity:1; fill:none" points="313.168,840.808 346.691,826.418 380.213,811.946 413.735,797.576 447.258,782.559 480.78,767.331 514.302,752.877 547.825,738.702 581.347,724.816 614.869,711.295 648.392,697.712 681.914,684.365 715.436,670.635 748.959,655.365 782.481,636.379 816.003,617.685 849.526,601.285 883.048,586.703 916.57,573.307 950.093,560.888 983.615,548.606 1017.14,536.398 1050.66,520.547 1084.18,499.041 1117.7,473.539 1151.23,444.152 1184.75,413.596 1218.27,386.248 1251.79,362.306 1285.32,338.707 1318.84,312.218 1352.36,282.023 1385.88,249.45 1419.41,215.742 1452.93,182.358 1486.45,151.007 1519.97,123.405 1553.49,100.303 1587.02,82.7926 1620.54,70.6142 "/>
<path clip-path="url(#clip302)" d="M313.168 840.808 L346.691 826.418 L380.213 811.946 L413.735 797.576 L447.258 782.559 L480.78 767.331 L514.302 752.877 L547.825 738.702 L581.347 724.816 L614.869 711.295 L648.392 697.712 L681.914 684.365 L715.436 670.635 L748.959 655.365 L782.481 636.379 L816.003 617.685 L849.526 601.285 L883.048 586.703 L916.57 573.307 L950.093 561.046 L983.615 559.093 L1017.14 559.608 L1050.66 558.925 L1084.18 558.912 L1117.7 559.281 L1151.23 559.146 L1184.75 559.391 L1218.27 559.178 L1251.79 558.988 L1285.32 559.65 L1318.84 559.332 L1352.36 558.82 L1385.88 558.876 L1419.41 559.06 L1452.93 559.161 L1486.45 558.914 L1519.97 558.95 L1553.49 558.87 L1587.02 558.951 L1620.54 559.051 L1620.54 559.051 L1587.02 558.951 L1553.49 558.87 L1519.97 558.95 L1486.45 558.914 L1452.93 559.161 L1419.41 559.06 L1385.88 558.876 L1352.36 558.82 L1318.84 559.332 L1285.32 559.65 L1251.79 558.988 L1218.27 559.178 L1184.75 559.391 L1151.23 559.146 L1117.7 559.281 L1084.18 558.912 L1050.66 558.925 L1017.14 559.608 L983.615 559.093 L950.093 561.046 L916.57 573.307 L883.048 586.703 L849.526 601.285 L816.003 617.685 L782.481 636.379 L748.959 655.365 L715.436 670.635 L681.914 684.365 L648.392 697.712 L614.869 711.295 L581.347 724.816 L547.825 738.702 L514.302 752.877 L480.78 767.331 L447.258 782.559 L413.735 797.576 L380.213 811.946 L346.691 826.418 L313.168 840.808  Z" fill="#87c55f" fill-rule="evenodd" fill-opacity="0.5"/>
<polyline clip-path="url(#clip302)" style="stroke:#87c55f; stroke-linecap:round; stroke-linejoin:round; stroke-width:12.0022; stroke-opacity:1; fill:none" stroke-dasharray="48, 24, 6, 24" points="313.168,840.808 346.691,826.418 380.213,811.946 413.735,797.576 447.258,782.559 480.78,767.331 514.302,752.877 547.825,738.702 581.347,724.816 614.869,711.295 648.392,697.712 681.914,684.365 715.436,670.635 748.959,655.365 782.481,636.379 816.003,617.685 849.526,601.285 883.048,586.703 916.57,573.307 950.093,561.046 983.615,559.093 1017.14,559.608 1050.66,558.925 1084.18,558.912 1117.7,559.281 1151.23,559.146 1184.75,559.391 1218.27,559.178 1251.79,558.988 1285.32,559.65 1318.84,559.332 1352.36,558.82 1385.88,558.876 1419.41,559.06 1452.93,559.161 1486.45,558.914 1519.97,558.95 1553.49,558.87 1587.02,558.951 1620.54,559.051 "/>
<path clip-path="url(#clip302)" d="M313.168 840.808 L346.691 826.418 L380.213 811.946 L413.735 797.576 L447.258 782.559 L480.78 767.331 L514.302 752.877 L547.825 738.702 L581.347 724.816 L614.869 711.295 L648.392 697.712 L681.914 684.365 L715.436 670.635 L748.959 655.862 L782.481 655.817 L816.003 655.815 L849.526 655.753 L883.048 655.756 L916.57 655.754 L950.093 656.004 L983.615 656.383 L1017.14 656.419 L1050.66 655.628 L1084.18 656.128 L1117.7 656.389 L1151.23 655.614 L1184.75 656.059 L1218.27 656.081 L1251.79 655.725 L1285.32 655.837 L1318.84 655.734 L1352.36 655.827 L1385.88 655.906 L1419.41 655.979 L1452.93 656.046 L1486.45 655.973 L1519.97 656.13 L1553.49 655.836 L1587.02 655.66 L1620.54 655.803 L1620.54 655.803 L1587.02 655.66 L1553.49 655.836 L1519.97 656.13 L1486.45 655.973 L1452.93 656.046 L1419.41 655.979 L1385.88 655.906 L1352.36 655.827 L1318.84 655.734 L1285.32 655.837 L1251.79 655.725 L1218.27 656.081 L1184.75 656.059 L1151.23 655.614 L1117.7 656.389 L1084.18 656.128 L1050.66 655.628 L1017.14 656.419 L983.615 656.383 L950.093 656.004 L916.57 655.754 L883.048 655.756 L849.526 655.753 L816.003 655.815 L782.481 655.817 L748.959 655.862 L715.436 670.635 L681.914 684.365 L648.392 697.712 L614.869 711.295 L581.347 724.816 L547.825 738.702 L514.302 752.877 L480.78 767.331 L447.258 782.559 L413.735 797.576 L380.213 811.946 L346.691 826.418 L313.168 840.808  Z" fill="#f89c74" fill-rule="evenodd" fill-opacity="0.5"/>
<polyline clip-path="url(#clip302)" style="stroke:#f89c74; stroke-linecap:round; stroke-linejoin:round; stroke-width:12.0022; stroke-opacity:1; fill:none" stroke-dasharray="6, 12" points="313.168,840.808 346.691,826.418 380.213,811.946 413.735,797.576 447.258,782.559 480.78,767.331 514.302,752.877 547.825,738.702 581.347,724.816 614.869,711.295 648.392,697.712 681.914,684.365 715.436,670.635 748.959,655.862 782.481,655.817 816.003,655.815 849.526,655.753 883.048,655.756 916.57,655.754 950.093,656.004 983.615,656.383 1017.14,656.419 1050.66,655.628 1084.18,656.128 1117.7,656.389 1151.23,655.614 1184.75,656.059 1218.27,656.081 1251.79,655.725 1285.32,655.837 1318.84,655.734 1352.36,655.827 1385.88,655.906 1419.41,655.979 1452.93,656.046 1486.45,655.973 1519.97,656.13 1553.49,655.836 1587.02,655.66 1620.54,655.803 "/>
<path clip-path="url(#clip302)" d="M313.168 841.118 L346.691 841.118 L380.213 841.118 L413.735 841.118 L447.258 841.118 L480.78 841.118 L514.302 841.118 L547.825 841.118 L581.347 841.118 L614.869 841.118 L648.392 841.118 L681.914 841.118 L715.436 841.118 L748.959 841.118 L782.481 841.118 L816.003 841.118 L849.526 841.118 L883.048 841.118 L916.57 841.118 L950.093 841.118 L983.615 841.118 L1017.14 841.118 L1050.66 841.118 L1084.18 841.118 L1117.7 841.118 L1151.23 841.118 L1184.75 841.118 L1218.27 841.118 L1251.79 841.118 L1285.32 841.118 L1318.84 841.118 L1352.36 841.118 L1385.88 841.118 L1419.41 841.118 L1452.93 841.118 L1486.45 841.118 L1519.97 841.118 L1553.49 841.118 L1587.02 841.118 L1620.54 841.118 L1620.54 841.118 L1587.02 841.118 L1553.49 841.118 L1519.97 841.118 L1486.45 841.118 L1452.93 841.118 L1419.41 841.118 L1385.88 841.118 L1352.36 841.118 L1318.84 841.118 L1285.32 841.118 L1251.79 841.118 L1218.27 841.118 L1184.75 841.118 L1151.23 841.118 L1117.7 841.118 L1084.18 841.118 L1050.66 841.118 L1017.14 841.118 L983.615 841.118 L950.093 841.118 L916.57 841.118 L883.048 841.118 L849.526 841.118 L816.003 841.118 L782.481 841.118 L748.959 841.118 L715.436 841.118 L681.914 841.118 L648.392 841.118 L614.869 841.118 L581.347 841.118 L547.825 841.118 L514.302 841.118 L480.78 841.118 L447.258 841.118 L413.735 841.118 L380.213 841.118 L346.691 841.118 L313.168 841.118  Z" fill="#f6cf71" fill-rule="evenodd" fill-opacity="0.5"/>
<polyline clip-path="url(#clip302)" style="stroke:#f6cf71; stroke-linecap:round; stroke-linejoin:round; stroke-width:12.0022; stroke-opacity:1; fill:none" stroke-dasharray="48, 30" points="313.168,841.118 346.691,841.118 380.213,841.118 413.735,841.118 447.258,841.118 480.78,841.118 514.302,841.118 547.825,841.118 581.347,841.118 614.869,841.118 648.392,841.118 681.914,841.118 715.436,841.118 748.959,841.118 782.481,841.118 816.003,841.118 849.526,841.118 883.048,841.118 916.57,841.118 950.093,841.118 983.615,841.118 1017.14,841.118 1050.66,841.118 1084.18,841.118 1117.7,841.118 1151.23,841.118 1184.75,841.118 1218.27,841.118 1251.79,841.118 1285.32,841.118 1318.84,841.118 1352.36,841.118 1385.88,841.118 1419.41,841.118 1452.93,841.118 1486.45,841.118 1519.97,841.118 1553.49,841.118 1587.02,841.118 1620.54,841.118 "/>
<path clip-path="url(#clip302)" d="M313.168 849.327 L346.691 849.327 L380.213 849.327 L413.735 849.327 L447.258 849.327 L480.78 849.327 L514.302 849.327 L547.825 849.327 L581.347 849.327 L614.869 849.327 L648.392 849.327 L681.914 849.327 L715.436 849.327 L748.959 849.327 L782.481 849.327 L816.003 849.327 L849.526 849.327 L883.048 849.327 L916.57 849.327 L950.093 849.327 L983.615 849.327 L1017.14 849.327 L1050.66 849.327 L1084.18 849.327 L1117.7 849.327 L1151.23 849.327 L1184.75 849.327 L1218.27 849.327 L1251.79 849.327 L1285.32 849.327 L1318.84 849.327 L1352.36 849.327 L1385.88 849.327 L1419.41 849.327 L1452.93 849.327 L1486.45 849.327 L1519.97 849.327 L1553.49 849.327 L1587.02 849.327 L1620.54 849.327 L1620.54 849.327 L1587.02 849.327 L1553.49 849.327 L1519.97 849.327 L1486.45 849.327 L1452.93 849.327 L1419.41 849.327 L1385.88 849.327 L1352.36 849.327 L1318.84 849.327 L1285.32 849.327 L1251.79 849.327 L1218.27 849.327 L1184.75 849.327 L1151.23 849.327 L1117.7 849.327 L1084.18 849.327 L1050.66 849.327 L1017.14 849.327 L983.615 849.327 L950.093 849.327 L916.57 849.327 L883.048 849.327 L849.526 849.327 L816.003 849.327 L782.481 849.327 L748.959 849.327 L715.436 849.327 L681.914 849.327 L648.392 849.327 L614.869 849.327 L581.347 849.327 L547.825 849.327 L514.302 849.327 L480.78 849.327 L447.258 849.327 L413.735 849.327 L380.213 849.327 L346.691 849.327 L313.168 849.327  Z" fill="#66c5cc" fill-rule="evenodd" fill-opacity="0.5"/>
<polyline clip-path="url(#clip302)" style="stroke:#66c5cc; stroke-linecap:round; stroke-linejoin:round; stroke-width:12.0022; stroke-opacity:1; fill:none" points="313.168,849.327 346.691,849.327 380.213,849.327 413.735,849.327 447.258,849.327 480.78,849.327 514.302,849.327 547.825,849.327 581.347,849.327 614.869,849.327 648.392,849.327 681.914,849.327 715.436,849.327 748.959,849.327 782.481,849.327 816.003,849.327 849.526,849.327 883.048,849.327 916.57,849.327 950.093,849.327 983.615,849.327 1017.14,849.327 1050.66,849.327 1084.18,849.327 1117.7,849.327 1151.23,849.327 1184.75,849.327 1218.27,849.327 1251.79,849.327 1285.32,849.327 1318.84,849.327 1352.36,849.327 1385.88,849.327 1419.41,849.327 1452.93,849.327 1486.45,849.327 1519.97,849.327 1553.49,849.327 1587.02,849.327 1620.54,849.327 "/>
</svg>
