<?xml version="1.0" encoding="utf-8"?>
<svg xmlns="http://www.w3.org/2000/svg" xmlns:xlink="http://www.w3.org/1999/xlink" width="426.75" height="263.5" viewBox="0 0 1707 1054">
<defs>
  <clipPath id="clip660">
    <rect x="0" y="0" width="1707" height="1054"/>
  </clipPath>
</defs>
<path clip-path="url(#clip660)" d="M0 1054 L1707 1054 L1707 0 L0 0  Z" fill="#ffffff" fill-rule="evenodd" fill-opacity="1"/>
<defs>
  <clipPath id="clip661">
    <rect x="341" y="0" width="1196" height="1054"/>
  </clipPath>
</defs>
<path clip-path="url(#clip660)" d="M262.739 872.688 L1659.76 872.688 L1659.76 47.2528 L262.739 47.2528  Z" fill="#ffffff" fill-rule="evenodd" fill-opacity="1"/>
<defs>
  <clipPath id="clip662">
    <rect x="262" y="47" width="1398" height="826"/>
  </clipPath>
</defs>
<polyline clip-path="url(#clip662)" style="stroke:#000000; stroke-linecap:round; stroke-linejoin:round; stroke-width:2.00037; stroke-opacity:0.1; fill:none" points="302.278,872.688 302.278,47.2528 "/>
<polyline clip-path="url(#clip662)" style="stroke:#000000; stroke-linecap:round; stroke-linejoin:round; stroke-width:2.00037; stroke-opacity:0.1; fill:none" points="631.764,872.688 631.764,47.2528 "/>
<polyline clip-path="url(#clip662)" style="stroke:#000000; stroke-linecap:round; stroke-linejoin:round; stroke-width:2.00037; stroke-opacity:0.1; fill:none" points="961.25,872.688 961.25,47.2528 "/>
<polyline clip-path="url(#clip662)" style="stroke:#000000; stroke-linecap:round; stroke-linejoin:round; stroke-width:2.00037; stroke-opacity:0.1; fill:none" points="1290.74,872.688 1290.74,47.2528 "/>
<polyline clip-path="url(#clip662)" style="stroke:#000000; stroke-linecap:round; stroke-linejoin:round; stroke-width:2.00037; stroke-opacity:0.1; fill:none" points="1620.22,872.688 1620.22,47.2528 "/>
<polyline clip-path="url(#clip660)" style="stroke:#000000; stroke-linecap:round; stroke-linejoin:round; stroke-width:4.00074; stroke-opacity:1; fill:none" points="262.739,872.688 1659.76,872.688 "/>
<polyline clip-path="url(#clip660)" style="stroke:#000000; stroke-linecap:round; stroke-linejoin:round; stroke-width:4.00074; stroke-opacity:1; fill:none" points="262.739,47.2528 1659.76,47.2528 "/>
<polyline clip-path="url(#clip660)" style="stroke:#000000; stroke-linecap:round; stroke-linejoin:round; stroke-width:4.00074; stroke-opacity:1; fill:none" points="302.278,872.688 302.278,853.787 "/>
<polyline clip-path="url(#clip660)" style="stroke:#000000; stroke-linecap:round; stroke-linejoin:round; stroke-width:4.00074; stroke-opacity:1; fill:none" points="631.764,872.688 631.764,853.787 "/>
<polyline clip-path="url(#clip660)" style="stroke:#000000; stroke-linecap:round; stroke-linejoin:round; stroke-width:4.00074; stroke-opacity:1; fill:none" points="961.25,872.688 961.25,853.787 "/>
<polyline clip-path="url(#clip660)" style="stroke:#000000; stroke-linecap:round; stroke-linejoin:round; stroke-width:4.00074; stroke-opacity:1; fill:none" points="1290.74,872.688 1290.74,853.787 "/>
<polyline clip-path="url(#clip660)" style="stroke:#000000; stroke-linecap:round; stroke-linejoin:round; stroke-width:4.00074; stroke-opacity:1; fill:none" points="1620.22,872.688 1620.22,853.787 "/>
<path clip-path="url(#clip660)" d="M260.587 923.507 Q260.587 913.281 263.168 907.709 Q266.768 899.419 275.259 899.419 Q277.059 899.419 278.927 899.929 Q280.829 900.405 283.207 902.273 Q285.618 904.142 287.079 907.199 Q289.864 913.111 289.864 923.507 Q289.864 933.665 287.283 939.202 Q283.513 947.288 275.191 947.288 Q272.067 947.288 268.874 945.691 Q265.715 944.094 263.712 940.255 Q260.587 934.514 260.587 923.507 M266.361 922.657 Q266.361 933.155 267.108 937.334 Q267.957 941.852 270.267 943.823 Q272.61 945.759 275.191 945.759 Q277.976 945.759 280.286 943.687 Q282.629 941.58 283.343 937.062 Q284.124 932.611 284.09 922.657 Q284.09 912.975 283.411 909.102 Q282.494 904.583 280.048 902.783 Q277.637 900.948 275.191 900.948 Q274.274 900.948 273.289 901.22 Q272.338 901.492 270.946 902.273 Q269.553 903.055 268.467 904.991 Q267.414 906.928 266.904 909.849 Q266.361 913.62 266.361 922.657 Z" fill="#000000" fill-rule="evenodd" fill-opacity="1" /><path clip-path="url(#clip660)" d="M299.611 944.638 Q298.559 943.517 298.559 942.056 Q298.559 940.595 299.611 939.542 Q300.664 938.455 302.261 938.455 Q303.789 938.455 304.808 939.474 Q305.861 940.459 305.861 942.09 Q305.861 943.687 304.74 944.74 Q303.653 945.759 302.261 945.759 Q300.664 945.759 299.611 944.638 Z" fill="#000000" fill-rule="evenodd" fill-opacity="1" /><path clip-path="url(#clip660)" d="M314.691 923.507 Q314.691 913.281 317.273 907.709 Q320.873 899.419 329.364 899.419 Q331.164 899.419 333.032 899.929 Q334.934 900.405 337.311 902.273 Q339.723 904.142 341.183 907.199 Q343.968 913.111 343.968 923.507 Q343.968 933.665 341.387 939.202 Q337.617 947.288 329.296 947.288 Q326.171 947.288 322.978 945.691 Q319.82 944.094 317.816 940.255 Q314.691 934.514 314.691 923.507 M320.465 922.657 Q320.465 933.155 321.212 937.334 Q322.061 941.852 324.371 943.823 Q326.715 945.759 329.296 945.759 Q332.081 945.759 334.39 943.687 Q336.734 941.58 337.447 937.062 Q338.228 932.611 338.194 922.657 Q338.194 912.975 337.515 909.102 Q336.598 904.583 334.153 902.783 Q331.741 900.948 329.296 900.948 Q328.379 900.948 327.394 901.22 Q326.443 901.492 325.05 902.273 Q323.658 903.055 322.571 904.991 Q321.518 906.928 321.009 909.849 Q320.465 913.62 320.465 922.657 Z" fill="#000000" fill-rule="evenodd" fill-opacity="1" /><path clip-path="url(#clip660)" d="M590.447 923.507 Q590.447 913.281 593.028 907.709 Q596.628 899.419 605.119 899.419 Q606.919 899.419 608.787 899.929 Q610.689 900.405 613.067 902.273 Q615.478 904.142 616.938 907.199 Q619.724 913.111 619.724 923.507 Q619.724 933.665 617.142 939.202 Q613.372 947.288 605.051 947.288 Q601.926 947.288 598.734 945.691 Q595.575 944.094 593.571 940.255 Q590.447 934.514 590.447 923.507 M596.221 922.657 Q596.221 933.155 596.968 937.334 Q597.817 941.852 600.126 943.823 Q602.47 945.759 605.051 945.759 Q607.836 945.759 610.146 943.687 Q612.489 941.58 613.202 937.062 Q613.984 932.611 613.95 922.657 Q613.95 912.975 613.27 909.102 Q612.353 904.583 609.908 902.783 Q607.497 900.948 605.051 900.948 Q604.134 900.948 603.149 901.22 Q602.198 901.492 600.806 902.273 Q599.413 903.055 598.326 904.991 Q597.273 906.928 596.764 909.849 Q596.221 913.62 596.221 922.657 Z" fill="#000000" fill-rule="evenodd" fill-opacity="1" /><path clip-path="url(#clip660)" d="M629.471 944.638 Q628.418 943.517 628.418 942.056 Q628.418 940.595 629.471 939.542 Q630.524 938.455 632.12 938.455 Q633.649 938.455 634.668 939.474 Q635.72 940.459 635.72 942.09 Q635.72 943.687 634.6 944.74 Q633.513 945.759 632.12 945.759 Q630.524 945.759 629.471 944.638 Z" fill="#000000" fill-rule="evenodd" fill-opacity="1" /><path clip-path="url(#clip660)" d="M645.298 934.548 Q645.298 932.476 646.419 931.694 Q647.54 930.879 648.729 930.879 Q650.325 930.879 651.242 931.898 Q652.193 932.883 652.193 934.276 Q652.193 935.669 651.242 936.688 Q650.325 937.674 648.729 937.674 Q647.947 937.674 647.54 937.538 Q648.457 940.731 651.242 943.041 Q654.061 945.351 657.763 945.351 Q662.416 945.351 665.201 940.833 Q666.865 937.911 666.865 931.287 Q666.865 925.443 665.609 922.521 Q663.673 918.071 659.699 918.071 Q654.061 918.071 650.732 922.929 Q650.325 923.541 649.849 923.575 Q649.17 923.575 649 923.201 Q648.864 922.793 648.864 921.74 L648.864 901.152 Q648.864 899.487 649.544 899.487 Q649.815 899.487 650.393 899.691 Q654.774 901.628 659.631 901.662 Q664.624 901.662 669.107 899.623 Q669.447 899.419 669.65 899.419 Q670.33 899.419 670.364 900.201 Q670.364 900.473 669.786 901.288 Q669.243 902.069 668.054 903.123 Q666.865 904.142 665.337 905.127 Q663.809 906.112 661.567 906.792 Q659.359 907.437 656.914 907.437 Q653.993 907.437 651.004 906.52 L651.004 920.075 Q654.604 916.542 659.835 916.542 Q665.405 916.542 669.243 921.027 Q673.081 925.511 673.081 931.762 Q673.081 938.319 668.53 942.803 Q664.012 947.288 657.899 947.288 Q652.329 947.288 648.797 943.313 Q645.298 939.338 645.298 934.548 Z" fill="#000000" fill-rule="evenodd" fill-opacity="1" /><path clip-path="url(#clip660)" d="M921.291 906.044 L921.291 903.87 Q929.647 903.87 933.96 899.419 Q935.149 899.419 935.352 899.691 Q935.556 899.963 935.556 901.22 L935.556 940.255 Q935.556 942.328 936.575 942.973 Q937.594 943.619 942.043 943.619 L944.251 943.619 L944.251 945.759 Q941.806 945.555 932.975 945.555 Q924.144 945.555 921.733 945.759 L921.733 943.619 L923.941 943.619 Q928.322 943.619 929.375 943.007 Q930.428 942.362 930.428 940.255 L930.428 904.21 Q926.794 906.044 921.291 906.044 Z" fill="#000000" fill-rule="evenodd" fill-opacity="1" /><path clip-path="url(#clip660)" d="M956.852 944.638 Q955.799 943.517 955.799 942.056 Q955.799 940.595 956.852 939.542 Q957.904 938.455 959.501 938.455 Q961.029 938.455 962.048 939.474 Q963.101 940.459 963.101 942.09 Q963.101 943.687 961.98 944.74 Q960.893 945.759 959.501 945.759 Q957.904 945.759 956.852 944.638 Z" fill="#000000" fill-rule="evenodd" fill-opacity="1" /><path clip-path="url(#clip660)" d="M971.931 923.507 Q971.931 913.281 974.513 907.709 Q978.113 899.419 986.604 899.419 Q988.404 899.419 990.272 899.929 Q992.174 900.405 994.551 902.273 Q996.963 904.142 998.423 907.199 Q1001.21 913.111 1001.21 923.507 Q1001.21 933.665 998.627 939.202 Q994.857 947.288 986.536 947.288 Q983.411 947.288 980.219 945.691 Q977.06 944.094 975.056 940.255 Q971.931 934.514 971.931 923.507 M977.705 922.657 Q977.705 933.155 978.453 937.334 Q979.302 941.852 981.611 943.823 Q983.955 945.759 986.536 945.759 Q989.321 945.759 991.63 943.687 Q993.974 941.58 994.687 937.062 Q995.468 932.611 995.434 922.657 Q995.434 912.975 994.755 909.102 Q993.838 904.583 991.393 902.783 Q988.981 900.948 986.536 900.948 Q985.619 900.948 984.634 901.22 Q983.683 901.492 982.29 902.273 Q980.898 903.055 979.811 904.991 Q978.758 906.928 978.249 909.849 Q977.705 913.62 977.705 922.657 Z" fill="#000000" fill-rule="evenodd" fill-opacity="1" /><path clip-path="url(#clip660)" d="M1251.15 906.044 L1251.15 903.87 Q1259.51 903.87 1263.82 899.419 Q1265.01 899.419 1265.21 899.691 Q1265.42 899.963 1265.42 901.22 L1265.42 940.255 Q1265.42 942.328 1266.43 942.973 Q1267.45 943.619 1271.9 943.619 L1274.11 943.619 L1274.11 945.759 Q1271.67 945.555 1262.83 945.555 Q1254 945.555 1251.59 945.759 L1251.59 943.619 L1253.8 943.619 Q1258.18 943.619 1259.23 943.007 Q1260.29 942.362 1260.29 940.255 L1260.29 904.21 Q1256.65 906.044 1251.15 906.044 Z" fill="#000000" fill-rule="evenodd" fill-opacity="1" /><path clip-path="url(#clip660)" d="M1286.71 944.638 Q1285.66 943.517 1285.66 942.056 Q1285.66 940.595 1286.71 939.542 Q1287.76 938.455 1289.36 938.455 Q1290.89 938.455 1291.91 939.474 Q1292.96 940.459 1292.96 942.09 Q1292.96 943.687 1291.84 944.74 Q1290.75 945.759 1289.36 945.759 Q1287.76 945.759 1286.71 944.638 Z" fill="#000000" fill-rule="evenodd" fill-opacity="1" /><path clip-path="url(#clip660)" d="M1302.54 934.548 Q1302.54 932.476 1303.66 931.694 Q1304.78 930.879 1305.97 930.879 Q1307.57 930.879 1308.48 931.898 Q1309.43 932.883 1309.43 934.276 Q1309.43 935.669 1308.48 936.688 Q1307.57 937.674 1305.97 937.674 Q1305.19 937.674 1304.78 937.538 Q1305.7 940.731 1308.48 943.041 Q1311.3 945.351 1315 945.351 Q1319.66 945.351 1322.44 940.833 Q1324.11 937.911 1324.11 931.287 Q1324.11 925.443 1322.85 922.521 Q1320.91 918.071 1316.94 918.071 Q1311.3 918.071 1307.97 922.929 Q1307.57 923.541 1307.09 923.575 Q1306.41 923.575 1306.24 923.201 Q1306.1 922.793 1306.1 921.74 L1306.1 901.152 Q1306.1 899.487 1306.78 899.487 Q1307.06 899.487 1307.63 899.691 Q1312.01 901.628 1316.87 901.662 Q1321.86 901.662 1326.35 899.623 Q1326.69 899.419 1326.89 899.419 Q1327.57 899.419 1327.6 900.201 Q1327.6 900.473 1327.03 901.288 Q1326.48 902.069 1325.29 903.123 Q1324.11 904.142 1322.58 905.127 Q1321.05 906.112 1318.81 906.792 Q1316.6 907.437 1314.15 907.437 Q1311.23 907.437 1308.24 906.52 L1308.24 920.075 Q1311.84 916.542 1317.07 916.542 Q1322.65 916.542 1326.48 921.027 Q1330.32 925.511 1330.32 931.762 Q1330.32 938.319 1325.77 942.803 Q1321.25 947.288 1315.14 947.288 Q1309.57 947.288 1306.04 943.313 Q1302.54 939.338 1302.54 934.548 Z" fill="#000000" fill-rule="evenodd" fill-opacity="1" /><path clip-path="url(#clip660)" d="M1578.91 945.759 Q1578.91 944.502 1579.01 944.128 Q1579.14 943.755 1579.69 943.177 L1593.03 928.297 Q1600.34 920.075 1600.34 912.907 Q1600.34 908.253 1597.89 904.923 Q1595.48 901.594 1591.03 901.594 Q1587.97 901.594 1585.39 903.462 Q1582.81 905.331 1581.62 908.66 Q1581.83 908.592 1582.54 908.592 Q1584.27 908.592 1585.22 909.679 Q1586.21 910.767 1586.21 912.227 Q1586.21 914.096 1584.98 915.013 Q1583.8 915.897 1582.61 915.897 Q1582.13 915.897 1581.49 915.795 Q1580.88 915.693 1579.89 914.741 Q1578.91 913.756 1578.91 912.024 Q1578.91 907.165 1582.57 903.292 Q1586.28 899.419 1591.91 899.419 Q1598.3 899.419 1602.48 903.224 Q1606.69 906.996 1606.69 912.907 Q1606.69 914.979 1606.04 916.882 Q1605.43 918.75 1604.58 920.211 Q1603.77 921.672 1601.53 924.016 Q1599.28 926.36 1597.48 928.025 Q1595.68 929.69 1591.64 933.223 L1584.27 940.391 L1596.8 940.391 Q1602.92 940.391 1603.39 939.848 Q1604.07 938.863 1604.92 933.665 L1606.69 933.665 L1604.72 945.759 L1578.91 945.759 Z" fill="#000000" fill-rule="evenodd" fill-opacity="1" /><path clip-path="url(#clip660)" d="M1617.18 944.638 Q1616.13 943.517 1616.13 942.056 Q1616.13 940.595 1617.18 939.542 Q1618.24 938.455 1619.83 938.455 Q1621.36 938.455 1622.38 939.474 Q1623.43 940.459 1623.43 942.09 Q1623.43 943.687 1622.31 944.74 Q1621.22 945.759 1619.83 945.759 Q1618.24 945.759 1617.18 944.638 Z" fill="#000000" fill-rule="evenodd" fill-opacity="1" /><path clip-path="url(#clip660)" d="M1632.26 923.507 Q1632.26 913.281 1634.84 907.709 Q1638.44 899.419 1646.93 899.419 Q1648.73 899.419 1650.6 899.929 Q1652.5 900.405 1654.88 902.273 Q1657.29 904.142 1658.75 907.199 Q1661.54 913.111 1661.54 923.507 Q1661.54 933.665 1658.96 939.202 Q1655.19 947.288 1646.87 947.288 Q1643.74 947.288 1640.55 945.691 Q1637.39 944.094 1635.39 940.255 Q1632.26 934.514 1632.26 923.507 M1638.04 922.657 Q1638.04 933.155 1638.78 937.334 Q1639.63 941.852 1641.94 943.823 Q1644.29 945.759 1646.87 945.759 Q1649.65 945.759 1651.96 943.687 Q1654.3 941.58 1655.02 937.062 Q1655.8 932.611 1655.77 922.657 Q1655.77 912.975 1655.09 909.102 Q1654.17 904.583 1651.72 902.783 Q1649.31 900.948 1646.87 900.948 Q1645.95 900.948 1644.96 901.22 Q1644.01 901.492 1642.62 902.273 Q1641.23 903.055 1640.14 904.991 Q1639.09 906.928 1638.58 909.849 Q1638.04 913.62 1638.04 922.657 Z" fill="#000000" fill-rule="evenodd" fill-opacity="1" /><path clip-path="url(#clip660)" d="M877.402 997.494 L878.847 980.445 L925.199 980.445 L926.644 997.494 L924.754 997.494 Q924.458 994.084 924.161 992.12 Q923.902 990.156 923.235 988.303 Q922.605 986.412 921.79 985.523 Q921.012 984.596 919.493 983.892 Q917.974 983.151 916.01 982.966 Q914.046 982.78 911.082 982.78 Q907.599 982.78 906.747 982.929 Q905.821 983.151 905.599 983.818 Q905.376 984.448 905.376 985.819 L905.376 1025.81 Q905.376 1027.33 905.673 1027.96 Q906.006 1028.55 907.748 1029.03 Q909.489 1029.48 913.342 1029.48 L916.381 1029.48 L916.381 1031.81 Q913.268 1031.59 901.968 1031.59 Q890.741 1031.59 887.629 1031.81 L887.629 1029.48 L890.667 1029.48 Q894.52 1029.48 896.262 1029.03 Q898.04 1028.55 898.336 1027.96 Q898.633 1027.33 898.633 1025.81 L898.633 985.819 Q898.633 984.745 898.559 984.3 Q898.485 983.855 898.151 983.485 Q897.818 983.077 897.04 982.929 Q896.299 982.78 892.964 982.78 Q890 982.78 887.999 982.966 Q886.035 983.151 884.516 983.892 Q882.997 984.596 882.182 985.523 Q881.404 986.412 880.737 988.303 Q880.107 990.156 879.848 992.12 Q879.588 994.084 879.292 997.494 L877.402 997.494 Z" fill="#000000" fill-rule="evenodd" fill-opacity="1" /><path clip-path="url(#clip660)" d="M931.942 1031.81 L931.942 1029.48 Q935.981 1029.48 936.907 1029 Q937.833 1028.48 937.833 1026.03 L937.833 1005.61 Q937.833 1002.79 936.87 1002.13 Q935.944 1001.46 932.239 1001.46 L932.239 999.088 L942.835 998.272 L942.835 1026.11 Q942.835 1028.37 943.65 1028.92 Q944.466 1029.48 948.171 1029.48 L948.171 1031.81 Q940.427 1031.59 940.279 1031.59 Q939.241 1031.59 931.942 1031.81 M935.129 985.041 Q935.129 983.522 936.277 982.299 Q937.463 981.038 939.13 981.038 Q940.797 981.038 941.983 982.187 Q943.169 983.299 943.169 985.078 Q943.169 986.82 941.983 987.969 Q940.797 989.081 939.13 989.081 Q937.389 989.081 936.24 987.858 Q935.129 986.635 935.129 985.041 Z" fill="#000000" fill-rule="evenodd" fill-opacity="1" /><path clip-path="url(#clip660)" d="M952.876 1031.81 L952.876 1029.48 Q956.915 1029.48 957.841 1029 Q958.767 1028.48 958.767 1026.03 L958.767 1005.68 Q958.767 1002.87 957.767 1002.16 Q956.804 1001.46 952.876 1001.46 L952.876 999.088 L963.547 998.272 L963.547 1006.24 Q967.104 998.272 974.774 998.272 Q983.666 998.272 984.889 1005.68 Q986.185 1002.79 988.89 1000.53 Q991.632 998.272 995.893 998.272 Q1001.6 998.272 1003.86 1001.09 Q1005.53 1002.98 1005.86 1005.09 Q1006.19 1007.2 1006.19 1012.69 L1006.19 1027.18 Q1006.27 1028.77 1007.49 1029.14 Q1008.71 1029.48 1012.12 1029.48 L1012.12 1031.81 Q1004.38 1031.59 1003.64 1031.59 Q1003.04 1031.59 995.041 1031.81 L995.041 1029.48 Q999.079 1029.48 1000.01 1029 Q1000.97 1028.48 1000.97 1026.03 L1000.97 1008.35 Q1000.97 1004.5 999.783 1002.24 Q998.598 999.94 995.337 999.94 Q991.41 999.94 988.26 1003.24 Q985.111 1006.54 985.111 1012.1 L985.111 1026.03 Q985.111 1028.48 986.037 1029 Q987.001 1029.48 991.039 1029.48 L991.039 1031.81 Q983.295 1031.59 982.517 1031.59 Q981.925 1031.59 973.958 1031.81 L973.958 1029.48 Q977.997 1029.48 978.923 1029 Q979.887 1028.48 979.887 1026.03 L979.887 1008.35 Q979.887 1004.5 978.701 1002.24 Q977.515 999.94 974.255 999.94 Q970.327 999.94 967.178 1003.24 Q964.029 1006.54 964.029 1012.1 L964.029 1026.03 Q964.029 1028.48 964.955 1029 Q965.918 1029.48 969.92 1029.48 L969.92 1031.81 Q962.176 1031.59 961.435 1031.59 Q960.842 1031.59 952.876 1031.81 Z" fill="#000000" fill-rule="evenodd" fill-opacity="1" /><path clip-path="url(#clip660)" d="M1015.72 1015.1 Q1015.72 1007.95 1020.31 1002.87 Q1024.9 997.79 1031.5 997.79 Q1038.17 997.79 1041.61 1002.13 Q1045.1 1006.46 1045.1 1012.69 Q1045.1 1013.84 1044.8 1014.06 Q1044.5 1014.28 1043.21 1014.28 L1022.01 1014.28 Q1022.01 1022.03 1024.31 1025.66 Q1027.5 1030.74 1032.87 1030.74 Q1033.61 1030.74 1034.5 1030.59 Q1035.39 1030.44 1037.21 1029.81 Q1039.02 1029.14 1040.61 1027.4 Q1042.21 1025.66 1043.13 1022.92 Q1043.36 1021.84 1044.1 1021.88 Q1045.1 1021.88 1045.1 1022.77 Q1045.1 1023.44 1044.36 1024.96 Q1043.65 1026.44 1042.28 1028.22 Q1040.91 1030 1038.24 1031.33 Q1035.61 1032.67 1032.43 1032.67 Q1025.76 1032.67 1020.72 1027.63 Q1015.72 1022.55 1015.72 1015.1 M1022.09 1012.69 L1040.1 1012.69 Q1040.1 1011.1 1039.8 1009.32 Q1039.54 1007.54 1038.72 1005.09 Q1037.95 1002.61 1036.09 1001.05 Q1034.24 999.495 1031.5 999.495 Q1030.28 999.495 1028.94 1000.01 Q1027.65 1000.53 1026.05 1001.79 Q1024.46 1003.05 1023.35 1005.91 Q1022.24 1008.76 1022.09 1012.69 Z" fill="#000000" fill-rule="evenodd" fill-opacity="1" /><polyline clip-path="url(#clip662)" style="stroke:#000000; stroke-linecap:round; stroke-linejoin:round; stroke-width:2.00037; stroke-opacity:0.1; fill:none" points="262.739,775.125 1659.76,775.125 "/>
<polyline clip-path="url(#clip662)" style="stroke:#000000; stroke-linecap:round; stroke-linejoin:round; stroke-width:2.00037; stroke-opacity:0.1; fill:none" points="262.739,634.223 1659.76,634.223 "/>
<polyline clip-path="url(#clip662)" style="stroke:#000000; stroke-linecap:round; stroke-linejoin:round; stroke-width:2.00037; stroke-opacity:0.1; fill:none" points="262.739,493.321 1659.76,493.321 "/>
<polyline clip-path="url(#clip662)" style="stroke:#000000; stroke-linecap:round; stroke-linejoin:round; stroke-width:2.00037; stroke-opacity:0.1; fill:none" points="262.739,352.418 1659.76,352.418 "/>
<polyline clip-path="url(#clip662)" style="stroke:#000000; stroke-linecap:round; stroke-linejoin:round; stroke-width:2.00037; stroke-opacity:0.1; fill:none" points="262.739,211.516 1659.76,211.516 "/>
<polyline clip-path="url(#clip662)" style="stroke:#000000; stroke-linecap:round; stroke-linejoin:round; stroke-width:2.00037; stroke-opacity:0.1; fill:none" points="262.739,70.6142 1659.76,70.6142 "/>
<polyline clip-path="url(#clip660)" style="stroke:#000000; stroke-linecap:round; stroke-linejoin:round; stroke-width:4.00074; stroke-opacity:1; fill:none" points="262.739,872.688 262.739,47.2528 "/>
<polyline clip-path="url(#clip660)" style="stroke:#000000; stroke-linecap:round; stroke-linejoin:round; stroke-width:4.00074; stroke-opacity:1; fill:none" points="1659.76,872.688 1659.76,47.2528 "/>
<polyline clip-path="url(#clip660)" style="stroke:#000000; stroke-linecap:round; stroke-linejoin:round; stroke-width:4.00074; stroke-opacity:1; fill:none" points="262.739,775.125 281.635,775.125 "/>
<polyline clip-path="url(#clip660)" style="stroke:#000000; stroke-linecap:round; stroke-linejoin:round; stroke-width:4.00074; stroke-opacity:1; fill:none" points="262.739,634.223 281.635,634.223 "/>
<polyline clip-path="url(#clip660)" style="stroke:#000000; stroke-linecap:round; stroke-linejoin:round; stroke-width:4.00074; stroke-opacity:1; fill:none" points="262.739,493.321 281.635,493.321 "/>
<polyline clip-path="url(#clip660)" style="stroke:#000000; stroke-linecap:round; stroke-linejoin:round; stroke-width:4.00074; stroke-opacity:1; fill:none" points="262.739,352.418 281.635,352.418 "/>
<polyline clip-path="url(#clip660)" style="stroke:#000000; stroke-linecap:round; stroke-linejoin:round; stroke-width:4.00074; stroke-opacity:1; fill:none" points="262.739,211.516 281.635,211.516 "/>
<polyline clip-path="url(#clip660)" style="stroke:#000000; stroke-linecap:round; stroke-linejoin:round; stroke-width:4.00074; stroke-opacity:1; fill:none" points="262.739,70.6142 281.635,70.6142 "/>
<path clip-path="url(#clip660)" d="M118.974 776.637 Q118.974 766.411 121.555 760.839 Q125.155 752.55 133.646 752.55 Q135.447 752.55 137.315 753.059 Q139.216 753.535 141.594 755.403 Q144.005 757.272 145.466 760.329 Q148.251 766.241 148.251 776.637 Q148.251 786.795 145.67 792.332 Q141.9 800.418 133.578 800.418 Q130.454 800.418 127.261 798.821 Q124.103 797.225 122.099 793.386 Q118.974 787.644 118.974 776.637 M124.748 775.787 Q124.748 786.285 125.495 790.464 Q126.344 794.982 128.654 796.953 Q130.997 798.889 133.578 798.889 Q136.364 798.889 138.673 796.817 Q141.017 794.711 141.73 790.192 Q142.511 785.742 142.477 775.787 Q142.477 766.105 141.798 762.232 Q140.881 757.714 138.435 755.913 Q136.024 754.078 133.578 754.078 Q132.661 754.078 131.677 754.35 Q130.726 754.622 129.333 755.403 Q127.94 756.185 126.854 758.121 Q125.801 760.058 125.291 762.979 Q124.748 766.75 124.748 775.787 Z" fill="#000000" fill-rule="evenodd" fill-opacity="1" /><path clip-path="url(#clip660)" d="M157.998 797.768 Q156.946 796.647 156.946 795.186 Q156.946 793.725 157.998 792.672 Q159.051 791.585 160.648 791.585 Q162.176 791.585 163.195 792.604 Q164.248 793.589 164.248 795.22 Q164.248 796.817 163.127 797.87 Q162.04 798.889 160.648 798.889 Q159.051 798.889 157.998 797.768 Z" fill="#000000" fill-rule="evenodd" fill-opacity="1" /><path clip-path="url(#clip660)" d="M173.282 768.211 Q173.282 764.508 174.369 761.994 Q175.456 759.446 177.731 756.932 Q181.909 752.55 187.955 752.55 Q190.536 752.55 192.811 753.637 Q195.121 754.724 197.295 757.204 Q199.502 759.65 200.827 764.508 Q202.151 769.332 202.151 775.991 Q202.151 786.761 196.921 793.589 Q191.725 800.418 184.694 800.418 Q180.245 800.418 177.63 798.414 Q175.014 796.375 175.014 792.91 Q175.014 791.109 176.033 790.362 Q177.052 789.581 178.207 789.581 Q179.464 789.581 180.449 790.43 Q181.434 791.245 181.434 792.774 Q181.434 794.031 180.618 795.016 Q179.837 795.968 177.799 795.968 Q179.803 798.482 184.626 798.482 Q186.358 798.482 188.09 797.7 Q189.823 796.885 191.691 794.948 Q193.593 792.978 194.747 788.867 Q195.902 784.756 195.902 778.981 L195.902 776.773 Q193.117 783.737 187.207 783.737 Q181.366 783.737 177.324 779.253 Q173.282 774.768 173.282 768.211 M179.532 768.279 Q179.532 775.176 180.788 777.724 Q182.928 782.106 187.275 782.106 Q191.521 782.106 193.627 778.335 Q195.766 774.53 195.766 769.604 Q195.766 762.776 194.645 759.786 Q192.574 754.282 187.955 754.282 Q183.369 754.282 180.992 758.665 Q179.532 761.247 179.532 768.279 Z" fill="#000000" fill-rule="evenodd" fill-opacity="1" /><path clip-path="url(#clip660)" d="M207.857 776.637 Q207.857 766.411 210.439 760.839 Q214.039 752.55 222.53 752.55 Q224.33 752.55 226.198 753.059 Q228.1 753.535 230.477 755.403 Q232.889 757.272 234.349 760.329 Q237.134 766.241 237.134 776.637 Q237.134 786.795 234.553 792.332 Q230.783 800.418 222.462 800.418 Q219.337 800.418 216.145 798.821 Q212.986 797.225 210.982 793.386 Q207.857 787.644 207.857 776.637 M213.631 775.787 Q213.631 786.285 214.378 790.464 Q215.228 794.982 217.537 796.953 Q219.881 798.889 222.462 798.889 Q225.247 798.889 227.556 796.817 Q229.9 794.711 230.613 790.192 Q231.394 785.742 231.36 775.787 Q231.36 766.105 230.681 762.232 Q229.764 757.714 227.319 755.913 Q224.907 754.078 222.462 754.078 Q221.545 754.078 220.56 754.35 Q219.609 754.622 218.216 755.403 Q216.824 756.185 215.737 758.121 Q214.684 760.058 214.175 762.979 Q213.631 766.75 213.631 775.787 Z" fill="#000000" fill-rule="evenodd" fill-opacity="1" /><path clip-path="url(#clip660)" d="M119.721 635.735 Q119.721 625.509 122.303 619.937 Q125.903 611.647 134.394 611.647 Q136.194 611.647 138.062 612.157 Q139.964 612.633 142.341 614.501 Q144.753 616.37 146.213 619.427 Q148.998 625.339 148.998 635.735 Q148.998 645.893 146.417 651.43 Q142.647 659.516 134.326 659.516 Q131.201 659.516 128.008 657.919 Q124.85 656.322 122.846 652.483 Q119.721 646.742 119.721 635.735 M125.495 634.885 Q125.495 645.383 126.242 649.562 Q127.091 654.08 129.401 656.051 Q131.744 657.987 134.326 657.987 Q137.111 657.987 139.42 655.915 Q141.764 653.808 142.477 649.29 Q143.258 644.839 143.224 634.885 Q143.224 625.203 142.545 621.33 Q141.628 616.811 139.183 615.011 Q136.771 613.176 134.326 613.176 Q133.409 613.176 132.424 613.448 Q131.473 613.72 130.08 614.501 Q128.688 615.283 127.601 617.219 Q126.548 619.156 126.039 622.077 Q125.495 625.848 125.495 634.885 Z" fill="#000000" fill-rule="evenodd" fill-opacity="1" /><path clip-path="url(#clip660)" d="M158.746 656.866 Q157.693 655.745 157.693 654.284 Q157.693 652.823 158.746 651.77 Q159.799 650.683 161.395 650.683 Q162.923 650.683 163.942 651.702 Q164.995 652.687 164.995 654.318 Q164.995 655.915 163.874 656.968 Q162.787 657.987 161.395 657.987 Q159.799 657.987 158.746 656.866 Z" fill="#000000" fill-rule="evenodd" fill-opacity="1" /><path clip-path="url(#clip660)" d="M174.029 627.309 Q174.029 623.606 175.116 621.092 Q176.203 618.544 178.479 616.03 Q182.656 611.647 188.702 611.647 Q191.283 611.647 193.559 612.735 Q195.868 613.822 198.042 616.302 Q200.249 618.748 201.574 623.606 Q202.899 628.43 202.899 635.089 Q202.899 645.859 197.668 652.687 Q192.472 659.516 185.441 659.516 Q180.992 659.516 178.377 657.512 Q175.762 655.473 175.762 652.008 Q175.762 650.207 176.78 649.46 Q177.799 648.678 178.954 648.678 Q180.211 648.678 181.196 649.528 Q182.181 650.343 182.181 651.872 Q182.181 653.129 181.366 654.114 Q180.584 655.065 178.547 655.065 Q180.55 657.579 185.373 657.579 Q187.105 657.579 188.838 656.798 Q190.57 655.983 192.438 654.046 Q194.34 652.076 195.495 647.965 Q196.649 643.854 196.649 638.079 L196.649 635.87 Q193.864 642.835 187.955 642.835 Q182.113 642.835 178.071 638.351 Q174.029 633.866 174.029 627.309 M180.279 627.377 Q180.279 634.274 181.535 636.822 Q183.675 641.204 188.023 641.204 Q192.268 641.204 194.374 637.433 Q196.513 633.628 196.513 628.702 Q196.513 621.873 195.393 618.884 Q193.321 613.38 188.702 613.38 Q184.117 613.38 181.739 617.763 Q180.279 620.345 180.279 627.377 Z" fill="#000000" fill-rule="evenodd" fill-opacity="1" /><path clip-path="url(#clip660)" d="M209.352 657.987 Q209.352 656.73 209.454 656.356 Q209.59 655.983 210.133 655.405 L223.481 640.525 Q230.783 632.303 230.783 625.135 Q230.783 620.481 228.338 617.151 Q225.926 613.822 221.477 613.822 Q218.42 613.822 215.839 615.69 Q213.258 617.559 212.069 620.888 Q212.273 620.82 212.986 620.82 Q214.718 620.82 215.669 621.907 Q216.654 622.995 216.654 624.455 Q216.654 626.324 215.431 627.241 Q214.243 628.125 213.054 628.125 Q212.578 628.125 211.933 628.023 Q211.322 627.921 210.337 626.969 Q209.352 625.984 209.352 624.252 Q209.352 619.393 213.02 615.52 Q216.722 611.647 222.36 611.647 Q228.745 611.647 232.923 615.452 Q237.134 619.224 237.134 625.135 Q237.134 627.207 236.489 629.11 Q235.878 630.978 235.028 632.439 Q234.213 633.9 231.972 636.244 Q229.73 638.588 227.93 640.253 Q226.13 641.918 222.088 645.451 L214.718 652.619 L227.251 652.619 Q233.364 652.619 233.84 652.076 Q234.519 651.091 235.368 645.893 L237.134 645.893 L235.164 657.987 L209.352 657.987 Z" fill="#000000" fill-rule="evenodd" fill-opacity="1" /><path clip-path="url(#clip660)" d="M118.193 494.832 Q118.193 484.606 120.774 479.035 Q124.374 470.745 132.865 470.745 Q134.665 470.745 136.533 471.255 Q138.435 471.731 140.813 473.599 Q143.224 475.468 144.685 478.525 Q147.47 484.437 147.47 494.832 Q147.47 504.99 144.888 510.528 Q141.118 518.614 132.797 518.614 Q129.673 518.614 126.48 517.017 Q123.321 515.42 121.318 511.581 Q118.193 505.84 118.193 494.832 M123.967 493.983 Q123.967 504.481 124.714 508.66 Q125.563 513.178 127.873 515.149 Q130.216 517.085 132.797 517.085 Q135.582 517.085 137.892 515.013 Q140.235 512.906 140.949 508.388 Q141.73 503.937 141.696 493.983 Q141.696 484.301 141.017 480.428 Q140.1 475.909 137.654 474.109 Q135.243 472.274 132.797 472.274 Q131.88 472.274 130.895 472.546 Q129.944 472.818 128.552 473.599 Q127.159 474.38 126.072 476.317 Q125.02 478.253 124.51 481.175 Q123.967 484.946 123.967 493.983 Z" fill="#000000" fill-rule="evenodd" fill-opacity="1" /><path clip-path="url(#clip660)" d="M157.217 515.964 Q156.164 514.843 156.164 513.382 Q156.164 511.921 157.217 510.868 Q158.27 509.781 159.866 509.781 Q161.395 509.781 162.414 510.8 Q163.467 511.785 163.467 513.416 Q163.467 515.013 162.346 516.066 Q161.259 517.085 159.866 517.085 Q158.27 517.085 157.217 515.964 Z" fill="#000000" fill-rule="evenodd" fill-opacity="1" /><path clip-path="url(#clip660)" d="M172.501 486.407 Q172.501 482.704 173.588 480.19 Q174.675 477.642 176.95 475.128 Q181.128 470.745 187.173 470.745 Q189.755 470.745 192.03 471.832 Q194.34 472.92 196.513 475.4 Q198.721 477.846 200.046 482.704 Q201.37 487.528 201.37 494.187 Q201.37 504.956 196.14 511.785 Q190.943 518.614 183.913 518.614 Q179.464 518.614 176.848 516.609 Q174.233 514.571 174.233 511.106 Q174.233 509.305 175.252 508.558 Q176.271 507.776 177.426 507.776 Q178.682 507.776 179.667 508.626 Q180.652 509.441 180.652 510.97 Q180.652 512.227 179.837 513.212 Q179.056 514.163 177.018 514.163 Q179.022 516.677 183.845 516.677 Q185.577 516.677 187.309 515.896 Q189.041 515.081 190.909 513.144 Q192.811 511.174 193.966 507.063 Q195.121 502.952 195.121 497.177 L195.121 494.968 Q192.336 501.933 186.426 501.933 Q180.584 501.933 176.543 497.448 Q172.501 492.964 172.501 486.407 M178.75 486.475 Q178.75 493.372 180.007 495.92 Q182.147 500.302 186.494 500.302 Q190.74 500.302 192.845 496.531 Q194.985 492.726 194.985 487.8 Q194.985 480.971 193.864 477.982 Q191.792 472.478 187.173 472.478 Q182.588 472.478 180.211 476.861 Q178.75 479.442 178.75 486.475 Z" fill="#000000" fill-rule="evenodd" fill-opacity="1" /><path clip-path="url(#clip660)" d="M206.295 505.602 L206.295 503.462 L227.658 470.813 Q228.202 469.964 229.051 469.998 Q229.832 469.998 230.002 470.304 Q230.172 470.609 230.172 471.798 L230.172 503.462 L237.134 503.462 L237.134 505.602 L230.172 505.602 L230.172 511.649 Q230.172 513.654 230.987 514.299 Q231.836 514.945 235.436 514.945 L236.896 514.945 L236.896 517.085 Q234.043 516.881 227.455 516.881 Q220.899 516.881 218.047 517.085 L218.047 514.945 L219.507 514.945 Q223.107 514.945 223.956 514.333 Q224.805 513.688 224.805 511.649 L224.805 505.602 L206.295 505.602 M208.265 503.462 L225.213 503.462 L225.213 477.506 L208.265 503.462 Z" fill="#000000" fill-rule="evenodd" fill-opacity="1" /><path clip-path="url(#clip660)" d="M119.178 353.93 Q119.178 343.704 121.759 338.133 Q125.359 329.843 133.85 329.843 Q135.65 329.843 137.518 330.353 Q139.42 330.828 141.798 332.697 Q144.209 334.565 145.67 337.623 Q148.455 343.534 148.455 353.93 Q148.455 364.088 145.873 369.626 Q142.103 377.712 133.782 377.712 Q130.658 377.712 127.465 376.115 Q124.306 374.518 122.303 370.679 Q119.178 364.938 119.178 353.93 M124.952 353.081 Q124.952 363.579 125.699 367.757 Q126.548 372.276 128.858 374.246 Q131.201 376.183 133.782 376.183 Q136.567 376.183 138.877 374.11 Q141.22 372.004 141.934 367.486 Q142.715 363.035 142.681 353.081 Q142.681 343.399 142.002 339.526 Q141.084 335.007 138.639 333.207 Q136.228 331.372 133.782 331.372 Q132.865 331.372 131.88 331.644 Q130.929 331.916 129.537 332.697 Q128.144 333.478 127.057 335.415 Q126.005 337.351 125.495 340.273 Q124.952 344.044 124.952 353.081 Z" fill="#000000" fill-rule="evenodd" fill-opacity="1" /><path clip-path="url(#clip660)" d="M158.202 375.062 Q157.149 373.941 157.149 372.48 Q157.149 371.019 158.202 369.966 Q159.255 368.879 160.851 368.879 Q162.38 368.879 163.399 369.898 Q164.452 370.883 164.452 372.514 Q164.452 374.11 163.331 375.164 Q162.244 376.183 160.851 376.183 Q159.255 376.183 158.202 375.062 Z" fill="#000000" fill-rule="evenodd" fill-opacity="1" /><path clip-path="url(#clip660)" d="M173.486 345.505 Q173.486 341.802 174.573 339.288 Q175.66 336.74 177.935 334.226 Q182.113 329.843 188.158 329.843 Q190.74 329.843 193.015 330.93 Q195.325 332.017 197.498 334.498 Q199.706 336.944 201.031 341.802 Q202.355 346.626 202.355 353.285 Q202.355 364.054 197.125 370.883 Q191.928 377.712 184.898 377.712 Q180.449 377.712 177.833 375.707 Q175.218 373.669 175.218 370.204 Q175.218 368.403 176.237 367.656 Q177.256 366.874 178.411 366.874 Q179.667 366.874 180.652 367.723 Q181.637 368.539 181.637 370.068 Q181.637 371.325 180.822 372.31 Q180.041 373.261 178.003 373.261 Q180.007 375.775 184.83 375.775 Q186.562 375.775 188.294 374.994 Q190.026 374.178 191.894 372.242 Q193.796 370.271 194.951 366.161 Q196.106 362.05 196.106 356.274 L196.106 354.066 Q193.321 361.031 187.411 361.031 Q181.569 361.031 177.528 356.546 Q173.486 352.062 173.486 345.505 M179.735 345.573 Q179.735 352.469 180.992 355.017 Q183.132 359.4 187.479 359.4 Q191.725 359.4 193.83 355.629 Q195.97 351.824 195.97 346.898 Q195.97 340.069 194.849 337.079 Q192.777 331.576 188.158 331.576 Q183.573 331.576 181.196 335.958 Q179.735 338.54 179.735 345.573 Z" fill="#000000" fill-rule="evenodd" fill-opacity="1" /><path clip-path="url(#clip660)" d="M208.265 354.202 Q208.265 343.263 213.835 336.57 Q219.405 329.843 226.571 329.843 Q230.749 329.843 233.059 331.983 Q235.402 334.09 235.402 337.351 Q235.402 339.152 234.349 339.933 Q233.296 340.715 232.209 340.715 Q230.953 340.715 229.968 339.865 Q228.983 339.016 228.983 337.487 Q228.983 334.362 232.821 334.362 Q231.021 331.576 226.707 331.576 Q225.383 331.576 224.024 331.983 Q222.666 332.357 220.899 333.648 Q219.133 334.939 217.775 336.978 Q216.416 339.016 215.465 342.855 Q214.514 346.694 214.514 351.688 L214.514 353.353 Q217.367 346.456 223.209 346.49 Q229.051 346.49 233.093 350.941 Q237.134 355.391 237.134 361.982 Q237.134 368.743 232.923 373.227 Q228.711 377.712 222.801 377.712 Q220.152 377.712 217.741 376.591 Q215.363 375.503 213.122 372.989 Q210.914 370.475 209.59 365.651 Q208.265 360.827 208.265 354.202 M214.65 360.453 Q214.65 367.282 215.907 370.543 Q216.111 371.087 216.552 371.834 Q217.028 372.582 217.809 373.567 Q218.624 374.518 219.949 375.164 Q221.273 375.775 222.801 375.775 Q227.455 375.775 229.696 371.257 Q230.885 368.743 230.885 361.914 Q230.885 354.949 229.628 352.401 Q227.488 348.087 223.141 348.087 Q220.22 348.087 218.182 350.091 Q216.179 352.096 215.397 354.78 Q214.65 357.464 214.65 360.453 Z" fill="#000000" fill-rule="evenodd" fill-opacity="1" /><path clip-path="url(#clip660)" d="M119.178 213.028 Q119.178 202.802 121.759 197.231 Q125.359 188.941 133.85 188.941 Q135.65 188.941 137.518 189.451 Q139.42 189.926 141.798 191.795 Q144.209 193.663 145.67 196.721 Q148.455 202.632 148.455 213.028 Q148.455 223.186 145.873 228.724 Q142.103 236.81 133.782 236.81 Q130.658 236.81 127.465 235.213 Q124.306 233.616 122.303 229.777 Q119.178 224.036 119.178 213.028 M124.952 212.179 Q124.952 222.677 125.699 226.855 Q126.548 231.374 128.858 233.344 Q131.201 235.281 133.782 235.281 Q136.567 235.281 138.877 233.208 Q141.22 231.102 141.934 226.584 Q142.715 222.133 142.681 212.179 Q142.681 202.496 142.002 198.623 Q141.084 194.105 138.639 192.304 Q136.228 190.47 133.782 190.47 Q132.865 190.47 131.88 190.742 Q130.929 191.013 129.537 191.795 Q128.144 192.576 127.057 194.513 Q126.005 196.449 125.495 199.371 Q124.952 203.142 124.952 212.179 Z" fill="#000000" fill-rule="evenodd" fill-opacity="1" /><path clip-path="url(#clip660)" d="M158.202 234.16 Q157.149 233.038 157.149 231.578 Q157.149 230.117 158.202 229.064 Q159.255 227.976 160.851 227.976 Q162.38 227.976 163.399 228.996 Q164.452 229.981 164.452 231.612 Q164.452 233.208 163.331 234.262 Q162.244 235.281 160.851 235.281 Q159.255 235.281 158.202 234.16 Z" fill="#000000" fill-rule="evenodd" fill-opacity="1" /><path clip-path="url(#clip660)" d="M173.486 204.603 Q173.486 200.9 174.573 198.386 Q175.66 195.838 177.935 193.324 Q182.113 188.941 188.158 188.941 Q190.74 188.941 193.015 190.028 Q195.325 191.115 197.498 193.595 Q199.706 196.041 201.031 200.9 Q202.355 205.724 202.355 212.383 Q202.355 223.152 197.125 229.981 Q191.928 236.81 184.898 236.81 Q180.449 236.81 177.833 234.805 Q175.218 232.767 175.218 229.301 Q175.218 227.501 176.237 226.753 Q177.256 225.972 178.411 225.972 Q179.667 225.972 180.652 226.821 Q181.637 227.637 181.637 229.165 Q181.637 230.423 180.822 231.408 Q180.041 232.359 178.003 232.359 Q180.007 234.873 184.83 234.873 Q186.562 234.873 188.294 234.092 Q190.026 233.276 191.894 231.34 Q193.796 229.369 194.951 225.259 Q196.106 221.148 196.106 215.372 L196.106 213.164 Q193.321 220.129 187.411 220.129 Q181.569 220.129 177.528 215.644 Q173.486 211.16 173.486 204.603 M179.735 204.671 Q179.735 211.567 180.992 214.115 Q183.132 218.498 187.479 218.498 Q191.725 218.498 193.83 214.727 Q195.97 210.922 195.97 205.996 Q195.97 199.167 194.849 196.177 Q192.777 190.674 188.158 190.674 Q183.573 190.674 181.196 195.056 Q179.735 197.638 179.735 204.671 Z" fill="#000000" fill-rule="evenodd" fill-opacity="1" /><path clip-path="url(#clip660)" d="M208.265 224.783 Q208.265 217.003 218.284 211.975 Q213.971 209.053 213.19 208.204 Q210.133 204.807 210.133 200.56 Q210.133 195.702 213.801 192.338 Q217.503 188.941 222.734 188.941 Q227.726 188.941 231.496 191.829 Q235.266 194.716 235.266 199.303 Q235.266 205.758 226.843 210.106 Q232.413 213.572 233.738 215.033 Q237.134 218.804 237.134 223.594 Q237.134 229.165 232.855 233.004 Q228.575 236.81 222.666 236.81 Q216.892 236.81 212.578 233.446 Q208.265 230.083 208.265 224.783 M211.729 224.783 Q211.729 229.098 214.956 231.985 Q218.216 234.873 222.734 234.873 Q227.115 234.873 230.375 232.359 Q233.67 229.845 233.67 226.108 Q233.67 224.647 233.16 223.39 Q232.685 222.133 231.7 221.148 Q230.749 220.129 230.138 219.687 Q229.56 219.211 228.439 218.43 L219.881 213.028 Q211.729 217.547 211.729 224.783 M213.19 197.842 Q213.19 201.171 216.688 203.482 L225.315 209.053 Q232.209 205.01 232.209 199.303 Q232.209 195.6 229.39 193.154 Q226.571 190.674 222.666 190.674 Q218.828 190.674 216.009 192.712 Q213.19 194.716 213.19 197.842 Z" fill="#000000" fill-rule="evenodd" fill-opacity="1" /><path clip-path="url(#clip660)" d="M122.438 54.6637 L122.438 52.4894 Q130.793 52.4894 135.107 48.0389 Q136.296 48.0389 136.499 48.3107 Q136.703 48.5824 136.703 49.8395 L136.703 88.8749 Q136.703 90.9473 137.722 91.5927 Q138.741 92.2382 143.19 92.2382 L145.398 92.2382 L145.398 94.3786 Q142.953 94.1747 134.122 94.1747 Q125.291 94.1747 122.88 94.3786 L122.88 92.2382 L125.088 92.2382 Q129.469 92.2382 130.522 91.6267 Q131.575 90.9812 131.575 88.8749 L131.575 52.8291 Q127.94 54.6637 122.438 54.6637 Z" fill="#000000" fill-rule="evenodd" fill-opacity="1" /><path clip-path="url(#clip660)" d="M157.998 93.2574 Q156.946 92.1363 156.946 90.6755 Q156.946 89.2146 157.998 88.1614 Q159.051 87.0743 160.648 87.0743 Q162.176 87.0743 163.195 88.0935 Q164.248 89.0787 164.248 90.7094 Q164.248 92.3062 163.127 93.3594 Q162.04 94.3786 160.648 94.3786 Q159.051 94.3786 157.998 93.2574 Z" fill="#000000" fill-rule="evenodd" fill-opacity="1" /><path clip-path="url(#clip660)" d="M173.078 72.126 Q173.078 61.9 175.66 56.3284 Q179.26 48.0389 187.751 48.0389 Q189.551 48.0389 191.419 48.5485 Q193.321 49.0241 195.698 50.8926 Q198.11 52.7612 199.57 55.8188 Q202.355 61.7301 202.355 72.126 Q202.355 82.284 199.774 87.8217 Q196.004 95.9074 187.683 95.9074 Q184.558 95.9074 181.366 94.3106 Q178.207 92.7139 176.203 88.8749 Q173.078 83.1334 173.078 72.126 M178.852 71.2767 Q178.852 81.7744 179.599 85.9532 Q180.449 90.4716 182.758 92.4421 Q185.102 94.3786 187.683 94.3786 Q190.468 94.3786 192.777 92.3062 Q195.121 90.1998 195.834 85.6814 Q196.615 81.2309 196.581 71.2767 Q196.581 61.5943 195.902 57.7213 Q194.985 53.2028 192.54 51.4022 Q190.128 49.5677 187.683 49.5677 Q186.766 49.5677 185.781 49.8395 Q184.83 50.1113 183.437 50.8926 Q182.045 51.674 180.958 53.6105 Q179.905 55.547 179.396 58.4687 Q178.852 62.2397 178.852 71.2767 Z" fill="#000000" fill-rule="evenodd" fill-opacity="1" /><path clip-path="url(#clip660)" d="M207.857 72.126 Q207.857 61.9 210.439 56.3284 Q214.039 48.0389 222.53 48.0389 Q224.33 48.0389 226.198 48.5485 Q228.1 49.0241 230.477 50.8926 Q232.889 52.7612 234.349 55.8188 Q237.134 61.7301 237.134 72.126 Q237.134 82.284 234.553 87.8217 Q230.783 95.9074 222.462 95.9074 Q219.337 95.9074 216.145 94.3106 Q212.986 92.7139 210.982 88.8749 Q207.857 83.1334 207.857 72.126 M213.631 71.2767 Q213.631 81.7744 214.378 85.9532 Q215.228 90.4716 217.537 92.4421 Q219.881 94.3786 222.462 94.3786 Q225.247 94.3786 227.556 92.3062 Q229.9 90.1998 230.613 85.6814 Q231.394 81.2309 231.36 71.2767 Q231.36 61.5943 230.681 57.7213 Q229.764 53.2028 227.319 51.4022 Q224.907 49.5677 222.462 49.5677 Q221.545 49.5677 220.56 49.8395 Q219.609 50.1113 218.216 50.8926 Q216.824 51.674 215.737 53.6105 Q214.684 55.547 214.175 58.4687 Q213.631 62.2397 213.631 71.2767 Z" fill="#000000" fill-rule="evenodd" fill-opacity="1" /><path clip-path="url(#clip660)" d="M77.0374 585.796 L74.7031 585.796 L74.7031 583.98 Q74.7031 579.866 74.0362 578.939 Q73.3322 577.976 71.1092 577.976 L31.3529 577.976 Q29.1669 577.976 28.5 578.939 Q27.796 579.903 27.796 583.98 L27.796 585.796 L25.4247 585.796 L25.4247 544.138 L42.5054 542.026 L42.5054 543.916 Q38.1704 544.435 35.725 545.139 Q33.2426 545.806 31.2788 547.362 Q29.3151 548.919 28.5741 551.55 Q27.796 554.145 27.796 558.407 L27.796 567.524 Q27.796 570.118 28.3518 570.674 Q28.8705 571.23 30.8342 571.23 L50.0269 571.23 L50.0269 564.707 Q50.0269 559.556 48.1743 558.11 Q46.3217 556.665 41.1345 556.665 L41.1345 554.775 L61.2535 554.775 L61.2535 556.665 Q56.0292 556.665 54.2137 558.11 Q52.3611 559.556 52.3611 564.707 L52.3611 571.23 L71.0351 571.23 Q72.6283 571.23 73.2581 570.971 Q73.851 570.711 74.2956 569.118 Q74.7031 567.524 74.7031 564.04 L74.7031 561.52 L77.0374 561.52 Q76.8151 564.263 76.8151 574.269 Q76.8151 583.127 77.0374 585.796 Z" fill="#000000" fill-rule="evenodd" fill-opacity="1" /><path clip-path="url(#clip660)" d="M77.0374 536.318 L74.7031 536.318 Q74.7031 532.278 74.2215 531.352 Q73.7028 530.425 71.2574 530.425 L50.842 530.425 Q48.0261 530.425 47.3592 531.389 Q46.6922 532.315 46.6922 536.022 L44.321 536.022 L43.5058 525.422 L71.3315 525.422 Q73.5916 525.422 74.1474 524.606 Q74.7031 523.791 74.7031 520.085 L77.0374 520.085 Q76.8151 527.831 76.8151 527.979 Q76.8151 529.017 77.0374 536.318 M30.2785 533.131 Q28.7593 533.131 27.5366 531.982 Q26.2769 530.796 26.2769 529.128 Q26.2769 527.46 27.4255 526.274 Q28.537 525.088 30.3155 525.088 Q32.0569 525.088 33.2055 526.274 Q34.3171 527.46 34.3171 529.128 Q34.3171 530.87 33.0944 532.019 Q31.8717 533.131 30.2785 533.131 Z" fill="#000000" fill-rule="evenodd" fill-opacity="1" /><path clip-path="url(#clip660)" d="M60.7347 515.23 Q53.5097 515.23 48.5078 510.189 Q43.5058 505.149 43.5058 498.33 Q43.5058 492.548 48.2114 488.768 L31.7976 488.768 Q28.9817 488.768 28.2777 489.768 Q27.5737 490.732 27.5737 494.66 L25.2024 494.66 L24.3873 483.727 L70.4422 483.727 Q73.2581 483.727 73.9992 482.764 Q74.7031 481.763 74.7031 477.834 L77.0374 477.834 L77.8896 488.99 L72.8506 488.99 Q77.8525 492.919 77.8896 499.145 Q77.8896 505.668 72.8876 510.449 Q67.8857 515.23 60.7347 515.23 M60.8089 508.929 Q67.8486 508.929 71.3315 506.743 Q76.1852 503.704 76.1852 498.774 Q76.1852 493.141 70.8868 489.805 Q69.59 488.953 68.0709 488.99 L52.5093 488.99 Q50.9902 488.99 49.7305 489.805 Q45.1731 492.919 45.1731 497.996 Q45.1731 503.296 50.0269 506.594 Q53.6579 508.929 60.8089 508.929 Z" fill="#000000" fill-rule="evenodd" fill-opacity="1" /><path clip-path="url(#clip660)" d="M60.3272 473.609 Q53.1763 473.609 48.1002 469.014 Q43.0242 464.418 43.0242 457.821 Q43.0242 451.15 47.3592 447.703 Q51.6942 444.219 57.9188 444.219 Q59.0674 444.219 59.2897 444.516 Q59.512 444.812 59.512 446.109 L59.512 467.309 Q67.2558 467.309 70.8868 465.011 Q75.9629 461.824 75.9629 456.45 Q75.9629 455.708 75.8147 454.819 Q75.6665 453.93 75.0366 452.113 Q74.3697 450.297 72.6283 448.704 Q70.8868 447.11 68.145 446.184 Q67.0705 445.961 67.1076 445.22 Q67.1076 444.219 67.9968 444.219 Q68.6638 444.219 70.1829 444.961 Q71.6649 445.665 73.4434 447.036 Q75.2219 448.407 76.5557 451.076 Q77.8896 453.707 77.8896 456.894 Q77.8896 463.566 72.8506 468.606 Q67.7745 473.609 60.3272 473.609 M57.9188 467.235 L57.9188 449.223 Q56.3256 449.223 54.5472 449.519 Q52.7687 449.779 50.3233 450.594 Q47.8408 451.372 46.2847 453.225 Q44.7285 455.078 44.7285 457.821 Q44.7285 459.044 45.2472 460.378 Q45.766 461.675 47.0257 463.269 Q48.2855 464.863 51.1384 465.975 Q53.9914 467.086 57.9188 467.235 Z" fill="#000000" fill-rule="evenodd" fill-opacity="1" /><path clip-path="url(#clip660)" d="M77.0374 439.512 L74.7031 439.512 Q74.7031 435.473 74.2215 434.546 Q73.7028 433.62 71.2574 433.62 L31.7976 433.62 Q28.9817 433.62 28.2777 434.62 Q27.5737 435.584 27.5737 439.512 L25.2024 439.512 L24.3873 428.616 L71.2574 428.616 Q73.7028 428.616 74.2215 427.653 Q74.7031 426.689 74.7031 422.686 L77.0374 422.686 Q77.0374 423.613 76.9633 425.54 Q76.8892 427.467 76.8521 428.876 Q76.8151 430.284 76.8151 431.099 Q76.8151 431.989 77.0374 439.512 Z" fill="#000000" fill-rule="evenodd" fill-opacity="1" /><path clip-path="url(#clip660)" d="M77.0374 418.498 L74.7031 418.498 Q74.7031 414.459 74.2215 413.532 Q73.7028 412.606 71.2574 412.606 L50.842 412.606 Q48.0261 412.606 47.3592 413.569 Q46.6922 414.496 46.6922 418.202 L44.321 418.202 L43.5058 407.602 L71.3315 407.602 Q73.5916 407.602 74.1474 406.787 Q74.7031 405.971 74.7031 402.265 L77.0374 402.265 Q76.8151 410.011 76.8151 410.159 Q76.8151 411.197 77.0374 418.498 M30.2785 415.311 Q28.7593 415.311 27.5366 414.162 Q26.2769 412.976 26.2769 411.308 Q26.2769 409.641 27.4255 408.455 Q28.537 407.269 30.3155 407.269 Q32.0569 407.269 33.2055 408.455 Q34.3171 409.641 34.3171 411.308 Q34.3171 413.05 33.0944 414.199 Q31.8717 415.311 30.2785 415.311 Z" fill="#000000" fill-rule="evenodd" fill-opacity="1" /><path clip-path="url(#clip660)" d="M46.6922 398.559 L45.0249 398.559 Q44.8767 395.075 42.4313 392.777 Q39.9489 390.443 36.9107 389.664 Q33.8724 388.849 30.3526 388.775 L30.3526 386.885 L44.321 386.885 L44.321 376.025 L46.6922 376.025 L46.6922 386.885 L67.7745 386.885 Q75.9629 386.885 75.9629 381.77 Q75.9629 379.583 73.7398 378.138 Q71.4797 376.693 67.4781 376.693 L63.2913 376.693 L63.2913 374.802 L67.6263 374.802 Q71.739 374.802 74.8143 376.693 Q77.8896 378.583 77.8896 382.326 Q77.8896 383.697 77.5191 385.069 Q77.1856 386.403 76.2964 388.182 Q75.3701 389.924 73.147 391.036 Q70.8868 392.11 67.6263 392.11 L46.6922 392.11 L46.6922 398.559 Z" fill="#000000" fill-rule="evenodd" fill-opacity="1" /><path clip-path="url(#clip660)" d="M86.4485 371.244 Q84.8552 371.244 84.0031 370.318 Q83.1879 369.354 83.1879 368.057 Q83.1879 366.686 84.0401 365.796 Q84.9293 364.87 86.3744 364.87 Q89.1903 364.87 89.5608 367.835 Q90.9317 366.389 90.9317 364.277 Q90.9317 362.016 89.2644 360.2 Q87.597 358.347 86.0038 357.569 Q84.4106 356.753 81.5206 355.604 Q79.2605 354.53 77.0374 353.714 L49.3229 365.092 Q47.5074 365.833 47.0998 366.982 Q46.6922 368.131 46.6922 371.244 L44.321 371.244 Q44.5433 367.835 44.5433 363.869 Q44.5433 361.534 44.321 355.604 L46.6922 355.604 Q46.6922 359.866 48.656 359.866 Q48.8783 359.866 50.0269 359.422 L70.4422 350.972 L51.7683 343.3 Q50.6938 342.855 49.9528 342.855 Q46.8405 342.855 46.6922 346.413 L44.321 346.413 Q44.5433 341.41 44.5433 339.816 Q44.5433 336.703 44.321 334.146 L46.6922 334.146 Q46.6922 339.223 51.546 341.187 L83.929 354.567 Q92.5619 358.199 92.599 364.277 Q92.599 367.168 90.8205 369.206 Q89.0421 371.244 86.4485 371.244 Z" fill="#000000" fill-rule="evenodd" fill-opacity="1" /><polyline clip-path="url(#clip662)" style="stroke:#696969; stroke-linecap:round; stroke-linejoin:round; stroke-width:4.00074; stroke-opacity:1; fill:none" points="302.278,70.6142 1620.22,70.6142 "/>
<path clip-path="url(#clip662)" d="M302.278 70.6142 L335.226 70.9754 L368.175 72.0225 L401.123 73.6243 L434.072 75.598 L467.021 77.7277 L499.969 79.798 L532.918 81.6297 L565.866 83.1015 L598.815 84.1595 L631.764 84.8132 L664.712 85.1188 L697.661 85.1569 L730.61 84.9891 L763.558 84.6666 L796.507 84.2309 L829.455 83.6952 L862.404 83.0464 L895.353 82.2623 L928.301 81.332 L961.25 80.2685 L994.198 79.1135 L1027.15 77.9332 L1060.1 76.8086 L1093.04 75.8208 L1125.99 75.0546 L1158.94 74.5763 L1191.89 74.4173 L1224.84 74.5737 L1257.79 75.022 L1290.74 75.7265 L1323.68 76.6406 L1356.63 77.7119 L1389.58 78.8894 L1422.53 80.1358 L1455.48 81.4283 L1488.43 82.7536 L1521.38 84.0982 L1554.32 85.425 L1587.27 86.6978 L1620.22 87.9489 L1620.22 87.9489 L1587.27 86.6978 L1554.32 85.425 L1521.38 84.0982 L1488.43 82.7536 L1455.48 81.4283 L1422.53 80.1358 L1389.58 78.8894 L1356.63 77.7119 L1323.68 76.6406 L1290.74 75.7265 L1257.79 75.022 L1224.84 74.5737 L1191.89 74.4173 L1158.94 74.5763 L1125.99 75.0546 L1093.04 75.8208 L1060.1 76.8086 L1027.15 77.9332 L994.198 79.1135 L961.25 80.2685 L928.301 81.332 L895.353 82.2623 L862.404 83.0464 L829.455 83.6952 L796.507 84.2309 L763.558 84.6666 L730.61 84.9891 L697.661 85.1569 L664.712 85.1188 L631.764 84.8132 L598.815 84.1595 L565.866 83.1015 L532.918 81.6297 L499.969 79.798 L467.021 77.7277 L434.072 75.598 L401.123 73.6243 L368.175 72.0225 L335.226 70.9754 L302.278 70.6142  Z" fill="#dcb0f2" fill-rule="evenodd" fill-opacity="0.5"/>
<polyline clip-path="url(#clip662)" style="stroke:#dcb0f2; stroke-linecap:round; stroke-linejoin:round; stroke-width:12.0022; stroke-opacity:1; fill:none" points="302.278,70.6142 335.226,70.9754 368.175,72.0225 401.123,73.6243 434.072,75.598 467.021,77.7277 499.969,79.798 532.918,81.6297 565.866,83.1015 598.815,84.1595 631.764,84.8132 664.712,85.1188 697.661,85.1569 730.61,84.9891 763.558,84.6666 796.507,84.2309 829.455,83.6952 862.404,83.0464 895.353,82.2623 928.301,81.332 961.25,80.2685 994.198,79.1135 1027.15,77.9332 1060.1,76.8086 1093.04,75.8208 1125.99,75.0546 1158.94,74.5763 1191.89,74.4173 1224.84,74.5737 1257.79,75.022 1290.74,75.7265 1323.68,76.6406 1356.63,77.7119 1389.58,78.8894 1422.53,80.1358 1455.48,81.4283 1488.43,82.7536 1521.38,84.0982 1554.32,85.425 1587.27,86.6978 1620.22,87.9489 "/>
<path clip-path="url(#clip662)" d="M302.278 70.6142 L335.226 70.9754 L368.175 72.0225 L401.123 73.6243 L434.072 75.598 L467.021 77.7277 L499.969 79.798 L532.918 81.6297 L565.866 83.1015 L598.815 84.1595 L631.764 84.8132 L664.712 85.1188 L697.661 85.1569 L730.61 84.9891 L763.558 84.6666 L796.507 84.2309 L829.455 83.6952 L862.404 83.0464 L895.353 82.2623 L928.301 81.332 L961.25 80.2685 L994.198 79.1135 L1027.15 77.9332 L1060.1 76.8086 L1093.04 75.8208 L1125.99 75.0546 L1158.94 74.5835 L1191.89 74.4507 L1224.84 74.6279 L1257.79 74.9867 L1290.74 75.5723 L1323.68 76.3841 L1356.63 77.417 L1389.58 79.5407 L1422.53 82.5544 L1455.48 86.0007 L1488.43 89.4596 L1521.38 93.5151 L1554.32 97.1785 L1587.27 100.749 L1620.22 104.399 L1620.22 104.399 L1587.27 100.749 L1554.32 97.1785 L1521.38 93.5151 L1488.43 89.4596 L1455.48 86.0007 L1422.53 82.5544 L1389.58 79.5407 L1356.63 77.417 L1323.68 76.3841 L1290.74 75.5723 L1257.79 74.9867 L1224.84 74.6279 L1191.89 74.4507 L1158.94 74.5835 L1125.99 75.0546 L1093.04 75.8208 L1060.1 76.8086 L1027.15 77.9332 L994.198 79.1135 L961.25 80.2685 L928.301 81.332 L895.353 82.2623 L862.404 83.0464 L829.455 83.6952 L796.507 84.2309 L763.558 84.6666 L730.61 84.9891 L697.661 85.1569 L664.712 85.1188 L631.764 84.8132 L598.815 84.1595 L565.866 83.1015 L532.918 81.6297 L499.969 79.798 L467.021 77.7277 L434.072 75.598 L401.123 73.6243 L368.175 72.0225 L335.226 70.9754 L302.278 70.6142  Z" fill="#87c55f" fill-rule="evenodd" fill-opacity="0.5"/>
<polyline clip-path="url(#clip662)" style="stroke:#87c55f; stroke-linecap:round; stroke-linejoin:round; stroke-width:12.0022; stroke-opacity:1; fill:none" stroke-dasharray="48, 24, 6, 24" points="302.278,70.6142 335.226,70.9754 368.175,72.0225 401.123,73.6243 434.072,75.598 467.021,77.7277 499.969,79.798 532.918,81.6297 565.866,83.1015 598.815,84.1595 631.764,84.8132 664.712,85.1188 697.661,85.1569 730.61,84.9891 763.558,84.6666 796.507,84.2309 829.455,83.6952 862.404,83.0464 895.353,82.2623 928.301,81.332 961.25,80.2685 994.198,79.1135 1027.15,77.9332 1060.1,76.8086 1093.04,75.8208 1125.99,75.0546 1158.94,74.5835 1191.89,74.4507 1224.84,74.6279 1257.79,74.9867 1290.74,75.5723 1323.68,76.3841 1356.63,77.417 1389.58,79.5407 1422.53,82.5544 1455.48,86.0007 1488.43,89.4596 1521.38,93.5151 1554.32,97.1785 1587.27,100.749 1620.22,104.399 "/>
<path clip-path="url(#clip662)" d="M302.278 70.6142 L335.226 70.9754 L368.175 72.0225 L401.123 73.6243 L434.072 75.598 L467.021 77.7277 L499.969 79.798 L532.918 81.6297 L565.866 83.1015 L598.815 84.1595 L631.764 84.8132 L664.712 85.1188 L697.661 85.1569 L730.61 84.9891 L763.558 84.6666 L796.507 84.2309 L829.455 83.7057 L862.404 83.0359 L895.353 82.3286 L928.301 81.551 L961.25 80.6936 L994.198 79.8807 L1027.15 79.2695 L1060.1 79.097 L1093.04 79.8963 L1125.99 81.8981 L1158.94 85.4099 L1191.89 90.5119 L1224.84 97.5158 L1257.79 106.167 L1290.74 116.466 L1323.68 127.125 L1356.63 138.277 L1389.58 149.814 L1422.53 161.461 L1455.48 172.512 L1488.43 182.332 L1521.38 190.883 L1554.32 198.131 L1587.27 203.134 L1620.22 207.371 L1620.22 207.371 L1587.27 203.134 L1554.32 198.131 L1521.38 190.883 L1488.43 182.332 L1455.48 172.512 L1422.53 161.461 L1389.58 149.814 L1356.63 138.277 L1323.68 127.125 L1290.74 116.466 L1257.79 106.167 L1224.84 97.5158 L1191.89 90.5119 L1158.94 85.4099 L1125.99 81.8981 L1093.04 79.8963 L1060.1 79.097 L1027.15 79.2695 L994.198 79.8807 L961.25 80.6936 L928.301 81.551 L895.353 82.3286 L862.404 83.0359 L829.455 83.7057 L796.507 84.2309 L763.558 84.6666 L730.61 84.9891 L697.661 85.1569 L664.712 85.1188 L631.764 84.8132 L598.815 84.1595 L565.866 83.1015 L532.918 81.6297 L499.969 79.798 L467.021 77.7277 L434.072 75.598 L401.123 73.6243 L368.175 72.0225 L335.226 70.9754 L302.278 70.6142  Z" fill="#f89c74" fill-rule="evenodd" fill-opacity="0.5"/>
<polyline clip-path="url(#clip662)" style="stroke:#f89c74; stroke-linecap:round; stroke-linejoin:round; stroke-width:12.0022; stroke-opacity:1; fill:none" stroke-dasharray="6, 12" points="302.278,70.6142 335.226,70.9754 368.175,72.0225 401.123,73.6243 434.072,75.598 467.021,77.7277 499.969,79.798 532.918,81.6297 565.866,83.1015 598.815,84.1595 631.764,84.8132 664.712,85.1188 697.661,85.1569 730.61,84.9891 763.558,84.6666 796.507,84.2309 829.455,83.7057 862.404,83.0359 895.353,82.3286 928.301,81.551 961.25,80.6936 994.198,79.8807 1027.15,79.2695 1060.1,79.097 1093.04,79.8963 1125.99,81.8981 1158.94,85.4099 1191.89,90.5119 1224.84,97.5158 1257.79,106.167 1290.74,116.466 1323.68,127.125 1356.63,138.277 1389.58,149.814 1422.53,161.461 1455.48,172.512 1488.43,182.332 1521.38,190.883 1554.32,198.131 1587.27,203.134 1620.22,207.371 "/>
<path clip-path="url(#clip662)" d="M302.278 70.6142 L335.226 70.9753 L368.175 72.0265 L401.123 73.6426 L434.072 75.6809 L467.021 78.0333 L499.969 80.6842 L532.918 83.7634 L565.866 87.5673 L598.815 92.5423 L631.764 99.2321 L664.712 108.197 L697.661 119.926 L730.61 134.749 L763.558 152.786 L796.507 173.919 L829.455 197.822 L862.404 224.01 L895.353 251.922 L928.301 281.008 L961.25 310.81 L994.198 341.012 L1027.15 371.467 L1060.1 402.181 L1093.04 433.271 L1125.99 464.903 L1158.94 497.215 L1191.89 530.258 L1224.84 563.937 L1257.79 597.991 L1290.74 631.993 L1323.68 665.381 L1356.63 697.507 L1389.58 727.705 L1422.53 755.354 L1455.48 779.934 L1488.43 801.072 L1521.38 818.558 L1554.32 832.348 L1587.27 842.536 L1620.22 849.327 L1620.22 849.327 L1587.27 842.536 L1554.32 832.348 L1521.38 818.558 L1488.43 801.072 L1455.48 779.934 L1422.53 755.354 L1389.58 727.705 L1356.63 697.507 L1323.68 665.381 L1290.74 631.993 L1257.79 597.991 L1224.84 563.937 L1191.89 530.258 L1158.94 497.215 L1125.99 464.903 L1093.04 433.271 L1060.1 402.181 L1027.15 371.467 L994.198 341.012 L961.25 310.81 L928.301 281.008 L895.353 251.922 L862.404 224.01 L829.455 197.822 L796.507 173.919 L763.558 152.786 L730.61 134.749 L697.661 119.926 L664.712 108.197 L631.764 99.2321 L598.815 92.5423 L565.866 87.5673 L532.918 83.7634 L499.969 80.6842 L467.021 78.0333 L434.072 75.6809 L401.123 73.6426 L368.175 72.0265 L335.226 70.9753 L302.278 70.6142  Z" fill="#f6cf71" fill-rule="evenodd" fill-opacity="0.5"/>
<polyline clip-path="url(#clip662)" style="stroke:#f6cf71; stroke-linecap:round; stroke-linejoin:round; stroke-width:12.0022; stroke-opacity:1; fill:none" stroke-dasharray="48, 30" points="302.278,70.6142 335.226,70.9753 368.175,72.0265 401.123,73.6426 434.072,75.6809 467.021,78.0333 499.969,80.6842 532.918,83.7634 565.866,87.5673 598.815,92.5423 631.764,99.2321 664.712,108.197 697.661,119.926 730.61,134.749 763.558,152.786 796.507,173.919 829.455,197.822 862.404,224.01 895.353,251.922 928.301,281.008 961.25,310.81 994.198,341.012 1027.15,371.467 1060.1,402.181 1093.04,433.271 1125.99,464.903 1158.94,497.215 1191.89,530.258 1224.84,563.937 1257.79,597.991 1290.74,631.993 1323.68,665.381 1356.63,697.507 1389.58,727.705 1422.53,755.354 1455.48,779.934 1488.43,801.072 1521.38,818.558 1554.32,832.348 1587.27,842.536 1620.22,849.327 "/>
<path clip-path="url(#clip660)" d="M309.307 845.174 L1072.58 845.174 L1072.58 456.302 L309.307 456.302  Z" fill="#ffffff" fill-rule="evenodd" fill-opacity="1"/>
<polyline clip-path="url(#clip660)" style="stroke:#000000; stroke-linecap:round; stroke-linejoin:round; stroke-width:4.00074; stroke-opacity:1; fill:none" points="309.307,845.174 1072.58,845.174 1072.58,456.302 309.307,456.302 309.307,845.174 "/>
<polyline clip-path="url(#clip660)" style="stroke:#dcb0f2; stroke-linecap:round; stroke-linejoin:round; stroke-width:18.0033; stroke-opacity:1; fill:none" points="324.829,534.077 417.964,534.077 "/>
<path clip-path="url(#clip660)" d="M433.486 534.058 Q433.486 522.606 441.304 514.563 Q449.122 506.484 459.867 506.484 Q463.202 506.484 466.166 507.707 Q469.13 508.93 470.501 510.005 Q471.872 511.043 473.835 513.007 L477.652 507.411 Q478.244 506.484 478.837 506.484 Q479.467 506.484 479.578 506.855 Q479.689 507.188 479.689 508.3 L479.689 526.312 Q479.689 527.535 479.541 527.832 Q479.393 528.128 478.467 528.128 Q477.726 528.128 477.54 527.906 Q477.392 527.683 477.244 526.831 Q476.095 518.64 471.538 513.748 Q467.018 508.856 460.719 508.856 Q458.904 508.856 456.866 509.264 Q454.865 509.671 451.938 511.228 Q449.048 512.784 446.788 515.379 Q444.565 517.936 442.934 522.828 Q441.304 527.683 441.304 534.132 Q441.304 540.507 442.934 545.399 Q444.565 550.291 446.788 552.848 Q449.048 555.369 451.938 556.925 Q454.865 558.482 456.903 558.927 Q458.978 559.334 460.793 559.334 Q467.314 559.334 472.316 554.701 Q477.318 550.069 477.8 542.249 Q477.874 541.878 477.874 541.73 Q477.874 541.545 477.948 541.359 Q478.022 541.174 478.207 541.1 Q478.393 541.026 478.689 541.026 Q479.689 541.026 479.689 542.323 Q479.689 549.55 474.132 555.628 Q468.611 561.669 459.867 561.669 Q449.085 561.669 441.267 553.664 Q433.486 545.658 433.486 534.058 Z" fill="#000000" fill-rule="evenodd" fill-opacity="1" /><path clip-path="url(#clip660)" d="M486.507 560.001 L486.507 557.666 L488.322 557.666 Q492.435 557.666 493.361 556.999 Q494.325 556.295 494.325 554.071 L494.325 514.082 Q494.325 511.895 493.361 511.228 Q492.398 510.524 488.322 510.524 L486.507 510.524 L486.507 508.152 Q489.175 508.374 497.733 508.374 Q506.218 508.374 508.886 508.152 L508.886 510.524 L507.07 510.524 Q502.958 510.524 501.994 511.228 Q501.068 511.895 501.068 514.082 L501.068 538.209 L524.818 515.527 Q526.189 514.304 526.189 513.007 Q526.189 512.562 525.967 512.08 Q525.781 511.561 524.892 511.043 Q524.04 510.524 522.669 510.524 L522.669 508.152 Q525.263 508.374 532.34 508.374 Q536.823 508.374 538.786 508.152 L538.786 510.524 Q532.488 510.598 528.004 515.082 L514.333 528.202 L531.858 553.997 Q533.451 556.332 535.007 556.999 Q536.563 557.666 539.824 557.666 L539.824 560.001 Q535.044 559.779 531.117 559.779 Q522.928 559.779 520.261 560.001 L520.261 557.666 Q524.744 557.666 524.744 555.369 Q524.744 554.516 523.595 552.774 L509.849 532.464 L501.068 540.803 L501.068 554.071 Q501.068 556.258 501.994 556.962 Q502.958 557.666 507.07 557.666 L508.886 557.666 L508.886 560.001 Q506.218 559.779 497.659 559.779 Q489.175 559.779 486.507 560.001 Z" fill="#000000" fill-rule="evenodd" fill-opacity="1" /><path clip-path="url(#clip660)" d="M545.382 560.001 L545.382 557.666 Q552.125 557.518 553.866 552.552 L569.576 507.188 Q569.873 506.262 570.206 505.965 Q570.54 505.669 571.392 505.669 Q571.836 505.669 572.096 505.743 Q572.392 505.817 572.577 506.076 Q572.763 506.336 572.837 506.484 Q572.911 506.632 573.133 507.188 L589.51 554.627 Q590.103 556.518 591.325 557.11 Q592.548 557.666 595.994 557.666 L597.328 557.666 L597.328 560.001 Q592.548 559.779 587.398 559.779 Q579.21 559.779 576.468 560.001 L576.468 557.666 Q582.767 557.666 582.767 555.369 Q582.767 555.22 582.544 554.294 L578.543 542.693 L559.795 542.693 L556.275 552.626 Q556.127 552.922 556.127 553.775 Q556.127 555.369 557.609 556.518 Q559.091 557.666 561.832 557.666 L561.832 560.001 Q554.533 559.779 553.088 559.779 Q550.606 559.779 545.382 560.001 M560.61 540.359 L577.69 540.359 L569.132 515.675 L560.61 540.359 Z" fill="#000000" fill-rule="evenodd" fill-opacity="1" /><path clip-path="url(#clip660)" d="M607.443 558.778 Q606.368 557.555 606.368 555.962 Q606.368 554.368 607.406 553.182 Q608.48 551.959 610.407 551.959 Q612.667 551.959 613.964 554.146 Q615.261 556.295 615.261 559.927 Q615.261 563.856 613.667 567.488 Q612.074 571.157 610.518 572.899 Q608.962 574.641 608.332 574.641 Q607.591 574.641 607.591 573.825 Q607.591 573.529 608.11 572.973 Q613.556 567.117 613.593 559.927 Q613.593 558.778 613.445 558.778 L613.26 558.927 Q611.963 560.001 610.407 560.001 Q608.517 560.001 607.443 558.778 Z" fill="#000000" fill-rule="evenodd" fill-opacity="1" /><path clip-path="url(#clip660)" d="M648.533 560.001 L648.533 557.666 Q652.571 557.666 653.498 557.185 Q654.424 556.666 654.424 554.22 L654.424 533.873 Q654.424 531.056 653.424 530.352 Q652.46 529.648 648.533 529.648 L648.533 527.276 L659.204 526.46 L659.204 534.429 Q662.761 526.46 670.43 526.46 Q676.136 526.46 678.396 529.277 Q680.064 531.167 680.397 533.28 Q680.768 535.392 680.768 540.877 L680.768 555.369 Q680.842 556.962 682.064 557.333 Q683.287 557.666 686.696 557.666 L686.696 560.001 Q678.952 559.779 678.174 559.779 Q677.581 559.779 669.615 560.001 L669.615 557.666 Q673.654 557.666 674.58 557.185 Q675.543 556.666 675.543 554.22 L675.543 536.541 Q675.543 532.687 674.358 530.426 Q673.172 528.128 669.912 528.128 Q665.984 528.128 662.835 531.427 Q659.685 534.725 659.685 540.284 L659.685 554.22 Q659.685 556.666 660.612 557.185 Q661.575 557.666 665.577 557.666 L665.577 560.001 Q657.833 559.779 657.092 559.779 Q656.499 559.779 648.533 560.001 Z" fill="#000000" fill-rule="evenodd" fill-opacity="1" /><path clip-path="url(#clip660)" d="M695.292 555.925 Q690.29 550.958 690.29 543.768 Q690.29 536.541 695.181 531.278 Q700.108 525.979 707.148 525.979 Q714.04 525.979 718.968 531.241 Q723.933 536.467 723.933 543.768 Q723.933 550.921 718.931 555.887 Q713.966 560.854 707.074 560.854 Q700.331 560.854 695.292 555.925 M696.589 543.138 Q696.589 550.513 698.515 553.849 Q701.479 558.927 707.148 558.927 Q709.964 558.927 712.298 557.407 Q714.67 555.887 715.966 553.33 Q717.634 549.995 717.634 543.138 Q717.634 535.837 715.633 532.613 Q712.669 527.683 707.074 527.683 Q704.629 527.683 702.22 528.981 Q699.849 530.241 698.404 532.761 Q696.589 536.096 696.589 543.138 Z" fill="#000000" fill-rule="evenodd" fill-opacity="1" /><path clip-path="url(#clip660)" d="M752.796 529.648 L752.796 527.98 Q756.278 527.832 758.576 525.386 Q760.91 522.902 761.688 519.863 Q762.503 516.824 762.577 513.303 L764.467 513.303 L764.467 527.276 L775.323 527.276 L775.323 529.648 L764.467 529.648 L764.467 550.736 Q764.467 558.927 769.58 558.927 Q771.766 558.927 773.211 556.703 Q774.656 554.442 774.656 550.439 L774.656 546.251 L776.546 546.251 L776.546 550.588 Q776.546 554.701 774.656 557.778 Q772.766 560.854 769.024 560.854 Q767.653 560.854 766.282 560.483 Q764.949 560.15 763.17 559.26 Q761.429 558.334 760.317 556.11 Q759.243 553.849 759.243 550.588 L759.243 529.648 L752.796 529.648 Z" fill="#000000" fill-rule="evenodd" fill-opacity="1" /><path clip-path="url(#clip660)" d="M783.215 560.001 L783.215 557.666 Q787.253 557.666 788.18 557.185 Q789.106 556.666 789.106 554.22 L789.106 514.749 Q789.106 511.932 788.106 511.228 Q787.142 510.524 783.215 510.524 L783.215 508.152 L794.108 507.336 L794.108 533.724 L794.182 533.724 Q795.405 530.982 798.147 528.721 Q800.888 526.46 805.112 526.46 Q810.818 526.46 813.078 529.277 Q814.746 531.167 815.079 533.28 Q815.45 535.392 815.45 540.877 L815.45 555.369 Q815.524 556.962 816.746 557.333 Q817.969 557.666 821.378 557.666 L821.378 560.001 Q813.634 559.779 812.856 559.779 Q812.263 559.779 804.297 560.001 L804.297 557.666 Q808.336 557.666 809.262 557.185 Q810.225 556.666 810.225 554.22 L810.225 536.541 Q810.225 532.687 809.04 530.426 Q807.854 528.128 804.594 528.128 Q800.666 528.128 797.517 531.427 Q794.367 534.725 794.367 540.284 L794.367 554.22 Q794.367 556.666 795.294 557.185 Q796.257 557.666 800.259 557.666 L800.259 560.001 Q792.515 559.779 791.774 559.779 Q791.181 559.779 783.215 560.001 Z" fill="#000000" fill-rule="evenodd" fill-opacity="1" /><path clip-path="url(#clip660)" d="M824.972 560.001 L824.972 557.666 Q829.01 557.666 829.937 557.185 Q830.9 556.666 830.9 554.22 L830.9 533.873 Q830.9 531.056 829.9 530.352 Q828.936 529.648 824.972 529.648 L824.972 527.276 L835.532 526.46 L835.532 534.799 Q836.606 531.538 838.866 529.018 Q841.163 526.46 844.868 526.46 Q847.314 526.46 848.87 527.832 Q850.463 529.203 850.463 531.093 Q850.463 532.761 849.426 533.613 Q848.425 534.429 847.203 534.429 Q845.832 534.429 844.868 533.576 Q843.942 532.687 843.942 531.167 Q843.942 530.241 844.35 529.536 Q844.794 528.795 845.128 528.536 Q845.461 528.276 845.684 528.202 Q845.535 528.128 844.868 528.128 Q840.682 528.128 838.273 532.316 Q835.902 536.467 835.902 542.397 L835.902 554.071 Q835.902 556.258 836.791 556.962 Q837.718 557.666 841.682 557.666 L843.275 557.666 L843.275 560.001 Q840.237 559.779 833.642 559.779 Q832.716 559.779 831.271 559.816 Q829.826 559.853 827.936 559.927 Q826.046 560.001 824.972 560.001 Z" fill="#000000" fill-rule="evenodd" fill-opacity="1" /><path clip-path="url(#clip660)" d="M854.613 543.286 Q854.613 536.133 859.207 531.056 Q863.802 525.979 870.397 525.979 Q877.066 525.979 880.512 530.315 Q883.995 534.651 883.995 540.877 Q883.995 542.026 883.698 542.249 Q883.402 542.471 882.105 542.471 L860.912 542.471 Q860.912 550.217 863.209 553.849 Q866.395 558.927 871.768 558.927 Q872.509 558.927 873.398 558.778 Q874.287 558.63 876.103 558 Q877.918 557.333 879.512 555.591 Q881.105 553.849 882.031 551.106 Q882.253 550.032 882.994 550.069 Q883.995 550.069 883.995 550.958 Q883.995 551.625 883.254 553.145 Q882.55 554.627 881.179 556.406 Q879.808 558.185 877.14 559.52 Q874.51 560.854 871.323 560.854 Q864.654 560.854 859.615 555.813 Q854.613 550.736 854.613 543.286 M860.986 540.877 L878.993 540.877 Q878.993 539.284 878.696 537.505 Q878.437 535.726 877.622 533.28 Q876.844 530.797 874.991 529.24 Q873.139 527.683 870.397 527.683 Q869.174 527.683 867.84 528.202 Q866.544 528.721 864.95 529.981 Q863.357 531.241 862.246 534.095 Q861.134 536.949 860.986 540.877 Z" fill="#000000" fill-rule="evenodd" fill-opacity="1" /><path clip-path="url(#clip660)" d="M888.7 559.001 L888.7 548.994 Q888.7 548.142 888.737 547.845 Q888.774 547.549 888.997 547.326 Q889.219 547.104 889.664 547.104 Q890.182 547.104 890.368 547.326 Q890.59 547.549 890.738 548.401 Q891.887 553.627 894.332 556.406 Q896.815 559.149 901.298 559.149 Q905.559 559.149 907.708 557.259 Q909.857 555.369 909.857 552.255 Q909.857 546.696 901.965 545.288 Q897.407 544.361 895.518 543.768 Q893.628 543.138 891.961 541.767 Q888.7 539.098 888.7 535.318 Q888.7 531.538 891.553 528.758 Q894.443 525.979 900.816 525.979 Q905.077 525.979 907.967 528.128 Q908.819 527.461 909.264 526.905 Q910.264 525.979 910.783 525.979 Q911.376 525.979 911.487 526.386 Q911.598 526.757 911.598 527.832 L911.598 535.466 Q911.598 536.319 911.561 536.615 Q911.524 536.912 911.302 537.134 Q911.079 537.319 910.598 537.319 Q909.746 537.319 909.709 536.615 Q909.116 527.424 900.816 527.424 Q896.333 527.424 894.332 529.166 Q892.331 530.871 892.331 533.206 Q892.331 534.503 892.924 535.503 Q893.554 536.467 894.332 537.06 Q895.147 537.616 896.629 538.172 Q898.111 538.691 899.001 538.876 Q899.927 539.061 901.668 539.432 Q907.745 540.581 910.301 543.064 Q913.488 546.251 913.488 550.291 Q913.488 554.776 910.45 557.815 Q907.411 560.854 901.298 560.854 Q896.37 560.854 892.924 557.555 Q892.48 558 892.146 558.408 Q891.813 558.778 891.664 558.927 Q891.553 559.075 891.516 559.186 Q891.479 559.26 891.405 559.334 Q889.886 560.854 889.515 560.854 Q888.923 560.854 888.812 560.446 Q888.7 560.075 888.7 559.001 Z" fill="#000000" fill-rule="evenodd" fill-opacity="1" /><path clip-path="url(#clip660)" d="M918.49 560.001 L918.49 557.666 Q922.528 557.666 923.455 557.185 Q924.381 556.666 924.381 554.22 L924.381 514.749 Q924.381 511.932 923.381 511.228 Q922.417 510.524 918.49 510.524 L918.49 508.152 L929.383 507.336 L929.383 533.724 L929.457 533.724 Q930.68 530.982 933.421 528.721 Q936.163 526.46 940.387 526.46 Q946.093 526.46 948.353 529.277 Q950.021 531.167 950.354 533.28 Q950.724 535.392 950.724 540.877 L950.724 555.369 Q950.799 556.962 952.021 557.333 Q953.244 557.666 956.653 557.666 L956.653 560.001 Q948.909 559.779 948.131 559.779 Q947.538 559.779 939.572 560.001 L939.572 557.666 Q943.611 557.666 944.537 557.185 Q945.5 556.666 945.5 554.22 L945.5 536.541 Q945.5 532.687 944.315 530.426 Q943.129 528.128 939.868 528.128 Q935.941 528.128 932.792 531.427 Q929.642 534.725 929.642 540.284 L929.642 554.22 Q929.642 556.666 930.568 557.185 Q931.532 557.666 935.533 557.666 L935.533 560.001 Q927.79 559.779 927.049 559.779 Q926.456 559.779 918.49 560.001 Z" fill="#000000" fill-rule="evenodd" fill-opacity="1" /><path clip-path="url(#clip660)" d="M965.249 555.925 Q960.247 550.958 960.247 543.768 Q960.247 536.541 965.137 531.278 Q970.065 525.979 977.105 525.979 Q983.997 525.979 988.925 531.241 Q993.889 536.467 993.889 543.768 Q993.889 550.921 988.887 555.887 Q983.923 560.854 977.031 560.854 Q970.288 560.854 965.249 555.925 M966.545 543.138 Q966.545 550.513 968.472 553.849 Q971.436 558.927 977.105 558.927 Q979.921 558.927 982.255 557.407 Q984.627 555.887 985.923 553.33 Q987.591 549.995 987.591 543.138 Q987.591 535.837 985.59 532.613 Q982.626 527.683 977.031 527.683 Q974.586 527.683 972.177 528.981 Q969.806 530.241 968.361 532.761 Q966.545 536.096 966.545 543.138 Z" fill="#000000" fill-rule="evenodd" fill-opacity="1" /><path clip-path="url(#clip660)" d="M998.595 560.001 L998.595 557.666 Q1002.63 557.666 1003.56 557.185 Q1004.49 556.666 1004.49 554.22 L1004.49 514.749 Q1004.49 511.932 1003.49 511.228 Q1002.52 510.524 998.595 510.524 L998.595 508.152 L1009.49 507.336 L1009.49 554.22 Q1009.49 556.666 1010.45 557.185 Q1011.41 557.666 1015.42 557.666 L1015.42 560.001 Q1014.49 560.001 1012.56 559.927 Q1010.64 559.853 1009.23 559.816 Q1007.82 559.779 1007.01 559.779 Q1006.12 559.779 998.595 560.001 Z" fill="#000000" fill-rule="evenodd" fill-opacity="1" /><path clip-path="url(#clip660)" d="M1019.68 543.694 Q1019.68 536.467 1024.72 531.464 Q1029.76 526.46 1036.57 526.46 Q1042.35 526.46 1046.13 531.167 L1046.13 514.749 Q1046.13 511.932 1045.13 511.228 Q1044.17 510.524 1040.24 510.524 L1040.24 508.152 L1051.17 507.336 L1051.17 553.404 Q1051.17 556.221 1052.13 556.962 Q1053.13 557.666 1057.06 557.666 L1057.06 560.001 L1045.91 560.854 L1045.91 555.813 Q1041.98 560.817 1035.76 560.854 Q1029.24 560.854 1024.46 555.85 Q1019.68 550.847 1019.68 543.694 M1025.98 543.768 Q1025.98 550.81 1028.16 554.294 Q1031.2 559.149 1036.13 559.149 Q1041.76 559.149 1045.09 553.849 Q1045.95 552.552 1045.91 551.032 L1045.91 535.466 Q1045.91 533.947 1045.09 532.687 Q1041.98 528.128 1036.91 528.128 Q1031.61 528.128 1028.31 532.983 Q1025.98 536.615 1025.98 543.768 Z" fill="#000000" fill-rule="evenodd" fill-opacity="1" /><polyline clip-path="url(#clip660)" style="stroke:#87c55f; stroke-linecap:round; stroke-linejoin:round; stroke-width:18.0033; stroke-opacity:1; fill:none" stroke-dasharray="72, 36, 9, 36" points="324.829,611.851 417.964,611.851 "/>
<path clip-path="url(#clip660)" d="M433.486 611.832 Q433.486 600.38 441.304 592.338 Q449.122 584.258 459.867 584.258 Q463.202 584.258 466.166 585.481 Q469.13 586.704 470.501 587.779 Q471.872 588.817 473.835 590.781 L477.652 585.185 Q478.244 584.258 478.837 584.258 Q479.467 584.258 479.578 584.629 Q479.689 584.962 479.689 586.074 L479.689 604.086 Q479.689 605.309 479.541 605.606 Q479.393 605.902 478.467 605.902 Q477.726 605.902 477.54 605.68 Q477.392 605.458 477.244 604.605 Q476.095 596.415 471.538 591.522 Q467.018 586.63 460.719 586.63 Q458.904 586.63 456.866 587.038 Q454.865 587.446 451.938 589.002 Q449.048 590.559 446.788 593.153 Q444.565 595.71 442.934 600.603 Q441.304 605.458 441.304 611.906 Q441.304 618.281 442.934 623.173 Q444.565 628.065 446.788 630.623 Q449.048 633.143 451.938 634.7 Q454.865 636.256 456.903 636.701 Q458.978 637.109 460.793 637.109 Q467.314 637.109 472.316 632.476 Q477.318 627.843 477.8 620.023 Q477.874 619.652 477.874 619.504 Q477.874 619.319 477.948 619.134 Q478.022 618.948 478.207 618.874 Q478.393 618.8 478.689 618.8 Q479.689 618.8 479.689 620.097 Q479.689 627.324 474.132 633.402 Q468.611 639.443 459.867 639.443 Q449.085 639.443 441.267 631.438 Q433.486 623.433 433.486 611.832 Z" fill="#000000" fill-rule="evenodd" fill-opacity="1" /><path clip-path="url(#clip660)" d="M486.507 637.776 L486.507 635.441 L488.322 635.441 Q492.435 635.441 493.361 634.774 Q494.325 634.069 494.325 631.846 L494.325 591.856 Q494.325 589.669 493.361 589.002 Q492.398 588.298 488.322 588.298 L486.507 588.298 L486.507 585.926 Q489.175 586.148 497.733 586.148 Q506.218 586.148 508.886 585.926 L508.886 588.298 L507.07 588.298 Q502.958 588.298 501.994 589.002 Q501.068 589.669 501.068 591.856 L501.068 615.983 L524.818 593.301 Q526.189 592.078 526.189 590.781 Q526.189 590.336 525.967 589.855 Q525.781 589.336 524.892 588.817 Q524.04 588.298 522.669 588.298 L522.669 585.926 Q525.263 586.148 532.34 586.148 Q536.823 586.148 538.786 585.926 L538.786 588.298 Q532.488 588.372 528.004 592.857 L514.333 605.977 L531.858 631.772 Q533.451 634.107 535.007 634.774 Q536.563 635.441 539.824 635.441 L539.824 637.776 Q535.044 637.553 531.117 637.553 Q522.928 637.553 520.261 637.776 L520.261 635.441 Q524.744 635.441 524.744 633.143 Q524.744 632.29 523.595 630.549 L509.849 610.239 L501.068 618.578 L501.068 631.846 Q501.068 634.032 501.994 634.737 Q502.958 635.441 507.07 635.441 L508.886 635.441 L508.886 637.776 Q506.218 637.553 497.659 637.553 Q489.175 637.553 486.507 637.776 Z" fill="#000000" fill-rule="evenodd" fill-opacity="1" /><path clip-path="url(#clip660)" d="M545.382 637.776 L545.382 635.441 Q552.125 635.293 553.866 630.326 L569.576 584.962 Q569.873 584.036 570.206 583.739 Q570.54 583.443 571.392 583.443 Q571.836 583.443 572.096 583.517 Q572.392 583.591 572.577 583.851 Q572.763 584.11 572.837 584.258 Q572.911 584.407 573.133 584.962 L589.51 632.402 Q590.103 634.292 591.325 634.885 Q592.548 635.441 595.994 635.441 L597.328 635.441 L597.328 637.776 Q592.548 637.553 587.398 637.553 Q579.21 637.553 576.468 637.776 L576.468 635.441 Q582.767 635.441 582.767 633.143 Q582.767 632.995 582.544 632.068 L578.543 620.468 L559.795 620.468 L556.275 630.4 Q556.127 630.697 556.127 631.549 Q556.127 633.143 557.609 634.292 Q559.091 635.441 561.832 635.441 L561.832 637.776 Q554.533 637.553 553.088 637.553 Q550.606 637.553 545.382 637.776 M560.61 618.133 L577.69 618.133 L569.132 593.45 L560.61 618.133 Z" fill="#000000" fill-rule="evenodd" fill-opacity="1" /><path clip-path="url(#clip660)" d="M607.443 636.553 Q606.368 635.33 606.368 633.736 Q606.368 632.142 607.406 630.956 Q608.48 629.733 610.407 629.733 Q612.667 629.733 613.964 631.92 Q615.261 634.069 615.261 637.702 Q615.261 641.63 613.667 645.262 Q612.074 648.931 610.518 650.673 Q608.962 652.415 608.332 652.415 Q607.591 652.415 607.591 651.6 Q607.591 651.303 608.11 650.747 Q613.556 644.892 613.593 637.702 Q613.593 636.553 613.445 636.553 L613.26 636.701 Q611.963 637.776 610.407 637.776 Q608.517 637.776 607.443 636.553 Z" fill="#000000" fill-rule="evenodd" fill-opacity="1" /><path clip-path="url(#clip660)" d="M648.348 610.609 Q648.348 610.535 648.496 610.016 Q648.681 609.46 649.163 608.645 Q649.644 607.793 650.274 607.014 Q650.941 606.199 652.09 605.643 Q653.238 605.05 654.572 605.05 Q654.72 605.05 654.943 605.087 Q655.202 605.124 655.276 605.124 L675.914 605.124 Q676.914 605.124 677.285 605.458 Q677.655 605.754 677.655 606.866 L677.655 608.386 Q677.655 609.46 677.211 609.757 Q676.803 610.053 675.914 610.053 L663.835 610.053 L663.835 620.32 Q663.835 632.846 669.171 632.846 Q670.393 632.846 671.653 631.994 Q672.95 631.105 673.246 631.105 Q674.469 631.105 674.469 633.291 Q674.469 635.404 672.95 637.034 Q671.431 638.628 669.171 638.628 Q666.725 638.628 665.132 637.183 Q663.539 635.737 662.872 632.995 Q662.242 630.252 662.094 628.177 Q661.945 626.101 661.945 622.988 L661.945 610.053 L656.165 610.053 Q655.943 610.053 655.536 610.016 Q655.128 609.979 654.906 609.979 Q652.794 609.979 651.015 610.758 Q649.274 611.499 649.2 611.499 Q648.348 611.536 648.348 610.609 Z" fill="#000000" fill-rule="evenodd" fill-opacity="1" /><path clip-path="url(#clip660)" d="M710.372 626.249 Q710.446 625.323 711.891 625.323 L758.39 625.323 Q760.576 625.323 760.613 626.175 Q760.613 627.102 758.539 627.065 L712.41 627.065 Q710.372 627.102 710.372 626.249 M710.372 611.425 Q710.372 610.498 711.965 610.535 L758.316 610.535 Q760.576 610.535 760.613 611.425 Q760.613 612.277 758.687 612.277 L711.891 612.277 Q710.372 612.277 710.372 611.425 Z" fill="#000000" fill-rule="evenodd" fill-opacity="1" /><path clip-path="url(#clip660)" d="M797.035 594.45 L797.035 592.078 Q806.15 592.078 810.855 587.223 Q812.152 587.223 812.374 587.52 Q812.597 587.816 812.597 589.188 L812.597 631.772 Q812.597 634.032 813.708 634.737 Q814.82 635.441 819.674 635.441 L822.082 635.441 L822.082 637.776 Q819.414 637.553 809.781 637.553 Q800.147 637.553 797.517 637.776 L797.517 635.441 L799.925 635.441 Q804.705 635.441 805.853 634.774 Q807.002 634.069 807.002 631.772 L807.002 592.449 Q803.037 594.45 797.035 594.45 Z" fill="#000000" fill-rule="evenodd" fill-opacity="1" /><path clip-path="url(#clip660)" d="M831.197 613.5 Q831.197 602.345 834.012 596.266 Q837.94 587.223 847.203 587.223 Q849.166 587.223 851.204 587.779 Q853.279 588.298 855.873 590.336 Q858.503 592.375 860.097 595.71 Q863.135 602.159 863.135 613.5 Q863.135 624.582 860.319 630.623 Q856.206 639.443 847.129 639.443 Q843.72 639.443 840.237 637.702 Q836.791 635.96 834.605 631.772 Q831.197 625.508 831.197 613.5 M837.495 612.574 Q837.495 624.026 838.31 628.584 Q839.237 633.514 841.756 635.663 Q844.313 637.776 847.129 637.776 Q850.167 637.776 852.686 635.515 Q855.243 633.217 856.021 628.288 Q856.873 623.433 856.836 612.574 Q856.836 602.011 856.095 597.786 Q855.095 592.857 852.427 590.892 Q849.796 588.891 847.129 588.891 Q846.128 588.891 845.054 589.188 Q844.016 589.484 842.497 590.336 Q840.978 591.189 839.792 593.301 Q838.644 595.414 838.088 598.601 Q837.495 602.715 837.495 612.574 Z" fill="#000000" fill-rule="evenodd" fill-opacity="1" /><path clip-path="url(#clip660)" d="M869.137 613.5 Q869.137 602.345 871.953 596.266 Q875.881 587.223 885.143 587.223 Q887.107 587.223 889.145 587.779 Q891.22 588.298 893.813 590.336 Q896.444 592.375 898.037 595.71 Q901.076 602.159 901.076 613.5 Q901.076 624.582 898.26 630.623 Q894.147 639.443 885.069 639.443 Q881.661 639.443 878.178 637.702 Q874.732 635.96 872.546 631.772 Q869.137 625.508 869.137 613.5 M875.436 612.574 Q875.436 624.026 876.251 628.584 Q877.177 633.514 879.697 635.663 Q882.253 637.776 885.069 637.776 Q888.108 637.776 890.627 635.515 Q893.184 633.217 893.962 628.288 Q894.814 623.433 894.777 612.574 Q894.777 602.011 894.036 597.786 Q893.035 592.857 890.368 590.892 Q887.737 588.891 885.069 588.891 Q884.069 588.891 882.994 589.188 Q881.957 589.484 880.438 590.336 Q878.919 591.189 877.733 593.301 Q876.585 595.414 876.029 598.601 Q875.436 602.715 875.436 612.574 Z" fill="#000000" fill-rule="evenodd" fill-opacity="1" /><path clip-path="url(#clip660)" d="M907.078 613.5 Q907.078 602.345 909.894 596.266 Q913.821 587.223 923.084 587.223 Q925.048 587.223 927.086 587.779 Q929.161 588.298 931.754 590.336 Q934.385 592.375 935.978 595.71 Q939.016 602.159 939.016 613.5 Q939.016 624.582 936.2 630.623 Q932.088 639.443 923.01 639.443 Q919.601 639.443 916.118 637.702 Q912.673 635.96 910.487 631.772 Q907.078 625.508 907.078 613.5 M913.377 612.574 Q913.377 624.026 914.192 628.584 Q915.118 633.514 917.638 635.663 Q920.194 637.776 923.01 637.776 Q926.048 637.776 928.568 635.515 Q931.124 633.217 931.902 628.288 Q932.755 623.433 932.717 612.574 Q932.717 602.011 931.976 597.786 Q930.976 592.857 928.308 590.892 Q925.678 588.891 923.01 588.891 Q922.01 588.891 920.935 589.188 Q919.898 589.484 918.379 590.336 Q916.859 591.189 915.674 593.301 Q914.525 595.414 913.969 598.601 Q913.377 602.715 913.377 612.574 Z" fill="#000000" fill-rule="evenodd" fill-opacity="1" /><polyline clip-path="url(#clip660)" style="stroke:#f89c74; stroke-linecap:round; stroke-linejoin:round; stroke-width:18.0033; stroke-opacity:1; fill:none" stroke-dasharray="9, 18" points="324.829,689.625 417.964,689.625 "/>
<path clip-path="url(#clip660)" d="M433.486 689.607 Q433.486 678.155 441.304 670.112 Q449.122 662.033 459.867 662.033 Q463.202 662.033 466.166 663.256 Q469.13 664.479 470.501 665.554 Q471.872 666.591 473.835 668.556 L477.652 662.959 Q478.244 662.033 478.837 662.033 Q479.467 662.033 479.578 662.403 Q479.689 662.737 479.689 663.849 L479.689 681.861 Q479.689 683.084 479.541 683.38 Q479.393 683.677 478.467 683.677 Q477.726 683.677 477.54 683.454 Q477.392 683.232 477.244 682.38 Q476.095 674.189 471.538 669.297 Q467.018 664.405 460.719 664.405 Q458.904 664.405 456.866 664.812 Q454.865 665.22 451.938 666.777 Q449.048 668.333 446.788 670.927 Q444.565 673.485 442.934 678.377 Q441.304 683.232 441.304 689.681 Q441.304 696.055 442.934 700.948 Q444.565 705.84 446.788 708.397 Q449.048 710.917 451.938 712.474 Q454.865 714.03 456.903 714.475 Q458.978 714.883 460.793 714.883 Q467.314 714.883 472.316 710.25 Q477.318 705.617 477.8 697.797 Q477.874 697.427 477.874 697.278 Q477.874 697.093 477.948 696.908 Q478.022 696.723 478.207 696.648 Q478.393 696.574 478.689 696.574 Q479.689 696.574 479.689 697.871 Q479.689 705.099 474.132 711.177 Q468.611 717.218 459.867 717.218 Q449.085 717.218 441.267 709.212 Q433.486 701.207 433.486 689.607 Z" fill="#000000" fill-rule="evenodd" fill-opacity="1" /><path clip-path="url(#clip660)" d="M486.507 715.55 L486.507 713.215 L488.322 713.215 Q492.435 713.215 493.361 712.548 Q494.325 711.844 494.325 709.62 L494.325 669.63 Q494.325 667.444 493.361 666.777 Q492.398 666.072 488.322 666.072 L486.507 666.072 L486.507 663.7 Q489.175 663.923 497.733 663.923 Q506.218 663.923 508.886 663.7 L508.886 666.072 L507.07 666.072 Q502.958 666.072 501.994 666.777 Q501.068 667.444 501.068 669.63 L501.068 693.758 L524.818 671.076 Q526.189 669.853 526.189 668.556 Q526.189 668.111 525.967 667.629 Q525.781 667.11 524.892 666.591 Q524.04 666.072 522.669 666.072 L522.669 663.7 Q525.263 663.923 532.34 663.923 Q536.823 663.923 538.786 663.7 L538.786 666.072 Q532.488 666.147 528.004 670.631 L514.333 683.751 L531.858 709.546 Q533.451 711.881 535.007 712.548 Q536.563 713.215 539.824 713.215 L539.824 715.55 Q535.044 715.328 531.117 715.328 Q522.928 715.328 520.261 715.55 L520.261 713.215 Q524.744 713.215 524.744 710.917 Q524.744 710.065 523.595 708.323 L509.849 688.013 L501.068 696.352 L501.068 709.62 Q501.068 711.807 501.994 712.511 Q502.958 713.215 507.07 713.215 L508.886 713.215 L508.886 715.55 Q506.218 715.328 497.659 715.328 Q489.175 715.328 486.507 715.55 Z" fill="#000000" fill-rule="evenodd" fill-opacity="1" /><path clip-path="url(#clip660)" d="M545.382 715.55 L545.382 713.215 Q552.125 713.067 553.866 708.101 L569.576 662.737 Q569.873 661.81 570.206 661.514 Q570.54 661.217 571.392 661.217 Q571.836 661.217 572.096 661.291 Q572.392 661.366 572.577 661.625 Q572.763 661.884 572.837 662.033 Q572.911 662.181 573.133 662.737 L589.51 710.176 Q590.103 712.066 591.325 712.659 Q592.548 713.215 595.994 713.215 L597.328 713.215 L597.328 715.55 Q592.548 715.328 587.398 715.328 Q579.21 715.328 576.468 715.55 L576.468 713.215 Q582.767 713.215 582.767 710.917 Q582.767 710.769 582.544 709.842 L578.543 698.242 L559.795 698.242 L556.275 708.175 Q556.127 708.471 556.127 709.324 Q556.127 710.917 557.609 712.066 Q559.091 713.215 561.832 713.215 L561.832 715.55 Q554.533 715.328 553.088 715.328 Q550.606 715.328 545.382 715.55 M560.61 695.907 L577.69 695.907 L569.132 671.224 L560.61 695.907 Z" fill="#000000" fill-rule="evenodd" fill-opacity="1" /><path clip-path="url(#clip660)" d="M607.443 714.327 Q606.368 713.104 606.368 711.51 Q606.368 709.917 607.406 708.731 Q608.48 707.508 610.407 707.508 Q612.667 707.508 613.964 709.694 Q615.261 711.844 615.261 715.476 Q615.261 719.404 613.667 723.036 Q612.074 726.706 610.518 728.448 Q608.962 730.189 608.332 730.189 Q607.591 730.189 607.591 729.374 Q607.591 729.078 608.11 728.522 Q613.556 722.666 613.593 715.476 Q613.593 714.327 613.445 714.327 L613.26 714.475 Q611.963 715.55 610.407 715.55 Q608.517 715.55 607.443 714.327 Z" fill="#000000" fill-rule="evenodd" fill-opacity="1" /><path clip-path="url(#clip660)" d="M648.348 688.384 Q648.348 688.31 648.496 687.791 Q648.681 687.235 649.163 686.419 Q649.644 685.567 650.274 684.789 Q650.941 683.973 652.09 683.417 Q653.238 682.824 654.572 682.824 Q654.72 682.824 654.943 682.861 Q655.202 682.898 655.276 682.898 L675.914 682.898 Q676.914 682.898 677.285 683.232 Q677.655 683.529 677.655 684.64 L677.655 686.16 Q677.655 687.235 677.211 687.531 Q676.803 687.828 675.914 687.828 L663.835 687.828 L663.835 698.094 Q663.835 710.621 669.171 710.621 Q670.393 710.621 671.653 709.768 Q672.95 708.879 673.246 708.879 Q674.469 708.879 674.469 711.065 Q674.469 713.178 672.95 714.809 Q671.431 716.402 669.171 716.402 Q666.725 716.402 665.132 714.957 Q663.539 713.512 662.872 710.769 Q662.242 708.026 662.094 705.951 Q661.945 703.875 661.945 700.762 L661.945 687.828 L656.165 687.828 Q655.943 687.828 655.536 687.791 Q655.128 687.754 654.906 687.754 Q652.794 687.754 651.015 688.532 Q649.274 689.273 649.2 689.273 Q648.348 689.31 648.348 688.384 Z" fill="#000000" fill-rule="evenodd" fill-opacity="1" /><path clip-path="url(#clip660)" d="M710.372 704.024 Q710.446 703.097 711.891 703.097 L758.39 703.097 Q760.576 703.097 760.613 703.95 Q760.613 704.876 758.539 704.839 L712.41 704.839 Q710.372 704.876 710.372 704.024 M710.372 689.199 Q710.372 688.272 711.965 688.31 L758.316 688.31 Q760.576 688.31 760.613 689.199 Q760.613 690.051 758.687 690.051 L711.891 690.051 Q710.372 690.051 710.372 689.199 Z" fill="#000000" fill-rule="evenodd" fill-opacity="1" /><path clip-path="url(#clip660)" d="M797.035 672.225 L797.035 669.853 Q806.15 669.853 810.855 664.998 Q812.152 664.998 812.374 665.294 Q812.597 665.591 812.597 666.962 L812.597 709.546 Q812.597 711.807 813.708 712.511 Q814.82 713.215 819.674 713.215 L822.082 713.215 L822.082 715.55 Q819.414 715.328 809.781 715.328 Q800.147 715.328 797.517 715.55 L797.517 713.215 L799.925 713.215 Q804.705 713.215 805.853 712.548 Q807.002 711.844 807.002 709.546 L807.002 670.223 Q803.037 672.225 797.035 672.225 Z" fill="#000000" fill-rule="evenodd" fill-opacity="1" /><path clip-path="url(#clip660)" d="M831.197 691.274 Q831.197 680.119 834.012 674.041 Q837.94 664.998 847.203 664.998 Q849.166 664.998 851.204 665.554 Q853.279 666.072 855.873 668.111 Q858.503 670.149 860.097 673.485 Q863.135 679.934 863.135 691.274 Q863.135 702.356 860.319 708.397 Q856.206 717.218 847.129 717.218 Q843.72 717.218 840.237 715.476 Q836.791 713.734 834.605 709.546 Q831.197 703.282 831.197 691.274 M837.495 690.348 Q837.495 701.8 838.31 706.359 Q839.237 711.288 841.756 713.437 Q844.313 715.55 847.129 715.55 Q850.167 715.55 852.686 713.289 Q855.243 710.991 856.021 706.062 Q856.873 701.207 856.836 690.348 Q856.836 679.785 856.095 675.56 Q855.095 670.631 852.427 668.667 Q849.796 666.665 847.129 666.665 Q846.128 666.665 845.054 666.962 Q844.016 667.258 842.497 668.111 Q840.978 668.963 839.792 671.076 Q838.644 673.188 838.088 676.376 Q837.495 680.489 837.495 690.348 Z" fill="#000000" fill-rule="evenodd" fill-opacity="1" /><path clip-path="url(#clip660)" d="M869.137 691.274 Q869.137 680.119 871.953 674.041 Q875.881 664.998 885.143 664.998 Q887.107 664.998 889.145 665.554 Q891.22 666.072 893.813 668.111 Q896.444 670.149 898.037 673.485 Q901.076 679.934 901.076 691.274 Q901.076 702.356 898.26 708.397 Q894.147 717.218 885.069 717.218 Q881.661 717.218 878.178 715.476 Q874.732 713.734 872.546 709.546 Q869.137 703.282 869.137 691.274 M875.436 690.348 Q875.436 701.8 876.251 706.359 Q877.177 711.288 879.697 713.437 Q882.253 715.55 885.069 715.55 Q888.108 715.55 890.627 713.289 Q893.184 710.991 893.962 706.062 Q894.814 701.207 894.777 690.348 Q894.777 679.785 894.036 675.56 Q893.035 670.631 890.368 668.667 Q887.737 666.665 885.069 666.665 Q884.069 666.665 882.994 666.962 Q881.957 667.258 880.438 668.111 Q878.919 668.963 877.733 671.076 Q876.585 673.188 876.029 676.376 Q875.436 680.489 875.436 690.348 Z" fill="#000000" fill-rule="evenodd" fill-opacity="1" /><polyline clip-path="url(#clip660)" style="stroke:#f6cf71; stroke-linecap:round; stroke-linejoin:round; stroke-width:18.0033; stroke-opacity:1; fill:none" stroke-dasharray="72, 45" points="324.829,767.4 417.964,767.4 "/>
<path clip-path="url(#clip660)" d="M433.486 793.324 L433.486 790.989 L435.302 790.989 Q439.414 790.989 440.341 790.322 Q441.304 789.618 441.304 787.394 L441.304 747.405 Q441.304 745.218 440.341 744.551 Q439.377 743.847 435.302 743.847 L433.486 743.847 L433.486 741.475 L461.238 741.475 Q468.463 741.475 473.28 745.366 Q478.096 749.221 478.096 754.298 Q478.096 758.486 474.539 761.822 Q471.019 765.157 465.499 766.232 Q471.797 766.899 475.947 770.717 Q480.134 774.497 480.134 779.426 Q480.134 784.985 475.354 789.173 Q470.575 793.324 463.239 793.324 L433.486 793.324 M447.603 787.95 Q447.603 789.915 448.159 790.471 Q448.714 790.989 451.308 790.989 L460.793 790.989 Q466.24 790.989 469.389 787.431 Q472.538 783.836 472.538 779.352 Q472.538 774.867 469.76 771.05 Q467.018 767.196 461.868 767.196 L447.603 767.196 L447.603 787.95 M447.603 765.528 L458.607 765.528 Q464.461 765.528 467.574 762.007 Q470.723 758.486 470.723 754.298 Q470.723 750.592 468.203 747.219 Q465.721 743.847 460.719 743.847 L451.308 743.847 Q448.714 743.847 448.159 744.366 Q447.603 744.884 447.603 746.886 L447.603 765.528 Z" fill="#000000" fill-rule="evenodd" fill-opacity="1" /><path clip-path="url(#clip660)" d="M487.1 793.324 L487.1 790.989 L488.915 790.989 Q493.028 790.989 493.954 790.322 Q494.918 789.618 494.918 787.394 L494.918 747.405 Q494.918 745.218 493.954 744.551 Q492.991 743.847 488.915 743.847 L487.1 743.847 L487.1 741.475 L513.888 741.475 Q521.558 741.475 526.671 745.7 Q531.784 749.925 531.784 755.595 Q531.784 761.229 526.559 765.306 Q521.372 769.345 514.481 769.345 L501.661 769.345 L501.661 787.394 Q501.661 789.581 502.587 790.285 Q503.551 790.989 507.663 790.989 L509.479 790.989 L509.479 793.324 Q506.811 793.102 498.252 793.102 Q489.767 793.102 487.1 793.324 M501.439 767.381 L511.887 767.381 Q515.296 767.381 517.778 766.417 Q520.261 765.454 521.372 764.305 Q522.521 763.119 523.151 761.229 Q523.818 759.302 523.892 758.264 Q523.966 757.189 523.966 755.595 Q523.966 753.928 523.892 752.89 Q523.818 751.815 523.151 749.925 Q522.521 747.998 521.372 746.849 Q520.261 745.663 517.778 744.773 Q515.333 743.847 511.887 743.847 L505.144 743.847 Q502.55 743.847 501.994 744.366 Q501.439 744.884 501.439 746.886 L501.439 767.381 Z" fill="#000000" fill-rule="evenodd" fill-opacity="1" /><path clip-path="url(#clip660)" d="M532.154 793.324 L532.154 790.989 Q538.898 790.841 540.639 785.875 L556.349 740.511 Q556.645 739.585 556.979 739.288 Q557.312 738.992 558.164 738.992 Q558.609 738.992 558.868 739.066 Q559.165 739.14 559.35 739.399 Q559.535 739.659 559.609 739.807 Q559.683 739.955 559.906 740.511 L576.283 787.95 Q576.875 789.84 578.098 790.433 Q579.321 790.989 582.767 790.989 L584.1 790.989 L584.1 793.324 Q579.321 793.102 574.171 793.102 Q565.982 793.102 563.24 793.324 L563.24 790.989 Q569.539 790.989 569.539 788.692 Q569.539 788.543 569.317 787.617 L565.315 776.016 L546.567 776.016 L543.047 785.949 Q542.899 786.245 542.899 787.098 Q542.899 788.692 544.381 789.84 Q545.863 790.989 548.605 790.989 L548.605 793.324 Q541.306 793.102 539.861 793.102 Q537.379 793.102 532.154 793.324 M547.382 773.682 L564.463 773.682 L555.904 748.998 L547.382 773.682 Z" fill="#000000" fill-rule="evenodd" fill-opacity="1" /><path clip-path="url(#clip660)" d="M591.548 759.857 Q591.548 758.56 593.289 757.708 L603.849 752.704 L593.141 747.701 Q591.548 746.96 591.548 745.663 Q591.548 744.922 592.141 744.254 Q592.77 743.55 593.586 743.55 Q594.178 743.55 595.253 744.366 L604.664 751.185 Q603.515 738.658 603.552 738.287 Q603.552 737.546 604.108 736.99 Q604.664 736.397 605.59 736.397 Q606.331 736.397 606.924 736.953 Q607.554 737.472 607.554 738.287 L606.442 751.185 L614.853 744.959 Q616.817 743.513 617.521 743.55 Q618.373 743.55 618.966 744.217 Q619.559 744.884 619.559 745.663 Q619.559 746.96 617.817 747.775 L607.258 752.779 L617.965 757.819 Q619.559 758.56 619.559 759.857 Q619.559 760.599 618.929 761.303 Q618.336 761.97 617.521 761.97 Q617.076 761.97 616.298 761.525 Q616.15 761.451 614.557 760.265 Q612.963 759.079 610.481 757.263 Q608.036 755.447 606.442 754.298 Q607.591 766.825 607.554 767.196 Q607.554 767.937 606.998 768.53 Q606.442 769.123 605.516 769.123 Q604.775 769.123 604.145 768.604 Q603.552 768.048 603.552 767.196 L604.664 754.298 L594.067 761.97 Q592.919 761.97 592.289 761.414 Q591.696 760.821 591.622 760.487 Q591.548 760.154 591.548 759.857 Z" fill="#000000" fill-rule="evenodd" fill-opacity="1" /></svg>
