<?xml version="1.0" encoding="utf-8"?>
<svg xmlns="http://www.w3.org/2000/svg" xmlns:xlink="http://www.w3.org/1999/xlink" width="426.75" height="263.5" viewBox="0 0 1707 1054">
<defs>
  <clipPath id="clip410">
    <rect x="0" y="0" width="1707" height="1054"/>
  </clipPath>
</defs>
<path clip-path="url(#clip410)" d="M0 1054 L1707 1054 L1707 0 L0 0  Z" fill="#ffffff" fill-rule="evenodd" fill-opacity="1"/>
<defs>
  <clipPath id="clip411">
    <rect x="341" y="0" width="1196" height="1054"/>
  </clipPath>
</defs>
<defs>
  <clipPath id="clip412">
    <rect x="242" y="47" width="1418" height="842"/>
  </clipPath>
</defs>
<path clip-path="url(#clip410)" d="M204.659 888.691 L1659.76 888.691 L1659.76 47.2528 L204.659 47.2528  Z" fill="#ffffff" fill-rule="evenodd" fill-opacity="1"/>
<defs>
  <clipPath id="clip413">
    <rect x="204" y="47" width="1456" height="842"/>
  </clipPath>
</defs>
<polyline clip-path="url(#clip413)" style="stroke:#000000; stroke-linecap:round; stroke-linejoin:round; stroke-width:2.00037; stroke-opacity:0.1; fill:none" points="204.659,888.691 204.659,47.2528 "/>
<polyline clip-path="url(#clip413)" style="stroke:#000000; stroke-linecap:round; stroke-linejoin:round; stroke-width:2.00037; stroke-opacity:0.1; fill:none" points="495.679,888.691 495.679,47.2528 "/>
<polyline clip-path="url(#clip413)" style="stroke:#000000; stroke-linecap:round; stroke-linejoin:round; stroke-width:2.00037; stroke-opacity:0.1; fill:none" points="786.699,888.691 786.699,47.2528 "/>
<polyline clip-path="url(#clip413)" style="stroke:#000000; stroke-linecap:round; stroke-linejoin:round; stroke-width:2.00037; stroke-opacity:0.1; fill:none" points="1077.72,888.691 1077.72,47.2528 "/>
<polyline clip-path="url(#clip413)" style="stroke:#000000; stroke-linecap:round; stroke-linejoin:round; stroke-width:2.00037; stroke-opacity:0.1; fill:none" points="1368.74,888.691 1368.74,47.2528 "/>
<polyline clip-path="url(#clip413)" style="stroke:#000000; stroke-linecap:round; stroke-linejoin:round; stroke-width:2.00037; stroke-opacity:0.1; fill:none" points="1659.76,888.691 1659.76,47.2528 "/>
<polyline clip-path="url(#clip410)" style="stroke:#000000; stroke-linecap:round; stroke-linejoin:round; stroke-width:4.00074; stroke-opacity:1; fill:none" points="204.659,888.691 1659.76,888.691 "/>
<polyline clip-path="url(#clip410)" style="stroke:#000000; stroke-linecap:round; stroke-linejoin:round; stroke-width:4.00074; stroke-opacity:1; fill:none" points="204.659,47.2528 1659.76,47.2528 "/>
<polyline clip-path="url(#clip410)" style="stroke:#000000; stroke-linecap:round; stroke-linejoin:round; stroke-width:4.00074; stroke-opacity:1; fill:none" points="204.659,888.691 204.659,869.79 "/>
<polyline clip-path="url(#clip410)" style="stroke:#000000; stroke-linecap:round; stroke-linejoin:round; stroke-width:4.00074; stroke-opacity:1; fill:none" points="495.679,888.691 495.679,869.79 "/>
<polyline clip-path="url(#clip410)" style="stroke:#000000; stroke-linecap:round; stroke-linejoin:round; stroke-width:4.00074; stroke-opacity:1; fill:none" points="786.699,888.691 786.699,869.79 "/>
<polyline clip-path="url(#clip410)" style="stroke:#000000; stroke-linecap:round; stroke-linejoin:round; stroke-width:4.00074; stroke-opacity:1; fill:none" points="1077.72,888.691 1077.72,869.79 "/>
<polyline clip-path="url(#clip410)" style="stroke:#000000; stroke-linecap:round; stroke-linejoin:round; stroke-width:4.00074; stroke-opacity:1; fill:none" points="1368.74,888.691 1368.74,869.79 "/>
<polyline clip-path="url(#clip410)" style="stroke:#000000; stroke-linecap:round; stroke-linejoin:round; stroke-width:4.00074; stroke-opacity:1; fill:none" points="1659.76,888.691 1659.76,869.79 "/>
<path clip-path="url(#clip410)" d="M170.548 932.753 Q170.548 924.387 172.66 919.828 Q175.606 913.046 182.553 913.046 Q184.026 913.046 185.554 913.463 Q187.11 913.852 189.055 915.381 Q191.028 916.91 192.223 919.411 Q194.502 924.248 194.502 932.753 Q194.502 941.065 192.39 945.595 Q189.306 952.211 182.497 952.211 Q179.941 952.211 177.329 950.905 Q174.744 949.598 173.105 946.457 Q170.548 941.76 170.548 932.753 M175.272 932.059 Q175.272 940.648 175.884 944.067 Q176.578 947.764 178.468 949.376 Q180.385 950.96 182.497 950.96 Q184.776 950.96 186.666 949.265 Q188.583 947.541 189.167 943.844 Q189.806 940.203 189.778 932.059 Q189.778 924.137 189.222 920.968 Q188.472 917.271 186.471 915.798 Q184.498 914.297 182.497 914.297 Q181.747 914.297 180.941 914.519 Q180.163 914.741 179.024 915.381 Q177.884 916.02 176.995 917.604 Q176.134 919.189 175.717 921.579 Q175.272 924.665 175.272 932.059 Z" fill="#000000" fill-rule="evenodd" fill-opacity="1" /><path clip-path="url(#clip410)" d="M202.477 950.043 Q201.616 949.126 201.616 947.93 Q201.616 946.735 202.477 945.873 Q203.339 944.984 204.645 944.984 Q205.895 944.984 206.729 945.818 Q207.59 946.624 207.59 947.958 Q207.59 949.265 206.673 950.126 Q205.784 950.96 204.645 950.96 Q203.339 950.96 202.477 950.043 Z" fill="#000000" fill-rule="evenodd" fill-opacity="1" /><path clip-path="url(#clip410)" d="M214.816 932.753 Q214.816 924.387 216.927 919.828 Q219.873 913.046 226.82 913.046 Q228.293 913.046 229.821 913.463 Q231.377 913.852 233.323 915.381 Q235.296 916.91 236.491 919.411 Q238.769 924.248 238.769 932.753 Q238.769 941.065 236.657 945.595 Q233.573 952.211 226.765 952.211 Q224.208 952.211 221.596 950.905 Q219.012 949.598 217.372 946.457 Q214.816 941.76 214.816 932.753 M219.54 932.059 Q219.54 940.648 220.151 944.067 Q220.846 947.764 222.735 949.376 Q224.653 950.96 226.765 950.96 Q229.043 950.96 230.933 949.265 Q232.85 947.541 233.434 943.844 Q234.073 940.203 234.045 932.059 Q234.045 924.137 233.489 920.968 Q232.739 917.271 230.738 915.798 Q228.765 914.297 226.765 914.297 Q226.014 914.297 225.208 914.519 Q224.43 914.741 223.291 915.381 Q222.152 916.02 221.262 917.604 Q220.401 919.189 219.984 921.579 Q219.54 924.665 219.54 932.059 Z" fill="#000000" fill-rule="evenodd" fill-opacity="1" /><path clip-path="url(#clip410)" d="M461.874 932.753 Q461.874 924.387 463.986 919.828 Q466.932 913.046 473.879 913.046 Q475.352 913.046 476.88 913.463 Q478.436 913.852 480.381 915.381 Q482.354 916.91 483.549 919.411 Q485.828 924.248 485.828 932.753 Q485.828 941.065 483.716 945.595 Q480.632 952.211 473.823 952.211 Q471.267 952.211 468.655 950.905 Q466.07 949.598 464.431 946.457 Q461.874 941.76 461.874 932.753 M466.598 932.059 Q466.598 940.648 467.21 944.067 Q467.904 947.764 469.794 949.376 Q471.711 950.96 473.823 950.96 Q476.102 950.96 477.992 949.265 Q479.909 947.541 480.493 943.844 Q481.132 940.203 481.104 932.059 Q481.104 924.137 480.548 920.968 Q479.798 917.271 477.797 915.798 Q475.824 914.297 473.823 914.297 Q473.073 914.297 472.267 914.519 Q471.489 914.741 470.35 915.381 Q469.21 916.02 468.321 917.604 Q467.46 919.189 467.043 921.579 Q466.598 924.665 466.598 932.059 Z" fill="#000000" fill-rule="evenodd" fill-opacity="1" /><path clip-path="url(#clip410)" d="M493.803 950.043 Q492.942 949.126 492.942 947.93 Q492.942 946.735 493.803 945.873 Q494.665 944.984 495.971 944.984 Q497.221 944.984 498.055 945.818 Q498.916 946.624 498.916 947.958 Q498.916 949.265 497.999 950.126 Q497.11 950.96 495.971 950.96 Q494.665 950.96 493.803 950.043 Z" fill="#000000" fill-rule="evenodd" fill-opacity="1" /><path clip-path="url(#clip410)" d="M506.753 950.96 Q506.753 949.932 506.836 949.626 Q506.947 949.32 507.392 948.848 L518.313 936.673 Q524.287 929.946 524.287 924.081 Q524.287 920.273 522.287 917.549 Q520.314 914.825 516.673 914.825 Q514.172 914.825 512.06 916.354 Q509.949 917.882 508.976 920.606 Q509.143 920.551 509.726 920.551 Q511.143 920.551 511.922 921.44 Q512.727 922.33 512.727 923.525 Q512.727 925.054 511.727 925.804 Q510.754 926.527 509.782 926.527 Q509.393 926.527 508.865 926.444 Q508.365 926.36 507.559 925.582 Q506.753 924.776 506.753 923.358 Q506.753 919.383 509.754 916.215 Q512.783 913.046 517.396 913.046 Q522.62 913.046 526.038 916.159 Q529.484 919.244 529.484 924.081 Q529.484 925.777 528.956 927.333 Q528.456 928.862 527.761 930.057 Q527.094 931.252 525.26 933.17 Q523.426 935.088 521.953 936.45 Q520.48 937.812 517.174 940.703 L511.143 946.568 L521.397 946.568 Q526.399 946.568 526.788 946.124 Q527.344 945.317 528.039 941.065 L529.484 941.065 L527.872 950.96 L506.753 950.96 Z" fill="#000000" fill-rule="evenodd" fill-opacity="1" /><path clip-path="url(#clip410)" d="M752.269 932.753 Q752.269 924.387 754.381 919.828 Q757.327 913.046 764.274 913.046 Q765.747 913.046 767.275 913.463 Q768.831 913.852 770.777 915.381 Q772.75 916.91 773.944 919.411 Q776.223 924.248 776.223 932.753 Q776.223 941.065 774.111 945.595 Q771.027 952.211 764.218 952.211 Q761.662 952.211 759.05 950.905 Q756.465 949.598 754.826 946.457 Q752.269 941.76 752.269 932.753 M756.993 932.059 Q756.993 940.648 757.605 944.067 Q758.3 947.764 760.189 949.376 Q762.107 950.96 764.218 950.96 Q766.497 950.96 768.387 949.265 Q770.304 947.541 770.888 943.844 Q771.527 940.203 771.499 932.059 Q771.499 924.137 770.943 920.968 Q770.193 917.271 768.192 915.798 Q766.219 914.297 764.218 914.297 Q763.468 914.297 762.662 914.519 Q761.884 914.741 760.745 915.381 Q759.606 916.02 758.716 917.604 Q757.855 919.189 757.438 921.579 Q756.993 924.665 756.993 932.059 Z" fill="#000000" fill-rule="evenodd" fill-opacity="1" /><path clip-path="url(#clip410)" d="M784.198 950.043 Q783.337 949.126 783.337 947.93 Q783.337 946.735 784.198 945.873 Q785.06 944.984 786.366 944.984 Q787.616 944.984 788.45 945.818 Q789.312 946.624 789.312 947.958 Q789.312 949.265 788.395 950.126 Q787.505 950.96 786.366 950.96 Q785.06 950.96 784.198 950.043 Z" fill="#000000" fill-rule="evenodd" fill-opacity="1" /><path clip-path="url(#clip410)" d="M795.897 941.565 L795.897 939.814 L813.376 913.101 Q813.821 912.407 814.516 912.434 Q815.155 912.434 815.294 912.684 Q815.433 912.935 815.433 913.908 L815.433 939.814 L821.13 939.814 L821.13 941.565 L815.433 941.565 L815.433 946.513 Q815.433 948.153 816.1 948.681 Q816.794 949.209 819.74 949.209 L820.935 949.209 L820.935 950.96 Q818.601 950.793 813.21 950.793 Q807.847 950.793 805.512 950.96 L805.512 949.209 L806.707 949.209 Q809.653 949.209 810.348 948.709 Q811.042 948.18 811.042 946.513 L811.042 941.565 L795.897 941.565 M797.509 939.814 L811.376 939.814 L811.376 918.577 L797.509 939.814 Z" fill="#000000" fill-rule="evenodd" fill-opacity="1" /><path clip-path="url(#clip410)" d="M1043.69 932.753 Q1043.69 924.387 1045.8 919.828 Q1048.75 913.046 1055.7 913.046 Q1057.17 913.046 1058.7 913.463 Q1060.25 913.852 1062.2 915.381 Q1064.17 916.91 1065.37 919.411 Q1067.65 924.248 1067.65 932.753 Q1067.65 941.065 1065.53 945.595 Q1062.45 952.211 1055.64 952.211 Q1053.09 952.211 1050.47 950.905 Q1047.89 949.598 1046.25 946.457 Q1043.69 941.76 1043.69 932.753 M1048.42 932.059 Q1048.42 940.648 1049.03 944.067 Q1049.72 947.764 1051.61 949.376 Q1053.53 950.96 1055.64 950.96 Q1057.92 950.96 1059.81 949.265 Q1061.73 947.541 1062.31 943.844 Q1062.95 940.203 1062.92 932.059 Q1062.92 924.137 1062.37 920.968 Q1061.62 917.271 1059.62 915.798 Q1057.64 914.297 1055.64 914.297 Q1054.89 914.297 1054.09 914.519 Q1053.31 914.741 1052.17 915.381 Q1051.03 916.02 1050.14 917.604 Q1049.28 919.189 1048.86 921.579 Q1048.42 924.665 1048.42 932.059 Z" fill="#000000" fill-rule="evenodd" fill-opacity="1" /><path clip-path="url(#clip410)" d="M1075.62 950.043 Q1074.76 949.126 1074.76 947.93 Q1074.76 946.735 1075.62 945.873 Q1076.48 944.984 1077.79 944.984 Q1079.04 944.984 1079.87 945.818 Q1080.73 946.624 1080.73 947.958 Q1080.73 949.265 1079.82 950.126 Q1078.93 950.96 1077.79 950.96 Q1076.48 950.96 1075.62 950.043 Z" fill="#000000" fill-rule="evenodd" fill-opacity="1" /><path clip-path="url(#clip410)" d="M1088.13 932.976 Q1088.13 924.025 1092.68 918.55 Q1097.24 913.046 1103.1 913.046 Q1106.52 913.046 1108.41 914.797 Q1110.33 916.52 1110.33 919.189 Q1110.33 920.662 1109.47 921.301 Q1108.61 921.941 1107.72 921.941 Q1106.69 921.941 1105.88 921.246 Q1105.08 920.551 1105.08 919.3 Q1105.08 916.743 1108.22 916.743 Q1106.74 914.463 1103.22 914.463 Q1102.13 914.463 1101.02 914.797 Q1099.91 915.103 1098.46 916.159 Q1097.02 917.215 1095.91 918.883 Q1094.8 920.551 1094.02 923.692 Q1093.24 926.833 1093.24 930.919 L1093.24 932.281 Q1095.57 926.638 1100.35 926.666 Q1105.13 926.666 1108.44 930.307 Q1111.75 933.949 1111.75 939.341 Q1111.75 944.873 1108.3 948.542 Q1104.86 952.211 1100.02 952.211 Q1097.85 952.211 1095.88 951.294 Q1093.93 950.404 1092.1 948.347 Q1090.29 946.29 1089.21 942.343 Q1088.13 938.396 1088.13 932.976 M1093.35 938.09 Q1093.35 943.677 1094.38 946.346 Q1094.55 946.791 1094.91 947.402 Q1095.3 948.014 1095.94 948.82 Q1096.6 949.598 1097.69 950.126 Q1098.77 950.627 1100.02 950.627 Q1103.83 950.627 1105.66 946.93 Q1106.63 944.873 1106.63 939.286 Q1106.63 933.587 1105.61 931.503 Q1103.85 927.972 1100.3 927.972 Q1097.91 927.972 1096.24 929.612 Q1094.6 931.252 1093.96 933.448 Q1093.35 935.644 1093.35 938.09 Z" fill="#000000" fill-rule="evenodd" fill-opacity="1" /><path clip-path="url(#clip410)" d="M1334.71 932.753 Q1334.71 924.387 1336.82 919.828 Q1339.77 913.046 1346.72 913.046 Q1348.19 913.046 1349.72 913.463 Q1351.28 913.852 1353.22 915.381 Q1355.19 916.91 1356.39 919.411 Q1358.67 924.248 1358.67 932.753 Q1358.67 941.065 1356.55 945.595 Q1353.47 952.211 1346.66 952.211 Q1344.11 952.211 1341.49 950.905 Q1338.91 949.598 1337.27 946.457 Q1334.71 941.76 1334.71 932.753 M1339.44 932.059 Q1339.44 940.648 1340.05 944.067 Q1340.74 947.764 1342.63 949.376 Q1344.55 950.96 1346.66 950.96 Q1348.94 950.96 1350.83 949.265 Q1352.75 947.541 1353.33 943.844 Q1353.97 940.203 1353.94 932.059 Q1353.94 924.137 1353.39 920.968 Q1352.64 917.271 1350.64 915.798 Q1348.66 914.297 1346.66 914.297 Q1345.91 914.297 1345.11 914.519 Q1344.33 914.741 1343.19 915.381 Q1342.05 916.02 1341.16 917.604 Q1340.3 919.189 1339.88 921.579 Q1339.44 924.665 1339.44 932.059 Z" fill="#000000" fill-rule="evenodd" fill-opacity="1" /><path clip-path="url(#clip410)" d="M1366.64 950.043 Q1365.78 949.126 1365.78 947.93 Q1365.78 946.735 1366.64 945.873 Q1367.5 944.984 1368.81 944.984 Q1370.06 944.984 1370.89 945.818 Q1371.76 946.624 1371.76 947.958 Q1371.76 949.265 1370.84 950.126 Q1369.95 950.96 1368.81 950.96 Q1367.5 950.96 1366.64 950.043 Z" fill="#000000" fill-rule="evenodd" fill-opacity="1" /><path clip-path="url(#clip410)" d="M1379.15 942.371 Q1379.15 936.006 1387.34 931.892 Q1383.82 929.501 1383.18 928.806 Q1380.68 926.027 1380.68 922.552 Q1380.68 918.577 1383.68 915.825 Q1386.71 913.046 1390.98 913.046 Q1395.07 913.046 1398.15 915.409 Q1401.24 917.771 1401.24 921.524 Q1401.24 926.805 1394.35 930.363 Q1398.9 933.198 1399.99 934.393 Q1402.77 937.479 1402.77 941.398 Q1402.77 945.957 1399.27 949.098 Q1395.76 952.211 1390.93 952.211 Q1386.21 952.211 1382.68 949.459 Q1379.15 946.707 1379.15 942.371 M1381.98 942.371 Q1381.98 945.901 1384.62 948.264 Q1387.29 950.627 1390.98 950.627 Q1394.57 950.627 1397.24 948.57 Q1399.93 946.513 1399.93 943.455 Q1399.93 942.26 1399.52 941.231 Q1399.13 940.203 1398.32 939.397 Q1397.54 938.563 1397.04 938.202 Q1396.57 937.812 1395.65 937.173 L1388.65 932.753 Q1381.98 936.45 1381.98 942.371 M1383.18 920.328 Q1383.18 923.053 1386.04 924.943 L1393.1 929.501 Q1398.74 926.194 1398.74 921.524 Q1398.74 918.494 1396.43 916.493 Q1394.13 914.463 1390.93 914.463 Q1387.79 914.463 1385.48 916.131 Q1383.18 917.771 1383.18 920.328 Z" fill="#000000" fill-rule="evenodd" fill-opacity="1" /><path clip-path="url(#clip410)" d="M1627.07 918.466 L1627.07 916.687 Q1633.9 916.687 1637.43 913.046 Q1638.4 913.046 1638.57 913.268 Q1638.74 913.491 1638.74 914.519 L1638.74 946.457 Q1638.74 948.153 1639.57 948.681 Q1640.41 949.209 1644.05 949.209 L1645.85 949.209 L1645.85 950.96 Q1643.85 950.793 1636.63 950.793 Q1629.4 950.793 1627.43 950.96 L1627.43 949.209 L1629.23 949.209 Q1632.82 949.209 1633.68 948.709 Q1634.54 948.18 1634.54 946.457 L1634.54 916.965 Q1631.57 918.466 1627.07 918.466 Z" fill="#000000" fill-rule="evenodd" fill-opacity="1" /><path clip-path="url(#clip410)" d="M1656.16 950.043 Q1655.3 949.126 1655.3 947.93 Q1655.3 946.735 1656.16 945.873 Q1657.02 944.984 1658.33 944.984 Q1659.58 944.984 1660.41 945.818 Q1661.27 946.624 1661.27 947.958 Q1661.27 949.265 1660.36 950.126 Q1659.47 950.96 1658.33 950.96 Q1657.02 950.96 1656.16 950.043 Z" fill="#000000" fill-rule="evenodd" fill-opacity="1" /><path clip-path="url(#clip410)" d="M1668.5 932.753 Q1668.5 924.387 1670.61 919.828 Q1673.56 913.046 1680.5 913.046 Q1681.98 913.046 1683.51 913.463 Q1685.06 913.852 1687.01 915.381 Q1688.98 916.91 1690.18 919.411 Q1692.45 924.248 1692.45 932.753 Q1692.45 941.065 1690.34 945.595 Q1687.26 952.211 1680.45 952.211 Q1677.89 952.211 1675.28 950.905 Q1672.7 949.598 1671.06 946.457 Q1668.5 941.76 1668.5 932.753 M1673.22 932.059 Q1673.22 940.648 1673.84 944.067 Q1674.53 947.764 1676.42 949.376 Q1678.34 950.96 1680.45 950.96 Q1682.73 950.96 1684.62 949.265 Q1686.53 947.541 1687.12 943.844 Q1687.76 940.203 1687.73 932.059 Q1687.73 924.137 1687.17 920.968 Q1686.42 917.271 1684.42 915.798 Q1682.45 914.297 1680.45 914.297 Q1679.7 914.297 1678.89 914.519 Q1678.11 914.741 1676.98 915.381 Q1675.84 916.02 1674.95 917.604 Q1674.09 919.189 1673.67 921.579 Q1673.22 924.665 1673.22 932.059 Z" fill="#000000" fill-rule="evenodd" fill-opacity="1" /><path clip-path="url(#clip410)" d="M862.337 995.884 L863.541 981.677 L902.167 981.677 L903.371 995.884 L901.797 995.884 Q901.55 993.043 901.303 991.406 Q901.086 989.769 900.531 988.225 Q900.006 986.65 899.326 985.909 Q898.678 985.136 897.412 984.55 Q896.146 983.932 894.51 983.778 Q892.873 983.623 890.403 983.623 Q887.501 983.623 886.791 983.747 Q886.019 983.932 885.834 984.488 Q885.648 985.013 885.648 986.156 L885.648 1019.48 Q885.648 1020.75 885.895 1021.27 Q886.173 1021.77 887.624 1022.17 Q889.076 1022.54 892.287 1022.54 L894.819 1022.54 L894.819 1024.48 Q892.225 1024.3 882.808 1024.3 Q873.452 1024.3 870.859 1024.48 L870.859 1022.54 L873.39 1022.54 Q876.602 1022.54 878.053 1022.17 Q879.535 1021.77 879.782 1021.27 Q880.029 1020.75 880.029 1019.48 L880.029 986.156 Q880.029 985.26 879.967 984.889 Q879.905 984.519 879.627 984.21 Q879.35 983.87 878.701 983.747 Q878.084 983.623 875.305 983.623 Q872.835 983.623 871.167 983.778 Q869.531 983.932 868.265 984.55 Q866.999 985.136 866.32 985.909 Q865.671 986.65 865.116 988.225 Q864.591 989.769 864.375 991.406 Q864.158 993.043 863.911 995.884 L862.337 995.884 Z" fill="#000000" fill-rule="evenodd" fill-opacity="1" /><path clip-path="url(#clip410)" d="M907.787 1024.48 L907.787 1022.54 Q911.152 1022.54 911.924 1022.14 Q912.696 1021.7 912.696 1019.67 L912.696 1002.65 Q912.696 1000.3 911.893 999.745 Q911.121 999.189 908.034 999.189 L908.034 997.212 L916.864 996.533 L916.864 1019.73 Q916.864 1021.61 917.543 1022.07 Q918.223 1022.54 921.31 1022.54 L921.31 1024.48 Q914.857 1024.3 914.734 1024.3 Q913.869 1024.3 907.787 1024.48 M910.442 985.507 Q910.442 984.241 911.399 983.222 Q912.387 982.172 913.777 982.172 Q915.166 982.172 916.154 983.129 Q917.142 984.056 917.142 985.538 Q917.142 986.99 916.154 987.947 Q915.166 988.874 913.777 988.874 Q912.325 988.874 911.368 987.854 Q910.442 986.835 910.442 985.507 Z" fill="#000000" fill-rule="evenodd" fill-opacity="1" /><path clip-path="url(#clip410)" d="M925.232 1024.48 L925.232 1022.54 Q928.597 1022.54 929.369 1022.14 Q930.141 1021.7 930.141 1019.67 L930.141 1002.71 Q930.141 1000.36 929.307 999.776 Q928.504 999.189 925.232 999.189 L925.232 997.212 L934.124 996.533 L934.124 1003.17 Q937.088 996.533 943.479 996.533 Q950.89 996.533 951.909 1002.71 Q952.989 1000.3 955.243 998.417 Q957.528 996.533 961.079 996.533 Q965.834 996.533 967.717 998.88 Q969.107 1000.46 969.385 1002.22 Q969.662 1003.98 969.662 1008.55 L969.662 1020.62 Q969.724 1021.95 970.743 1022.26 Q971.762 1022.54 974.603 1022.54 L974.603 1024.48 Q968.15 1024.3 967.532 1024.3 Q967.038 1024.3 960.369 1024.48 L960.369 1022.54 Q963.734 1022.54 964.506 1022.14 Q965.309 1021.7 965.309 1019.67 L965.309 1004.93 Q965.309 1001.72 964.321 999.838 Q963.333 997.923 960.616 997.923 Q957.343 997.923 954.718 1000.67 Q952.094 1003.42 952.094 1008.05 L952.094 1019.67 Q952.094 1021.7 952.866 1022.14 Q953.669 1022.54 957.034 1022.54 L957.034 1024.48 Q950.581 1024.3 949.933 1024.3 Q949.439 1024.3 942.8 1024.48 L942.8 1022.54 Q946.166 1022.54 946.938 1022.14 Q947.74 1021.7 947.74 1019.67 L947.74 1004.93 Q947.74 1001.72 946.752 999.838 Q945.764 997.923 943.047 997.923 Q939.774 997.923 937.15 1000.67 Q934.525 1003.42 934.525 1008.05 L934.525 1019.67 Q934.525 1021.7 935.297 1022.14 Q936.1 1022.54 939.435 1022.54 L939.435 1024.48 Q932.982 1024.3 932.364 1024.3 Q931.87 1024.3 925.232 1024.48 Z" fill="#000000" fill-rule="evenodd" fill-opacity="1" /><path clip-path="url(#clip410)" d="M977.598 1010.55 Q977.598 1004.59 981.426 1000.36 Q985.255 996.131 990.751 996.131 Q996.309 996.131 999.18 999.745 Q1002.08 1003.36 1002.08 1008.55 Q1002.08 1009.5 1001.84 1009.69 Q1001.59 1009.88 1000.51 1009.88 L982.847 1009.88 Q982.847 1016.33 984.761 1019.36 Q987.416 1023.59 991.893 1023.59 Q992.511 1023.59 993.252 1023.46 Q993.993 1023.34 995.506 1022.82 Q997.019 1022.26 998.346 1020.81 Q999.674 1019.36 1000.45 1017.07 Q1000.63 1016.18 1001.25 1016.21 Q1002.08 1016.21 1002.08 1016.95 Q1002.08 1017.5 1001.46 1018.77 Q1000.88 1020.01 999.736 1021.49 Q998.593 1022.97 996.37 1024.08 Q994.178 1025.19 991.523 1025.19 Q985.965 1025.19 981.766 1020.99 Q977.598 1016.76 977.598 1010.55 M982.908 1008.55 L997.914 1008.55 Q997.914 1007.22 997.667 1005.74 Q997.451 1004.25 996.772 1002.22 Q996.123 1000.15 994.58 998.849 Q993.036 997.552 990.751 997.552 Q989.732 997.552 988.62 997.985 Q987.54 998.417 986.212 999.467 Q984.884 1000.52 983.958 1002.9 Q983.032 1005.27 982.908 1008.55 Z" fill="#000000" fill-rule="evenodd" fill-opacity="1" /><polyline clip-path="url(#clip413)" style="stroke:#000000; stroke-linecap:round; stroke-linejoin:round; stroke-width:2.00037; stroke-opacity:0.1; fill:none" points="204.659,888.691 1659.76,888.691 "/>
<polyline clip-path="url(#clip413)" style="stroke:#000000; stroke-linecap:round; stroke-linejoin:round; stroke-width:2.00037; stroke-opacity:0.1; fill:none" points="204.659,720.404 1659.76,720.404 "/>
<polyline clip-path="url(#clip413)" style="stroke:#000000; stroke-linecap:round; stroke-linejoin:round; stroke-width:2.00037; stroke-opacity:0.1; fill:none" points="204.659,552.116 1659.76,552.116 "/>
<polyline clip-path="url(#clip413)" style="stroke:#000000; stroke-linecap:round; stroke-linejoin:round; stroke-width:2.00037; stroke-opacity:0.1; fill:none" points="204.659,383.828 1659.76,383.828 "/>
<polyline clip-path="url(#clip413)" style="stroke:#000000; stroke-linecap:round; stroke-linejoin:round; stroke-width:2.00037; stroke-opacity:0.1; fill:none" points="204.659,215.541 1659.76,215.541 "/>
<polyline clip-path="url(#clip413)" style="stroke:#000000; stroke-linecap:round; stroke-linejoin:round; stroke-width:2.00037; stroke-opacity:0.1; fill:none" points="204.659,47.2528 1659.76,47.2528 "/>
<polyline clip-path="url(#clip410)" style="stroke:#000000; stroke-linecap:round; stroke-linejoin:round; stroke-width:4.00074; stroke-opacity:1; fill:none" points="204.659,888.691 204.659,47.2528 "/>
<polyline clip-path="url(#clip410)" style="stroke:#000000; stroke-linecap:round; stroke-linejoin:round; stroke-width:4.00074; stroke-opacity:1; fill:none" points="1659.76,888.691 1659.76,47.2528 "/>
<polyline clip-path="url(#clip410)" style="stroke:#000000; stroke-linecap:round; stroke-linejoin:round; stroke-width:4.00074; stroke-opacity:1; fill:none" points="204.659,888.691 223.555,888.691 "/>
<polyline clip-path="url(#clip410)" style="stroke:#000000; stroke-linecap:round; stroke-linejoin:round; stroke-width:4.00074; stroke-opacity:1; fill:none" points="204.659,720.404 223.555,720.404 "/>
<polyline clip-path="url(#clip410)" style="stroke:#000000; stroke-linecap:round; stroke-linejoin:round; stroke-width:4.00074; stroke-opacity:1; fill:none" points="204.659,552.116 223.555,552.116 "/>
<polyline clip-path="url(#clip410)" style="stroke:#000000; stroke-linecap:round; stroke-linejoin:round; stroke-width:4.00074; stroke-opacity:1; fill:none" points="204.659,383.828 223.555,383.828 "/>
<polyline clip-path="url(#clip410)" style="stroke:#000000; stroke-linecap:round; stroke-linejoin:round; stroke-width:4.00074; stroke-opacity:1; fill:none" points="204.659,215.541 223.555,215.541 "/>
<polyline clip-path="url(#clip410)" style="stroke:#000000; stroke-linecap:round; stroke-linejoin:round; stroke-width:4.00074; stroke-opacity:1; fill:none" points="204.659,47.2528 223.555,47.2528 "/>
<path clip-path="url(#clip410)" d="M110.833 889.928 Q110.833 881.562 112.945 877.003 Q115.89 870.221 122.837 870.221 Q124.31 870.221 125.839 870.638 Q127.395 871.027 129.34 872.556 Q131.313 874.084 132.508 876.586 Q134.787 881.423 134.787 889.928 Q134.787 898.239 132.675 902.77 Q129.59 909.386 122.782 909.386 Q120.225 909.386 117.613 908.079 Q115.029 906.773 113.389 903.632 Q110.833 898.934 110.833 889.928 M115.557 889.233 Q115.557 897.822 116.168 901.241 Q116.863 904.938 118.753 906.551 Q120.67 908.135 122.782 908.135 Q125.061 908.135 126.95 906.439 Q128.868 904.716 129.451 901.019 Q130.09 897.378 130.062 889.233 Q130.062 881.311 129.507 878.143 Q128.756 874.446 126.756 872.972 Q124.783 871.471 122.782 871.471 Q122.032 871.471 121.226 871.694 Q120.448 871.916 119.308 872.556 Q118.169 873.195 117.28 874.779 Q116.418 876.364 116.001 878.754 Q115.557 881.84 115.557 889.233 Z" fill="#000000" fill-rule="evenodd" fill-opacity="1" /><path clip-path="url(#clip410)" d="M142.762 907.218 Q141.9 906.3 141.9 905.105 Q141.9 903.91 142.762 903.048 Q143.623 902.159 144.929 902.159 Q146.18 902.159 147.014 902.993 Q147.875 903.799 147.875 905.133 Q147.875 906.439 146.958 907.301 Q146.069 908.135 144.929 908.135 Q143.623 908.135 142.762 907.218 Z" fill="#000000" fill-rule="evenodd" fill-opacity="1" /><path clip-path="url(#clip410)" d="M155.1 889.928 Q155.1 881.562 157.212 877.003 Q160.158 870.221 167.105 870.221 Q168.577 870.221 170.106 870.638 Q171.662 871.027 173.607 872.556 Q175.58 874.084 176.775 876.586 Q179.054 881.423 179.054 889.928 Q179.054 898.239 176.942 902.77 Q173.857 909.386 167.049 909.386 Q164.493 909.386 161.88 908.079 Q159.296 906.773 157.657 903.632 Q155.1 898.934 155.1 889.928 M159.824 889.233 Q159.824 897.822 160.435 901.241 Q161.13 904.938 163.02 906.551 Q164.937 908.135 167.049 908.135 Q169.328 908.135 171.217 906.439 Q173.135 904.716 173.718 901.019 Q174.358 897.378 174.33 889.233 Q174.33 881.311 173.774 878.143 Q173.024 874.446 171.023 872.972 Q169.05 871.471 167.049 871.471 Q166.299 871.471 165.493 871.694 Q164.715 871.916 163.576 872.556 Q162.436 873.195 161.547 874.779 Q160.686 876.364 160.269 878.754 Q159.824 881.84 159.824 889.233 Z" fill="#000000" fill-rule="evenodd" fill-opacity="1" /><path clip-path="url(#clip410)" d="M111.444 721.641 Q111.444 713.274 113.556 708.715 Q116.502 701.933 123.449 701.933 Q124.922 701.933 126.45 702.35 Q128.006 702.739 129.951 704.268 Q131.924 705.797 133.119 708.298 Q135.398 713.135 135.398 721.641 Q135.398 729.952 133.286 734.482 Q130.201 741.098 123.393 741.098 Q120.837 741.098 118.225 739.792 Q115.64 738.485 114.001 735.344 Q111.444 730.647 111.444 721.641 M116.168 720.946 Q116.168 729.535 116.78 732.954 Q117.474 736.651 119.364 738.263 Q121.281 739.847 123.393 739.847 Q125.672 739.847 127.562 738.152 Q129.479 736.428 130.062 732.731 Q130.702 729.09 130.674 720.946 Q130.674 713.024 130.118 709.855 Q129.368 706.158 127.367 704.685 Q125.394 703.184 123.393 703.184 Q122.643 703.184 121.837 703.406 Q121.059 703.628 119.92 704.268 Q118.78 704.907 117.891 706.492 Q117.03 708.076 116.613 710.466 Q116.168 713.552 116.168 720.946 Z" fill="#000000" fill-rule="evenodd" fill-opacity="1" /><path clip-path="url(#clip410)" d="M143.373 738.93 Q142.512 738.013 142.512 736.817 Q142.512 735.622 143.373 734.76 Q144.235 733.871 145.541 733.871 Q146.791 733.871 147.625 734.705 Q148.486 735.511 148.486 736.845 Q148.486 738.152 147.569 739.013 Q146.68 739.847 145.541 739.847 Q144.235 739.847 143.373 738.93 Z" fill="#000000" fill-rule="evenodd" fill-opacity="1" /><path clip-path="url(#clip410)" d="M156.323 739.847 Q156.323 738.819 156.406 738.513 Q156.517 738.207 156.962 737.735 L167.883 725.56 Q173.857 718.833 173.857 712.968 Q173.857 709.16 171.857 706.436 Q169.884 703.712 166.243 703.712 Q163.742 703.712 161.63 705.241 Q159.518 706.769 158.546 709.494 Q158.713 709.438 159.296 709.438 Q160.713 709.438 161.491 710.327 Q162.297 711.217 162.297 712.412 Q162.297 713.941 161.297 714.691 Q160.324 715.414 159.352 715.414 Q158.963 715.414 158.435 715.331 Q157.934 715.247 157.129 714.469 Q156.323 713.663 156.323 712.245 Q156.323 708.27 159.324 705.102 Q162.353 701.933 166.966 701.933 Q172.19 701.933 175.608 705.046 Q179.054 708.132 179.054 712.968 Q179.054 714.664 178.526 716.22 Q178.026 717.749 177.331 718.944 Q176.664 720.14 174.83 722.058 Q172.996 723.975 171.523 725.337 Q170.05 726.7 166.743 729.59 L160.713 735.455 L170.967 735.455 Q175.969 735.455 176.358 735.011 Q176.914 734.205 177.609 729.952 L179.054 729.952 L177.442 739.847 L156.323 739.847 Z" fill="#000000" fill-rule="evenodd" fill-opacity="1" /><path clip-path="url(#clip410)" d="M110.194 553.353 Q110.194 544.986 112.306 540.428 Q115.251 533.645 122.198 533.645 Q123.671 533.645 125.199 534.062 Q126.756 534.451 128.701 535.98 Q130.674 537.509 131.869 540.011 Q134.147 544.847 134.147 553.353 Q134.147 561.664 132.035 566.195 Q128.951 572.81 122.143 572.81 Q119.586 572.81 116.974 571.504 Q114.39 570.197 112.75 567.056 Q110.194 562.359 110.194 553.353 M114.918 552.658 Q114.918 561.247 115.529 564.666 Q116.224 568.363 118.113 569.975 Q120.031 571.559 122.143 571.559 Q124.421 571.559 126.311 569.864 Q128.228 568.141 128.812 564.444 Q129.451 560.802 129.423 552.658 Q129.423 544.736 128.868 541.567 Q128.117 537.87 126.117 536.397 Q124.144 534.896 122.143 534.896 Q121.392 534.896 120.587 535.118 Q119.809 535.341 118.669 535.98 Q117.53 536.619 116.641 538.204 Q115.779 539.788 115.362 542.179 Q114.918 545.264 114.918 552.658 Z" fill="#000000" fill-rule="evenodd" fill-opacity="1" /><path clip-path="url(#clip410)" d="M142.123 570.642 Q141.261 569.725 141.261 568.53 Q141.261 567.334 142.123 566.473 Q142.984 565.583 144.29 565.583 Q145.541 565.583 146.374 566.417 Q147.236 567.223 147.236 568.557 Q147.236 569.864 146.319 570.726 Q145.43 571.559 144.29 571.559 Q142.984 571.559 142.123 570.642 Z" fill="#000000" fill-rule="evenodd" fill-opacity="1" /><path clip-path="url(#clip410)" d="M153.822 562.164 L153.822 560.413 L171.301 533.701 Q171.745 533.006 172.44 533.034 Q173.079 533.034 173.218 533.284 Q173.357 533.534 173.357 534.507 L173.357 560.413 L179.054 560.413 L179.054 562.164 L173.357 562.164 L173.357 567.112 Q173.357 568.752 174.024 569.28 Q174.719 569.808 177.664 569.808 L178.859 569.808 L178.859 571.559 Q176.525 571.393 171.134 571.393 Q165.771 571.393 163.437 571.559 L163.437 569.808 L164.631 569.808 Q167.577 569.808 168.272 569.308 Q168.967 568.78 168.967 567.112 L168.967 562.164 L153.822 562.164 M155.433 560.413 L169.3 560.413 L169.3 539.177 L155.433 560.413 Z" fill="#000000" fill-rule="evenodd" fill-opacity="1" /><path clip-path="url(#clip410)" d="M111 385.065 Q111 376.698 113.111 372.14 Q116.057 365.358 123.004 365.358 Q124.477 365.358 126.005 365.774 Q127.562 366.164 129.507 367.692 Q131.48 369.221 132.675 371.723 Q134.953 376.559 134.953 385.065 Q134.953 393.376 132.841 397.907 Q129.757 404.523 122.949 404.523 Q120.392 404.523 117.78 403.216 Q115.196 401.91 113.556 398.769 Q111 394.071 111 385.065 M115.724 384.37 Q115.724 392.959 116.335 396.378 Q117.03 400.075 118.919 401.687 Q120.837 403.272 122.949 403.272 Q125.227 403.272 127.117 401.576 Q129.034 399.853 129.618 396.156 Q130.257 392.515 130.229 384.37 Q130.229 376.448 129.673 373.279 Q128.923 369.583 126.922 368.109 Q124.949 366.608 122.949 366.608 Q122.198 366.608 121.392 366.831 Q120.614 367.053 119.475 367.692 Q118.336 368.332 117.446 369.916 Q116.585 371.501 116.168 373.891 Q115.724 376.976 115.724 384.37 Z" fill="#000000" fill-rule="evenodd" fill-opacity="1" /><path clip-path="url(#clip410)" d="M142.929 402.355 Q142.067 401.437 142.067 400.242 Q142.067 399.047 142.929 398.185 Q143.79 397.296 145.096 397.296 Q146.347 397.296 147.18 398.129 Q148.042 398.936 148.042 400.27 Q148.042 401.576 147.125 402.438 Q146.235 403.272 145.096 403.272 Q143.79 403.272 142.929 402.355 Z" fill="#000000" fill-rule="evenodd" fill-opacity="1" /><path clip-path="url(#clip410)" d="M155.433 385.288 Q155.433 376.337 159.991 370.861 Q164.548 365.358 170.412 365.358 Q173.83 365.358 175.719 367.109 Q177.637 368.832 177.637 371.501 Q177.637 372.974 176.775 373.613 Q175.914 374.252 175.024 374.252 Q173.996 374.252 173.19 373.557 Q172.385 372.863 172.385 371.612 Q172.385 369.054 175.525 369.054 Q174.052 366.775 170.523 366.775 Q169.439 366.775 168.327 367.109 Q167.216 367.414 165.771 368.471 Q164.326 369.527 163.214 371.195 Q162.103 372.863 161.325 376.004 Q160.547 379.145 160.547 383.231 L160.547 384.593 Q162.881 378.95 167.66 378.978 Q172.44 378.978 175.747 382.619 Q179.054 386.26 179.054 391.653 Q179.054 397.184 175.608 400.854 Q172.162 404.523 167.327 404.523 Q165.159 404.523 163.186 403.605 Q161.241 402.716 159.407 400.659 Q157.601 398.602 156.517 394.655 Q155.433 390.708 155.433 385.288 M160.658 390.402 Q160.658 395.989 161.686 398.658 Q161.853 399.102 162.214 399.714 Q162.603 400.325 163.242 401.131 Q163.909 401.91 164.993 402.438 Q166.077 402.938 167.327 402.938 Q171.134 402.938 172.968 399.241 Q173.941 397.184 173.941 391.597 Q173.941 385.899 172.912 383.814 Q171.162 380.284 167.605 380.284 Q165.215 380.284 163.548 381.924 Q161.908 383.564 161.269 385.76 Q160.658 387.956 160.658 390.402 Z" fill="#000000" fill-rule="evenodd" fill-opacity="1" /><path clip-path="url(#clip410)" d="M111 216.777 Q111 208.411 113.111 203.852 Q116.057 197.07 123.004 197.07 Q124.477 197.07 126.005 197.487 Q127.562 197.876 129.507 199.405 Q131.48 200.933 132.675 203.435 Q134.953 208.272 134.953 216.777 Q134.953 225.089 132.841 229.619 Q129.757 236.235 122.949 236.235 Q120.392 236.235 117.78 234.928 Q115.196 233.622 113.556 230.481 Q111 225.783 111 216.777 M115.724 216.083 Q115.724 224.672 116.335 228.091 Q117.03 231.788 118.919 233.4 Q120.837 234.984 122.949 234.984 Q125.227 234.984 127.117 233.289 Q129.034 231.565 129.618 227.868 Q130.257 224.227 130.229 216.083 Q130.229 208.161 129.673 204.992 Q128.923 201.295 126.922 199.822 Q124.949 198.321 122.949 198.321 Q122.198 198.321 121.392 198.543 Q120.614 198.765 119.475 199.405 Q118.336 200.044 117.446 201.628 Q116.585 203.213 116.168 205.603 Q115.724 208.689 115.724 216.083 Z" fill="#000000" fill-rule="evenodd" fill-opacity="1" /><path clip-path="url(#clip410)" d="M142.929 234.067 Q142.067 233.15 142.067 231.954 Q142.067 230.759 142.929 229.897 Q143.79 229.008 145.096 229.008 Q146.347 229.008 147.18 229.842 Q148.042 230.648 148.042 231.982 Q148.042 233.289 147.125 234.15 Q146.235 234.984 145.096 234.984 Q143.79 234.984 142.929 234.067 Z" fill="#000000" fill-rule="evenodd" fill-opacity="1" /><path clip-path="url(#clip410)" d="M155.433 226.395 Q155.433 220.03 163.631 215.916 Q160.102 213.525 159.463 212.83 Q156.962 210.051 156.962 206.576 Q156.962 202.601 159.963 199.849 Q162.992 197.07 167.271 197.07 Q171.356 197.07 174.441 199.432 Q177.525 201.795 177.525 205.548 Q177.525 210.829 170.634 214.387 Q175.191 217.222 176.275 218.417 Q179.054 221.503 179.054 225.422 Q179.054 229.981 175.552 233.122 Q172.051 236.235 167.216 236.235 Q162.492 236.235 158.963 233.483 Q155.433 230.731 155.433 226.395 M158.268 226.395 Q158.268 229.925 160.908 232.288 Q163.576 234.651 167.271 234.651 Q170.856 234.651 173.524 232.594 Q176.219 230.537 176.219 227.479 Q176.219 226.284 175.803 225.255 Q175.413 224.227 174.608 223.421 Q173.83 222.587 173.329 222.226 Q172.857 221.836 171.94 221.197 L164.937 216.777 Q158.268 220.474 158.268 226.395 M159.463 204.352 Q159.463 207.077 162.325 208.967 L169.383 213.525 Q175.024 210.217 175.024 205.548 Q175.024 202.518 172.718 200.517 Q170.412 198.487 167.216 198.487 Q164.076 198.487 161.769 200.155 Q159.463 201.795 159.463 204.352 Z" fill="#000000" fill-rule="evenodd" fill-opacity="1" /><path clip-path="url(#clip410)" d="M113.667 34.2024 L113.667 32.4234 Q120.503 32.4234 124.032 28.7821 Q125.005 28.7821 125.172 29.0045 Q125.338 29.2268 125.338 30.2553 L125.338 62.1934 Q125.338 63.8889 126.172 64.4171 Q127.006 64.9452 130.646 64.9452 L132.452 64.9452 L132.452 66.6964 Q130.452 66.5296 123.227 66.5296 Q116.001 66.5296 114.028 66.6964 L114.028 64.9452 L115.835 64.9452 Q119.419 64.9452 120.281 64.4449 Q121.142 63.9167 121.142 62.1934 L121.142 32.7014 Q118.169 34.2024 113.667 34.2024 Z" fill="#000000" fill-rule="evenodd" fill-opacity="1" /><path clip-path="url(#clip410)" d="M142.762 65.7791 Q141.9 64.8618 141.9 63.6666 Q141.9 62.4713 142.762 61.6096 Q143.623 60.7202 144.929 60.7202 Q146.18 60.7202 147.014 61.554 Q147.875 62.3601 147.875 63.6944 Q147.875 65.0008 146.958 65.8625 Q146.069 66.6964 144.929 66.6964 Q143.623 66.6964 142.762 65.7791 Z" fill="#000000" fill-rule="evenodd" fill-opacity="1" /><path clip-path="url(#clip410)" d="M155.1 48.4897 Q155.1 40.123 157.212 35.5644 Q160.158 28.7821 167.105 28.7821 Q168.577 28.7821 170.106 29.199 Q171.662 29.5882 173.607 31.117 Q175.58 32.6458 176.775 35.1475 Q179.054 39.984 179.054 48.4897 Q179.054 56.8009 176.942 61.3317 Q173.857 67.9472 167.049 67.9472 Q164.493 67.9472 161.88 66.6408 Q159.296 65.3344 157.657 62.1934 Q155.1 57.4958 155.1 48.4897 M159.824 47.7948 Q159.824 56.3839 160.435 59.8029 Q161.13 63.4998 163.02 65.112 Q164.937 66.6964 167.049 66.6964 Q169.328 66.6964 171.217 65.0008 Q173.135 63.2774 173.718 59.5805 Q174.358 55.9392 174.33 47.7948 Q174.33 39.8729 173.774 36.7041 Q173.024 33.0071 171.023 31.5339 Q169.05 30.0329 167.049 30.0329 Q166.299 30.0329 165.493 30.2553 Q164.715 30.4777 163.576 31.117 Q162.436 31.7563 161.547 33.3407 Q160.686 34.9251 160.269 37.3156 Q159.824 40.401 159.824 47.7948 Z" fill="#000000" fill-rule="evenodd" fill-opacity="1" /><path clip-path="url(#clip410)" d="M85.9642 633.996 Q86.4619 633.996 86.8132 634.347 Q87.1645 634.699 87.1645 635.197 Q87.1645 636.046 86.3741 636.339 L57.5965 647.496 Q57.4794 647.554 57.1867 647.554 Q56.8939 647.554 56.7768 647.496 L27.9993 636.339 Q27.2088 636.046 27.2088 635.197 Q27.2088 634.699 27.5601 634.347 Q27.9114 633.996 28.4091 633.996 Q28.7019 633.996 28.819 634.055 L57.1867 645.094 L85.5544 634.055 Q85.6715 633.996 85.9642 633.996 Z" fill="#000000" fill-rule="evenodd" fill-opacity="1" /><path clip-path="url(#clip410)" d="M31.8929 575.039 Q32.4198 575.039 32.7126 575.244 Q32.9761 575.419 33.0346 575.624 Q33.0639 575.829 33.0932 576.356 Q33.2981 580.544 36.1378 583.97 Q36.8697 584.819 39.1531 586.957 Q41.4366 589.065 44.4812 591.877 Q47.5258 594.659 49.1653 596.269 L67.6672 588.538 Q68.3991 588.216 68.7211 588.099 Q69.0139 587.953 69.3944 587.66 Q69.775 587.338 69.8921 587.103 Q70.0092 586.84 70.1556 586.284 Q70.2727 585.698 70.302 585.112 Q70.302 584.497 70.3312 583.384 Q70.3312 583.033 70.3605 582.887 Q70.3605 582.711 70.5362 582.506 Q70.6825 582.301 71.0338 582.301 Q71.5608 582.301 71.8536 582.535 Q72.117 582.74 72.1463 582.945 Q72.1756 583.121 72.1756 583.443 Q72.1756 584.204 72.0878 586.781 Q71.9999 589.358 71.9999 590.09 L72.1756 597.645 Q72.1756 598.553 71.4437 598.553 Q71.0631 598.553 70.8582 598.495 Q70.624 598.407 70.5362 598.202 Q70.4191 597.997 70.3898 597.85 Q70.3605 597.704 70.3312 597.353 Q70.2141 596.269 69.8921 595.449 Q69.5408 594.6 69.1895 594.249 Q68.8382 593.868 68.5747 593.868 L67.7257 594.161 L53.4102 600.222 L59.2945 605.64 L65.7643 611.76 Q67.4915 613.371 68.4576 613.371 Q70.0678 613.371 70.3312 610.969 Q70.3898 610.237 70.9753 610.237 Q71.5315 610.237 71.8243 610.472 Q72.0878 610.677 72.1463 610.882 Q72.1756 611.057 72.1756 611.321 Q72.1756 612.404 72.0878 614.688 Q71.9999 616.943 71.9999 618.056 Q71.9999 618.993 72.0878 620.897 Q72.1756 622.8 72.1756 623.678 Q72.1756 624.03 71.9999 624.235 Q71.8243 624.44 71.6486 624.44 L71.5022 624.469 Q71.0924 624.469 70.8582 624.411 Q70.624 624.323 70.5069 624.088 Q70.3898 623.825 70.3898 623.708 Q70.3605 623.591 70.3312 623.151 Q70.1849 620.662 69.2188 618.554 Q68.2527 616.416 65.9985 614.337 Q65.8521 614.161 65.6765 613.956 Q65.5008 613.722 65.3545 613.546 L51.7415 600.896 L34.9961 607.983 Q34.2349 608.305 33.9129 608.597 Q33.5616 608.89 33.3274 609.798 Q33.0932 610.706 33.0932 612.463 Q33.0932 612.961 33.0639 613.195 Q33.0346 613.429 32.8882 613.634 Q32.7419 613.839 32.4198 613.839 Q31.8636 613.839 31.6001 613.634 Q31.3074 613.4 31.2781 613.224 Q31.2195 613.019 31.2195 612.756 Q31.2195 612.024 31.3074 609.417 Q31.3952 606.811 31.3952 606.05 Q31.3952 604.791 31.3074 602.272 Q31.2195 599.725 31.2195 598.495 Q31.2195 597.587 31.9514 597.587 Q32.4198 597.587 32.6833 597.792 Q32.9468 597.997 33.0053 598.202 Q33.0639 598.407 33.0932 598.788 Q33.2103 599.93 33.5908 600.808 Q33.9421 601.657 34.2934 602.009 Q34.6155 602.331 34.8204 602.331 L35.6108 602.038 L47.5258 597.001 L37.1039 587.279 Q35.8158 586.137 34.9375 586.137 Q33.3566 586.137 33.0932 588.538 Q32.9761 589.27 32.4198 589.27 Q31.8636 589.27 31.6001 589.036 Q31.3074 588.802 31.2781 588.626 Q31.2195 588.421 31.2195 588.128 Q31.2195 587.045 31.3074 584.819 Q31.3952 582.565 31.3952 581.452 Q31.3952 580.515 31.3074 578.611 Q31.2195 576.708 31.2195 575.829 Q31.2195 575.478 31.3952 575.273 Q31.5416 575.068 31.7172 575.068 L31.8929 575.039 Z" fill="#000000" fill-rule="evenodd" fill-opacity="1" /><path clip-path="url(#clip410)" d="M64.8316 569.122 L63.52 569.122 Q63.52 564.08 60.8355 561.477 Q60.8355 560.759 60.9995 560.636 Q61.1634 560.513 61.9216 560.513 L85.4677 560.513 Q86.7177 560.513 87.1071 559.898 Q87.4965 559.283 87.4965 556.598 L87.4965 555.265 L88.7875 555.265 Q88.6645 556.741 88.6645 562.071 Q88.6645 567.401 88.7875 568.856 L87.4965 568.856 L87.4965 567.524 Q87.4965 564.879 87.1276 564.244 Q86.7382 563.608 85.4677 563.608 L63.725 563.608 Q64.8316 565.802 64.8316 569.122 Z" fill="#000000" fill-rule="evenodd" fill-opacity="1" /><path clip-path="url(#clip410)" d="M31.8929 499.572 Q32.4198 499.572 32.7126 499.777 Q32.9761 499.953 33.0346 500.158 Q33.0639 500.363 33.0932 500.89 Q33.2981 505.077 36.1378 508.503 Q36.8697 509.353 39.1531 511.49 Q41.4366 513.599 44.4812 516.41 Q47.5258 519.192 49.1653 520.803 L67.6672 513.072 Q68.3991 512.75 68.7211 512.632 Q69.0139 512.486 69.3944 512.193 Q69.775 511.871 69.8921 511.637 Q70.0092 511.373 70.1556 510.817 Q70.2727 510.231 70.302 509.646 Q70.302 509.031 70.3312 507.918 Q70.3312 507.566 70.3605 507.42 Q70.3605 507.244 70.5362 507.039 Q70.6825 506.834 71.0338 506.834 Q71.5608 506.834 71.8536 507.069 Q72.117 507.274 72.1463 507.479 Q72.1756 507.654 72.1756 507.976 Q72.1756 508.738 72.0878 511.315 Q71.9999 513.892 71.9999 514.624 L72.1756 522.179 Q72.1756 523.087 71.4437 523.087 Q71.0631 523.087 70.8582 523.028 Q70.624 522.94 70.5362 522.735 Q70.4191 522.53 70.3898 522.384 Q70.3605 522.237 70.3312 521.886 Q70.2141 520.803 69.8921 519.983 Q69.5408 519.133 69.1895 518.782 Q68.8382 518.401 68.5747 518.401 L67.7257 518.694 L53.4102 524.756 L59.2945 530.173 L65.7643 536.293 Q67.4915 537.904 68.4576 537.904 Q70.0678 537.904 70.3312 535.503 Q70.3898 534.771 70.9753 534.771 Q71.5315 534.771 71.8243 535.005 Q72.0878 535.21 72.1463 535.415 Q72.1756 535.591 72.1756 535.854 Q72.1756 536.938 72.0878 539.222 Q71.9999 541.477 71.9999 542.589 Q71.9999 543.526 72.0878 545.43 Q72.1756 547.333 72.1756 548.212 Q72.1756 548.563 71.9999 548.768 Q71.8243 548.973 71.6486 548.973 L71.5022 549.002 Q71.0924 549.002 70.8582 548.944 Q70.624 548.856 70.5069 548.622 Q70.3898 548.358 70.3898 548.241 Q70.3605 548.124 70.3312 547.685 Q70.1849 545.196 69.2188 543.087 Q68.2527 540.95 65.9985 538.87 Q65.8521 538.695 65.6765 538.49 Q65.5008 538.255 65.3545 538.08 L51.7415 525.429 L34.9961 532.516 Q34.2349 532.838 33.9129 533.131 Q33.5616 533.424 33.3274 534.331 Q33.0932 535.239 33.0932 536.996 Q33.0932 537.494 33.0639 537.728 Q33.0346 537.963 32.8882 538.168 Q32.7419 538.373 32.4198 538.373 Q31.8636 538.373 31.6001 538.168 Q31.3074 537.933 31.2781 537.758 Q31.2195 537.553 31.2195 537.289 Q31.2195 536.557 31.3074 533.951 Q31.3952 531.345 31.3952 530.583 Q31.3952 529.324 31.3074 526.806 Q31.2195 524.258 31.2195 523.028 Q31.2195 522.12 31.9514 522.12 Q32.4198 522.12 32.6833 522.325 Q32.9468 522.53 33.0053 522.735 Q33.0639 522.94 33.0932 523.321 Q33.2103 524.463 33.5908 525.341 Q33.9421 526.191 34.2934 526.542 Q34.6155 526.864 34.8204 526.864 L35.6108 526.571 L47.5258 521.535 L37.1039 511.812 Q35.8158 510.67 34.9375 510.67 Q33.3566 510.67 33.0932 513.072 Q32.9761 513.804 32.4198 513.804 Q31.8636 513.804 31.6001 513.57 Q31.3074 513.335 31.2781 513.16 Q31.2195 512.955 31.2195 512.662 Q31.2195 511.578 31.3074 509.353 Q31.3952 507.098 31.3952 505.985 Q31.3952 505.048 31.3074 503.145 Q31.2195 501.241 31.2195 500.363 Q31.2195 500.011 31.3952 499.806 Q31.5416 499.601 31.7172 499.601 L31.8929 499.572 Z" fill="#000000" fill-rule="evenodd" fill-opacity="1" /><path clip-path="url(#clip410)" d="M82.141 493.656 L80.85 493.656 L61.1566 480.762 Q60.6442 480.434 60.6647 479.922 Q60.6647 479.45 60.8492 479.348 Q61.0336 479.245 61.7508 479.245 L80.85 479.245 L80.85 475.043 L82.141 475.043 L82.141 479.245 L85.7887 479.245 Q86.9978 479.245 87.3871 478.753 Q87.7765 478.241 87.7765 476.068 L87.7765 475.187 L89.0675 475.187 Q88.9446 476.909 88.9446 480.885 Q88.9446 484.841 89.0675 486.563 L87.7765 486.563 L87.7765 485.682 Q87.7765 483.509 87.4076 482.997 Q87.0183 482.484 85.7887 482.484 L82.141 482.484 L82.141 493.656 M80.85 492.467 L80.85 482.238 L65.1936 482.238 L80.85 492.467 Z" fill="#000000" fill-rule="evenodd" fill-opacity="1" /><path clip-path="url(#clip410)" d="M31.8929 419.398 Q32.4198 419.398 32.7126 419.603 Q32.9761 419.778 33.0346 419.983 Q33.0639 420.188 33.0932 420.715 Q33.2981 424.903 36.1378 428.329 Q36.8697 429.178 39.1531 431.316 Q41.4366 433.424 44.4812 436.236 Q47.5258 439.017 49.1653 440.628 L67.6672 432.897 Q68.3991 432.575 68.7211 432.458 Q69.0139 432.312 69.3944 432.019 Q69.775 431.697 69.8921 431.462 Q70.0092 431.199 70.1556 430.642 Q70.2727 430.057 70.302 429.471 Q70.302 428.856 70.3312 427.743 Q70.3312 427.392 70.3605 427.246 Q70.3605 427.07 70.5362 426.865 Q70.6825 426.66 71.0338 426.66 Q71.5608 426.66 71.8536 426.894 Q72.117 427.099 72.1463 427.304 Q72.1756 427.48 72.1756 427.802 Q72.1756 428.563 72.0878 431.14 Q71.9999 433.717 71.9999 434.449 L72.1756 442.004 Q72.1756 442.912 71.4437 442.912 Q71.0631 442.912 70.8582 442.854 Q70.624 442.766 70.5362 442.561 Q70.4191 442.356 70.3898 442.209 Q70.3605 442.063 70.3312 441.712 Q70.2141 440.628 69.8921 439.808 Q69.5408 438.959 69.1895 438.608 Q68.8382 438.227 68.5747 438.227 L67.7257 438.52 L53.4102 444.581 L59.2945 449.999 L65.7643 456.119 Q67.4915 457.73 68.4576 457.73 Q70.0678 457.73 70.3312 455.328 Q70.3898 454.596 70.9753 454.596 Q71.5315 454.596 71.8243 454.831 Q72.0878 455.036 72.1463 455.241 Q72.1756 455.416 72.1756 455.68 Q72.1756 456.763 72.0878 459.047 Q71.9999 461.302 71.9999 462.415 Q71.9999 463.352 72.0878 465.255 Q72.1756 467.159 72.1756 468.037 Q72.1756 468.389 71.9999 468.594 Q71.8243 468.799 71.6486 468.799 L71.5022 468.828 Q71.0924 468.828 70.8582 468.769 Q70.624 468.682 70.5069 468.447 Q70.3898 468.184 70.3898 468.067 Q70.3605 467.95 70.3312 467.51 Q70.1849 465.021 69.2188 462.913 Q68.2527 460.775 65.9985 458.696 Q65.8521 458.52 65.6765 458.315 Q65.5008 458.081 65.3545 457.905 L51.7415 445.255 L34.9961 452.341 Q34.2349 452.664 33.9129 452.956 Q33.5616 453.249 33.3274 454.157 Q33.0932 455.065 33.0932 456.822 Q33.0932 457.32 33.0639 457.554 Q33.0346 457.788 32.8882 457.993 Q32.7419 458.198 32.4198 458.198 Q31.8636 458.198 31.6001 457.993 Q31.3074 457.759 31.2781 457.583 Q31.2195 457.378 31.2195 457.115 Q31.2195 456.383 31.3074 453.776 Q31.3952 451.17 31.3952 450.409 Q31.3952 449.15 31.3074 446.631 Q31.2195 444.084 31.2195 442.854 Q31.2195 441.946 31.9514 441.946 Q32.4198 441.946 32.6833 442.151 Q32.9468 442.356 33.0053 442.561 Q33.0639 442.766 33.0932 443.146 Q33.2103 444.288 33.5908 445.167 Q33.9421 446.016 34.2934 446.368 Q34.6155 446.69 34.8204 446.69 L35.6108 446.397 L47.5258 441.36 L37.1039 431.638 Q35.8158 430.496 34.9375 430.496 Q33.3566 430.496 33.0932 432.897 Q32.9761 433.629 32.4198 433.629 Q31.8636 433.629 31.6001 433.395 Q31.3074 433.161 31.2781 432.985 Q31.2195 432.78 31.2195 432.487 Q31.2195 431.404 31.3074 429.178 Q31.3952 426.923 31.3952 425.811 Q31.3952 424.874 31.3074 422.97 Q31.2195 421.067 31.2195 420.188 Q31.2195 419.837 31.3952 419.632 Q31.5416 419.427 31.7172 419.427 L31.8929 419.398 Z" fill="#000000" fill-rule="evenodd" fill-opacity="1" /><path clip-path="url(#clip410)" d="M82.0249 413.481 Q80.7749 413.481 80.3035 412.805 Q79.8117 412.128 79.8117 411.411 Q79.8117 410.448 80.4265 409.894 Q81.0208 409.32 81.861 409.32 Q82.7012 409.32 83.316 409.894 Q83.9102 410.448 83.9102 411.411 Q83.9102 411.882 83.8283 412.128 Q85.7546 411.575 87.1481 409.894 Q88.5416 408.193 88.5416 405.958 Q88.5416 403.15 85.8161 401.469 Q84.0537 400.465 80.0576 400.465 Q76.5329 400.465 74.7705 401.223 Q72.086 402.392 72.086 404.79 Q72.086 408.193 75.0164 410.202 Q75.3853 410.448 75.4058 410.735 Q75.4058 411.144 75.1804 411.247 Q74.9345 411.329 74.2992 411.329 L61.8806 411.329 Q60.8765 411.329 60.8765 410.919 Q60.8765 410.755 60.9995 410.407 Q62.1675 407.762 62.188 404.831 Q62.188 401.818 60.9585 399.112 Q60.8355 398.907 60.8355 398.784 Q60.8355 398.374 61.3068 398.353 Q61.4708 398.353 61.9626 398.702 Q62.4339 399.03 63.0692 399.747 Q63.684 400.465 64.2783 401.387 Q64.8726 402.31 65.2824 403.663 Q65.6718 404.995 65.6718 406.471 Q65.6718 408.234 65.1185 410.038 L73.295 410.038 Q71.1638 407.865 71.1638 404.708 Q71.1638 401.346 73.8688 399.03 Q76.5739 396.714 80.3445 396.714 Q84.2996 396.714 87.0046 399.46 Q89.7097 402.187 89.7097 405.876 Q89.7097 409.238 87.312 411.37 Q84.9144 413.481 82.0249 413.481 Z" fill="#000000" fill-rule="evenodd" fill-opacity="1" /><path clip-path="url(#clip410)" d="M31.8929 341.044 Q32.4198 341.044 32.7126 341.249 Q32.9761 341.425 33.0346 341.63 Q33.0639 341.835 33.0932 342.362 Q33.2981 346.549 36.1378 349.975 Q36.8697 350.825 39.1531 352.962 Q41.4366 355.071 44.4812 357.882 Q47.5258 360.664 49.1653 362.274 L67.6672 354.544 Q68.3991 354.222 68.7211 354.104 Q69.0139 353.958 69.3944 353.665 Q69.775 353.343 69.8921 353.109 Q70.0092 352.845 70.1556 352.289 Q70.2727 351.703 70.302 351.117 Q70.302 350.503 70.3312 349.39 Q70.3312 349.038 70.3605 348.892 Q70.3605 348.716 70.5362 348.511 Q70.6825 348.306 71.0338 348.306 Q71.5608 348.306 71.8536 348.541 Q72.117 348.746 72.1463 348.951 Q72.1756 349.126 72.1756 349.448 Q72.1756 350.21 72.0878 352.787 Q71.9999 355.364 71.9999 356.096 L72.1756 363.651 Q72.1756 364.559 71.4437 364.559 Q71.0631 364.559 70.8582 364.5 Q70.624 364.412 70.5362 364.207 Q70.4191 364.002 70.3898 363.856 Q70.3605 363.709 70.3312 363.358 Q70.2141 362.274 69.8921 361.455 Q69.5408 360.605 69.1895 360.254 Q68.8382 359.873 68.5747 359.873 L67.7257 360.166 L53.4102 366.228 L59.2945 371.645 L65.7643 377.765 Q67.4915 379.376 68.4576 379.376 Q70.0678 379.376 70.3312 376.975 Q70.3898 376.243 70.9753 376.243 Q71.5315 376.243 71.8243 376.477 Q72.0878 376.682 72.1463 376.887 Q72.1756 377.063 72.1756 377.326 Q72.1756 378.41 72.0878 380.694 Q71.9999 382.949 71.9999 384.061 Q71.9999 384.998 72.0878 386.902 Q72.1756 388.805 72.1756 389.684 Q72.1756 390.035 71.9999 390.24 Q71.8243 390.445 71.6486 390.445 L71.5022 390.474 Q71.0924 390.474 70.8582 390.416 Q70.624 390.328 70.5069 390.094 Q70.3898 389.83 70.3898 389.713 Q70.3605 389.596 70.3312 389.157 Q70.1849 386.668 69.2188 384.559 Q68.2527 382.421 65.9985 380.342 Q65.8521 380.167 65.6765 379.962 Q65.5008 379.727 65.3545 379.552 L51.7415 366.901 L34.9961 373.988 Q34.2349 374.31 33.9129 374.603 Q33.5616 374.896 33.3274 375.803 Q33.0932 376.711 33.0932 378.468 Q33.0932 378.966 33.0639 379.2 Q33.0346 379.435 32.8882 379.64 Q32.7419 379.845 32.4198 379.845 Q31.8636 379.845 31.6001 379.64 Q31.3074 379.405 31.2781 379.23 Q31.2195 379.025 31.2195 378.761 Q31.2195 378.029 31.3074 375.423 Q31.3952 372.817 31.3952 372.055 Q31.3952 370.796 31.3074 368.278 Q31.2195 365.73 31.2195 364.5 Q31.2195 363.592 31.9514 363.592 Q32.4198 363.592 32.6833 363.797 Q32.9468 364.002 33.0053 364.207 Q33.0639 364.412 33.0932 364.793 Q33.2103 365.935 33.5908 366.813 Q33.9421 367.663 34.2934 368.014 Q34.6155 368.336 34.8204 368.336 L35.6108 368.043 L47.5258 363.007 L37.1039 353.284 Q35.8158 352.142 34.9375 352.142 Q33.3566 352.142 33.0932 354.544 Q32.9761 355.276 32.4198 355.276 Q31.8636 355.276 31.6001 355.041 Q31.3074 354.807 31.2781 354.631 Q31.2195 354.427 31.2195 354.134 Q31.2195 353.05 31.3074 350.825 Q31.3952 348.57 31.3952 347.457 Q31.3952 346.52 31.3074 344.617 Q31.2195 342.713 31.2195 341.835 Q31.2195 341.483 31.3952 341.278 Q31.5416 341.073 31.7172 341.073 L31.8929 341.044 Z" fill="#000000" fill-rule="evenodd" fill-opacity="1" /><path clip-path="url(#clip410)" d="M82.4553 335.128 Q77.7624 335.128 74.7295 329.081 Q72.9672 331.684 72.4548 332.155 Q70.4056 334 67.844 334 Q64.9135 334 62.8848 331.786 Q60.8355 329.552 60.8355 326.395 Q60.8355 323.382 62.5774 321.107 Q64.3193 318.831 67.0858 318.831 Q70.9794 318.831 73.6024 323.915 Q75.6927 320.553 76.5739 319.754 Q78.8486 317.704 81.738 317.704 Q85.0988 317.704 87.4145 320.287 Q89.7097 322.87 89.7097 326.436 Q89.7097 329.921 87.6809 332.524 Q85.6521 335.128 82.4553 335.128 M82.4553 333.037 Q85.0578 333.037 86.7997 331.09 Q88.5416 329.122 88.5416 326.395 Q88.5416 323.751 87.0251 321.783 Q85.5087 319.795 83.2545 319.795 Q82.3733 319.795 81.6151 320.102 Q80.8568 320.389 80.2625 320.984 Q79.6478 321.558 79.3814 321.927 Q79.0945 322.275 78.6231 322.952 L75.3648 328.117 Q78.0903 333.037 82.4553 333.037 M66.2046 332.155 Q68.2129 332.155 69.6064 330.044 L72.9672 324.838 Q70.5285 320.676 67.0858 320.676 Q64.8521 320.676 63.3766 322.378 Q61.8806 324.079 61.8806 326.436 Q61.8806 328.753 63.1102 330.454 Q64.3193 332.155 66.2046 332.155 Z" fill="#000000" fill-rule="evenodd" fill-opacity="1" /><path clip-path="url(#clip410)" d="M56.7768 298.005 Q56.8939 297.946 57.1867 297.946 Q57.4794 297.946 57.5965 298.005 L86.3741 309.162 Q87.1645 309.454 87.1645 310.274 Q87.1645 310.772 86.8132 311.124 Q86.4619 311.475 85.9642 311.475 Q85.6715 311.475 85.5544 311.416 L57.1867 300.406 L28.819 311.416 Q28.7019 311.475 28.4091 311.475 Q27.9114 311.475 27.5601 311.124 Q27.2088 310.772 27.2088 310.274 Q27.2088 309.454 27.9993 309.162 L56.7768 298.005 Z" fill="#000000" fill-rule="evenodd" fill-opacity="1" /></svg>
