<?xml version="1.0" encoding="utf-8"?>
<svg xmlns="http://www.w3.org/2000/svg" xmlns:xlink="http://www.w3.org/1999/xlink" width="426.75" height="263.5" viewBox="0 0 1707 1054">
<defs>
  <clipPath id="clip330">
    <rect x="0" y="0" width="1707" height="1054"/>
  </clipPath>
</defs>
<path clip-path="url(#clip330)" d="M0 1054 L1707 1054 L1707 0 L0 0  Z" fill="#ffffff" fill-rule="evenodd" fill-opacity="1"/>
<defs>
  <clipPath id="clip331">
    <rect x="341" y="0" width="1196" height="1054"/>
  </clipPath>
</defs>
<path clip-path="url(#clip330)" d="M154.584 888.691 L1659.76 888.691 L1659.76 47.2528 L154.584 47.2528  Z" fill="#ffffff" fill-rule="evenodd" fill-opacity="1"/>
<defs>
  <clipPath id="clip332">
    <rect x="154" y="47" width="1506" height="842"/>
  </clipPath>
</defs>
<polyline clip-path="url(#clip332)" style="stroke:#000000; stroke-linecap:round; stroke-linejoin:round; stroke-width:2.00037; stroke-opacity:0.1; fill:none" points="197.183,888.691 197.183,47.2528 "/>
<polyline clip-path="url(#clip332)" style="stroke:#000000; stroke-linecap:round; stroke-linejoin:round; stroke-width:2.00037; stroke-opacity:0.1; fill:none" points="552.178,888.691 552.178,47.2528 "/>
<polyline clip-path="url(#clip332)" style="stroke:#000000; stroke-linecap:round; stroke-linejoin:round; stroke-width:2.00037; stroke-opacity:0.1; fill:none" points="907.172,888.691 907.172,47.2528 "/>
<polyline clip-path="url(#clip332)" style="stroke:#000000; stroke-linecap:round; stroke-linejoin:round; stroke-width:2.00037; stroke-opacity:0.1; fill:none" points="1262.17,888.691 1262.17,47.2528 "/>
<polyline clip-path="url(#clip332)" style="stroke:#000000; stroke-linecap:round; stroke-linejoin:round; stroke-width:2.00037; stroke-opacity:0.1; fill:none" points="1617.16,888.691 1617.16,47.2528 "/>
<polyline clip-path="url(#clip330)" style="stroke:#000000; stroke-linecap:round; stroke-linejoin:round; stroke-width:4.00074; stroke-opacity:1; fill:none" points="154.584,888.691 1659.76,888.691 "/>
<polyline clip-path="url(#clip330)" style="stroke:#000000; stroke-linecap:round; stroke-linejoin:round; stroke-width:4.00074; stroke-opacity:1; fill:none" points="154.584,47.2528 1659.76,47.2528 "/>
<polyline clip-path="url(#clip330)" style="stroke:#000000; stroke-linecap:round; stroke-linejoin:round; stroke-width:4.00074; stroke-opacity:1; fill:none" points="197.183,888.691 197.183,869.79 "/>
<polyline clip-path="url(#clip330)" style="stroke:#000000; stroke-linecap:round; stroke-linejoin:round; stroke-width:4.00074; stroke-opacity:1; fill:none" points="552.178,888.691 552.178,869.79 "/>
<polyline clip-path="url(#clip330)" style="stroke:#000000; stroke-linecap:round; stroke-linejoin:round; stroke-width:4.00074; stroke-opacity:1; fill:none" points="907.172,888.691 907.172,869.79 "/>
<polyline clip-path="url(#clip330)" style="stroke:#000000; stroke-linecap:round; stroke-linejoin:round; stroke-width:4.00074; stroke-opacity:1; fill:none" points="1262.17,888.691 1262.17,869.79 "/>
<polyline clip-path="url(#clip330)" style="stroke:#000000; stroke-linecap:round; stroke-linejoin:round; stroke-width:4.00074; stroke-opacity:1; fill:none" points="1617.16,888.691 1617.16,869.79 "/>
<path clip-path="url(#clip330)" d="M163.073 932.753 Q163.073 924.387 165.185 919.828 Q168.13 913.046 175.077 913.046 Q176.55 913.046 178.078 913.463 Q179.635 913.852 181.58 915.381 Q183.553 916.91 184.748 919.411 Q187.026 924.248 187.026 932.753 Q187.026 941.065 184.914 945.595 Q181.83 952.211 175.022 952.211 Q172.465 952.211 169.853 950.905 Q167.269 949.598 165.629 946.457 Q163.073 941.76 163.073 932.753 M167.797 932.059 Q167.797 940.648 168.408 944.067 Q169.103 947.764 170.992 949.376 Q172.91 950.96 175.022 950.96 Q177.3 950.96 179.19 949.265 Q181.107 947.541 181.691 943.844 Q182.33 940.203 182.302 932.059 Q182.302 924.137 181.747 920.968 Q180.996 917.271 178.995 915.798 Q177.022 914.297 175.022 914.297 Q174.271 914.297 173.466 914.519 Q172.687 914.741 171.548 915.381 Q170.409 916.02 169.52 917.604 Q168.658 919.189 168.241 921.579 Q167.797 924.665 167.797 932.059 Z" fill="#000000" fill-rule="evenodd" fill-opacity="1" /><path clip-path="url(#clip330)" d="M195.002 950.043 Q194.14 949.126 194.14 947.93 Q194.14 946.735 195.002 945.873 Q195.863 944.984 197.169 944.984 Q198.42 944.984 199.253 945.818 Q200.115 946.624 200.115 947.958 Q200.115 949.265 199.198 950.126 Q198.309 950.96 197.169 950.96 Q195.863 950.96 195.002 950.043 Z" fill="#000000" fill-rule="evenodd" fill-opacity="1" /><path clip-path="url(#clip330)" d="M207.34 932.753 Q207.34 924.387 209.452 919.828 Q212.397 913.046 219.344 913.046 Q220.817 913.046 222.346 913.463 Q223.902 913.852 225.847 915.381 Q227.82 916.91 229.015 919.411 Q231.294 924.248 231.294 932.753 Q231.294 941.065 229.182 945.595 Q226.097 952.211 219.289 952.211 Q216.732 952.211 214.12 950.905 Q211.536 949.598 209.896 946.457 Q207.34 941.76 207.34 932.753 M212.064 932.059 Q212.064 940.648 212.675 944.067 Q213.37 947.764 215.26 949.376 Q217.177 950.96 219.289 950.96 Q221.568 950.96 223.457 949.265 Q225.375 947.541 225.958 943.844 Q226.597 940.203 226.57 932.059 Q226.57 924.137 226.014 920.968 Q225.263 917.271 223.263 915.798 Q221.29 914.297 219.289 914.297 Q218.539 914.297 217.733 914.519 Q216.955 914.741 215.815 915.381 Q214.676 916.02 213.787 917.604 Q212.925 919.189 212.508 921.579 Q212.064 924.665 212.064 932.059 Z" fill="#000000" fill-rule="evenodd" fill-opacity="1" /><path clip-path="url(#clip330)" d="M518.373 932.753 Q518.373 924.387 520.485 919.828 Q523.43 913.046 530.377 913.046 Q531.85 913.046 533.379 913.463 Q534.935 913.852 536.88 915.381 Q538.853 916.91 540.048 919.411 Q542.327 924.248 542.327 932.753 Q542.327 941.065 540.215 945.595 Q537.13 952.211 530.322 952.211 Q527.765 952.211 525.153 950.905 Q522.569 949.598 520.929 946.457 Q518.373 941.76 518.373 932.753 M523.097 932.059 Q523.097 940.648 523.708 944.067 Q524.403 947.764 526.293 949.376 Q528.21 950.96 530.322 950.96 Q532.601 950.96 534.49 949.265 Q536.408 947.541 536.991 943.844 Q537.63 940.203 537.602 932.059 Q537.602 924.137 537.047 920.968 Q536.296 917.271 534.296 915.798 Q532.323 914.297 530.322 914.297 Q529.572 914.297 528.766 914.519 Q527.988 914.741 526.848 915.381 Q525.709 916.02 524.82 917.604 Q523.958 919.189 523.541 921.579 Q523.097 924.665 523.097 932.059 Z" fill="#000000" fill-rule="evenodd" fill-opacity="1" /><path clip-path="url(#clip330)" d="M550.302 950.043 Q549.44 949.126 549.44 947.93 Q549.44 946.735 550.302 945.873 Q551.163 944.984 552.469 944.984 Q553.72 944.984 554.554 945.818 Q555.415 946.624 555.415 947.958 Q555.415 949.265 554.498 950.126 Q553.609 950.96 552.469 950.96 Q551.163 950.96 550.302 950.043 Z" fill="#000000" fill-rule="evenodd" fill-opacity="1" /><path clip-path="url(#clip330)" d="M563.251 941.787 Q563.251 940.092 564.168 939.452 Q565.085 938.785 566.058 938.785 Q567.364 938.785 568.114 939.619 Q568.892 940.425 568.892 941.565 Q568.892 942.705 568.114 943.538 Q567.364 944.345 566.058 944.345 Q565.419 944.345 565.085 944.233 Q565.836 946.846 568.114 948.736 Q570.421 950.627 573.45 950.627 Q577.257 950.627 579.535 946.93 Q580.897 944.539 580.897 939.119 Q580.897 934.338 579.869 931.947 Q578.285 928.306 575.034 928.306 Q570.421 928.306 567.698 932.281 Q567.364 932.781 566.975 932.809 Q566.419 932.809 566.28 932.503 Q566.169 932.17 566.169 931.308 L566.169 914.463 Q566.169 913.101 566.725 913.101 Q566.947 913.101 567.42 913.268 Q571.004 914.853 574.978 914.88 Q579.063 914.88 582.731 913.213 Q583.009 913.046 583.176 913.046 Q583.732 913.046 583.759 913.685 Q583.759 913.908 583.287 914.575 Q582.842 915.214 581.87 916.076 Q580.897 916.91 579.647 917.716 Q578.396 918.522 576.562 919.078 Q574.756 919.606 572.755 919.606 Q570.365 919.606 567.92 918.855 L567.92 929.946 Q570.865 927.055 575.145 927.055 Q579.702 927.055 582.842 930.724 Q585.982 934.393 585.982 939.508 Q585.982 944.873 582.259 948.542 Q578.563 952.211 573.561 952.211 Q569.004 952.211 566.114 948.959 Q563.251 945.707 563.251 941.787 Z" fill="#000000" fill-rule="evenodd" fill-opacity="1" /><path clip-path="url(#clip330)" d="M874.479 918.466 L874.479 916.687 Q881.315 916.687 884.844 913.046 Q885.817 913.046 885.983 913.268 Q886.15 913.491 886.15 914.519 L886.15 946.457 Q886.15 948.153 886.984 948.681 Q887.817 949.209 891.458 949.209 L893.264 949.209 L893.264 950.96 Q891.263 950.793 884.038 950.793 Q876.813 950.793 874.84 950.96 L874.84 949.209 L876.646 949.209 Q880.231 949.209 881.093 948.709 Q881.954 948.18 881.954 946.457 L881.954 916.965 Q878.981 918.466 874.479 918.466 Z" fill="#000000" fill-rule="evenodd" fill-opacity="1" /><path clip-path="url(#clip330)" d="M903.573 950.043 Q902.712 949.126 902.712 947.93 Q902.712 946.735 903.573 945.873 Q904.435 944.984 905.741 944.984 Q906.991 944.984 907.825 945.818 Q908.687 946.624 908.687 947.958 Q908.687 949.265 907.77 950.126 Q906.88 950.96 905.741 950.96 Q904.435 950.96 903.573 950.043 Z" fill="#000000" fill-rule="evenodd" fill-opacity="1" /><path clip-path="url(#clip330)" d="M915.912 932.753 Q915.912 924.387 918.024 919.828 Q920.969 913.046 927.916 913.046 Q929.389 913.046 930.917 913.463 Q932.474 913.852 934.419 915.381 Q936.392 916.91 937.587 919.411 Q939.865 924.248 939.865 932.753 Q939.865 941.065 937.753 945.595 Q934.669 952.211 927.861 952.211 Q925.304 952.211 922.692 950.905 Q920.108 949.598 918.468 946.457 Q915.912 941.76 915.912 932.753 M920.636 932.059 Q920.636 940.648 921.247 944.067 Q921.942 947.764 923.831 949.376 Q925.749 950.96 927.861 950.96 Q930.139 950.96 932.029 949.265 Q933.946 947.541 934.53 943.844 Q935.169 940.203 935.141 932.059 Q935.141 924.137 934.586 920.968 Q933.835 917.271 931.834 915.798 Q929.861 914.297 927.861 914.297 Q927.11 914.297 926.305 914.519 Q925.526 914.741 924.387 915.381 Q923.248 916.02 922.359 917.604 Q921.497 919.189 921.08 921.579 Q920.636 924.665 920.636 932.059 Z" fill="#000000" fill-rule="evenodd" fill-opacity="1" /><path clip-path="url(#clip330)" d="M1229.78 918.466 L1229.78 916.687 Q1236.62 916.687 1240.14 913.046 Q1241.12 913.046 1241.28 913.268 Q1241.45 913.491 1241.45 914.519 L1241.45 946.457 Q1241.45 948.153 1242.28 948.681 Q1243.12 949.209 1246.76 949.209 L1248.56 949.209 L1248.56 950.96 Q1246.56 950.793 1239.34 950.793 Q1232.11 950.793 1230.14 950.96 L1230.14 949.209 L1231.95 949.209 Q1235.53 949.209 1236.39 948.709 Q1237.25 948.18 1237.25 946.457 L1237.25 916.965 Q1234.28 918.466 1229.78 918.466 Z" fill="#000000" fill-rule="evenodd" fill-opacity="1" /><path clip-path="url(#clip330)" d="M1258.87 950.043 Q1258.01 949.126 1258.01 947.93 Q1258.01 946.735 1258.87 945.873 Q1259.74 944.984 1261.04 944.984 Q1262.29 944.984 1263.13 945.818 Q1263.99 946.624 1263.99 947.958 Q1263.99 949.265 1263.07 950.126 Q1262.18 950.96 1261.04 950.96 Q1259.74 950.96 1258.87 950.043 Z" fill="#000000" fill-rule="evenodd" fill-opacity="1" /><path clip-path="url(#clip330)" d="M1271.82 941.787 Q1271.82 940.092 1272.74 939.452 Q1273.66 938.785 1274.63 938.785 Q1275.94 938.785 1276.69 939.619 Q1277.46 940.425 1277.46 941.565 Q1277.46 942.705 1276.69 943.538 Q1275.94 944.345 1274.63 944.345 Q1273.99 944.345 1273.66 944.233 Q1274.41 946.846 1276.69 948.736 Q1278.99 950.627 1282.02 950.627 Q1285.83 950.627 1288.11 946.93 Q1289.47 944.539 1289.47 939.119 Q1289.47 934.338 1288.44 931.947 Q1286.86 928.306 1283.61 928.306 Q1278.99 928.306 1276.27 932.281 Q1275.94 932.781 1275.55 932.809 Q1274.99 932.809 1274.85 932.503 Q1274.74 932.17 1274.74 931.308 L1274.74 914.463 Q1274.74 913.101 1275.3 913.101 Q1275.52 913.101 1275.99 913.268 Q1279.58 914.853 1283.55 914.88 Q1287.63 914.88 1291.3 913.213 Q1291.58 913.046 1291.75 913.046 Q1292.3 913.046 1292.33 913.685 Q1292.33 913.908 1291.86 914.575 Q1291.41 915.214 1290.44 916.076 Q1289.47 916.91 1288.22 917.716 Q1286.97 918.522 1285.13 919.078 Q1283.33 919.606 1281.33 919.606 Q1278.94 919.606 1276.49 918.855 L1276.49 929.946 Q1279.44 927.055 1283.72 927.055 Q1288.27 927.055 1291.41 930.724 Q1294.55 934.393 1294.55 939.508 Q1294.55 944.873 1290.83 948.542 Q1287.13 952.211 1282.13 952.211 Q1277.58 952.211 1274.69 948.959 Q1271.82 945.707 1271.82 941.787 Z" fill="#000000" fill-rule="evenodd" fill-opacity="1" /><path clip-path="url(#clip330)" d="M1583.36 950.96 Q1583.36 949.932 1583.44 949.626 Q1583.55 949.32 1584 948.848 L1594.92 936.673 Q1600.89 929.946 1600.89 924.081 Q1600.89 920.273 1598.89 917.549 Q1596.92 914.825 1593.28 914.825 Q1590.78 914.825 1588.66 916.354 Q1586.55 917.882 1585.58 920.606 Q1585.75 920.551 1586.33 920.551 Q1587.75 920.551 1588.53 921.44 Q1589.33 922.33 1589.33 923.525 Q1589.33 925.054 1588.33 925.804 Q1587.36 926.527 1586.39 926.527 Q1586 926.527 1585.47 926.444 Q1584.97 926.36 1584.16 925.582 Q1583.36 924.776 1583.36 923.358 Q1583.36 919.383 1586.36 916.215 Q1589.39 913.046 1594 913.046 Q1599.22 913.046 1602.64 916.159 Q1606.09 919.244 1606.09 924.081 Q1606.09 925.777 1605.56 927.333 Q1605.06 928.862 1604.36 930.057 Q1603.7 931.252 1601.86 933.17 Q1600.03 935.088 1598.56 936.45 Q1597.08 937.812 1593.78 940.703 L1587.75 946.568 L1598 946.568 Q1603 946.568 1603.39 946.124 Q1603.95 945.317 1604.64 941.065 L1606.09 941.065 L1604.48 950.96 L1583.36 950.96 Z" fill="#000000" fill-rule="evenodd" fill-opacity="1" /><path clip-path="url(#clip330)" d="M1614.67 950.043 Q1613.81 949.126 1613.81 947.93 Q1613.81 946.735 1614.67 945.873 Q1615.54 944.984 1616.84 944.984 Q1618.09 944.984 1618.93 945.818 Q1619.79 946.624 1619.79 947.958 Q1619.79 949.265 1618.87 950.126 Q1617.98 950.96 1616.84 950.96 Q1615.54 950.96 1614.67 950.043 Z" fill="#000000" fill-rule="evenodd" fill-opacity="1" /><path clip-path="url(#clip330)" d="M1627.01 932.753 Q1627.01 924.387 1629.12 919.828 Q1632.07 913.046 1639.02 913.046 Q1640.49 913.046 1642.02 913.463 Q1643.57 913.852 1645.52 915.381 Q1647.49 916.91 1648.69 919.411 Q1650.97 924.248 1650.97 932.753 Q1650.97 941.065 1648.85 945.595 Q1645.77 952.211 1638.96 952.211 Q1636.4 952.211 1633.79 950.905 Q1631.21 949.598 1629.57 946.457 Q1627.01 941.76 1627.01 932.753 M1631.74 932.059 Q1631.74 940.648 1632.35 944.067 Q1633.04 947.764 1634.93 949.376 Q1636.85 950.96 1638.96 950.96 Q1641.24 950.96 1643.13 949.265 Q1645.05 947.541 1645.63 943.844 Q1646.27 940.203 1646.24 932.059 Q1646.24 924.137 1645.69 920.968 Q1644.94 917.271 1642.94 915.798 Q1640.96 914.297 1638.96 914.297 Q1638.21 914.297 1637.41 914.519 Q1636.63 914.741 1635.49 915.381 Q1634.35 916.02 1633.46 917.604 Q1632.6 919.189 1632.18 921.579 Q1631.74 924.665 1631.74 932.059 Z" fill="#000000" fill-rule="evenodd" fill-opacity="1" /><path clip-path="url(#clip330)" d="M837.299 995.884 L838.503 981.677 L877.13 981.677 L878.334 995.884 L876.759 995.884 Q876.512 993.043 876.265 991.406 Q876.049 989.769 875.493 988.225 Q874.968 986.65 874.289 985.909 Q873.641 985.136 872.375 984.55 Q871.109 983.932 869.472 983.778 Q867.836 983.623 865.366 983.623 Q862.463 983.623 861.753 983.747 Q860.981 983.932 860.796 984.488 Q860.611 985.013 860.611 986.156 L860.611 1019.48 Q860.611 1020.75 860.858 1021.27 Q861.136 1021.77 862.587 1022.17 Q864.038 1022.54 867.249 1022.54 L869.781 1022.54 L869.781 1024.48 Q867.187 1024.3 857.77 1024.3 Q848.415 1024.3 845.821 1024.48 L845.821 1022.54 L848.353 1022.54 Q851.564 1022.54 853.015 1022.17 Q854.497 1021.77 854.744 1021.27 Q854.991 1020.75 854.991 1019.48 L854.991 986.156 Q854.991 985.26 854.93 984.889 Q854.868 984.519 854.59 984.21 Q854.312 983.87 853.664 983.747 Q853.046 983.623 850.267 983.623 Q847.797 983.623 846.13 983.778 Q844.493 983.932 843.227 984.55 Q841.962 985.136 841.282 985.909 Q840.634 986.65 840.078 988.225 Q839.553 989.769 839.337 991.406 Q839.121 993.043 838.874 995.884 L837.299 995.884 Z" fill="#000000" fill-rule="evenodd" fill-opacity="1" /><path clip-path="url(#clip330)" d="M882.749 1024.48 L882.749 1022.54 Q886.115 1022.54 886.886 1022.14 Q887.658 1021.7 887.658 1019.67 L887.658 1002.65 Q887.658 1000.3 886.856 999.745 Q886.084 999.189 882.996 999.189 L882.996 997.212 L891.827 996.533 L891.827 1019.73 Q891.827 1021.61 892.506 1022.07 Q893.185 1022.54 896.273 1022.54 L896.273 1024.48 Q889.82 1024.3 889.696 1024.3 Q888.832 1024.3 882.749 1024.48 M885.404 985.507 Q885.404 984.241 886.362 983.222 Q887.35 982.172 888.739 982.172 Q890.128 982.172 891.116 983.129 Q892.105 984.056 892.105 985.538 Q892.105 986.99 891.116 987.947 Q890.128 988.874 888.739 988.874 Q887.288 988.874 886.331 987.854 Q885.404 986.835 885.404 985.507 Z" fill="#000000" fill-rule="evenodd" fill-opacity="1" /><path clip-path="url(#clip330)" d="M900.194 1024.48 L900.194 1022.54 Q903.56 1022.54 904.331 1022.14 Q905.103 1021.7 905.103 1019.67 L905.103 1002.71 Q905.103 1000.36 904.27 999.776 Q903.467 999.189 900.194 999.189 L900.194 997.212 L909.086 996.533 L909.086 1003.17 Q912.051 996.533 918.442 996.533 Q925.852 996.533 926.871 1002.71 Q927.952 1000.3 930.206 998.417 Q932.491 996.533 936.041 996.533 Q940.796 996.533 942.68 998.88 Q944.069 1000.46 944.347 1002.22 Q944.625 1003.98 944.625 1008.55 L944.625 1020.62 Q944.687 1021.95 945.706 1022.26 Q946.725 1022.54 949.565 1022.54 L949.565 1024.48 Q943.112 1024.3 942.494 1024.3 Q942 1024.3 935.331 1024.48 L935.331 1022.54 Q938.697 1022.54 939.469 1022.14 Q940.271 1021.7 940.271 1019.67 L940.271 1004.93 Q940.271 1001.72 939.283 999.838 Q938.295 997.923 935.578 997.923 Q932.305 997.923 929.681 1000.67 Q927.056 1003.42 927.056 1008.05 L927.056 1019.67 Q927.056 1021.7 927.828 1022.14 Q928.631 1022.54 931.997 1022.54 L931.997 1024.48 Q925.543 1024.3 924.895 1024.3 Q924.401 1024.3 917.763 1024.48 L917.763 1022.54 Q921.128 1022.54 921.9 1022.14 Q922.703 1021.7 922.703 1019.67 L922.703 1004.93 Q922.703 1001.72 921.715 999.838 Q920.727 997.923 918.01 997.923 Q914.737 997.923 912.112 1000.67 Q909.488 1003.42 909.488 1008.05 L909.488 1019.67 Q909.488 1021.7 910.26 1022.14 Q911.063 1022.54 914.397 1022.54 L914.397 1024.48 Q907.944 1024.3 907.326 1024.3 Q906.832 1024.3 900.194 1024.48 Z" fill="#000000" fill-rule="evenodd" fill-opacity="1" /><path clip-path="url(#clip330)" d="M952.56 1010.55 Q952.56 1004.59 956.389 1000.36 Q960.217 996.131 965.713 996.131 Q971.271 996.131 974.143 999.745 Q977.045 1003.36 977.045 1008.55 Q977.045 1009.5 976.798 1009.69 Q976.551 1009.88 975.47 1009.88 L957.809 1009.88 Q957.809 1016.33 959.723 1019.36 Q962.379 1023.59 966.856 1023.59 Q967.473 1023.59 968.214 1023.46 Q968.955 1023.34 970.468 1022.82 Q971.981 1022.26 973.309 1020.81 Q974.637 1019.36 975.409 1017.07 Q975.594 1016.18 976.211 1016.21 Q977.045 1016.21 977.045 1016.95 Q977.045 1017.5 976.427 1018.77 Q975.841 1020.01 974.698 1021.49 Q973.556 1022.97 971.333 1024.08 Q969.141 1025.19 966.485 1025.19 Q960.928 1025.19 956.728 1020.99 Q952.56 1016.76 952.56 1010.55 M957.871 1008.55 L972.877 1008.55 Q972.877 1007.22 972.63 1005.74 Q972.414 1004.25 971.734 1002.22 Q971.086 1000.15 969.542 998.849 Q967.998 997.552 965.713 997.552 Q964.694 997.552 963.583 997.985 Q962.502 998.417 961.175 999.467 Q959.847 1000.52 958.921 1002.9 Q957.994 1005.27 957.871 1008.55 Z" fill="#000000" fill-rule="evenodd" fill-opacity="1" /><polyline clip-path="url(#clip332)" style="stroke:#000000; stroke-linecap:round; stroke-linejoin:round; stroke-width:2.00037; stroke-opacity:0.1; fill:none" points="154.584,864.877 1659.76,864.877 "/>
<polyline clip-path="url(#clip330)" style="stroke:#000000; stroke-linecap:round; stroke-linejoin:round; stroke-width:4.00074; stroke-opacity:1; fill:none" points="154.584,888.691 154.584,47.2528 "/>
<polyline clip-path="url(#clip330)" style="stroke:#000000; stroke-linecap:round; stroke-linejoin:round; stroke-width:4.00074; stroke-opacity:1; fill:none" points="1659.76,888.691 1659.76,47.2528 "/>
<polyline clip-path="url(#clip330)" style="stroke:#000000; stroke-linecap:round; stroke-linejoin:round; stroke-width:4.00074; stroke-opacity:1; fill:none" points="154.584,864.877 173.48,864.877 "/>
<path clip-path="url(#clip330)" d="M110.194 851.827 L110.194 850.048 Q117.03 850.048 120.559 846.406 Q121.531 846.406 121.698 846.629 Q121.865 846.851 121.865 847.88 L121.865 879.818 Q121.865 881.513 122.699 882.041 Q123.532 882.569 127.172 882.569 L128.979 882.569 L128.979 884.321 Q126.978 884.154 119.753 884.154 Q112.528 884.154 110.555 884.321 L110.555 882.569 L112.361 882.569 Q115.946 882.569 116.807 882.069 Q117.669 881.541 117.669 879.818 L117.669 850.326 Q114.695 851.827 110.194 851.827 Z" fill="#000000" fill-rule="evenodd" fill-opacity="1" /><path clip-path="url(#clip330)" d="M71.6299 572.826 L69.6847 572.826 L69.6847 571.313 Q69.6847 567.885 69.1289 567.113 Q68.5423 566.31 66.6897 566.31 L33.5595 566.31 Q31.7378 566.31 31.1821 567.113 Q30.5954 567.916 30.5954 571.313 L30.5954 572.826 L28.6194 572.826 L28.6194 538.112 L42.8533 536.351 L42.8533 537.926 Q39.2408 538.359 37.2029 538.946 Q35.1342 539.501 33.4978 540.799 Q31.8614 542.096 31.2438 544.289 Q30.5954 546.451 30.5954 550.002 L30.5954 557.6 Q30.5954 559.762 31.0586 560.225 Q31.4908 560.689 33.1273 560.689 L49.1212 560.689 L49.1212 555.253 Q49.1212 550.96 47.5773 549.755 Q46.0335 548.551 41.7109 548.551 L41.7109 546.976 L58.4766 546.976 L58.4766 548.551 Q54.1231 548.551 52.6102 549.755 Q51.0664 550.96 51.0664 555.253 L51.0664 560.689 L66.628 560.689 Q67.9556 560.689 68.4805 560.472 Q68.9746 560.256 69.3451 558.928 Q69.6847 557.6 69.6847 554.697 L69.6847 552.597 L71.6299 552.597 Q71.4447 554.882 71.4447 563.221 Q71.4447 570.603 71.6299 572.826 Z" fill="#000000" fill-rule="evenodd" fill-opacity="1" /><path clip-path="url(#clip330)" d="M71.6299 531.595 L69.6847 531.595 Q69.6847 528.228 69.2833 527.456 Q68.8511 526.684 66.8132 526.684 L49.8004 526.684 Q47.4538 526.684 46.8981 527.487 Q46.3423 528.259 46.3423 531.348 L44.3662 531.348 L43.6869 522.515 L66.875 522.515 Q68.7584 522.515 69.2216 521.835 Q69.6847 521.156 69.6847 518.067 L71.6299 518.067 Q71.4447 524.522 71.4447 524.646 Q71.4447 525.511 71.6299 531.595 M32.6641 528.939 Q31.3982 528.939 30.3793 527.981 Q29.3295 526.993 29.3295 525.603 Q29.3295 524.213 30.2867 523.225 Q31.213 522.237 32.695 522.237 Q34.1462 522.237 35.1034 523.225 Q36.0296 524.213 36.0296 525.603 Q36.0296 527.055 35.0107 528.012 Q33.9918 528.939 32.6641 528.939 Z" fill="#000000" fill-rule="evenodd" fill-opacity="1" /><path clip-path="url(#clip330)" d="M58.0444 514.021 Q52.0235 514.021 47.8552 509.821 Q43.6869 505.621 43.6869 499.938 Q43.6869 495.12 47.6082 491.97 L33.9301 491.97 Q31.5835 491.97 30.9968 492.804 Q30.4102 493.607 30.4102 496.88 L28.4341 496.88 L27.7548 487.769 L66.1339 487.769 Q68.4805 487.769 69.0981 486.966 Q69.6847 486.132 69.6847 482.859 L71.6299 482.859 L72.3401 492.155 L68.1409 492.155 Q72.3092 495.429 72.3401 500.617 Q72.3401 506.053 68.1718 510.037 Q64.0035 514.021 58.0444 514.021 M58.1061 508.771 Q63.9726 508.771 66.875 506.949 Q70.9198 504.416 70.9198 500.309 Q70.9198 495.614 66.5045 492.834 Q65.4238 492.124 64.1579 492.155 L51.1899 492.155 Q49.9239 492.155 48.8741 492.834 Q45.0764 495.429 45.0764 499.66 Q45.0764 504.077 49.1212 506.825 Q52.147 508.771 58.1061 508.771 Z" fill="#000000" fill-rule="evenodd" fill-opacity="1" /><path clip-path="url(#clip330)" d="M57.7047 479.338 Q51.7456 479.338 47.5156 475.508 Q43.2856 471.678 43.2856 466.181 Q43.2856 460.621 46.8981 457.749 Q50.5106 454.846 55.6978 454.846 Q56.6549 454.846 56.8402 455.093 Q57.0255 455.34 57.0255 456.421 L57.0255 474.087 Q63.4786 474.087 66.5045 472.172 Q70.7345 469.516 70.7345 465.038 Q70.7345 464.42 70.611 463.679 Q70.4875 462.938 69.9626 461.424 Q69.4068 459.911 67.9556 458.583 Q66.5045 457.255 64.2196 456.483 Q63.3242 456.298 63.3551 455.68 Q63.3551 454.846 64.0961 454.846 Q64.6519 454.846 65.9178 455.464 Q67.1529 456.05 68.6349 457.193 Q70.117 458.336 71.2285 460.56 Q72.3401 462.753 72.3401 465.409 Q72.3401 470.968 68.1409 475.168 Q63.9109 479.338 57.7047 479.338 M55.6978 474.026 L55.6978 459.015 Q54.3701 459.015 52.8881 459.263 Q51.406 459.479 49.3682 460.158 Q47.2995 460.807 46.0027 462.351 Q44.7059 463.895 44.7059 466.181 Q44.7059 467.2 45.1381 468.312 Q45.5704 469.393 46.6202 470.721 Q47.67 472.049 50.0474 472.975 Q52.4249 473.902 55.6978 474.026 Z" fill="#000000" fill-rule="evenodd" fill-opacity="1" /><path clip-path="url(#clip330)" d="M71.6299 450.924 L69.6847 450.924 Q69.6847 447.557 69.2833 446.785 Q68.8511 446.013 66.8132 446.013 L33.9301 446.013 Q31.5835 446.013 30.9968 446.847 Q30.4102 447.65 30.4102 450.924 L28.4341 450.924 L27.7548 441.843 L66.8132 441.843 Q68.8511 441.843 69.2833 441.04 Q69.6847 440.237 69.6847 436.902 L71.6299 436.902 Q71.6299 437.674 71.5682 439.28 Q71.5064 440.886 71.4755 442.06 Q71.4447 443.233 71.4447 443.913 Q71.4447 444.654 71.6299 450.924 Z" fill="#000000" fill-rule="evenodd" fill-opacity="1" /><path clip-path="url(#clip330)" d="M71.6299 433.412 L69.6847 433.412 Q69.6847 430.045 69.2833 429.273 Q68.8511 428.501 66.8132 428.501 L49.8004 428.501 Q47.4538 428.501 46.8981 429.304 Q46.3423 430.076 46.3423 433.165 L44.3662 433.165 L43.6869 424.332 L66.875 424.332 Q68.7584 424.332 69.2216 423.652 Q69.6847 422.973 69.6847 419.884 L71.6299 419.884 Q71.4447 426.339 71.4447 426.463 Q71.4447 427.328 71.6299 433.412 M32.6641 430.756 Q31.3982 430.756 30.3793 429.798 Q29.3295 428.81 29.3295 427.42 Q29.3295 426.03 30.2867 425.042 Q31.213 424.054 32.695 424.054 Q34.1462 424.054 35.1034 425.042 Q36.0296 426.03 36.0296 427.42 Q36.0296 428.872 35.0107 429.829 Q33.9918 430.756 32.6641 430.756 Z" fill="#000000" fill-rule="evenodd" fill-opacity="1" /><path clip-path="url(#clip330)" d="M46.3423 416.796 L44.9529 416.796 Q44.8294 413.893 42.7915 411.978 Q40.7228 410.032 38.191 409.383 Q35.6591 408.704 32.7259 408.642 L32.7259 407.067 L44.3662 407.067 L44.3662 398.018 L46.3423 398.018 L46.3423 407.067 L63.9109 407.067 Q70.7345 407.067 70.7345 402.805 Q70.7345 400.983 68.8819 399.778 Q66.9985 398.574 63.6638 398.574 L60.1748 398.574 L60.1748 396.999 L63.7874 396.999 Q67.2146 396.999 69.7773 398.574 Q72.3401 400.149 72.3401 403.268 Q72.3401 404.411 72.0313 405.554 Q71.7534 406.666 71.0124 408.148 Q70.2405 409.6 68.3879 410.526 Q66.5045 411.422 63.7874 411.422 L46.3423 411.422 L46.3423 416.796 Z" fill="#000000" fill-rule="evenodd" fill-opacity="1" /><path clip-path="url(#clip330)" d="M79.4725 394.034 Q78.1448 394.034 77.4346 393.262 Q76.7554 392.459 76.7554 391.378 Q76.7554 390.235 77.4655 389.494 Q78.2065 388.721 79.4107 388.721 Q81.7573 388.721 82.0661 391.192 Q83.2085 389.988 83.2085 388.227 Q83.2085 386.343 81.8191 384.83 Q80.4296 383.286 79.102 382.637 Q77.7743 381.958 75.3659 381 Q73.4825 380.105 71.6299 379.425 L48.5345 388.907 Q47.0216 389.524 46.6819 390.482 Q46.3423 391.439 46.3423 394.034 L44.3662 394.034 Q44.5515 391.192 44.5515 387.888 Q44.5515 385.942 44.3662 381 L46.3423 381 Q46.3423 384.552 47.9787 384.552 Q48.164 384.552 49.1212 384.181 L66.1339 377.14 L50.5723 370.746 Q49.6769 370.376 49.0594 370.376 Q46.4658 370.376 46.3423 373.341 L44.3662 373.341 Q44.5515 369.171 44.5515 367.843 Q44.5515 365.249 44.3662 363.118 L46.3423 363.118 Q46.3423 367.349 50.3871 368.986 L77.3729 380.135 Q84.567 383.162 84.5979 388.227 Q84.5979 390.636 83.1159 392.335 Q81.6338 394.034 79.4725 394.034 Z" fill="#000000" fill-rule="evenodd" fill-opacity="1" /><polyline clip-path="url(#clip332)" style="stroke:#696969; stroke-linecap:round; stroke-linejoin:round; stroke-width:4.00074; stroke-opacity:1; fill:none" points="197.183,864.877 1617.16,864.877 "/>
</svg>
