<?xml version="1.0" encoding="utf-8"?>
<svg xmlns="http://www.w3.org/2000/svg" xmlns:xlink="http://www.w3.org/1999/xlink" width="426.75" height="263.5" viewBox="0 0 1707 1054">
<defs>
  <clipPath id="clip610">
    <rect x="0" y="0" width="1707" height="1054"/>
  </clipPath>
</defs>
<path clip-path="url(#clip610)" d="M0 1054 L1707 1054 L1707 0 L0 0  Z" fill="#ffffff" fill-rule="evenodd" fill-opacity="1"/>
<defs>
  <clipPath id="clip611">
    <rect x="341" y="0" width="1196" height="1054"/>
  </clipPath>
</defs>
<defs>
  <clipPath id="clip612">
    <rect x="242" y="47" width="1418" height="842"/>
  </clipPath>
</defs>
<path clip-path="url(#clip610)" d="M232.475 888.691 L1659.76 888.691 L1659.76 47.2528 L232.475 47.2528  Z" fill="#ffffff" fill-rule="evenodd" fill-opacity="1"/>
<defs>
  <clipPath id="clip613">
    <rect x="232" y="47" width="1428" height="842"/>
  </clipPath>
</defs>
<polyline clip-path="url(#clip613)" style="stroke:#000000; stroke-linecap:round; stroke-linejoin:round; stroke-width:2.00037; stroke-opacity:0.1; fill:none" points="272.87,888.691 272.87,47.2528 "/>
<polyline clip-path="url(#clip613)" style="stroke:#000000; stroke-linecap:round; stroke-linejoin:round; stroke-width:2.00037; stroke-opacity:0.1; fill:none" points="609.494,888.691 609.494,47.2528 "/>
<polyline clip-path="url(#clip613)" style="stroke:#000000; stroke-linecap:round; stroke-linejoin:round; stroke-width:2.00037; stroke-opacity:0.1; fill:none" points="946.118,888.691 946.118,47.2528 "/>
<polyline clip-path="url(#clip613)" style="stroke:#000000; stroke-linecap:round; stroke-linejoin:round; stroke-width:2.00037; stroke-opacity:0.1; fill:none" points="1282.74,888.691 1282.74,47.2528 "/>
<polyline clip-path="url(#clip613)" style="stroke:#000000; stroke-linecap:round; stroke-linejoin:round; stroke-width:2.00037; stroke-opacity:0.1; fill:none" points="1619.37,888.691 1619.37,47.2528 "/>
<polyline clip-path="url(#clip610)" style="stroke:#000000; stroke-linecap:round; stroke-linejoin:round; stroke-width:4.00074; stroke-opacity:1; fill:none" points="232.475,888.691 1659.76,888.691 "/>
<polyline clip-path="url(#clip610)" style="stroke:#000000; stroke-linecap:round; stroke-linejoin:round; stroke-width:4.00074; stroke-opacity:1; fill:none" points="232.475,47.2528 1659.76,47.2528 "/>
<polyline clip-path="url(#clip610)" style="stroke:#000000; stroke-linecap:round; stroke-linejoin:round; stroke-width:4.00074; stroke-opacity:1; fill:none" points="272.87,888.691 272.87,869.79 "/>
<polyline clip-path="url(#clip610)" style="stroke:#000000; stroke-linecap:round; stroke-linejoin:round; stroke-width:4.00074; stroke-opacity:1; fill:none" points="609.494,888.691 609.494,869.79 "/>
<polyline clip-path="url(#clip610)" style="stroke:#000000; stroke-linecap:round; stroke-linejoin:round; stroke-width:4.00074; stroke-opacity:1; fill:none" points="946.118,888.691 946.118,869.79 "/>
<polyline clip-path="url(#clip610)" style="stroke:#000000; stroke-linecap:round; stroke-linejoin:round; stroke-width:4.00074; stroke-opacity:1; fill:none" points="1282.74,888.691 1282.74,869.79 "/>
<polyline clip-path="url(#clip610)" style="stroke:#000000; stroke-linecap:round; stroke-linejoin:round; stroke-width:4.00074; stroke-opacity:1; fill:none" points="1619.37,888.691 1619.37,869.79 "/>
<path clip-path="url(#clip610)" d="M238.76 932.753 Q238.76 924.387 240.871 919.828 Q243.817 913.046 250.764 913.046 Q252.237 913.046 253.765 913.463 Q255.322 913.852 257.267 915.381 Q259.24 916.91 260.435 919.411 Q262.713 924.248 262.713 932.753 Q262.713 941.065 260.601 945.595 Q257.517 952.211 250.709 952.211 Q248.152 952.211 245.54 950.905 Q242.956 949.598 241.316 946.457 Q238.76 941.76 238.76 932.753 M243.484 932.059 Q243.484 940.648 244.095 944.067 Q244.79 947.764 246.679 949.376 Q248.597 950.96 250.709 950.96 Q252.987 950.96 254.877 949.265 Q256.794 947.541 257.378 943.844 Q258.017 940.203 257.989 932.059 Q257.989 924.137 257.433 920.968 Q256.683 917.271 254.682 915.798 Q252.709 914.297 250.709 914.297 Q249.958 914.297 249.152 914.519 Q248.374 914.741 247.235 915.381 Q246.096 916.02 245.206 917.604 Q244.345 919.189 243.928 921.579 Q243.484 924.665 243.484 932.059 Z" fill="#000000" fill-rule="evenodd" fill-opacity="1" /><path clip-path="url(#clip610)" d="M270.689 950.043 Q269.827 949.126 269.827 947.93 Q269.827 946.735 270.689 945.873 Q271.55 944.984 272.856 944.984 Q274.107 944.984 274.94 945.818 Q275.802 946.624 275.802 947.958 Q275.802 949.265 274.885 950.126 Q273.995 950.96 272.856 950.96 Q271.55 950.96 270.689 950.043 Z" fill="#000000" fill-rule="evenodd" fill-opacity="1" /><path clip-path="url(#clip610)" d="M283.027 932.753 Q283.027 924.387 285.139 919.828 Q288.084 913.046 295.031 913.046 Q296.504 913.046 298.033 913.463 Q299.589 913.852 301.534 915.381 Q303.507 916.91 304.702 919.411 Q306.981 924.248 306.981 932.753 Q306.981 941.065 304.869 945.595 Q301.784 952.211 294.976 952.211 Q292.419 952.211 289.807 950.905 Q287.223 949.598 285.583 946.457 Q283.027 941.76 283.027 932.753 M287.751 932.059 Q287.751 940.648 288.362 944.067 Q289.057 947.764 290.946 949.376 Q292.864 950.96 294.976 950.96 Q297.255 950.96 299.144 949.265 Q301.062 947.541 301.645 943.844 Q302.284 940.203 302.256 932.059 Q302.256 924.137 301.701 920.968 Q300.95 917.271 298.95 915.798 Q296.977 914.297 294.976 914.297 Q294.226 914.297 293.42 914.519 Q292.642 914.741 291.502 915.381 Q290.363 916.02 289.474 917.604 Q288.612 919.189 288.195 921.579 Q287.751 924.665 287.751 932.059 Z" fill="#000000" fill-rule="evenodd" fill-opacity="1" /><path clip-path="url(#clip610)" d="M575.689 932.753 Q575.689 924.387 577.801 919.828 Q580.747 913.046 587.694 913.046 Q589.167 913.046 590.695 913.463 Q592.251 913.852 594.196 915.381 Q596.169 916.91 597.364 919.411 Q599.643 924.248 599.643 932.753 Q599.643 941.065 597.531 945.595 Q594.446 952.211 587.638 952.211 Q585.082 952.211 582.47 950.905 Q579.885 949.598 578.246 946.457 Q575.689 941.76 575.689 932.753 M580.413 932.059 Q580.413 940.648 581.025 944.067 Q581.719 947.764 583.609 949.376 Q585.526 950.96 587.638 950.96 Q589.917 950.96 591.806 949.265 Q593.724 947.541 594.307 943.844 Q594.947 940.203 594.919 932.059 Q594.919 924.137 594.363 920.968 Q593.613 917.271 591.612 915.798 Q589.639 914.297 587.638 914.297 Q586.888 914.297 586.082 914.519 Q585.304 914.741 584.165 915.381 Q583.025 916.02 582.136 917.604 Q581.275 919.189 580.858 921.579 Q580.413 924.665 580.413 932.059 Z" fill="#000000" fill-rule="evenodd" fill-opacity="1" /><path clip-path="url(#clip610)" d="M607.618 950.043 Q606.757 949.126 606.757 947.93 Q606.757 946.735 607.618 945.873 Q608.48 944.984 609.786 944.984 Q611.036 944.984 611.87 945.818 Q612.731 946.624 612.731 947.958 Q612.731 949.265 611.814 950.126 Q610.925 950.96 609.786 950.96 Q608.48 950.96 607.618 950.043 Z" fill="#000000" fill-rule="evenodd" fill-opacity="1" /><path clip-path="url(#clip610)" d="M620.568 941.787 Q620.568 940.092 621.485 939.452 Q622.402 938.785 623.374 938.785 Q624.68 938.785 625.431 939.619 Q626.209 940.425 626.209 941.565 Q626.209 942.705 625.431 943.538 Q624.68 944.345 623.374 944.345 Q622.735 944.345 622.402 944.233 Q623.152 946.846 625.431 948.736 Q627.737 950.627 630.766 950.627 Q634.573 950.627 636.852 946.93 Q638.213 944.539 638.213 939.119 Q638.213 934.338 637.185 931.947 Q635.601 928.306 632.35 928.306 Q627.737 928.306 625.014 932.281 Q624.68 932.781 624.291 932.809 Q623.736 932.809 623.597 932.503 Q623.485 932.17 623.485 931.308 L623.485 914.463 Q623.485 913.101 624.041 913.101 Q624.264 913.101 624.736 913.268 Q628.321 914.853 632.294 914.88 Q636.379 914.88 640.047 913.213 Q640.325 913.046 640.492 913.046 Q641.048 913.046 641.076 913.685 Q641.076 913.908 640.603 914.575 Q640.159 915.214 639.186 916.076 Q638.213 916.91 636.963 917.716 Q635.712 918.522 633.878 919.078 Q632.072 919.606 630.071 919.606 Q627.682 919.606 625.236 918.855 L625.236 929.946 Q628.182 927.055 632.461 927.055 Q637.019 927.055 640.159 930.724 Q643.299 934.393 643.299 939.508 Q643.299 944.873 639.575 948.542 Q635.879 952.211 630.877 952.211 Q626.32 952.211 623.43 948.959 Q620.568 945.707 620.568 941.787 Z" fill="#000000" fill-rule="evenodd" fill-opacity="1" /><path clip-path="url(#clip610)" d="M913.425 918.466 L913.425 916.687 Q920.261 916.687 923.79 913.046 Q924.762 913.046 924.929 913.268 Q925.096 913.491 925.096 914.519 L925.096 946.457 Q925.096 948.153 925.929 948.681 Q926.763 949.209 930.403 949.209 L932.21 949.209 L932.21 950.96 Q930.209 950.793 922.984 950.793 Q915.759 950.793 913.786 950.96 L913.786 949.209 L915.592 949.209 Q919.177 949.209 920.038 948.709 Q920.9 948.18 920.9 946.457 L920.9 916.965 Q917.926 918.466 913.425 918.466 Z" fill="#000000" fill-rule="evenodd" fill-opacity="1" /><path clip-path="url(#clip610)" d="M942.519 950.043 Q941.658 949.126 941.658 947.93 Q941.658 946.735 942.519 945.873 Q943.381 944.984 944.687 944.984 Q945.937 944.984 946.771 945.818 Q947.632 946.624 947.632 947.958 Q947.632 949.265 946.715 950.126 Q945.826 950.96 944.687 950.96 Q943.381 950.96 942.519 950.043 Z" fill="#000000" fill-rule="evenodd" fill-opacity="1" /><path clip-path="url(#clip610)" d="M954.857 932.753 Q954.857 924.387 956.969 919.828 Q959.915 913.046 966.862 913.046 Q968.335 913.046 969.863 913.463 Q971.419 913.852 973.365 915.381 Q975.338 916.91 976.532 919.411 Q978.811 924.248 978.811 932.753 Q978.811 941.065 976.699 945.595 Q973.615 952.211 966.806 952.211 Q964.25 952.211 961.638 950.905 Q959.053 949.598 957.414 946.457 Q954.857 941.76 954.857 932.753 M959.581 932.059 Q959.581 940.648 960.193 944.067 Q960.887 947.764 962.777 949.376 Q964.694 950.96 966.806 950.96 Q969.085 950.96 970.975 949.265 Q972.892 947.541 973.476 943.844 Q974.115 940.203 974.087 932.059 Q974.087 924.137 973.531 920.968 Q972.781 917.271 970.78 915.798 Q968.807 914.297 966.806 914.297 Q966.056 914.297 965.25 914.519 Q964.472 914.741 963.333 915.381 Q962.194 916.02 961.304 917.604 Q960.443 919.189 960.026 921.579 Q959.581 924.665 959.581 932.059 Z" fill="#000000" fill-rule="evenodd" fill-opacity="1" /><path clip-path="url(#clip610)" d="M1250.35 918.466 L1250.35 916.687 Q1257.19 916.687 1260.72 913.046 Q1261.69 913.046 1261.86 913.268 Q1262.03 913.491 1262.03 914.519 L1262.03 946.457 Q1262.03 948.153 1262.86 948.681 Q1263.69 949.209 1267.33 949.209 L1269.14 949.209 L1269.14 950.96 Q1267.14 950.793 1259.91 950.793 Q1252.69 950.793 1250.72 950.96 L1250.72 949.209 L1252.52 949.209 Q1256.11 949.209 1256.97 948.709 Q1257.83 948.18 1257.83 946.457 L1257.83 916.965 Q1254.86 918.466 1250.35 918.466 Z" fill="#000000" fill-rule="evenodd" fill-opacity="1" /><path clip-path="url(#clip610)" d="M1279.45 950.043 Q1278.59 949.126 1278.59 947.93 Q1278.59 946.735 1279.45 945.873 Q1280.31 944.984 1281.62 944.984 Q1282.87 944.984 1283.7 945.818 Q1284.56 946.624 1284.56 947.958 Q1284.56 949.265 1283.64 950.126 Q1282.76 950.96 1281.62 950.96 Q1280.31 950.96 1279.45 950.043 Z" fill="#000000" fill-rule="evenodd" fill-opacity="1" /><path clip-path="url(#clip610)" d="M1292.4 941.787 Q1292.4 940.092 1293.32 939.452 Q1294.23 938.785 1295.2 938.785 Q1296.51 938.785 1297.26 939.619 Q1298.04 940.425 1298.04 941.565 Q1298.04 942.705 1297.26 943.538 Q1296.51 944.345 1295.2 944.345 Q1294.57 944.345 1294.23 944.233 Q1294.98 946.846 1297.26 948.736 Q1299.57 950.627 1302.6 950.627 Q1306.4 950.627 1308.68 946.93 Q1310.04 944.539 1310.04 939.119 Q1310.04 934.338 1309.02 931.947 Q1307.43 928.306 1304.18 928.306 Q1299.57 928.306 1296.84 932.281 Q1296.51 932.781 1296.12 932.809 Q1295.57 932.809 1295.43 932.503 Q1295.32 932.17 1295.32 931.308 L1295.32 914.463 Q1295.32 913.101 1295.87 913.101 Q1296.09 913.101 1296.57 913.268 Q1300.15 914.853 1304.13 914.88 Q1308.21 914.88 1311.88 913.213 Q1312.16 913.046 1312.32 913.046 Q1312.88 913.046 1312.91 913.685 Q1312.91 913.908 1312.43 914.575 Q1311.99 915.214 1311.02 916.076 Q1310.04 916.91 1308.79 917.716 Q1307.54 918.522 1305.71 919.078 Q1303.9 919.606 1301.9 919.606 Q1299.51 919.606 1297.07 918.855 L1297.07 929.946 Q1300.01 927.055 1304.29 927.055 Q1308.85 927.055 1311.99 930.724 Q1315.13 934.393 1315.13 939.508 Q1315.13 944.873 1311.41 948.542 Q1307.71 952.211 1302.71 952.211 Q1298.15 952.211 1295.26 948.959 Q1292.4 945.707 1292.4 941.787 Z" fill="#000000" fill-rule="evenodd" fill-opacity="1" /><path clip-path="url(#clip610)" d="M1585.56 950.96 Q1585.56 949.932 1585.64 949.626 Q1585.76 949.32 1586.2 948.848 L1597.12 936.673 Q1603.1 929.946 1603.1 924.081 Q1603.1 920.273 1601.09 917.549 Q1599.12 914.825 1595.48 914.825 Q1592.98 914.825 1590.87 916.354 Q1588.76 917.882 1587.78 920.606 Q1587.95 920.551 1588.53 920.551 Q1589.95 920.551 1590.73 921.44 Q1591.54 922.33 1591.54 923.525 Q1591.54 925.054 1590.53 925.804 Q1589.56 926.527 1588.59 926.527 Q1588.2 926.527 1587.67 926.444 Q1587.17 926.36 1586.37 925.582 Q1585.56 924.776 1585.56 923.358 Q1585.56 919.383 1588.56 916.215 Q1591.59 913.046 1596.2 913.046 Q1601.43 913.046 1604.85 916.159 Q1608.29 919.244 1608.29 924.081 Q1608.29 925.777 1607.76 927.333 Q1607.26 928.862 1606.57 930.057 Q1605.9 931.252 1604.07 933.17 Q1602.23 935.088 1600.76 936.45 Q1599.29 937.812 1595.98 940.703 L1589.95 946.568 L1600.21 946.568 Q1605.21 946.568 1605.6 946.124 Q1606.15 945.317 1606.85 941.065 L1608.29 941.065 L1606.68 950.96 L1585.56 950.96 Z" fill="#000000" fill-rule="evenodd" fill-opacity="1" /><path clip-path="url(#clip610)" d="M1616.88 950.043 Q1616.02 949.126 1616.02 947.93 Q1616.02 946.735 1616.88 945.873 Q1617.74 944.984 1619.05 944.984 Q1620.3 944.984 1621.13 945.818 Q1621.99 946.624 1621.99 947.958 Q1621.99 949.265 1621.07 950.126 Q1620.19 950.96 1619.05 950.96 Q1617.74 950.96 1616.88 950.043 Z" fill="#000000" fill-rule="evenodd" fill-opacity="1" /><path clip-path="url(#clip610)" d="M1629.22 932.753 Q1629.22 924.387 1631.33 919.828 Q1634.27 913.046 1641.22 913.046 Q1642.69 913.046 1644.22 913.463 Q1645.78 913.852 1647.72 915.381 Q1649.7 916.91 1650.89 919.411 Q1653.17 924.248 1653.17 932.753 Q1653.17 941.065 1651.06 945.595 Q1647.97 952.211 1641.17 952.211 Q1638.61 952.211 1636 950.905 Q1633.41 949.598 1631.77 946.457 Q1629.22 941.76 1629.22 932.753 M1633.94 932.059 Q1633.94 940.648 1634.55 944.067 Q1635.25 947.764 1637.14 949.376 Q1639.05 950.96 1641.17 950.96 Q1643.44 950.96 1645.33 949.265 Q1647.25 947.541 1647.84 943.844 Q1648.47 940.203 1648.45 932.059 Q1648.45 924.137 1647.89 920.968 Q1647.14 917.271 1645.14 915.798 Q1643.17 914.297 1641.17 914.297 Q1640.42 914.297 1639.61 914.519 Q1638.83 914.741 1637.69 915.381 Q1636.55 916.02 1635.66 917.604 Q1634.8 919.189 1634.39 921.579 Q1633.94 924.665 1633.94 932.059 Z" fill="#000000" fill-rule="evenodd" fill-opacity="1" /><path clip-path="url(#clip610)" d="M876.245 995.884 L877.449 981.677 L916.075 981.677 L917.279 995.884 L915.705 995.884 Q915.458 993.043 915.211 991.406 Q914.995 989.769 914.439 988.225 Q913.914 986.65 913.235 985.909 Q912.586 985.136 911.32 984.55 Q910.054 983.932 908.418 983.778 Q906.782 983.623 904.311 983.623 Q901.409 983.623 900.699 983.747 Q899.927 983.932 899.742 984.488 Q899.556 985.013 899.556 986.156 L899.556 1019.48 Q899.556 1020.75 899.804 1021.27 Q900.081 1021.77 901.533 1022.17 Q902.984 1022.54 906.195 1022.54 L908.727 1022.54 L908.727 1024.48 Q906.133 1024.3 896.716 1024.3 Q887.36 1024.3 884.767 1024.48 L884.767 1022.54 L887.299 1022.54 Q890.51 1022.54 891.961 1022.17 Q893.443 1021.77 893.69 1021.27 Q893.937 1020.75 893.937 1019.48 L893.937 986.156 Q893.937 985.26 893.875 984.889 Q893.814 984.519 893.536 984.21 Q893.258 983.87 892.609 983.747 Q891.992 983.623 889.213 983.623 Q886.743 983.623 885.076 983.778 Q883.439 983.932 882.173 984.55 Q880.907 985.136 880.228 985.909 Q879.58 986.65 879.024 988.225 Q878.499 989.769 878.283 991.406 Q878.067 993.043 877.82 995.884 L876.245 995.884 Z" fill="#000000" fill-rule="evenodd" fill-opacity="1" /><path clip-path="url(#clip610)" d="M921.695 1024.48 L921.695 1022.54 Q925.06 1022.54 925.832 1022.14 Q926.604 1021.7 926.604 1019.67 L926.604 1002.65 Q926.604 1000.3 925.801 999.745 Q925.029 999.189 921.942 999.189 L921.942 997.212 L930.772 996.533 L930.772 1019.73 Q930.772 1021.61 931.452 1022.07 Q932.131 1022.54 935.219 1022.54 L935.219 1024.48 Q928.765 1024.3 928.642 1024.3 Q927.777 1024.3 921.695 1024.48 M924.35 985.507 Q924.35 984.241 925.307 983.222 Q926.295 982.172 927.685 982.172 Q929.074 982.172 930.062 983.129 Q931.05 984.056 931.05 985.538 Q931.05 986.99 930.062 987.947 Q929.074 988.874 927.685 988.874 Q926.234 988.874 925.276 987.854 Q924.35 986.835 924.35 985.507 Z" fill="#000000" fill-rule="evenodd" fill-opacity="1" /><path clip-path="url(#clip610)" d="M939.14 1024.48 L939.14 1022.54 Q942.505 1022.54 943.277 1022.14 Q944.049 1021.7 944.049 1019.67 L944.049 1002.71 Q944.049 1000.36 943.215 999.776 Q942.413 999.189 939.14 999.189 L939.14 997.212 L948.032 996.533 L948.032 1003.17 Q950.996 996.533 957.388 996.533 Q964.798 996.533 965.817 1002.71 Q966.898 1000.3 969.151 998.417 Q971.436 996.533 974.987 996.533 Q979.742 996.533 981.625 998.88 Q983.015 1000.46 983.293 1002.22 Q983.571 1003.98 983.571 1008.55 L983.571 1020.62 Q983.632 1021.95 984.651 1022.26 Q985.67 1022.54 988.511 1022.54 L988.511 1024.48 Q982.058 1024.3 981.44 1024.3 Q980.946 1024.3 974.277 1024.48 L974.277 1022.54 Q977.642 1022.54 978.414 1022.14 Q979.217 1021.7 979.217 1019.67 L979.217 1004.93 Q979.217 1001.72 978.229 999.838 Q977.241 997.923 974.524 997.923 Q971.251 997.923 968.627 1000.67 Q966.002 1003.42 966.002 1008.05 L966.002 1019.67 Q966.002 1021.7 966.774 1022.14 Q967.577 1022.54 970.942 1022.54 L970.942 1024.48 Q964.489 1024.3 963.841 1024.3 Q963.347 1024.3 956.708 1024.48 L956.708 1022.54 Q960.074 1022.54 960.846 1022.14 Q961.649 1021.7 961.649 1019.67 L961.649 1004.93 Q961.649 1001.72 960.661 999.838 Q959.672 997.923 956.955 997.923 Q953.682 997.923 951.058 1000.67 Q948.434 1003.42 948.434 1008.05 L948.434 1019.67 Q948.434 1021.7 949.205 1022.14 Q950.008 1022.54 953.343 1022.54 L953.343 1024.48 Q946.89 1024.3 946.272 1024.3 Q945.778 1024.3 939.14 1024.48 Z" fill="#000000" fill-rule="evenodd" fill-opacity="1" /><path clip-path="url(#clip610)" d="M991.506 1010.55 Q991.506 1004.59 995.334 1000.36 Q999.163 996.131 1004.66 996.131 Q1010.22 996.131 1013.09 999.745 Q1015.99 1003.36 1015.99 1008.55 Q1015.99 1009.5 1015.74 1009.69 Q1015.5 1009.88 1014.42 1009.88 L996.755 1009.88 Q996.755 1016.33 998.669 1019.36 Q1001.32 1023.59 1005.8 1023.59 Q1006.42 1023.59 1007.16 1023.46 Q1007.9 1023.34 1009.41 1022.82 Q1010.93 1022.26 1012.25 1020.81 Q1013.58 1019.36 1014.35 1017.07 Q1014.54 1016.18 1015.16 1016.21 Q1015.99 1016.21 1015.99 1016.95 Q1015.99 1017.5 1015.37 1018.77 Q1014.79 1020.01 1013.64 1021.49 Q1012.5 1022.97 1010.28 1024.08 Q1008.09 1025.19 1005.43 1025.19 Q999.873 1025.19 995.674 1020.99 Q991.506 1016.76 991.506 1010.55 M996.817 1008.55 L1011.82 1008.55 Q1011.82 1007.22 1011.58 1005.74 Q1011.36 1004.25 1010.68 1002.22 Q1010.03 1000.15 1008.49 998.849 Q1006.94 997.552 1004.66 997.552 Q1003.64 997.552 1002.53 997.985 Q1001.45 998.417 1000.12 999.467 Q998.793 1000.52 997.866 1002.9 Q996.94 1005.27 996.817 1008.55 Z" fill="#000000" fill-rule="evenodd" fill-opacity="1" /><polyline clip-path="url(#clip613)" style="stroke:#000000; stroke-linecap:round; stroke-linejoin:round; stroke-width:2.00037; stroke-opacity:0.1; fill:none" points="232.475,864.877 1659.76,864.877 "/>
<polyline clip-path="url(#clip613)" style="stroke:#000000; stroke-linecap:round; stroke-linejoin:round; stroke-width:2.00037; stroke-opacity:0.1; fill:none" points="232.475,719.485 1659.76,719.485 "/>
<polyline clip-path="url(#clip613)" style="stroke:#000000; stroke-linecap:round; stroke-linejoin:round; stroke-width:2.00037; stroke-opacity:0.1; fill:none" points="232.475,574.094 1659.76,574.094 "/>
<polyline clip-path="url(#clip613)" style="stroke:#000000; stroke-linecap:round; stroke-linejoin:round; stroke-width:2.00037; stroke-opacity:0.1; fill:none" points="232.475,428.702 1659.76,428.702 "/>
<polyline clip-path="url(#clip613)" style="stroke:#000000; stroke-linecap:round; stroke-linejoin:round; stroke-width:2.00037; stroke-opacity:0.1; fill:none" points="232.475,283.31 1659.76,283.31 "/>
<polyline clip-path="url(#clip613)" style="stroke:#000000; stroke-linecap:round; stroke-linejoin:round; stroke-width:2.00037; stroke-opacity:0.1; fill:none" points="232.475,137.919 1659.76,137.919 "/>
<polyline clip-path="url(#clip610)" style="stroke:#000000; stroke-linecap:round; stroke-linejoin:round; stroke-width:4.00074; stroke-opacity:1; fill:none" points="232.475,888.691 232.475,47.2528 "/>
<polyline clip-path="url(#clip610)" style="stroke:#000000; stroke-linecap:round; stroke-linejoin:round; stroke-width:4.00074; stroke-opacity:1; fill:none" points="1659.76,888.691 1659.76,47.2528 "/>
<polyline clip-path="url(#clip610)" style="stroke:#000000; stroke-linecap:round; stroke-linejoin:round; stroke-width:4.00074; stroke-opacity:1; fill:none" points="232.475,864.877 251.371,864.877 "/>
<polyline clip-path="url(#clip610)" style="stroke:#000000; stroke-linecap:round; stroke-linejoin:round; stroke-width:4.00074; stroke-opacity:1; fill:none" points="232.475,719.485 251.371,719.485 "/>
<polyline clip-path="url(#clip610)" style="stroke:#000000; stroke-linecap:round; stroke-linejoin:round; stroke-width:4.00074; stroke-opacity:1; fill:none" points="232.475,574.094 251.371,574.094 "/>
<polyline clip-path="url(#clip610)" style="stroke:#000000; stroke-linecap:round; stroke-linejoin:round; stroke-width:4.00074; stroke-opacity:1; fill:none" points="232.475,428.702 251.371,428.702 "/>
<polyline clip-path="url(#clip610)" style="stroke:#000000; stroke-linecap:round; stroke-linejoin:round; stroke-width:4.00074; stroke-opacity:1; fill:none" points="232.475,283.31 251.371,283.31 "/>
<polyline clip-path="url(#clip610)" style="stroke:#000000; stroke-linecap:round; stroke-linejoin:round; stroke-width:4.00074; stroke-opacity:1; fill:none" points="232.475,137.919 251.371,137.919 "/>
<path clip-path="url(#clip610)" d="M110.194 866.114 Q110.194 857.747 112.306 853.189 Q115.251 846.406 122.198 846.406 Q123.671 846.406 125.199 846.823 Q126.756 847.212 128.701 848.741 Q130.674 850.27 131.869 852.772 Q134.147 857.608 134.147 866.114 Q134.147 874.425 132.035 878.956 Q128.951 885.571 122.143 885.571 Q119.586 885.571 116.974 884.265 Q114.39 882.959 112.75 879.818 Q110.194 875.12 110.194 866.114 M114.918 865.419 Q114.918 874.008 115.529 877.427 Q116.224 881.124 118.113 882.736 Q120.031 884.321 122.143 884.321 Q124.421 884.321 126.311 882.625 Q128.228 880.902 128.812 877.205 Q129.451 873.563 129.423 865.419 Q129.423 857.497 128.868 854.328 Q128.117 850.631 126.117 849.158 Q124.144 847.657 122.143 847.657 Q121.392 847.657 120.587 847.88 Q119.809 848.102 118.669 848.741 Q117.53 849.381 116.641 850.965 Q115.779 852.549 115.362 854.94 Q114.918 858.025 114.918 865.419 Z" fill="#000000" fill-rule="evenodd" fill-opacity="1" /><path clip-path="url(#clip610)" d="M142.123 883.403 Q141.261 882.486 141.261 881.291 Q141.261 880.096 142.123 879.234 Q142.984 878.344 144.29 878.344 Q145.541 878.344 146.374 879.178 Q147.236 879.984 147.236 881.319 Q147.236 882.625 146.319 883.487 Q145.43 884.321 144.29 884.321 Q142.984 884.321 142.123 883.403 Z" fill="#000000" fill-rule="evenodd" fill-opacity="1" /><path clip-path="url(#clip610)" d="M154.461 866.114 Q154.461 857.747 156.573 853.189 Q159.518 846.406 166.466 846.406 Q167.938 846.406 169.467 846.823 Q171.023 847.212 172.968 848.741 Q174.941 850.27 176.136 852.772 Q178.415 857.608 178.415 866.114 Q178.415 874.425 176.303 878.956 Q173.218 885.571 166.41 885.571 Q163.853 885.571 161.241 884.265 Q158.657 882.959 157.017 879.818 Q154.461 875.12 154.461 866.114 M159.185 865.419 Q159.185 874.008 159.796 877.427 Q160.491 881.124 162.381 882.736 Q164.298 884.321 166.41 884.321 Q168.689 884.321 170.578 882.625 Q172.496 880.902 173.079 877.205 Q173.718 873.563 173.691 865.419 Q173.691 857.497 173.135 854.328 Q172.385 850.631 170.384 849.158 Q168.411 847.657 166.41 847.657 Q165.66 847.657 164.854 847.88 Q164.076 848.102 162.936 848.741 Q161.797 849.381 160.908 850.965 Q160.046 852.549 159.63 854.94 Q159.185 858.025 159.185 865.419 Z" fill="#000000" fill-rule="evenodd" fill-opacity="1" /><path clip-path="url(#clip610)" d="M182.916 866.114 Q182.916 857.747 185.028 853.189 Q187.974 846.406 194.921 846.406 Q196.394 846.406 197.922 846.823 Q199.478 847.212 201.424 848.741 Q203.397 850.27 204.591 852.772 Q206.87 857.608 206.87 866.114 Q206.87 874.425 204.758 878.956 Q201.674 885.571 194.865 885.571 Q192.309 885.571 189.697 884.265 Q187.112 882.959 185.473 879.818 Q182.916 875.12 182.916 866.114 M187.64 865.419 Q187.64 874.008 188.252 877.427 Q188.947 881.124 190.836 882.736 Q192.754 884.321 194.865 884.321 Q197.144 884.321 199.034 882.625 Q200.951 880.902 201.535 877.205 Q202.174 873.563 202.146 865.419 Q202.146 857.497 201.59 854.328 Q200.84 850.631 198.839 849.158 Q196.866 847.657 194.865 847.657 Q194.115 847.657 193.309 847.88 Q192.531 848.102 191.392 848.741 Q190.253 849.381 189.363 850.965 Q188.502 852.549 188.085 854.94 Q187.64 858.025 187.64 865.419 Z" fill="#000000" fill-rule="evenodd" fill-opacity="1" /><path clip-path="url(#clip610)" d="M110.805 720.722 Q110.805 712.356 112.917 707.797 Q115.863 701.015 122.81 701.015 Q124.282 701.015 125.811 701.432 Q127.367 701.821 129.312 703.35 Q131.285 704.878 132.48 707.38 Q134.759 712.217 134.759 720.722 Q134.759 729.033 132.647 733.564 Q129.562 740.18 122.754 740.18 Q120.198 740.18 117.585 738.873 Q115.001 737.567 113.362 734.426 Q110.805 729.728 110.805 720.722 M115.529 720.027 Q115.529 728.617 116.14 732.035 Q116.835 735.732 118.725 737.345 Q120.642 738.929 122.754 738.929 Q125.033 738.929 126.922 737.233 Q128.84 735.51 129.423 731.813 Q130.062 728.172 130.035 720.027 Q130.035 712.105 129.479 708.937 Q128.729 705.24 126.728 703.767 Q124.755 702.266 122.754 702.266 Q122.004 702.266 121.198 702.488 Q120.42 702.71 119.281 703.35 Q118.141 703.989 117.252 705.573 Q116.391 707.158 115.974 709.548 Q115.529 712.634 115.529 720.027 Z" fill="#000000" fill-rule="evenodd" fill-opacity="1" /><path clip-path="url(#clip610)" d="M142.734 738.012 Q141.873 737.094 141.873 735.899 Q141.873 734.704 142.734 733.842 Q143.596 732.953 144.902 732.953 Q146.152 732.953 146.986 733.787 Q147.847 734.593 147.847 735.927 Q147.847 737.233 146.93 738.095 Q146.041 738.929 144.902 738.929 Q143.596 738.929 142.734 738.012 Z" fill="#000000" fill-rule="evenodd" fill-opacity="1" /><path clip-path="url(#clip610)" d="M155.072 720.722 Q155.072 712.356 157.184 707.797 Q160.13 701.015 167.077 701.015 Q168.55 701.015 170.078 701.432 Q171.634 701.821 173.579 703.35 Q175.552 704.878 176.747 707.38 Q179.026 712.217 179.026 720.722 Q179.026 729.033 176.914 733.564 Q173.83 740.18 167.021 740.18 Q164.465 740.18 161.853 738.873 Q159.268 737.567 157.629 734.426 Q155.072 729.728 155.072 720.722 M159.796 720.027 Q159.796 728.617 160.408 732.035 Q161.102 735.732 162.992 737.345 Q164.909 738.929 167.021 738.929 Q169.3 738.929 171.19 737.233 Q173.107 735.51 173.691 731.813 Q174.33 728.172 174.302 720.027 Q174.302 712.105 173.746 708.937 Q172.996 705.24 170.995 703.767 Q169.022 702.266 167.021 702.266 Q166.271 702.266 165.465 702.488 Q164.687 702.71 163.548 703.35 Q162.408 703.989 161.519 705.573 Q160.658 707.158 160.241 709.548 Q159.796 712.634 159.796 720.027 Z" fill="#000000" fill-rule="evenodd" fill-opacity="1" /><path clip-path="url(#clip610)" d="M184.139 729.756 Q184.139 728.061 185.056 727.421 Q185.973 726.754 186.946 726.754 Q188.252 726.754 189.002 727.588 Q189.78 728.394 189.78 729.534 Q189.78 730.673 189.002 731.507 Q188.252 732.313 186.946 732.313 Q186.307 732.313 185.973 732.202 Q186.723 734.815 189.002 736.705 Q191.309 738.595 194.337 738.595 Q198.145 738.595 200.423 734.898 Q201.785 732.508 201.785 727.088 Q201.785 722.307 200.757 719.916 Q199.173 716.275 195.921 716.275 Q191.309 716.275 188.585 720.25 Q188.252 720.75 187.863 720.778 Q187.307 720.778 187.168 720.472 Q187.057 720.139 187.057 719.277 L187.057 702.432 Q187.057 701.07 187.613 701.07 Q187.835 701.07 188.307 701.237 Q191.892 702.821 195.866 702.849 Q199.951 702.849 203.619 701.181 Q203.897 701.015 204.063 701.015 Q204.619 701.015 204.647 701.654 Q204.647 701.876 204.175 702.543 Q203.73 703.183 202.757 704.044 Q201.785 704.878 200.534 705.684 Q199.284 706.491 197.45 707.046 Q195.644 707.575 193.643 707.575 Q191.253 707.575 188.808 706.824 L188.808 717.915 Q191.753 715.024 196.033 715.024 Q200.59 715.024 203.73 718.693 Q206.87 722.362 206.87 727.477 Q206.87 732.842 203.146 736.511 Q199.451 740.18 194.449 740.18 Q189.891 740.18 187.001 736.928 Q184.139 733.675 184.139 729.756 Z" fill="#000000" fill-rule="evenodd" fill-opacity="1" /><path clip-path="url(#clip610)" d="M110.194 575.331 Q110.194 566.964 112.306 562.405 Q115.251 555.623 122.198 555.623 Q123.671 555.623 125.199 556.04 Q126.756 556.429 128.701 557.958 Q130.674 559.487 131.869 561.988 Q134.147 566.825 134.147 575.331 Q134.147 583.642 132.035 588.173 Q128.951 594.788 122.143 594.788 Q119.586 594.788 116.974 593.482 Q114.39 592.175 112.75 589.034 Q110.194 584.337 110.194 575.331 M114.918 574.636 Q114.918 583.225 115.529 586.644 Q116.224 590.341 118.113 591.953 Q120.031 593.537 122.143 593.537 Q124.421 593.537 126.311 591.842 Q128.228 590.118 128.812 586.421 Q129.451 582.78 129.423 574.636 Q129.423 566.714 128.868 563.545 Q128.117 559.848 126.117 558.375 Q124.144 556.874 122.143 556.874 Q121.392 556.874 120.587 557.096 Q119.809 557.319 118.669 557.958 Q117.53 558.597 116.641 560.182 Q115.779 561.766 115.362 564.157 Q114.918 567.242 114.918 574.636 Z" fill="#000000" fill-rule="evenodd" fill-opacity="1" /><path clip-path="url(#clip610)" d="M142.123 592.62 Q141.261 591.703 141.261 590.508 Q141.261 589.312 142.123 588.451 Q142.984 587.561 144.29 587.561 Q145.541 587.561 146.374 588.395 Q147.236 589.201 147.236 590.535 Q147.236 591.842 146.319 592.703 Q145.43 593.537 144.29 593.537 Q142.984 593.537 142.123 592.62 Z" fill="#000000" fill-rule="evenodd" fill-opacity="1" /><path clip-path="url(#clip610)" d="M157.295 561.043 L157.295 559.264 Q164.131 559.264 167.66 555.623 Q168.633 555.623 168.8 555.845 Q168.967 556.068 168.967 557.096 L168.967 589.034 Q168.967 590.73 169.8 591.258 Q170.634 591.786 174.274 591.786 L176.08 591.786 L176.08 593.537 Q174.08 593.371 166.855 593.371 Q159.63 593.371 157.657 593.537 L157.657 591.786 L159.463 591.786 Q163.048 591.786 163.909 591.286 Q164.77 590.758 164.77 589.034 L164.77 559.542 Q161.797 561.043 157.295 561.043 Z" fill="#000000" fill-rule="evenodd" fill-opacity="1" /><path clip-path="url(#clip610)" d="M182.916 575.331 Q182.916 566.964 185.028 562.405 Q187.974 555.623 194.921 555.623 Q196.394 555.623 197.922 556.04 Q199.478 556.429 201.424 557.958 Q203.397 559.487 204.591 561.988 Q206.87 566.825 206.87 575.331 Q206.87 583.642 204.758 588.173 Q201.674 594.788 194.865 594.788 Q192.309 594.788 189.697 593.482 Q187.112 592.175 185.473 589.034 Q182.916 584.337 182.916 575.331 M187.64 574.636 Q187.64 583.225 188.252 586.644 Q188.947 590.341 190.836 591.953 Q192.754 593.537 194.865 593.537 Q197.144 593.537 199.034 591.842 Q200.951 590.118 201.535 586.421 Q202.174 582.78 202.146 574.636 Q202.146 566.714 201.59 563.545 Q200.84 559.848 198.839 558.375 Q196.866 556.874 194.865 556.874 Q194.115 556.874 193.309 557.096 Q192.531 557.319 191.392 557.958 Q190.253 558.597 189.363 560.182 Q188.502 561.766 188.085 564.157 Q187.64 567.242 187.64 574.636 Z" fill="#000000" fill-rule="evenodd" fill-opacity="1" /><path clip-path="url(#clip610)" d="M110.805 429.939 Q110.805 421.572 112.917 417.014 Q115.863 410.231 122.81 410.231 Q124.282 410.231 125.811 410.648 Q127.367 411.037 129.312 412.566 Q131.285 414.095 132.48 416.597 Q134.759 421.433 134.759 429.939 Q134.759 438.25 132.647 442.781 Q129.562 449.397 122.754 449.397 Q120.198 449.397 117.585 448.09 Q115.001 446.784 113.362 443.643 Q110.805 438.945 110.805 429.939 M115.529 429.244 Q115.529 437.833 116.14 441.252 Q116.835 444.949 118.725 446.561 Q120.642 448.146 122.754 448.146 Q125.033 448.146 126.922 446.45 Q128.84 444.727 129.423 441.03 Q130.062 437.388 130.035 429.244 Q130.035 421.322 129.479 418.153 Q128.729 414.456 126.728 412.983 Q124.755 411.482 122.754 411.482 Q122.004 411.482 121.198 411.705 Q120.42 411.927 119.281 412.566 Q118.141 413.206 117.252 414.79 Q116.391 416.374 115.974 418.765 Q115.529 421.85 115.529 429.244 Z" fill="#000000" fill-rule="evenodd" fill-opacity="1" /><path clip-path="url(#clip610)" d="M142.734 447.228 Q141.873 446.311 141.873 445.116 Q141.873 443.921 142.734 443.059 Q143.596 442.169 144.902 442.169 Q146.152 442.169 146.986 443.003 Q147.847 443.809 147.847 445.144 Q147.847 446.45 146.93 447.312 Q146.041 448.146 144.902 448.146 Q143.596 448.146 142.734 447.228 Z" fill="#000000" fill-rule="evenodd" fill-opacity="1" /><path clip-path="url(#clip610)" d="M157.907 415.652 L157.907 413.873 Q164.743 413.873 168.272 410.231 Q169.244 410.231 169.411 410.454 Q169.578 410.676 169.578 411.705 L169.578 443.643 Q169.578 445.338 170.412 445.866 Q171.245 446.395 174.885 446.395 L176.692 446.395 L176.692 448.146 Q174.691 447.979 167.466 447.979 Q160.241 447.979 158.268 448.146 L158.268 446.395 L160.074 446.395 Q163.659 446.395 164.52 445.894 Q165.382 445.366 165.382 443.643 L165.382 414.151 Q162.408 415.652 157.907 415.652 Z" fill="#000000" fill-rule="evenodd" fill-opacity="1" /><path clip-path="url(#clip610)" d="M184.139 438.973 Q184.139 437.277 185.056 436.638 Q185.973 435.971 186.946 435.971 Q188.252 435.971 189.002 436.805 Q189.78 437.611 189.78 438.751 Q189.78 439.89 189.002 440.724 Q188.252 441.53 186.946 441.53 Q186.307 441.53 185.973 441.419 Q186.723 444.032 189.002 445.922 Q191.309 447.812 194.337 447.812 Q198.145 447.812 200.423 444.115 Q201.785 441.725 201.785 436.304 Q201.785 431.523 200.757 429.133 Q199.173 425.492 195.921 425.492 Q191.309 425.492 188.585 429.467 Q188.252 429.967 187.863 429.995 Q187.307 429.995 187.168 429.689 Q187.057 429.355 187.057 428.494 L187.057 411.649 Q187.057 410.287 187.613 410.287 Q187.835 410.287 188.307 410.454 Q191.892 412.038 195.866 412.066 Q199.951 412.066 203.619 410.398 Q203.897 410.231 204.063 410.231 Q204.619 410.231 204.647 410.871 Q204.647 411.093 204.175 411.76 Q203.73 412.4 202.757 413.261 Q201.785 414.095 200.534 414.901 Q199.284 415.707 197.45 416.263 Q195.644 416.791 193.643 416.791 Q191.253 416.791 188.808 416.041 L188.808 427.132 Q191.753 424.241 196.033 424.241 Q200.59 424.241 203.73 427.91 Q206.87 431.579 206.87 436.694 Q206.87 442.058 203.146 445.727 Q199.451 449.397 194.449 449.397 Q189.891 449.397 187.001 446.144 Q184.139 442.892 184.139 438.973 Z" fill="#000000" fill-rule="evenodd" fill-opacity="1" /><path clip-path="url(#clip610)" d="M110.194 284.547 Q110.194 276.181 112.306 271.622 Q115.251 264.84 122.198 264.84 Q123.671 264.84 125.199 265.257 Q126.756 265.646 128.701 267.175 Q130.674 268.703 131.869 271.205 Q134.147 276.042 134.147 284.547 Q134.147 292.859 132.035 297.389 Q128.951 304.005 122.143 304.005 Q119.586 304.005 116.974 302.698 Q114.39 301.392 112.75 298.251 Q110.194 293.553 110.194 284.547 M114.918 283.852 Q114.918 292.442 115.529 295.861 Q116.224 299.557 118.113 301.17 Q120.031 302.754 122.143 302.754 Q124.421 302.754 126.311 301.058 Q128.228 299.335 128.812 295.638 Q129.451 291.997 129.423 283.852 Q129.423 275.931 128.868 272.762 Q128.117 269.065 126.117 267.592 Q124.144 266.091 122.143 266.091 Q121.392 266.091 120.587 266.313 Q119.809 266.535 118.669 267.175 Q117.53 267.814 116.641 269.398 Q115.779 270.983 115.362 273.373 Q114.918 276.459 114.918 283.852 Z" fill="#000000" fill-rule="evenodd" fill-opacity="1" /><path clip-path="url(#clip610)" d="M142.123 301.837 Q141.261 300.919 141.261 299.724 Q141.261 298.529 142.123 297.667 Q142.984 296.778 144.29 296.778 Q145.541 296.778 146.374 297.612 Q147.236 298.418 147.236 299.752 Q147.236 301.058 146.319 301.92 Q145.43 302.754 144.29 302.754 Q142.984 302.754 142.123 301.837 Z" fill="#000000" fill-rule="evenodd" fill-opacity="1" /><path clip-path="url(#clip610)" d="M155.072 302.754 Q155.072 301.726 155.156 301.42 Q155.267 301.114 155.711 300.642 L166.632 288.467 Q172.607 281.74 172.607 275.875 Q172.607 272.067 170.606 269.343 Q168.633 266.619 164.993 266.619 Q162.492 266.619 160.38 268.148 Q158.268 269.676 157.295 272.4 Q157.462 272.345 158.046 272.345 Q159.463 272.345 160.241 273.234 Q161.047 274.124 161.047 275.319 Q161.047 276.848 160.046 277.598 Q159.074 278.321 158.101 278.321 Q157.712 278.321 157.184 278.238 Q156.684 278.154 155.878 277.376 Q155.072 276.57 155.072 275.152 Q155.072 271.177 158.073 268.009 Q161.102 264.84 165.715 264.84 Q170.94 264.84 174.358 267.953 Q177.803 271.038 177.803 275.875 Q177.803 277.571 177.275 279.127 Q176.775 280.656 176.08 281.851 Q175.413 283.046 173.579 284.964 Q171.745 286.882 170.273 288.244 Q168.8 289.606 165.493 292.497 L159.463 298.362 L169.717 298.362 Q174.719 298.362 175.108 297.917 Q175.664 297.111 176.358 292.859 L177.803 292.859 L176.192 302.754 L155.072 302.754 Z" fill="#000000" fill-rule="evenodd" fill-opacity="1" /><path clip-path="url(#clip610)" d="M182.916 284.547 Q182.916 276.181 185.028 271.622 Q187.974 264.84 194.921 264.84 Q196.394 264.84 197.922 265.257 Q199.478 265.646 201.424 267.175 Q203.397 268.703 204.591 271.205 Q206.87 276.042 206.87 284.547 Q206.87 292.859 204.758 297.389 Q201.674 304.005 194.865 304.005 Q192.309 304.005 189.697 302.698 Q187.112 301.392 185.473 298.251 Q182.916 293.553 182.916 284.547 M187.64 283.852 Q187.64 292.442 188.252 295.861 Q188.947 299.557 190.836 301.17 Q192.754 302.754 194.865 302.754 Q197.144 302.754 199.034 301.058 Q200.951 299.335 201.535 295.638 Q202.174 291.997 202.146 283.852 Q202.146 275.931 201.59 272.762 Q200.84 269.065 198.839 267.592 Q196.866 266.091 194.865 266.091 Q194.115 266.091 193.309 266.313 Q192.531 266.535 191.392 267.175 Q190.253 267.814 189.363 269.398 Q188.502 270.983 188.085 273.373 Q187.64 276.459 187.64 283.852 Z" fill="#000000" fill-rule="evenodd" fill-opacity="1" /><path clip-path="url(#clip610)" d="M110.805 139.156 Q110.805 130.789 112.917 126.23 Q115.863 119.448 122.81 119.448 Q124.282 119.448 125.811 119.865 Q127.367 120.254 129.312 121.783 Q131.285 123.312 132.48 125.813 Q134.759 130.65 134.759 139.156 Q134.759 147.467 132.647 151.998 Q129.562 158.613 122.754 158.613 Q120.198 158.613 117.585 157.307 Q115.001 156 113.362 152.859 Q110.805 148.162 110.805 139.156 M115.529 138.461 Q115.529 147.05 116.14 150.469 Q116.835 154.166 118.725 155.778 Q120.642 157.362 122.754 157.362 Q125.033 157.362 126.922 155.667 Q128.84 153.943 129.423 150.247 Q130.062 146.605 130.035 138.461 Q130.035 130.539 129.479 127.37 Q128.729 123.673 126.728 122.2 Q124.755 120.699 122.754 120.699 Q122.004 120.699 121.198 120.921 Q120.42 121.144 119.281 121.783 Q118.141 122.422 117.252 124.007 Q116.391 125.591 115.974 127.982 Q115.529 131.067 115.529 138.461 Z" fill="#000000" fill-rule="evenodd" fill-opacity="1" /><path clip-path="url(#clip610)" d="M142.734 156.445 Q141.873 155.528 141.873 154.333 Q141.873 153.137 142.734 152.276 Q143.596 151.386 144.902 151.386 Q146.152 151.386 146.986 152.22 Q147.847 153.026 147.847 154.36 Q147.847 155.667 146.93 156.529 Q146.041 157.362 144.902 157.362 Q143.596 157.362 142.734 156.445 Z" fill="#000000" fill-rule="evenodd" fill-opacity="1" /><path clip-path="url(#clip610)" d="M155.684 157.362 Q155.684 156.334 155.767 156.028 Q155.878 155.722 156.323 155.25 L167.244 143.075 Q173.218 136.348 173.218 130.483 Q173.218 126.675 171.217 123.951 Q169.244 121.227 165.604 121.227 Q163.103 121.227 160.991 122.756 Q158.879 124.285 157.907 127.009 Q158.073 126.953 158.657 126.953 Q160.074 126.953 160.852 127.843 Q161.658 128.732 161.658 129.927 Q161.658 131.456 160.658 132.207 Q159.685 132.929 158.713 132.929 Q158.323 132.929 157.796 132.846 Q157.295 132.763 156.489 131.984 Q155.684 131.178 155.684 129.761 Q155.684 125.786 158.685 122.617 Q161.714 119.448 166.327 119.448 Q171.551 119.448 174.969 122.561 Q178.415 125.647 178.415 130.483 Q178.415 132.179 177.887 133.735 Q177.386 135.264 176.692 136.46 Q176.025 137.655 174.191 139.573 Q172.357 141.491 170.884 142.853 Q169.411 144.215 166.104 147.106 L160.074 152.971 L170.328 152.971 Q175.33 152.971 175.719 152.526 Q176.275 151.72 176.97 147.467 L178.415 147.467 L176.803 157.362 L155.684 157.362 Z" fill="#000000" fill-rule="evenodd" fill-opacity="1" /><path clip-path="url(#clip610)" d="M184.139 148.19 Q184.139 146.494 185.056 145.855 Q185.973 145.188 186.946 145.188 Q188.252 145.188 189.002 146.021 Q189.78 146.828 189.78 147.967 Q189.78 149.107 189.002 149.941 Q188.252 150.747 186.946 150.747 Q186.307 150.747 185.973 150.636 Q186.723 153.249 189.002 155.139 Q191.309 157.029 194.337 157.029 Q198.145 157.029 200.423 153.332 Q201.785 150.941 201.785 145.521 Q201.785 140.74 200.757 138.35 Q199.173 134.708 195.921 134.708 Q191.309 134.708 188.585 138.683 Q188.252 139.184 187.863 139.211 Q187.307 139.211 187.168 138.906 Q187.057 138.572 187.057 137.71 L187.057 120.866 Q187.057 119.504 187.613 119.504 Q187.835 119.504 188.307 119.67 Q191.892 121.255 195.866 121.283 Q199.951 121.283 203.619 119.615 Q203.897 119.448 204.063 119.448 Q204.619 119.448 204.647 120.087 Q204.647 120.31 204.175 120.977 Q203.73 121.616 202.757 122.478 Q201.785 123.312 200.534 124.118 Q199.284 124.924 197.45 125.48 Q195.644 126.008 193.643 126.008 Q191.253 126.008 188.808 125.258 L188.808 136.348 Q191.753 133.457 196.033 133.457 Q200.59 133.457 203.73 137.127 Q206.87 140.796 206.87 145.91 Q206.87 151.275 203.146 154.944 Q199.451 158.613 194.449 158.613 Q189.891 158.613 187.001 155.361 Q184.139 152.109 184.139 148.19 Z" fill="#000000" fill-rule="evenodd" fill-opacity="1" /><path clip-path="url(#clip610)" d="M85.9642 633.996 Q86.4619 633.996 86.8132 634.347 Q87.1645 634.699 87.1645 635.197 Q87.1645 636.046 86.3741 636.339 L57.5965 647.496 Q57.4794 647.554 57.1867 647.554 Q56.8939 647.554 56.7768 647.496 L27.9993 636.339 Q27.2088 636.046 27.2088 635.197 Q27.2088 634.699 27.5601 634.347 Q27.9114 633.996 28.4091 633.996 Q28.7019 633.996 28.819 634.055 L57.1867 645.094 L85.5544 634.055 Q85.6715 633.996 85.9642 633.996 Z" fill="#000000" fill-rule="evenodd" fill-opacity="1" /><path clip-path="url(#clip610)" d="M31.8929 575.039 Q32.4198 575.039 32.7126 575.244 Q32.9761 575.419 33.0346 575.624 Q33.0639 575.829 33.0932 576.356 Q33.2981 580.544 36.1378 583.97 Q36.8697 584.819 39.1531 586.957 Q41.4366 589.065 44.4812 591.877 Q47.5258 594.659 49.1653 596.269 L67.6672 588.538 Q68.3991 588.216 68.7211 588.099 Q69.0139 587.953 69.3944 587.66 Q69.775 587.338 69.8921 587.103 Q70.0092 586.84 70.1556 586.284 Q70.2727 585.698 70.302 585.112 Q70.302 584.497 70.3312 583.384 Q70.3312 583.033 70.3605 582.887 Q70.3605 582.711 70.5362 582.506 Q70.6825 582.301 71.0338 582.301 Q71.5608 582.301 71.8536 582.535 Q72.117 582.74 72.1463 582.945 Q72.1756 583.121 72.1756 583.443 Q72.1756 584.204 72.0878 586.781 Q71.9999 589.358 71.9999 590.09 L72.1756 597.645 Q72.1756 598.553 71.4437 598.553 Q71.0631 598.553 70.8582 598.495 Q70.624 598.407 70.5362 598.202 Q70.4191 597.997 70.3898 597.85 Q70.3605 597.704 70.3312 597.353 Q70.2141 596.269 69.8921 595.449 Q69.5408 594.6 69.1895 594.249 Q68.8382 593.868 68.5747 593.868 L67.7257 594.161 L53.4102 600.222 L59.2945 605.64 L65.7643 611.76 Q67.4915 613.371 68.4576 613.371 Q70.0678 613.371 70.3312 610.969 Q70.3898 610.237 70.9753 610.237 Q71.5315 610.237 71.8243 610.472 Q72.0878 610.677 72.1463 610.882 Q72.1756 611.057 72.1756 611.321 Q72.1756 612.404 72.0878 614.688 Q71.9999 616.943 71.9999 618.056 Q71.9999 618.993 72.0878 620.897 Q72.1756 622.8 72.1756 623.678 Q72.1756 624.03 71.9999 624.235 Q71.8243 624.44 71.6486 624.44 L71.5022 624.469 Q71.0924 624.469 70.8582 624.411 Q70.624 624.323 70.5069 624.088 Q70.3898 623.825 70.3898 623.708 Q70.3605 623.591 70.3312 623.151 Q70.1849 620.662 69.2188 618.554 Q68.2527 616.416 65.9985 614.337 Q65.8521 614.161 65.6765 613.956 Q65.5008 613.722 65.3545 613.546 L51.7415 600.896 L34.9961 607.983 Q34.2349 608.305 33.9129 608.597 Q33.5616 608.89 33.3274 609.798 Q33.0932 610.706 33.0932 612.463 Q33.0932 612.961 33.0639 613.195 Q33.0346 613.429 32.8882 613.634 Q32.7419 613.839 32.4198 613.839 Q31.8636 613.839 31.6001 613.634 Q31.3074 613.4 31.2781 613.224 Q31.2195 613.019 31.2195 612.756 Q31.2195 612.024 31.3074 609.417 Q31.3952 606.811 31.3952 606.05 Q31.3952 604.791 31.3074 602.272 Q31.2195 599.725 31.2195 598.495 Q31.2195 597.587 31.9514 597.587 Q32.4198 597.587 32.6833 597.792 Q32.9468 597.997 33.0053 598.202 Q33.0639 598.407 33.0932 598.788 Q33.2103 599.93 33.5908 600.808 Q33.9421 601.657 34.2934 602.009 Q34.6155 602.331 34.8204 602.331 L35.6108 602.038 L47.5258 597.001 L37.1039 587.279 Q35.8158 586.137 34.9375 586.137 Q33.3566 586.137 33.0932 588.538 Q32.9761 589.27 32.4198 589.27 Q31.8636 589.27 31.6001 589.036 Q31.3074 588.802 31.2781 588.626 Q31.2195 588.421 31.2195 588.128 Q31.2195 587.045 31.3074 584.819 Q31.3952 582.565 31.3952 581.452 Q31.3952 580.515 31.3074 578.611 Q31.2195 576.708 31.2195 575.829 Q31.2195 575.478 31.3952 575.273 Q31.5416 575.068 31.7172 575.068 L31.8929 575.039 Z" fill="#000000" fill-rule="evenodd" fill-opacity="1" /><path clip-path="url(#clip610)" d="M64.8316 569.122 L63.52 569.122 Q63.52 564.08 60.8355 561.477 Q60.8355 560.759 60.9995 560.636 Q61.1634 560.513 61.9216 560.513 L85.4677 560.513 Q86.7177 560.513 87.1071 559.898 Q87.4965 559.283 87.4965 556.598 L87.4965 555.265 L88.7875 555.265 Q88.6645 556.741 88.6645 562.071 Q88.6645 567.401 88.7875 568.856 L87.4965 568.856 L87.4965 567.524 Q87.4965 564.879 87.1276 564.244 Q86.7382 563.608 85.4677 563.608 L63.725 563.608 Q64.8316 565.802 64.8316 569.122 Z" fill="#000000" fill-rule="evenodd" fill-opacity="1" /><path clip-path="url(#clip610)" d="M31.8929 499.572 Q32.4198 499.572 32.7126 499.777 Q32.9761 499.953 33.0346 500.158 Q33.0639 500.363 33.0932 500.89 Q33.2981 505.077 36.1378 508.503 Q36.8697 509.353 39.1531 511.49 Q41.4366 513.599 44.4812 516.41 Q47.5258 519.192 49.1653 520.803 L67.6672 513.072 Q68.3991 512.75 68.7211 512.632 Q69.0139 512.486 69.3944 512.193 Q69.775 511.871 69.8921 511.637 Q70.0092 511.373 70.1556 510.817 Q70.2727 510.231 70.302 509.646 Q70.302 509.031 70.3312 507.918 Q70.3312 507.566 70.3605 507.42 Q70.3605 507.244 70.5362 507.039 Q70.6825 506.834 71.0338 506.834 Q71.5608 506.834 71.8536 507.069 Q72.117 507.274 72.1463 507.479 Q72.1756 507.654 72.1756 507.976 Q72.1756 508.738 72.0878 511.315 Q71.9999 513.892 71.9999 514.624 L72.1756 522.179 Q72.1756 523.087 71.4437 523.087 Q71.0631 523.087 70.8582 523.028 Q70.624 522.94 70.5362 522.735 Q70.4191 522.53 70.3898 522.384 Q70.3605 522.237 70.3312 521.886 Q70.2141 520.803 69.8921 519.983 Q69.5408 519.133 69.1895 518.782 Q68.8382 518.401 68.5747 518.401 L67.7257 518.694 L53.4102 524.756 L59.2945 530.173 L65.7643 536.293 Q67.4915 537.904 68.4576 537.904 Q70.0678 537.904 70.3312 535.503 Q70.3898 534.771 70.9753 534.771 Q71.5315 534.771 71.8243 535.005 Q72.0878 535.21 72.1463 535.415 Q72.1756 535.591 72.1756 535.854 Q72.1756 536.938 72.0878 539.222 Q71.9999 541.477 71.9999 542.589 Q71.9999 543.526 72.0878 545.43 Q72.1756 547.333 72.1756 548.212 Q72.1756 548.563 71.9999 548.768 Q71.8243 548.973 71.6486 548.973 L71.5022 549.002 Q71.0924 549.002 70.8582 548.944 Q70.624 548.856 70.5069 548.622 Q70.3898 548.358 70.3898 548.241 Q70.3605 548.124 70.3312 547.685 Q70.1849 545.196 69.2188 543.087 Q68.2527 540.95 65.9985 538.87 Q65.8521 538.695 65.6765 538.49 Q65.5008 538.255 65.3545 538.08 L51.7415 525.429 L34.9961 532.516 Q34.2349 532.838 33.9129 533.131 Q33.5616 533.424 33.3274 534.331 Q33.0932 535.239 33.0932 536.996 Q33.0932 537.494 33.0639 537.728 Q33.0346 537.963 32.8882 538.168 Q32.7419 538.373 32.4198 538.373 Q31.8636 538.373 31.6001 538.168 Q31.3074 537.933 31.2781 537.758 Q31.2195 537.553 31.2195 537.289 Q31.2195 536.557 31.3074 533.951 Q31.3952 531.345 31.3952 530.583 Q31.3952 529.324 31.3074 526.806 Q31.2195 524.258 31.2195 523.028 Q31.2195 522.12 31.9514 522.12 Q32.4198 522.12 32.6833 522.325 Q32.9468 522.53 33.0053 522.735 Q33.0639 522.94 33.0932 523.321 Q33.2103 524.463 33.5908 525.341 Q33.9421 526.191 34.2934 526.542 Q34.6155 526.864 34.8204 526.864 L35.6108 526.571 L47.5258 521.535 L37.1039 511.812 Q35.8158 510.67 34.9375 510.67 Q33.3566 510.67 33.0932 513.072 Q32.9761 513.804 32.4198 513.804 Q31.8636 513.804 31.6001 513.57 Q31.3074 513.335 31.2781 513.16 Q31.2195 512.955 31.2195 512.662 Q31.2195 511.578 31.3074 509.353 Q31.3952 507.098 31.3952 505.985 Q31.3952 505.048 31.3074 503.145 Q31.2195 501.241 31.2195 500.363 Q31.2195 500.011 31.3952 499.806 Q31.5416 499.601 31.7172 499.601 L31.8929 499.572 Z" fill="#000000" fill-rule="evenodd" fill-opacity="1" /><path clip-path="url(#clip610)" d="M82.141 493.656 L80.85 493.656 L61.1566 480.762 Q60.6442 480.434 60.6647 479.922 Q60.6647 479.45 60.8492 479.348 Q61.0336 479.245 61.7508 479.245 L80.85 479.245 L80.85 475.043 L82.141 475.043 L82.141 479.245 L85.7887 479.245 Q86.9978 479.245 87.3871 478.753 Q87.7765 478.241 87.7765 476.068 L87.7765 475.187 L89.0675 475.187 Q88.9446 476.909 88.9446 480.885 Q88.9446 484.841 89.0675 486.563 L87.7765 486.563 L87.7765 485.682 Q87.7765 483.509 87.4076 482.997 Q87.0183 482.484 85.7887 482.484 L82.141 482.484 L82.141 493.656 M80.85 492.467 L80.85 482.238 L65.1936 482.238 L80.85 492.467 Z" fill="#000000" fill-rule="evenodd" fill-opacity="1" /><path clip-path="url(#clip610)" d="M31.8929 419.398 Q32.4198 419.398 32.7126 419.603 Q32.9761 419.778 33.0346 419.983 Q33.0639 420.188 33.0932 420.715 Q33.2981 424.903 36.1378 428.329 Q36.8697 429.178 39.1531 431.316 Q41.4366 433.424 44.4812 436.236 Q47.5258 439.017 49.1653 440.628 L67.6672 432.897 Q68.3991 432.575 68.7211 432.458 Q69.0139 432.312 69.3944 432.019 Q69.775 431.697 69.8921 431.462 Q70.0092 431.199 70.1556 430.642 Q70.2727 430.057 70.302 429.471 Q70.302 428.856 70.3312 427.743 Q70.3312 427.392 70.3605 427.246 Q70.3605 427.07 70.5362 426.865 Q70.6825 426.66 71.0338 426.66 Q71.5608 426.66 71.8536 426.894 Q72.117 427.099 72.1463 427.304 Q72.1756 427.48 72.1756 427.802 Q72.1756 428.563 72.0878 431.14 Q71.9999 433.717 71.9999 434.449 L72.1756 442.004 Q72.1756 442.912 71.4437 442.912 Q71.0631 442.912 70.8582 442.854 Q70.624 442.766 70.5362 442.561 Q70.4191 442.356 70.3898 442.209 Q70.3605 442.063 70.3312 441.712 Q70.2141 440.628 69.8921 439.808 Q69.5408 438.959 69.1895 438.608 Q68.8382 438.227 68.5747 438.227 L67.7257 438.52 L53.4102 444.581 L59.2945 449.999 L65.7643 456.119 Q67.4915 457.73 68.4576 457.73 Q70.0678 457.73 70.3312 455.328 Q70.3898 454.596 70.9753 454.596 Q71.5315 454.596 71.8243 454.831 Q72.0878 455.036 72.1463 455.241 Q72.1756 455.416 72.1756 455.68 Q72.1756 456.763 72.0878 459.047 Q71.9999 461.302 71.9999 462.415 Q71.9999 463.352 72.0878 465.255 Q72.1756 467.159 72.1756 468.037 Q72.1756 468.389 71.9999 468.594 Q71.8243 468.799 71.6486 468.799 L71.5022 468.828 Q71.0924 468.828 70.8582 468.769 Q70.624 468.682 70.5069 468.447 Q70.3898 468.184 70.3898 468.067 Q70.3605 467.95 70.3312 467.51 Q70.1849 465.021 69.2188 462.913 Q68.2527 460.775 65.9985 458.696 Q65.8521 458.52 65.6765 458.315 Q65.5008 458.081 65.3545 457.905 L51.7415 445.255 L34.9961 452.341 Q34.2349 452.664 33.9129 452.956 Q33.5616 453.249 33.3274 454.157 Q33.0932 455.065 33.0932 456.822 Q33.0932 457.32 33.0639 457.554 Q33.0346 457.788 32.8882 457.993 Q32.7419 458.198 32.4198 458.198 Q31.8636 458.198 31.6001 457.993 Q31.3074 457.759 31.2781 457.583 Q31.2195 457.378 31.2195 457.115 Q31.2195 456.383 31.3074 453.776 Q31.3952 451.17 31.3952 450.409 Q31.3952 449.15 31.3074 446.631 Q31.2195 444.084 31.2195 442.854 Q31.2195 441.946 31.9514 441.946 Q32.4198 441.946 32.6833 442.151 Q32.9468 442.356 33.0053 442.561 Q33.0639 442.766 33.0932 443.146 Q33.2103 444.288 33.5908 445.167 Q33.9421 446.016 34.2934 446.368 Q34.6155 446.69 34.8204 446.69 L35.6108 446.397 L47.5258 441.36 L37.1039 431.638 Q35.8158 430.496 34.9375 430.496 Q33.3566 430.496 33.0932 432.897 Q32.9761 433.629 32.4198 433.629 Q31.8636 433.629 31.6001 433.395 Q31.3074 433.161 31.2781 432.985 Q31.2195 432.78 31.2195 432.487 Q31.2195 431.404 31.3074 429.178 Q31.3952 426.923 31.3952 425.811 Q31.3952 424.874 31.3074 422.97 Q31.2195 421.067 31.2195 420.188 Q31.2195 419.837 31.3952 419.632 Q31.5416 419.427 31.7172 419.427 L31.8929 419.398 Z" fill="#000000" fill-rule="evenodd" fill-opacity="1" /><path clip-path="url(#clip610)" d="M82.0249 413.481 Q80.7749 413.481 80.3035 412.805 Q79.8117 412.128 79.8117 411.411 Q79.8117 410.448 80.4265 409.894 Q81.0208 409.32 81.861 409.32 Q82.7012 409.32 83.316 409.894 Q83.9102 410.448 83.9102 411.411 Q83.9102 411.882 83.8283 412.128 Q85.7546 411.575 87.1481 409.894 Q88.5416 408.193 88.5416 405.958 Q88.5416 403.15 85.8161 401.469 Q84.0537 400.465 80.0576 400.465 Q76.5329 400.465 74.7705 401.223 Q72.086 402.392 72.086 404.79 Q72.086 408.193 75.0164 410.202 Q75.3853 410.448 75.4058 410.735 Q75.4058 411.144 75.1804 411.247 Q74.9345 411.329 74.2992 411.329 L61.8806 411.329 Q60.8765 411.329 60.8765 410.919 Q60.8765 410.755 60.9995 410.407 Q62.1675 407.762 62.188 404.831 Q62.188 401.818 60.9585 399.112 Q60.8355 398.907 60.8355 398.784 Q60.8355 398.374 61.3068 398.353 Q61.4708 398.353 61.9626 398.702 Q62.4339 399.03 63.0692 399.747 Q63.684 400.465 64.2783 401.387 Q64.8726 402.31 65.2824 403.663 Q65.6718 404.995 65.6718 406.471 Q65.6718 408.234 65.1185 410.038 L73.295 410.038 Q71.1638 407.865 71.1638 404.708 Q71.1638 401.346 73.8688 399.03 Q76.5739 396.714 80.3445 396.714 Q84.2996 396.714 87.0046 399.46 Q89.7097 402.187 89.7097 405.876 Q89.7097 409.238 87.312 411.37 Q84.9144 413.481 82.0249 413.481 Z" fill="#000000" fill-rule="evenodd" fill-opacity="1" /><path clip-path="url(#clip610)" d="M31.8929 341.044 Q32.4198 341.044 32.7126 341.249 Q32.9761 341.425 33.0346 341.63 Q33.0639 341.835 33.0932 342.362 Q33.2981 346.549 36.1378 349.975 Q36.8697 350.825 39.1531 352.962 Q41.4366 355.071 44.4812 357.882 Q47.5258 360.664 49.1653 362.274 L67.6672 354.544 Q68.3991 354.222 68.7211 354.104 Q69.0139 353.958 69.3944 353.665 Q69.775 353.343 69.8921 353.109 Q70.0092 352.845 70.1556 352.289 Q70.2727 351.703 70.302 351.117 Q70.302 350.503 70.3312 349.39 Q70.3312 349.038 70.3605 348.892 Q70.3605 348.716 70.5362 348.511 Q70.6825 348.306 71.0338 348.306 Q71.5608 348.306 71.8536 348.541 Q72.117 348.746 72.1463 348.951 Q72.1756 349.126 72.1756 349.448 Q72.1756 350.21 72.0878 352.787 Q71.9999 355.364 71.9999 356.096 L72.1756 363.651 Q72.1756 364.559 71.4437 364.559 Q71.0631 364.559 70.8582 364.5 Q70.624 364.412 70.5362 364.207 Q70.4191 364.002 70.3898 363.856 Q70.3605 363.709 70.3312 363.358 Q70.2141 362.274 69.8921 361.455 Q69.5408 360.605 69.1895 360.254 Q68.8382 359.873 68.5747 359.873 L67.7257 360.166 L53.4102 366.228 L59.2945 371.645 L65.7643 377.765 Q67.4915 379.376 68.4576 379.376 Q70.0678 379.376 70.3312 376.975 Q70.3898 376.243 70.9753 376.243 Q71.5315 376.243 71.8243 376.477 Q72.0878 376.682 72.1463 376.887 Q72.1756 377.063 72.1756 377.326 Q72.1756 378.41 72.0878 380.694 Q71.9999 382.949 71.9999 384.061 Q71.9999 384.998 72.0878 386.902 Q72.1756 388.805 72.1756 389.684 Q72.1756 390.035 71.9999 390.24 Q71.8243 390.445 71.6486 390.445 L71.5022 390.474 Q71.0924 390.474 70.8582 390.416 Q70.624 390.328 70.5069 390.094 Q70.3898 389.83 70.3898 389.713 Q70.3605 389.596 70.3312 389.157 Q70.1849 386.668 69.2188 384.559 Q68.2527 382.421 65.9985 380.342 Q65.8521 380.167 65.6765 379.962 Q65.5008 379.727 65.3545 379.552 L51.7415 366.901 L34.9961 373.988 Q34.2349 374.31 33.9129 374.603 Q33.5616 374.896 33.3274 375.803 Q33.0932 376.711 33.0932 378.468 Q33.0932 378.966 33.0639 379.2 Q33.0346 379.435 32.8882 379.64 Q32.7419 379.845 32.4198 379.845 Q31.8636 379.845 31.6001 379.64 Q31.3074 379.405 31.2781 379.23 Q31.2195 379.025 31.2195 378.761 Q31.2195 378.029 31.3074 375.423 Q31.3952 372.817 31.3952 372.055 Q31.3952 370.796 31.3074 368.278 Q31.2195 365.73 31.2195 364.5 Q31.2195 363.592 31.9514 363.592 Q32.4198 363.592 32.6833 363.797 Q32.9468 364.002 33.0053 364.207 Q33.0639 364.412 33.0932 364.793 Q33.2103 365.935 33.5908 366.813 Q33.9421 367.663 34.2934 368.014 Q34.6155 368.336 34.8204 368.336 L35.6108 368.043 L47.5258 363.007 L37.1039 353.284 Q35.8158 352.142 34.9375 352.142 Q33.3566 352.142 33.0932 354.544 Q32.9761 355.276 32.4198 355.276 Q31.8636 355.276 31.6001 355.041 Q31.3074 354.807 31.2781 354.631 Q31.2195 354.427 31.2195 354.134 Q31.2195 353.05 31.3074 350.825 Q31.3952 348.57 31.3952 347.457 Q31.3952 346.52 31.3074 344.617 Q31.2195 342.713 31.2195 341.835 Q31.2195 341.483 31.3952 341.278 Q31.5416 341.073 31.7172 341.073 L31.8929 341.044 Z" fill="#000000" fill-rule="evenodd" fill-opacity="1" /><path clip-path="url(#clip610)" d="M82.4553 335.128 Q77.7624 335.128 74.7295 329.081 Q72.9672 331.684 72.4548 332.155 Q70.4056 334 67.844 334 Q64.9135 334 62.8848 331.786 Q60.8355 329.552 60.8355 326.395 Q60.8355 323.382 62.5774 321.107 Q64.3193 318.831 67.0858 318.831 Q70.9794 318.831 73.6024 323.915 Q75.6927 320.553 76.5739 319.754 Q78.8486 317.704 81.738 317.704 Q85.0988 317.704 87.4145 320.287 Q89.7097 322.87 89.7097 326.436 Q89.7097 329.921 87.6809 332.524 Q85.6521 335.128 82.4553 335.128 M82.4553 333.037 Q85.0578 333.037 86.7997 331.09 Q88.5416 329.122 88.5416 326.395 Q88.5416 323.751 87.0251 321.783 Q85.5087 319.795 83.2545 319.795 Q82.3733 319.795 81.6151 320.102 Q80.8568 320.389 80.2625 320.984 Q79.6478 321.558 79.3814 321.927 Q79.0945 322.275 78.6231 322.952 L75.3648 328.117 Q78.0903 333.037 82.4553 333.037 M66.2046 332.155 Q68.2129 332.155 69.6064 330.044 L72.9672 324.838 Q70.5285 320.676 67.0858 320.676 Q64.8521 320.676 63.3766 322.378 Q61.8806 324.079 61.8806 326.436 Q61.8806 328.753 63.1102 330.454 Q64.3193 332.155 66.2046 332.155 Z" fill="#000000" fill-rule="evenodd" fill-opacity="1" /><path clip-path="url(#clip610)" d="M56.7768 298.005 Q56.8939 297.946 57.1867 297.946 Q57.4794 297.946 57.5965 298.005 L86.3741 309.162 Q87.1645 309.454 87.1645 310.274 Q87.1645 310.772 86.8132 311.124 Q86.4619 311.475 85.9642 311.475 Q85.6715 311.475 85.5544 311.416 L57.1867 300.406 L28.819 311.416 Q28.7019 311.475 28.4091 311.475 Q27.9114 311.475 27.5601 311.124 Q27.2088 310.772 27.2088 310.274 Q27.2088 309.454 27.9993 309.162 L56.7768 298.005 Z" fill="#000000" fill-rule="evenodd" fill-opacity="1" /><polyline clip-path="url(#clip613)" style="stroke:#000000; stroke-linecap:round; stroke-linejoin:round; stroke-width:8.00147; stroke-opacity:1; fill:none" stroke-dasharray="32, 20" points="272.87,864.877 306.532,864.877 340.195,864.876 373.857,864.859 407.52,864.716 441.182,864.054 474.844,861.929 508.507,856.697 542.169,846.137 575.832,827.9 609.494,800.087 643.156,761.663 676.819,712.546 710.481,653.402 744.143,585.393 777.806,510.11 811.468,429.745 845.131,347.401 878.793,267.325 912.455,194.861 946.118,136.037 979.78,96.7279 1013.44,81.5395 1047.1,92.6297 1080.77,128.874 1114.43,185.743 1148.09,256.067 1181.75,331.505 1215.42,404.274 1249.08,468.561 1282.74,521.289 1316.4,562.13 1350.07,592.938 1383.73,616.859 1417.39,637.357 1451.05,657.385 1484.72,678.904 1518.38,702.84 1552.04,729.407 1585.7,758.519 1619.37,789.964 "/>
<path clip-path="url(#clip613)" d="M272.87 864.877 L306.532 864.877 L340.195 864.877 L373.857 864.873 L407.52 864.825 L441.182 864.528 L474.844 863.362 L508.507 860.06 L542.169 852.667 L575.832 838.841 L609.494 816.404 L643.156 783.863 L676.819 740.655 L710.481 686.961 L744.143 623.784 L777.806 552.332 L811.468 474.495 L845.131 392.808 L878.793 310.86 L912.455 233.442 L946.118 166.32 L979.78 115.162 L1013.44 86.4799 L1047.1 83.5114 L1080.77 106.899 L1114.43 153.807 L1148.09 218.268 L1181.75 292.307 L1215.42 367.466 L1249.08 436.726 L1282.74 495.559 L1316.4 542.065 L1350.07 577.37 L1383.73 604.503 L1417.39 627.3 L1451.05 649.459 L1484.72 673.566 L1518.38 701.032 L1552.04 730.982 L1585.7 761.923 L1619.37 791.915 L1619.37 791.915 L1585.7 761.923 L1552.04 730.982 L1518.38 701.032 L1484.72 673.566 L1451.05 649.459 L1417.39 627.3 L1383.73 604.503 L1350.07 577.37 L1316.4 542.065 L1282.74 495.559 L1249.08 436.726 L1215.42 367.466 L1181.75 292.307 L1148.09 218.268 L1114.43 153.807 L1080.77 106.899 L1047.1 83.5114 L1013.44 86.4799 L979.78 115.162 L946.118 166.32 L912.455 233.442 L878.793 310.86 L845.131 392.808 L811.468 474.495 L777.806 552.332 L744.143 623.784 L710.481 686.961 L676.819 740.655 L643.156 783.863 L609.494 816.404 L575.832 838.841 L542.169 852.667 L508.507 860.06 L474.844 863.362 L441.182 864.528 L407.52 864.825 L373.857 864.873 L340.195 864.877 L306.532 864.877 L272.87 864.877  Z" fill="#87c55f" fill-rule="evenodd" fill-opacity="0.5"/>
<polyline clip-path="url(#clip613)" style="stroke:#87c55f; stroke-linecap:round; stroke-linejoin:round; stroke-width:12.0022; stroke-opacity:1; fill:none" points="272.87,864.877 306.532,864.877 340.195,864.877 373.857,864.873 407.52,864.825 441.182,864.528 474.844,863.362 508.507,860.06 542.169,852.667 575.832,838.841 609.494,816.404 643.156,783.863 676.819,740.655 710.481,686.961 744.143,623.784 777.806,552.332 811.468,474.495 845.131,392.808 878.793,310.86 912.455,233.442 946.118,166.32 979.78,115.162 1013.44,86.4799 1047.1,83.5114 1080.77,106.899 1114.43,153.807 1148.09,218.268 1181.75,292.307 1215.42,367.466 1249.08,436.726 1282.74,495.559 1316.4,542.065 1350.07,577.37 1383.73,604.503 1417.39,627.3 1451.05,649.459 1484.72,673.566 1518.38,701.032 1552.04,730.982 1585.7,761.923 1619.37,791.915 "/>
<path clip-path="url(#clip613)" d="M272.87 864.877 L306.532 864.877 L340.195 864.877 L373.857 864.873 L407.52 864.825 L441.182 864.528 L474.844 863.362 L508.507 860.06 L542.169 852.667 L575.832 838.841 L609.494 816.404 L643.156 783.863 L676.819 740.655 L710.481 686.961 L744.143 623.784 L777.806 552.332 L811.468 474.495 L845.131 392.808 L878.793 310.86 L912.455 233.442 L946.118 166.394 L979.78 115.777 L1013.44 87.2877 L1047.1 84.1904 L1080.77 107.564 L1114.43 154.433 L1148.09 218.687 L1181.75 292.124 L1215.42 368.017 L1249.08 438.248 L1282.74 496.612 L1316.4 544.458 L1350.07 580.014 L1383.73 610.107 L1417.39 636.367 L1451.05 661.572 L1484.72 686.179 L1518.38 710.389 L1552.04 733.55 L1585.7 754.425 L1619.37 773.559 L1619.37 773.559 L1585.7 754.425 L1552.04 733.55 L1518.38 710.389 L1484.72 686.179 L1451.05 661.572 L1417.39 636.367 L1383.73 610.107 L1350.07 580.014 L1316.4 544.458 L1282.74 496.612 L1249.08 438.248 L1215.42 368.017 L1181.75 292.124 L1148.09 218.687 L1114.43 154.433 L1080.77 107.564 L1047.1 84.1904 L1013.44 87.2877 L979.78 115.777 L946.118 166.394 L912.455 233.442 L878.793 310.86 L845.131 392.808 L811.468 474.495 L777.806 552.332 L744.143 623.784 L710.481 686.961 L676.819 740.655 L643.156 783.863 L609.494 816.404 L575.832 838.841 L542.169 852.667 L508.507 860.06 L474.844 863.362 L441.182 864.528 L407.52 864.825 L373.857 864.873 L340.195 864.877 L306.532 864.877 L272.87 864.877  Z" fill="#dcb0f2" fill-rule="evenodd" fill-opacity="0.5"/>
<polyline clip-path="url(#clip613)" style="stroke:#dcb0f2; stroke-linecap:round; stroke-linejoin:round; stroke-width:12.0022; stroke-opacity:1; fill:none" stroke-dasharray="48, 24, 6, 24" points="272.87,864.877 306.532,864.877 340.195,864.877 373.857,864.873 407.52,864.825 441.182,864.528 474.844,863.362 508.507,860.06 542.169,852.667 575.832,838.841 609.494,816.404 643.156,783.863 676.819,740.655 710.481,686.961 744.143,623.784 777.806,552.332 811.468,474.495 845.131,392.808 878.793,310.86 912.455,233.442 946.118,166.394 979.78,115.777 1013.44,87.2877 1047.1,84.1904 1080.77,107.564 1114.43,154.433 1148.09,218.687 1181.75,292.124 1215.42,368.017 1249.08,438.248 1282.74,496.612 1316.4,544.458 1350.07,580.014 1383.73,610.107 1417.39,636.367 1451.05,661.572 1484.72,686.179 1518.38,710.389 1552.04,733.55 1585.7,754.425 1619.37,773.559 "/>
<path clip-path="url(#clip613)" d="M272.87 864.877 L306.532 864.877 L340.195 864.877 L373.857 864.873 L407.52 864.825 L441.182 864.528 L474.844 863.362 L508.507 860.06 L542.169 852.667 L575.832 838.841 L609.494 816.404 L643.156 783.863 L676.819 740.655 L710.481 686.961 L744.143 623.801 L777.806 552.904 L811.468 476.972 L845.131 396.656 L878.793 313.288 L912.455 232.395 L946.118 167.376 L979.78 112.662 L1013.44 79.6829 L1047.1 71.0671 L1080.77 90.4645 L1114.43 131.529 L1148.09 188.412 L1181.75 256.721 L1215.42 330.454 L1249.08 405.437 L1282.74 478.781 L1316.4 548.782 L1350.07 614.232 L1383.73 674.26 L1417.39 723.433 L1451.05 746.66 L1484.72 745.597 L1518.38 729.977 L1552.04 712.795 L1585.7 702.119 L1619.37 702.036 L1619.37 702.036 L1585.7 702.119 L1552.04 712.795 L1518.38 729.977 L1484.72 745.597 L1451.05 746.66 L1417.39 723.433 L1383.73 674.26 L1350.07 614.232 L1316.4 548.782 L1282.74 478.781 L1249.08 405.437 L1215.42 330.454 L1181.75 256.721 L1148.09 188.412 L1114.43 131.529 L1080.77 90.4645 L1047.1 71.0671 L1013.44 79.6829 L979.78 112.662 L946.118 167.376 L912.455 232.395 L878.793 313.288 L845.131 396.656 L811.468 476.972 L777.806 552.904 L744.143 623.801 L710.481 686.961 L676.819 740.655 L643.156 783.863 L609.494 816.404 L575.832 838.841 L542.169 852.667 L508.507 860.06 L474.844 863.362 L441.182 864.528 L407.52 864.825 L373.857 864.873 L340.195 864.877 L306.532 864.877 L272.87 864.877  Z" fill="#f89c74" fill-rule="evenodd" fill-opacity="0.5"/>
<polyline clip-path="url(#clip613)" style="stroke:#f89c74; stroke-linecap:round; stroke-linejoin:round; stroke-width:12.0022; stroke-opacity:1; fill:none" stroke-dasharray="6, 12" points="272.87,864.877 306.532,864.877 340.195,864.877 373.857,864.873 407.52,864.825 441.182,864.528 474.844,863.362 508.507,860.06 542.169,852.667 575.832,838.841 609.494,816.404 643.156,783.863 676.819,740.655 710.481,686.961 744.143,623.801 777.806,552.904 811.468,476.972 845.131,396.656 878.793,313.288 912.455,232.395 946.118,167.376 979.78,112.662 1013.44,79.6829 1047.1,71.0671 1080.77,90.4645 1114.43,131.529 1148.09,188.412 1181.75,256.721 1215.42,330.454 1249.08,405.437 1282.74,478.781 1316.4,548.782 1350.07,614.232 1383.73,674.26 1417.39,723.433 1451.05,746.66 1484.72,745.597 1518.38,729.977 1552.04,712.795 1585.7,702.119 1619.37,702.036 "/>
<path clip-path="url(#clip613)" d="M272.87 864.877 L306.532 864.877 L340.195 864.877 L373.857 864.873 L407.52 864.828 L441.182 864.542 L474.844 863.395 L508.507 860.136 L542.169 852.833 L575.832 839.182 L609.494 817.108 L643.156 785.366 L676.819 743.899 L710.481 693.459 L744.143 635.214 L777.806 570.813 L811.468 502.062 L845.131 430.78 L878.793 359.493 L912.455 291.863 L946.118 232.776 L979.78 187.991 L1013.44 162.359 L1047.1 159.545 L1080.77 180.138 L1114.43 221.625 L1148.09 278.874 L1181.75 345.33 L1215.42 414.753 L1249.08 482.276 L1282.74 544.958 L1316.4 601.686 L1350.07 652.57 L1383.73 698.22 L1417.39 739.044 L1451.05 774.941 L1484.72 805.289 L1518.38 829.312 L1552.04 846.587 L1585.7 857.423 L1619.37 862.934 L1619.37 862.934 L1585.7 857.423 L1552.04 846.587 L1518.38 829.312 L1484.72 805.289 L1451.05 774.941 L1417.39 739.044 L1383.73 698.22 L1350.07 652.57 L1316.4 601.686 L1282.74 544.958 L1249.08 482.276 L1215.42 414.753 L1181.75 345.33 L1148.09 278.874 L1114.43 221.625 L1080.77 180.138 L1047.1 159.545 L1013.44 162.359 L979.78 187.991 L946.118 232.776 L912.455 291.863 L878.793 359.493 L845.131 430.78 L811.468 502.062 L777.806 570.813 L744.143 635.214 L710.481 693.459 L676.819 743.899 L643.156 785.366 L609.494 817.108 L575.832 839.182 L542.169 852.833 L508.507 860.136 L474.844 863.395 L441.182 864.542 L407.52 864.828 L373.857 864.873 L340.195 864.877 L306.532 864.877 L272.87 864.877  Z" fill="#f6cf71" fill-rule="evenodd" fill-opacity="0.5"/>
<polyline clip-path="url(#clip613)" style="stroke:#f6cf71; stroke-linecap:round; stroke-linejoin:round; stroke-width:12.0022; stroke-opacity:1; fill:none" stroke-dasharray="48, 30" points="272.87,864.877 306.532,864.877 340.195,864.877 373.857,864.873 407.52,864.828 441.182,864.542 474.844,863.395 508.507,860.136 542.169,852.833 575.832,839.182 609.494,817.108 643.156,785.366 676.819,743.899 710.481,693.459 744.143,635.214 777.806,570.813 811.468,502.062 845.131,430.78 878.793,359.493 912.455,291.863 946.118,232.776 979.78,187.991 1013.44,162.359 1047.1,159.545 1080.77,180.138 1114.43,221.625 1148.09,278.874 1181.75,345.33 1215.42,414.753 1249.08,482.276 1282.74,544.958 1316.4,601.686 1350.07,652.57 1383.73,698.22 1417.39,739.044 1451.05,774.941 1484.72,805.289 1518.38,829.312 1552.04,846.587 1585.7,857.423 1619.37,862.934 "/>
<path clip-path="url(#clip613)" d="M272.87 864.877 L306.532 864.877 L340.195 864.877 L373.857 864.873 L407.52 864.825 L441.182 864.528 L474.844 863.367 L508.507 860.097 L542.169 852.845 L575.832 839.498 L609.494 818.351 L643.156 788.79 L676.819 751.476 L710.481 708.038 L744.143 660.699 L777.806 611.295 L811.468 561.078 L845.131 510.598 L878.793 460.403 L912.455 411.452 L946.118 365.938 L979.78 327.233 L1013.44 299.769 L1047.1 288.02 L1080.77 295.324 L1114.43 322.716 L1148.09 368.371 L1181.75 428.027 L1215.42 495.525 L1249.08 564.849 L1282.74 631.15 L1316.4 690.942 L1350.07 742.582 L1383.73 785.46 L1417.39 819.449 L1451.05 844.279 L1484.72 859.518 L1518.38 864.866 L1552.04 860.84 L1585.7 849.437 L1619.37 834.357 L1619.37 834.357 L1585.7 849.437 L1552.04 860.84 L1518.38 864.866 L1484.72 859.518 L1451.05 844.279 L1417.39 819.449 L1383.73 785.46 L1350.07 742.582 L1316.4 690.942 L1282.74 631.15 L1249.08 564.849 L1215.42 495.525 L1181.75 428.027 L1148.09 368.371 L1114.43 322.716 L1080.77 295.324 L1047.1 288.02 L1013.44 299.769 L979.78 327.233 L946.118 365.938 L912.455 411.452 L878.793 460.403 L845.131 510.598 L811.468 561.078 L777.806 611.295 L744.143 660.699 L710.481 708.038 L676.819 751.476 L643.156 788.79 L609.494 818.351 L575.832 839.498 L542.169 852.845 L508.507 860.097 L474.844 863.367 L441.182 864.528 L407.52 864.825 L373.857 864.873 L340.195 864.877 L306.532 864.877 L272.87 864.877  Z" fill="#66c5cc" fill-rule="evenodd" fill-opacity="0.5"/>
<polyline clip-path="url(#clip613)" style="stroke:#66c5cc; stroke-linecap:round; stroke-linejoin:round; stroke-width:12.0022; stroke-opacity:1; fill:none" points="272.87,864.877 306.532,864.877 340.195,864.877 373.857,864.873 407.52,864.825 441.182,864.528 474.844,863.367 508.507,860.097 542.169,852.845 575.832,839.498 609.494,818.351 643.156,788.79 676.819,751.476 710.481,708.038 744.143,660.699 777.806,611.295 811.468,561.078 845.131,510.598 878.793,460.403 912.455,411.452 946.118,365.938 979.78,327.233 1013.44,299.769 1047.1,288.02 1080.77,295.324 1114.43,322.716 1148.09,368.371 1181.75,428.027 1215.42,495.525 1249.08,564.849 1282.74,631.15 1316.4,690.942 1350.07,742.582 1383.73,785.46 1417.39,819.449 1451.05,844.279 1484.72,859.518 1518.38,864.866 1552.04,860.84 1585.7,849.437 1619.37,834.357 "/>
</svg>
