<?xml version="1.0" encoding="utf-8"?>
<svg xmlns="http://www.w3.org/2000/svg" xmlns:xlink="http://www.w3.org/1999/xlink" width="426.75" height="263.5" viewBox="0 0 1707 1054">
<defs>
  <clipPath id="clip780">
    <rect x="0" y="0" width="1707" height="1054"/>
  </clipPath>
</defs>
<path clip-path="url(#clip780)" d="M0 1054 L1707 1054 L1707 0 L0 0  Z" fill="#ffffff" fill-rule="evenodd" fill-opacity="1"/>
<defs>
  <clipPath id="clip781">
    <rect x="341" y="0" width="1196" height="1054"/>
  </clipPath>
</defs>
<defs>
  <clipPath id="clip782">
    <rect x="273" y="47" width="1387" height="826"/>
  </clipPath>
</defs>
<path clip-path="url(#clip780)" d="M261.958 872.688 L1659.76 872.688 L1659.76 47.2528 L261.958 47.2528  Z" fill="#ffffff" fill-rule="evenodd" fill-opacity="1"/>
<defs>
  <clipPath id="clip783">
    <rect x="261" y="47" width="1399" height="826"/>
  </clipPath>
</defs>
<polyline clip-path="url(#clip783)" style="stroke:#000000; stroke-linecap:round; stroke-linejoin:round; stroke-width:2.00037; stroke-opacity:0.1; fill:none" points="301.518,872.688 301.518,47.2528 "/>
<polyline clip-path="url(#clip783)" style="stroke:#000000; stroke-linecap:round; stroke-linejoin:round; stroke-width:2.00037; stroke-opacity:0.1; fill:none" points="631.189,872.688 631.189,47.2528 "/>
<polyline clip-path="url(#clip783)" style="stroke:#000000; stroke-linecap:round; stroke-linejoin:round; stroke-width:2.00037; stroke-opacity:0.1; fill:none" points="960.859,872.688 960.859,47.2528 "/>
<polyline clip-path="url(#clip783)" style="stroke:#000000; stroke-linecap:round; stroke-linejoin:round; stroke-width:2.00037; stroke-opacity:0.1; fill:none" points="1290.53,872.688 1290.53,47.2528 "/>
<polyline clip-path="url(#clip783)" style="stroke:#000000; stroke-linecap:round; stroke-linejoin:round; stroke-width:2.00037; stroke-opacity:0.1; fill:none" points="1620.2,872.688 1620.2,47.2528 "/>
<polyline clip-path="url(#clip780)" style="stroke:#000000; stroke-linecap:round; stroke-linejoin:round; stroke-width:4.00074; stroke-opacity:1; fill:none" points="261.958,872.688 1659.76,872.688 "/>
<polyline clip-path="url(#clip780)" style="stroke:#000000; stroke-linecap:round; stroke-linejoin:round; stroke-width:4.00074; stroke-opacity:1; fill:none" points="261.958,47.2528 1659.76,47.2528 "/>
<polyline clip-path="url(#clip780)" style="stroke:#000000; stroke-linecap:round; stroke-linejoin:round; stroke-width:4.00074; stroke-opacity:1; fill:none" points="301.518,872.688 301.518,853.787 "/>
<polyline clip-path="url(#clip780)" style="stroke:#000000; stroke-linecap:round; stroke-linejoin:round; stroke-width:4.00074; stroke-opacity:1; fill:none" points="631.189,872.688 631.189,853.787 "/>
<polyline clip-path="url(#clip780)" style="stroke:#000000; stroke-linecap:round; stroke-linejoin:round; stroke-width:4.00074; stroke-opacity:1; fill:none" points="960.859,872.688 960.859,853.787 "/>
<polyline clip-path="url(#clip780)" style="stroke:#000000; stroke-linecap:round; stroke-linejoin:round; stroke-width:4.00074; stroke-opacity:1; fill:none" points="1290.53,872.688 1290.53,853.787 "/>
<polyline clip-path="url(#clip780)" style="stroke:#000000; stroke-linecap:round; stroke-linejoin:round; stroke-width:4.00074; stroke-opacity:1; fill:none" points="1620.2,872.688 1620.2,853.787 "/>
<path clip-path="url(#clip780)" d="M259.828 923.507 Q259.828 913.281 262.409 907.709 Q266.009 899.419 274.5 899.419 Q276.3 899.419 278.168 899.929 Q280.07 900.405 282.448 902.273 Q284.859 904.142 286.32 907.199 Q289.105 913.111 289.105 923.507 Q289.105 933.665 286.523 939.202 Q282.753 947.288 274.432 947.288 Q271.308 947.288 268.115 945.691 Q264.956 944.094 262.953 940.255 Q259.828 934.514 259.828 923.507 M265.602 922.657 Q265.602 933.155 266.349 937.334 Q267.198 941.852 269.508 943.823 Q271.851 945.759 274.432 945.759 Q277.217 945.759 279.527 943.687 Q281.87 941.58 282.584 937.062 Q283.365 932.611 283.331 922.657 Q283.331 912.975 282.652 909.102 Q281.735 904.583 279.289 902.783 Q276.878 900.948 274.432 900.948 Q273.515 900.948 272.53 901.22 Q271.579 901.492 270.187 902.273 Q268.794 903.055 267.707 904.991 Q266.655 906.928 266.145 909.849 Q265.602 913.62 265.602 922.657 Z" fill="#000000" fill-rule="evenodd" fill-opacity="1" /><path clip-path="url(#clip780)" d="M298.852 944.638 Q297.799 943.517 297.799 942.056 Q297.799 940.595 298.852 939.542 Q299.905 938.455 301.502 938.455 Q303.03 938.455 304.049 939.474 Q305.102 940.459 305.102 942.09 Q305.102 943.687 303.981 944.74 Q302.894 945.759 301.502 945.759 Q299.905 945.759 298.852 944.638 Z" fill="#000000" fill-rule="evenodd" fill-opacity="1" /><path clip-path="url(#clip780)" d="M313.932 923.507 Q313.932 913.281 316.514 907.709 Q320.114 899.419 328.605 899.419 Q330.405 899.419 332.273 899.929 Q334.175 900.405 336.552 902.273 Q338.964 904.142 340.424 907.199 Q343.209 913.111 343.209 923.507 Q343.209 933.665 340.628 939.202 Q336.858 947.288 328.537 947.288 Q325.412 947.288 322.219 945.691 Q319.061 944.094 317.057 940.255 Q313.932 934.514 313.932 923.507 M319.706 922.657 Q319.706 933.155 320.453 937.334 Q321.302 941.852 323.612 943.823 Q325.955 945.759 328.537 945.759 Q331.322 945.759 333.631 943.687 Q335.975 941.58 336.688 937.062 Q337.469 932.611 337.435 922.657 Q337.435 912.975 336.756 909.102 Q335.839 904.583 333.394 902.783 Q330.982 900.948 328.537 900.948 Q327.62 900.948 326.635 901.22 Q325.684 901.492 324.291 902.273 Q322.899 903.055 321.812 904.991 Q320.759 906.928 320.25 909.849 Q319.706 913.62 319.706 922.657 Z" fill="#000000" fill-rule="evenodd" fill-opacity="1" /><path clip-path="url(#clip780)" d="M589.872 923.507 Q589.872 913.281 592.453 907.709 Q596.053 899.419 604.544 899.419 Q606.344 899.419 608.212 899.929 Q610.114 900.405 612.492 902.273 Q614.903 904.142 616.364 907.199 Q619.149 913.111 619.149 923.507 Q619.149 933.665 616.567 939.202 Q612.797 947.288 604.476 947.288 Q601.352 947.288 598.159 945.691 Q595 944.094 592.997 940.255 Q589.872 934.514 589.872 923.507 M595.646 922.657 Q595.646 933.155 596.393 937.334 Q597.242 941.852 599.552 943.823 Q601.895 945.759 604.476 945.759 Q607.261 945.759 609.571 943.687 Q611.914 941.58 612.628 937.062 Q613.409 932.611 613.375 922.657 Q613.375 912.975 612.696 909.102 Q611.779 904.583 609.333 902.783 Q606.922 900.948 604.476 900.948 Q603.559 900.948 602.574 901.22 Q601.623 901.492 600.231 902.273 Q598.838 903.055 597.751 904.991 Q596.699 906.928 596.189 909.849 Q595.646 913.62 595.646 922.657 Z" fill="#000000" fill-rule="evenodd" fill-opacity="1" /><path clip-path="url(#clip780)" d="M628.896 944.638 Q627.843 943.517 627.843 942.056 Q627.843 940.595 628.896 939.542 Q629.949 938.455 631.545 938.455 Q633.074 938.455 634.093 939.474 Q635.146 940.459 635.146 942.09 Q635.146 943.687 634.025 944.74 Q632.938 945.759 631.545 945.759 Q629.949 945.759 628.896 944.638 Z" fill="#000000" fill-rule="evenodd" fill-opacity="1" /><path clip-path="url(#clip780)" d="M644.723 934.548 Q644.723 932.476 645.844 931.694 Q646.965 930.879 648.154 930.879 Q649.75 930.879 650.667 931.898 Q651.618 932.883 651.618 934.276 Q651.618 935.669 650.667 936.688 Q649.75 937.674 648.154 937.674 Q647.373 937.674 646.965 937.538 Q647.882 940.731 650.667 943.041 Q653.486 945.351 657.188 945.351 Q661.841 945.351 664.626 940.833 Q666.29 937.911 666.29 931.287 Q666.29 925.443 665.034 922.521 Q663.098 918.071 659.124 918.071 Q653.486 918.071 650.158 922.929 Q649.75 923.541 649.275 923.575 Q648.595 923.575 648.426 923.201 Q648.29 922.793 648.29 921.74 L648.29 901.152 Q648.29 899.487 648.969 899.487 Q649.241 899.487 649.818 899.691 Q654.199 901.628 659.056 901.662 Q664.049 901.662 668.532 899.623 Q668.872 899.419 669.076 899.419 Q669.755 899.419 669.789 900.201 Q669.789 900.473 669.211 901.288 Q668.668 902.069 667.479 903.123 Q666.29 904.142 664.762 905.127 Q663.234 906.112 660.992 906.792 Q658.784 907.437 656.339 907.437 Q653.418 907.437 650.429 906.52 L650.429 920.075 Q654.03 916.542 659.26 916.542 Q664.83 916.542 668.668 921.027 Q672.506 925.511 672.506 931.762 Q672.506 938.319 667.955 942.803 Q663.438 947.288 657.324 947.288 Q651.754 947.288 648.222 943.313 Q644.723 939.338 644.723 934.548 Z" fill="#000000" fill-rule="evenodd" fill-opacity="1" /><path clip-path="url(#clip780)" d="M920.901 906.044 L920.901 903.87 Q929.256 903.87 933.569 899.419 Q934.758 899.419 934.962 899.691 Q935.166 899.963 935.166 901.22 L935.166 940.255 Q935.166 942.328 936.185 942.973 Q937.203 943.619 941.653 943.619 L943.86 943.619 L943.86 945.759 Q941.415 945.555 932.584 945.555 Q923.754 945.555 921.342 945.759 L921.342 943.619 L923.55 943.619 Q927.931 943.619 928.984 943.007 Q930.037 942.362 930.037 940.255 L930.037 904.21 Q926.403 906.044 920.901 906.044 Z" fill="#000000" fill-rule="evenodd" fill-opacity="1" /><path clip-path="url(#clip780)" d="M956.461 944.638 Q955.408 943.517 955.408 942.056 Q955.408 940.595 956.461 939.542 Q957.514 938.455 959.11 938.455 Q960.638 938.455 961.657 939.474 Q962.71 940.459 962.71 942.09 Q962.71 943.687 961.589 944.74 Q960.503 945.759 959.11 945.759 Q957.514 945.759 956.461 944.638 Z" fill="#000000" fill-rule="evenodd" fill-opacity="1" /><path clip-path="url(#clip780)" d="M971.541 923.507 Q971.541 913.281 974.122 907.709 Q977.722 899.419 986.213 899.419 Q988.013 899.419 989.881 899.929 Q991.783 900.405 994.161 902.273 Q996.572 904.142 998.033 907.199 Q1000.82 913.111 1000.82 923.507 Q1000.82 933.665 998.236 939.202 Q994.466 947.288 986.145 947.288 Q983.021 947.288 979.828 945.691 Q976.669 944.094 974.666 940.255 Q971.541 934.514 971.541 923.507 M977.315 922.657 Q977.315 933.155 978.062 937.334 Q978.911 941.852 981.221 943.823 Q983.564 945.759 986.145 945.759 Q988.93 945.759 991.24 943.687 Q993.583 941.58 994.297 937.062 Q995.078 932.611 995.044 922.657 Q995.044 912.975 994.365 909.102 Q993.448 904.583 991.002 902.783 Q988.591 900.948 986.145 900.948 Q985.228 900.948 984.243 901.22 Q983.292 901.492 981.9 902.273 Q980.507 903.055 979.42 904.991 Q978.368 906.928 977.858 909.849 Q977.315 913.62 977.315 922.657 Z" fill="#000000" fill-rule="evenodd" fill-opacity="1" /><path clip-path="url(#clip780)" d="M1250.94 906.044 L1250.94 903.87 Q1259.3 903.87 1263.61 899.419 Q1264.8 899.419 1265.01 899.691 Q1265.21 899.963 1265.21 901.22 L1265.21 940.255 Q1265.21 942.328 1266.23 942.973 Q1267.25 943.619 1271.7 943.619 L1273.9 943.619 L1273.9 945.759 Q1271.46 945.555 1262.63 945.555 Q1253.8 945.555 1251.39 945.759 L1251.39 943.619 L1253.59 943.619 Q1257.98 943.619 1259.03 943.007 Q1260.08 942.362 1260.08 940.255 L1260.08 904.21 Q1256.45 906.044 1250.94 906.044 Z" fill="#000000" fill-rule="evenodd" fill-opacity="1" /><path clip-path="url(#clip780)" d="M1286.5 944.638 Q1285.45 943.517 1285.45 942.056 Q1285.45 940.595 1286.5 939.542 Q1287.56 938.455 1289.15 938.455 Q1290.68 938.455 1291.7 939.474 Q1292.75 940.459 1292.75 942.09 Q1292.75 943.687 1291.63 944.74 Q1290.55 945.759 1289.15 945.759 Q1287.56 945.759 1286.5 944.638 Z" fill="#000000" fill-rule="evenodd" fill-opacity="1" /><path clip-path="url(#clip780)" d="M1302.33 934.548 Q1302.33 932.476 1303.45 931.694 Q1304.57 930.879 1305.76 930.879 Q1307.36 930.879 1308.28 931.898 Q1309.23 932.883 1309.23 934.276 Q1309.23 935.669 1308.28 936.688 Q1307.36 937.674 1305.76 937.674 Q1304.98 937.674 1304.57 937.538 Q1305.49 940.731 1308.28 943.041 Q1311.09 945.351 1314.8 945.351 Q1319.45 945.351 1322.23 940.833 Q1323.9 937.911 1323.9 931.287 Q1323.9 925.443 1322.64 922.521 Q1320.71 918.071 1316.73 918.071 Q1311.09 918.071 1307.77 922.929 Q1307.36 923.541 1306.88 923.575 Q1306.2 923.575 1306.03 923.201 Q1305.9 922.793 1305.9 921.74 L1305.9 901.152 Q1305.9 899.487 1306.58 899.487 Q1306.85 899.487 1307.43 899.691 Q1311.81 901.628 1316.66 901.662 Q1321.66 901.662 1326.14 899.623 Q1326.48 899.419 1326.68 899.419 Q1327.36 899.419 1327.4 900.201 Q1327.4 900.473 1326.82 901.288 Q1326.28 902.069 1325.09 903.123 Q1323.9 904.142 1322.37 905.127 Q1320.84 906.112 1318.6 906.792 Q1316.39 907.437 1313.95 907.437 Q1311.03 907.437 1308.04 906.52 L1308.04 920.075 Q1311.64 916.542 1316.87 916.542 Q1322.44 916.542 1326.28 921.027 Q1330.11 925.511 1330.11 931.762 Q1330.11 938.319 1325.56 942.803 Q1321.05 947.288 1314.93 947.288 Q1309.36 947.288 1305.83 943.313 Q1302.33 939.338 1302.33 934.548 Z" fill="#000000" fill-rule="evenodd" fill-opacity="1" /><path clip-path="url(#clip780)" d="M1578.88 945.759 Q1578.88 944.502 1578.98 944.128 Q1579.12 943.755 1579.66 943.177 L1593.01 928.297 Q1600.31 920.075 1600.31 912.907 Q1600.31 908.253 1597.87 904.923 Q1595.46 901.594 1591.01 901.594 Q1587.95 901.594 1585.37 903.462 Q1582.79 905.331 1581.6 908.66 Q1581.8 908.592 1582.52 908.592 Q1584.25 908.592 1585.2 909.679 Q1586.19 910.767 1586.19 912.227 Q1586.19 914.096 1584.96 915.013 Q1583.77 915.897 1582.59 915.897 Q1582.11 915.897 1581.46 915.795 Q1580.85 915.693 1579.87 914.741 Q1578.88 913.756 1578.88 912.024 Q1578.88 907.165 1582.55 903.292 Q1586.25 899.419 1591.89 899.419 Q1598.28 899.419 1602.45 903.224 Q1606.67 906.996 1606.67 912.907 Q1606.67 914.979 1606.02 916.882 Q1605.41 918.75 1604.56 920.211 Q1603.74 921.672 1601.5 924.016 Q1599.26 926.36 1597.46 928.025 Q1595.66 929.69 1591.62 933.223 L1584.25 940.391 L1596.78 940.391 Q1602.9 940.391 1603.37 939.848 Q1604.05 938.863 1604.9 933.665 L1606.67 933.665 L1604.7 945.759 L1578.88 945.759 Z" fill="#000000" fill-rule="evenodd" fill-opacity="1" /><path clip-path="url(#clip780)" d="M1617.16 944.638 Q1616.11 943.517 1616.11 942.056 Q1616.11 940.595 1617.16 939.542 Q1618.21 938.455 1619.81 938.455 Q1621.34 938.455 1622.36 939.474 Q1623.41 940.459 1623.41 942.09 Q1623.41 943.687 1622.29 944.74 Q1621.2 945.759 1619.81 945.759 Q1618.21 945.759 1617.16 944.638 Z" fill="#000000" fill-rule="evenodd" fill-opacity="1" /><path clip-path="url(#clip780)" d="M1632.24 923.507 Q1632.24 913.281 1634.82 907.709 Q1638.42 899.419 1646.91 899.419 Q1648.71 899.419 1650.58 899.929 Q1652.48 900.405 1654.86 902.273 Q1657.27 904.142 1658.73 907.199 Q1661.52 913.111 1661.52 923.507 Q1661.52 933.665 1658.94 939.202 Q1655.17 947.288 1646.84 947.288 Q1643.72 947.288 1640.53 945.691 Q1637.37 944.094 1635.36 940.255 Q1632.24 934.514 1632.24 923.507 M1638.01 922.657 Q1638.01 933.155 1638.76 937.334 Q1639.61 941.852 1641.92 943.823 Q1644.26 945.759 1646.84 945.759 Q1649.63 945.759 1651.94 943.687 Q1654.28 941.58 1655 937.062 Q1655.78 932.611 1655.74 922.657 Q1655.74 912.975 1655.06 909.102 Q1654.15 904.583 1651.7 902.783 Q1649.29 900.948 1646.84 900.948 Q1645.93 900.948 1644.94 901.22 Q1643.99 901.492 1642.6 902.273 Q1641.21 903.055 1640.12 904.991 Q1639.07 906.928 1638.56 909.849 Q1638.01 913.62 1638.01 922.657 Z" fill="#000000" fill-rule="evenodd" fill-opacity="1" /><path clip-path="url(#clip780)" d="M877.012 997.494 L878.457 980.445 L924.808 980.445 L926.253 997.494 L924.364 997.494 Q924.067 994.084 923.771 992.12 Q923.511 990.156 922.844 988.303 Q922.215 986.412 921.399 985.523 Q920.621 984.596 919.102 983.892 Q917.583 983.151 915.619 982.966 Q913.656 982.78 910.692 982.78 Q907.209 982.78 906.357 982.929 Q905.43 983.151 905.208 983.818 Q904.986 984.448 904.986 985.819 L904.986 1025.81 Q904.986 1027.33 905.282 1027.96 Q905.616 1028.55 907.357 1029.03 Q909.098 1029.48 912.952 1029.48 L915.99 1029.48 L915.99 1031.81 Q912.878 1031.59 901.577 1031.59 Q890.35 1031.59 887.238 1031.81 L887.238 1029.48 L890.276 1029.48 Q894.13 1029.48 895.871 1029.03 Q897.649 1028.55 897.946 1027.96 Q898.242 1027.33 898.242 1025.81 L898.242 985.819 Q898.242 984.745 898.168 984.3 Q898.094 983.855 897.761 983.485 Q897.427 983.077 896.649 982.929 Q895.908 982.78 892.573 982.78 Q889.609 982.78 887.609 982.966 Q885.645 983.151 884.126 983.892 Q882.607 984.596 881.791 985.523 Q881.013 986.412 880.346 988.303 Q879.717 990.156 879.457 992.12 Q879.198 994.084 878.901 997.494 L877.012 997.494 Z" fill="#000000" fill-rule="evenodd" fill-opacity="1" /><path clip-path="url(#clip780)" d="M931.552 1031.81 L931.552 1029.48 Q935.59 1029.48 936.516 1029 Q937.443 1028.48 937.443 1026.03 L937.443 1005.61 Q937.443 1002.79 936.479 1002.13 Q935.553 1001.46 931.848 1001.46 L931.848 999.088 L942.445 998.272 L942.445 1026.11 Q942.445 1028.37 943.26 1028.92 Q944.075 1029.48 947.78 1029.48 L947.78 1031.81 Q940.036 1031.59 939.888 1031.59 Q938.851 1031.59 931.552 1031.81 M934.738 985.041 Q934.738 983.522 935.887 982.299 Q937.072 981.038 938.74 981.038 Q940.407 981.038 941.593 982.187 Q942.778 983.299 942.778 985.078 Q942.778 986.82 941.593 987.969 Q940.407 989.081 938.74 989.081 Q936.998 989.081 935.85 987.858 Q934.738 986.635 934.738 985.041 Z" fill="#000000" fill-rule="evenodd" fill-opacity="1" /><path clip-path="url(#clip780)" d="M952.486 1031.81 L952.486 1029.48 Q956.524 1029.48 957.451 1029 Q958.377 1028.48 958.377 1026.03 L958.377 1005.68 Q958.377 1002.87 957.376 1002.16 Q956.413 1001.46 952.486 1001.46 L952.486 999.088 L963.156 998.272 L963.156 1006.24 Q966.713 998.272 974.383 998.272 Q983.275 998.272 984.498 1005.68 Q985.795 1002.79 988.5 1000.53 Q991.241 998.272 995.502 998.272 Q1001.21 998.272 1003.47 1001.09 Q1005.14 1002.98 1005.47 1005.09 Q1005.8 1007.2 1005.8 1012.69 L1005.8 1027.18 Q1005.88 1028.77 1007.1 1029.14 Q1008.32 1029.48 1011.73 1029.48 L1011.73 1031.81 Q1003.99 1031.59 1003.25 1031.59 Q1002.65 1031.59 994.65 1031.81 L994.65 1029.48 Q998.689 1029.48 999.615 1029 Q1000.58 1028.48 1000.58 1026.03 L1000.58 1008.35 Q1000.58 1004.5 999.393 1002.24 Q998.207 999.94 994.947 999.94 Q991.019 999.94 987.87 1003.24 Q984.72 1006.54 984.72 1012.1 L984.72 1026.03 Q984.72 1028.48 985.647 1029 Q986.61 1029.48 990.649 1029.48 L990.649 1031.81 Q982.905 1031.59 982.127 1031.59 Q981.534 1031.59 973.568 1031.81 L973.568 1029.48 Q977.607 1029.48 978.533 1029 Q979.496 1028.48 979.496 1026.03 L979.496 1008.35 Q979.496 1004.5 978.31 1002.24 Q977.125 999.94 973.864 999.94 Q969.937 999.94 966.787 1003.24 Q963.638 1006.54 963.638 1012.1 L963.638 1026.03 Q963.638 1028.48 964.564 1029 Q965.528 1029.48 969.529 1029.48 L969.529 1031.81 Q961.786 1031.59 961.045 1031.59 Q960.452 1031.59 952.486 1031.81 Z" fill="#000000" fill-rule="evenodd" fill-opacity="1" /><path clip-path="url(#clip780)" d="M1015.32 1015.1 Q1015.32 1007.95 1019.92 1002.87 Q1024.51 997.79 1031.11 997.79 Q1037.78 997.79 1041.22 1002.13 Q1044.71 1006.46 1044.71 1012.69 Q1044.71 1013.84 1044.41 1014.06 Q1044.11 1014.28 1042.82 1014.28 L1021.62 1014.28 Q1021.62 1022.03 1023.92 1025.66 Q1027.11 1030.74 1032.48 1030.74 Q1033.22 1030.74 1034.11 1030.59 Q1035 1030.44 1036.81 1029.81 Q1038.63 1029.14 1040.22 1027.4 Q1041.82 1025.66 1042.74 1022.92 Q1042.97 1021.84 1043.71 1021.88 Q1044.71 1021.88 1044.71 1022.77 Q1044.71 1023.44 1043.97 1024.96 Q1043.26 1026.44 1041.89 1028.22 Q1040.52 1030 1037.85 1031.33 Q1035.22 1032.67 1032.04 1032.67 Q1025.37 1032.67 1020.33 1027.63 Q1015.32 1022.55 1015.32 1015.1 M1021.7 1012.69 L1039.7 1012.69 Q1039.7 1011.1 1039.41 1009.32 Q1039.15 1007.54 1038.33 1005.09 Q1037.56 1002.61 1035.7 1001.05 Q1033.85 999.495 1031.11 999.495 Q1029.89 999.495 1028.55 1000.01 Q1027.26 1000.53 1025.66 1001.79 Q1024.07 1003.05 1022.96 1005.91 Q1021.85 1008.76 1021.7 1012.69 Z" fill="#000000" fill-rule="evenodd" fill-opacity="1" /><polyline clip-path="url(#clip783)" style="stroke:#000000; stroke-linecap:round; stroke-linejoin:round; stroke-width:2.00037; stroke-opacity:0.1; fill:none" points="261.958,849.327 1659.76,849.327 "/>
<polyline clip-path="url(#clip783)" style="stroke:#000000; stroke-linecap:round; stroke-linejoin:round; stroke-width:2.00037; stroke-opacity:0.1; fill:none" points="261.958,706.7 1659.76,706.7 "/>
<polyline clip-path="url(#clip783)" style="stroke:#000000; stroke-linecap:round; stroke-linejoin:round; stroke-width:2.00037; stroke-opacity:0.1; fill:none" points="261.958,564.074 1659.76,564.074 "/>
<polyline clip-path="url(#clip783)" style="stroke:#000000; stroke-linecap:round; stroke-linejoin:round; stroke-width:2.00037; stroke-opacity:0.1; fill:none" points="261.958,421.447 1659.76,421.447 "/>
<polyline clip-path="url(#clip783)" style="stroke:#000000; stroke-linecap:round; stroke-linejoin:round; stroke-width:2.00037; stroke-opacity:0.1; fill:none" points="261.958,278.821 1659.76,278.821 "/>
<polyline clip-path="url(#clip783)" style="stroke:#000000; stroke-linecap:round; stroke-linejoin:round; stroke-width:2.00037; stroke-opacity:0.1; fill:none" points="261.958,136.194 1659.76,136.194 "/>
<polyline clip-path="url(#clip780)" style="stroke:#000000; stroke-linecap:round; stroke-linejoin:round; stroke-width:4.00074; stroke-opacity:1; fill:none" points="261.958,872.688 261.958,47.2528 "/>
<polyline clip-path="url(#clip780)" style="stroke:#000000; stroke-linecap:round; stroke-linejoin:round; stroke-width:4.00074; stroke-opacity:1; fill:none" points="1659.76,872.688 1659.76,47.2528 "/>
<polyline clip-path="url(#clip780)" style="stroke:#000000; stroke-linecap:round; stroke-linejoin:round; stroke-width:4.00074; stroke-opacity:1; fill:none" points="261.958,849.327 280.854,849.327 "/>
<polyline clip-path="url(#clip780)" style="stroke:#000000; stroke-linecap:round; stroke-linejoin:round; stroke-width:4.00074; stroke-opacity:1; fill:none" points="261.958,706.7 280.854,706.7 "/>
<polyline clip-path="url(#clip780)" style="stroke:#000000; stroke-linecap:round; stroke-linejoin:round; stroke-width:4.00074; stroke-opacity:1; fill:none" points="261.958,564.074 280.854,564.074 "/>
<polyline clip-path="url(#clip780)" style="stroke:#000000; stroke-linecap:round; stroke-linejoin:round; stroke-width:4.00074; stroke-opacity:1; fill:none" points="261.958,421.447 280.854,421.447 "/>
<polyline clip-path="url(#clip780)" style="stroke:#000000; stroke-linecap:round; stroke-linejoin:round; stroke-width:4.00074; stroke-opacity:1; fill:none" points="261.958,278.821 280.854,278.821 "/>
<polyline clip-path="url(#clip780)" style="stroke:#000000; stroke-linecap:round; stroke-linejoin:round; stroke-width:4.00074; stroke-opacity:1; fill:none" points="261.958,136.194 280.854,136.194 "/>
<path clip-path="url(#clip780)" d="M118.193 850.839 Q118.193 840.613 120.774 835.041 Q124.374 826.752 132.865 826.752 Q134.665 826.752 136.533 827.261 Q138.435 827.737 140.813 829.605 Q143.224 831.474 144.685 834.532 Q147.47 840.443 147.47 850.839 Q147.47 860.997 144.888 866.535 Q141.118 874.62 132.797 874.62 Q129.673 874.62 126.48 873.023 Q123.321 871.427 121.318 867.588 Q118.193 861.846 118.193 850.839 M123.967 849.989 Q123.967 860.487 124.714 864.666 Q125.563 869.184 127.873 871.155 Q130.216 873.091 132.797 873.091 Q135.582 873.091 137.892 871.019 Q140.235 868.913 140.949 864.394 Q141.73 859.944 141.696 849.989 Q141.696 840.307 141.017 836.434 Q140.1 831.916 137.654 830.115 Q135.243 828.28 132.797 828.28 Q131.88 828.28 130.895 828.552 Q129.944 828.824 128.552 829.605 Q127.159 830.387 126.072 832.323 Q125.02 834.26 124.51 837.182 Q123.967 840.953 123.967 849.989 Z" fill="#000000" fill-rule="evenodd" fill-opacity="1" /><path clip-path="url(#clip780)" d="M157.217 871.97 Q156.164 870.849 156.164 869.388 Q156.164 867.927 157.217 866.874 Q158.27 865.787 159.866 865.787 Q161.395 865.787 162.414 866.806 Q163.467 867.792 163.467 869.422 Q163.467 871.019 162.346 872.072 Q161.259 873.091 159.866 873.091 Q158.27 873.091 157.217 871.97 Z" fill="#000000" fill-rule="evenodd" fill-opacity="1" /><path clip-path="url(#clip780)" d="M172.297 850.839 Q172.297 840.613 174.879 835.041 Q178.479 826.752 186.97 826.752 Q188.77 826.752 190.638 827.261 Q192.54 827.737 194.917 829.605 Q197.329 831.474 198.789 834.532 Q201.574 840.443 201.574 850.839 Q201.574 860.997 198.993 866.535 Q195.223 874.62 186.902 874.62 Q183.777 874.62 180.584 873.023 Q177.426 871.427 175.422 867.588 Q172.297 861.846 172.297 850.839 M178.071 849.989 Q178.071 860.487 178.818 864.666 Q179.667 869.184 181.977 871.155 Q184.32 873.091 186.902 873.091 Q189.687 873.091 191.996 871.019 Q194.34 868.913 195.053 864.394 Q195.834 859.944 195.8 849.989 Q195.8 840.307 195.121 836.434 Q194.204 831.916 191.759 830.115 Q189.347 828.28 186.902 828.28 Q185.985 828.28 185 828.552 Q184.049 828.824 182.656 829.605 Q181.264 830.387 180.177 832.323 Q179.124 834.26 178.615 837.182 Q178.071 840.953 178.071 849.989 Z" fill="#000000" fill-rule="evenodd" fill-opacity="1" /><path clip-path="url(#clip780)" d="M207.076 850.839 Q207.076 840.613 209.657 835.041 Q213.258 826.752 221.749 826.752 Q223.549 826.752 225.417 827.261 Q227.319 827.737 229.696 829.605 Q232.108 831.474 233.568 834.532 Q236.353 840.443 236.353 850.839 Q236.353 860.997 233.772 866.535 Q230.002 874.62 221.681 874.62 Q218.556 874.62 215.363 873.023 Q212.205 871.427 210.201 867.588 Q207.076 861.846 207.076 850.839 M212.85 849.989 Q212.85 860.487 213.597 864.666 Q214.446 869.184 216.756 871.155 Q219.099 873.091 221.681 873.091 Q224.466 873.091 226.775 871.019 Q229.119 868.913 229.832 864.394 Q230.613 859.944 230.579 849.989 Q230.579 840.307 229.9 836.434 Q228.983 831.916 226.537 830.115 Q224.126 828.28 221.681 828.28 Q220.764 828.28 219.779 828.552 Q218.828 828.824 217.435 829.605 Q216.043 830.387 214.956 832.323 Q213.903 834.26 213.393 837.182 Q212.85 840.953 212.85 849.989 Z" fill="#000000" fill-rule="evenodd" fill-opacity="1" /><path clip-path="url(#clip780)" d="M118.94 708.212 Q118.94 697.986 121.521 692.415 Q125.121 684.125 133.612 684.125 Q135.413 684.125 137.281 684.635 Q139.183 685.11 141.56 686.979 Q143.971 688.847 145.432 691.905 Q148.217 697.816 148.217 708.212 Q148.217 718.37 145.636 723.908 Q141.866 731.994 133.545 731.994 Q130.42 731.994 127.227 730.397 Q124.069 728.8 122.065 724.961 Q118.94 719.22 118.94 708.212 M124.714 707.363 Q124.714 717.861 125.461 722.039 Q126.31 726.558 128.62 728.528 Q130.963 730.465 133.545 730.465 Q136.33 730.465 138.639 728.392 Q140.983 726.286 141.696 721.768 Q142.477 717.317 142.443 707.363 Q142.443 697.681 141.764 693.808 Q140.847 689.289 138.401 687.489 Q135.99 685.654 133.545 685.654 Q132.628 685.654 131.643 685.926 Q130.692 686.198 129.299 686.979 Q127.907 687.76 126.82 689.697 Q125.767 691.633 125.257 694.555 Q124.714 698.326 124.714 707.363 Z" fill="#000000" fill-rule="evenodd" fill-opacity="1" /><path clip-path="url(#clip780)" d="M157.965 729.344 Q156.912 728.223 156.912 726.762 Q156.912 725.301 157.965 724.248 Q159.017 723.161 160.614 723.161 Q162.142 723.161 163.161 724.18 Q164.214 725.165 164.214 726.796 Q164.214 728.392 163.093 729.446 Q162.006 730.465 160.614 730.465 Q159.017 730.465 157.965 729.344 Z" fill="#000000" fill-rule="evenodd" fill-opacity="1" /><path clip-path="url(#clip780)" d="M173.044 708.212 Q173.044 697.986 175.626 692.415 Q179.226 684.125 187.717 684.125 Q189.517 684.125 191.385 684.635 Q193.287 685.11 195.664 686.979 Q198.076 688.847 199.536 691.905 Q202.321 697.816 202.321 708.212 Q202.321 718.37 199.74 723.908 Q195.97 731.994 187.649 731.994 Q184.524 731.994 181.332 730.397 Q178.173 728.8 176.169 724.961 Q173.044 719.22 173.044 708.212 M178.818 707.363 Q178.818 717.861 179.566 722.039 Q180.415 726.558 182.724 728.528 Q185.068 730.465 187.649 730.465 Q190.434 730.465 192.743 728.392 Q195.087 726.286 195.8 721.768 Q196.581 717.317 196.547 707.363 Q196.547 697.681 195.868 693.808 Q194.951 689.289 192.506 687.489 Q190.094 685.654 187.649 685.654 Q186.732 685.654 185.747 685.926 Q184.796 686.198 183.403 686.979 Q182.011 687.76 180.924 689.697 Q179.871 691.633 179.362 694.555 Q178.818 698.326 178.818 707.363 Z" fill="#000000" fill-rule="evenodd" fill-opacity="1" /><path clip-path="url(#clip780)" d="M208.571 719.254 Q208.571 717.181 209.691 716.4 Q210.812 715.585 212.001 715.585 Q213.597 715.585 214.514 716.604 Q215.465 717.589 215.465 718.982 Q215.465 720.375 214.514 721.394 Q213.597 722.379 212.001 722.379 Q211.22 722.379 210.812 722.243 Q211.729 725.437 214.514 727.747 Q217.333 730.057 221.035 730.057 Q225.688 730.057 228.473 725.539 Q230.138 722.617 230.138 715.992 Q230.138 710.149 228.881 707.227 Q226.945 702.777 222.971 702.777 Q217.333 702.777 214.005 707.635 Q213.597 708.246 213.122 708.28 Q212.443 708.28 212.273 707.907 Q212.137 707.499 212.137 706.446 L212.137 685.858 Q212.137 684.193 212.816 684.193 Q213.088 684.193 213.665 684.397 Q218.047 686.333 222.903 686.367 Q227.896 686.367 232.379 684.329 Q232.719 684.125 232.923 684.125 Q233.602 684.125 233.636 684.907 Q233.636 685.178 233.059 685.994 Q232.515 686.775 231.326 687.828 Q230.138 688.847 228.609 689.833 Q227.081 690.818 224.839 691.497 Q222.632 692.143 220.186 692.143 Q217.265 692.143 214.277 691.226 L214.277 704.781 Q217.877 701.248 223.107 701.248 Q228.677 701.248 232.515 705.732 Q236.353 710.217 236.353 716.468 Q236.353 723.025 231.802 727.509 Q227.285 731.994 221.171 731.994 Q215.601 731.994 212.069 728.019 Q208.571 724.044 208.571 719.254 Z" fill="#000000" fill-rule="evenodd" fill-opacity="1" /><path clip-path="url(#clip780)" d="M118.193 565.586 Q118.193 555.36 120.774 549.788 Q124.374 541.499 132.865 541.499 Q134.665 541.499 136.533 542.008 Q138.435 542.484 140.813 544.352 Q143.224 546.221 144.685 549.279 Q147.47 555.19 147.47 565.586 Q147.47 575.744 144.888 581.282 Q141.118 589.367 132.797 589.367 Q129.673 589.367 126.48 587.77 Q123.321 586.174 121.318 582.335 Q118.193 576.593 118.193 565.586 M123.967 564.736 Q123.967 575.234 124.714 579.413 Q125.563 583.931 127.873 585.902 Q130.216 587.838 132.797 587.838 Q135.582 587.838 137.892 585.766 Q140.235 583.66 140.949 579.141 Q141.73 574.691 141.696 564.736 Q141.696 555.054 141.017 551.181 Q140.1 546.663 137.654 544.862 Q135.243 543.027 132.797 543.027 Q131.88 543.027 130.895 543.299 Q129.944 543.571 128.552 544.352 Q127.159 545.134 126.072 547.07 Q125.02 549.007 124.51 551.929 Q123.967 555.7 123.967 564.736 Z" fill="#000000" fill-rule="evenodd" fill-opacity="1" /><path clip-path="url(#clip780)" d="M157.217 586.717 Q156.164 585.596 156.164 584.135 Q156.164 582.674 157.217 581.621 Q158.27 580.534 159.866 580.534 Q161.395 580.534 162.414 581.553 Q163.467 582.539 163.467 584.169 Q163.467 585.766 162.346 586.819 Q161.259 587.838 159.866 587.838 Q158.27 587.838 157.217 586.717 Z" fill="#000000" fill-rule="evenodd" fill-opacity="1" /><path clip-path="url(#clip780)" d="M175.762 548.123 L175.762 545.949 Q184.117 545.949 188.43 541.499 Q189.619 541.499 189.823 541.77 Q190.026 542.042 190.026 543.299 L190.026 582.335 Q190.026 584.407 191.045 585.053 Q192.064 585.698 196.513 585.698 L198.721 585.698 L198.721 587.838 Q196.276 587.635 187.445 587.635 Q178.615 587.635 176.203 587.838 L176.203 585.698 L178.411 585.698 Q182.792 585.698 183.845 585.087 Q184.898 584.441 184.898 582.335 L184.898 546.289 Q181.264 548.123 175.762 548.123 Z" fill="#000000" fill-rule="evenodd" fill-opacity="1" /><path clip-path="url(#clip780)" d="M207.076 565.586 Q207.076 555.36 209.657 549.788 Q213.258 541.499 221.749 541.499 Q223.549 541.499 225.417 542.008 Q227.319 542.484 229.696 544.352 Q232.108 546.221 233.568 549.279 Q236.353 555.19 236.353 565.586 Q236.353 575.744 233.772 581.282 Q230.002 589.367 221.681 589.367 Q218.556 589.367 215.363 587.77 Q212.205 586.174 210.201 582.335 Q207.076 576.593 207.076 565.586 M212.85 564.736 Q212.85 575.234 213.597 579.413 Q214.446 583.931 216.756 585.902 Q219.099 587.838 221.681 587.838 Q224.466 587.838 226.775 585.766 Q229.119 583.66 229.832 579.141 Q230.613 574.691 230.579 564.736 Q230.579 555.054 229.9 551.181 Q228.983 546.663 226.537 544.862 Q224.126 543.027 221.681 543.027 Q220.764 543.027 219.779 543.299 Q218.828 543.571 217.435 544.352 Q216.043 545.134 214.956 547.07 Q213.903 549.007 213.393 551.929 Q212.85 555.7 212.85 564.736 Z" fill="#000000" fill-rule="evenodd" fill-opacity="1" /><path clip-path="url(#clip780)" d="M118.94 422.959 Q118.94 412.733 121.521 407.162 Q125.121 398.872 133.612 398.872 Q135.413 398.872 137.281 399.382 Q139.183 399.857 141.56 401.726 Q143.971 403.594 145.432 406.652 Q148.217 412.563 148.217 422.959 Q148.217 433.117 145.636 438.655 Q141.866 446.741 133.545 446.741 Q130.42 446.741 127.227 445.144 Q124.069 443.547 122.065 439.708 Q118.94 433.967 118.94 422.959 M124.714 422.11 Q124.714 432.608 125.461 436.786 Q126.31 441.305 128.62 443.275 Q130.963 445.212 133.545 445.212 Q136.33 445.212 138.639 443.139 Q140.983 441.033 141.696 436.515 Q142.477 432.064 142.443 422.11 Q142.443 412.428 141.764 408.555 Q140.847 404.036 138.401 402.236 Q135.99 400.401 133.545 400.401 Q132.628 400.401 131.643 400.673 Q130.692 400.945 129.299 401.726 Q127.907 402.507 126.82 404.444 Q125.767 406.38 125.257 409.302 Q124.714 413.073 124.714 422.11 Z" fill="#000000" fill-rule="evenodd" fill-opacity="1" /><path clip-path="url(#clip780)" d="M157.965 444.091 Q156.912 442.97 156.912 441.509 Q156.912 440.048 157.965 438.995 Q159.017 437.908 160.614 437.908 Q162.142 437.908 163.161 438.927 Q164.214 439.912 164.214 441.543 Q164.214 443.139 163.093 444.193 Q162.006 445.212 160.614 445.212 Q159.017 445.212 157.965 444.091 Z" fill="#000000" fill-rule="evenodd" fill-opacity="1" /><path clip-path="url(#clip780)" d="M176.509 405.497 L176.509 403.323 Q184.864 403.323 189.177 398.872 Q190.366 398.872 190.57 399.144 Q190.774 399.416 190.774 400.673 L190.774 439.708 Q190.774 441.781 191.792 442.426 Q192.811 443.072 197.261 443.072 L199.468 443.072 L199.468 445.212 Q197.023 445.008 188.192 445.008 Q179.362 445.008 176.95 445.212 L176.95 443.072 L179.158 443.072 Q183.539 443.072 184.592 442.46 Q185.645 441.815 185.645 439.708 L185.645 403.662 Q182.011 405.497 176.509 405.497 Z" fill="#000000" fill-rule="evenodd" fill-opacity="1" /><path clip-path="url(#clip780)" d="M208.571 434.001 Q208.571 431.928 209.691 431.147 Q210.812 430.332 212.001 430.332 Q213.597 430.332 214.514 431.351 Q215.465 432.336 215.465 433.729 Q215.465 435.122 214.514 436.141 Q213.597 437.126 212.001 437.126 Q211.22 437.126 210.812 436.99 Q211.729 440.184 214.514 442.494 Q217.333 444.804 221.035 444.804 Q225.688 444.804 228.473 440.286 Q230.138 437.364 230.138 430.739 Q230.138 424.896 228.881 421.974 Q226.945 417.524 222.971 417.524 Q217.333 417.524 214.005 422.382 Q213.597 422.993 213.122 423.027 Q212.443 423.027 212.273 422.654 Q212.137 422.246 212.137 421.193 L212.137 400.605 Q212.137 398.94 212.816 398.94 Q213.088 398.94 213.665 399.144 Q218.047 401.08 222.903 401.114 Q227.896 401.114 232.379 399.076 Q232.719 398.872 232.923 398.872 Q233.602 398.872 233.636 399.654 Q233.636 399.925 233.059 400.741 Q232.515 401.522 231.326 402.575 Q230.138 403.594 228.609 404.58 Q227.081 405.565 224.839 406.244 Q222.632 406.89 220.186 406.89 Q217.265 406.89 214.277 405.973 L214.277 419.528 Q217.877 415.995 223.107 415.995 Q228.677 415.995 232.515 420.479 Q236.353 424.964 236.353 431.215 Q236.353 437.772 231.802 442.256 Q227.285 446.741 221.171 446.741 Q215.601 446.741 212.069 442.766 Q208.571 438.791 208.571 434.001 Z" fill="#000000" fill-rule="evenodd" fill-opacity="1" /><path clip-path="url(#clip780)" d="M118.193 280.333 Q118.193 270.107 120.774 264.535 Q124.374 256.246 132.865 256.246 Q134.665 256.246 136.533 256.755 Q138.435 257.231 140.813 259.099 Q143.224 260.968 144.685 264.026 Q147.47 269.937 147.47 280.333 Q147.47 290.491 144.888 296.029 Q141.118 304.114 132.797 304.114 Q129.673 304.114 126.48 302.517 Q123.321 300.921 121.318 297.082 Q118.193 291.34 118.193 280.333 M123.967 279.483 Q123.967 289.981 124.714 294.16 Q125.563 298.678 127.873 300.649 Q130.216 302.585 132.797 302.585 Q135.582 302.585 137.892 300.513 Q140.235 298.407 140.949 293.888 Q141.73 289.438 141.696 279.483 Q141.696 269.801 141.017 265.928 Q140.1 261.41 137.654 259.609 Q135.243 257.774 132.797 257.774 Q131.88 257.774 130.895 258.046 Q129.944 258.318 128.552 259.099 Q127.159 259.881 126.072 261.817 Q125.02 263.754 124.51 266.676 Q123.967 270.447 123.967 279.483 Z" fill="#000000" fill-rule="evenodd" fill-opacity="1" /><path clip-path="url(#clip780)" d="M157.217 301.464 Q156.164 300.343 156.164 298.882 Q156.164 297.421 157.217 296.368 Q158.27 295.281 159.866 295.281 Q161.395 295.281 162.414 296.3 Q163.467 297.286 163.467 298.916 Q163.467 300.513 162.346 301.566 Q161.259 302.585 159.866 302.585 Q158.27 302.585 157.217 301.464 Z" fill="#000000" fill-rule="evenodd" fill-opacity="1" /><path clip-path="url(#clip780)" d="M173.044 302.585 Q173.044 301.328 173.146 300.955 Q173.282 300.581 173.826 300.003 L187.173 285.123 Q194.476 276.901 194.476 269.733 Q194.476 265.079 192.03 261.749 Q189.619 258.42 185.17 258.42 Q182.113 258.42 179.532 260.289 Q176.95 262.157 175.762 265.486 Q175.965 265.418 176.679 265.418 Q178.411 265.418 179.362 266.506 Q180.347 267.593 180.347 269.054 Q180.347 270.922 179.124 271.839 Q177.935 272.723 176.747 272.723 Q176.271 272.723 175.626 272.621 Q175.014 272.519 174.029 271.568 Q173.044 270.582 173.044 268.85 Q173.044 263.992 176.713 260.119 Q180.415 256.246 186.053 256.246 Q192.438 256.246 196.615 260.051 Q200.827 263.822 200.827 269.733 Q200.827 271.805 200.182 273.708 Q199.57 275.577 198.721 277.037 Q197.906 278.498 195.664 280.842 Q193.423 283.187 191.623 284.851 Q189.823 286.516 185.781 290.049 L178.411 297.218 L190.943 297.218 Q197.057 297.218 197.532 296.674 Q198.212 295.689 199.061 290.491 L200.827 290.491 L198.857 302.585 L173.044 302.585 Z" fill="#000000" fill-rule="evenodd" fill-opacity="1" /><path clip-path="url(#clip780)" d="M207.076 280.333 Q207.076 270.107 209.657 264.535 Q213.258 256.246 221.749 256.246 Q223.549 256.246 225.417 256.755 Q227.319 257.231 229.696 259.099 Q232.108 260.968 233.568 264.026 Q236.353 269.937 236.353 280.333 Q236.353 290.491 233.772 296.029 Q230.002 304.114 221.681 304.114 Q218.556 304.114 215.363 302.517 Q212.205 300.921 210.201 297.082 Q207.076 291.34 207.076 280.333 M212.85 279.483 Q212.85 289.981 213.597 294.16 Q214.446 298.678 216.756 300.649 Q219.099 302.585 221.681 302.585 Q224.466 302.585 226.775 300.513 Q229.119 298.407 229.832 293.888 Q230.613 289.438 230.579 279.483 Q230.579 269.801 229.9 265.928 Q228.983 261.41 226.537 259.609 Q224.126 257.774 221.681 257.774 Q220.764 257.774 219.779 258.046 Q218.828 258.318 217.435 259.099 Q216.043 259.881 214.956 261.817 Q213.903 263.754 213.393 266.676 Q212.85 270.447 212.85 279.483 Z" fill="#000000" fill-rule="evenodd" fill-opacity="1" /><path clip-path="url(#clip780)" d="M118.94 137.706 Q118.94 127.48 121.521 121.909 Q125.121 113.619 133.612 113.619 Q135.413 113.619 137.281 114.129 Q139.183 114.604 141.56 116.473 Q143.971 118.341 145.432 121.399 Q148.217 127.31 148.217 137.706 Q148.217 147.864 145.636 153.402 Q141.866 161.488 133.545 161.488 Q130.42 161.488 127.227 159.891 Q124.069 158.294 122.065 154.455 Q118.94 148.714 118.94 137.706 M124.714 136.857 Q124.714 147.355 125.461 151.533 Q126.31 156.052 128.62 158.022 Q130.963 159.959 133.545 159.959 Q136.33 159.959 138.639 157.886 Q140.983 155.78 141.696 151.262 Q142.477 146.811 142.443 136.857 Q142.443 127.175 141.764 123.302 Q140.847 118.783 138.401 116.983 Q135.99 115.148 133.545 115.148 Q132.628 115.148 131.643 115.42 Q130.692 115.692 129.299 116.473 Q127.907 117.254 126.82 119.191 Q125.767 121.127 125.257 124.049 Q124.714 127.82 124.714 136.857 Z" fill="#000000" fill-rule="evenodd" fill-opacity="1" /><path clip-path="url(#clip780)" d="M157.965 158.838 Q156.912 157.717 156.912 156.256 Q156.912 154.795 157.965 153.742 Q159.017 152.655 160.614 152.655 Q162.142 152.655 163.161 153.674 Q164.214 154.659 164.214 156.29 Q164.214 157.886 163.093 158.94 Q162.006 159.959 160.614 159.959 Q159.017 159.959 157.965 158.838 Z" fill="#000000" fill-rule="evenodd" fill-opacity="1" /><path clip-path="url(#clip780)" d="M173.792 159.959 Q173.792 158.702 173.894 158.328 Q174.029 157.954 174.573 157.377 L187.921 142.497 Q195.223 134.275 195.223 127.107 Q195.223 122.452 192.777 119.123 Q190.366 115.793 185.917 115.793 Q182.86 115.793 180.279 117.662 Q177.698 119.531 176.509 122.86 Q176.713 122.792 177.426 122.792 Q179.158 122.792 180.109 123.879 Q181.094 124.966 181.094 126.427 Q181.094 128.296 179.871 129.213 Q178.682 130.096 177.494 130.096 Q177.018 130.096 176.373 129.994 Q175.762 129.892 174.777 128.941 Q173.792 127.956 173.792 126.223 Q173.792 121.365 177.46 117.492 Q181.162 113.619 186.8 113.619 Q193.185 113.619 197.363 117.424 Q201.574 121.195 201.574 127.107 Q201.574 129.179 200.929 131.081 Q200.317 132.95 199.468 134.411 Q198.653 135.872 196.412 138.216 Q194.17 140.56 192.37 142.225 Q190.57 143.889 186.528 147.423 L179.158 154.591 L191.691 154.591 Q197.804 154.591 198.28 154.047 Q198.959 153.062 199.808 147.864 L201.574 147.864 L199.604 159.959 L173.792 159.959 Z" fill="#000000" fill-rule="evenodd" fill-opacity="1" /><path clip-path="url(#clip780)" d="M208.571 148.748 Q208.571 146.675 209.691 145.894 Q210.812 145.079 212.001 145.079 Q213.597 145.079 214.514 146.098 Q215.465 147.083 215.465 148.476 Q215.465 149.869 214.514 150.888 Q213.597 151.873 212.001 151.873 Q211.22 151.873 210.812 151.737 Q211.729 154.931 214.514 157.241 Q217.333 159.551 221.035 159.551 Q225.688 159.551 228.473 155.033 Q230.138 152.111 230.138 145.486 Q230.138 139.643 228.881 136.721 Q226.945 132.271 222.971 132.271 Q217.333 132.271 214.005 137.129 Q213.597 137.74 213.122 137.774 Q212.443 137.774 212.273 137.401 Q212.137 136.993 212.137 135.94 L212.137 115.352 Q212.137 113.687 212.816 113.687 Q213.088 113.687 213.665 113.891 Q218.047 115.827 222.903 115.861 Q227.896 115.861 232.379 113.823 Q232.719 113.619 232.923 113.619 Q233.602 113.619 233.636 114.401 Q233.636 114.672 233.059 115.488 Q232.515 116.269 231.326 117.322 Q230.138 118.341 228.609 119.327 Q227.081 120.312 224.839 120.991 Q222.632 121.637 220.186 121.637 Q217.265 121.637 214.277 120.72 L214.277 134.275 Q217.877 130.742 223.107 130.742 Q228.677 130.742 232.515 135.226 Q236.353 139.711 236.353 145.962 Q236.353 152.519 231.802 157.003 Q227.285 161.488 221.171 161.488 Q215.601 161.488 212.069 157.513 Q208.571 153.538 208.571 148.748 Z" fill="#000000" fill-rule="evenodd" fill-opacity="1" /><path clip-path="url(#clip780)" d="M94.2414 659.216 Q94.8386 659.216 95.2602 659.638 Q95.6818 660.06 95.6818 660.657 Q95.6818 661.676 94.7332 662.027 L60.2002 675.416 Q60.0597 675.486 59.7084 675.486 Q59.3571 675.486 59.2165 675.416 L24.6835 662.027 Q23.735 661.676 23.735 660.657 Q23.735 660.06 24.1565 659.638 Q24.5781 659.216 25.1753 659.216 Q25.5266 659.216 25.6671 659.286 L59.7084 672.534 L93.7496 659.286 Q93.8901 659.216 94.2414 659.216 Z" fill="#000000" fill-rule="evenodd" fill-opacity="1" /><path clip-path="url(#clip780)" d="M29.3558 588.466 Q29.9882 588.466 30.3395 588.712 Q30.6556 588.922 30.7259 589.168 Q30.761 589.414 30.7962 590.047 Q31.0421 595.072 34.4497 599.183 Q35.328 600.202 38.0681 602.768 Q40.8083 605.298 44.4618 608.671 Q48.1154 612.01 50.0827 613.942 L72.285 604.665 Q73.1633 604.279 73.5497 604.138 Q73.901 603.962 74.3577 603.611 Q74.8144 603.224 74.9549 602.943 Q75.0954 602.627 75.2711 601.959 Q75.4116 601.257 75.4467 600.554 Q75.4467 599.816 75.4819 598.481 Q75.4819 598.059 75.517 597.883 Q75.517 597.672 75.7278 597.426 Q75.9034 597.18 76.325 597.18 Q76.9573 597.18 77.3086 597.462 Q77.6248 597.707 77.6599 597.953 Q77.6951 598.164 77.6951 598.551 Q77.6951 599.464 77.5897 602.557 Q77.4843 605.649 77.4843 606.528 L77.6951 615.594 Q77.6951 616.683 76.8168 616.683 Q76.3601 616.683 76.1142 616.613 Q75.8332 616.507 75.7278 616.261 Q75.5872 616.015 75.5521 615.84 Q75.517 615.664 75.4819 615.242 Q75.3413 613.942 74.9549 612.958 Q74.5333 611.939 74.1118 611.518 Q73.6902 611.061 73.374 611.061 L72.3553 611.412 L55.1766 618.686 L62.2377 625.187 L70.0015 632.531 Q72.0742 634.464 73.2335 634.464 Q75.1657 634.464 75.4819 631.583 Q75.5521 630.704 76.2547 630.704 Q76.9222 630.704 77.2735 630.985 Q77.5897 631.231 77.6599 631.477 Q77.6951 631.688 77.6951 632.004 Q77.6951 633.304 77.5897 636.045 Q77.4843 638.751 77.4843 640.086 Q77.4843 641.211 77.5897 643.495 Q77.6951 645.779 77.6951 646.833 Q77.6951 647.255 77.4843 647.501 Q77.2735 647.747 77.0627 647.747 L76.8871 647.782 Q76.3952 647.782 76.1142 647.712 Q75.8332 647.606 75.6926 647.325 Q75.5521 647.009 75.5521 646.869 Q75.517 646.728 75.4819 646.201 Q75.3062 643.214 74.1469 640.684 Q72.9876 638.119 70.2826 635.624 Q70.1069 635.413 69.8961 635.167 Q69.6854 634.886 69.5097 634.675 L53.1741 619.494 L33.0796 627.998 Q32.1662 628.385 31.7798 628.736 Q31.3582 629.088 31.0772 630.177 Q30.7962 631.266 30.7962 633.375 Q30.7962 633.972 30.761 634.253 Q30.7259 634.534 30.5502 634.78 Q30.3746 635.026 29.9882 635.026 Q29.3207 635.026 29.0045 634.78 Q28.6532 634.499 28.6181 634.288 Q28.5478 634.042 28.5478 633.726 Q28.5478 632.848 28.6532 629.72 Q28.7586 626.593 28.7586 625.679 Q28.7586 624.168 28.6532 621.146 Q28.5478 618.089 28.5478 616.613 Q28.5478 615.524 29.4261 615.524 Q29.9882 615.524 30.3043 615.77 Q30.6205 616.015 30.6908 616.261 Q30.761 616.507 30.7962 616.964 Q30.9367 618.335 31.3934 619.389 Q31.8149 620.408 32.2365 620.83 Q32.6229 621.216 32.8688 621.216 L33.8174 620.865 L48.1154 614.821 L35.609 603.154 Q34.0633 601.784 33.0094 601.784 Q31.1123 601.784 30.7962 604.665 Q30.6556 605.544 29.9882 605.544 Q29.3207 605.544 29.0045 605.263 Q28.6532 604.981 28.6181 604.771 Q28.5478 604.525 28.5478 604.173 Q28.5478 602.873 28.6532 600.202 Q28.7586 597.497 28.7586 596.161 Q28.7586 595.037 28.6532 592.753 Q28.5478 590.469 28.5478 589.414 Q28.5478 588.993 28.7586 588.747 Q28.9343 588.501 29.145 588.501 L29.3558 588.466 Z" fill="#000000" fill-rule="evenodd" fill-opacity="1" /><path clip-path="url(#clip780)" d="M68.8785 581.362 L67.3047 581.362 Q67.3047 575.311 64.0832 572.187 Q64.0832 571.326 64.28 571.178 Q64.4767 571.03 65.3866 571.03 L93.6418 571.03 Q95.1419 571.03 95.6091 570.293 Q96.0764 569.555 96.0764 566.332 L96.0764 564.733 L97.6256 564.733 Q97.4781 566.504 97.4781 572.9 Q97.4781 579.295 97.6256 581.042 L96.0764 581.042 L96.0764 579.443 Q96.0764 576.27 95.6337 575.507 Q95.1665 574.745 93.6418 574.745 L67.5506 574.745 Q68.8785 577.377 68.8785 581.362 Z" fill="#000000" fill-rule="evenodd" fill-opacity="1" /><path clip-path="url(#clip780)" d="M29.3558 497.898 Q29.9882 497.898 30.3395 498.144 Q30.6556 498.355 30.7259 498.601 Q30.761 498.847 30.7962 499.479 Q31.0421 504.504 34.4497 508.616 Q35.328 509.635 38.0681 512.2 Q40.8083 514.73 44.4618 518.104 Q48.1154 521.442 50.0827 523.375 L72.285 514.098 Q73.1633 513.711 73.5497 513.571 Q73.901 513.395 74.3577 513.043 Q74.8144 512.657 74.9549 512.376 Q75.0954 512.06 75.2711 511.392 Q75.4116 510.689 75.4467 509.986 Q75.4467 509.248 75.4819 507.913 Q75.4819 507.491 75.517 507.316 Q75.517 507.105 75.7278 506.859 Q75.9034 506.613 76.325 506.613 Q76.9573 506.613 77.3086 506.894 Q77.6248 507.14 77.6599 507.386 Q77.6951 507.597 77.6951 507.983 Q77.6951 508.897 77.5897 511.989 Q77.4843 515.082 77.4843 515.96 L77.6951 525.026 Q77.6951 526.116 76.8168 526.116 Q76.3601 526.116 76.1142 526.045 Q75.8332 525.94 75.7278 525.694 Q75.5872 525.448 75.5521 525.272 Q75.517 525.097 75.4819 524.675 Q75.3413 523.375 74.9549 522.391 Q74.5333 521.372 74.1118 520.95 Q73.6902 520.493 73.374 520.493 L72.3553 520.845 L55.1766 528.119 L62.2377 534.62 L70.0015 541.964 Q72.0742 543.897 73.2335 543.897 Q75.1657 543.897 75.4819 541.015 Q75.5521 540.137 76.2547 540.137 Q76.9222 540.137 77.2735 540.418 Q77.5897 540.664 77.6599 540.91 Q77.6951 541.12 77.6951 541.437 Q77.6951 542.737 77.5897 545.478 Q77.4843 548.184 77.4843 549.519 Q77.4843 550.643 77.5897 552.928 Q77.6951 555.212 77.6951 556.266 Q77.6951 556.688 77.4843 556.934 Q77.2735 557.18 77.0627 557.18 L76.8871 557.215 Q76.3952 557.215 76.1142 557.144 Q75.8332 557.039 75.6926 556.758 Q75.5521 556.442 75.5521 556.301 Q75.517 556.16 75.4819 555.633 Q75.3062 552.646 74.1469 550.116 Q72.9876 547.551 70.2826 545.056 Q70.1069 544.845 69.8961 544.599 Q69.6854 544.318 69.5097 544.107 L53.1741 528.927 L33.0796 537.431 Q32.1662 537.817 31.7798 538.169 Q31.3582 538.52 31.0772 539.609 Q30.7962 540.699 30.7962 542.807 Q30.7962 543.405 30.761 543.686 Q30.7259 543.967 30.5502 544.213 Q30.3746 544.459 29.9882 544.459 Q29.3207 544.459 29.0045 544.213 Q28.6532 543.932 28.6181 543.721 Q28.5478 543.475 28.5478 543.159 Q28.5478 542.28 28.6532 539.153 Q28.7586 536.025 28.7586 535.111 Q28.7586 533.6 28.6532 530.578 Q28.5478 527.521 28.5478 526.045 Q28.5478 524.956 29.4261 524.956 Q29.9882 524.956 30.3043 525.202 Q30.6205 525.448 30.6908 525.694 Q30.761 525.94 30.7962 526.397 Q30.9367 527.767 31.3934 528.821 Q31.8149 529.84 32.2365 530.262 Q32.6229 530.649 32.8688 530.649 L33.8174 530.297 L48.1154 524.253 L35.609 512.587 Q34.0633 511.216 33.0094 511.216 Q31.1123 511.216 30.7962 514.098 Q30.6556 514.976 29.9882 514.976 Q29.3207 514.976 29.0045 514.695 Q28.6532 514.414 28.6181 514.203 Q28.5478 513.957 28.5478 513.606 Q28.5478 512.306 28.6532 509.635 Q28.7586 506.929 28.7586 505.594 Q28.7586 504.469 28.6532 502.185 Q28.5478 499.901 28.5478 498.847 Q28.5478 498.425 28.7586 498.179 Q28.9343 497.933 29.145 497.933 L29.3558 497.898 Z" fill="#000000" fill-rule="evenodd" fill-opacity="1" /><path clip-path="url(#clip780)" d="M89.6545 490.794 L88.1053 490.794 L64.4732 475.322 Q63.8584 474.928 63.883 474.313 Q63.883 473.748 64.1043 473.625 Q64.3256 473.502 65.1863 473.502 L88.1053 473.502 L88.1053 468.459 L89.6545 468.459 L89.6545 473.502 L94.0318 473.502 Q95.4826 473.502 95.9499 472.911 Q96.4171 472.296 96.4171 469.689 L96.4171 468.631 L97.9663 468.631 Q97.8188 470.697 97.8188 475.47 Q97.8188 480.217 97.9663 482.283 L96.4171 482.283 L96.4171 481.225 Q96.4171 478.618 95.9745 478.003 Q95.5072 477.388 94.0318 477.388 L89.6545 477.388 L89.6545 490.794 M88.1053 489.367 L88.1053 477.093 L69.3176 477.093 L88.1053 489.367 Z" fill="#000000" fill-rule="evenodd" fill-opacity="1" /><path clip-path="url(#clip780)" d="M29.3558 401.681 Q29.9882 401.681 30.3395 401.927 Q30.6556 402.138 30.7259 402.384 Q30.761 402.63 30.7962 403.262 Q31.0421 408.288 34.4497 412.399 Q35.328 413.418 38.0681 415.983 Q40.8083 418.513 44.4618 421.887 Q48.1154 425.225 50.0827 427.158 L72.285 417.881 Q73.1633 417.494 73.5497 417.354 Q73.901 417.178 74.3577 416.827 Q74.8144 416.44 74.9549 416.159 Q75.0954 415.843 75.2711 415.175 Q75.4116 414.472 75.4467 413.769 Q75.4467 413.031 75.4819 411.696 Q75.4819 411.274 75.517 411.099 Q75.517 410.888 75.7278 410.642 Q75.9034 410.396 76.325 410.396 Q76.9573 410.396 77.3086 410.677 Q77.6248 410.923 77.6599 411.169 Q77.6951 411.38 77.6951 411.766 Q77.6951 412.68 77.5897 415.772 Q77.4843 418.865 77.4843 419.743 L77.6951 428.809 Q77.6951 429.899 76.8168 429.899 Q76.3601 429.899 76.1142 429.828 Q75.8332 429.723 75.7278 429.477 Q75.5872 429.231 75.5521 429.055 Q75.517 428.88 75.4819 428.458 Q75.3413 427.158 74.9549 426.174 Q74.5333 425.155 74.1118 424.733 Q73.6902 424.276 73.374 424.276 L72.3553 424.628 L55.1766 431.902 L62.2377 438.403 L70.0015 445.747 Q72.0742 447.68 73.2335 447.68 Q75.1657 447.68 75.4819 444.798 Q75.5521 443.92 76.2547 443.92 Q76.9222 443.92 77.2735 444.201 Q77.5897 444.447 77.6599 444.693 Q77.6951 444.904 77.6951 445.22 Q77.6951 446.52 77.5897 449.261 Q77.4843 451.967 77.4843 453.302 Q77.4843 454.427 77.5897 456.711 Q77.6951 458.995 77.6951 460.049 Q77.6951 460.471 77.4843 460.717 Q77.2735 460.963 77.0627 460.963 L76.8871 460.998 Q76.3952 460.998 76.1142 460.927 Q75.8332 460.822 75.6926 460.541 Q75.5521 460.225 75.5521 460.084 Q75.517 459.944 75.4819 459.416 Q75.3062 456.43 74.1469 453.899 Q72.9876 451.334 70.2826 448.839 Q70.1069 448.628 69.8961 448.382 Q69.6854 448.101 69.5097 447.89 L53.1741 432.71 L33.0796 441.214 Q32.1662 441.6 31.7798 441.952 Q31.3582 442.303 31.0772 443.393 Q30.7962 444.482 30.7962 446.59 Q30.7962 447.188 30.761 447.469 Q30.7259 447.75 30.5502 447.996 Q30.3746 448.242 29.9882 448.242 Q29.3207 448.242 29.0045 447.996 Q28.6532 447.715 28.6181 447.504 Q28.5478 447.258 28.5478 446.942 Q28.5478 446.063 28.6532 442.936 Q28.7586 439.808 28.7586 438.895 Q28.7586 437.384 28.6532 434.362 Q28.5478 431.304 28.5478 429.828 Q28.5478 428.739 29.4261 428.739 Q29.9882 428.739 30.3043 428.985 Q30.6205 429.231 30.6908 429.477 Q30.761 429.723 30.7962 430.18 Q30.9367 431.55 31.3934 432.605 Q31.8149 433.624 32.2365 434.045 Q32.6229 434.432 32.8688 434.432 L33.8174 434.08 L48.1154 428.036 L35.609 416.37 Q34.0633 414.999 33.0094 414.999 Q31.1123 414.999 30.7962 417.881 Q30.6556 418.759 29.9882 418.759 Q29.3207 418.759 29.0045 418.478 Q28.6532 418.197 28.6181 417.986 Q28.5478 417.74 28.5478 417.389 Q28.5478 416.089 28.6532 413.418 Q28.7586 410.712 28.7586 409.377 Q28.7586 408.252 28.6532 405.968 Q28.5478 403.684 28.5478 402.63 Q28.5478 402.208 28.7586 401.962 Q28.9343 401.716 29.145 401.716 L29.3558 401.681 Z" fill="#000000" fill-rule="evenodd" fill-opacity="1" /><path clip-path="url(#clip780)" d="M89.5105 394.577 Q88.0105 394.577 87.4449 393.766 Q86.8547 392.954 86.8547 392.093 Q86.8547 390.937 87.5924 390.273 Q88.3056 389.584 89.3138 389.584 Q90.322 389.584 91.0598 390.273 Q91.7729 390.937 91.7729 392.093 Q91.7729 392.659 91.6745 392.954 Q93.9861 392.29 95.6583 390.273 Q97.3305 388.231 97.3305 385.55 Q97.3305 382.18 94.0599 380.163 Q91.9451 378.957 87.1498 378.957 Q82.9201 378.957 80.8052 379.868 Q77.5838 381.27 77.5838 384.148 Q77.5838 388.231 81.1003 390.642 Q81.543 390.937 81.5676 391.281 Q81.5676 391.773 81.2971 391.896 Q81.002 391.994 80.2396 391.994 L65.3374 391.994 Q64.1324 391.994 64.1324 391.502 Q64.1324 391.306 64.28 390.888 Q65.6817 387.714 65.7063 384.197 Q65.7063 380.581 64.2308 377.334 Q64.0832 377.088 64.0832 376.94 Q64.0832 376.448 64.6488 376.424 Q64.8456 376.424 65.4358 376.842 Q66.0014 377.236 66.7637 378.097 Q67.5014 378.957 68.2146 380.064 Q68.9277 381.171 69.4195 382.795 Q69.8868 384.394 69.8868 386.165 Q69.8868 388.28 69.2228 390.445 L79.0347 390.445 Q76.4772 387.837 76.4772 384.049 Q76.4772 380.015 79.7232 377.236 Q82.9693 374.456 87.494 374.456 Q92.2401 374.456 95.4862 377.752 Q98.7322 381.024 98.7322 385.451 Q98.7322 389.485 95.8551 392.044 Q92.9779 394.577 89.5105 394.577 Z" fill="#000000" fill-rule="evenodd" fill-opacity="1" /><path clip-path="url(#clip780)" d="M29.3558 307.651 Q29.9882 307.651 30.3395 307.897 Q30.6556 308.108 30.7259 308.354 Q30.761 308.6 30.7962 309.232 Q31.0421 314.257 34.4497 318.369 Q35.328 319.388 38.0681 321.953 Q40.8083 324.483 44.4618 327.856 Q48.1154 331.195 50.0827 333.127 L72.285 323.85 Q73.1633 323.464 73.5497 323.323 Q73.901 323.148 74.3577 322.796 Q74.8144 322.41 74.9549 322.129 Q75.0954 321.812 75.2711 321.145 Q75.4116 320.442 75.4467 319.739 Q75.4467 319.001 75.4819 317.666 Q75.4819 317.244 75.517 317.068 Q75.517 316.858 75.7278 316.612 Q75.9034 316.366 76.325 316.366 Q76.9573 316.366 77.3086 316.647 Q77.6248 316.893 77.6599 317.139 Q77.6951 317.35 77.6951 317.736 Q77.6951 318.65 77.5897 321.742 Q77.4843 324.834 77.4843 325.713 L77.6951 334.779 Q77.6951 335.868 76.8168 335.868 Q76.3601 335.868 76.1142 335.798 Q75.8332 335.693 75.7278 335.447 Q75.5872 335.201 75.5521 335.025 Q75.517 334.849 75.4819 334.428 Q75.3413 333.127 74.9549 332.144 Q74.5333 331.124 74.1118 330.703 Q73.6902 330.246 73.374 330.246 L72.3553 330.597 L55.1766 337.871 L62.2377 344.372 L70.0015 351.717 Q72.0742 353.649 73.2335 353.649 Q75.1657 353.649 75.4819 350.768 Q75.5521 349.889 76.2547 349.889 Q76.9222 349.889 77.2735 350.17 Q77.5897 350.416 77.6599 350.662 Q77.6951 350.873 77.6951 351.19 Q77.6951 352.49 77.5897 355.231 Q77.4843 357.936 77.4843 359.272 Q77.4843 360.396 77.5897 362.68 Q77.6951 364.964 77.6951 366.019 Q77.6951 366.44 77.4843 366.686 Q77.2735 366.932 77.0627 366.932 L76.8871 366.967 Q76.3952 366.967 76.1142 366.897 Q75.8332 366.792 75.6926 366.511 Q75.5521 366.194 75.5521 366.054 Q75.517 365.913 75.4819 365.386 Q75.3062 362.399 74.1469 359.869 Q72.9876 357.304 70.2826 354.809 Q70.1069 354.598 69.8961 354.352 Q69.6854 354.071 69.5097 353.86 L53.1741 338.68 L33.0796 347.184 Q32.1662 347.57 31.7798 347.921 Q31.3582 348.273 31.0772 349.362 Q30.7962 350.452 30.7962 352.56 Q30.7962 353.157 30.761 353.438 Q30.7259 353.72 30.5502 353.966 Q30.3746 354.212 29.9882 354.212 Q29.3207 354.212 29.0045 353.966 Q28.6532 353.684 28.6181 353.474 Q28.5478 353.228 28.5478 352.911 Q28.5478 352.033 28.6532 348.905 Q28.7586 345.778 28.7586 344.864 Q28.7586 343.353 28.6532 340.331 Q28.5478 337.274 28.5478 335.798 Q28.5478 334.709 29.4261 334.709 Q29.9882 334.709 30.3043 334.955 Q30.6205 335.201 30.6908 335.447 Q30.761 335.693 30.7962 336.15 Q30.9367 337.52 31.3934 338.574 Q31.8149 339.593 32.2365 340.015 Q32.6229 340.401 32.8688 340.401 L33.8174 340.05 L48.1154 334.006 L35.609 322.339 Q34.0633 320.969 33.0094 320.969 Q31.1123 320.969 30.7962 323.85 Q30.6556 324.729 29.9882 324.729 Q29.3207 324.729 29.0045 324.448 Q28.6532 324.167 28.6181 323.956 Q28.5478 323.71 28.5478 323.359 Q28.5478 322.058 28.6532 319.388 Q28.7586 316.682 28.7586 315.347 Q28.7586 314.222 28.6532 311.938 Q28.5478 309.654 28.5478 308.6 Q28.5478 308.178 28.7586 307.932 Q28.9343 307.686 29.145 307.686 L29.3558 307.651 Z" fill="#000000" fill-rule="evenodd" fill-opacity="1" /><path clip-path="url(#clip780)" d="M90.0269 300.547 Q84.3956 300.547 80.7561 293.29 Q78.6412 296.414 78.0264 296.98 Q75.5673 299.194 72.4934 299.194 Q68.9769 299.194 66.5424 296.537 Q64.0832 293.856 64.0832 290.068 Q64.0832 286.452 66.1735 283.722 Q68.2637 280.991 71.5836 280.991 Q76.2559 280.991 79.4035 287.092 Q81.9118 283.058 82.9693 282.098 Q85.6989 279.639 89.1662 279.639 Q93.1992 279.639 95.978 282.738 Q98.7322 285.837 98.7322 290.117 Q98.7322 294.299 96.2977 297.423 Q93.8632 300.547 90.0269 300.547 M90.0269 298.038 Q93.15 298.038 95.2403 295.701 Q97.3305 293.34 97.3305 290.068 Q97.3305 286.895 95.5108 284.534 Q93.691 282.148 90.986 282.148 Q89.9286 282.148 89.0187 282.517 Q88.1088 282.861 87.3957 283.574 Q86.6579 284.263 86.3383 284.706 Q85.994 285.124 85.4284 285.936 L81.5184 292.134 Q84.789 298.038 90.0269 298.038 M70.5261 296.98 Q72.9361 296.98 74.6083 294.447 L78.6412 288.199 Q75.7149 283.205 71.5836 283.205 Q68.9031 283.205 67.1325 285.247 Q65.3374 287.289 65.3374 290.117 Q65.3374 292.897 66.8129 294.939 Q68.2637 296.98 70.5261 296.98 Z" fill="#000000" fill-rule="evenodd" fill-opacity="1" /><path clip-path="url(#clip780)" d="M59.2165 255.995 Q59.3571 255.924 59.7084 255.924 Q60.0597 255.924 60.2002 255.995 L94.7332 269.383 Q95.6818 269.734 95.6818 270.718 Q95.6818 271.316 95.2602 271.737 Q94.8386 272.159 94.2414 272.159 Q93.8901 272.159 93.7496 272.089 L59.7084 258.876 L25.6671 272.089 Q25.5266 272.159 25.1753 272.159 Q24.5781 272.159 24.1565 271.737 Q23.735 271.316 23.735 270.718 Q23.735 269.734 24.6835 269.383 L59.2165 255.995 Z" fill="#000000" fill-rule="evenodd" fill-opacity="1" /><polyline clip-path="url(#clip783)" style="stroke:#000000; stroke-linecap:round; stroke-linejoin:round; stroke-width:8.00147; stroke-opacity:1; fill:none" stroke-dasharray="32, 20" points="301.518,849.327 334.486,849.327 367.453,849.326 400.42,849.309 433.387,849.169 466.354,848.519 499.321,846.435 532.288,841.303 565.255,830.944 598.222,813.054 631.189,785.769 664.156,748.076 697.123,699.893 730.09,641.874 763.057,575.159 796.024,501.307 828.991,422.47 861.958,341.693 894.925,263.139 927.892,192.054 960.859,134.348 993.826,95.7869 1026.79,80.8875 1059.76,91.7667 1092.73,127.322 1125.69,183.109 1158.66,252.095 1191.63,326.099 1224.6,397.484 1257.56,460.548 1290.53,512.274 1323.5,552.337 1356.46,582.559 1389.43,606.026 1422.4,626.134 1455.36,645.781 1488.33,666.891 1521.3,690.372 1554.27,716.434 1587.23,744.992 1620.2,775.839 "/>
<path clip-path="url(#clip783)" d="M301.518 849.327 L334.486 849.327 L367.453 849.327 L400.42 849.323 L433.387 849.276 L466.354 848.984 L499.321 847.841 L532.288 844.601 L565.255 837.349 L598.222 823.787 L631.189 801.776 L664.156 769.854 L697.123 727.468 L730.09 674.795 L763.057 612.819 L796.024 542.726 L828.991 466.369 L861.958 386.236 L894.925 305.846 L927.892 229.901 L960.859 164.056 L993.826 113.871 L1026.79 85.7339 L1059.76 82.8218 L1092.73 105.765 L1125.69 151.781 L1158.66 215.016 L1191.63 287.647 L1224.6 361.376 L1257.56 429.319 L1290.53 487.033 L1323.5 532.655 L1356.46 567.288 L1389.43 593.905 L1422.4 616.268 L1455.36 638.006 L1488.33 661.655 L1521.3 688.598 L1554.27 717.979 L1587.23 748.331 L1620.2 777.753 L1620.2 777.753 L1587.23 748.331 L1554.27 717.979 L1521.3 688.598 L1488.33 661.655 L1455.36 638.006 L1422.4 616.268 L1389.43 593.905 L1356.46 567.288 L1323.5 532.655 L1290.53 487.033 L1257.56 429.319 L1224.6 361.376 L1191.63 287.647 L1158.66 215.016 L1125.69 151.781 L1092.73 105.765 L1059.76 82.8218 L1026.79 85.7339 L993.826 113.871 L960.859 164.056 L927.892 229.901 L894.925 305.846 L861.958 386.236 L828.991 466.369 L796.024 542.726 L763.057 612.819 L730.09 674.795 L697.123 727.468 L664.156 769.854 L631.189 801.776 L598.222 823.787 L565.255 837.349 L532.288 844.601 L499.321 847.841 L466.354 848.984 L433.387 849.276 L400.42 849.323 L367.453 849.327 L334.486 849.327 L301.518 849.327  Z" fill="#dcb0f2" fill-rule="evenodd" fill-opacity="0.5"/>
<polyline clip-path="url(#clip783)" style="stroke:#dcb0f2; stroke-linecap:round; stroke-linejoin:round; stroke-width:12.0022; stroke-opacity:1; fill:none" points="301.518,849.327 334.486,849.327 367.453,849.327 400.42,849.323 433.387,849.276 466.354,848.984 499.321,847.841 532.288,844.601 565.255,837.349 598.222,823.787 631.189,801.776 664.156,769.854 697.123,727.468 730.09,674.795 763.057,612.819 796.024,542.726 828.991,466.369 861.958,386.236 894.925,305.846 927.892,229.901 960.859,164.056 993.826,113.871 1026.79,85.7339 1059.76,82.8218 1092.73,105.765 1125.69,151.781 1158.66,215.016 1191.63,287.647 1224.6,361.376 1257.56,429.319 1290.53,487.033 1323.5,532.655 1356.46,567.288 1389.43,593.905 1422.4,616.268 1455.36,638.006 1488.33,661.655 1521.3,688.598 1554.27,717.979 1587.23,748.331 1620.2,777.753 "/>
<path clip-path="url(#clip783)" d="M301.518 849.327 L334.486 849.327 L367.453 849.327 L400.42 849.323 L433.387 849.276 L466.354 848.984 L499.321 847.841 L532.288 844.601 L565.255 837.349 L598.222 823.787 L631.189 801.776 L664.156 769.854 L697.123 727.468 L730.09 674.795 L763.057 612.819 L796.024 542.726 L828.991 466.369 L861.958 386.236 L894.925 305.846 L927.892 229.901 L960.859 164.128 L993.826 114.474 L1026.79 86.5262 L1059.76 83.4879 L1092.73 106.417 L1125.69 152.395 L1158.66 215.426 L1191.63 287.467 L1224.6 361.916 L1257.56 430.812 L1290.53 488.066 L1323.5 535.002 L1356.46 569.882 L1389.43 599.402 L1422.4 625.163 L1455.36 649.889 L1488.33 674.027 L1521.3 697.777 L1554.27 720.498 L1587.23 740.975 L1620.2 759.746 L1620.2 759.746 L1587.23 740.975 L1554.27 720.498 L1521.3 697.777 L1488.33 674.027 L1455.36 649.889 L1422.4 625.163 L1389.43 599.402 L1356.46 569.882 L1323.5 535.002 L1290.53 488.066 L1257.56 430.812 L1224.6 361.916 L1191.63 287.467 L1158.66 215.426 L1125.69 152.395 L1092.73 106.417 L1059.76 83.4879 L1026.79 86.5262 L993.826 114.474 L960.859 164.128 L927.892 229.901 L894.925 305.846 L861.958 386.236 L828.991 466.369 L796.024 542.726 L763.057 612.819 L730.09 674.795 L697.123 727.468 L664.156 769.854 L631.189 801.776 L598.222 823.787 L565.255 837.349 L532.288 844.601 L499.321 847.841 L466.354 848.984 L433.387 849.276 L400.42 849.323 L367.453 849.327 L334.486 849.327 L301.518 849.327  Z" fill="#87c55f" fill-rule="evenodd" fill-opacity="0.5"/>
<polyline clip-path="url(#clip783)" style="stroke:#87c55f; stroke-linecap:round; stroke-linejoin:round; stroke-width:12.0022; stroke-opacity:1; fill:none" stroke-dasharray="48, 24, 6, 24" points="301.518,849.327 334.486,849.327 367.453,849.327 400.42,849.323 433.387,849.276 466.354,848.984 499.321,847.841 532.288,844.601 565.255,837.349 598.222,823.787 631.189,801.776 664.156,769.854 697.123,727.468 730.09,674.795 763.057,612.819 796.024,542.726 828.991,466.369 861.958,386.236 894.925,305.846 927.892,229.901 960.859,164.128 993.826,114.474 1026.79,86.5262 1059.76,83.4879 1092.73,106.417 1125.69,152.395 1158.66,215.426 1191.63,287.467 1224.6,361.916 1257.56,430.812 1290.53,488.066 1323.5,535.002 1356.46,569.882 1389.43,599.402 1422.4,625.163 1455.36,649.889 1488.33,674.027 1521.3,697.777 1554.27,720.498 1587.23,740.975 1620.2,759.746 "/>
<path clip-path="url(#clip783)" d="M301.518 849.327 L334.486 849.327 L367.453 849.327 L400.42 849.323 L433.387 849.276 L466.354 848.984 L499.321 847.841 L532.288 844.601 L565.255 837.349 L598.222 823.787 L631.189 801.776 L664.156 769.854 L697.123 727.468 L730.09 674.795 L763.057 612.836 L796.024 543.287 L828.991 468.799 L861.958 390.011 L894.925 308.228 L927.892 228.874 L960.859 165.091 L993.826 111.418 L1026.79 79.0662 L1059.76 70.6142 L1092.73 89.6427 L1125.69 129.926 L1158.66 185.727 L1191.63 252.737 L1224.6 325.068 L1257.56 398.625 L1290.53 470.574 L1323.5 539.244 L1356.46 603.448 L1389.43 662.335 L1422.4 710.573 L1455.36 733.358 L1488.33 732.315 L1521.3 716.993 L1554.27 700.137 L1587.23 689.664 L1620.2 689.583 L1620.2 689.583 L1587.23 689.664 L1554.27 700.137 L1521.3 716.993 L1488.33 732.315 L1455.36 733.358 L1422.4 710.573 L1389.43 662.335 L1356.46 603.448 L1323.5 539.244 L1290.53 470.574 L1257.56 398.625 L1224.6 325.068 L1191.63 252.737 L1158.66 185.727 L1125.69 129.926 L1092.73 89.6427 L1059.76 70.6142 L1026.79 79.0662 L993.826 111.418 L960.859 165.091 L927.892 228.874 L894.925 308.228 L861.958 390.011 L828.991 468.799 L796.024 543.287 L763.057 612.836 L730.09 674.795 L697.123 727.468 L664.156 769.854 L631.189 801.776 L598.222 823.787 L565.255 837.349 L532.288 844.601 L499.321 847.841 L466.354 848.984 L433.387 849.276 L400.42 849.323 L367.453 849.327 L334.486 849.327 L301.518 849.327  Z" fill="#f89c74" fill-rule="evenodd" fill-opacity="0.5"/>
<polyline clip-path="url(#clip783)" style="stroke:#f89c74; stroke-linecap:round; stroke-linejoin:round; stroke-width:12.0022; stroke-opacity:1; fill:none" stroke-dasharray="6, 12" points="301.518,849.327 334.486,849.327 367.453,849.327 400.42,849.323 433.387,849.276 466.354,848.984 499.321,847.841 532.288,844.601 565.255,837.349 598.222,823.787 631.189,801.776 664.156,769.854 697.123,727.468 730.09,674.795 763.057,612.836 796.024,543.287 828.991,468.799 861.958,390.011 894.925,308.228 927.892,228.874 960.859,165.091 993.826,111.418 1026.79,79.0662 1059.76,70.6142 1092.73,89.6427 1125.69,129.926 1158.66,185.727 1191.63,252.737 1224.6,325.068 1257.56,398.625 1290.53,470.574 1323.5,539.244 1356.46,603.448 1389.43,662.335 1422.4,710.573 1455.36,733.358 1488.33,732.315 1521.3,716.993 1554.27,700.137 1587.23,689.664 1620.2,689.583 "/>
<path clip-path="url(#clip783)" d="M301.518 849.327 L334.486 849.327 L367.453 849.327 L400.42 849.323 L433.387 849.279 L466.354 848.998 L499.321 847.873 L532.288 844.676 L565.255 837.512 L598.222 824.121 L631.189 802.466 L664.156 771.328 L697.123 730.649 L730.09 681.169 L763.057 624.032 L796.024 560.856 L828.991 493.412 L861.958 423.486 L894.925 353.554 L927.892 287.211 L960.859 229.248 L993.826 185.314 L1026.79 160.17 L1059.76 157.409 L1092.73 177.611 L1125.69 218.308 L1158.66 274.469 L1191.63 339.661 L1224.6 407.764 L1257.56 474.002 L1290.53 535.493 L1323.5 591.142 L1356.46 641.058 L1389.43 685.839 L1422.4 725.887 L1455.36 761.102 L1488.33 790.872 L1521.3 814.439 L1554.27 831.385 L1587.23 842.015 L1620.2 847.421 L1620.2 847.421 L1587.23 842.015 L1554.27 831.385 L1521.3 814.439 L1488.33 790.872 L1455.36 761.102 L1422.4 725.887 L1389.43 685.839 L1356.46 641.058 L1323.5 591.142 L1290.53 535.493 L1257.56 474.002 L1224.6 407.764 L1191.63 339.661 L1158.66 274.469 L1125.69 218.308 L1092.73 177.611 L1059.76 157.409 L1026.79 160.17 L993.826 185.314 L960.859 229.248 L927.892 287.211 L894.925 353.554 L861.958 423.486 L828.991 493.412 L796.024 560.856 L763.057 624.032 L730.09 681.169 L697.123 730.649 L664.156 771.328 L631.189 802.466 L598.222 824.121 L565.255 837.512 L532.288 844.676 L499.321 847.873 L466.354 848.998 L433.387 849.279 L400.42 849.323 L367.453 849.327 L334.486 849.327 L301.518 849.327  Z" fill="#f6cf71" fill-rule="evenodd" fill-opacity="0.5"/>
<polyline clip-path="url(#clip783)" style="stroke:#f6cf71; stroke-linecap:round; stroke-linejoin:round; stroke-width:12.0022; stroke-opacity:1; fill:none" stroke-dasharray="48, 30" points="301.518,849.327 334.486,849.327 367.453,849.327 400.42,849.323 433.387,849.279 466.354,848.998 499.321,847.873 532.288,844.676 565.255,837.512 598.222,824.121 631.189,802.466 664.156,771.328 697.123,730.649 730.09,681.169 763.057,624.032 796.024,560.856 828.991,493.412 861.958,423.486 894.925,353.554 927.892,287.211 960.859,229.248 993.826,185.314 1026.79,160.17 1059.76,157.409 1092.73,177.611 1125.69,218.308 1158.66,274.469 1191.63,339.661 1224.6,407.764 1257.56,474.002 1290.53,535.493 1323.5,591.142 1356.46,641.058 1389.43,685.839 1422.4,725.887 1455.36,761.102 1488.33,790.872 1521.3,814.439 1554.27,831.385 1587.23,842.015 1620.2,847.421 "/>
<path clip-path="url(#clip783)" d="M301.518 849.327 L334.486 849.327 L367.453 849.327 L400.42 849.323 L433.387 849.276 L466.354 848.984 L499.321 847.846 L532.288 844.638 L565.255 837.524 L598.222 824.43 L631.189 803.686 L664.156 774.687 L697.123 738.083 L730.09 695.47 L763.057 649.032 L796.024 600.568 L828.991 551.306 L861.958 501.786 L894.925 452.545 L927.892 404.525 L960.859 359.877 L993.826 321.909 L1026.79 294.966 L1059.76 283.441 L1092.73 290.606 L1125.69 317.477 L1158.66 362.264 L1191.63 420.785 L1224.6 487 L1257.56 555.005 L1290.53 620.045 L1323.5 678.7 L1356.46 729.358 L1389.43 771.42 L1422.4 804.763 L1455.36 829.121 L1488.33 844.07 L1521.3 849.316 L1554.27 845.367 L1587.23 834.181 L1620.2 819.388 L1620.2 819.388 L1587.23 834.181 L1554.27 845.367 L1521.3 849.316 L1488.33 844.07 L1455.36 829.121 L1422.4 804.763 L1389.43 771.42 L1356.46 729.358 L1323.5 678.7 L1290.53 620.045 L1257.56 555.005 L1224.6 487 L1191.63 420.785 L1158.66 362.264 L1125.69 317.477 L1092.73 290.606 L1059.76 283.441 L1026.79 294.966 L993.826 321.909 L960.859 359.877 L927.892 404.525 L894.925 452.545 L861.958 501.786 L828.991 551.306 L796.024 600.568 L763.057 649.032 L730.09 695.47 L697.123 738.083 L664.156 774.687 L631.189 803.686 L598.222 824.43 L565.255 837.524 L532.288 844.638 L499.321 847.846 L466.354 848.984 L433.387 849.276 L400.42 849.323 L367.453 849.327 L334.486 849.327 L301.518 849.327  Z" fill="#66c5cc" fill-rule="evenodd" fill-opacity="0.5"/>
<polyline clip-path="url(#clip783)" style="stroke:#66c5cc; stroke-linecap:round; stroke-linejoin:round; stroke-width:12.0022; stroke-opacity:1; fill:none" points="301.518,849.327 334.486,849.327 367.453,849.327 400.42,849.323 433.387,849.276 466.354,848.984 499.321,847.846 532.288,844.638 565.255,837.524 598.222,824.43 631.189,803.686 664.156,774.687 697.123,738.083 730.09,695.47 763.057,649.032 796.024,600.568 828.991,551.306 861.958,501.786 894.925,452.545 927.892,404.525 960.859,359.877 993.826,321.909 1026.79,294.966 1059.76,283.441 1092.73,290.606 1125.69,317.477 1158.66,362.264 1191.63,420.785 1224.6,487 1257.56,555.005 1290.53,620.045 1323.5,678.7 1356.46,729.358 1389.43,771.42 1422.4,804.763 1455.36,829.121 1488.33,844.07 1521.3,849.316 1554.27,845.367 1587.23,834.181 1620.2,819.388 "/>
</svg>
