<?xml version="1.0" encoding="utf-8"?>
<svg xmlns="http://www.w3.org/2000/svg" xmlns:xlink="http://www.w3.org/1999/xlink" width="426.75" height="263.5" viewBox="0 0 1707 1054">
<defs>
  <clipPath id="clip980">
    <rect x="0" y="0" width="1707" height="1054"/>
  </clipPath>
</defs>
<path clip-path="url(#clip980)" d="M0 1054 L1707 1054 L1707 0 L0 0  Z" fill="#ffffff" fill-rule="evenodd" fill-opacity="1"/>
<defs>
  <clipPath id="clip981">
    <rect x="341" y="0" width="1196" height="1054"/>
  </clipPath>
</defs>
<path clip-path="url(#clip980)" d="M262.739 857.047 L1659.76 857.047 L1659.76 47.2528 L262.739 47.2528  Z" fill="#ffffff" fill-rule="evenodd" fill-opacity="1"/>
<defs>
  <clipPath id="clip982">
    <rect x="262" y="47" width="1398" height="811"/>
  </clipPath>
</defs>
<polyline clip-path="url(#clip982)" style="stroke:#000000; stroke-linecap:round; stroke-linejoin:round; stroke-width:2.00037; stroke-opacity:0.1; fill:none" points="263.946,857.047 263.946,47.2528 "/>
<polyline clip-path="url(#clip982)" style="stroke:#000000; stroke-linecap:round; stroke-linejoin:round; stroke-width:2.00037; stroke-opacity:0.1; fill:none" points="716.244,857.047 716.244,47.2528 "/>
<polyline clip-path="url(#clip982)" style="stroke:#000000; stroke-linecap:round; stroke-linejoin:round; stroke-width:2.00037; stroke-opacity:0.1; fill:none" points="1168.54,857.047 1168.54,47.2528 "/>
<polyline clip-path="url(#clip982)" style="stroke:#000000; stroke-linecap:round; stroke-linejoin:round; stroke-width:2.00037; stroke-opacity:0.1; fill:none" points="1620.84,857.047 1620.84,47.2528 "/>
<polyline clip-path="url(#clip980)" style="stroke:#000000; stroke-linecap:round; stroke-linejoin:round; stroke-width:4.00074; stroke-opacity:1; fill:none" points="262.739,857.047 1659.76,857.047 "/>
<polyline clip-path="url(#clip980)" style="stroke:#000000; stroke-linecap:round; stroke-linejoin:round; stroke-width:4.00074; stroke-opacity:1; fill:none" points="262.739,47.2528 1659.76,47.2528 "/>
<polyline clip-path="url(#clip980)" style="stroke:#000000; stroke-linecap:round; stroke-linejoin:round; stroke-width:4.00074; stroke-opacity:1; fill:none" points="263.946,857.047 263.946,838.146 "/>
<polyline clip-path="url(#clip980)" style="stroke:#000000; stroke-linecap:round; stroke-linejoin:round; stroke-width:4.00074; stroke-opacity:1; fill:none" points="716.244,857.047 716.244,838.146 "/>
<polyline clip-path="url(#clip980)" style="stroke:#000000; stroke-linecap:round; stroke-linejoin:round; stroke-width:4.00074; stroke-opacity:1; fill:none" points="1168.54,857.047 1168.54,838.146 "/>
<polyline clip-path="url(#clip980)" style="stroke:#000000; stroke-linecap:round; stroke-linejoin:round; stroke-width:4.00074; stroke-opacity:1; fill:none" points="1620.84,857.047 1620.84,838.146 "/>
<path clip-path="url(#clip980)" d="M221.756 911.94 L221.756 909.765 Q230.112 909.765 234.425 905.315 Q235.614 905.315 235.817 905.587 Q236.021 905.858 236.021 907.115 L236.021 946.151 Q236.021 948.223 237.04 948.869 Q238.059 949.514 242.508 949.514 L244.716 949.514 L244.716 951.654 Q242.271 951.451 233.44 951.451 Q224.609 951.451 222.198 951.654 L222.198 949.514 L224.406 949.514 Q228.787 949.514 229.84 948.903 Q230.893 948.257 230.893 946.151 L230.893 910.105 Q227.259 911.94 221.756 911.94 Z" fill="#000000" fill-rule="evenodd" fill-opacity="1" /><path clip-path="url(#clip980)" d="M253.071 929.402 Q253.071 919.176 255.652 913.604 Q259.253 905.315 267.743 905.315 Q269.544 905.315 271.412 905.824 Q273.314 906.3 275.691 908.168 Q278.102 910.037 279.563 913.095 Q282.348 919.006 282.348 929.402 Q282.348 939.56 279.767 945.098 Q275.997 953.183 267.676 953.183 Q264.551 953.183 261.358 951.586 Q258.2 949.99 256.196 946.151 Q253.071 940.409 253.071 929.402 M258.845 928.553 Q258.845 939.05 259.592 943.229 Q260.441 947.747 262.751 949.718 Q265.094 951.654 267.676 951.654 Q270.461 951.654 272.77 949.582 Q275.114 947.476 275.827 942.957 Q276.608 938.507 276.574 928.553 Q276.574 918.87 275.895 914.997 Q274.978 910.479 272.532 908.678 Q270.121 906.844 267.676 906.844 Q266.759 906.844 265.774 907.115 Q264.823 907.387 263.43 908.168 Q262.038 908.95 260.951 910.886 Q259.898 912.823 259.388 915.745 Q258.845 919.516 258.845 928.553 Z" fill="#000000" fill-rule="evenodd" fill-opacity="1" /><path clip-path="url(#clip980)" d="M282.348 895.878 Q282.348 887.569 284.445 883.042 Q287.37 876.307 294.269 876.307 Q295.732 876.307 297.25 876.721 Q298.795 877.108 300.727 878.626 Q302.686 880.144 303.873 882.628 Q306.135 887.431 306.135 895.878 Q306.135 904.131 304.038 908.631 Q300.975 915.2 294.214 915.2 Q291.675 915.2 289.081 913.903 Q286.515 912.606 284.887 909.486 Q282.348 904.821 282.348 895.878 M287.039 895.188 Q287.039 903.717 287.646 907.113 Q288.336 910.784 290.213 912.385 Q292.117 913.958 294.214 913.958 Q296.477 913.958 298.353 912.274 Q300.257 910.563 300.837 906.892 Q301.472 903.276 301.444 895.188 Q301.444 887.321 300.892 884.174 Q300.147 880.503 298.16 879.04 Q296.201 877.549 294.214 877.549 Q293.469 877.549 292.669 877.77 Q291.896 877.991 290.765 878.626 Q289.633 879.261 288.75 880.834 Q287.895 882.408 287.481 884.781 Q287.039 887.845 287.039 895.188 Z" fill="#000000" fill-rule="evenodd" fill-opacity="1" /><path clip-path="url(#clip980)" d="M676.621 911.94 L676.621 909.765 Q684.976 909.765 689.29 905.315 Q690.478 905.315 690.682 905.587 Q690.886 905.858 690.886 907.115 L690.886 946.151 Q690.886 948.223 691.905 948.869 Q692.924 949.514 697.373 949.514 L699.581 949.514 L699.581 951.654 Q697.135 951.451 688.305 951.451 Q679.474 951.451 677.063 951.654 L677.063 949.514 L679.27 949.514 Q683.652 949.514 684.705 948.903 Q685.757 948.257 685.757 946.151 L685.757 910.105 Q682.123 911.94 676.621 911.94 Z" fill="#000000" fill-rule="evenodd" fill-opacity="1" /><path clip-path="url(#clip980)" d="M707.936 929.402 Q707.936 919.176 710.517 913.604 Q714.117 905.315 722.608 905.315 Q724.408 905.315 726.276 905.824 Q728.178 906.3 730.556 908.168 Q732.967 910.037 734.428 913.095 Q737.213 919.006 737.213 929.402 Q737.213 939.56 734.631 945.098 Q730.861 953.183 722.54 953.183 Q719.416 953.183 716.223 951.586 Q713.064 949.99 711.061 946.151 Q707.936 940.409 707.936 929.402 M713.71 928.553 Q713.71 939.05 714.457 943.229 Q715.306 947.747 717.616 949.718 Q719.959 951.654 722.54 951.654 Q725.325 951.654 727.635 949.582 Q729.978 947.476 730.692 942.957 Q731.473 938.507 731.439 928.553 Q731.439 918.87 730.76 914.997 Q729.843 910.479 727.397 908.678 Q724.986 906.844 722.54 906.844 Q721.623 906.844 720.638 907.115 Q719.687 907.387 718.295 908.168 Q716.902 908.95 715.815 910.886 Q714.763 912.823 714.253 915.745 Q713.71 919.516 713.71 928.553 Z" fill="#000000" fill-rule="evenodd" fill-opacity="1" /><path clip-path="url(#clip980)" d="M737.213 881.69 L737.213 879.923 Q744.001 879.923 747.506 876.307 Q748.472 876.307 748.637 876.528 Q748.803 876.749 748.803 877.77 L748.803 909.486 Q748.803 911.17 749.631 911.695 Q750.459 912.219 754.074 912.219 L755.867 912.219 L755.867 913.958 Q753.88 913.793 746.706 913.793 Q739.531 913.793 737.571 913.958 L737.571 912.219 L739.365 912.219 Q742.925 912.219 743.78 911.722 Q744.636 911.198 744.636 909.486 L744.636 880.199 Q741.683 881.69 737.213 881.69 Z" fill="#000000" fill-rule="evenodd" fill-opacity="1" /><path clip-path="url(#clip980)" d="M1126.96 911.94 L1126.96 909.765 Q1135.32 909.765 1139.63 905.315 Q1140.82 905.315 1141.02 905.587 Q1141.23 905.858 1141.23 907.115 L1141.23 946.151 Q1141.23 948.223 1142.24 948.869 Q1143.26 949.514 1147.71 949.514 L1149.92 949.514 L1149.92 951.654 Q1147.47 951.451 1138.64 951.451 Q1129.81 951.451 1127.4 951.654 L1127.4 949.514 L1129.61 949.514 Q1133.99 949.514 1135.04 948.903 Q1136.1 948.257 1136.1 946.151 L1136.1 910.105 Q1132.46 911.94 1126.96 911.94 Z" fill="#000000" fill-rule="evenodd" fill-opacity="1" /><path clip-path="url(#clip980)" d="M1158.27 929.402 Q1158.27 919.176 1160.86 913.604 Q1164.46 905.315 1172.95 905.315 Q1174.75 905.315 1176.62 905.824 Q1178.52 906.3 1180.89 908.168 Q1183.31 910.037 1184.77 913.095 Q1187.55 919.006 1187.55 929.402 Q1187.55 939.56 1184.97 945.098 Q1181.2 953.183 1172.88 953.183 Q1169.75 953.183 1166.56 951.586 Q1163.4 949.99 1161.4 946.151 Q1158.27 940.409 1158.27 929.402 M1164.05 928.553 Q1164.05 939.05 1164.8 943.229 Q1165.65 947.747 1167.95 949.718 Q1170.3 951.654 1172.88 951.654 Q1175.66 951.654 1177.97 949.582 Q1180.32 947.476 1181.03 942.957 Q1181.81 938.507 1181.78 928.553 Q1181.78 918.87 1181.1 914.997 Q1180.18 910.479 1177.74 908.678 Q1175.32 906.844 1172.88 906.844 Q1171.96 906.844 1170.98 907.115 Q1170.03 907.387 1168.63 908.168 Q1167.24 908.95 1166.15 910.886 Q1165.1 912.823 1164.59 915.745 Q1164.05 919.516 1164.05 928.553 Z" fill="#000000" fill-rule="evenodd" fill-opacity="1" /><path clip-path="url(#clip980)" d="M1187.55 913.958 Q1187.55 912.937 1187.63 912.633 Q1187.74 912.33 1188.19 911.86 L1199.03 899.77 Q1204.96 893.09 1204.96 887.266 Q1204.96 883.484 1202.98 880.779 Q1201.02 878.074 1197.4 878.074 Q1194.92 878.074 1192.82 879.592 Q1190.73 881.11 1189.76 883.815 Q1189.92 883.76 1190.5 883.76 Q1191.91 883.76 1192.68 884.643 Q1193.48 885.527 1193.48 886.714 Q1193.48 888.232 1192.49 888.977 Q1191.53 889.695 1190.56 889.695 Q1190.17 889.695 1189.65 889.612 Q1189.15 889.529 1188.35 888.756 Q1187.55 887.956 1187.55 886.548 Q1187.55 882.601 1190.53 879.454 Q1193.54 876.307 1198.12 876.307 Q1203.31 876.307 1206.7 879.399 Q1210.12 882.463 1210.12 887.266 Q1210.12 888.95 1209.6 890.495 Q1209.1 892.013 1208.41 893.2 Q1207.75 894.387 1205.93 896.292 Q1204.11 898.197 1202.65 899.549 Q1201.18 900.902 1197.9 903.773 L1191.91 909.597 L1202.09 909.597 Q1207.06 909.597 1207.45 909.155 Q1208 908.355 1208.69 904.131 L1210.12 904.131 L1208.52 913.958 L1187.55 913.958 Z" fill="#000000" fill-rule="evenodd" fill-opacity="1" /><path clip-path="url(#clip980)" d="M1578.82 911.94 L1578.82 909.765 Q1587.17 909.765 1591.49 905.315 Q1592.67 905.315 1592.88 905.587 Q1593.08 905.858 1593.08 907.115 L1593.08 946.151 Q1593.08 948.223 1594.1 948.869 Q1595.12 949.514 1599.57 949.514 L1601.78 949.514 L1601.78 951.654 Q1599.33 951.451 1590.5 951.451 Q1581.67 951.451 1579.26 951.654 L1579.26 949.514 L1581.47 949.514 Q1585.85 949.514 1586.9 948.903 Q1587.95 948.257 1587.95 946.151 L1587.95 910.105 Q1584.32 911.94 1578.82 911.94 Z" fill="#000000" fill-rule="evenodd" fill-opacity="1" /><path clip-path="url(#clip980)" d="M1610.13 929.402 Q1610.13 919.176 1612.71 913.604 Q1616.31 905.315 1624.8 905.315 Q1626.6 905.315 1628.47 905.824 Q1630.37 906.3 1632.75 908.168 Q1635.16 910.037 1636.62 913.095 Q1639.41 919.006 1639.41 929.402 Q1639.41 939.56 1636.83 945.098 Q1633.06 953.183 1624.74 953.183 Q1621.61 953.183 1618.42 951.586 Q1615.26 949.99 1613.26 946.151 Q1610.13 940.409 1610.13 929.402 M1615.91 928.553 Q1615.91 939.05 1616.65 943.229 Q1617.5 947.747 1619.81 949.718 Q1622.15 951.654 1624.74 951.654 Q1627.52 951.654 1629.83 949.582 Q1632.17 947.476 1632.89 942.957 Q1633.67 938.507 1633.63 928.553 Q1633.63 918.87 1632.96 914.997 Q1632.04 910.479 1629.59 908.678 Q1627.18 906.844 1624.74 906.844 Q1623.82 906.844 1622.83 907.115 Q1621.88 907.387 1620.49 908.168 Q1619.1 908.95 1618.01 910.886 Q1616.96 912.823 1616.45 915.745 Q1615.91 919.516 1615.91 928.553 Z" fill="#000000" fill-rule="evenodd" fill-opacity="1" /><path clip-path="url(#clip980)" d="M1639.41 906.34 Q1639.41 904.656 1640.37 903.855 Q1641.34 903.055 1642.58 903.055 Q1643.88 903.055 1644.79 903.911 Q1645.73 904.739 1645.73 906.202 Q1645.73 907.775 1644.62 908.658 Q1643.55 909.542 1642 909.321 Q1643.35 911.584 1645.84 912.606 Q1648.35 913.627 1650.67 913.627 Q1653.1 913.627 1655.06 911.529 Q1657.04 909.431 1657.04 904.297 Q1657.04 899.936 1655.33 897.424 Q1653.65 894.912 1650.31 894.912 L1647.83 894.912 Q1646.97 894.912 1646.72 894.829 Q1646.47 894.746 1646.47 894.277 Q1646.47 893.725 1647.33 893.614 Q1648.18 893.614 1649.54 893.449 Q1652.82 893.338 1654.56 890.495 Q1656.13 887.845 1656.13 884.064 Q1656.13 880.613 1654.48 879.178 Q1652.85 877.715 1650.72 877.715 Q1648.74 877.715 1646.56 878.543 Q1644.38 879.371 1643.19 881.221 Q1646.69 881.221 1646.69 884.064 Q1646.69 885.306 1645.89 886.134 Q1645.12 886.934 1643.82 886.934 Q1642.58 886.934 1641.75 886.162 Q1640.93 885.361 1640.93 884.009 Q1640.93 880.779 1643.8 878.543 Q1646.69 876.307 1650.94 876.307 Q1655.14 876.307 1658.23 878.515 Q1661.35 880.724 1661.35 884.119 Q1661.35 887.459 1659.14 890.192 Q1656.93 892.924 1653.43 894.056 Q1657.73 894.912 1660.3 897.838 Q1662.86 900.736 1662.86 904.297 Q1662.86 908.714 1659.39 911.971 Q1655.91 915.2 1650.83 915.2 Q1646.14 915.2 1642.78 912.661 Q1639.41 910.121 1639.41 906.34 Z" fill="#000000" fill-rule="evenodd" fill-opacity="1" /><path clip-path="url(#clip980)" d="M806.467 1015.79 Q806.467 1004.19 813.878 996.11 Q821.325 987.993 831.662 987.993 Q842.074 987.993 849.484 996.11 Q856.931 1004.23 856.931 1015.79 Q856.931 1027.24 849.484 1035.21 Q842.037 1043.18 831.662 1043.18 Q821.436 1043.18 813.952 1035.25 Q806.467 1027.32 806.467 1015.79 M814.285 1014.72 Q814.285 1021.76 815.953 1027.17 Q817.62 1032.54 820.288 1035.47 Q822.992 1038.4 825.882 1039.81 Q828.772 1041.21 831.737 1041.21 Q834.627 1041.21 837.442 1039.84 Q840.295 1038.47 843 1035.58 Q845.705 1032.69 847.409 1027.28 Q849.114 1021.87 849.114 1014.72 Q849.114 1009.16 847.928 1004.71 Q846.742 1000.22 844.89 997.518 Q843.037 994.813 840.629 993.034 Q838.258 991.255 835.997 990.588 Q833.774 989.884 831.662 989.884 Q828.995 989.884 826.216 991.07 Q823.437 992.256 820.621 994.887 Q817.842 997.481 816.064 1002.63 Q814.285 1007.75 814.285 1014.72 Z" fill="#000000" fill-rule="evenodd" fill-opacity="1" /><path clip-path="url(#clip980)" d="M862.6 1011.16 L862.6 1008.79 Q866.009 1009.01 869.974 1009.01 Q871.419 1009.01 878.236 1008.79 L878.236 1011.16 Q873.901 1011.16 873.901 1013.12 Q873.901 1013.42 874.346 1014.42 L882.868 1035.58 L890.611 1016.23 Q891.056 1014.94 891.056 1014.42 Q891.056 1013.12 890.167 1012.19 Q889.314 1011.23 887.425 1011.16 L887.425 1008.79 Q891.278 1009.01 894.02 1009.01 Q897.132 1009.01 899.689 1008.79 L899.689 1011.16 Q897.429 1011.16 895.836 1012.19 Q894.242 1013.2 893.724 1014.08 Q893.242 1014.94 892.723 1016.23 L882.793 1040.92 Q882.201 1042.36 881.2 1042.36 Q880.533 1042.36 880.237 1042.07 Q879.977 1041.81 879.607 1040.92 L868.677 1013.97 Q867.936 1012.08 866.972 1011.64 Q866.009 1011.16 862.6 1011.16 Z" fill="#000000" fill-rule="evenodd" fill-opacity="1" /><path clip-path="url(#clip980)" d="M901.134 1024.8 Q901.134 1017.64 905.728 1012.57 Q910.323 1007.49 916.918 1007.49 Q923.587 1007.49 927.033 1011.82 Q930.516 1016.16 930.516 1022.39 Q930.516 1023.54 930.219 1023.76 Q929.923 1023.98 928.626 1023.98 L907.433 1023.98 Q907.433 1031.73 909.73 1035.36 Q912.916 1040.44 918.289 1040.44 Q919.03 1040.44 919.919 1040.29 Q920.808 1040.14 922.624 1039.51 Q924.439 1038.84 926.032 1037.1 Q927.626 1035.36 928.552 1032.62 Q928.774 1031.54 929.515 1031.58 Q930.516 1031.58 930.516 1032.47 Q930.516 1033.13 929.775 1034.65 Q929.071 1036.14 927.7 1037.92 Q926.329 1039.69 923.661 1041.03 Q921.03 1042.36 917.844 1042.36 Q911.175 1042.36 906.136 1037.32 Q901.134 1032.25 901.134 1024.8 M907.507 1022.39 L925.514 1022.39 Q925.514 1020.79 925.217 1019.01 Q924.958 1017.24 924.143 1014.79 Q923.365 1012.31 921.512 1010.75 Q919.66 1009.19 916.918 1009.19 Q915.695 1009.19 914.361 1009.71 Q913.064 1010.23 911.471 1011.49 Q909.878 1012.75 908.766 1015.6 Q907.655 1018.46 907.507 1022.39 Z" fill="#000000" fill-rule="evenodd" fill-opacity="1" /><path clip-path="url(#clip980)" d="M934.814 1041.51 L934.814 1039.18 Q938.852 1039.18 939.779 1038.69 Q940.742 1038.18 940.742 1035.73 L940.742 1015.38 Q940.742 1012.57 939.741 1011.86 Q938.778 1011.16 934.814 1011.16 L934.814 1008.79 L945.373 1007.97 L945.373 1016.31 Q946.448 1013.05 948.708 1010.53 Q951.005 1007.97 954.71 1007.97 Q957.156 1007.97 958.712 1009.34 Q960.305 1010.71 960.305 1012.6 Q960.305 1014.27 959.268 1015.12 Q958.267 1015.94 957.045 1015.94 Q955.674 1015.94 954.71 1015.09 Q953.784 1014.2 953.784 1012.68 Q953.784 1011.75 954.192 1011.05 Q954.636 1010.3 954.97 1010.05 Q955.303 1009.79 955.525 1009.71 Q955.377 1009.64 954.71 1009.64 Q950.523 1009.64 948.115 1013.83 Q945.744 1017.98 945.744 1023.91 L945.744 1035.58 Q945.744 1037.77 946.633 1038.47 Q947.559 1039.18 951.524 1039.18 L953.117 1039.18 L953.117 1041.51 Q950.079 1041.29 943.484 1041.29 Q942.557 1041.29 941.112 1041.33 Q939.667 1041.36 937.778 1041.44 Q935.888 1041.51 934.814 1041.51 Z" fill="#000000" fill-rule="evenodd" fill-opacity="1" /><path clip-path="url(#clip980)" d="M964.788 1041.51 L964.788 1039.18 Q968.827 1039.18 969.753 1038.69 Q970.679 1038.18 970.679 1035.73 L970.679 996.258 Q970.679 993.441 969.679 992.737 Q968.716 992.033 964.788 992.033 L964.788 989.661 L975.681 988.846 L975.681 1015.23 L975.755 1015.23 Q976.978 1012.49 979.72 1010.23 Q982.462 1007.97 986.686 1007.97 Q992.392 1007.97 994.652 1010.79 Q996.319 1012.68 996.653 1014.79 Q997.023 1016.9 997.023 1022.39 L997.023 1036.88 Q997.097 1038.47 998.32 1038.84 Q999.543 1039.18 1002.95 1039.18 L1002.95 1041.51 Q995.207 1041.29 994.429 1041.29 Q993.837 1041.29 985.871 1041.51 L985.871 1039.18 Q989.909 1039.18 990.835 1038.69 Q991.799 1038.18 991.799 1035.73 L991.799 1018.05 Q991.799 1014.2 990.613 1011.94 Q989.427 1009.64 986.167 1009.64 Q982.239 1009.64 979.09 1012.94 Q975.941 1016.23 975.941 1021.79 L975.941 1035.73 Q975.941 1038.18 976.867 1038.69 Q977.83 1039.18 981.832 1039.18 L981.832 1041.51 Q974.088 1041.29 973.347 1041.29 Q972.754 1041.29 964.788 1041.51 Z" fill="#000000" fill-rule="evenodd" fill-opacity="1" /><path clip-path="url(#clip980)" d="M1006.55 1024.8 Q1006.55 1017.64 1011.14 1012.57 Q1015.73 1007.49 1022.33 1007.49 Q1029 1007.49 1032.44 1011.82 Q1035.93 1016.16 1035.93 1022.39 Q1035.93 1023.54 1035.63 1023.76 Q1035.33 1023.98 1034.04 1023.98 L1012.84 1023.98 Q1012.84 1031.73 1015.14 1035.36 Q1018.33 1040.44 1023.7 1040.44 Q1024.44 1040.44 1025.33 1040.29 Q1026.22 1040.14 1028.04 1039.51 Q1029.85 1038.84 1031.44 1037.1 Q1033.04 1035.36 1033.96 1032.62 Q1034.19 1031.54 1034.93 1031.58 Q1035.93 1031.58 1035.93 1032.47 Q1035.93 1033.13 1035.19 1034.65 Q1034.48 1036.14 1033.11 1037.92 Q1031.74 1039.69 1029.07 1041.03 Q1026.44 1042.36 1023.26 1042.36 Q1016.59 1042.36 1011.55 1037.32 Q1006.55 1032.25 1006.55 1024.8 M1012.92 1022.39 L1030.93 1022.39 Q1030.93 1020.79 1030.63 1019.01 Q1030.37 1017.24 1029.55 1014.79 Q1028.78 1012.31 1026.92 1010.75 Q1025.07 1009.19 1022.33 1009.19 Q1021.11 1009.19 1019.77 1009.71 Q1018.48 1010.23 1016.88 1011.49 Q1015.29 1012.75 1014.18 1015.6 Q1013.07 1018.46 1012.92 1022.39 Z" fill="#000000" fill-rule="evenodd" fill-opacity="1" /><path clip-path="url(#clip980)" d="M1041.3 1034.28 Q1041.3 1027.83 1048.9 1024.43 Q1053.45 1022.24 1062.86 1021.68 L1062.86 1018.9 Q1062.86 1014.2 1060.38 1011.71 Q1057.94 1009.19 1054.82 1009.19 Q1049.27 1009.19 1046.6 1012.68 Q1048.86 1012.75 1049.67 1013.9 Q1050.49 1015.01 1050.49 1016.16 Q1050.49 1017.68 1049.52 1018.68 Q1048.6 1019.64 1047.01 1019.64 Q1045.49 1019.64 1044.49 1018.72 Q1043.49 1017.75 1043.49 1016.09 Q1043.49 1012.38 1046.82 1009.93 Q1050.19 1007.49 1054.97 1007.49 Q1061.2 1007.49 1065.35 1011.68 Q1066.64 1012.97 1067.27 1014.64 Q1067.94 1016.31 1068.01 1017.42 Q1068.09 1018.5 1068.09 1020.64 L1068.09 1035.8 Q1068.09 1036.25 1068.24 1036.99 Q1068.38 1037.73 1069.05 1038.69 Q1069.76 1039.62 1070.9 1039.62 Q1073.65 1039.62 1073.61 1034.77 L1073.61 1030.5 L1075.54 1030.5 L1075.54 1034.77 Q1075.54 1038.81 1073.39 1040.4 Q1071.27 1041.96 1069.31 1041.96 Q1066.79 1041.96 1065.2 1040.1 Q1063.6 1038.25 1063.38 1035.73 Q1062.23 1038.62 1059.6 1040.51 Q1057.01 1042.36 1053.45 1042.36 Q1050.71 1042.36 1048.12 1041.66 Q1045.56 1040.99 1043.41 1039.1 Q1041.3 1037.17 1041.3 1034.28 M1047.15 1034.21 Q1047.15 1037.03 1049.15 1038.84 Q1051.16 1040.66 1053.97 1040.66 Q1057.16 1040.66 1060.01 1038.21 Q1062.86 1035.73 1062.86 1030.87 L1062.86 1023.28 Q1054.45 1023.57 1050.78 1026.95 Q1047.15 1030.28 1047.15 1034.21 Z" fill="#000000" fill-rule="evenodd" fill-opacity="1" /><path clip-path="url(#clip980)" d="M1078.65 1025.2 Q1078.65 1017.98 1083.69 1012.97 Q1088.73 1007.97 1095.54 1007.97 Q1101.32 1007.97 1105.1 1012.68 L1105.1 996.258 Q1105.1 993.441 1104.1 992.737 Q1103.14 992.033 1099.21 992.033 L1099.21 989.661 L1110.14 988.846 L1110.14 1034.91 Q1110.14 1037.73 1111.1 1038.47 Q1112.1 1039.18 1116.03 1039.18 L1116.03 1041.51 L1104.88 1042.36 L1104.88 1037.32 Q1100.95 1042.33 1094.73 1042.36 Q1088.21 1042.36 1083.43 1037.36 Q1078.65 1032.36 1078.65 1025.2 M1084.95 1025.28 Q1084.95 1032.32 1087.13 1035.8 Q1090.17 1040.66 1095.1 1040.66 Q1100.73 1040.66 1104.06 1035.36 Q1104.92 1034.06 1104.88 1032.54 L1104.88 1016.98 Q1104.88 1015.46 1104.06 1014.2 Q1100.95 1009.64 1095.88 1009.64 Q1090.58 1009.64 1087.28 1014.49 Q1084.95 1018.12 1084.95 1025.28 Z" fill="#000000" fill-rule="evenodd" fill-opacity="1" /><polyline clip-path="url(#clip982)" style="stroke:#000000; stroke-linecap:round; stroke-linejoin:round; stroke-width:2.00037; stroke-opacity:0.1; fill:none" points="262.739,857.047 1659.76,857.047 "/>
<polyline clip-path="url(#clip982)" style="stroke:#000000; stroke-linecap:round; stroke-linejoin:round; stroke-width:2.00037; stroke-opacity:0.1; fill:none" points="262.739,641.102 1659.76,641.102 "/>
<polyline clip-path="url(#clip982)" style="stroke:#000000; stroke-linecap:round; stroke-linejoin:round; stroke-width:2.00037; stroke-opacity:0.1; fill:none" points="262.739,425.157 1659.76,425.157 "/>
<polyline clip-path="url(#clip982)" style="stroke:#000000; stroke-linecap:round; stroke-linejoin:round; stroke-width:2.00037; stroke-opacity:0.1; fill:none" points="262.739,209.212 1659.76,209.212 "/>
<polyline clip-path="url(#clip980)" style="stroke:#000000; stroke-linecap:round; stroke-linejoin:round; stroke-width:4.00074; stroke-opacity:1; fill:none" points="262.739,857.047 262.739,47.2528 "/>
<polyline clip-path="url(#clip980)" style="stroke:#000000; stroke-linecap:round; stroke-linejoin:round; stroke-width:4.00074; stroke-opacity:1; fill:none" points="1659.76,857.047 1659.76,47.2528 "/>
<polyline clip-path="url(#clip980)" style="stroke:#000000; stroke-linecap:round; stroke-linejoin:round; stroke-width:4.00074; stroke-opacity:1; fill:none" points="262.739,857.047 281.635,857.047 "/>
<polyline clip-path="url(#clip980)" style="stroke:#000000; stroke-linecap:round; stroke-linejoin:round; stroke-width:4.00074; stroke-opacity:1; fill:none" points="262.739,641.102 281.635,641.102 "/>
<polyline clip-path="url(#clip980)" style="stroke:#000000; stroke-linecap:round; stroke-linejoin:round; stroke-width:4.00074; stroke-opacity:1; fill:none" points="262.739,425.157 281.635,425.157 "/>
<polyline clip-path="url(#clip980)" style="stroke:#000000; stroke-linecap:round; stroke-linejoin:round; stroke-width:4.00074; stroke-opacity:1; fill:none" points="262.739,209.212 281.635,209.212 "/>
<path clip-path="url(#clip980)" d="M118.974 858.559 Q118.974 848.333 121.555 842.761 Q125.155 834.472 133.646 834.472 Q135.447 834.472 137.315 834.981 Q139.216 835.457 141.594 837.326 Q144.005 839.194 145.466 842.252 Q148.251 848.163 148.251 858.559 Q148.251 868.717 145.67 874.255 Q141.9 882.34 133.578 882.34 Q130.454 882.34 127.261 880.744 Q124.103 879.147 122.099 875.308 Q118.974 869.566 118.974 858.559 M124.748 857.71 Q124.748 868.207 125.495 872.386 Q126.344 876.905 128.654 878.875 Q130.997 880.812 133.578 880.812 Q136.364 880.812 138.673 878.739 Q141.017 876.633 141.73 872.114 Q142.511 867.664 142.477 857.71 Q142.477 848.027 141.798 844.154 Q140.881 839.636 138.435 837.835 Q136.024 836.001 133.578 836.001 Q132.661 836.001 131.677 836.272 Q130.726 836.544 129.333 837.326 Q127.94 838.107 126.854 840.043 Q125.801 841.98 125.291 844.902 Q124.748 848.673 124.748 857.71 Z" fill="#000000" fill-rule="evenodd" fill-opacity="1" /><path clip-path="url(#clip980)" d="M157.998 879.69 Q156.946 878.569 156.946 877.108 Q156.946 875.648 157.998 874.594 Q159.051 873.507 160.648 873.507 Q162.176 873.507 163.195 874.526 Q164.248 875.512 164.248 877.142 Q164.248 878.739 163.127 879.792 Q162.04 880.812 160.648 880.812 Q159.051 880.812 157.998 879.69 Z" fill="#000000" fill-rule="evenodd" fill-opacity="1" /><path clip-path="url(#clip980)" d="M173.078 858.559 Q173.078 848.333 175.66 842.761 Q179.26 834.472 187.751 834.472 Q189.551 834.472 191.419 834.981 Q193.321 835.457 195.698 837.326 Q198.11 839.194 199.57 842.252 Q202.355 848.163 202.355 858.559 Q202.355 868.717 199.774 874.255 Q196.004 882.34 187.683 882.34 Q184.558 882.34 181.366 880.744 Q178.207 879.147 176.203 875.308 Q173.078 869.566 173.078 858.559 M178.852 857.71 Q178.852 868.207 179.599 872.386 Q180.449 876.905 182.758 878.875 Q185.102 880.812 187.683 880.812 Q190.468 880.812 192.777 878.739 Q195.121 876.633 195.834 872.114 Q196.615 867.664 196.581 857.71 Q196.581 848.027 195.902 844.154 Q194.985 839.636 192.54 837.835 Q190.128 836.001 187.683 836.001 Q186.766 836.001 185.781 836.272 Q184.83 836.544 183.437 837.326 Q182.045 838.107 180.958 840.043 Q179.905 841.98 179.396 844.902 Q178.852 848.673 178.852 857.71 Z" fill="#000000" fill-rule="evenodd" fill-opacity="1" /><path clip-path="url(#clip980)" d="M207.857 858.559 Q207.857 848.333 210.439 842.761 Q214.039 834.472 222.53 834.472 Q224.33 834.472 226.198 834.981 Q228.1 835.457 230.477 837.326 Q232.889 839.194 234.349 842.252 Q237.134 848.163 237.134 858.559 Q237.134 868.717 234.553 874.255 Q230.783 882.34 222.462 882.34 Q219.337 882.34 216.145 880.744 Q212.986 879.147 210.982 875.308 Q207.857 869.566 207.857 858.559 M213.631 857.71 Q213.631 868.207 214.378 872.386 Q215.228 876.905 217.537 878.875 Q219.881 880.812 222.462 880.812 Q225.247 880.812 227.556 878.739 Q229.9 876.633 230.613 872.114 Q231.394 867.664 231.36 857.71 Q231.36 848.027 230.681 844.154 Q229.764 839.636 227.319 837.835 Q224.907 836.001 222.462 836.001 Q221.545 836.001 220.56 836.272 Q219.609 836.544 218.216 837.326 Q216.824 838.107 215.737 840.043 Q214.684 841.98 214.175 844.902 Q213.631 848.673 213.631 857.71 Z" fill="#000000" fill-rule="evenodd" fill-opacity="1" /><path clip-path="url(#clip980)" d="M119.721 642.614 Q119.721 632.388 122.303 626.816 Q125.903 618.527 134.394 618.527 Q136.194 618.527 138.062 619.036 Q139.964 619.512 142.341 621.38 Q144.753 623.249 146.213 626.307 Q148.998 632.218 148.998 642.614 Q148.998 652.772 146.417 658.31 Q142.647 666.395 134.326 666.395 Q131.201 666.395 128.008 664.798 Q124.85 663.202 122.846 659.363 Q119.721 653.621 119.721 642.614 M125.495 641.764 Q125.495 652.262 126.242 656.441 Q127.091 660.959 129.401 662.93 Q131.744 664.866 134.326 664.866 Q137.111 664.866 139.42 662.794 Q141.764 660.688 142.477 656.169 Q143.258 651.719 143.224 641.764 Q143.224 632.082 142.545 628.209 Q141.628 623.691 139.183 621.89 Q136.771 620.055 134.326 620.055 Q133.409 620.055 132.424 620.327 Q131.473 620.599 130.08 621.38 Q128.688 622.162 127.601 624.098 Q126.548 626.035 126.039 628.957 Q125.495 632.728 125.495 641.764 Z" fill="#000000" fill-rule="evenodd" fill-opacity="1" /><path clip-path="url(#clip980)" d="M158.746 663.745 Q157.693 662.624 157.693 661.163 Q157.693 659.702 158.746 658.649 Q159.799 657.562 161.395 657.562 Q162.923 657.562 163.942 658.581 Q164.995 659.567 164.995 661.197 Q164.995 662.794 163.874 663.847 Q162.787 664.866 161.395 664.866 Q159.799 664.866 158.746 663.745 Z" fill="#000000" fill-rule="evenodd" fill-opacity="1" /><path clip-path="url(#clip980)" d="M173.826 642.614 Q173.826 632.388 176.407 626.816 Q180.007 618.527 188.498 618.527 Q190.298 618.527 192.166 619.036 Q194.068 619.512 196.446 621.38 Q198.857 623.249 200.317 626.307 Q203.102 632.218 203.102 642.614 Q203.102 652.772 200.521 658.31 Q196.751 666.395 188.43 666.395 Q185.305 666.395 182.113 664.798 Q178.954 663.202 176.95 659.363 Q173.826 653.621 173.826 642.614 M179.599 641.764 Q179.599 652.262 180.347 656.441 Q181.196 660.959 183.505 662.93 Q185.849 664.866 188.43 664.866 Q191.215 664.866 193.525 662.794 Q195.868 660.688 196.581 656.169 Q197.363 651.719 197.329 641.764 Q197.329 632.082 196.649 628.209 Q195.732 623.691 193.287 621.89 Q190.875 620.055 188.43 620.055 Q187.513 620.055 186.528 620.327 Q185.577 620.599 184.185 621.38 Q182.792 622.162 181.705 624.098 Q180.652 626.035 180.143 628.957 Q179.599 632.728 179.599 641.764 Z" fill="#000000" fill-rule="evenodd" fill-opacity="1" /><path clip-path="url(#clip980)" d="M209.352 664.866 Q209.352 663.609 209.454 663.236 Q209.59 662.862 210.133 662.284 L223.481 647.404 Q230.783 639.183 230.783 632.014 Q230.783 627.36 228.338 624.03 Q225.926 620.701 221.477 620.701 Q218.42 620.701 215.839 622.57 Q213.258 624.438 212.069 627.767 Q212.273 627.7 212.986 627.7 Q214.718 627.7 215.669 628.787 Q216.654 629.874 216.654 631.335 Q216.654 633.203 215.431 634.12 Q214.243 635.004 213.054 635.004 Q212.578 635.004 211.933 634.902 Q211.322 634.8 210.337 633.849 Q209.352 632.863 209.352 631.131 Q209.352 626.273 213.02 622.4 Q216.722 618.527 222.36 618.527 Q228.745 618.527 232.923 622.332 Q237.134 626.103 237.134 632.014 Q237.134 634.086 236.489 635.989 Q235.878 637.858 235.028 639.318 Q234.213 640.779 231.972 643.123 Q229.73 645.468 227.93 647.132 Q226.13 648.797 222.088 652.33 L214.718 659.499 L227.251 659.499 Q233.364 659.499 233.84 658.955 Q234.519 657.97 235.368 652.772 L237.134 652.772 L235.164 664.866 L209.352 664.866 Z" fill="#000000" fill-rule="evenodd" fill-opacity="1" /><path clip-path="url(#clip980)" d="M118.193 426.669 Q118.193 416.443 120.774 410.871 Q124.374 402.582 132.865 402.582 Q134.665 402.582 136.533 403.091 Q138.435 403.567 140.813 405.435 Q143.224 407.304 144.685 410.361 Q147.47 416.273 147.47 426.669 Q147.47 436.827 144.888 442.364 Q141.118 450.45 132.797 450.45 Q129.673 450.45 126.48 448.853 Q123.321 447.257 121.318 443.418 Q118.193 437.676 118.193 426.669 M123.967 425.819 Q123.967 436.317 124.714 440.496 Q125.563 445.014 127.873 446.985 Q130.216 448.921 132.797 448.921 Q135.582 448.921 137.892 446.849 Q140.235 444.742 140.949 440.224 Q141.73 435.774 141.696 425.819 Q141.696 416.137 141.017 412.264 Q140.1 407.745 137.654 405.945 Q135.243 404.11 132.797 404.11 Q131.88 404.11 130.895 404.382 Q129.944 404.654 128.552 405.435 Q127.159 406.217 126.072 408.153 Q125.02 410.09 124.51 413.011 Q123.967 416.782 123.967 425.819 Z" fill="#000000" fill-rule="evenodd" fill-opacity="1" /><path clip-path="url(#clip980)" d="M157.217 447.8 Q156.164 446.679 156.164 445.218 Q156.164 443.757 157.217 442.704 Q158.27 441.617 159.866 441.617 Q161.395 441.617 162.414 442.636 Q163.467 443.621 163.467 445.252 Q163.467 446.849 162.346 447.902 Q161.259 448.921 159.866 448.921 Q158.27 448.921 157.217 447.8 Z" fill="#000000" fill-rule="evenodd" fill-opacity="1" /><path clip-path="url(#clip980)" d="M172.297 426.669 Q172.297 416.443 174.879 410.871 Q178.479 402.582 186.97 402.582 Q188.77 402.582 190.638 403.091 Q192.54 403.567 194.917 405.435 Q197.329 407.304 198.789 410.361 Q201.574 416.273 201.574 426.669 Q201.574 436.827 198.993 442.364 Q195.223 450.45 186.902 450.45 Q183.777 450.45 180.584 448.853 Q177.426 447.257 175.422 443.418 Q172.297 437.676 172.297 426.669 M178.071 425.819 Q178.071 436.317 178.818 440.496 Q179.667 445.014 181.977 446.985 Q184.32 448.921 186.902 448.921 Q189.687 448.921 191.996 446.849 Q194.34 444.742 195.053 440.224 Q195.834 435.774 195.8 425.819 Q195.8 416.137 195.121 412.264 Q194.204 407.745 191.759 405.945 Q189.347 404.11 186.902 404.11 Q185.985 404.11 185 404.382 Q184.049 404.654 182.656 405.435 Q181.264 406.217 180.177 408.153 Q179.124 410.09 178.615 413.011 Q178.071 416.782 178.071 425.819 Z" fill="#000000" fill-rule="evenodd" fill-opacity="1" /><path clip-path="url(#clip980)" d="M206.295 437.438 L206.295 435.298 L227.658 402.649 Q228.202 401.8 229.051 401.834 Q229.832 401.834 230.002 402.14 Q230.172 402.446 230.172 403.635 L230.172 435.298 L237.134 435.298 L237.134 437.438 L230.172 437.438 L230.172 443.485 Q230.172 445.49 230.987 446.135 Q231.836 446.781 235.436 446.781 L236.896 446.781 L236.896 448.921 Q234.043 448.717 227.455 448.717 Q220.899 448.717 218.047 448.921 L218.047 446.781 L219.507 446.781 Q223.107 446.781 223.956 446.169 Q224.805 445.524 224.805 443.485 L224.805 437.438 L206.295 437.438 M208.265 435.298 L225.213 435.298 L225.213 409.342 L208.265 435.298 Z" fill="#000000" fill-rule="evenodd" fill-opacity="1" /><path clip-path="url(#clip980)" d="M119.178 210.723 Q119.178 200.498 121.759 194.926 Q125.359 186.636 133.85 186.636 Q135.65 186.636 137.518 187.146 Q139.42 187.622 141.798 189.49 Q144.209 191.359 145.67 194.416 Q148.455 200.328 148.455 210.723 Q148.455 220.882 145.873 226.419 Q142.103 234.505 133.782 234.505 Q130.658 234.505 127.465 232.908 Q124.306 231.311 122.303 227.472 Q119.178 221.731 119.178 210.723 M124.952 209.874 Q124.952 220.372 125.699 224.551 Q126.548 229.069 128.858 231.04 Q131.201 232.976 133.782 232.976 Q136.567 232.976 138.877 230.904 Q141.22 228.797 141.934 224.279 Q142.715 219.828 142.681 209.874 Q142.681 200.192 142.002 196.319 Q141.084 191.8 138.639 190 Q136.228 188.165 133.782 188.165 Q132.865 188.165 131.88 188.437 Q130.929 188.709 129.537 189.49 Q128.144 190.272 127.057 192.208 Q126.005 194.144 125.495 197.066 Q124.952 200.837 124.952 209.874 Z" fill="#000000" fill-rule="evenodd" fill-opacity="1" /><path clip-path="url(#clip980)" d="M158.202 231.855 Q157.149 230.734 157.149 229.273 Q157.149 227.812 158.202 226.759 Q159.255 225.672 160.851 225.672 Q162.38 225.672 163.399 226.691 Q164.452 227.676 164.452 229.307 Q164.452 230.904 163.331 231.957 Q162.244 232.976 160.851 232.976 Q159.255 232.976 158.202 231.855 Z" fill="#000000" fill-rule="evenodd" fill-opacity="1" /><path clip-path="url(#clip980)" d="M173.282 210.723 Q173.282 200.498 175.863 194.926 Q179.464 186.636 187.955 186.636 Q189.755 186.636 191.623 187.146 Q193.525 187.622 195.902 189.49 Q198.314 191.359 199.774 194.416 Q202.559 200.328 202.559 210.723 Q202.559 220.882 199.978 226.419 Q196.208 234.505 187.887 234.505 Q184.762 234.505 181.569 232.908 Q178.411 231.311 176.407 227.472 Q173.282 221.731 173.282 210.723 M179.056 209.874 Q179.056 220.372 179.803 224.551 Q180.652 229.069 182.962 231.04 Q185.305 232.976 187.887 232.976 Q190.672 232.976 192.981 230.904 Q195.325 228.797 196.038 224.279 Q196.819 219.828 196.785 209.874 Q196.785 200.192 196.106 196.319 Q195.189 191.8 192.743 190 Q190.332 188.165 187.887 188.165 Q186.97 188.165 185.985 188.437 Q185.034 188.709 183.641 189.49 Q182.249 190.272 181.162 192.208 Q180.109 194.144 179.599 197.066 Q179.056 200.837 179.056 209.874 Z" fill="#000000" fill-rule="evenodd" fill-opacity="1" /><path clip-path="url(#clip980)" d="M208.265 210.995 Q208.265 200.056 213.835 193.363 Q219.405 186.636 226.571 186.636 Q230.749 186.636 233.059 188.777 Q235.402 190.883 235.402 194.144 Q235.402 195.945 234.349 196.726 Q233.296 197.508 232.209 197.508 Q230.953 197.508 229.968 196.659 Q228.983 195.809 228.983 194.28 Q228.983 191.155 232.821 191.155 Q231.021 188.369 226.707 188.369 Q225.383 188.369 224.024 188.777 Q222.666 189.15 220.899 190.441 Q219.133 191.732 217.775 193.771 Q216.416 195.809 215.465 199.648 Q214.514 203.487 214.514 208.481 L214.514 210.146 Q217.367 203.249 223.209 203.283 Q229.051 203.283 233.093 207.734 Q237.134 212.184 237.134 218.775 Q237.134 225.536 232.923 230.02 Q228.711 234.505 222.801 234.505 Q220.152 234.505 217.741 233.384 Q215.363 232.297 213.122 229.783 Q210.914 227.269 209.59 222.444 Q208.265 217.62 208.265 210.995 M214.65 217.246 Q214.65 224.075 215.907 227.336 Q216.111 227.88 216.552 228.627 Q217.028 229.375 217.809 230.36 Q218.624 231.311 219.949 231.957 Q221.273 232.568 222.801 232.568 Q227.455 232.568 229.696 228.05 Q230.885 225.536 230.885 218.707 Q230.885 211.743 229.628 209.195 Q227.488 204.88 223.141 204.88 Q220.22 204.88 218.182 206.884 Q216.179 208.889 215.397 211.573 Q214.65 214.257 214.65 217.246 Z" fill="#000000" fill-rule="evenodd" fill-opacity="1" /><path clip-path="url(#clip980)" d="M77.0374 599.749 L74.7031 599.749 L74.7031 597.748 Q74.7031 593.485 74.0362 592.522 Q73.3322 591.521 71.1092 591.521 L31.1306 591.521 Q28.9446 591.521 28.2777 592.522 Q27.5737 593.522 27.5737 597.748 L27.5737 599.749 L25.2024 599.749 Q25.4247 597.08 25.4247 588.111 Q25.4247 579.217 25.2024 576.585 L27.5737 576.585 L27.5737 578.549 Q27.5737 582.812 28.2777 583.812 Q28.9446 584.776 31.1306 584.776 L71.1092 584.776 Q73.2952 584.776 73.9992 583.812 Q74.7031 582.812 74.7031 578.549 L74.7031 576.585 L77.0374 576.585 Q76.8151 579.254 76.8151 588.186 Q76.8151 597.08 77.0374 599.749 Z" fill="#000000" fill-rule="evenodd" fill-opacity="1" /><path clip-path="url(#clip980)" d="M77.0374 572.027 L74.7031 572.027 Q74.7031 567.987 74.2215 567.06 Q73.7028 566.134 71.2574 566.134 L50.9161 566.134 Q48.1002 566.134 47.3962 567.134 Q46.6922 568.098 46.6922 572.027 L44.321 572.027 L43.5058 561.353 L51.4719 561.353 Q43.5058 557.795 43.5058 550.123 Q43.5058 544.416 46.3217 542.155 Q48.2114 540.487 50.3233 540.153 Q52.4352 539.783 57.9188 539.783 L72.406 539.783 Q73.9992 539.709 74.3697 538.486 Q74.7031 537.263 74.7031 533.853 L77.0374 533.853 Q76.8151 541.599 76.8151 542.377 Q76.8151 542.97 77.0374 550.938 L74.7031 550.938 Q74.7031 546.899 74.2215 545.972 Q73.7028 545.008 71.2574 545.008 L53.5838 545.008 Q49.7305 545.008 47.4703 546.194 Q45.1731 547.38 45.1731 550.642 Q45.1731 554.57 48.4707 557.721 Q51.7683 560.871 57.326 560.871 L71.2574 560.871 Q73.7028 560.871 74.2215 559.944 Q74.7031 558.981 74.7031 554.978 L77.0374 554.978 Q76.8151 562.724 76.8151 563.465 Q76.8151 564.058 77.0374 572.027 Z" fill="#000000" fill-rule="evenodd" fill-opacity="1" /><path clip-path="url(#clip980)" d="M46.6922 529.85 L44.321 529.85 L44.321 523.883 L35.6139 523.883 Q29.982 523.883 26.7586 520.251 Q23.5351 516.582 23.5351 512.098 Q23.5351 509.133 25.1283 507.205 Q26.7215 505.278 28.8705 505.278 Q30.3155 505.278 31.2788 506.168 Q32.2051 507.02 32.2051 508.614 Q32.2051 510.133 31.2418 511.023 Q30.2785 511.875 28.9446 511.875 Q26.4992 511.875 25.7582 509.614 Q25.2395 510.763 25.2024 512.098 Q25.2024 514.84 28.0183 516.99 Q30.8342 519.102 35.5398 519.102 L44.321 519.102 L44.321 510.207 L46.6922 510.207 L46.6922 518.843 L71.1092 518.843 Q73.2952 518.843 73.9992 517.953 Q74.7031 517.027 74.7031 513.098 L74.7031 511.505 L77.0374 511.505 Q76.8151 514.544 76.8151 521.141 Q76.8151 522.067 76.8521 523.513 Q76.8892 524.921 76.9633 526.848 Q77.0374 528.738 77.0374 529.776 L74.7031 529.776 Q74.7031 525.736 74.2215 524.81 Q73.7028 523.883 71.2574 523.883 L46.6922 523.883 L46.6922 529.85 Z" fill="#000000" fill-rule="evenodd" fill-opacity="1" /><path clip-path="url(#clip980)" d="M77.0374 506.724 L74.7031 506.724 Q74.7031 502.684 74.2215 501.757 Q73.7028 500.831 71.2574 500.831 L50.842 500.831 Q48.0261 500.831 47.3592 501.794 Q46.6922 502.721 46.6922 506.427 L44.321 506.427 L43.5058 495.827 L71.3315 495.827 Q73.5916 495.827 74.1474 495.012 Q74.7031 494.197 74.7031 490.49 L77.0374 490.49 Q76.8151 498.236 76.8151 498.385 Q76.8151 499.422 77.0374 506.724 M30.2785 503.536 Q28.7593 503.536 27.5366 502.387 Q26.2769 501.201 26.2769 499.534 Q26.2769 497.866 27.4255 496.68 Q28.537 495.494 30.3155 495.494 Q32.0569 495.494 33.2055 496.68 Q34.3171 497.866 34.3171 499.534 Q34.3171 501.275 33.0944 502.424 Q31.8717 503.536 30.2785 503.536 Z" fill="#000000" fill-rule="evenodd" fill-opacity="1" /><path clip-path="url(#clip980)" d="M60.7347 485.635 Q53.5097 485.635 48.5078 480.595 Q43.5058 475.555 43.5058 468.735 Q43.5058 462.954 48.2114 459.173 L31.7976 459.173 Q28.9817 459.173 28.2777 460.174 Q27.5737 461.137 27.5737 465.066 L25.2024 465.066 L24.3873 454.133 L70.4422 454.133 Q73.2581 454.133 73.9992 453.169 Q74.7031 452.169 74.7031 448.24 L77.0374 448.24 L77.8896 459.396 L72.8506 459.396 Q77.8525 463.324 77.8896 469.551 Q77.8896 476.073 72.8876 480.854 Q67.8857 485.635 60.7347 485.635 M60.8089 479.335 Q67.8486 479.335 71.3315 477.148 Q76.1852 474.109 76.1852 469.18 Q76.1852 463.547 70.8868 460.211 Q69.59 459.359 68.0709 459.396 L52.5093 459.396 Q50.9902 459.396 49.7305 460.211 Q45.1731 463.324 45.1731 468.402 Q45.1731 473.701 50.0269 477 Q53.6579 479.335 60.8089 479.335 Z" fill="#000000" fill-rule="evenodd" fill-opacity="1" /><path clip-path="url(#clip980)" d="M60.3272 444.015 Q53.1763 444.015 48.1002 439.419 Q43.0242 434.824 43.0242 428.227 Q43.0242 421.555 47.3592 418.109 Q51.6942 414.625 57.9188 414.625 Q59.0674 414.625 59.2897 414.921 Q59.512 415.218 59.512 416.515 L59.512 437.714 Q67.2558 437.714 70.8868 435.417 Q75.9629 432.229 75.9629 426.855 Q75.9629 426.114 75.8147 425.225 Q75.6665 424.335 75.0366 422.519 Q74.3697 420.703 72.6283 419.109 Q70.8868 417.516 68.145 416.589 Q67.0705 416.367 67.1076 415.626 Q67.1076 414.625 67.9968 414.625 Q68.6638 414.625 70.1829 415.366 Q71.6649 416.07 73.4434 417.442 Q75.2219 418.813 76.5557 421.481 Q77.8896 424.113 77.8896 427.3 Q77.8896 433.971 72.8506 439.012 Q67.7745 444.015 60.3272 444.015 M57.9188 437.64 L57.9188 419.628 Q56.3256 419.628 54.5472 419.925 Q52.7687 420.184 50.3233 420.999 Q47.8408 421.778 46.2847 423.631 Q44.7285 425.484 44.7285 428.227 Q44.7285 429.45 45.2472 430.784 Q45.766 432.081 47.0257 433.675 Q48.2855 435.268 51.1384 436.38 Q53.9914 437.492 57.9188 437.64 Z" fill="#000000" fill-rule="evenodd" fill-opacity="1" /><path clip-path="url(#clip980)" d="M77.0374 409.918 L74.7031 409.918 Q74.7031 405.878 74.2215 404.952 Q73.7028 404.025 71.2574 404.025 L31.7976 404.025 Q28.9817 404.025 28.2777 405.026 Q27.5737 405.989 27.5737 409.918 L25.2024 409.918 L24.3873 399.022 L71.2574 399.022 Q73.7028 399.022 74.2215 398.058 Q74.7031 397.095 74.7031 393.092 L77.0374 393.092 Q77.0374 394.018 76.9633 395.946 Q76.8892 397.873 76.8521 399.281 Q76.8151 400.69 76.8151 401.505 Q76.8151 402.394 77.0374 409.918 Z" fill="#000000" fill-rule="evenodd" fill-opacity="1" /><path clip-path="url(#clip980)" d="M77.0374 388.904 L74.7031 388.904 Q74.7031 384.864 74.2215 383.938 Q73.7028 383.011 71.2574 383.011 L50.842 383.011 Q48.0261 383.011 47.3592 383.975 Q46.6922 384.901 46.6922 388.607 L44.321 388.607 L43.5058 378.008 L71.3315 378.008 Q73.5916 378.008 74.1474 377.192 Q74.7031 376.377 74.7031 372.671 L77.0374 372.671 Q76.8151 380.417 76.8151 380.565 Q76.8151 381.603 77.0374 388.904 M30.2785 385.717 Q28.7593 385.717 27.5366 384.568 Q26.2769 383.382 26.2769 381.714 Q26.2769 380.046 27.4255 378.86 Q28.537 377.674 30.3155 377.674 Q32.0569 377.674 33.2055 378.86 Q34.3171 380.046 34.3171 381.714 Q34.3171 383.456 33.0944 384.605 Q31.8717 385.717 30.2785 385.717 Z" fill="#000000" fill-rule="evenodd" fill-opacity="1" /><path clip-path="url(#clip980)" d="M46.6922 368.965 L45.0249 368.965 Q44.8767 365.481 42.4313 363.183 Q39.9489 360.848 36.9107 360.07 Q33.8724 359.254 30.3526 359.18 L30.3526 357.29 L44.321 357.29 L44.321 346.431 L46.6922 346.431 L46.6922 357.29 L67.7745 357.29 Q75.9629 357.29 75.9629 352.176 Q75.9629 349.989 73.7398 348.544 Q71.4797 347.098 67.4781 347.098 L63.2913 347.098 L63.2913 345.208 L67.6263 345.208 Q71.739 345.208 74.8143 347.098 Q77.8896 348.988 77.8896 352.732 Q77.8896 354.103 77.5191 355.474 Q77.1856 356.808 76.2964 358.587 Q75.3701 360.329 73.147 361.441 Q70.8868 362.516 67.6263 362.516 L46.6922 362.516 L46.6922 368.965 Z" fill="#000000" fill-rule="evenodd" fill-opacity="1" /><path clip-path="url(#clip980)" d="M86.4485 341.65 Q84.8552 341.65 84.0031 340.723 Q83.1879 339.76 83.1879 338.463 Q83.1879 337.091 84.0401 336.202 Q84.9293 335.275 86.3744 335.275 Q89.1903 335.275 89.5608 338.24 Q90.9317 336.795 90.9317 334.682 Q90.9317 332.422 89.2644 330.606 Q87.597 328.752 86.0038 327.974 Q84.4106 327.159 81.5206 326.01 Q79.2605 324.935 77.0374 324.12 L49.3229 335.498 Q47.5074 336.239 47.0998 337.388 Q46.6922 338.537 46.6922 341.65 L44.321 341.65 Q44.5433 338.24 44.5433 334.275 Q44.5433 331.94 44.321 326.01 L46.6922 326.01 Q46.6922 330.272 48.656 330.272 Q48.8783 330.272 50.0269 329.827 L70.4422 321.377 L51.7683 313.705 Q50.6938 313.261 49.9528 313.261 Q46.8405 313.261 46.6922 316.819 L44.321 316.819 Q44.5433 311.815 44.5433 310.222 Q44.5433 307.108 44.321 304.551 L46.6922 304.551 Q46.6922 309.629 51.546 311.593 L83.929 324.972 Q92.5619 328.604 92.599 334.682 Q92.599 337.573 90.8205 339.612 Q89.0421 341.65 86.4485 341.65 Z" fill="#000000" fill-rule="evenodd" fill-opacity="1" /><path clip-path="url(#clip982)" d="M1620.22 824.498 L1604.22 856.504 L1636.23 856.504 L1620.22 824.498 Z" fill="#87c55f" fill-rule="evenodd" fill-opacity="1" stroke="#000000" stroke-opacity="1" stroke-width="2.108"/>
<path clip-path="url(#clip982)" d="M1167.77 551.02 L1151.77 567.023 L1167.77 583.026 L1183.77 567.023 L1167.77 551.02 Z" fill="#f89c74" fill-rule="evenodd" fill-opacity="1" stroke="#000000" stroke-opacity="1" stroke-width="2.108"/>
<path clip-path="url(#clip982)" d="M302.278 403.977 L288.419 395.976 L288.419 379.973 L302.278 371.971 L316.136 379.973 L316.136 395.976 Z" fill="#f6cf71" fill-rule="evenodd" fill-opacity="1" stroke="#000000" stroke-opacity="1" stroke-width="2.108"/>
<path clip-path="url(#clip980)" d="M967.961 385.343 L1613.19 385.343 L1613.19 74.2459 L967.961 74.2459  Z" fill="#ffffff" fill-rule="evenodd" fill-opacity="1"/>
<polyline clip-path="url(#clip980)" style="stroke:#000000; stroke-linecap:round; stroke-linejoin:round; stroke-width:4.00074; stroke-opacity:1; fill:none" points="967.961,385.343 1613.19,385.343 1613.19,74.2459 967.961,74.2459 967.961,385.343 "/>
<path clip-path="url(#clip980)" d="M1030.05 113.613 L991.644 190.427 L1068.46 190.427 L1030.05 113.613 Z" fill="#87c55f" fill-rule="evenodd" fill-opacity="1" stroke="#000000" stroke-opacity="1" stroke-width="5.0592"/>
<path clip-path="url(#clip980)" d="M1092.14 152.002 Q1092.14 140.55 1099.96 132.507 Q1107.78 124.428 1118.52 124.428 Q1121.86 124.428 1124.82 125.651 Q1127.78 126.874 1129.16 127.949 Q1130.53 128.986 1132.49 130.951 L1136.31 125.354 Q1136.9 124.428 1137.49 124.428 Q1138.12 124.428 1138.23 124.798 Q1138.34 125.132 1138.34 126.244 L1138.34 144.256 Q1138.34 145.479 1138.2 145.775 Q1138.05 146.072 1137.12 146.072 Q1136.38 146.072 1136.19 145.849 Q1136.05 145.627 1135.9 144.775 Q1134.75 136.584 1130.19 131.692 Q1125.67 126.8 1119.37 126.8 Q1117.56 126.8 1115.52 127.207 Q1113.52 127.615 1110.59 129.172 Q1107.7 130.728 1105.44 133.323 Q1103.22 135.88 1101.59 140.772 Q1099.96 145.627 1099.96 152.076 Q1099.96 158.451 1101.59 163.343 Q1103.22 168.235 1105.44 170.792 Q1107.7 173.312 1110.59 174.869 Q1113.52 176.426 1115.56 176.87 Q1117.63 177.278 1119.45 177.278 Q1125.97 177.278 1130.97 172.645 Q1135.97 168.012 1136.45 160.192 Q1136.53 159.822 1136.53 159.674 Q1136.53 159.488 1136.6 159.303 Q1136.68 159.118 1136.86 159.043 Q1137.05 158.969 1137.34 158.969 Q1138.34 158.969 1138.34 160.267 Q1138.34 167.494 1132.79 173.572 Q1127.27 179.613 1118.52 179.613 Q1107.74 179.613 1099.92 171.607 Q1092.14 163.602 1092.14 152.002 Z" fill="#000000" fill-rule="evenodd" fill-opacity="1" /><path clip-path="url(#clip980)" d="M1145.16 177.945 L1145.16 175.61 L1146.98 175.61 Q1151.09 175.61 1152.02 174.943 Q1152.98 174.239 1152.98 172.015 L1152.98 132.025 Q1152.98 129.839 1152.02 129.172 Q1151.05 128.467 1146.98 128.467 L1145.16 128.467 L1145.16 126.095 Q1147.83 126.318 1156.39 126.318 Q1164.87 126.318 1167.54 126.095 L1167.54 128.467 L1165.72 128.467 Q1161.61 128.467 1160.65 129.172 Q1159.72 129.839 1159.72 132.025 L1159.72 156.153 L1183.47 133.471 Q1184.84 132.248 1184.84 130.951 Q1184.84 130.506 1184.62 130.024 Q1184.44 129.505 1183.55 128.986 Q1182.69 128.467 1181.32 128.467 L1181.32 126.095 Q1183.92 126.318 1190.99 126.318 Q1195.48 126.318 1197.44 126.095 L1197.44 128.467 Q1191.14 128.542 1186.66 133.026 L1172.99 146.146 L1190.51 171.941 Q1192.11 174.276 1193.66 174.943 Q1195.22 175.61 1198.48 175.61 L1198.48 177.945 Q1193.7 177.723 1189.77 177.723 Q1181.58 177.723 1178.92 177.945 L1178.92 175.61 Q1183.4 175.61 1183.4 173.312 Q1183.4 172.46 1182.25 170.718 L1168.5 150.408 L1159.72 158.747 L1159.72 172.015 Q1159.72 174.202 1160.65 174.906 Q1161.61 175.61 1165.72 175.61 L1167.54 175.61 L1167.54 177.945 Q1164.87 177.723 1156.31 177.723 Q1147.83 177.723 1145.16 177.945 Z" fill="#000000" fill-rule="evenodd" fill-opacity="1" /><path clip-path="url(#clip980)" d="M1204.04 177.945 L1204.04 175.61 Q1210.78 175.462 1212.52 170.496 L1228.23 125.132 Q1228.53 124.205 1228.86 123.909 Q1229.19 123.612 1230.05 123.612 Q1230.49 123.612 1230.75 123.686 Q1231.05 123.761 1231.23 124.02 Q1231.42 124.279 1231.49 124.428 Q1231.57 124.576 1231.79 125.132 L1248.16 172.571 Q1248.76 174.461 1249.98 175.054 Q1251.2 175.61 1254.65 175.61 L1255.98 175.61 L1255.98 177.945 Q1251.2 177.723 1246.05 177.723 Q1237.86 177.723 1235.12 177.945 L1235.12 175.61 Q1241.42 175.61 1241.42 173.312 Q1241.42 173.164 1241.2 172.238 L1237.2 160.637 L1218.45 160.637 L1214.93 170.57 Q1214.78 170.866 1214.78 171.719 Q1214.78 173.312 1216.26 174.461 Q1217.75 175.61 1220.49 175.61 L1220.49 177.945 Q1213.19 177.723 1211.74 177.723 Q1209.26 177.723 1204.04 177.945 M1219.26 158.302 L1236.34 158.302 L1227.79 133.619 L1219.26 158.302 Z" fill="#000000" fill-rule="evenodd" fill-opacity="1" /><path clip-path="url(#clip980)" d="M1266.1 176.722 Q1265.02 175.499 1265.02 173.905 Q1265.02 172.312 1266.06 171.126 Q1267.13 169.903 1269.06 169.903 Q1271.32 169.903 1272.62 172.089 Q1273.92 174.239 1273.92 177.871 Q1273.92 181.799 1272.32 185.432 Q1270.73 189.101 1269.17 190.843 Q1267.62 192.584 1266.99 192.584 Q1266.25 192.584 1266.25 191.769 Q1266.25 191.473 1266.76 190.917 Q1272.21 185.061 1272.25 177.871 Q1272.25 176.722 1272.1 176.722 L1271.91 176.87 Q1270.62 177.945 1269.06 177.945 Q1267.17 177.945 1266.1 176.722 Z" fill="#000000" fill-rule="evenodd" fill-opacity="1" /><path clip-path="url(#clip980)" d="M1307 150.779 Q1307 150.705 1307.15 150.186 Q1307.34 149.63 1307.82 148.814 Q1308.3 147.962 1308.93 147.184 Q1309.6 146.368 1310.74 145.812 Q1311.89 145.219 1313.23 145.219 Q1313.37 145.219 1313.6 145.256 Q1313.86 145.294 1313.93 145.294 L1334.57 145.294 Q1335.57 145.294 1335.94 145.627 Q1336.31 145.924 1336.31 147.035 L1336.31 148.555 Q1336.31 149.63 1335.87 149.926 Q1335.46 150.223 1334.57 150.223 L1322.49 150.223 L1322.49 160.489 Q1322.49 173.016 1327.82 173.016 Q1329.05 173.016 1330.31 172.163 Q1331.6 171.274 1331.9 171.274 Q1333.12 171.274 1333.12 173.461 Q1333.12 175.573 1331.6 177.204 Q1330.09 178.797 1327.82 178.797 Q1325.38 178.797 1323.79 177.352 Q1322.19 175.907 1321.53 173.164 Q1320.9 170.421 1320.75 168.346 Q1320.6 166.271 1320.6 163.157 L1320.6 150.223 L1314.82 150.223 Q1314.6 150.223 1314.19 150.186 Q1313.78 150.149 1313.56 150.149 Q1311.45 150.149 1309.67 150.927 Q1307.93 151.668 1307.85 151.668 Q1307 151.705 1307 150.779 Z" fill="#000000" fill-rule="evenodd" fill-opacity="1" /><path clip-path="url(#clip980)" d="M1369.03 166.419 Q1369.1 165.492 1370.55 165.492 L1417.04 165.492 Q1419.23 165.492 1419.27 166.345 Q1419.27 167.271 1417.19 167.234 L1371.06 167.234 Q1369.03 167.271 1369.03 166.419 M1369.03 151.594 Q1369.03 150.668 1370.62 150.705 L1416.97 150.705 Q1419.23 150.705 1419.27 151.594 Q1419.27 152.446 1417.34 152.446 L1370.55 152.446 Q1369.03 152.446 1369.03 151.594 Z" fill="#000000" fill-rule="evenodd" fill-opacity="1" /><path clip-path="url(#clip980)" d="M1455.69 134.62 L1455.69 132.248 Q1464.8 132.248 1469.51 127.393 Q1470.81 127.393 1471.03 127.689 Q1471.25 127.986 1471.25 129.357 L1471.25 171.941 Q1471.25 174.202 1472.36 174.906 Q1473.47 175.61 1478.33 175.61 L1480.74 175.61 L1480.74 177.945 Q1478.07 177.723 1468.44 177.723 Q1458.8 177.723 1456.17 177.945 L1456.17 175.61 L1458.58 175.61 Q1463.36 175.61 1464.51 174.943 Q1465.66 174.239 1465.66 171.941 L1465.66 132.618 Q1461.69 134.62 1455.69 134.62 Z" fill="#000000" fill-rule="evenodd" fill-opacity="1" /><path clip-path="url(#clip980)" d="M1489.85 153.67 Q1489.85 142.514 1492.67 136.436 Q1496.59 127.393 1505.86 127.393 Q1507.82 127.393 1509.86 127.949 Q1511.93 128.467 1514.53 130.506 Q1517.16 132.544 1518.75 135.88 Q1521.79 142.329 1521.79 153.67 Q1521.79 164.751 1518.97 170.792 Q1514.86 179.613 1505.78 179.613 Q1502.37 179.613 1498.89 177.871 Q1495.45 176.129 1493.26 171.941 Q1489.85 165.678 1489.85 153.67 M1496.15 152.743 Q1496.15 164.195 1496.96 168.754 Q1497.89 173.683 1500.41 175.833 Q1502.97 177.945 1505.78 177.945 Q1508.82 177.945 1511.34 175.684 Q1513.9 173.386 1514.68 168.457 Q1515.53 163.602 1515.49 152.743 Q1515.49 142.18 1514.75 137.955 Q1513.75 133.026 1511.08 131.062 Q1508.45 129.06 1505.78 129.06 Q1504.78 129.06 1503.71 129.357 Q1502.67 129.653 1501.15 130.506 Q1499.63 131.358 1498.45 133.471 Q1497.3 135.583 1496.74 138.771 Q1496.15 142.885 1496.15 152.743 Z" fill="#000000" fill-rule="evenodd" fill-opacity="1" /><path clip-path="url(#clip980)" d="M1527.79 153.67 Q1527.79 142.514 1530.61 136.436 Q1534.53 127.393 1543.8 127.393 Q1545.76 127.393 1547.8 127.949 Q1549.87 128.467 1552.47 130.506 Q1555.1 132.544 1556.69 135.88 Q1559.73 142.329 1559.73 153.67 Q1559.73 164.751 1556.91 170.792 Q1552.8 179.613 1543.72 179.613 Q1540.32 179.613 1536.83 177.871 Q1533.39 176.129 1531.2 171.941 Q1527.79 165.678 1527.79 153.67 M1534.09 152.743 Q1534.09 164.195 1534.91 168.754 Q1535.83 173.683 1538.35 175.833 Q1540.91 177.945 1543.72 177.945 Q1546.76 177.945 1549.28 175.684 Q1551.84 173.386 1552.62 168.457 Q1553.47 163.602 1553.43 152.743 Q1553.43 142.18 1552.69 137.955 Q1551.69 133.026 1549.02 131.062 Q1546.39 129.06 1543.72 129.06 Q1542.72 129.06 1541.65 129.357 Q1540.61 129.653 1539.09 130.506 Q1537.57 131.358 1536.39 133.471 Q1535.24 135.583 1534.68 138.771 Q1534.09 142.885 1534.09 152.743 Z" fill="#000000" fill-rule="evenodd" fill-opacity="1" /><path clip-path="url(#clip980)" d="M1565.73 153.67 Q1565.73 142.514 1568.55 136.436 Q1572.48 127.393 1581.74 127.393 Q1583.7 127.393 1585.74 127.949 Q1587.81 128.467 1590.41 130.506 Q1593.04 132.544 1594.63 135.88 Q1597.67 142.329 1597.67 153.67 Q1597.67 164.751 1594.85 170.792 Q1590.74 179.613 1581.66 179.613 Q1578.26 179.613 1574.77 177.871 Q1571.33 176.129 1569.14 171.941 Q1565.73 165.678 1565.73 153.67 M1572.03 152.743 Q1572.03 164.195 1572.85 168.754 Q1573.77 173.683 1576.29 175.833 Q1578.85 177.945 1581.66 177.945 Q1584.7 177.945 1587.22 175.684 Q1589.78 173.386 1590.56 168.457 Q1591.41 163.602 1591.37 152.743 Q1591.37 142.18 1590.63 137.955 Q1589.63 133.026 1586.96 131.062 Q1584.33 129.06 1581.66 129.06 Q1580.66 129.06 1579.59 129.357 Q1578.55 129.653 1577.03 130.506 Q1575.51 131.358 1574.33 133.471 Q1573.18 135.583 1572.62 138.771 Q1572.03 142.885 1572.03 152.743 Z" fill="#000000" fill-rule="evenodd" fill-opacity="1" /><path clip-path="url(#clip980)" d="M1030.05 191.388 L991.644 229.795 L1030.05 268.202 L1068.46 229.795 L1030.05 191.388 Z" fill="#f89c74" fill-rule="evenodd" fill-opacity="1" stroke="#000000" stroke-opacity="1" stroke-width="5.0592"/>
<path clip-path="url(#clip980)" d="M1092.14 229.776 Q1092.14 218.324 1099.96 210.282 Q1107.78 202.202 1118.52 202.202 Q1121.86 202.202 1124.82 203.425 Q1127.78 204.648 1129.16 205.723 Q1130.53 206.761 1132.49 208.725 L1136.31 203.129 Q1136.9 202.202 1137.49 202.202 Q1138.12 202.202 1138.23 202.573 Q1138.34 202.906 1138.34 204.018 L1138.34 222.03 Q1138.34 223.253 1138.2 223.55 Q1138.05 223.846 1137.12 223.846 Q1136.38 223.846 1136.19 223.624 Q1136.05 223.401 1135.9 222.549 Q1134.75 214.358 1130.19 209.466 Q1125.67 204.574 1119.37 204.574 Q1117.56 204.574 1115.52 204.982 Q1113.52 205.389 1110.59 206.946 Q1107.7 208.503 1105.44 211.097 Q1103.22 213.654 1101.59 218.546 Q1099.96 223.401 1099.96 229.85 Q1099.96 236.225 1101.59 241.117 Q1103.22 246.009 1105.44 248.566 Q1107.7 251.087 1110.59 252.643 Q1113.52 254.2 1115.56 254.645 Q1117.63 255.052 1119.45 255.052 Q1125.97 255.052 1130.97 250.42 Q1135.97 245.787 1136.45 237.967 Q1136.53 237.596 1136.53 237.448 Q1136.53 237.263 1136.6 237.077 Q1136.68 236.892 1136.86 236.818 Q1137.05 236.744 1137.34 236.744 Q1138.34 236.744 1138.34 238.041 Q1138.34 245.268 1132.79 251.346 Q1127.27 257.387 1118.52 257.387 Q1107.74 257.387 1099.92 249.382 Q1092.14 241.376 1092.14 229.776 Z" fill="#000000" fill-rule="evenodd" fill-opacity="1" /><path clip-path="url(#clip980)" d="M1145.16 255.719 L1145.16 253.384 L1146.98 253.384 Q1151.09 253.384 1152.02 252.717 Q1152.98 252.013 1152.98 249.789 L1152.98 209.8 Q1152.98 207.613 1152.02 206.946 Q1151.05 206.242 1146.98 206.242 L1145.16 206.242 L1145.16 203.87 Q1147.83 204.092 1156.39 204.092 Q1164.87 204.092 1167.54 203.87 L1167.54 206.242 L1165.72 206.242 Q1161.61 206.242 1160.65 206.946 Q1159.72 207.613 1159.72 209.8 L1159.72 233.927 L1183.47 211.245 Q1184.84 210.022 1184.84 208.725 Q1184.84 208.28 1184.62 207.798 Q1184.44 207.28 1183.55 206.761 Q1182.69 206.242 1181.32 206.242 L1181.32 203.87 Q1183.92 204.092 1190.99 204.092 Q1195.48 204.092 1197.44 203.87 L1197.44 206.242 Q1191.14 206.316 1186.66 210.8 L1172.99 223.92 L1190.51 249.715 Q1192.11 252.05 1193.66 252.717 Q1195.22 253.384 1198.48 253.384 L1198.48 255.719 Q1193.7 255.497 1189.77 255.497 Q1181.58 255.497 1178.92 255.719 L1178.92 253.384 Q1183.4 253.384 1183.4 251.087 Q1183.4 250.234 1182.25 248.492 L1168.5 228.182 L1159.72 236.521 L1159.72 249.789 Q1159.72 251.976 1160.65 252.68 Q1161.61 253.384 1165.72 253.384 L1167.54 253.384 L1167.54 255.719 Q1164.87 255.497 1156.31 255.497 Q1147.83 255.497 1145.16 255.719 Z" fill="#000000" fill-rule="evenodd" fill-opacity="1" /><path clip-path="url(#clip980)" d="M1204.04 255.719 L1204.04 253.384 Q1210.78 253.236 1212.52 248.27 L1228.23 202.906 Q1228.53 201.98 1228.86 201.683 Q1229.19 201.387 1230.05 201.387 Q1230.49 201.387 1230.75 201.461 Q1231.05 201.535 1231.23 201.794 Q1231.42 202.054 1231.49 202.202 Q1231.57 202.35 1231.79 202.906 L1248.16 250.345 Q1248.76 252.236 1249.98 252.829 Q1251.2 253.384 1254.65 253.384 L1255.98 253.384 L1255.98 255.719 Q1251.2 255.497 1246.05 255.497 Q1237.86 255.497 1235.12 255.719 L1235.12 253.384 Q1241.42 253.384 1241.42 251.087 Q1241.42 250.938 1241.2 250.012 L1237.2 238.411 L1218.45 238.411 L1214.93 248.344 Q1214.78 248.641 1214.78 249.493 Q1214.78 251.087 1216.26 252.236 Q1217.75 253.384 1220.49 253.384 L1220.49 255.719 Q1213.19 255.497 1211.74 255.497 Q1209.26 255.497 1204.04 255.719 M1219.26 236.077 L1236.34 236.077 L1227.79 211.393 L1219.26 236.077 Z" fill="#000000" fill-rule="evenodd" fill-opacity="1" /><path clip-path="url(#clip980)" d="M1266.1 254.496 Q1265.02 253.273 1265.02 251.68 Q1265.02 250.086 1266.06 248.9 Q1267.13 247.677 1269.06 247.677 Q1271.32 247.677 1272.62 249.864 Q1273.92 252.013 1273.92 255.645 Q1273.92 259.574 1272.32 263.206 Q1270.73 266.875 1269.17 268.617 Q1267.62 270.359 1266.99 270.359 Q1266.25 270.359 1266.25 269.543 Q1266.25 269.247 1266.76 268.691 Q1272.21 262.835 1272.25 255.645 Q1272.25 254.496 1272.1 254.496 L1271.91 254.645 Q1270.62 255.719 1269.06 255.719 Q1267.17 255.719 1266.1 254.496 Z" fill="#000000" fill-rule="evenodd" fill-opacity="1" /><path clip-path="url(#clip980)" d="M1307 228.553 Q1307 228.479 1307.15 227.96 Q1307.34 227.404 1307.82 226.589 Q1308.3 225.736 1308.93 224.958 Q1309.6 224.143 1310.74 223.587 Q1311.89 222.994 1313.23 222.994 Q1313.37 222.994 1313.6 223.031 Q1313.86 223.068 1313.93 223.068 L1334.57 223.068 Q1335.57 223.068 1335.94 223.401 Q1336.31 223.698 1336.31 224.81 L1336.31 226.329 Q1336.31 227.404 1335.87 227.701 Q1335.46 227.997 1334.57 227.997 L1322.49 227.997 L1322.49 238.263 Q1322.49 250.79 1327.82 250.79 Q1329.05 250.79 1330.31 249.938 Q1331.6 249.048 1331.9 249.048 Q1333.12 249.048 1333.12 251.235 Q1333.12 253.347 1331.6 254.978 Q1330.09 256.572 1327.82 256.572 Q1325.38 256.572 1323.79 255.126 Q1322.19 253.681 1321.53 250.938 Q1320.9 248.196 1320.75 246.12 Q1320.6 244.045 1320.6 240.932 L1320.6 227.997 L1314.82 227.997 Q1314.6 227.997 1314.19 227.96 Q1313.78 227.923 1313.56 227.923 Q1311.45 227.923 1309.67 228.701 Q1307.93 229.443 1307.85 229.443 Q1307 229.48 1307 228.553 Z" fill="#000000" fill-rule="evenodd" fill-opacity="1" /><path clip-path="url(#clip980)" d="M1369.03 244.193 Q1369.1 243.267 1370.55 243.267 L1417.04 243.267 Q1419.23 243.267 1419.27 244.119 Q1419.27 245.046 1417.19 245.009 L1371.06 245.009 Q1369.03 245.046 1369.03 244.193 M1369.03 229.368 Q1369.03 228.442 1370.62 228.479 L1416.97 228.479 Q1419.23 228.479 1419.27 229.368 Q1419.27 230.221 1417.34 230.221 L1370.55 230.221 Q1369.03 230.221 1369.03 229.368 Z" fill="#000000" fill-rule="evenodd" fill-opacity="1" /><path clip-path="url(#clip980)" d="M1455.69 212.394 L1455.69 210.022 Q1464.8 210.022 1469.51 205.167 Q1470.81 205.167 1471.03 205.463 Q1471.25 205.76 1471.25 207.131 L1471.25 249.715 Q1471.25 251.976 1472.36 252.68 Q1473.47 253.384 1478.33 253.384 L1480.74 253.384 L1480.74 255.719 Q1478.07 255.497 1468.44 255.497 Q1458.8 255.497 1456.17 255.719 L1456.17 253.384 L1458.58 253.384 Q1463.36 253.384 1464.51 252.717 Q1465.66 252.013 1465.66 249.715 L1465.66 210.393 Q1461.69 212.394 1455.69 212.394 Z" fill="#000000" fill-rule="evenodd" fill-opacity="1" /><path clip-path="url(#clip980)" d="M1489.85 231.444 Q1489.85 220.288 1492.67 214.21 Q1496.59 205.167 1505.86 205.167 Q1507.82 205.167 1509.86 205.723 Q1511.93 206.242 1514.53 208.28 Q1517.16 210.319 1518.75 213.654 Q1521.79 220.103 1521.79 231.444 Q1521.79 242.525 1518.97 248.566 Q1514.86 257.387 1505.78 257.387 Q1502.37 257.387 1498.89 255.645 Q1495.45 253.903 1493.26 249.715 Q1489.85 243.452 1489.85 231.444 M1496.15 230.517 Q1496.15 241.969 1496.96 246.528 Q1497.89 251.457 1500.41 253.607 Q1502.97 255.719 1505.78 255.719 Q1508.82 255.719 1511.34 253.459 Q1513.9 251.161 1514.68 246.232 Q1515.53 241.376 1515.49 230.517 Q1515.49 219.955 1514.75 215.73 Q1513.75 210.8 1511.08 208.836 Q1508.45 206.835 1505.78 206.835 Q1504.78 206.835 1503.71 207.131 Q1502.67 207.428 1501.15 208.28 Q1499.63 209.133 1498.45 211.245 Q1497.3 213.358 1496.74 216.545 Q1496.15 220.659 1496.15 230.517 Z" fill="#000000" fill-rule="evenodd" fill-opacity="1" /><path clip-path="url(#clip980)" d="M1527.79 231.444 Q1527.79 220.288 1530.61 214.21 Q1534.53 205.167 1543.8 205.167 Q1545.76 205.167 1547.8 205.723 Q1549.87 206.242 1552.47 208.28 Q1555.1 210.319 1556.69 213.654 Q1559.73 220.103 1559.73 231.444 Q1559.73 242.525 1556.91 248.566 Q1552.8 257.387 1543.72 257.387 Q1540.32 257.387 1536.83 255.645 Q1533.39 253.903 1531.2 249.715 Q1527.79 243.452 1527.79 231.444 M1534.09 230.517 Q1534.09 241.969 1534.91 246.528 Q1535.83 251.457 1538.35 253.607 Q1540.91 255.719 1543.72 255.719 Q1546.76 255.719 1549.28 253.459 Q1551.84 251.161 1552.62 246.232 Q1553.47 241.376 1553.43 230.517 Q1553.43 219.955 1552.69 215.73 Q1551.69 210.8 1549.02 208.836 Q1546.39 206.835 1543.72 206.835 Q1542.72 206.835 1541.65 207.131 Q1540.61 207.428 1539.09 208.28 Q1537.57 209.133 1536.39 211.245 Q1535.24 213.358 1534.68 216.545 Q1534.09 220.659 1534.09 230.517 Z" fill="#000000" fill-rule="evenodd" fill-opacity="1" /><path clip-path="url(#clip980)" d="M1030.05 345.976 L996.79 326.772 L996.79 288.365 L1030.05 269.162 L1063.31 288.365 L1063.31 326.772 Z" fill="#f6cf71" fill-rule="evenodd" fill-opacity="1" stroke="#000000" stroke-opacity="1" stroke-width="5.0592"/>
<path clip-path="url(#clip980)" d="M1092.14 333.494 L1092.14 331.159 L1093.96 331.159 Q1098.07 331.159 1099 330.492 Q1099.96 329.788 1099.96 327.564 L1099.96 287.574 Q1099.96 285.387 1099 284.72 Q1098.03 284.016 1093.96 284.016 L1092.14 284.016 L1092.14 281.644 L1119.89 281.644 Q1127.12 281.644 1131.93 285.536 Q1136.75 289.39 1136.75 294.468 Q1136.75 298.656 1133.19 301.991 Q1129.67 305.327 1124.15 306.401 Q1130.45 307.069 1134.6 310.886 Q1138.79 314.666 1138.79 319.596 Q1138.79 325.155 1134.01 329.343 Q1129.23 333.494 1121.89 333.494 L1092.14 333.494 M1106.26 328.12 Q1106.26 330.084 1106.81 330.64 Q1107.37 331.159 1109.96 331.159 L1119.45 331.159 Q1124.89 331.159 1128.04 327.601 Q1131.19 324.006 1131.19 319.521 Q1131.19 315.037 1128.41 311.22 Q1125.67 307.365 1120.52 307.365 L1106.26 307.365 L1106.26 328.12 M1106.26 305.697 L1117.26 305.697 Q1123.12 305.697 1126.23 302.176 Q1129.38 298.656 1129.38 294.468 Q1129.38 290.761 1126.86 287.389 Q1124.38 284.016 1119.37 284.016 L1109.96 284.016 Q1107.37 284.016 1106.81 284.535 Q1106.26 285.054 1106.26 287.055 L1106.26 305.697 Z" fill="#000000" fill-rule="evenodd" fill-opacity="1" /><path clip-path="url(#clip980)" d="M1145.75 333.494 L1145.75 331.159 L1147.57 331.159 Q1151.68 331.159 1152.61 330.492 Q1153.57 329.788 1153.57 327.564 L1153.57 287.574 Q1153.57 285.387 1152.61 284.72 Q1151.65 284.016 1147.57 284.016 L1145.75 284.016 L1145.75 281.644 L1172.54 281.644 Q1180.21 281.644 1185.33 285.869 Q1190.44 290.094 1190.44 295.765 Q1190.44 301.398 1185.21 305.475 Q1180.03 309.515 1173.14 309.515 L1160.32 309.515 L1160.32 327.564 Q1160.32 329.75 1161.24 330.455 Q1162.2 331.159 1166.32 331.159 L1168.13 331.159 L1168.13 333.494 Q1165.47 333.271 1156.91 333.271 Q1148.42 333.271 1145.75 333.494 M1160.09 307.55 L1170.54 307.55 Q1173.95 307.55 1176.43 306.587 Q1178.92 305.623 1180.03 304.474 Q1181.18 303.288 1181.81 301.398 Q1182.47 299.471 1182.55 298.433 Q1182.62 297.358 1182.62 295.765 Q1182.62 294.097 1182.55 293.059 Q1182.47 291.984 1181.81 290.094 Q1181.18 288.167 1180.03 287.018 Q1178.92 285.832 1176.43 284.943 Q1173.99 284.016 1170.54 284.016 L1163.8 284.016 Q1161.2 284.016 1160.65 284.535 Q1160.09 285.054 1160.09 287.055 L1160.09 307.55 Z" fill="#000000" fill-rule="evenodd" fill-opacity="1" /><path clip-path="url(#clip980)" d="M1190.81 333.494 L1190.81 331.159 Q1197.55 331.011 1199.29 326.044 L1215 280.681 Q1215.3 279.754 1215.63 279.458 Q1215.97 279.161 1216.82 279.161 Q1217.26 279.161 1217.52 279.235 Q1217.82 279.309 1218 279.569 Q1218.19 279.828 1218.26 279.976 Q1218.34 280.125 1218.56 280.681 L1234.94 328.12 Q1235.53 330.01 1236.75 330.603 Q1237.98 331.159 1241.42 331.159 L1242.75 331.159 L1242.75 333.494 Q1237.98 333.271 1232.83 333.271 Q1224.64 333.271 1221.89 333.494 L1221.89 331.159 Q1228.19 331.159 1228.19 328.861 Q1228.19 328.713 1227.97 327.786 L1223.97 316.186 L1205.22 316.186 L1201.7 326.118 Q1201.55 326.415 1201.55 327.267 Q1201.55 328.861 1203.04 330.01 Q1204.52 331.159 1207.26 331.159 L1207.26 333.494 Q1199.96 333.271 1198.52 333.271 Q1196.03 333.271 1190.81 333.494 M1206.04 313.851 L1223.12 313.851 L1214.56 289.168 L1206.04 313.851 Z" fill="#000000" fill-rule="evenodd" fill-opacity="1" /><path clip-path="url(#clip980)" d="M1250.2 300.027 Q1250.2 298.73 1251.94 297.877 L1262.5 292.874 L1251.8 287.871 Q1250.2 287.129 1250.2 285.832 Q1250.2 285.091 1250.79 284.424 Q1251.42 283.72 1252.24 283.72 Q1252.83 283.72 1253.91 284.535 L1263.32 291.354 Q1262.17 278.827 1262.21 278.457 Q1262.21 277.716 1262.76 277.16 Q1263.32 276.567 1264.24 276.567 Q1264.99 276.567 1265.58 277.123 Q1266.21 277.641 1266.21 278.457 L1265.1 291.354 L1273.51 285.128 Q1275.47 283.683 1276.18 283.72 Q1277.03 283.72 1277.62 284.387 Q1278.21 285.054 1278.21 285.832 Q1278.21 287.129 1276.47 287.945 L1265.91 292.948 L1276.62 297.988 Q1278.21 298.73 1278.21 300.027 Q1278.21 300.768 1277.58 301.472 Q1276.99 302.139 1276.18 302.139 Q1275.73 302.139 1274.95 301.695 Q1274.8 301.621 1273.21 300.435 Q1271.62 299.249 1269.14 297.433 Q1266.69 295.616 1265.1 294.468 Q1266.25 306.994 1266.21 307.365 Q1266.21 308.106 1265.65 308.699 Q1265.1 309.292 1264.17 309.292 Q1263.43 309.292 1262.8 308.773 Q1262.21 308.218 1262.21 307.365 L1263.32 294.468 L1252.72 302.139 Q1251.57 302.139 1250.94 301.583 Q1250.35 300.99 1250.28 300.657 Q1250.2 300.323 1250.2 300.027 Z" fill="#000000" fill-rule="evenodd" fill-opacity="1" /></svg>
