<?xml version="1.0" encoding="utf-8"?>
<svg xmlns="http://www.w3.org/2000/svg" xmlns:xlink="http://www.w3.org/1999/xlink" width="426.75" height="263.5" viewBox="0 0 1707 1054">
<defs>
  <clipPath id="clip660">
    <rect x="0" y="0" width="1707" height="1054"/>
  </clipPath>
</defs>
<path clip-path="url(#clip660)" d="M0 1054 L1707 1054 L1707 0 L0 0  Z" fill="#ffffff" fill-rule="evenodd" fill-opacity="1"/>
<defs>
  <clipPath id="clip661">
    <rect x="341" y="0" width="1196" height="1054"/>
  </clipPath>
</defs>
<path clip-path="url(#clip660)" d="M262.739 857.047 L1659.76 857.047 L1659.76 47.2528 L262.739 47.2528  Z" fill="#ffffff" fill-rule="evenodd" fill-opacity="1"/>
<defs>
  <clipPath id="clip662">
    <rect x="262" y="47" width="1398" height="811"/>
  </clipPath>
</defs>
<polyline clip-path="url(#clip662)" style="stroke:#000000; stroke-linecap:round; stroke-linejoin:round; stroke-width:2.00037; stroke-opacity:0.1; fill:none" points="302.278,857.047 302.278,47.2528 "/>
<polyline clip-path="url(#clip662)" style="stroke:#000000; stroke-linecap:round; stroke-linejoin:round; stroke-width:2.00037; stroke-opacity:0.1; fill:none" points="658.58,857.047 658.58,47.2528 "/>
<polyline clip-path="url(#clip662)" style="stroke:#000000; stroke-linecap:round; stroke-linejoin:round; stroke-width:2.00037; stroke-opacity:0.1; fill:none" points="1014.88,857.047 1014.88,47.2528 "/>
<polyline clip-path="url(#clip662)" style="stroke:#000000; stroke-linecap:round; stroke-linejoin:round; stroke-width:2.00037; stroke-opacity:0.1; fill:none" points="1371.18,857.047 1371.18,47.2528 "/>
<polyline clip-path="url(#clip660)" style="stroke:#000000; stroke-linecap:round; stroke-linejoin:round; stroke-width:4.00074; stroke-opacity:1; fill:none" points="262.739,857.047 1659.76,857.047 "/>
<polyline clip-path="url(#clip660)" style="stroke:#000000; stroke-linecap:round; stroke-linejoin:round; stroke-width:4.00074; stroke-opacity:1; fill:none" points="262.739,47.2528 1659.76,47.2528 "/>
<polyline clip-path="url(#clip660)" style="stroke:#000000; stroke-linecap:round; stroke-linejoin:round; stroke-width:4.00074; stroke-opacity:1; fill:none" points="302.278,857.047 302.278,838.146 "/>
<polyline clip-path="url(#clip660)" style="stroke:#000000; stroke-linecap:round; stroke-linejoin:round; stroke-width:4.00074; stroke-opacity:1; fill:none" points="658.58,857.047 658.58,838.146 "/>
<polyline clip-path="url(#clip660)" style="stroke:#000000; stroke-linecap:round; stroke-linejoin:round; stroke-width:4.00074; stroke-opacity:1; fill:none" points="1014.88,857.047 1014.88,838.146 "/>
<polyline clip-path="url(#clip660)" style="stroke:#000000; stroke-linecap:round; stroke-linejoin:round; stroke-width:4.00074; stroke-opacity:1; fill:none" points="1371.18,857.047 1371.18,838.146 "/>
<path clip-path="url(#clip660)" d="M260.088 911.94 L260.088 909.765 Q268.443 909.765 272.757 905.315 Q273.945 905.315 274.149 905.587 Q274.353 905.858 274.353 907.115 L274.353 946.151 Q274.353 948.223 275.372 948.869 Q276.391 949.514 280.84 949.514 L283.048 949.514 L283.048 951.654 Q280.602 951.451 271.772 951.451 Q262.941 951.451 260.53 951.654 L260.53 949.514 L262.737 949.514 Q267.119 949.514 268.171 948.903 Q269.224 948.257 269.224 946.151 L269.224 910.105 Q265.59 911.94 260.088 911.94 Z" fill="#000000" fill-rule="evenodd" fill-opacity="1" /><path clip-path="url(#clip660)" d="M291.403 929.402 Q291.403 919.176 293.984 913.604 Q297.584 905.315 306.075 905.315 Q307.875 905.315 309.743 905.824 Q311.645 906.3 314.023 908.168 Q316.434 910.037 317.895 913.095 Q320.68 919.006 320.68 929.402 Q320.68 939.56 318.098 945.098 Q314.328 953.183 306.007 953.183 Q302.883 953.183 299.69 951.586 Q296.531 949.99 294.527 946.151 Q291.403 940.409 291.403 929.402 M297.177 928.553 Q297.177 939.05 297.924 943.229 Q298.773 947.747 301.082 949.718 Q303.426 951.654 306.007 951.654 Q308.792 951.654 311.102 949.582 Q313.445 947.476 314.159 942.957 Q314.94 938.507 314.906 928.553 Q314.906 918.87 314.226 914.997 Q313.309 910.479 310.864 908.678 Q308.453 906.844 306.007 906.844 Q305.09 906.844 304.105 907.115 Q303.154 907.387 301.762 908.168 Q300.369 908.95 299.282 910.886 Q298.229 912.823 297.72 915.745 Q297.177 919.516 297.177 928.553 Z" fill="#000000" fill-rule="evenodd" fill-opacity="1" /><path clip-path="url(#clip660)" d="M320.68 895.878 Q320.68 887.569 322.777 883.042 Q325.702 876.307 332.601 876.307 Q334.063 876.307 335.581 876.721 Q337.127 877.108 339.058 878.626 Q341.018 880.144 342.204 882.628 Q344.467 887.431 344.467 895.878 Q344.467 904.131 342.37 908.631 Q339.307 915.2 332.546 915.2 Q330.007 915.2 327.413 913.903 Q324.847 912.606 323.218 909.486 Q320.68 904.821 320.68 895.878 M325.371 895.188 Q325.371 903.717 325.978 907.113 Q326.668 910.784 328.544 912.385 Q330.448 913.958 332.546 913.958 Q334.809 913.958 336.685 912.274 Q338.589 910.563 339.169 906.892 Q339.803 903.276 339.776 895.188 Q339.776 887.321 339.224 884.174 Q338.479 880.503 336.492 879.04 Q334.533 877.549 332.546 877.549 Q331.801 877.549 331 877.77 Q330.228 877.991 329.096 878.626 Q327.965 879.261 327.082 880.834 Q326.226 882.408 325.812 884.781 Q325.371 887.845 325.371 895.188 Z" fill="#000000" fill-rule="evenodd" fill-opacity="1" /><path clip-path="url(#clip660)" d="M618.957 911.94 L618.957 909.765 Q627.312 909.765 631.625 905.315 Q632.814 905.315 633.018 905.587 Q633.221 905.858 633.221 907.115 L633.221 946.151 Q633.221 948.223 634.24 948.869 Q635.259 949.514 639.708 949.514 L641.916 949.514 L641.916 951.654 Q639.471 951.451 630.64 951.451 Q621.81 951.451 619.398 951.654 L619.398 949.514 L621.606 949.514 Q625.987 949.514 627.04 948.903 Q628.093 948.257 628.093 946.151 L628.093 910.105 Q624.459 911.94 618.957 911.94 Z" fill="#000000" fill-rule="evenodd" fill-opacity="1" /><path clip-path="url(#clip660)" d="M650.271 929.402 Q650.271 919.176 652.852 913.604 Q656.453 905.315 664.944 905.315 Q666.744 905.315 668.612 905.824 Q670.514 906.3 672.891 908.168 Q675.303 910.037 676.763 913.095 Q679.548 919.006 679.548 929.402 Q679.548 939.56 676.967 945.098 Q673.197 953.183 664.876 953.183 Q661.751 953.183 658.558 951.586 Q655.4 949.99 653.396 946.151 Q650.271 940.409 650.271 929.402 M656.045 928.553 Q656.045 939.05 656.792 943.229 Q657.641 947.747 659.951 949.718 Q662.294 951.654 664.876 951.654 Q667.661 951.654 669.97 949.582 Q672.314 947.476 673.027 942.957 Q673.808 938.507 673.774 928.553 Q673.774 918.87 673.095 914.997 Q672.178 910.479 669.732 908.678 Q667.321 906.844 664.876 906.844 Q663.959 906.844 662.974 907.115 Q662.023 907.387 660.63 908.168 Q659.238 908.95 658.151 910.886 Q657.098 912.823 656.588 915.745 Q656.045 919.516 656.045 928.553 Z" fill="#000000" fill-rule="evenodd" fill-opacity="1" /><path clip-path="url(#clip660)" d="M679.548 881.69 L679.548 879.923 Q686.337 879.923 689.841 876.307 Q690.807 876.307 690.973 876.528 Q691.138 876.749 691.138 877.77 L691.138 909.486 Q691.138 911.17 691.966 911.695 Q692.794 912.219 696.409 912.219 L698.203 912.219 L698.203 913.958 Q696.216 913.793 689.041 913.793 Q681.866 913.793 679.907 913.958 L679.907 912.219 L681.7 912.219 Q685.26 912.219 686.116 911.722 Q686.971 911.198 686.971 909.486 L686.971 880.199 Q684.019 881.69 679.548 881.69 Z" fill="#000000" fill-rule="evenodd" fill-opacity="1" /><path clip-path="url(#clip660)" d="M973.299 911.94 L973.299 909.765 Q981.654 909.765 985.968 905.315 Q987.157 905.315 987.36 905.587 Q987.564 905.858 987.564 907.115 L987.564 946.151 Q987.564 948.223 988.583 948.869 Q989.602 949.514 994.051 949.514 L996.259 949.514 L996.259 951.654 Q993.813 951.451 984.983 951.451 Q976.152 951.451 973.741 951.654 L973.741 949.514 L975.948 949.514 Q980.33 949.514 981.383 948.903 Q982.436 948.257 982.436 946.151 L982.436 910.105 Q978.801 911.94 973.299 911.94 Z" fill="#000000" fill-rule="evenodd" fill-opacity="1" /><path clip-path="url(#clip660)" d="M1004.61 929.402 Q1004.61 919.176 1007.2 913.604 Q1010.8 905.315 1019.29 905.315 Q1021.09 905.315 1022.95 905.824 Q1024.86 906.3 1027.23 908.168 Q1029.65 910.037 1031.11 913.095 Q1033.89 919.006 1033.89 929.402 Q1033.89 939.56 1031.31 945.098 Q1027.54 953.183 1019.22 953.183 Q1016.09 953.183 1012.9 951.586 Q1009.74 949.99 1007.74 946.151 Q1004.61 940.409 1004.61 929.402 M1010.39 928.553 Q1010.39 939.05 1011.14 943.229 Q1011.98 947.747 1014.29 949.718 Q1016.64 951.654 1019.22 951.654 Q1022 951.654 1024.31 949.582 Q1026.66 947.476 1027.37 942.957 Q1028.15 938.507 1028.12 928.553 Q1028.12 918.87 1027.44 914.997 Q1026.52 910.479 1024.08 908.678 Q1021.66 906.844 1019.22 906.844 Q1018.3 906.844 1017.32 907.115 Q1016.37 907.387 1014.97 908.168 Q1013.58 908.95 1012.49 910.886 Q1011.44 912.823 1010.93 915.745 Q1010.39 919.516 1010.39 928.553 Z" fill="#000000" fill-rule="evenodd" fill-opacity="1" /><path clip-path="url(#clip660)" d="M1033.89 913.958 Q1033.89 912.937 1033.97 912.633 Q1034.08 912.33 1034.53 911.86 L1045.37 899.77 Q1051.3 893.09 1051.3 887.266 Q1051.3 883.484 1049.32 880.779 Q1047.36 878.074 1043.74 878.074 Q1041.26 878.074 1039.16 879.592 Q1037.06 881.11 1036.1 883.815 Q1036.26 883.76 1036.84 883.76 Q1038.25 883.76 1039.02 884.643 Q1039.82 885.527 1039.82 886.714 Q1039.82 888.232 1038.83 888.977 Q1037.86 889.695 1036.9 889.695 Q1036.51 889.695 1035.99 889.612 Q1035.49 889.529 1034.69 888.756 Q1033.89 887.956 1033.89 886.548 Q1033.89 882.601 1036.87 879.454 Q1039.88 876.307 1044.46 876.307 Q1049.65 876.307 1053.04 879.399 Q1056.46 882.463 1056.46 887.266 Q1056.46 888.95 1055.94 890.495 Q1055.44 892.013 1054.75 893.2 Q1054.09 894.387 1052.27 896.292 Q1050.45 898.197 1048.99 899.549 Q1047.52 900.902 1044.24 903.773 L1038.25 909.597 L1048.43 909.597 Q1053.4 909.597 1053.79 909.155 Q1054.34 908.355 1055.03 904.131 L1056.46 904.131 L1054.86 913.958 L1033.89 913.958 Z" fill="#000000" fill-rule="evenodd" fill-opacity="1" /><path clip-path="url(#clip660)" d="M1329.16 911.94 L1329.16 909.765 Q1337.51 909.765 1341.83 905.315 Q1343.02 905.315 1343.22 905.587 Q1343.42 905.858 1343.42 907.115 L1343.42 946.151 Q1343.42 948.223 1344.44 948.869 Q1345.46 949.514 1349.91 949.514 L1352.12 949.514 L1352.12 951.654 Q1349.67 951.451 1340.84 951.451 Q1332.01 951.451 1329.6 951.654 L1329.6 949.514 L1331.81 949.514 Q1336.19 949.514 1337.24 948.903 Q1338.3 948.257 1338.3 946.151 L1338.3 910.105 Q1334.66 911.94 1329.16 911.94 Z" fill="#000000" fill-rule="evenodd" fill-opacity="1" /><path clip-path="url(#clip660)" d="M1360.47 929.402 Q1360.47 919.176 1363.06 913.604 Q1366.66 905.315 1375.15 905.315 Q1376.95 905.315 1378.81 905.824 Q1380.72 906.3 1383.09 908.168 Q1385.51 910.037 1386.97 913.095 Q1389.75 919.006 1389.75 929.402 Q1389.75 939.56 1387.17 945.098 Q1383.4 953.183 1375.08 953.183 Q1371.95 953.183 1368.76 951.586 Q1365.6 949.99 1363.6 946.151 Q1360.47 940.409 1360.47 929.402 M1366.25 928.553 Q1366.25 939.05 1367 943.229 Q1367.84 947.747 1370.15 949.718 Q1372.5 951.654 1375.08 951.654 Q1377.86 951.654 1380.17 949.582 Q1382.52 947.476 1383.23 942.957 Q1384.01 938.507 1383.98 928.553 Q1383.98 918.87 1383.3 914.997 Q1382.38 910.479 1379.94 908.678 Q1377.52 906.844 1375.08 906.844 Q1374.16 906.844 1373.18 907.115 Q1372.23 907.387 1370.83 908.168 Q1369.44 908.95 1368.35 910.886 Q1367.3 912.823 1366.79 915.745 Q1366.25 919.516 1366.25 928.553 Z" fill="#000000" fill-rule="evenodd" fill-opacity="1" /><path clip-path="url(#clip660)" d="M1389.75 906.34 Q1389.75 904.656 1390.72 903.855 Q1391.68 903.055 1392.92 903.055 Q1394.22 903.055 1395.13 903.911 Q1396.07 904.739 1396.07 906.202 Q1396.07 907.775 1394.97 908.658 Q1393.89 909.542 1392.35 909.321 Q1393.7 911.584 1396.18 912.606 Q1398.69 913.627 1401.01 913.627 Q1403.44 913.627 1405.4 911.529 Q1407.38 909.431 1407.38 904.297 Q1407.38 899.936 1405.67 897.424 Q1403.99 894.912 1400.65 894.912 L1398.17 894.912 Q1397.31 894.912 1397.06 894.829 Q1396.82 894.746 1396.82 894.277 Q1396.82 893.725 1397.67 893.614 Q1398.53 893.614 1399.88 893.449 Q1403.16 893.338 1404.9 890.495 Q1406.47 887.845 1406.47 884.064 Q1406.47 880.613 1404.82 879.178 Q1403.19 877.715 1401.07 877.715 Q1399.08 877.715 1396.9 878.543 Q1394.72 879.371 1393.53 881.221 Q1397.04 881.221 1397.04 884.064 Q1397.04 885.306 1396.24 886.134 Q1395.46 886.934 1394.17 886.934 Q1392.92 886.934 1392.1 886.162 Q1391.27 885.361 1391.27 884.009 Q1391.27 880.779 1394.14 878.543 Q1397.04 876.307 1401.29 876.307 Q1405.48 876.307 1408.57 878.515 Q1411.69 880.724 1411.69 884.119 Q1411.69 887.459 1409.48 890.192 Q1407.27 892.924 1403.77 894.056 Q1408.07 894.912 1410.64 897.838 Q1413.21 900.736 1413.21 904.297 Q1413.21 908.714 1409.73 911.971 Q1406.25 915.2 1401.18 915.2 Q1396.48 915.2 1393.12 912.661 Q1389.75 910.121 1389.75 906.34 Z" fill="#000000" fill-rule="evenodd" fill-opacity="1" /><path clip-path="url(#clip660)" d="M767.637 1007.19 L769.083 990.143 L815.434 990.143 L816.879 1007.19 L814.989 1007.19 Q814.693 1003.78 814.396 1001.82 Q814.137 999.853 813.47 998 Q812.84 996.11 812.025 995.22 Q811.247 994.294 809.728 993.59 Q808.209 992.848 806.245 992.663 Q804.281 992.478 801.317 992.478 Q797.834 992.478 796.982 992.626 Q796.056 992.848 795.834 993.516 Q795.611 994.146 795.611 995.517 L795.611 1035.51 Q795.611 1037.03 795.908 1037.66 Q796.241 1038.25 797.983 1038.73 Q799.724 1039.18 803.577 1039.18 L806.616 1039.18 L806.616 1041.51 Q803.503 1041.29 792.203 1041.29 Q780.976 1041.29 777.864 1041.51 L777.864 1039.18 L780.902 1039.18 Q784.755 1039.18 786.497 1038.73 Q788.275 1038.25 788.572 1037.66 Q788.868 1037.03 788.868 1035.51 L788.868 995.517 Q788.868 994.442 788.794 993.997 Q788.72 993.553 788.386 993.182 Q788.053 992.774 787.275 992.626 Q786.534 992.478 783.199 992.478 Q780.235 992.478 778.234 992.663 Q776.27 992.848 774.751 993.59 Q773.232 994.294 772.417 995.22 Q771.639 996.11 770.972 998 Q770.342 999.853 770.083 1001.82 Q769.824 1003.78 769.527 1007.19 L767.637 1007.19 Z" fill="#000000" fill-rule="evenodd" fill-opacity="1" /><path clip-path="url(#clip660)" d="M822.103 1041.51 L822.103 1039.18 Q826.142 1039.18 827.068 1038.69 Q827.994 1038.18 827.994 1035.73 L827.994 996.258 Q827.994 993.441 826.994 992.737 Q826.031 992.033 822.103 992.033 L822.103 989.661 L832.996 988.846 L832.996 1015.23 L833.07 1015.23 Q834.293 1012.49 837.035 1010.23 Q839.777 1007.97 844.001 1007.97 Q849.706 1007.97 851.967 1010.79 Q853.634 1012.68 853.967 1014.79 Q854.338 1016.9 854.338 1022.39 L854.338 1036.88 Q854.412 1038.47 855.635 1038.84 Q856.857 1039.18 860.266 1039.18 L860.266 1041.51 Q852.522 1041.29 851.744 1041.29 Q851.151 1041.29 843.185 1041.51 L843.185 1039.18 Q847.224 1039.18 848.15 1038.69 Q849.114 1038.18 849.114 1035.73 L849.114 1018.05 Q849.114 1014.2 847.928 1011.94 Q846.742 1009.64 843.482 1009.64 Q839.554 1009.64 836.405 1012.94 Q833.256 1016.23 833.256 1021.79 L833.256 1035.73 Q833.256 1038.18 834.182 1038.69 Q835.145 1039.18 839.147 1039.18 L839.147 1041.51 Q831.403 1041.29 830.662 1041.29 Q830.069 1041.29 822.103 1041.51 Z" fill="#000000" fill-rule="evenodd" fill-opacity="1" /><path clip-path="url(#clip660)" d="M863.86 1041.51 L863.86 1039.18 Q867.899 1039.18 868.825 1038.69 Q869.788 1038.18 869.788 1035.73 L869.788 1015.38 Q869.788 1012.57 868.788 1011.86 Q867.825 1011.16 863.86 1011.16 L863.86 1008.79 L874.42 1007.97 L874.42 1016.31 Q875.494 1013.05 877.754 1010.53 Q880.052 1007.97 883.757 1007.97 Q886.202 1007.97 887.758 1009.34 Q889.352 1010.71 889.352 1012.6 Q889.352 1014.27 888.314 1015.12 Q887.314 1015.94 886.091 1015.94 Q884.72 1015.94 883.757 1015.09 Q882.83 1014.2 882.83 1012.68 Q882.83 1011.75 883.238 1011.05 Q883.683 1010.3 884.016 1010.05 Q884.35 1009.79 884.572 1009.71 Q884.424 1009.64 883.757 1009.64 Q879.57 1009.64 877.162 1013.83 Q874.79 1017.98 874.79 1023.91 L874.79 1035.58 Q874.79 1037.77 875.68 1038.47 Q876.606 1039.18 880.57 1039.18 L882.164 1039.18 L882.164 1041.51 Q879.125 1041.29 872.53 1041.29 Q871.604 1041.29 870.159 1041.33 Q868.714 1041.36 866.824 1041.44 Q864.935 1041.51 863.86 1041.51 Z" fill="#000000" fill-rule="evenodd" fill-opacity="1" /><path clip-path="url(#clip660)" d="M893.501 1024.8 Q893.501 1017.64 898.096 1012.57 Q902.69 1007.49 909.285 1007.49 Q915.954 1007.49 919.4 1011.82 Q922.883 1016.16 922.883 1022.39 Q922.883 1023.54 922.587 1023.76 Q922.29 1023.98 920.993 1023.98 L899.8 1023.98 Q899.8 1031.73 902.097 1035.36 Q905.284 1040.44 910.656 1040.44 Q911.397 1040.44 912.286 1040.29 Q913.176 1040.14 914.991 1039.51 Q916.807 1038.84 918.4 1037.1 Q919.993 1035.36 920.919 1032.62 Q921.142 1031.54 921.883 1031.58 Q922.883 1031.58 922.883 1032.47 Q922.883 1033.13 922.142 1034.65 Q921.438 1036.14 920.067 1037.92 Q918.696 1039.69 916.029 1041.03 Q913.398 1042.36 910.211 1042.36 Q903.542 1042.36 898.503 1037.32 Q893.501 1032.25 893.501 1024.8 M899.874 1022.39 L917.881 1022.39 Q917.881 1020.79 917.585 1019.01 Q917.325 1017.24 916.51 1014.79 Q915.732 1012.31 913.88 1010.75 Q912.027 1009.19 909.285 1009.19 Q908.062 1009.19 906.729 1009.71 Q905.432 1010.23 903.839 1011.49 Q902.245 1012.75 901.134 1015.6 Q900.022 1018.46 899.874 1022.39 Z" fill="#000000" fill-rule="evenodd" fill-opacity="1" /><path clip-path="url(#clip660)" d="M927.589 1040.51 L927.589 1030.5 Q927.589 1029.65 927.626 1029.35 Q927.663 1029.06 927.885 1028.84 Q928.107 1028.61 928.552 1028.61 Q929.071 1028.61 929.256 1028.84 Q929.478 1029.06 929.626 1029.91 Q930.775 1035.14 933.22 1037.92 Q935.703 1040.66 940.186 1040.66 Q944.447 1040.66 946.596 1038.77 Q948.745 1036.88 948.745 1033.76 Q948.745 1028.21 940.853 1026.8 Q936.296 1025.87 934.406 1025.28 Q932.516 1024.65 930.849 1023.28 Q927.589 1020.61 927.589 1016.83 Q927.589 1013.05 930.442 1010.27 Q933.332 1007.49 939.704 1007.49 Q943.965 1007.49 946.855 1009.64 Q947.708 1008.97 948.152 1008.41 Q949.153 1007.49 949.671 1007.49 Q950.264 1007.49 950.375 1007.9 Q950.486 1008.27 950.486 1009.34 L950.486 1016.98 Q950.486 1017.83 950.449 1018.12 Q950.412 1018.42 950.19 1018.64 Q949.968 1018.83 949.486 1018.83 Q948.634 1018.83 948.597 1018.12 Q948.004 1008.93 939.704 1008.93 Q935.221 1008.93 933.22 1010.68 Q931.22 1012.38 931.22 1014.72 Q931.22 1016.01 931.812 1017.01 Q932.442 1017.98 933.22 1018.57 Q934.036 1019.13 935.518 1019.68 Q937 1020.2 937.889 1020.39 Q938.815 1020.57 940.557 1020.94 Q946.633 1022.09 949.19 1024.57 Q952.376 1027.76 952.376 1031.8 Q952.376 1036.29 949.338 1039.32 Q946.3 1042.36 940.186 1042.36 Q935.258 1042.36 931.812 1039.06 Q931.368 1039.51 931.034 1039.92 Q930.701 1040.29 930.553 1040.44 Q930.442 1040.58 930.405 1040.7 Q930.367 1040.77 930.293 1040.84 Q928.774 1042.36 928.404 1042.36 Q927.811 1042.36 927.7 1041.96 Q927.589 1041.58 927.589 1040.51 Z" fill="#000000" fill-rule="evenodd" fill-opacity="1" /><path clip-path="url(#clip660)" d="M957.378 1041.51 L957.378 1039.18 Q961.417 1039.18 962.343 1038.69 Q963.269 1038.18 963.269 1035.73 L963.269 996.258 Q963.269 993.441 962.269 992.737 Q961.305 992.033 957.378 992.033 L957.378 989.661 L968.271 988.846 L968.271 1015.23 L968.345 1015.23 Q969.568 1012.49 972.31 1010.23 Q975.052 1007.97 979.275 1007.97 Q984.981 1007.97 987.241 1010.79 Q988.909 1012.68 989.242 1014.79 Q989.613 1016.9 989.613 1022.39 L989.613 1036.88 Q989.687 1038.47 990.91 1038.84 Q992.132 1039.18 995.541 1039.18 L995.541 1041.51 Q987.797 1041.29 987.019 1041.29 Q986.426 1041.29 978.46 1041.51 L978.46 1039.18 Q982.499 1039.18 983.425 1038.69 Q984.388 1038.18 984.388 1035.73 L984.388 1018.05 Q984.388 1014.2 983.203 1011.94 Q982.017 1009.64 978.757 1009.64 Q974.829 1009.64 971.68 1012.94 Q968.53 1016.23 968.53 1021.79 L968.53 1035.73 Q968.53 1038.18 969.457 1038.69 Q970.42 1039.18 974.422 1039.18 L974.422 1041.51 Q966.678 1041.29 965.937 1041.29 Q965.344 1041.29 957.378 1041.51 Z" fill="#000000" fill-rule="evenodd" fill-opacity="1" /><path clip-path="url(#clip660)" d="M1004.14 1037.43 Q999.135 1032.47 999.135 1025.28 Q999.135 1018.05 1004.03 1012.79 Q1008.95 1007.49 1015.99 1007.49 Q1022.88 1007.49 1027.81 1012.75 Q1032.78 1017.98 1032.78 1025.28 Q1032.78 1032.43 1027.78 1037.4 Q1022.81 1042.36 1015.92 1042.36 Q1009.18 1042.36 1004.14 1037.43 M1005.43 1024.65 Q1005.43 1032.02 1007.36 1035.36 Q1010.32 1040.44 1015.99 1040.44 Q1018.81 1040.44 1021.14 1038.92 Q1023.51 1037.4 1024.81 1034.84 Q1026.48 1031.5 1026.48 1024.65 Q1026.48 1017.35 1024.48 1014.12 Q1021.51 1009.19 1015.92 1009.19 Q1013.47 1009.19 1011.07 1010.49 Q1008.69 1011.75 1007.25 1014.27 Q1005.43 1017.61 1005.43 1024.65 Z" fill="#000000" fill-rule="evenodd" fill-opacity="1" /><path clip-path="url(#clip660)" d="M1037.48 1041.51 L1037.48 1039.18 Q1041.52 1039.18 1042.45 1038.69 Q1043.37 1038.18 1043.37 1035.73 L1043.37 996.258 Q1043.37 993.441 1042.37 992.737 Q1041.41 992.033 1037.48 992.033 L1037.48 989.661 L1048.38 988.846 L1048.38 1035.73 Q1048.38 1038.18 1049.34 1038.69 Q1050.3 1039.18 1054.3 1039.18 L1054.3 1041.51 Q1053.38 1041.51 1051.45 1041.44 Q1049.52 1041.36 1048.12 1041.33 Q1046.71 1041.29 1045.89 1041.29 Q1045 1041.29 1037.48 1041.51 Z" fill="#000000" fill-rule="evenodd" fill-opacity="1" /><path clip-path="url(#clip660)" d="M1058.57 1025.2 Q1058.57 1017.98 1063.6 1012.97 Q1068.64 1007.97 1075.46 1007.97 Q1081.24 1007.97 1085.02 1012.68 L1085.02 996.258 Q1085.02 993.441 1084.02 992.737 Q1083.06 992.033 1079.13 992.033 L1079.13 989.661 L1090.06 988.846 L1090.06 1034.91 Q1090.06 1037.73 1091.02 1038.47 Q1092.02 1039.18 1095.95 1039.18 L1095.95 1041.51 L1084.8 1042.36 L1084.8 1037.32 Q1080.87 1042.33 1074.65 1042.36 Q1068.12 1042.36 1063.35 1037.36 Q1058.57 1032.36 1058.57 1025.2 M1064.86 1025.28 Q1064.86 1032.32 1067.05 1035.8 Q1070.09 1040.66 1075.02 1040.66 Q1080.65 1040.66 1083.98 1035.36 Q1084.83 1034.06 1084.8 1032.54 L1084.8 1016.98 Q1084.8 1015.46 1083.98 1014.2 Q1080.87 1009.64 1075.79 1009.64 Q1070.5 1009.64 1067.2 1014.49 Q1064.86 1018.12 1064.86 1025.28 Z" fill="#000000" fill-rule="evenodd" fill-opacity="1" /><path clip-path="url(#clip660)" d="M1125.55 1014.34 Q1125.55 1014.27 1125.7 1013.75 Q1125.89 1013.2 1126.37 1012.38 Q1126.85 1011.53 1127.48 1010.75 Q1128.15 1009.93 1129.3 1009.38 Q1130.45 1008.79 1131.78 1008.79 Q1131.93 1008.79 1132.15 1008.82 Q1132.41 1008.86 1132.48 1008.86 L1153.12 1008.86 Q1154.12 1008.86 1154.49 1009.19 Q1154.86 1009.49 1154.86 1010.6 L1154.86 1012.12 Q1154.86 1013.2 1154.42 1013.49 Q1154.01 1013.79 1153.12 1013.79 L1141.04 1013.79 L1141.04 1024.05 Q1141.04 1036.58 1146.38 1036.58 Q1147.6 1036.58 1148.86 1035.73 Q1150.16 1034.84 1150.45 1034.84 Q1151.68 1034.84 1151.68 1037.03 Q1151.68 1039.14 1150.16 1040.77 Q1148.64 1042.36 1146.38 1042.36 Q1143.93 1042.36 1142.34 1040.92 Q1140.75 1039.47 1140.08 1036.73 Q1139.45 1033.99 1139.3 1031.91 Q1139.15 1029.84 1139.15 1026.72 L1139.15 1013.79 L1133.37 1013.79 Q1133.15 1013.79 1132.74 1013.75 Q1132.33 1013.71 1132.11 1013.71 Q1130 1013.71 1128.22 1014.49 Q1126.48 1015.23 1126.41 1015.23 Q1125.55 1015.27 1125.55 1014.34 Z" fill="#000000" fill-rule="evenodd" fill-opacity="1" /><polyline clip-path="url(#clip662)" style="stroke:#000000; stroke-linecap:round; stroke-linejoin:round; stroke-width:2.00037; stroke-opacity:0.1; fill:none" points="262.739,857.047 1659.76,857.047 "/>
<polyline clip-path="url(#clip662)" style="stroke:#000000; stroke-linecap:round; stroke-linejoin:round; stroke-width:2.00037; stroke-opacity:0.1; fill:none" points="262.739,641.102 1659.76,641.102 "/>
<polyline clip-path="url(#clip662)" style="stroke:#000000; stroke-linecap:round; stroke-linejoin:round; stroke-width:2.00037; stroke-opacity:0.1; fill:none" points="262.739,425.157 1659.76,425.157 "/>
<polyline clip-path="url(#clip662)" style="stroke:#000000; stroke-linecap:round; stroke-linejoin:round; stroke-width:2.00037; stroke-opacity:0.1; fill:none" points="262.739,209.212 1659.76,209.212 "/>
<polyline clip-path="url(#clip660)" style="stroke:#000000; stroke-linecap:round; stroke-linejoin:round; stroke-width:4.00074; stroke-opacity:1; fill:none" points="262.739,857.047 262.739,47.2528 "/>
<polyline clip-path="url(#clip660)" style="stroke:#000000; stroke-linecap:round; stroke-linejoin:round; stroke-width:4.00074; stroke-opacity:1; fill:none" points="1659.76,857.047 1659.76,47.2528 "/>
<polyline clip-path="url(#clip660)" style="stroke:#000000; stroke-linecap:round; stroke-linejoin:round; stroke-width:4.00074; stroke-opacity:1; fill:none" points="262.739,857.047 281.635,857.047 "/>
<polyline clip-path="url(#clip660)" style="stroke:#000000; stroke-linecap:round; stroke-linejoin:round; stroke-width:4.00074; stroke-opacity:1; fill:none" points="262.739,641.102 281.635,641.102 "/>
<polyline clip-path="url(#clip660)" style="stroke:#000000; stroke-linecap:round; stroke-linejoin:round; stroke-width:4.00074; stroke-opacity:1; fill:none" points="262.739,425.157 281.635,425.157 "/>
<polyline clip-path="url(#clip660)" style="stroke:#000000; stroke-linecap:round; stroke-linejoin:round; stroke-width:4.00074; stroke-opacity:1; fill:none" points="262.739,209.212 281.635,209.212 "/>
<path clip-path="url(#clip660)" d="M118.974 858.559 Q118.974 848.333 121.555 842.761 Q125.155 834.472 133.646 834.472 Q135.447 834.472 137.315 834.981 Q139.216 835.457 141.594 837.326 Q144.005 839.194 145.466 842.252 Q148.251 848.163 148.251 858.559 Q148.251 868.717 145.67 874.255 Q141.9 882.34 133.578 882.34 Q130.454 882.34 127.261 880.744 Q124.103 879.147 122.099 875.308 Q118.974 869.566 118.974 858.559 M124.748 857.71 Q124.748 868.207 125.495 872.386 Q126.344 876.905 128.654 878.875 Q130.997 880.812 133.578 880.812 Q136.364 880.812 138.673 878.739 Q141.017 876.633 141.73 872.114 Q142.511 867.664 142.477 857.71 Q142.477 848.027 141.798 844.154 Q140.881 839.636 138.435 837.835 Q136.024 836.001 133.578 836.001 Q132.661 836.001 131.677 836.272 Q130.726 836.544 129.333 837.326 Q127.94 838.107 126.854 840.043 Q125.801 841.98 125.291 844.902 Q124.748 848.673 124.748 857.71 Z" fill="#000000" fill-rule="evenodd" fill-opacity="1" /><path clip-path="url(#clip660)" d="M157.998 879.69 Q156.946 878.569 156.946 877.108 Q156.946 875.648 157.998 874.594 Q159.051 873.507 160.648 873.507 Q162.176 873.507 163.195 874.526 Q164.248 875.512 164.248 877.142 Q164.248 878.739 163.127 879.792 Q162.04 880.812 160.648 880.812 Q159.051 880.812 157.998 879.69 Z" fill="#000000" fill-rule="evenodd" fill-opacity="1" /><path clip-path="url(#clip660)" d="M173.078 858.559 Q173.078 848.333 175.66 842.761 Q179.26 834.472 187.751 834.472 Q189.551 834.472 191.419 834.981 Q193.321 835.457 195.698 837.326 Q198.11 839.194 199.57 842.252 Q202.355 848.163 202.355 858.559 Q202.355 868.717 199.774 874.255 Q196.004 882.34 187.683 882.34 Q184.558 882.34 181.366 880.744 Q178.207 879.147 176.203 875.308 Q173.078 869.566 173.078 858.559 M178.852 857.71 Q178.852 868.207 179.599 872.386 Q180.449 876.905 182.758 878.875 Q185.102 880.812 187.683 880.812 Q190.468 880.812 192.777 878.739 Q195.121 876.633 195.834 872.114 Q196.615 867.664 196.581 857.71 Q196.581 848.027 195.902 844.154 Q194.985 839.636 192.54 837.835 Q190.128 836.001 187.683 836.001 Q186.766 836.001 185.781 836.272 Q184.83 836.544 183.437 837.326 Q182.045 838.107 180.958 840.043 Q179.905 841.98 179.396 844.902 Q178.852 848.673 178.852 857.71 Z" fill="#000000" fill-rule="evenodd" fill-opacity="1" /><path clip-path="url(#clip660)" d="M207.857 858.559 Q207.857 848.333 210.439 842.761 Q214.039 834.472 222.53 834.472 Q224.33 834.472 226.198 834.981 Q228.1 835.457 230.477 837.326 Q232.889 839.194 234.349 842.252 Q237.134 848.163 237.134 858.559 Q237.134 868.717 234.553 874.255 Q230.783 882.34 222.462 882.34 Q219.337 882.34 216.145 880.744 Q212.986 879.147 210.982 875.308 Q207.857 869.566 207.857 858.559 M213.631 857.71 Q213.631 868.207 214.378 872.386 Q215.228 876.905 217.537 878.875 Q219.881 880.812 222.462 880.812 Q225.247 880.812 227.556 878.739 Q229.9 876.633 230.613 872.114 Q231.394 867.664 231.36 857.71 Q231.36 848.027 230.681 844.154 Q229.764 839.636 227.319 837.835 Q224.907 836.001 222.462 836.001 Q221.545 836.001 220.56 836.272 Q219.609 836.544 218.216 837.326 Q216.824 838.107 215.737 840.043 Q214.684 841.98 214.175 844.902 Q213.631 848.673 213.631 857.71 Z" fill="#000000" fill-rule="evenodd" fill-opacity="1" /><path clip-path="url(#clip660)" d="M119.721 642.614 Q119.721 632.388 122.303 626.816 Q125.903 618.527 134.394 618.527 Q136.194 618.527 138.062 619.036 Q139.964 619.512 142.341 621.38 Q144.753 623.249 146.213 626.307 Q148.998 632.218 148.998 642.614 Q148.998 652.772 146.417 658.31 Q142.647 666.395 134.326 666.395 Q131.201 666.395 128.008 664.798 Q124.85 663.202 122.846 659.363 Q119.721 653.621 119.721 642.614 M125.495 641.764 Q125.495 652.262 126.242 656.441 Q127.091 660.959 129.401 662.93 Q131.744 664.866 134.326 664.866 Q137.111 664.866 139.42 662.794 Q141.764 660.688 142.477 656.169 Q143.258 651.719 143.224 641.764 Q143.224 632.082 142.545 628.209 Q141.628 623.691 139.183 621.89 Q136.771 620.055 134.326 620.055 Q133.409 620.055 132.424 620.327 Q131.473 620.599 130.08 621.38 Q128.688 622.162 127.601 624.098 Q126.548 626.035 126.039 628.957 Q125.495 632.728 125.495 641.764 Z" fill="#000000" fill-rule="evenodd" fill-opacity="1" /><path clip-path="url(#clip660)" d="M158.746 663.745 Q157.693 662.624 157.693 661.163 Q157.693 659.702 158.746 658.649 Q159.799 657.562 161.395 657.562 Q162.923 657.562 163.942 658.581 Q164.995 659.567 164.995 661.197 Q164.995 662.794 163.874 663.847 Q162.787 664.866 161.395 664.866 Q159.799 664.866 158.746 663.745 Z" fill="#000000" fill-rule="evenodd" fill-opacity="1" /><path clip-path="url(#clip660)" d="M173.826 642.614 Q173.826 632.388 176.407 626.816 Q180.007 618.527 188.498 618.527 Q190.298 618.527 192.166 619.036 Q194.068 619.512 196.446 621.38 Q198.857 623.249 200.317 626.307 Q203.102 632.218 203.102 642.614 Q203.102 652.772 200.521 658.31 Q196.751 666.395 188.43 666.395 Q185.305 666.395 182.113 664.798 Q178.954 663.202 176.95 659.363 Q173.826 653.621 173.826 642.614 M179.599 641.764 Q179.599 652.262 180.347 656.441 Q181.196 660.959 183.505 662.93 Q185.849 664.866 188.43 664.866 Q191.215 664.866 193.525 662.794 Q195.868 660.688 196.581 656.169 Q197.363 651.719 197.329 641.764 Q197.329 632.082 196.649 628.209 Q195.732 623.691 193.287 621.89 Q190.875 620.055 188.43 620.055 Q187.513 620.055 186.528 620.327 Q185.577 620.599 184.185 621.38 Q182.792 622.162 181.705 624.098 Q180.652 626.035 180.143 628.957 Q179.599 632.728 179.599 641.764 Z" fill="#000000" fill-rule="evenodd" fill-opacity="1" /><path clip-path="url(#clip660)" d="M209.352 664.866 Q209.352 663.609 209.454 663.236 Q209.59 662.862 210.133 662.284 L223.481 647.404 Q230.783 639.183 230.783 632.014 Q230.783 627.36 228.338 624.03 Q225.926 620.701 221.477 620.701 Q218.42 620.701 215.839 622.57 Q213.258 624.438 212.069 627.767 Q212.273 627.7 212.986 627.7 Q214.718 627.7 215.669 628.787 Q216.654 629.874 216.654 631.335 Q216.654 633.203 215.431 634.12 Q214.243 635.004 213.054 635.004 Q212.578 635.004 211.933 634.902 Q211.322 634.8 210.337 633.849 Q209.352 632.863 209.352 631.131 Q209.352 626.273 213.02 622.4 Q216.722 618.527 222.36 618.527 Q228.745 618.527 232.923 622.332 Q237.134 626.103 237.134 632.014 Q237.134 634.086 236.489 635.989 Q235.878 637.858 235.028 639.318 Q234.213 640.779 231.972 643.123 Q229.73 645.468 227.93 647.132 Q226.13 648.797 222.088 652.33 L214.718 659.499 L227.251 659.499 Q233.364 659.499 233.84 658.955 Q234.519 657.97 235.368 652.772 L237.134 652.772 L235.164 664.866 L209.352 664.866 Z" fill="#000000" fill-rule="evenodd" fill-opacity="1" /><path clip-path="url(#clip660)" d="M118.193 426.669 Q118.193 416.443 120.774 410.871 Q124.374 402.582 132.865 402.582 Q134.665 402.582 136.533 403.091 Q138.435 403.567 140.813 405.435 Q143.224 407.304 144.685 410.361 Q147.47 416.273 147.47 426.669 Q147.47 436.827 144.888 442.364 Q141.118 450.45 132.797 450.45 Q129.673 450.45 126.48 448.853 Q123.321 447.257 121.318 443.418 Q118.193 437.676 118.193 426.669 M123.967 425.819 Q123.967 436.317 124.714 440.496 Q125.563 445.014 127.873 446.985 Q130.216 448.921 132.797 448.921 Q135.582 448.921 137.892 446.849 Q140.235 444.742 140.949 440.224 Q141.73 435.774 141.696 425.819 Q141.696 416.137 141.017 412.264 Q140.1 407.745 137.654 405.945 Q135.243 404.11 132.797 404.11 Q131.88 404.11 130.895 404.382 Q129.944 404.654 128.552 405.435 Q127.159 406.217 126.072 408.153 Q125.02 410.09 124.51 413.011 Q123.967 416.782 123.967 425.819 Z" fill="#000000" fill-rule="evenodd" fill-opacity="1" /><path clip-path="url(#clip660)" d="M157.217 447.8 Q156.164 446.679 156.164 445.218 Q156.164 443.757 157.217 442.704 Q158.27 441.617 159.866 441.617 Q161.395 441.617 162.414 442.636 Q163.467 443.621 163.467 445.252 Q163.467 446.849 162.346 447.902 Q161.259 448.921 159.866 448.921 Q158.27 448.921 157.217 447.8 Z" fill="#000000" fill-rule="evenodd" fill-opacity="1" /><path clip-path="url(#clip660)" d="M172.297 426.669 Q172.297 416.443 174.879 410.871 Q178.479 402.582 186.97 402.582 Q188.77 402.582 190.638 403.091 Q192.54 403.567 194.917 405.435 Q197.329 407.304 198.789 410.361 Q201.574 416.273 201.574 426.669 Q201.574 436.827 198.993 442.364 Q195.223 450.45 186.902 450.45 Q183.777 450.45 180.584 448.853 Q177.426 447.257 175.422 443.418 Q172.297 437.676 172.297 426.669 M178.071 425.819 Q178.071 436.317 178.818 440.496 Q179.667 445.014 181.977 446.985 Q184.32 448.921 186.902 448.921 Q189.687 448.921 191.996 446.849 Q194.34 444.742 195.053 440.224 Q195.834 435.774 195.8 425.819 Q195.8 416.137 195.121 412.264 Q194.204 407.745 191.759 405.945 Q189.347 404.11 186.902 404.11 Q185.985 404.11 185 404.382 Q184.049 404.654 182.656 405.435 Q181.264 406.217 180.177 408.153 Q179.124 410.09 178.615 413.011 Q178.071 416.782 178.071 425.819 Z" fill="#000000" fill-rule="evenodd" fill-opacity="1" /><path clip-path="url(#clip660)" d="M206.295 437.438 L206.295 435.298 L227.658 402.649 Q228.202 401.8 229.051 401.834 Q229.832 401.834 230.002 402.14 Q230.172 402.446 230.172 403.635 L230.172 435.298 L237.134 435.298 L237.134 437.438 L230.172 437.438 L230.172 443.485 Q230.172 445.49 230.987 446.135 Q231.836 446.781 235.436 446.781 L236.896 446.781 L236.896 448.921 Q234.043 448.717 227.455 448.717 Q220.899 448.717 218.047 448.921 L218.047 446.781 L219.507 446.781 Q223.107 446.781 223.956 446.169 Q224.805 445.524 224.805 443.485 L224.805 437.438 L206.295 437.438 M208.265 435.298 L225.213 435.298 L225.213 409.342 L208.265 435.298 Z" fill="#000000" fill-rule="evenodd" fill-opacity="1" /><path clip-path="url(#clip660)" d="M119.178 210.723 Q119.178 200.498 121.759 194.926 Q125.359 186.636 133.85 186.636 Q135.65 186.636 137.518 187.146 Q139.42 187.622 141.798 189.49 Q144.209 191.359 145.67 194.416 Q148.455 200.328 148.455 210.723 Q148.455 220.882 145.873 226.419 Q142.103 234.505 133.782 234.505 Q130.658 234.505 127.465 232.908 Q124.306 231.311 122.303 227.472 Q119.178 221.731 119.178 210.723 M124.952 209.874 Q124.952 220.372 125.699 224.551 Q126.548 229.069 128.858 231.04 Q131.201 232.976 133.782 232.976 Q136.567 232.976 138.877 230.904 Q141.22 228.797 141.934 224.279 Q142.715 219.828 142.681 209.874 Q142.681 200.192 142.002 196.319 Q141.084 191.8 138.639 190 Q136.228 188.165 133.782 188.165 Q132.865 188.165 131.88 188.437 Q130.929 188.709 129.537 189.49 Q128.144 190.272 127.057 192.208 Q126.005 194.144 125.495 197.066 Q124.952 200.837 124.952 209.874 Z" fill="#000000" fill-rule="evenodd" fill-opacity="1" /><path clip-path="url(#clip660)" d="M158.202 231.855 Q157.149 230.734 157.149 229.273 Q157.149 227.812 158.202 226.759 Q159.255 225.672 160.851 225.672 Q162.38 225.672 163.399 226.691 Q164.452 227.676 164.452 229.307 Q164.452 230.904 163.331 231.957 Q162.244 232.976 160.851 232.976 Q159.255 232.976 158.202 231.855 Z" fill="#000000" fill-rule="evenodd" fill-opacity="1" /><path clip-path="url(#clip660)" d="M173.282 210.723 Q173.282 200.498 175.863 194.926 Q179.464 186.636 187.955 186.636 Q189.755 186.636 191.623 187.146 Q193.525 187.622 195.902 189.49 Q198.314 191.359 199.774 194.416 Q202.559 200.328 202.559 210.723 Q202.559 220.882 199.978 226.419 Q196.208 234.505 187.887 234.505 Q184.762 234.505 181.569 232.908 Q178.411 231.311 176.407 227.472 Q173.282 221.731 173.282 210.723 M179.056 209.874 Q179.056 220.372 179.803 224.551 Q180.652 229.069 182.962 231.04 Q185.305 232.976 187.887 232.976 Q190.672 232.976 192.981 230.904 Q195.325 228.797 196.038 224.279 Q196.819 219.828 196.785 209.874 Q196.785 200.192 196.106 196.319 Q195.189 191.8 192.743 190 Q190.332 188.165 187.887 188.165 Q186.97 188.165 185.985 188.437 Q185.034 188.709 183.641 189.49 Q182.249 190.272 181.162 192.208 Q180.109 194.144 179.599 197.066 Q179.056 200.837 179.056 209.874 Z" fill="#000000" fill-rule="evenodd" fill-opacity="1" /><path clip-path="url(#clip660)" d="M208.265 210.995 Q208.265 200.056 213.835 193.363 Q219.405 186.636 226.571 186.636 Q230.749 186.636 233.059 188.777 Q235.402 190.883 235.402 194.144 Q235.402 195.945 234.349 196.726 Q233.296 197.508 232.209 197.508 Q230.953 197.508 229.968 196.659 Q228.983 195.809 228.983 194.28 Q228.983 191.155 232.821 191.155 Q231.021 188.369 226.707 188.369 Q225.383 188.369 224.024 188.777 Q222.666 189.15 220.899 190.441 Q219.133 191.732 217.775 193.771 Q216.416 195.809 215.465 199.648 Q214.514 203.487 214.514 208.481 L214.514 210.146 Q217.367 203.249 223.209 203.283 Q229.051 203.283 233.093 207.734 Q237.134 212.184 237.134 218.775 Q237.134 225.536 232.923 230.02 Q228.711 234.505 222.801 234.505 Q220.152 234.505 217.741 233.384 Q215.363 232.297 213.122 229.783 Q210.914 227.269 209.59 222.444 Q208.265 217.62 208.265 210.995 M214.65 217.246 Q214.65 224.075 215.907 227.336 Q216.111 227.88 216.552 228.627 Q217.028 229.375 217.809 230.36 Q218.624 231.311 219.949 231.957 Q221.273 232.568 222.801 232.568 Q227.455 232.568 229.696 228.05 Q230.885 225.536 230.885 218.707 Q230.885 211.743 229.628 209.195 Q227.488 204.88 223.141 204.88 Q220.22 204.88 218.182 206.884 Q216.179 208.889 215.397 211.573 Q214.65 214.257 214.65 217.246 Z" fill="#000000" fill-rule="evenodd" fill-opacity="1" /><path clip-path="url(#clip660)" d="M77.0374 700.446 L74.7031 700.446 Q74.7031 697.703 74.1844 695.961 Q73.6287 694.22 72.6283 693.59 Q71.5908 692.922 70.9239 692.774 Q70.2199 692.626 69.0713 692.626 L31.1306 692.626 Q28.9446 692.626 28.2777 693.59 Q27.5737 694.516 27.5737 698.63 L27.5737 700.446 L25.2024 700.446 L25.2024 687.623 Q25.2024 686.251 25.4618 685.881 Q25.6841 685.51 26.8697 684.954 L69.3677 668.499 L26.6474 651.895 Q25.5729 651.524 25.3877 651.191 Q25.2024 650.82 25.2024 649.375 L25.2024 636.551 L27.5737 636.551 L27.5737 638.367 Q27.5737 642.481 28.2777 643.445 Q28.9446 644.371 31.1306 644.371 L71.1092 644.371 Q73.2952 644.371 73.9992 643.445 Q74.7031 642.481 74.7031 638.367 L74.7031 636.551 L77.0374 636.551 Q76.8151 639.368 76.8151 647.41 Q76.8151 655.527 77.0374 658.344 L74.7031 658.344 L74.7031 656.491 Q74.7031 652.377 74.0362 651.45 Q73.3322 650.524 71.1092 650.524 L27.5737 650.524 L27.5737 650.598 L75.5924 669.24 Q77.0374 669.759 77.0374 670.611 Q77.0374 671.538 75.3701 672.131 L28.1665 690.439 L28.1665 690.513 L69.0713 690.513 Q70.2199 690.513 70.9239 690.365 Q71.5908 690.217 72.6283 689.587 Q73.6287 688.92 74.1844 687.178 Q74.7031 685.436 74.7031 682.693 L77.0374 682.693 Q76.8151 690.662 76.8151 691.588 Q76.8151 692.478 77.0374 700.446 Z" fill="#000000" fill-rule="evenodd" fill-opacity="1" /><path clip-path="url(#clip660)" d="M60.3272 631.659 Q53.1763 631.659 48.1002 627.063 Q43.0242 622.468 43.0242 615.871 Q43.0242 609.2 47.3592 605.753 Q51.6942 602.269 57.9188 602.269 Q59.0674 602.269 59.2897 602.566 Q59.512 602.862 59.512 604.159 L59.512 625.359 Q67.2558 625.359 70.8868 623.061 Q75.9629 619.873 75.9629 614.499 Q75.9629 613.758 75.8147 612.869 Q75.6665 611.979 75.0366 610.163 Q74.3697 608.347 72.6283 606.754 Q70.8868 605.16 68.145 604.233 Q67.0705 604.011 67.1076 603.27 Q67.1076 602.269 67.9968 602.269 Q68.6638 602.269 70.1829 603.01 Q71.6649 603.714 73.4434 605.086 Q75.2219 606.457 76.5557 609.126 Q77.8896 611.757 77.8896 614.944 Q77.8896 621.615 72.8506 626.656 Q67.7745 631.659 60.3272 631.659 M57.9188 625.284 L57.9188 607.272 Q56.3256 607.272 54.5472 607.569 Q52.7687 607.828 50.3233 608.644 Q47.8408 609.422 46.2847 611.275 Q44.7285 613.128 44.7285 615.871 Q44.7285 617.094 45.2472 618.428 Q45.766 619.725 47.0257 621.319 Q48.2855 622.913 51.1384 624.024 Q53.9914 625.136 57.9188 625.284 Z" fill="#000000" fill-rule="evenodd" fill-opacity="1" /><path clip-path="url(#clip660)" d="M69.8124 596.895 Q63.3654 596.895 59.9567 589.297 Q57.7706 584.739 57.2149 575.325 L54.436 575.325 Q49.7305 575.325 47.248 577.808 Q44.7285 580.254 44.7285 583.368 Q44.7285 588.927 48.2114 591.595 Q48.2855 589.334 49.4341 588.519 Q50.5456 587.704 51.6942 587.704 Q53.2133 587.704 54.2137 588.667 Q55.177 589.594 55.177 591.188 Q55.177 592.707 54.2507 593.708 Q53.2874 594.708 51.6201 594.708 Q47.9149 594.708 45.4696 591.373 Q43.0242 588 43.0242 583.219 Q43.0242 576.993 47.211 572.842 Q48.5078 571.545 50.1751 570.915 Q51.8424 570.248 52.9539 570.174 Q54.0284 570.099 56.1774 570.099 L71.3315 570.099 Q71.7761 570.099 72.5171 569.951 Q73.2581 569.803 74.2215 569.136 Q75.1478 568.432 75.1478 567.283 Q75.1478 564.54 70.294 564.577 L66.0331 564.577 L66.0331 562.65 L70.294 562.65 Q74.3326 562.65 75.9258 564.8 Q77.482 566.912 77.482 568.876 Q77.482 571.397 75.6294 572.99 Q73.7769 574.584 71.2574 574.806 Q74.1474 575.955 76.037 578.587 Q77.8896 581.181 77.8896 584.739 Q77.8896 587.481 77.1856 590.076 Q76.5187 592.633 74.629 594.783 Q72.7024 596.895 69.8124 596.895 M69.7382 591.039 Q72.5542 591.039 74.3697 589.038 Q76.1852 587.037 76.1852 584.22 Q76.1852 581.033 73.7398 578.179 Q71.2574 575.325 66.4036 575.325 L58.8081 575.325 Q59.1045 583.738 62.4762 587.407 Q65.8108 591.039 69.7382 591.039 Z" fill="#000000" fill-rule="evenodd" fill-opacity="1" /><path clip-path="url(#clip660)" d="M77.0374 559.685 L74.7031 559.685 Q74.7031 555.645 74.2215 554.719 Q73.7028 553.792 71.2574 553.792 L50.9161 553.792 Q48.1002 553.792 47.3962 554.793 Q46.6922 555.756 46.6922 559.685 L44.321 559.685 L43.5058 549.011 L51.4719 549.011 Q43.5058 545.453 43.5058 537.781 Q43.5058 532.074 46.3217 529.813 Q48.2114 528.145 50.3233 527.812 Q52.4352 527.441 57.9188 527.441 L72.406 527.441 Q73.9992 527.367 74.3697 526.144 Q74.7031 524.921 74.7031 521.511 L77.0374 521.511 Q76.8151 529.257 76.8151 530.035 Q76.8151 530.628 77.0374 538.597 L74.7031 538.597 Q74.7031 534.557 74.2215 533.63 Q73.7028 532.667 71.2574 532.667 L53.5838 532.667 Q49.7305 532.667 47.4703 533.853 Q45.1731 535.039 45.1731 538.3 Q45.1731 542.229 48.4707 545.379 Q51.7683 548.529 57.326 548.529 L71.2574 548.529 Q73.7028 548.529 74.2215 547.603 Q74.7031 546.639 74.7031 542.637 L77.0374 542.637 Q76.8151 550.382 76.8151 551.124 Q76.8151 551.717 77.0374 559.685 Z" fill="#000000" fill-rule="evenodd" fill-opacity="1" /><path clip-path="url(#clip660)" d="M77.0374 492.269 L74.7031 492.269 Q74.7031 488.23 74.2215 487.303 Q73.7028 486.377 71.2574 486.377 L50.842 486.377 Q48.0261 486.377 47.3592 487.34 Q46.6922 488.267 46.6922 491.973 L44.321 491.973 L43.5058 481.373 L71.3315 481.373 Q73.5916 481.373 74.1474 480.558 Q74.7031 479.743 74.7031 476.036 L77.0374 476.036 Q76.8151 483.782 76.8151 483.931 Q76.8151 484.968 77.0374 492.269 M30.2785 489.082 Q28.7593 489.082 27.5366 487.933 Q26.2769 486.747 26.2769 485.079 Q26.2769 483.412 27.4255 482.226 Q28.537 481.04 30.3155 481.04 Q32.0569 481.04 33.2055 482.226 Q34.3171 483.412 34.3171 485.079 Q34.3171 486.821 33.0944 487.97 Q31.8717 489.082 30.2785 489.082 Z" fill="#000000" fill-rule="evenodd" fill-opacity="1" /><path clip-path="url(#clip660)" d="M77.0374 471.329 L74.7031 471.329 Q74.7031 467.29 74.2215 466.363 Q73.7028 465.437 71.2574 465.437 L50.9161 465.437 Q48.1002 465.437 47.3962 466.437 Q46.6922 467.401 46.6922 471.329 L44.321 471.329 L43.5058 460.656 L51.4719 460.656 Q43.5058 457.098 43.5058 449.426 Q43.5058 443.718 46.3217 441.458 Q48.2114 439.79 50.3233 439.456 Q52.4352 439.086 57.9188 439.086 L72.406 439.086 Q73.9992 439.012 74.3697 437.789 Q74.7031 436.565 74.7031 433.156 L77.0374 433.156 Q76.8151 440.902 76.8151 441.68 Q76.8151 442.273 77.0374 450.241 L74.7031 450.241 Q74.7031 446.202 74.2215 445.275 Q73.7028 444.311 71.2574 444.311 L53.5838 444.311 Q49.7305 444.311 47.4703 445.497 Q45.1731 446.683 45.1731 449.945 Q45.1731 453.873 48.4707 457.024 Q51.7683 460.174 57.326 460.174 L71.2574 460.174 Q73.7028 460.174 74.2215 459.247 Q74.7031 458.284 74.7031 454.281 L77.0374 454.281 Q76.8151 462.027 76.8151 462.768 Q76.8151 463.361 77.0374 471.329 Z" fill="#000000" fill-rule="evenodd" fill-opacity="1" /><path clip-path="url(#clip660)" d="M46.6922 429.153 L44.321 429.153 L44.321 423.186 L35.6139 423.186 Q29.982 423.186 26.7586 419.554 Q23.5351 415.885 23.5351 411.4 Q23.5351 408.436 25.1283 406.508 Q26.7215 404.581 28.8705 404.581 Q30.3155 404.581 31.2788 405.471 Q32.2051 406.323 32.2051 407.917 Q32.2051 409.436 31.2418 410.326 Q30.2785 411.178 28.9446 411.178 Q26.4992 411.178 25.7582 408.917 Q25.2395 410.066 25.2024 411.4 Q25.2024 414.143 28.0183 416.293 Q30.8342 418.405 35.5398 418.405 L44.321 418.405 L44.321 409.51 L46.6922 409.51 L46.6922 418.146 L71.1092 418.146 Q73.2952 418.146 73.9992 417.256 Q74.7031 416.33 74.7031 412.401 L74.7031 410.807 L77.0374 410.807 Q76.8151 413.847 76.8151 420.444 Q76.8151 421.37 76.8521 422.816 Q76.8892 424.224 76.9633 426.151 Q77.0374 428.041 77.0374 429.079 L74.7031 429.079 Q74.7031 425.039 74.2215 424.113 Q73.7028 423.186 71.2574 423.186 L46.6922 423.186 L46.6922 429.153 Z" fill="#000000" fill-rule="evenodd" fill-opacity="1" /><path clip-path="url(#clip660)" d="M77.0374 406.026 L74.7031 406.026 Q74.7031 401.987 74.2215 401.06 Q73.7028 400.134 71.2574 400.134 L50.842 400.134 Q48.0261 400.134 47.3592 401.097 Q46.6922 402.024 46.6922 405.73 L44.321 405.73 L43.5058 395.13 L71.3315 395.13 Q73.5916 395.13 74.1474 394.315 Q74.7031 393.5 74.7031 389.793 L77.0374 389.793 Q76.8151 397.539 76.8151 397.688 Q76.8151 398.725 77.0374 406.026 M30.2785 402.839 Q28.7593 402.839 27.5366 401.69 Q26.2769 400.504 26.2769 398.836 Q26.2769 397.169 27.4255 395.983 Q28.537 394.797 30.3155 394.797 Q32.0569 394.797 33.2055 395.983 Q34.3171 397.169 34.3171 398.836 Q34.3171 400.578 33.0944 401.727 Q31.8717 402.839 30.2785 402.839 Z" fill="#000000" fill-rule="evenodd" fill-opacity="1" /><path clip-path="url(#clip660)" d="M60.7347 384.938 Q53.5097 384.938 48.5078 379.898 Q43.5058 374.857 43.5058 368.038 Q43.5058 362.256 48.2114 358.476 L31.7976 358.476 Q28.9817 358.476 28.2777 359.477 Q27.5737 360.44 27.5737 364.369 L25.2024 364.369 L24.3873 353.436 L70.4422 353.436 Q73.2581 353.436 73.9992 352.472 Q74.7031 351.471 74.7031 347.543 L77.0374 347.543 L77.8896 358.698 L72.8506 358.698 Q77.8525 362.627 77.8896 368.853 Q77.8896 375.376 72.8876 380.157 Q67.8857 384.938 60.7347 384.938 M60.8089 378.638 Q67.8486 378.638 71.3315 376.451 Q76.1852 373.412 76.1852 368.483 Q76.1852 362.849 70.8868 359.514 Q69.59 358.661 68.0709 358.698 L52.5093 358.698 Q50.9902 358.698 49.7305 359.514 Q45.1731 362.627 45.1731 367.705 Q45.1731 373.004 50.0269 376.303 Q53.6579 378.638 60.8089 378.638 Z" fill="#000000" fill-rule="evenodd" fill-opacity="1" /><path clip-path="url(#clip660)" d="M60.3272 343.318 Q53.1763 343.318 48.1002 338.722 Q43.0242 334.126 43.0242 327.529 Q43.0242 320.858 47.3592 317.412 Q51.6942 313.928 57.9188 313.928 Q59.0674 313.928 59.2897 314.224 Q59.512 314.521 59.512 315.818 L59.512 337.017 Q67.2558 337.017 70.8868 334.719 Q75.9629 331.532 75.9629 326.158 Q75.9629 325.417 75.8147 324.527 Q75.6665 323.638 75.0366 321.822 Q74.3697 320.006 72.6283 318.412 Q70.8868 316.819 68.145 315.892 Q67.0705 315.67 67.1076 314.928 Q67.1076 313.928 67.9968 313.928 Q68.6638 313.928 70.1829 314.669 Q71.6649 315.373 73.4434 316.744 Q75.2219 318.116 76.5557 320.784 Q77.8896 323.416 77.8896 326.603 Q77.8896 333.274 72.8506 338.314 Q67.7745 343.318 60.3272 343.318 M57.9188 336.943 L57.9188 318.931 Q56.3256 318.931 54.5472 319.228 Q52.7687 319.487 50.3233 320.302 Q47.8408 321.081 46.2847 322.934 Q44.7285 324.787 44.7285 327.529 Q44.7285 328.752 45.2472 330.087 Q45.766 331.384 47.0257 332.978 Q48.2855 334.571 51.1384 335.683 Q53.9914 336.795 57.9188 336.943 Z" fill="#000000" fill-rule="evenodd" fill-opacity="1" /><path clip-path="url(#clip660)" d="M77.0374 309.221 L74.7031 309.221 Q74.7031 305.181 74.2215 304.255 Q73.7028 303.328 71.2574 303.328 L31.7976 303.328 Q28.9817 303.328 28.2777 304.329 Q27.5737 305.292 27.5737 309.221 L25.2024 309.221 L24.3873 298.325 L71.2574 298.325 Q73.7028 298.325 74.2215 297.361 Q74.7031 296.397 74.7031 292.395 L77.0374 292.395 Q77.0374 293.321 76.9633 295.249 Q76.8892 297.176 76.8521 298.584 Q76.8151 299.992 76.8151 300.808 Q76.8151 301.697 77.0374 309.221 Z" fill="#000000" fill-rule="evenodd" fill-opacity="1" /><path clip-path="url(#clip660)" d="M77.0374 288.207 L74.7031 288.207 Q74.7031 284.167 74.2215 283.241 Q73.7028 282.314 71.2574 282.314 L50.842 282.314 Q48.0261 282.314 47.3592 283.278 Q46.6922 284.204 46.6922 287.91 L44.321 287.91 L43.5058 277.311 L71.3315 277.311 Q73.5916 277.311 74.1474 276.495 Q74.7031 275.68 74.7031 271.974 L77.0374 271.974 Q76.8151 279.72 76.8151 279.868 Q76.8151 280.906 77.0374 288.207 M30.2785 285.019 Q28.7593 285.019 27.5366 283.871 Q26.2769 282.685 26.2769 281.017 Q26.2769 279.349 27.4255 278.163 Q28.537 276.977 30.3155 276.977 Q32.0569 276.977 33.2055 278.163 Q34.3171 279.349 34.3171 281.017 Q34.3171 282.759 33.0944 283.908 Q31.8717 285.019 30.2785 285.019 Z" fill="#000000" fill-rule="evenodd" fill-opacity="1" /><path clip-path="url(#clip660)" d="M46.6922 268.268 L45.0249 268.268 Q44.8767 264.784 42.4313 262.486 Q39.9489 260.151 36.9107 259.373 Q33.8724 258.557 30.3526 258.483 L30.3526 256.593 L44.321 256.593 L44.321 245.734 L46.6922 245.734 L46.6922 256.593 L67.7745 256.593 Q75.9629 256.593 75.9629 251.478 Q75.9629 249.292 73.7398 247.846 Q71.4797 246.401 67.4781 246.401 L63.2913 246.401 L63.2913 244.511 L67.6263 244.511 Q71.739 244.511 74.8143 246.401 Q77.8896 248.291 77.8896 252.034 Q77.8896 253.406 77.5191 254.777 Q77.1856 256.111 76.2964 257.89 Q75.3701 259.632 73.147 260.744 Q70.8868 261.819 67.6263 261.819 L46.6922 261.819 L46.6922 268.268 Z" fill="#000000" fill-rule="evenodd" fill-opacity="1" /><path clip-path="url(#clip660)" d="M86.4485 240.953 Q84.8552 240.953 84.0031 240.026 Q83.1879 239.063 83.1879 237.766 Q83.1879 236.394 84.0401 235.505 Q84.9293 234.578 86.3744 234.578 Q89.1903 234.578 89.5608 237.543 Q90.9317 236.098 90.9317 233.985 Q90.9317 231.725 89.2644 229.908 Q87.597 228.055 86.0038 227.277 Q84.4106 226.462 81.5206 225.313 Q79.2605 224.238 77.0374 223.423 L49.3229 234.801 Q47.5074 235.542 47.0998 236.691 Q46.6922 237.84 46.6922 240.953 L44.321 240.953 Q44.5433 237.543 44.5433 233.578 Q44.5433 231.243 44.321 225.313 L46.6922 225.313 Q46.6922 229.575 48.656 229.575 Q48.8783 229.575 50.0269 229.13 L70.4422 220.68 L51.7683 213.008 Q50.6938 212.564 49.9528 212.564 Q46.8405 212.564 46.6922 216.121 L44.321 216.121 Q44.5433 211.118 44.5433 209.524 Q44.5433 206.411 44.321 203.854 L46.6922 203.854 Q46.6922 208.931 51.546 210.896 L83.929 224.275 Q92.5619 227.907 92.599 233.985 Q92.599 236.876 90.8205 238.915 Q89.0421 240.953 86.4485 240.953 Z" fill="#000000" fill-rule="evenodd" fill-opacity="1" /><path clip-path="url(#clip662)" d="M1371.18 824.884 L1355.18 856.889 L1387.18 856.889 L1371.18 824.884 Z" fill="#87c55f" fill-rule="evenodd" fill-opacity="1" stroke="#000000" stroke-opacity="1" stroke-width="2.108"/>
<polyline clip-path="url(#clip662)" style="stroke:#87c55f; stroke-linecap:round; stroke-linejoin:round; stroke-width:4.00074; stroke-opacity:1; fill:none" stroke-dasharray="16, 10" points="-1134.28,840.886 3056.78,840.886 "/>
<path clip-path="url(#clip662)" d="M1014.88 776.578 L998.872 792.581 L1014.88 808.584 L1030.88 792.581 L1014.88 776.578 Z" fill="#f89c74" fill-rule="evenodd" fill-opacity="1" stroke="#000000" stroke-opacity="1" stroke-width="2.108"/>
<polyline clip-path="url(#clip662)" style="stroke:#f89c74; stroke-linecap:round; stroke-linejoin:round; stroke-width:4.00074; stroke-opacity:1; fill:none" stroke-dasharray="16, 10" points="-1134.28,792.581 3056.78,792.581 "/>
<path clip-path="url(#clip662)" d="M332.474 403.977 L318.615 395.976 L318.615 379.973 L332.474 371.971 L346.332 379.973 L346.332 395.976 Z" fill="#f6cf71" fill-rule="evenodd" fill-opacity="1" stroke="#000000" stroke-opacity="1" stroke-width="2.108"/>
<polyline clip-path="url(#clip662)" style="stroke:#f6cf71; stroke-linecap:round; stroke-linejoin:round; stroke-width:4.00074; stroke-opacity:1; fill:none" stroke-dasharray="16, 10" points="-1134.28,387.974 3056.78,387.974 "/>
<path clip-path="url(#clip662)" d="M302.278 210.936 L298.517 221.754 L287.059 221.994 L296.196 228.923 L292.868 239.885 L302.278 233.34 L311.687 239.885 L308.359 228.923 L317.496 221.994 L306.038 221.754 L302.278 210.936 Z" fill="#66c5cc" fill-rule="evenodd" fill-opacity="1" stroke="#000000" stroke-opacity="1" stroke-width="2.108"/>
<polyline clip-path="url(#clip662)" style="stroke:#66c5cc; stroke-linecap:round; stroke-linejoin:round; stroke-width:4.00074; stroke-opacity:1; fill:none" stroke-dasharray="16, 10" points="-1134.28,226.939 3056.78,226.939 "/>
<circle clip-path="url(#clip662)" cx="1620.22" cy="842.96" r="14.4027" fill="#000000" fill-rule="evenodd" fill-opacity="1" stroke="none"/>
<circle clip-path="url(#clip662)" cx="1263.91" cy="831.019" r="14.4027" fill="#000000" fill-rule="evenodd" fill-opacity="1" stroke="none"/>
<circle clip-path="url(#clip662)" cx="1156.66" cy="814.135" r="14.4027" fill="#000000" fill-rule="evenodd" fill-opacity="1" stroke="none"/>
<circle clip-path="url(#clip662)" cx="907.617" cy="750.2" r="14.4027" fill="#000000" fill-rule="evenodd" fill-opacity="1" stroke="none"/>
<circle clip-path="url(#clip662)" cx="800.359" cy="672.992" r="14.4027" fill="#000000" fill-rule="evenodd" fill-opacity="1" stroke="none"/>
<circle clip-path="url(#clip662)" cx="658.579" cy="577.637" r="14.4027" fill="#000000" fill-rule="evenodd" fill-opacity="1" stroke="none"/>
<circle clip-path="url(#clip662)" cx="551.319" cy="519.756" r="14.4027" fill="#000000" fill-rule="evenodd" fill-opacity="1" stroke="none"/>
<path clip-path="url(#clip660)" d="M967.961 463.118 L1613.19 463.118 L1613.19 74.2459 L967.961 74.2459  Z" fill="#ffffff" fill-rule="evenodd" fill-opacity="1"/>
<polyline clip-path="url(#clip660)" style="stroke:#000000; stroke-linecap:round; stroke-linejoin:round; stroke-width:4.00074; stroke-opacity:1; fill:none" points="967.961,463.118 1613.19,463.118 1613.19,74.2459 967.961,74.2459 967.961,463.118 "/>
<path clip-path="url(#clip660)" d="M1030.05 113.613 L991.644 190.427 L1068.46 190.427 L1030.05 113.613 Z" fill="#87c55f" fill-rule="evenodd" fill-opacity="1" stroke="#000000" stroke-opacity="1" stroke-width="5.0592"/>
<path clip-path="url(#clip660)" d="M1092.14 152.002 Q1092.14 140.55 1099.96 132.507 Q1107.78 124.428 1118.52 124.428 Q1121.86 124.428 1124.82 125.651 Q1127.78 126.874 1129.16 127.949 Q1130.53 128.986 1132.49 130.951 L1136.31 125.354 Q1136.9 124.428 1137.49 124.428 Q1138.12 124.428 1138.23 124.798 Q1138.34 125.132 1138.34 126.244 L1138.34 144.256 Q1138.34 145.479 1138.2 145.775 Q1138.05 146.072 1137.12 146.072 Q1136.38 146.072 1136.19 145.849 Q1136.05 145.627 1135.9 144.775 Q1134.75 136.584 1130.19 131.692 Q1125.67 126.8 1119.37 126.8 Q1117.56 126.8 1115.52 127.207 Q1113.52 127.615 1110.59 129.172 Q1107.7 130.728 1105.44 133.323 Q1103.22 135.88 1101.59 140.772 Q1099.96 145.627 1099.96 152.076 Q1099.96 158.451 1101.59 163.343 Q1103.22 168.235 1105.44 170.792 Q1107.7 173.312 1110.59 174.869 Q1113.52 176.426 1115.56 176.87 Q1117.63 177.278 1119.45 177.278 Q1125.97 177.278 1130.97 172.645 Q1135.97 168.012 1136.45 160.192 Q1136.53 159.822 1136.53 159.674 Q1136.53 159.488 1136.6 159.303 Q1136.68 159.118 1136.86 159.043 Q1137.05 158.969 1137.34 158.969 Q1138.34 158.969 1138.34 160.267 Q1138.34 167.494 1132.79 173.572 Q1127.27 179.613 1118.52 179.613 Q1107.74 179.613 1099.92 171.607 Q1092.14 163.602 1092.14 152.002 Z" fill="#000000" fill-rule="evenodd" fill-opacity="1" /><path clip-path="url(#clip660)" d="M1145.16 177.945 L1145.16 175.61 L1146.98 175.61 Q1151.09 175.61 1152.02 174.943 Q1152.98 174.239 1152.98 172.015 L1152.98 132.025 Q1152.98 129.839 1152.02 129.172 Q1151.05 128.467 1146.98 128.467 L1145.16 128.467 L1145.16 126.095 Q1147.83 126.318 1156.39 126.318 Q1164.87 126.318 1167.54 126.095 L1167.54 128.467 L1165.72 128.467 Q1161.61 128.467 1160.65 129.172 Q1159.72 129.839 1159.72 132.025 L1159.72 156.153 L1183.47 133.471 Q1184.84 132.248 1184.84 130.951 Q1184.84 130.506 1184.62 130.024 Q1184.44 129.505 1183.55 128.986 Q1182.69 128.467 1181.32 128.467 L1181.32 126.095 Q1183.92 126.318 1190.99 126.318 Q1195.48 126.318 1197.44 126.095 L1197.44 128.467 Q1191.14 128.542 1186.66 133.026 L1172.99 146.146 L1190.51 171.941 Q1192.11 174.276 1193.66 174.943 Q1195.22 175.61 1198.48 175.61 L1198.48 177.945 Q1193.7 177.723 1189.77 177.723 Q1181.58 177.723 1178.92 177.945 L1178.92 175.61 Q1183.4 175.61 1183.4 173.312 Q1183.4 172.46 1182.25 170.718 L1168.5 150.408 L1159.72 158.747 L1159.72 172.015 Q1159.72 174.202 1160.65 174.906 Q1161.61 175.61 1165.72 175.61 L1167.54 175.61 L1167.54 177.945 Q1164.87 177.723 1156.31 177.723 Q1147.83 177.723 1145.16 177.945 Z" fill="#000000" fill-rule="evenodd" fill-opacity="1" /><path clip-path="url(#clip660)" d="M1204.04 177.945 L1204.04 175.61 Q1210.78 175.462 1212.52 170.496 L1228.23 125.132 Q1228.53 124.205 1228.86 123.909 Q1229.19 123.612 1230.05 123.612 Q1230.49 123.612 1230.75 123.686 Q1231.05 123.761 1231.23 124.02 Q1231.42 124.279 1231.49 124.428 Q1231.57 124.576 1231.79 125.132 L1248.16 172.571 Q1248.76 174.461 1249.98 175.054 Q1251.2 175.61 1254.65 175.61 L1255.98 175.61 L1255.98 177.945 Q1251.2 177.723 1246.05 177.723 Q1237.86 177.723 1235.12 177.945 L1235.12 175.61 Q1241.42 175.61 1241.42 173.312 Q1241.42 173.164 1241.2 172.238 L1237.2 160.637 L1218.45 160.637 L1214.93 170.57 Q1214.78 170.866 1214.78 171.719 Q1214.78 173.312 1216.26 174.461 Q1217.75 175.61 1220.49 175.61 L1220.49 177.945 Q1213.19 177.723 1211.74 177.723 Q1209.26 177.723 1204.04 177.945 M1219.26 158.302 L1236.34 158.302 L1227.79 133.619 L1219.26 158.302 Z" fill="#000000" fill-rule="evenodd" fill-opacity="1" /><path clip-path="url(#clip660)" d="M1266.1 176.722 Q1265.02 175.499 1265.02 173.905 Q1265.02 172.312 1266.06 171.126 Q1267.13 169.903 1269.06 169.903 Q1271.32 169.903 1272.62 172.089 Q1273.92 174.239 1273.92 177.871 Q1273.92 181.799 1272.32 185.432 Q1270.73 189.101 1269.17 190.843 Q1267.62 192.584 1266.99 192.584 Q1266.25 192.584 1266.25 191.769 Q1266.25 191.473 1266.76 190.917 Q1272.21 185.061 1272.25 177.871 Q1272.25 176.722 1272.1 176.722 L1271.91 176.87 Q1270.62 177.945 1269.06 177.945 Q1267.17 177.945 1266.1 176.722 Z" fill="#000000" fill-rule="evenodd" fill-opacity="1" /><path clip-path="url(#clip660)" d="M1307 150.779 Q1307 150.705 1307.15 150.186 Q1307.34 149.63 1307.82 148.814 Q1308.3 147.962 1308.93 147.184 Q1309.6 146.368 1310.74 145.812 Q1311.89 145.219 1313.23 145.219 Q1313.37 145.219 1313.6 145.256 Q1313.86 145.294 1313.93 145.294 L1334.57 145.294 Q1335.57 145.294 1335.94 145.627 Q1336.31 145.924 1336.31 147.035 L1336.31 148.555 Q1336.31 149.63 1335.87 149.926 Q1335.46 150.223 1334.57 150.223 L1322.49 150.223 L1322.49 160.489 Q1322.49 173.016 1327.82 173.016 Q1329.05 173.016 1330.31 172.163 Q1331.6 171.274 1331.9 171.274 Q1333.12 171.274 1333.12 173.461 Q1333.12 175.573 1331.6 177.204 Q1330.09 178.797 1327.82 178.797 Q1325.38 178.797 1323.79 177.352 Q1322.19 175.907 1321.53 173.164 Q1320.9 170.421 1320.75 168.346 Q1320.6 166.271 1320.6 163.157 L1320.6 150.223 L1314.82 150.223 Q1314.6 150.223 1314.19 150.186 Q1313.78 150.149 1313.56 150.149 Q1311.45 150.149 1309.67 150.927 Q1307.93 151.668 1307.85 151.668 Q1307 151.705 1307 150.779 Z" fill="#000000" fill-rule="evenodd" fill-opacity="1" /><path clip-path="url(#clip660)" d="M1369.03 166.419 Q1369.1 165.492 1370.55 165.492 L1417.04 165.492 Q1419.23 165.492 1419.27 166.345 Q1419.27 167.271 1417.19 167.234 L1371.06 167.234 Q1369.03 167.271 1369.03 166.419 M1369.03 151.594 Q1369.03 150.668 1370.62 150.705 L1416.97 150.705 Q1419.23 150.705 1419.27 151.594 Q1419.27 152.446 1417.34 152.446 L1370.55 152.446 Q1369.03 152.446 1369.03 151.594 Z" fill="#000000" fill-rule="evenodd" fill-opacity="1" /><path clip-path="url(#clip660)" d="M1455.69 134.62 L1455.69 132.248 Q1464.8 132.248 1469.51 127.393 Q1470.81 127.393 1471.03 127.689 Q1471.25 127.986 1471.25 129.357 L1471.25 171.941 Q1471.25 174.202 1472.36 174.906 Q1473.47 175.61 1478.33 175.61 L1480.74 175.61 L1480.74 177.945 Q1478.07 177.723 1468.44 177.723 Q1458.8 177.723 1456.17 177.945 L1456.17 175.61 L1458.58 175.61 Q1463.36 175.61 1464.51 174.943 Q1465.66 174.239 1465.66 171.941 L1465.66 132.618 Q1461.69 134.62 1455.69 134.62 Z" fill="#000000" fill-rule="evenodd" fill-opacity="1" /><path clip-path="url(#clip660)" d="M1489.85 153.67 Q1489.85 142.514 1492.67 136.436 Q1496.59 127.393 1505.86 127.393 Q1507.82 127.393 1509.86 127.949 Q1511.93 128.467 1514.53 130.506 Q1517.16 132.544 1518.75 135.88 Q1521.79 142.329 1521.79 153.67 Q1521.79 164.751 1518.97 170.792 Q1514.86 179.613 1505.78 179.613 Q1502.37 179.613 1498.89 177.871 Q1495.45 176.129 1493.26 171.941 Q1489.85 165.678 1489.85 153.67 M1496.15 152.743 Q1496.15 164.195 1496.96 168.754 Q1497.89 173.683 1500.41 175.833 Q1502.97 177.945 1505.78 177.945 Q1508.82 177.945 1511.34 175.684 Q1513.9 173.386 1514.68 168.457 Q1515.53 163.602 1515.49 152.743 Q1515.49 142.18 1514.75 137.955 Q1513.75 133.026 1511.08 131.062 Q1508.45 129.06 1505.78 129.06 Q1504.78 129.06 1503.71 129.357 Q1502.67 129.653 1501.15 130.506 Q1499.63 131.358 1498.45 133.471 Q1497.3 135.583 1496.74 138.771 Q1496.15 142.885 1496.15 152.743 Z" fill="#000000" fill-rule="evenodd" fill-opacity="1" /><path clip-path="url(#clip660)" d="M1527.79 153.67 Q1527.79 142.514 1530.61 136.436 Q1534.53 127.393 1543.8 127.393 Q1545.76 127.393 1547.8 127.949 Q1549.87 128.467 1552.47 130.506 Q1555.1 132.544 1556.69 135.88 Q1559.73 142.329 1559.73 153.67 Q1559.73 164.751 1556.91 170.792 Q1552.8 179.613 1543.72 179.613 Q1540.32 179.613 1536.83 177.871 Q1533.39 176.129 1531.2 171.941 Q1527.79 165.678 1527.79 153.67 M1534.09 152.743 Q1534.09 164.195 1534.91 168.754 Q1535.83 173.683 1538.35 175.833 Q1540.91 177.945 1543.72 177.945 Q1546.76 177.945 1549.28 175.684 Q1551.84 173.386 1552.62 168.457 Q1553.47 163.602 1553.43 152.743 Q1553.43 142.18 1552.69 137.955 Q1551.69 133.026 1549.02 131.062 Q1546.39 129.06 1543.72 129.06 Q1542.72 129.06 1541.65 129.357 Q1540.61 129.653 1539.09 130.506 Q1537.57 131.358 1536.39 133.471 Q1535.24 135.583 1534.68 138.771 Q1534.09 142.885 1534.09 152.743 Z" fill="#000000" fill-rule="evenodd" fill-opacity="1" /><path clip-path="url(#clip660)" d="M1565.73 153.67 Q1565.73 142.514 1568.55 136.436 Q1572.48 127.393 1581.74 127.393 Q1583.7 127.393 1585.74 127.949 Q1587.81 128.467 1590.41 130.506 Q1593.04 132.544 1594.63 135.88 Q1597.67 142.329 1597.67 153.67 Q1597.67 164.751 1594.85 170.792 Q1590.74 179.613 1581.66 179.613 Q1578.26 179.613 1574.77 177.871 Q1571.33 176.129 1569.14 171.941 Q1565.73 165.678 1565.73 153.67 M1572.03 152.743 Q1572.03 164.195 1572.85 168.754 Q1573.77 173.683 1576.29 175.833 Q1578.85 177.945 1581.66 177.945 Q1584.7 177.945 1587.22 175.684 Q1589.78 173.386 1590.56 168.457 Q1591.41 163.602 1591.37 152.743 Q1591.37 142.18 1590.63 137.955 Q1589.63 133.026 1586.96 131.062 Q1584.33 129.06 1581.66 129.06 Q1580.66 129.06 1579.59 129.357 Q1578.55 129.653 1577.03 130.506 Q1575.51 131.358 1574.33 133.471 Q1573.18 135.583 1572.62 138.771 Q1572.03 142.885 1572.03 152.743 Z" fill="#000000" fill-rule="evenodd" fill-opacity="1" /><path clip-path="url(#clip660)" d="M1030.05 191.388 L991.644 229.795 L1030.05 268.202 L1068.46 229.795 L1030.05 191.388 Z" fill="#f89c74" fill-rule="evenodd" fill-opacity="1" stroke="#000000" stroke-opacity="1" stroke-width="5.0592"/>
<path clip-path="url(#clip660)" d="M1092.14 229.776 Q1092.14 218.324 1099.96 210.282 Q1107.78 202.202 1118.52 202.202 Q1121.86 202.202 1124.82 203.425 Q1127.78 204.648 1129.16 205.723 Q1130.53 206.761 1132.49 208.725 L1136.31 203.129 Q1136.9 202.202 1137.49 202.202 Q1138.12 202.202 1138.23 202.573 Q1138.34 202.906 1138.34 204.018 L1138.34 222.03 Q1138.34 223.253 1138.2 223.55 Q1138.05 223.846 1137.12 223.846 Q1136.38 223.846 1136.19 223.624 Q1136.05 223.401 1135.9 222.549 Q1134.75 214.358 1130.19 209.466 Q1125.67 204.574 1119.37 204.574 Q1117.56 204.574 1115.52 204.982 Q1113.52 205.389 1110.59 206.946 Q1107.7 208.503 1105.44 211.097 Q1103.22 213.654 1101.59 218.546 Q1099.96 223.401 1099.96 229.85 Q1099.96 236.225 1101.59 241.117 Q1103.22 246.009 1105.44 248.566 Q1107.7 251.087 1110.59 252.643 Q1113.52 254.2 1115.56 254.645 Q1117.63 255.052 1119.45 255.052 Q1125.97 255.052 1130.97 250.42 Q1135.97 245.787 1136.45 237.967 Q1136.53 237.596 1136.53 237.448 Q1136.53 237.263 1136.6 237.077 Q1136.68 236.892 1136.86 236.818 Q1137.05 236.744 1137.34 236.744 Q1138.34 236.744 1138.34 238.041 Q1138.34 245.268 1132.79 251.346 Q1127.27 257.387 1118.52 257.387 Q1107.74 257.387 1099.92 249.382 Q1092.14 241.376 1092.14 229.776 Z" fill="#000000" fill-rule="evenodd" fill-opacity="1" /><path clip-path="url(#clip660)" d="M1145.16 255.719 L1145.16 253.384 L1146.98 253.384 Q1151.09 253.384 1152.02 252.717 Q1152.98 252.013 1152.98 249.789 L1152.98 209.8 Q1152.98 207.613 1152.02 206.946 Q1151.05 206.242 1146.98 206.242 L1145.16 206.242 L1145.16 203.87 Q1147.83 204.092 1156.39 204.092 Q1164.87 204.092 1167.54 203.87 L1167.54 206.242 L1165.72 206.242 Q1161.61 206.242 1160.65 206.946 Q1159.72 207.613 1159.72 209.8 L1159.72 233.927 L1183.47 211.245 Q1184.84 210.022 1184.84 208.725 Q1184.84 208.28 1184.62 207.798 Q1184.44 207.28 1183.55 206.761 Q1182.69 206.242 1181.32 206.242 L1181.32 203.87 Q1183.92 204.092 1190.99 204.092 Q1195.48 204.092 1197.44 203.87 L1197.44 206.242 Q1191.14 206.316 1186.66 210.8 L1172.99 223.92 L1190.51 249.715 Q1192.11 252.05 1193.66 252.717 Q1195.22 253.384 1198.48 253.384 L1198.48 255.719 Q1193.7 255.497 1189.77 255.497 Q1181.58 255.497 1178.92 255.719 L1178.92 253.384 Q1183.4 253.384 1183.4 251.087 Q1183.4 250.234 1182.25 248.492 L1168.5 228.182 L1159.72 236.521 L1159.72 249.789 Q1159.72 251.976 1160.65 252.68 Q1161.61 253.384 1165.72 253.384 L1167.54 253.384 L1167.54 255.719 Q1164.87 255.497 1156.31 255.497 Q1147.83 255.497 1145.16 255.719 Z" fill="#000000" fill-rule="evenodd" fill-opacity="1" /><path clip-path="url(#clip660)" d="M1204.04 255.719 L1204.04 253.384 Q1210.78 253.236 1212.52 248.27 L1228.23 202.906 Q1228.53 201.98 1228.86 201.683 Q1229.19 201.387 1230.05 201.387 Q1230.49 201.387 1230.75 201.461 Q1231.05 201.535 1231.23 201.794 Q1231.42 202.054 1231.49 202.202 Q1231.57 202.35 1231.79 202.906 L1248.16 250.345 Q1248.76 252.236 1249.98 252.829 Q1251.2 253.384 1254.65 253.384 L1255.98 253.384 L1255.98 255.719 Q1251.2 255.497 1246.05 255.497 Q1237.86 255.497 1235.12 255.719 L1235.12 253.384 Q1241.42 253.384 1241.42 251.087 Q1241.42 250.938 1241.2 250.012 L1237.2 238.411 L1218.45 238.411 L1214.93 248.344 Q1214.78 248.641 1214.78 249.493 Q1214.78 251.087 1216.26 252.236 Q1217.75 253.384 1220.49 253.384 L1220.49 255.719 Q1213.19 255.497 1211.74 255.497 Q1209.26 255.497 1204.04 255.719 M1219.26 236.077 L1236.34 236.077 L1227.79 211.393 L1219.26 236.077 Z" fill="#000000" fill-rule="evenodd" fill-opacity="1" /><path clip-path="url(#clip660)" d="M1266.1 254.496 Q1265.02 253.273 1265.02 251.68 Q1265.02 250.086 1266.06 248.9 Q1267.13 247.677 1269.06 247.677 Q1271.32 247.677 1272.62 249.864 Q1273.92 252.013 1273.92 255.645 Q1273.92 259.574 1272.32 263.206 Q1270.73 266.875 1269.17 268.617 Q1267.62 270.359 1266.99 270.359 Q1266.25 270.359 1266.25 269.543 Q1266.25 269.247 1266.76 268.691 Q1272.21 262.835 1272.25 255.645 Q1272.25 254.496 1272.1 254.496 L1271.91 254.645 Q1270.62 255.719 1269.06 255.719 Q1267.17 255.719 1266.1 254.496 Z" fill="#000000" fill-rule="evenodd" fill-opacity="1" /><path clip-path="url(#clip660)" d="M1307 228.553 Q1307 228.479 1307.15 227.96 Q1307.34 227.404 1307.82 226.589 Q1308.3 225.736 1308.93 224.958 Q1309.6 224.143 1310.74 223.587 Q1311.89 222.994 1313.23 222.994 Q1313.37 222.994 1313.6 223.031 Q1313.86 223.068 1313.93 223.068 L1334.57 223.068 Q1335.57 223.068 1335.94 223.401 Q1336.31 223.698 1336.31 224.81 L1336.31 226.329 Q1336.31 227.404 1335.87 227.701 Q1335.46 227.997 1334.57 227.997 L1322.49 227.997 L1322.49 238.263 Q1322.49 250.79 1327.82 250.79 Q1329.05 250.79 1330.31 249.938 Q1331.6 249.048 1331.9 249.048 Q1333.12 249.048 1333.12 251.235 Q1333.12 253.347 1331.6 254.978 Q1330.09 256.572 1327.82 256.572 Q1325.38 256.572 1323.79 255.126 Q1322.19 253.681 1321.53 250.938 Q1320.9 248.196 1320.75 246.12 Q1320.6 244.045 1320.6 240.932 L1320.6 227.997 L1314.82 227.997 Q1314.6 227.997 1314.19 227.96 Q1313.78 227.923 1313.56 227.923 Q1311.45 227.923 1309.67 228.701 Q1307.93 229.443 1307.85 229.443 Q1307 229.48 1307 228.553 Z" fill="#000000" fill-rule="evenodd" fill-opacity="1" /><path clip-path="url(#clip660)" d="M1369.03 244.193 Q1369.1 243.267 1370.55 243.267 L1417.04 243.267 Q1419.23 243.267 1419.27 244.119 Q1419.27 245.046 1417.19 245.009 L1371.06 245.009 Q1369.03 245.046 1369.03 244.193 M1369.03 229.368 Q1369.03 228.442 1370.62 228.479 L1416.97 228.479 Q1419.23 228.479 1419.27 229.368 Q1419.27 230.221 1417.34 230.221 L1370.55 230.221 Q1369.03 230.221 1369.03 229.368 Z" fill="#000000" fill-rule="evenodd" fill-opacity="1" /><path clip-path="url(#clip660)" d="M1455.69 212.394 L1455.69 210.022 Q1464.8 210.022 1469.51 205.167 Q1470.81 205.167 1471.03 205.463 Q1471.25 205.76 1471.25 207.131 L1471.25 249.715 Q1471.25 251.976 1472.36 252.68 Q1473.47 253.384 1478.33 253.384 L1480.74 253.384 L1480.74 255.719 Q1478.07 255.497 1468.44 255.497 Q1458.8 255.497 1456.17 255.719 L1456.17 253.384 L1458.58 253.384 Q1463.36 253.384 1464.51 252.717 Q1465.66 252.013 1465.66 249.715 L1465.66 210.393 Q1461.69 212.394 1455.69 212.394 Z" fill="#000000" fill-rule="evenodd" fill-opacity="1" /><path clip-path="url(#clip660)" d="M1489.85 231.444 Q1489.85 220.288 1492.67 214.21 Q1496.59 205.167 1505.86 205.167 Q1507.82 205.167 1509.86 205.723 Q1511.93 206.242 1514.53 208.28 Q1517.16 210.319 1518.75 213.654 Q1521.79 220.103 1521.79 231.444 Q1521.79 242.525 1518.97 248.566 Q1514.86 257.387 1505.78 257.387 Q1502.37 257.387 1498.89 255.645 Q1495.45 253.903 1493.26 249.715 Q1489.85 243.452 1489.85 231.444 M1496.15 230.517 Q1496.15 241.969 1496.96 246.528 Q1497.89 251.457 1500.41 253.607 Q1502.97 255.719 1505.78 255.719 Q1508.82 255.719 1511.34 253.459 Q1513.9 251.161 1514.68 246.232 Q1515.53 241.376 1515.49 230.517 Q1515.49 219.955 1514.75 215.73 Q1513.75 210.8 1511.08 208.836 Q1508.45 206.835 1505.78 206.835 Q1504.78 206.835 1503.71 207.131 Q1502.67 207.428 1501.15 208.28 Q1499.63 209.133 1498.45 211.245 Q1497.3 213.358 1496.74 216.545 Q1496.15 220.659 1496.15 230.517 Z" fill="#000000" fill-rule="evenodd" fill-opacity="1" /><path clip-path="url(#clip660)" d="M1527.79 231.444 Q1527.79 220.288 1530.61 214.21 Q1534.53 205.167 1543.8 205.167 Q1545.76 205.167 1547.8 205.723 Q1549.87 206.242 1552.47 208.28 Q1555.1 210.319 1556.69 213.654 Q1559.73 220.103 1559.73 231.444 Q1559.73 242.525 1556.91 248.566 Q1552.8 257.387 1543.72 257.387 Q1540.32 257.387 1536.83 255.645 Q1533.39 253.903 1531.2 249.715 Q1527.79 243.452 1527.79 231.444 M1534.09 230.517 Q1534.09 241.969 1534.91 246.528 Q1535.83 251.457 1538.35 253.607 Q1540.91 255.719 1543.72 255.719 Q1546.76 255.719 1549.28 253.459 Q1551.84 251.161 1552.62 246.232 Q1553.47 241.376 1553.43 230.517 Q1553.43 219.955 1552.69 215.73 Q1551.69 210.8 1549.02 208.836 Q1546.39 206.835 1543.72 206.835 Q1542.72 206.835 1541.65 207.131 Q1540.61 207.428 1539.09 208.28 Q1537.57 209.133 1536.39 211.245 Q1535.24 213.358 1534.68 216.545 Q1534.09 220.659 1534.09 230.517 Z" fill="#000000" fill-rule="evenodd" fill-opacity="1" /><path clip-path="url(#clip660)" d="M1030.05 345.976 L996.79 326.772 L996.79 288.365 L1030.05 269.162 L1063.31 288.365 L1063.31 326.772 Z" fill="#f6cf71" fill-rule="evenodd" fill-opacity="1" stroke="#000000" stroke-opacity="1" stroke-width="5.0592"/>
<path clip-path="url(#clip660)" d="M1092.14 333.494 L1092.14 331.159 L1093.96 331.159 Q1098.07 331.159 1099 330.492 Q1099.96 329.788 1099.96 327.564 L1099.96 287.574 Q1099.96 285.387 1099 284.72 Q1098.03 284.016 1093.96 284.016 L1092.14 284.016 L1092.14 281.644 L1119.89 281.644 Q1127.12 281.644 1131.93 285.536 Q1136.75 289.39 1136.75 294.468 Q1136.75 298.656 1133.19 301.991 Q1129.67 305.327 1124.15 306.401 Q1130.45 307.069 1134.6 310.886 Q1138.79 314.666 1138.79 319.596 Q1138.79 325.155 1134.01 329.343 Q1129.23 333.494 1121.89 333.494 L1092.14 333.494 M1106.26 328.12 Q1106.26 330.084 1106.81 330.64 Q1107.37 331.159 1109.96 331.159 L1119.45 331.159 Q1124.89 331.159 1128.04 327.601 Q1131.19 324.006 1131.19 319.521 Q1131.19 315.037 1128.41 311.22 Q1125.67 307.365 1120.52 307.365 L1106.26 307.365 L1106.26 328.12 M1106.26 305.697 L1117.26 305.697 Q1123.12 305.697 1126.23 302.176 Q1129.38 298.656 1129.38 294.468 Q1129.38 290.761 1126.86 287.389 Q1124.38 284.016 1119.37 284.016 L1109.96 284.016 Q1107.37 284.016 1106.81 284.535 Q1106.26 285.054 1106.26 287.055 L1106.26 305.697 Z" fill="#000000" fill-rule="evenodd" fill-opacity="1" /><path clip-path="url(#clip660)" d="M1145.75 333.494 L1145.75 331.159 L1147.57 331.159 Q1151.68 331.159 1152.61 330.492 Q1153.57 329.788 1153.57 327.564 L1153.57 287.574 Q1153.57 285.387 1152.61 284.72 Q1151.65 284.016 1147.57 284.016 L1145.75 284.016 L1145.75 281.644 L1172.54 281.644 Q1180.21 281.644 1185.33 285.869 Q1190.44 290.094 1190.44 295.765 Q1190.44 301.398 1185.21 305.475 Q1180.03 309.515 1173.14 309.515 L1160.32 309.515 L1160.32 327.564 Q1160.32 329.75 1161.24 330.455 Q1162.2 331.159 1166.32 331.159 L1168.13 331.159 L1168.13 333.494 Q1165.47 333.271 1156.91 333.271 Q1148.42 333.271 1145.75 333.494 M1160.09 307.55 L1170.54 307.55 Q1173.95 307.55 1176.43 306.587 Q1178.92 305.623 1180.03 304.474 Q1181.18 303.288 1181.81 301.398 Q1182.47 299.471 1182.55 298.433 Q1182.62 297.358 1182.62 295.765 Q1182.62 294.097 1182.55 293.059 Q1182.47 291.984 1181.81 290.094 Q1181.18 288.167 1180.03 287.018 Q1178.92 285.832 1176.43 284.943 Q1173.99 284.016 1170.54 284.016 L1163.8 284.016 Q1161.2 284.016 1160.65 284.535 Q1160.09 285.054 1160.09 287.055 L1160.09 307.55 Z" fill="#000000" fill-rule="evenodd" fill-opacity="1" /><path clip-path="url(#clip660)" d="M1190.81 333.494 L1190.81 331.159 Q1197.55 331.011 1199.29 326.044 L1215 280.681 Q1215.3 279.754 1215.63 279.458 Q1215.97 279.161 1216.82 279.161 Q1217.26 279.161 1217.52 279.235 Q1217.82 279.309 1218 279.569 Q1218.19 279.828 1218.26 279.976 Q1218.34 280.125 1218.56 280.681 L1234.94 328.12 Q1235.53 330.01 1236.75 330.603 Q1237.98 331.159 1241.42 331.159 L1242.75 331.159 L1242.75 333.494 Q1237.98 333.271 1232.83 333.271 Q1224.64 333.271 1221.89 333.494 L1221.89 331.159 Q1228.19 331.159 1228.19 328.861 Q1228.19 328.713 1227.97 327.786 L1223.97 316.186 L1205.22 316.186 L1201.7 326.118 Q1201.55 326.415 1201.55 327.267 Q1201.55 328.861 1203.04 330.01 Q1204.52 331.159 1207.26 331.159 L1207.26 333.494 Q1199.96 333.271 1198.52 333.271 Q1196.03 333.271 1190.81 333.494 M1206.04 313.851 L1223.12 313.851 L1214.56 289.168 L1206.04 313.851 Z" fill="#000000" fill-rule="evenodd" fill-opacity="1" /><path clip-path="url(#clip660)" d="M1250.2 300.027 Q1250.2 298.73 1251.94 297.877 L1262.5 292.874 L1251.8 287.871 Q1250.2 287.129 1250.2 285.832 Q1250.2 285.091 1250.79 284.424 Q1251.42 283.72 1252.24 283.72 Q1252.83 283.72 1253.91 284.535 L1263.32 291.354 Q1262.17 278.827 1262.21 278.457 Q1262.21 277.716 1262.76 277.16 Q1263.32 276.567 1264.24 276.567 Q1264.99 276.567 1265.58 277.123 Q1266.21 277.641 1266.21 278.457 L1265.1 291.354 L1273.51 285.128 Q1275.47 283.683 1276.18 283.72 Q1277.03 283.72 1277.62 284.387 Q1278.21 285.054 1278.21 285.832 Q1278.21 287.129 1276.47 287.945 L1265.91 292.948 L1276.62 297.988 Q1278.21 298.73 1278.21 300.027 Q1278.21 300.768 1277.58 301.472 Q1276.99 302.139 1276.18 302.139 Q1275.73 302.139 1274.95 301.695 Q1274.8 301.621 1273.21 300.435 Q1271.62 299.249 1269.14 297.433 Q1266.69 295.616 1265.1 294.468 Q1266.25 306.994 1266.21 307.365 Q1266.21 308.106 1265.65 308.699 Q1265.1 309.292 1264.17 309.292 Q1263.43 309.292 1262.8 308.773 Q1262.21 308.218 1262.21 307.365 L1263.32 294.468 L1252.72 302.139 Q1251.57 302.139 1250.94 301.583 Q1250.35 300.99 1250.28 300.657 Q1250.2 300.323 1250.2 300.027 Z" fill="#000000" fill-rule="evenodd" fill-opacity="1" /><path clip-path="url(#clip660)" d="M1030.05 346.936 L1021.03 372.899 L993.526 373.475 L1015.46 390.106 L1007.47 416.415 L1030.05 400.706 L1052.63 416.415 L1044.65 390.106 L1066.58 373.475 L1039.08 372.899 L1030.05 346.936 Z" fill="#66c5cc" fill-rule="evenodd" fill-opacity="1" stroke="#000000" stroke-opacity="1" stroke-width="5.0592"/>
<path clip-path="url(#clip660)" d="M1092.14 411.268 L1092.14 408.933 L1093.96 408.933 Q1098.07 408.933 1099 408.266 Q1099.96 407.562 1099.96 405.338 L1099.96 365.348 Q1099.96 363.162 1099 362.495 Q1098.03 361.79 1093.96 361.79 L1092.14 361.79 L1092.14 359.418 L1119.89 359.418 Q1127.12 359.418 1131.93 363.31 Q1136.75 367.164 1136.75 372.242 Q1136.75 376.43 1133.19 379.765 Q1129.67 383.101 1124.15 384.176 Q1130.45 384.843 1134.6 388.66 Q1138.79 392.441 1138.79 397.37 Q1138.79 402.929 1134.01 407.117 Q1129.23 411.268 1121.89 411.268 L1092.14 411.268 M1106.26 405.894 Q1106.26 407.858 1106.81 408.414 Q1107.37 408.933 1109.96 408.933 L1119.45 408.933 Q1124.89 408.933 1128.04 405.375 Q1131.19 401.78 1131.19 397.296 Q1131.19 392.811 1128.41 388.994 Q1125.67 385.139 1120.52 385.139 L1106.26 385.139 L1106.26 405.894 M1106.26 383.472 L1117.26 383.472 Q1123.12 383.472 1126.23 379.951 Q1129.38 376.43 1129.38 372.242 Q1129.38 368.536 1126.86 365.163 Q1124.38 361.79 1119.37 361.79 L1109.96 361.79 Q1107.37 361.79 1106.81 362.309 Q1106.26 362.828 1106.26 364.83 L1106.26 383.472 Z" fill="#000000" fill-rule="evenodd" fill-opacity="1" /><path clip-path="url(#clip660)" d="M1145.75 411.268 L1145.75 408.933 L1147.57 408.933 Q1151.68 408.933 1152.61 408.266 Q1153.57 407.562 1153.57 405.338 L1153.57 365.348 Q1153.57 363.162 1152.61 362.495 Q1151.65 361.79 1147.57 361.79 L1145.75 361.79 L1145.75 359.418 L1172.54 359.418 Q1180.21 359.418 1185.33 363.644 Q1190.44 367.869 1190.44 373.539 Q1190.44 379.172 1185.21 383.249 Q1180.03 387.289 1173.14 387.289 L1160.32 387.289 L1160.32 405.338 Q1160.32 407.525 1161.24 408.229 Q1162.2 408.933 1166.32 408.933 L1168.13 408.933 L1168.13 411.268 Q1165.47 411.046 1156.91 411.046 Q1148.42 411.046 1145.75 411.268 M1160.09 385.325 L1170.54 385.325 Q1173.95 385.325 1176.43 384.361 Q1178.92 383.398 1180.03 382.249 Q1181.18 381.063 1181.81 379.172 Q1182.47 377.245 1182.55 376.208 Q1182.62 375.133 1182.62 373.539 Q1182.62 371.871 1182.55 370.834 Q1182.47 369.759 1181.81 367.869 Q1181.18 365.941 1180.03 364.792 Q1178.92 363.606 1176.43 362.717 Q1173.99 361.79 1170.54 361.79 L1163.8 361.79 Q1161.2 361.79 1160.65 362.309 Q1160.09 362.828 1160.09 364.83 L1160.09 385.325 Z" fill="#000000" fill-rule="evenodd" fill-opacity="1" /><path clip-path="url(#clip660)" d="M1190.81 411.268 L1190.81 408.933 Q1197.55 408.785 1199.29 403.819 L1215 358.455 Q1215.3 357.528 1215.63 357.232 Q1215.97 356.935 1216.82 356.935 Q1217.26 356.935 1217.52 357.009 Q1217.82 357.084 1218 357.343 Q1218.19 357.602 1218.26 357.751 Q1218.34 357.899 1218.56 358.455 L1234.94 405.894 Q1235.53 407.784 1236.75 408.377 Q1237.98 408.933 1241.42 408.933 L1242.75 408.933 L1242.75 411.268 Q1237.98 411.046 1232.83 411.046 Q1224.64 411.046 1221.89 411.268 L1221.89 408.933 Q1228.19 408.933 1228.19 406.635 Q1228.19 406.487 1227.97 405.561 L1223.97 393.96 L1205.22 393.96 L1201.7 403.893 Q1201.55 404.189 1201.55 405.042 Q1201.55 406.635 1203.04 407.784 Q1204.52 408.933 1207.26 408.933 L1207.26 411.268 Q1199.96 411.046 1198.52 411.046 Q1196.03 411.046 1190.81 411.268 M1206.04 391.625 L1223.12 391.625 L1214.56 366.942 L1206.04 391.625 Z" fill="#000000" fill-rule="evenodd" fill-opacity="1" /></svg>
