<?xml version="1.0" encoding="utf-8"?>
<svg xmlns="http://www.w3.org/2000/svg" xmlns:xlink="http://www.w3.org/1999/xlink" width="426.75" height="263.5" viewBox="0 0 1707 1054">
<defs>
  <clipPath id="clip180">
    <rect x="0" y="0" width="1707" height="1054"/>
  </clipPath>
</defs>
<path clip-path="url(#clip180)" d="M0 1054 L1707 1054 L1707 0 L0 0  Z" fill="#ffffff" fill-rule="evenodd" fill-opacity="1"/>
<defs>
  <clipPath id="clip181">
    <rect x="341" y="0" width="1196" height="1054"/>
  </clipPath>
</defs>
<defs>
  <clipPath id="clip182">
    <rect x="273" y="47" width="1387" height="826"/>
  </clipPath>
</defs>
<path clip-path="url(#clip180)" d="M261.958 872.688 L1659.76 872.688 L1659.76 47.2528 L261.958 47.2528  Z" fill="#ffffff" fill-rule="evenodd" fill-opacity="1"/>
<defs>
  <clipPath id="clip183">
    <rect x="261" y="47" width="1399" height="826"/>
  </clipPath>
</defs>
<polyline clip-path="url(#clip183)" style="stroke:#000000; stroke-linecap:round; stroke-linejoin:round; stroke-width:2.00037; stroke-opacity:0.1; fill:none" points="301.518,872.688 301.518,47.2528 "/>
<polyline clip-path="url(#clip183)" style="stroke:#000000; stroke-linecap:round; stroke-linejoin:round; stroke-width:2.00037; stroke-opacity:0.1; fill:none" points="631.189,872.688 631.189,47.2528 "/>
<polyline clip-path="url(#clip183)" style="stroke:#000000; stroke-linecap:round; stroke-linejoin:round; stroke-width:2.00037; stroke-opacity:0.1; fill:none" points="960.859,872.688 960.859,47.2528 "/>
<polyline clip-path="url(#clip183)" style="stroke:#000000; stroke-linecap:round; stroke-linejoin:round; stroke-width:2.00037; stroke-opacity:0.1; fill:none" points="1290.53,872.688 1290.53,47.2528 "/>
<polyline clip-path="url(#clip183)" style="stroke:#000000; stroke-linecap:round; stroke-linejoin:round; stroke-width:2.00037; stroke-opacity:0.1; fill:none" points="1620.2,872.688 1620.2,47.2528 "/>
<polyline clip-path="url(#clip180)" style="stroke:#000000; stroke-linecap:round; stroke-linejoin:round; stroke-width:4.00074; stroke-opacity:1; fill:none" points="261.958,872.688 1659.76,872.688 "/>
<polyline clip-path="url(#clip180)" style="stroke:#000000; stroke-linecap:round; stroke-linejoin:round; stroke-width:4.00074; stroke-opacity:1; fill:none" points="261.958,47.2528 1659.76,47.2528 "/>
<polyline clip-path="url(#clip180)" style="stroke:#000000; stroke-linecap:round; stroke-linejoin:round; stroke-width:4.00074; stroke-opacity:1; fill:none" points="301.518,872.688 301.518,853.787 "/>
<polyline clip-path="url(#clip180)" style="stroke:#000000; stroke-linecap:round; stroke-linejoin:round; stroke-width:4.00074; stroke-opacity:1; fill:none" points="631.189,872.688 631.189,853.787 "/>
<polyline clip-path="url(#clip180)" style="stroke:#000000; stroke-linecap:round; stroke-linejoin:round; stroke-width:4.00074; stroke-opacity:1; fill:none" points="960.859,872.688 960.859,853.787 "/>
<polyline clip-path="url(#clip180)" style="stroke:#000000; stroke-linecap:round; stroke-linejoin:round; stroke-width:4.00074; stroke-opacity:1; fill:none" points="1290.53,872.688 1290.53,853.787 "/>
<polyline clip-path="url(#clip180)" style="stroke:#000000; stroke-linecap:round; stroke-linejoin:round; stroke-width:4.00074; stroke-opacity:1; fill:none" points="1620.2,872.688 1620.2,853.787 "/>
<path clip-path="url(#clip180)" d="M259.828 923.507 Q259.828 913.281 262.409 907.709 Q266.009 899.419 274.5 899.419 Q276.3 899.419 278.168 899.929 Q280.07 900.405 282.448 902.273 Q284.859 904.142 286.32 907.199 Q289.105 913.111 289.105 923.507 Q289.105 933.665 286.523 939.202 Q282.753 947.288 274.432 947.288 Q271.308 947.288 268.115 945.691 Q264.956 944.094 262.953 940.255 Q259.828 934.514 259.828 923.507 M265.602 922.657 Q265.602 933.155 266.349 937.334 Q267.198 941.852 269.508 943.823 Q271.851 945.759 274.432 945.759 Q277.217 945.759 279.527 943.687 Q281.87 941.58 282.584 937.062 Q283.365 932.611 283.331 922.657 Q283.331 912.975 282.652 909.102 Q281.735 904.583 279.289 902.783 Q276.878 900.948 274.432 900.948 Q273.515 900.948 272.53 901.22 Q271.579 901.492 270.187 902.273 Q268.794 903.055 267.707 904.991 Q266.655 906.928 266.145 909.849 Q265.602 913.62 265.602 922.657 Z" fill="#000000" fill-rule="evenodd" fill-opacity="1" /><path clip-path="url(#clip180)" d="M298.852 944.638 Q297.799 943.517 297.799 942.056 Q297.799 940.595 298.852 939.542 Q299.905 938.455 301.502 938.455 Q303.03 938.455 304.049 939.474 Q305.102 940.459 305.102 942.09 Q305.102 943.687 303.981 944.74 Q302.894 945.759 301.502 945.759 Q299.905 945.759 298.852 944.638 Z" fill="#000000" fill-rule="evenodd" fill-opacity="1" /><path clip-path="url(#clip180)" d="M313.932 923.507 Q313.932 913.281 316.514 907.709 Q320.114 899.419 328.605 899.419 Q330.405 899.419 332.273 899.929 Q334.175 900.405 336.552 902.273 Q338.964 904.142 340.424 907.199 Q343.209 913.111 343.209 923.507 Q343.209 933.665 340.628 939.202 Q336.858 947.288 328.537 947.288 Q325.412 947.288 322.219 945.691 Q319.061 944.094 317.057 940.255 Q313.932 934.514 313.932 923.507 M319.706 922.657 Q319.706 933.155 320.453 937.334 Q321.302 941.852 323.612 943.823 Q325.955 945.759 328.537 945.759 Q331.322 945.759 333.631 943.687 Q335.975 941.58 336.688 937.062 Q337.469 932.611 337.435 922.657 Q337.435 912.975 336.756 909.102 Q335.839 904.583 333.394 902.783 Q330.982 900.948 328.537 900.948 Q327.62 900.948 326.635 901.22 Q325.684 901.492 324.291 902.273 Q322.899 903.055 321.812 904.991 Q320.759 906.928 320.25 909.849 Q319.706 913.62 319.706 922.657 Z" fill="#000000" fill-rule="evenodd" fill-opacity="1" /><path clip-path="url(#clip180)" d="M589.872 923.507 Q589.872 913.281 592.453 907.709 Q596.053 899.419 604.544 899.419 Q606.344 899.419 608.212 899.929 Q610.114 900.405 612.492 902.273 Q614.903 904.142 616.364 907.199 Q619.149 913.111 619.149 923.507 Q619.149 933.665 616.567 939.202 Q612.797 947.288 604.476 947.288 Q601.352 947.288 598.159 945.691 Q595 944.094 592.997 940.255 Q589.872 934.514 589.872 923.507 M595.646 922.657 Q595.646 933.155 596.393 937.334 Q597.242 941.852 599.552 943.823 Q601.895 945.759 604.476 945.759 Q607.261 945.759 609.571 943.687 Q611.914 941.58 612.628 937.062 Q613.409 932.611 613.375 922.657 Q613.375 912.975 612.696 909.102 Q611.779 904.583 609.333 902.783 Q606.922 900.948 604.476 900.948 Q603.559 900.948 602.574 901.22 Q601.623 901.492 600.231 902.273 Q598.838 903.055 597.751 904.991 Q596.699 906.928 596.189 909.849 Q595.646 913.62 595.646 922.657 Z" fill="#000000" fill-rule="evenodd" fill-opacity="1" /><path clip-path="url(#clip180)" d="M628.896 944.638 Q627.843 943.517 627.843 942.056 Q627.843 940.595 628.896 939.542 Q629.949 938.455 631.545 938.455 Q633.074 938.455 634.093 939.474 Q635.146 940.459 635.146 942.09 Q635.146 943.687 634.025 944.74 Q632.938 945.759 631.545 945.759 Q629.949 945.759 628.896 944.638 Z" fill="#000000" fill-rule="evenodd" fill-opacity="1" /><path clip-path="url(#clip180)" d="M644.723 934.548 Q644.723 932.476 645.844 931.694 Q646.965 930.879 648.154 930.879 Q649.75 930.879 650.667 931.898 Q651.618 932.883 651.618 934.276 Q651.618 935.669 650.667 936.688 Q649.75 937.674 648.154 937.674 Q647.373 937.674 646.965 937.538 Q647.882 940.731 650.667 943.041 Q653.486 945.351 657.188 945.351 Q661.841 945.351 664.626 940.833 Q666.29 937.911 666.29 931.287 Q666.29 925.443 665.034 922.521 Q663.098 918.071 659.124 918.071 Q653.486 918.071 650.158 922.929 Q649.75 923.541 649.275 923.575 Q648.595 923.575 648.426 923.201 Q648.29 922.793 648.29 921.74 L648.29 901.152 Q648.29 899.487 648.969 899.487 Q649.241 899.487 649.818 899.691 Q654.199 901.628 659.056 901.662 Q664.049 901.662 668.532 899.623 Q668.872 899.419 669.076 899.419 Q669.755 899.419 669.789 900.201 Q669.789 900.473 669.211 901.288 Q668.668 902.069 667.479 903.123 Q666.29 904.142 664.762 905.127 Q663.234 906.112 660.992 906.792 Q658.784 907.437 656.339 907.437 Q653.418 907.437 650.429 906.52 L650.429 920.075 Q654.03 916.542 659.26 916.542 Q664.83 916.542 668.668 921.027 Q672.506 925.511 672.506 931.762 Q672.506 938.319 667.955 942.803 Q663.438 947.288 657.324 947.288 Q651.754 947.288 648.222 943.313 Q644.723 939.338 644.723 934.548 Z" fill="#000000" fill-rule="evenodd" fill-opacity="1" /><path clip-path="url(#clip180)" d="M920.901 906.044 L920.901 903.87 Q929.256 903.87 933.569 899.419 Q934.758 899.419 934.962 899.691 Q935.166 899.963 935.166 901.22 L935.166 940.255 Q935.166 942.328 936.185 942.973 Q937.203 943.619 941.653 943.619 L943.86 943.619 L943.86 945.759 Q941.415 945.555 932.584 945.555 Q923.754 945.555 921.342 945.759 L921.342 943.619 L923.55 943.619 Q927.931 943.619 928.984 943.007 Q930.037 942.362 930.037 940.255 L930.037 904.21 Q926.403 906.044 920.901 906.044 Z" fill="#000000" fill-rule="evenodd" fill-opacity="1" /><path clip-path="url(#clip180)" d="M956.461 944.638 Q955.408 943.517 955.408 942.056 Q955.408 940.595 956.461 939.542 Q957.514 938.455 959.11 938.455 Q960.638 938.455 961.657 939.474 Q962.71 940.459 962.71 942.09 Q962.71 943.687 961.589 944.74 Q960.503 945.759 959.11 945.759 Q957.514 945.759 956.461 944.638 Z" fill="#000000" fill-rule="evenodd" fill-opacity="1" /><path clip-path="url(#clip180)" d="M971.541 923.507 Q971.541 913.281 974.122 907.709 Q977.722 899.419 986.213 899.419 Q988.013 899.419 989.881 899.929 Q991.783 900.405 994.161 902.273 Q996.572 904.142 998.033 907.199 Q1000.82 913.111 1000.82 923.507 Q1000.82 933.665 998.236 939.202 Q994.466 947.288 986.145 947.288 Q983.021 947.288 979.828 945.691 Q976.669 944.094 974.666 940.255 Q971.541 934.514 971.541 923.507 M977.315 922.657 Q977.315 933.155 978.062 937.334 Q978.911 941.852 981.221 943.823 Q983.564 945.759 986.145 945.759 Q988.93 945.759 991.24 943.687 Q993.583 941.58 994.297 937.062 Q995.078 932.611 995.044 922.657 Q995.044 912.975 994.365 909.102 Q993.448 904.583 991.002 902.783 Q988.591 900.948 986.145 900.948 Q985.228 900.948 984.243 901.22 Q983.292 901.492 981.9 902.273 Q980.507 903.055 979.42 904.991 Q978.368 906.928 977.858 909.849 Q977.315 913.62 977.315 922.657 Z" fill="#000000" fill-rule="evenodd" fill-opacity="1" /><path clip-path="url(#clip180)" d="M1250.94 906.044 L1250.94 903.87 Q1259.3 903.87 1263.61 899.419 Q1264.8 899.419 1265.01 899.691 Q1265.21 899.963 1265.21 901.22 L1265.21 940.255 Q1265.21 942.328 1266.23 942.973 Q1267.25 943.619 1271.7 943.619 L1273.9 943.619 L1273.9 945.759 Q1271.46 945.555 1262.63 945.555 Q1253.8 945.555 1251.39 945.759 L1251.39 943.619 L1253.59 943.619 Q1257.98 943.619 1259.03 943.007 Q1260.08 942.362 1260.08 940.255 L1260.08 904.21 Q1256.45 906.044 1250.94 906.044 Z" fill="#000000" fill-rule="evenodd" fill-opacity="1" /><path clip-path="url(#clip180)" d="M1286.5 944.638 Q1285.45 943.517 1285.45 942.056 Q1285.45 940.595 1286.5 939.542 Q1287.56 938.455 1289.15 938.455 Q1290.68 938.455 1291.7 939.474 Q1292.75 940.459 1292.75 942.09 Q1292.75 943.687 1291.63 944.74 Q1290.55 945.759 1289.15 945.759 Q1287.56 945.759 1286.5 944.638 Z" fill="#000000" fill-rule="evenodd" fill-opacity="1" /><path clip-path="url(#clip180)" d="M1302.33 934.548 Q1302.33 932.476 1303.45 931.694 Q1304.57 930.879 1305.76 930.879 Q1307.36 930.879 1308.28 931.898 Q1309.23 932.883 1309.23 934.276 Q1309.23 935.669 1308.28 936.688 Q1307.36 937.674 1305.76 937.674 Q1304.98 937.674 1304.57 937.538 Q1305.49 940.731 1308.28 943.041 Q1311.09 945.351 1314.8 945.351 Q1319.45 945.351 1322.23 940.833 Q1323.9 937.911 1323.9 931.287 Q1323.9 925.443 1322.64 922.521 Q1320.71 918.071 1316.73 918.071 Q1311.09 918.071 1307.77 922.929 Q1307.36 923.541 1306.88 923.575 Q1306.2 923.575 1306.03 923.201 Q1305.9 922.793 1305.9 921.74 L1305.9 901.152 Q1305.9 899.487 1306.58 899.487 Q1306.85 899.487 1307.43 899.691 Q1311.81 901.628 1316.66 901.662 Q1321.66 901.662 1326.14 899.623 Q1326.48 899.419 1326.68 899.419 Q1327.36 899.419 1327.4 900.201 Q1327.4 900.473 1326.82 901.288 Q1326.28 902.069 1325.09 903.123 Q1323.9 904.142 1322.37 905.127 Q1320.84 906.112 1318.6 906.792 Q1316.39 907.437 1313.95 907.437 Q1311.03 907.437 1308.04 906.52 L1308.04 920.075 Q1311.64 916.542 1316.87 916.542 Q1322.44 916.542 1326.28 921.027 Q1330.11 925.511 1330.11 931.762 Q1330.11 938.319 1325.56 942.803 Q1321.05 947.288 1314.93 947.288 Q1309.36 947.288 1305.83 943.313 Q1302.33 939.338 1302.33 934.548 Z" fill="#000000" fill-rule="evenodd" fill-opacity="1" /><path clip-path="url(#clip180)" d="M1578.88 945.759 Q1578.88 944.502 1578.98 944.128 Q1579.12 943.755 1579.66 943.177 L1593.01 928.297 Q1600.31 920.075 1600.31 912.907 Q1600.31 908.253 1597.87 904.923 Q1595.46 901.594 1591.01 901.594 Q1587.95 901.594 1585.37 903.462 Q1582.79 905.331 1581.6 908.66 Q1581.8 908.592 1582.52 908.592 Q1584.25 908.592 1585.2 909.679 Q1586.19 910.767 1586.19 912.227 Q1586.19 914.096 1584.96 915.013 Q1583.77 915.897 1582.59 915.897 Q1582.11 915.897 1581.46 915.795 Q1580.85 915.693 1579.87 914.741 Q1578.88 913.756 1578.88 912.024 Q1578.88 907.165 1582.55 903.292 Q1586.25 899.419 1591.89 899.419 Q1598.28 899.419 1602.45 903.224 Q1606.67 906.996 1606.67 912.907 Q1606.67 914.979 1606.02 916.882 Q1605.41 918.75 1604.56 920.211 Q1603.74 921.672 1601.5 924.016 Q1599.26 926.36 1597.46 928.025 Q1595.66 929.69 1591.62 933.223 L1584.25 940.391 L1596.78 940.391 Q1602.9 940.391 1603.37 939.848 Q1604.05 938.863 1604.9 933.665 L1606.67 933.665 L1604.7 945.759 L1578.88 945.759 Z" fill="#000000" fill-rule="evenodd" fill-opacity="1" /><path clip-path="url(#clip180)" d="M1617.16 944.638 Q1616.11 943.517 1616.11 942.056 Q1616.11 940.595 1617.16 939.542 Q1618.21 938.455 1619.81 938.455 Q1621.34 938.455 1622.36 939.474 Q1623.41 940.459 1623.41 942.09 Q1623.41 943.687 1622.29 944.74 Q1621.2 945.759 1619.81 945.759 Q1618.21 945.759 1617.16 944.638 Z" fill="#000000" fill-rule="evenodd" fill-opacity="1" /><path clip-path="url(#clip180)" d="M1632.24 923.507 Q1632.24 913.281 1634.82 907.709 Q1638.42 899.419 1646.91 899.419 Q1648.71 899.419 1650.58 899.929 Q1652.48 900.405 1654.86 902.273 Q1657.27 904.142 1658.73 907.199 Q1661.52 913.111 1661.52 923.507 Q1661.52 933.665 1658.94 939.202 Q1655.17 947.288 1646.84 947.288 Q1643.72 947.288 1640.53 945.691 Q1637.37 944.094 1635.36 940.255 Q1632.24 934.514 1632.24 923.507 M1638.01 922.657 Q1638.01 933.155 1638.76 937.334 Q1639.61 941.852 1641.92 943.823 Q1644.26 945.759 1646.84 945.759 Q1649.63 945.759 1651.94 943.687 Q1654.28 941.58 1655 937.062 Q1655.78 932.611 1655.74 922.657 Q1655.74 912.975 1655.06 909.102 Q1654.15 904.583 1651.7 902.783 Q1649.29 900.948 1646.84 900.948 Q1645.93 900.948 1644.94 901.22 Q1643.99 901.492 1642.6 902.273 Q1641.21 903.055 1640.12 904.991 Q1639.07 906.928 1638.56 909.849 Q1638.01 913.62 1638.01 922.657 Z" fill="#000000" fill-rule="evenodd" fill-opacity="1" /><path clip-path="url(#clip180)" d="M877.012 997.494 L878.457 980.445 L924.808 980.445 L926.253 997.494 L924.364 997.494 Q924.067 994.084 923.771 992.12 Q923.511 990.156 922.844 988.303 Q922.215 986.412 921.399 985.523 Q920.621 984.596 919.102 983.892 Q917.583 983.151 915.619 982.966 Q913.656 982.78 910.692 982.78 Q907.209 982.78 906.357 982.929 Q905.43 983.151 905.208 983.818 Q904.986 984.448 904.986 985.819 L904.986 1025.81 Q904.986 1027.33 905.282 1027.96 Q905.616 1028.55 907.357 1029.03 Q909.098 1029.48 912.952 1029.48 L915.99 1029.48 L915.99 1031.81 Q912.878 1031.59 901.577 1031.59 Q890.35 1031.59 887.238 1031.81 L887.238 1029.48 L890.276 1029.48 Q894.13 1029.48 895.871 1029.03 Q897.649 1028.55 897.946 1027.96 Q898.242 1027.33 898.242 1025.81 L898.242 985.819 Q898.242 984.745 898.168 984.3 Q898.094 983.855 897.761 983.485 Q897.427 983.077 896.649 982.929 Q895.908 982.78 892.573 982.78 Q889.609 982.78 887.609 982.966 Q885.645 983.151 884.126 983.892 Q882.607 984.596 881.791 985.523 Q881.013 986.412 880.346 988.303 Q879.717 990.156 879.457 992.12 Q879.198 994.084 878.901 997.494 L877.012 997.494 Z" fill="#000000" fill-rule="evenodd" fill-opacity="1" /><path clip-path="url(#clip180)" d="M931.552 1031.81 L931.552 1029.48 Q935.59 1029.48 936.516 1029 Q937.443 1028.48 937.443 1026.03 L937.443 1005.61 Q937.443 1002.79 936.479 1002.13 Q935.553 1001.46 931.848 1001.46 L931.848 999.088 L942.445 998.272 L942.445 1026.11 Q942.445 1028.37 943.26 1028.92 Q944.075 1029.48 947.78 1029.48 L947.78 1031.81 Q940.036 1031.59 939.888 1031.59 Q938.851 1031.59 931.552 1031.81 M934.738 985.041 Q934.738 983.522 935.887 982.299 Q937.072 981.038 938.74 981.038 Q940.407 981.038 941.593 982.187 Q942.778 983.299 942.778 985.078 Q942.778 986.82 941.593 987.969 Q940.407 989.081 938.74 989.081 Q936.998 989.081 935.85 987.858 Q934.738 986.635 934.738 985.041 Z" fill="#000000" fill-rule="evenodd" fill-opacity="1" /><path clip-path="url(#clip180)" d="M952.486 1031.81 L952.486 1029.48 Q956.524 1029.48 957.451 1029 Q958.377 1028.48 958.377 1026.03 L958.377 1005.68 Q958.377 1002.87 957.376 1002.16 Q956.413 1001.46 952.486 1001.46 L952.486 999.088 L963.156 998.272 L963.156 1006.24 Q966.713 998.272 974.383 998.272 Q983.275 998.272 984.498 1005.68 Q985.795 1002.79 988.5 1000.53 Q991.241 998.272 995.502 998.272 Q1001.21 998.272 1003.47 1001.09 Q1005.14 1002.98 1005.47 1005.09 Q1005.8 1007.2 1005.8 1012.69 L1005.8 1027.18 Q1005.88 1028.77 1007.1 1029.14 Q1008.32 1029.48 1011.73 1029.48 L1011.73 1031.81 Q1003.99 1031.59 1003.25 1031.59 Q1002.65 1031.59 994.65 1031.81 L994.65 1029.48 Q998.689 1029.48 999.615 1029 Q1000.58 1028.48 1000.58 1026.03 L1000.58 1008.35 Q1000.58 1004.5 999.393 1002.24 Q998.207 999.94 994.947 999.94 Q991.019 999.94 987.87 1003.24 Q984.72 1006.54 984.72 1012.1 L984.72 1026.03 Q984.72 1028.48 985.647 1029 Q986.61 1029.48 990.649 1029.48 L990.649 1031.81 Q982.905 1031.59 982.127 1031.59 Q981.534 1031.59 973.568 1031.81 L973.568 1029.48 Q977.607 1029.48 978.533 1029 Q979.496 1028.48 979.496 1026.03 L979.496 1008.35 Q979.496 1004.5 978.31 1002.24 Q977.125 999.94 973.864 999.94 Q969.937 999.94 966.787 1003.24 Q963.638 1006.54 963.638 1012.1 L963.638 1026.03 Q963.638 1028.48 964.564 1029 Q965.528 1029.48 969.529 1029.48 L969.529 1031.81 Q961.786 1031.59 961.045 1031.59 Q960.452 1031.59 952.486 1031.81 Z" fill="#000000" fill-rule="evenodd" fill-opacity="1" /><path clip-path="url(#clip180)" d="M1015.32 1015.1 Q1015.32 1007.95 1019.92 1002.87 Q1024.51 997.79 1031.11 997.79 Q1037.78 997.79 1041.22 1002.13 Q1044.71 1006.46 1044.71 1012.69 Q1044.71 1013.84 1044.41 1014.06 Q1044.11 1014.28 1042.82 1014.28 L1021.62 1014.28 Q1021.62 1022.03 1023.92 1025.66 Q1027.11 1030.74 1032.48 1030.74 Q1033.22 1030.74 1034.11 1030.59 Q1035 1030.44 1036.81 1029.81 Q1038.63 1029.14 1040.22 1027.4 Q1041.82 1025.66 1042.74 1022.92 Q1042.97 1021.84 1043.71 1021.88 Q1044.71 1021.88 1044.71 1022.77 Q1044.71 1023.44 1043.97 1024.96 Q1043.26 1026.44 1041.89 1028.22 Q1040.52 1030 1037.85 1031.33 Q1035.22 1032.67 1032.04 1032.67 Q1025.37 1032.67 1020.33 1027.63 Q1015.32 1022.55 1015.32 1015.1 M1021.7 1012.69 L1039.7 1012.69 Q1039.7 1011.1 1039.41 1009.32 Q1039.15 1007.54 1038.33 1005.09 Q1037.56 1002.61 1035.7 1001.05 Q1033.85 999.495 1031.11 999.495 Q1029.89 999.495 1028.55 1000.01 Q1027.26 1000.53 1025.66 1001.79 Q1024.07 1003.05 1022.96 1005.91 Q1021.85 1008.76 1021.7 1012.69 Z" fill="#000000" fill-rule="evenodd" fill-opacity="1" /><polyline clip-path="url(#clip183)" style="stroke:#000000; stroke-linecap:round; stroke-linejoin:round; stroke-width:2.00037; stroke-opacity:0.1; fill:none" points="261.958,742.061 1659.76,742.061 "/>
<polyline clip-path="url(#clip183)" style="stroke:#000000; stroke-linecap:round; stroke-linejoin:round; stroke-width:2.00037; stroke-opacity:0.1; fill:none" points="261.958,521.548 1659.76,521.548 "/>
<polyline clip-path="url(#clip183)" style="stroke:#000000; stroke-linecap:round; stroke-linejoin:round; stroke-width:2.00037; stroke-opacity:0.1; fill:none" points="261.958,301.034 1659.76,301.034 "/>
<polyline clip-path="url(#clip183)" style="stroke:#000000; stroke-linecap:round; stroke-linejoin:round; stroke-width:2.00037; stroke-opacity:0.1; fill:none" points="261.958,80.521 1659.76,80.521 "/>
<polyline clip-path="url(#clip180)" style="stroke:#000000; stroke-linecap:round; stroke-linejoin:round; stroke-width:4.00074; stroke-opacity:1; fill:none" points="261.958,872.688 261.958,47.2528 "/>
<polyline clip-path="url(#clip180)" style="stroke:#000000; stroke-linecap:round; stroke-linejoin:round; stroke-width:4.00074; stroke-opacity:1; fill:none" points="1659.76,872.688 1659.76,47.2528 "/>
<polyline clip-path="url(#clip180)" style="stroke:#000000; stroke-linecap:round; stroke-linejoin:round; stroke-width:4.00074; stroke-opacity:1; fill:none" points="261.958,742.061 280.854,742.061 "/>
<polyline clip-path="url(#clip180)" style="stroke:#000000; stroke-linecap:round; stroke-linejoin:round; stroke-width:4.00074; stroke-opacity:1; fill:none" points="261.958,521.548 280.854,521.548 "/>
<polyline clip-path="url(#clip180)" style="stroke:#000000; stroke-linecap:round; stroke-linejoin:round; stroke-width:4.00074; stroke-opacity:1; fill:none" points="261.958,301.034 280.854,301.034 "/>
<polyline clip-path="url(#clip180)" style="stroke:#000000; stroke-linecap:round; stroke-linejoin:round; stroke-width:4.00074; stroke-opacity:1; fill:none" points="261.958,80.521 280.854,80.521 "/>
<path clip-path="url(#clip180)" d="M118.193 743.573 Q118.193 733.347 120.774 727.775 Q124.374 719.486 132.865 719.486 Q134.665 719.486 136.533 719.995 Q138.435 720.471 140.813 722.339 Q143.224 724.208 144.685 727.265 Q147.47 733.177 147.47 743.573 Q147.47 753.731 144.888 759.268 Q141.118 767.354 132.797 767.354 Q129.673 767.354 126.48 765.757 Q123.321 764.161 121.318 760.322 Q118.193 754.58 118.193 743.573 M123.967 742.723 Q123.967 753.221 124.714 757.4 Q125.563 761.918 127.873 763.889 Q130.216 765.825 132.797 765.825 Q135.582 765.825 137.892 763.753 Q140.235 761.647 140.949 757.128 Q141.73 752.678 141.696 742.723 Q141.696 733.041 141.017 729.168 Q140.1 724.649 137.654 722.849 Q135.243 721.014 132.797 721.014 Q131.88 721.014 130.895 721.286 Q129.944 721.558 128.552 722.339 Q127.159 723.121 126.072 725.057 Q125.02 726.994 124.51 729.915 Q123.967 733.686 123.967 742.723 Z" fill="#000000" fill-rule="evenodd" fill-opacity="1" /><path clip-path="url(#clip180)" d="M157.217 764.704 Q156.164 763.583 156.164 762.122 Q156.164 760.661 157.217 759.608 Q158.27 758.521 159.866 758.521 Q161.395 758.521 162.414 759.54 Q163.467 760.525 163.467 762.156 Q163.467 763.753 162.346 764.806 Q161.259 765.825 159.866 765.825 Q158.27 765.825 157.217 764.704 Z" fill="#000000" fill-rule="evenodd" fill-opacity="1" /><path clip-path="url(#clip180)" d="M172.297 743.573 Q172.297 733.347 174.879 727.775 Q178.479 719.486 186.97 719.486 Q188.77 719.486 190.638 719.995 Q192.54 720.471 194.917 722.339 Q197.329 724.208 198.789 727.265 Q201.574 733.177 201.574 743.573 Q201.574 753.731 198.993 759.268 Q195.223 767.354 186.902 767.354 Q183.777 767.354 180.584 765.757 Q177.426 764.161 175.422 760.322 Q172.297 754.58 172.297 743.573 M178.071 742.723 Q178.071 753.221 178.818 757.4 Q179.667 761.918 181.977 763.889 Q184.32 765.825 186.902 765.825 Q189.687 765.825 191.996 763.753 Q194.34 761.647 195.053 757.128 Q195.834 752.678 195.8 742.723 Q195.8 733.041 195.121 729.168 Q194.204 724.649 191.759 722.849 Q189.347 721.014 186.902 721.014 Q185.985 721.014 185 721.286 Q184.049 721.558 182.656 722.339 Q181.264 723.121 180.177 725.057 Q179.124 726.994 178.615 729.915 Q178.071 733.686 178.071 742.723 Z" fill="#000000" fill-rule="evenodd" fill-opacity="1" /><path clip-path="url(#clip180)" d="M207.076 743.573 Q207.076 733.347 209.657 727.775 Q213.258 719.486 221.749 719.486 Q223.549 719.486 225.417 719.995 Q227.319 720.471 229.696 722.339 Q232.108 724.208 233.568 727.265 Q236.353 733.177 236.353 743.573 Q236.353 753.731 233.772 759.268 Q230.002 767.354 221.681 767.354 Q218.556 767.354 215.363 765.757 Q212.205 764.161 210.201 760.322 Q207.076 754.58 207.076 743.573 M212.85 742.723 Q212.85 753.221 213.597 757.4 Q214.446 761.918 216.756 763.889 Q219.099 765.825 221.681 765.825 Q224.466 765.825 226.775 763.753 Q229.119 761.647 229.832 757.128 Q230.613 752.678 230.579 742.723 Q230.579 733.041 229.9 729.168 Q228.983 724.649 226.537 722.849 Q224.126 721.014 221.681 721.014 Q220.764 721.014 219.779 721.286 Q218.828 721.558 217.435 722.339 Q216.043 723.121 214.956 725.057 Q213.903 726.994 213.393 729.915 Q212.85 733.686 212.85 742.723 Z" fill="#000000" fill-rule="evenodd" fill-opacity="1" /><path clip-path="url(#clip180)" d="M118.94 523.059 Q118.94 512.833 121.521 507.262 Q125.121 498.972 133.612 498.972 Q135.413 498.972 137.281 499.482 Q139.183 499.957 141.56 501.826 Q143.971 503.695 145.432 506.752 Q148.217 512.664 148.217 523.059 Q148.217 533.217 145.636 538.755 Q141.866 546.841 133.545 546.841 Q130.42 546.841 127.227 545.244 Q124.069 543.647 122.065 539.808 Q118.94 534.067 118.94 523.059 M124.714 522.21 Q124.714 532.708 125.461 536.887 Q126.31 541.405 128.62 543.375 Q130.963 545.312 133.545 545.312 Q136.33 545.312 138.639 543.24 Q140.983 541.133 141.696 536.615 Q142.477 532.164 142.443 522.21 Q142.443 512.528 141.764 508.655 Q140.847 504.136 138.401 502.336 Q135.99 500.501 133.545 500.501 Q132.628 500.501 131.643 500.773 Q130.692 501.045 129.299 501.826 Q127.907 502.607 126.82 504.544 Q125.767 506.48 125.257 509.402 Q124.714 513.173 124.714 522.21 Z" fill="#000000" fill-rule="evenodd" fill-opacity="1" /><path clip-path="url(#clip180)" d="M157.965 544.191 Q156.912 543.07 156.912 541.609 Q156.912 540.148 157.965 539.095 Q159.017 538.008 160.614 538.008 Q162.142 538.008 163.161 539.027 Q164.214 540.012 164.214 541.643 Q164.214 543.24 163.093 544.293 Q162.006 545.312 160.614 545.312 Q159.017 545.312 157.965 544.191 Z" fill="#000000" fill-rule="evenodd" fill-opacity="1" /><path clip-path="url(#clip180)" d="M173.044 523.059 Q173.044 512.833 175.626 507.262 Q179.226 498.972 187.717 498.972 Q189.517 498.972 191.385 499.482 Q193.287 499.957 195.664 501.826 Q198.076 503.695 199.536 506.752 Q202.321 512.664 202.321 523.059 Q202.321 533.217 199.74 538.755 Q195.97 546.841 187.649 546.841 Q184.524 546.841 181.332 545.244 Q178.173 543.647 176.169 539.808 Q173.044 534.067 173.044 523.059 M178.818 522.21 Q178.818 532.708 179.566 536.887 Q180.415 541.405 182.724 543.375 Q185.068 545.312 187.649 545.312 Q190.434 545.312 192.743 543.24 Q195.087 541.133 195.8 536.615 Q196.581 532.164 196.547 522.21 Q196.547 512.528 195.868 508.655 Q194.951 504.136 192.506 502.336 Q190.094 500.501 187.649 500.501 Q186.732 500.501 185.747 500.773 Q184.796 501.045 183.403 501.826 Q182.011 502.607 180.924 504.544 Q179.871 506.48 179.362 509.402 Q178.818 513.173 178.818 522.21 Z" fill="#000000" fill-rule="evenodd" fill-opacity="1" /><path clip-path="url(#clip180)" d="M208.571 534.101 Q208.571 532.028 209.691 531.247 Q210.812 530.432 212.001 530.432 Q213.597 530.432 214.514 531.451 Q215.465 532.436 215.465 533.829 Q215.465 535.222 214.514 536.241 Q213.597 537.226 212.001 537.226 Q211.22 537.226 210.812 537.09 Q211.729 540.284 214.514 542.594 Q217.333 544.904 221.035 544.904 Q225.688 544.904 228.473 540.386 Q230.138 537.464 230.138 530.839 Q230.138 524.996 228.881 522.074 Q226.945 517.624 222.971 517.624 Q217.333 517.624 214.005 522.482 Q213.597 523.093 213.122 523.127 Q212.443 523.127 212.273 522.754 Q212.137 522.346 212.137 521.293 L212.137 500.705 Q212.137 499.04 212.816 499.04 Q213.088 499.04 213.665 499.244 Q218.047 501.181 222.903 501.215 Q227.896 501.215 232.379 499.176 Q232.719 498.972 232.923 498.972 Q233.602 498.972 233.636 499.754 Q233.636 500.025 233.059 500.841 Q232.515 501.622 231.326 502.675 Q230.138 503.695 228.609 504.68 Q227.081 505.665 224.839 506.344 Q222.632 506.99 220.186 506.99 Q217.265 506.99 214.277 506.073 L214.277 519.628 Q217.877 516.095 223.107 516.095 Q228.677 516.095 232.515 520.579 Q236.353 525.064 236.353 531.315 Q236.353 537.872 231.802 542.356 Q227.285 546.841 221.171 546.841 Q215.601 546.841 212.069 542.866 Q208.571 538.891 208.571 534.101 Z" fill="#000000" fill-rule="evenodd" fill-opacity="1" /><path clip-path="url(#clip180)" d="M118.193 302.546 Q118.193 292.32 120.774 286.748 Q124.374 278.459 132.865 278.459 Q134.665 278.459 136.533 278.969 Q138.435 279.444 140.813 281.313 Q143.224 283.181 144.685 286.239 Q147.47 292.15 147.47 302.546 Q147.47 312.704 144.888 318.242 Q141.118 326.327 132.797 326.327 Q129.673 326.327 126.48 324.731 Q123.321 323.134 121.318 319.295 Q118.193 313.553 118.193 302.546 M123.967 301.697 Q123.967 312.195 124.714 316.373 Q125.563 320.892 127.873 322.862 Q130.216 324.799 132.797 324.799 Q135.582 324.799 137.892 322.726 Q140.235 320.62 140.949 316.101 Q141.73 311.651 141.696 301.697 Q141.696 292.014 141.017 288.141 Q140.1 283.623 137.654 281.822 Q135.243 279.988 132.797 279.988 Q131.88 279.988 130.895 280.26 Q129.944 280.531 128.552 281.313 Q127.159 282.094 126.072 284.031 Q125.02 285.967 124.51 288.889 Q123.967 292.66 123.967 301.697 Z" fill="#000000" fill-rule="evenodd" fill-opacity="1" /><path clip-path="url(#clip180)" d="M157.217 323.678 Q156.164 322.556 156.164 321.096 Q156.164 319.635 157.217 318.582 Q158.27 317.494 159.866 317.494 Q161.395 317.494 162.414 318.514 Q163.467 319.499 163.467 321.13 Q163.467 322.726 162.346 323.779 Q161.259 324.799 159.866 324.799 Q158.27 324.799 157.217 323.678 Z" fill="#000000" fill-rule="evenodd" fill-opacity="1" /><path clip-path="url(#clip180)" d="M175.762 285.084 L175.762 282.909 Q184.117 282.909 188.43 278.459 Q189.619 278.459 189.823 278.731 Q190.026 279.003 190.026 280.26 L190.026 319.295 Q190.026 321.367 191.045 322.013 Q192.064 322.658 196.513 322.658 L198.721 322.658 L198.721 324.799 Q196.276 324.595 187.445 324.595 Q178.615 324.595 176.203 324.799 L176.203 322.658 L178.411 322.658 Q182.792 322.658 183.845 322.047 Q184.898 321.401 184.898 319.295 L184.898 283.249 Q181.264 285.084 175.762 285.084 Z" fill="#000000" fill-rule="evenodd" fill-opacity="1" /><path clip-path="url(#clip180)" d="M207.076 302.546 Q207.076 292.32 209.657 286.748 Q213.258 278.459 221.749 278.459 Q223.549 278.459 225.417 278.969 Q227.319 279.444 229.696 281.313 Q232.108 283.181 233.568 286.239 Q236.353 292.15 236.353 302.546 Q236.353 312.704 233.772 318.242 Q230.002 326.327 221.681 326.327 Q218.556 326.327 215.363 324.731 Q212.205 323.134 210.201 319.295 Q207.076 313.553 207.076 302.546 M212.85 301.697 Q212.85 312.195 213.597 316.373 Q214.446 320.892 216.756 322.862 Q219.099 324.799 221.681 324.799 Q224.466 324.799 226.775 322.726 Q229.119 320.62 229.832 316.101 Q230.613 311.651 230.579 301.697 Q230.579 292.014 229.9 288.141 Q228.983 283.623 226.537 281.822 Q224.126 279.988 221.681 279.988 Q220.764 279.988 219.779 280.26 Q218.828 280.531 217.435 281.313 Q216.043 282.094 214.956 284.031 Q213.903 285.967 213.393 288.889 Q212.85 292.66 212.85 301.697 Z" fill="#000000" fill-rule="evenodd" fill-opacity="1" /><path clip-path="url(#clip180)" d="M118.94 82.0328 Q118.94 71.8068 121.521 66.2352 Q125.121 57.9457 133.612 57.9457 Q135.413 57.9457 137.281 58.4553 Q139.183 58.9309 141.56 60.7995 Q143.971 62.668 145.432 65.7256 Q148.217 71.637 148.217 82.0328 Q148.217 92.1909 145.636 97.7285 Q141.866 105.814 133.545 105.814 Q130.42 105.814 127.227 104.217 Q124.069 102.621 122.065 98.7817 Q118.94 93.0402 118.94 82.0328 M124.714 81.1835 Q124.714 91.6813 125.461 95.86 Q126.31 100.378 128.62 102.349 Q130.963 104.285 133.545 104.285 Q136.33 104.285 138.639 102.213 Q140.983 100.107 141.696 95.5882 Q142.477 91.1377 142.443 81.1835 Q142.443 71.5011 141.764 67.6281 Q140.847 63.1097 138.401 61.3091 Q135.99 59.4745 133.545 59.4745 Q132.628 59.4745 131.643 59.7463 Q130.692 60.0181 129.299 60.7995 Q127.907 61.5809 126.82 63.5173 Q125.767 65.4538 125.257 68.3755 Q124.714 72.1466 124.714 81.1835 Z" fill="#000000" fill-rule="evenodd" fill-opacity="1" /><path clip-path="url(#clip180)" d="M157.965 103.164 Q156.912 102.043 156.912 100.582 Q156.912 99.1214 157.965 98.0683 Q159.017 96.9811 160.614 96.9811 Q162.142 96.9811 163.161 98.0003 Q164.214 98.9855 164.214 100.616 Q164.214 102.213 163.093 103.266 Q162.006 104.285 160.614 104.285 Q159.017 104.285 157.965 103.164 Z" fill="#000000" fill-rule="evenodd" fill-opacity="1" /><path clip-path="url(#clip180)" d="M176.509 64.5705 L176.509 62.3962 Q184.864 62.3962 189.177 57.9457 Q190.366 57.9457 190.57 58.2175 Q190.774 58.4893 190.774 59.7463 L190.774 98.7817 Q190.774 100.854 191.792 101.5 Q192.811 102.145 197.261 102.145 L199.468 102.145 L199.468 104.285 Q197.023 104.082 188.192 104.082 Q179.362 104.082 176.95 104.285 L176.95 102.145 L179.158 102.145 Q183.539 102.145 184.592 101.534 Q185.645 100.888 185.645 98.7817 L185.645 62.7359 Q182.011 64.5705 176.509 64.5705 Z" fill="#000000" fill-rule="evenodd" fill-opacity="1" /><path clip-path="url(#clip180)" d="M208.571 93.0742 Q208.571 91.0018 209.691 90.2204 Q210.812 89.4051 212.001 89.4051 Q213.597 89.4051 214.514 90.4243 Q215.465 91.4095 215.465 92.8024 Q215.465 94.1953 214.514 95.2145 Q213.597 96.1997 212.001 96.1997 Q211.22 96.1997 210.812 96.0638 Q211.729 99.2573 214.514 101.568 Q217.333 103.878 221.035 103.878 Q225.688 103.878 228.473 99.3593 Q230.138 96.4375 230.138 89.8127 Q230.138 83.9693 228.881 81.0476 Q226.945 76.5971 222.971 76.5971 Q217.333 76.5971 214.005 81.4553 Q213.597 82.0668 213.122 82.1008 Q212.443 82.1008 212.273 81.7271 Q212.137 81.3194 212.137 80.2662 L212.137 59.6783 Q212.137 58.0136 212.816 58.0136 Q213.088 58.0136 213.665 58.2175 Q218.047 60.154 222.903 60.1879 Q227.896 60.1879 232.379 58.1495 Q232.719 57.9457 232.923 57.9457 Q233.602 57.9457 233.636 58.7271 Q233.636 58.9989 233.059 59.8142 Q232.515 60.5956 231.326 61.6488 Q230.138 62.668 228.609 63.6532 Q227.081 64.6385 224.839 65.3179 Q222.632 65.9634 220.186 65.9634 Q217.265 65.9634 214.277 65.0461 L214.277 78.6015 Q217.877 75.0683 223.107 75.0683 Q228.677 75.0683 232.515 79.5528 Q236.353 84.0373 236.353 90.2884 Q236.353 96.8452 231.802 101.33 Q227.285 105.814 221.171 105.814 Q215.601 105.814 212.069 101.839 Q208.571 97.8644 208.571 93.0742 Z" fill="#000000" fill-rule="evenodd" fill-opacity="1" /><path clip-path="url(#clip180)" d="M94.2414 599.769 Q94.8386 599.769 95.2602 600.191 Q95.6818 600.612 95.6818 601.21 Q95.6818 602.229 94.7332 602.58 L60.2002 615.969 Q60.0597 616.039 59.7084 616.039 Q59.3571 616.039 59.2165 615.969 L24.6835 602.58 Q23.735 602.229 23.735 601.21 Q23.735 600.612 24.1565 600.191 Q24.5781 599.769 25.1753 599.769 Q25.5266 599.769 25.6671 599.839 L59.7084 613.087 L93.7496 599.839 Q93.8901 599.769 94.2414 599.769 Z" fill="#000000" fill-rule="evenodd" fill-opacity="1" /><path clip-path="url(#clip180)" d="M29.2153 540.474 Q29.4261 540.474 30.2692 540.685 L75.2359 580.92 L75.2359 568.621 Q75.2359 565.002 74.6036 562.261 Q73.9361 559.52 72.812 557.623 Q71.6878 555.725 69.7556 554.249 Q67.7883 552.738 65.6454 551.754 Q63.4673 550.77 60.2704 549.751 Q59.0409 549.365 58.7598 549.189 Q58.4788 549.013 58.4788 548.556 Q58.4788 548.1 58.7598 547.854 Q59.0058 547.608 59.2868 547.608 Q59.4273 547.608 59.6381 547.678 Q59.8138 547.713 60.0245 547.783 Q60.2353 547.854 60.3407 547.889 L76.2547 553.019 Q77.2735 553.335 77.4843 553.652 Q77.6951 553.968 77.6951 555.233 L77.6951 586.543 Q77.6951 587.632 77.6248 587.984 Q77.5194 588.335 77.0627 588.335 L75.7629 588.054 L30.7962 547.818 L30.7962 559.555 Q30.7962 562.858 31.3934 565.459 Q31.9555 568.024 33.0094 569.851 Q34.0281 571.679 35.7495 573.084 Q37.4358 574.49 39.4031 575.439 Q41.3352 576.387 44.0403 577.266 L44.2159 577.371 Q44.3916 577.477 44.497 577.547 Q44.5672 577.617 44.6726 577.793 Q44.7429 577.969 44.7429 578.18 Q44.7429 578.566 44.5321 578.812 Q44.3213 579.023 44.1105 579.023 L43.9349 579.058 Q43.3025 578.988 42.9512 578.847 L29.9882 574.876 Q28.9694 574.56 28.7586 574.244 Q28.5478 573.928 28.5478 572.662 L28.5478 542.266 Q28.5478 541.142 28.6532 540.826 Q28.7586 540.474 29.2153 540.474 Z" fill="#000000" fill-rule="evenodd" fill-opacity="1" /><path clip-path="url(#clip180)" d="M68.8785 533.253 L67.3047 533.253 Q67.3047 527.202 64.0832 524.078 Q64.0832 523.217 64.28 523.07 Q64.4767 522.922 65.3866 522.922 L93.6418 522.922 Q95.1419 522.922 95.6091 522.184 Q96.0764 521.446 96.0764 518.224 L96.0764 516.625 L97.6256 516.625 Q97.4781 518.396 97.4781 524.791 Q97.4781 531.187 97.6256 532.933 L96.0764 532.933 L96.0764 531.335 Q96.0764 528.161 95.6337 527.399 Q95.1665 526.636 93.6418 526.636 L67.5506 526.636 Q68.8785 529.268 68.8785 533.253 Z" fill="#000000" fill-rule="evenodd" fill-opacity="1" /><path clip-path="url(#clip180)" d="M29.3558 449.79 Q29.9882 449.79 30.3395 450.036 Q30.6556 450.246 30.7259 450.492 Q30.761 450.738 30.7962 451.371 Q31.0421 456.396 34.4497 460.507 Q35.328 461.526 38.0681 464.092 Q40.8083 466.622 44.4618 469.995 Q48.1154 473.334 50.0827 475.266 L72.285 465.989 Q73.1633 465.603 73.5497 465.462 Q73.901 465.286 74.3577 464.935 Q74.8144 464.548 74.9549 464.267 Q75.0954 463.951 75.2711 463.283 Q75.4116 462.581 75.4467 461.878 Q75.4467 461.14 75.4819 459.805 Q75.4819 459.383 75.517 459.207 Q75.517 458.996 75.7278 458.75 Q75.9034 458.504 76.325 458.504 Q76.9573 458.504 77.3086 458.786 Q77.6248 459.031 77.6599 459.277 Q77.6951 459.488 77.6951 459.875 Q77.6951 460.789 77.5897 463.881 Q77.4843 466.973 77.4843 467.852 L77.6951 476.918 Q77.6951 478.007 76.8168 478.007 Q76.3601 478.007 76.1142 477.937 Q75.8332 477.831 75.7278 477.585 Q75.5872 477.34 75.5521 477.164 Q75.517 476.988 75.4819 476.566 Q75.3413 475.266 74.9549 474.282 Q74.5333 473.263 74.1118 472.842 Q73.6902 472.385 73.374 472.385 L72.3553 472.736 L55.1766 480.01 L62.2377 486.511 L70.0015 493.855 Q72.0742 495.788 73.2335 495.788 Q75.1657 495.788 75.4819 492.907 Q75.5521 492.028 76.2547 492.028 Q76.9222 492.028 77.2735 492.309 Q77.5897 492.555 77.6599 492.801 Q77.6951 493.012 77.6951 493.328 Q77.6951 494.628 77.5897 497.369 Q77.4843 500.075 77.4843 501.411 Q77.4843 502.535 77.5897 504.819 Q77.6951 507.103 77.6951 508.157 Q77.6951 508.579 77.4843 508.825 Q77.2735 509.071 77.0627 509.071 L76.8871 509.106 Q76.3952 509.106 76.1142 509.036 Q75.8332 508.93 75.6926 508.649 Q75.5521 508.333 75.5521 508.193 Q75.517 508.052 75.4819 507.525 Q75.3062 504.538 74.1469 502.008 Q72.9876 499.443 70.2826 496.948 Q70.1069 496.737 69.8961 496.491 Q69.6854 496.21 69.5097 495.999 L53.1741 480.818 L33.0796 489.322 Q32.1662 489.709 31.7798 490.06 Q31.3582 490.412 31.0772 491.501 Q30.7962 492.59 30.7962 494.699 Q30.7962 495.296 30.761 495.577 Q30.7259 495.858 30.5502 496.104 Q30.3746 496.35 29.9882 496.35 Q29.3207 496.35 29.0045 496.104 Q28.6532 495.823 28.6181 495.612 Q28.5478 495.366 28.5478 495.05 Q28.5478 494.172 28.6532 491.044 Q28.7586 487.917 28.7586 487.003 Q28.7586 485.492 28.6532 482.47 Q28.5478 479.413 28.5478 477.937 Q28.5478 476.848 29.4261 476.848 Q29.9882 476.848 30.3043 477.094 Q30.6205 477.34 30.6908 477.585 Q30.761 477.831 30.7962 478.288 Q30.9367 479.659 31.3934 480.713 Q31.8149 481.732 32.2365 482.154 Q32.6229 482.54 32.8688 482.54 L33.8174 482.189 L48.1154 476.145 L35.609 464.478 Q34.0633 463.108 33.0094 463.108 Q31.1123 463.108 30.7962 465.989 Q30.6556 466.868 29.9882 466.868 Q29.3207 466.868 29.0045 466.587 Q28.6532 466.306 28.6181 466.095 Q28.5478 465.849 28.5478 465.497 Q28.5478 464.197 28.6532 461.526 Q28.7586 458.821 28.7586 457.485 Q28.7586 456.361 28.6532 454.077 Q28.5478 451.793 28.5478 450.738 Q28.5478 450.317 28.7586 450.071 Q28.9343 449.825 29.145 449.825 L29.3558 449.79 Z" fill="#000000" fill-rule="evenodd" fill-opacity="1" /><path clip-path="url(#clip180)" d="M90.8384 442.686 Q89.3384 442.686 88.6252 441.825 Q87.9121 440.964 87.9121 439.857 Q87.9121 438.701 88.6744 437.889 Q89.4122 437.053 90.7155 437.053 Q92.1172 437.053 92.9041 438.037 Q93.691 438.996 93.4943 440.373 Q95.5108 439.168 96.4206 436.954 Q97.3305 434.716 97.3305 432.65 Q97.3305 430.485 95.4616 428.739 Q93.5927 426.968 89.0187 426.968 Q85.1333 426.968 82.8955 428.493 Q80.6577 429.993 80.6577 432.969 L80.6577 435.183 Q80.6577 435.946 80.5839 436.167 Q80.5102 436.389 80.0921 436.389 Q79.6003 436.389 79.5019 435.626 Q79.5019 434.863 79.3544 433.658 Q79.256 430.731 76.7231 429.181 Q74.3624 427.779 70.9934 427.779 Q67.9195 427.779 66.6407 429.255 Q65.3374 430.706 65.3374 432.6 Q65.3374 434.372 66.0751 436.315 Q66.8129 438.258 68.4605 439.316 Q68.4605 436.192 70.9934 436.192 Q72.1 436.192 72.8377 436.905 Q73.5508 437.594 73.5508 438.75 Q73.5508 439.857 72.8623 440.595 Q72.1491 441.333 70.9442 441.333 Q68.067 441.333 66.0751 438.775 Q64.0832 436.192 64.0832 432.404 Q64.0832 428.665 66.0505 425.91 Q68.0178 423.13 71.0425 423.13 Q74.0181 423.13 76.4526 425.098 Q78.8871 427.066 79.8954 430.19 Q80.6577 426.353 83.2644 424.065 Q85.8464 421.777 89.0187 421.777 Q92.9533 421.777 95.8551 424.877 Q98.7322 427.976 98.7322 432.502 Q98.7322 436.684 96.4698 439.685 Q94.2074 442.686 90.8384 442.686 Z" fill="#000000" fill-rule="evenodd" fill-opacity="1" /><path clip-path="url(#clip180)" d="M29.2153 366.437 Q29.4261 366.437 30.2692 366.648 L75.2359 406.883 L75.2359 394.584 Q75.2359 390.965 74.6036 388.224 Q73.9361 385.483 72.812 383.585 Q71.6878 381.688 69.7556 380.212 Q67.7883 378.701 65.6454 377.717 Q63.4673 376.733 60.2704 375.714 Q59.0409 375.327 58.7598 375.152 Q58.4788 374.976 58.4788 374.519 Q58.4788 374.062 58.7598 373.816 Q59.0058 373.57 59.2868 373.57 Q59.4273 373.57 59.6381 373.641 Q59.8138 373.676 60.0245 373.746 Q60.2353 373.816 60.3407 373.851 L76.2547 378.982 Q77.2735 379.298 77.4843 379.614 Q77.6951 379.931 77.6951 381.196 L77.6951 412.506 Q77.6951 413.595 77.6248 413.946 Q77.5194 414.298 77.0627 414.298 L75.7629 414.017 L30.7962 373.781 L30.7962 385.518 Q30.7962 388.821 31.3934 391.422 Q31.9555 393.987 33.0094 395.814 Q34.0281 397.641 35.7495 399.047 Q37.4358 400.453 39.4031 401.401 Q41.3352 402.35 44.0403 403.229 L44.2159 403.334 Q44.3916 403.439 44.497 403.51 Q44.5672 403.58 44.6726 403.756 Q44.7429 403.931 44.7429 404.142 Q44.7429 404.529 44.5321 404.775 Q44.3213 404.986 44.1105 404.986 L43.9349 405.021 Q43.3025 404.95 42.9512 404.81 L29.9882 400.839 Q28.9694 400.523 28.7586 400.207 Q28.5478 399.89 28.5478 398.625 L28.5478 368.229 Q28.5478 367.105 28.6532 366.788 Q28.7586 366.437 29.2153 366.437 Z" fill="#000000" fill-rule="evenodd" fill-opacity="1" /><path clip-path="url(#clip180)" d="M89.5105 359.216 Q88.0105 359.216 87.4449 358.404 Q86.8547 357.592 86.8547 356.732 Q86.8547 355.575 87.5924 354.911 Q88.3056 354.223 89.3138 354.223 Q90.322 354.223 91.0598 354.911 Q91.7729 355.575 91.7729 356.732 Q91.7729 357.297 91.6745 357.592 Q93.9861 356.928 95.6583 354.911 Q97.3305 352.87 97.3305 350.188 Q97.3305 346.819 94.0599 344.801 Q91.9451 343.596 87.1498 343.596 Q82.9201 343.596 80.8052 344.506 Q77.5838 345.908 77.5838 348.786 Q77.5838 352.87 81.1003 355.28 Q81.543 355.575 81.5676 355.92 Q81.5676 356.412 81.2971 356.535 Q81.002 356.633 80.2396 356.633 L65.3374 356.633 Q64.1324 356.633 64.1324 356.141 Q64.1324 355.944 64.28 355.526 Q65.6817 352.353 65.7063 348.836 Q65.7063 345.22 64.2308 341.973 Q64.0832 341.727 64.0832 341.579 Q64.0832 341.087 64.6488 341.063 Q64.8456 341.063 65.4358 341.481 Q66.0014 341.874 66.7637 342.735 Q67.5014 343.596 68.2146 344.703 Q68.9277 345.81 69.4195 347.433 Q69.8868 349.032 69.8868 350.803 Q69.8868 352.919 69.2228 355.083 L79.0347 355.083 Q76.4772 352.476 76.4772 348.688 Q76.4772 344.654 79.7232 341.874 Q82.9693 339.095 87.494 339.095 Q92.2401 339.095 95.4862 342.391 Q98.7322 345.662 98.7322 350.09 Q98.7322 354.124 95.8551 356.682 Q92.9779 359.216 89.5105 359.216 Z" fill="#000000" fill-rule="evenodd" fill-opacity="1" /><path clip-path="url(#clip180)" d="M59.2165 315.442 Q59.3571 315.371 59.7084 315.371 Q60.0597 315.371 60.2002 315.442 L94.7332 328.83 Q95.6818 329.182 95.6818 330.165 Q95.6818 330.763 95.2602 331.184 Q94.8386 331.606 94.2414 331.606 Q93.8901 331.606 93.7496 331.536 L59.7084 318.323 L25.6671 331.536 Q25.5266 331.606 25.1753 331.606 Q24.5781 331.606 24.1565 331.184 Q23.735 330.763 23.735 330.165 Q23.735 329.182 24.6835 328.83 L59.2165 315.442 Z" fill="#000000" fill-rule="evenodd" fill-opacity="1" /><polyline clip-path="url(#clip183)" style="stroke:#000000; stroke-linecap:round; stroke-linejoin:round; stroke-width:8.00147; stroke-opacity:1; fill:none" stroke-dasharray="32, 20" points="301.518,742.061 334.486,714.897 367.453,638.085 400.42,524.723 433.387,393.738 466.354,266.224 499.321,161.53 532.288,93.9433 565.255,70.6142 598.222,91.0717 631.189,148.275 664.156,230.814 697.123,325.643 730.09,420.705 763.057,506.881 796.024,578.966 828.991,635.615 861.958,678.481 894.925,710.897 927.892,736.512 960.859,758.225 993.826,777.621 1026.79,794.931 1059.76,809.42 1092.73,819.987 1125.69,825.785 1158.66,826.66 1191.63,823.334 1224.6,817.317 1257.56,810.616 1290.53,805.335 1323.5,803.259 1356.46,805.506 1389.43,812.257 1422.4,822.598 1455.36,834.465 1488.33,844.711 1521.3,849.327 1554.27,843.873 1587.23,824.123 1620.2,786.908 "/>
<path clip-path="url(#clip183)" d="M301.518 742.061 L334.486 742.061 L367.453 689.608 L400.42 595.144 L433.387 475.938 L466.354 352.5 L499.321 244.731 L532.288 168.426 L565.255 132.815 L598.222 139.581 L631.189 183.544 L664.156 254.833 L697.123 341.13 L730.09 430.324 L763.057 512.91 L796.024 583.106 L828.991 638.841 L861.958 681.074 L894.925 712.597 L927.892 736.765 L960.859 756.509 L993.826 773.705 L1026.79 788.94 L1059.76 801.779 L1092.73 811.327 L1125.69 816.689 L1158.66 817.417 L1191.63 813.984 L1224.6 807.713 L1257.56 800.477 L1290.53 794.324 L1323.5 791.072 L1356.46 791.952 L1389.43 797.331 L1422.4 806.523 L1455.36 817.713 L1488.33 827.966 L1521.3 833.374 L1554.27 829.406 L1587.23 811.529 L1620.2 776.095 L1620.2 776.095 L1587.23 811.529 L1554.27 829.406 L1521.3 833.374 L1488.33 827.966 L1455.36 817.713 L1422.4 806.523 L1389.43 797.331 L1356.46 791.952 L1323.5 791.072 L1290.53 794.324 L1257.56 800.477 L1224.6 807.713 L1191.63 813.984 L1158.66 817.417 L1125.69 816.689 L1092.73 811.327 L1059.76 801.779 L1026.79 788.94 L993.826 773.705 L960.859 756.509 L927.892 736.765 L894.925 712.597 L861.958 681.074 L828.991 638.841 L796.024 583.106 L763.057 512.91 L730.09 430.324 L697.123 341.13 L664.156 254.833 L631.189 183.544 L598.222 139.581 L565.255 132.815 L532.288 168.426 L499.321 244.731 L466.354 352.5 L433.387 475.938 L400.42 595.144 L367.453 689.608 L334.486 742.061 L301.518 742.061  Z" fill="#dcb0f2" fill-rule="evenodd" fill-opacity="0.5"/>
<polyline clip-path="url(#clip183)" style="stroke:#dcb0f2; stroke-linecap:round; stroke-linejoin:round; stroke-width:12.0022; stroke-opacity:1; fill:none" points="301.518,742.061 334.486,742.061 367.453,689.608 400.42,595.144 433.387,475.938 466.354,352.5 499.321,244.731 532.288,168.426 565.255,132.815 598.222,139.581 631.189,183.544 664.156,254.833 697.123,341.13 730.09,430.324 763.057,512.91 796.024,583.106 828.991,638.841 861.958,681.074 894.925,712.597 927.892,736.765 960.859,756.509 993.826,773.705 1026.79,788.94 1059.76,801.779 1092.73,811.327 1125.69,816.689 1158.66,817.417 1191.63,813.984 1224.6,807.713 1257.56,800.477 1290.53,794.324 1323.5,791.072 1356.46,791.952 1389.43,797.331 1422.4,806.523 1455.36,817.713 1488.33,827.966 1521.3,833.374 1554.27,829.406 1587.23,811.529 1620.2,776.095 "/>
<path clip-path="url(#clip183)" d="M301.518 742.061 L334.486 742.061 L367.453 689.608 L400.42 595.144 L433.387 475.938 L466.354 352.5 L499.321 244.731 L532.288 168.426 L565.255 132.815 L598.222 139.581 L631.189 183.544 L664.156 254.833 L697.123 341.134 L730.09 430.323 L763.057 512.903 L796.024 583.069 L828.991 638.701 L861.958 680.82 L894.925 712.291 L927.892 736.306 L960.859 755.779 L993.826 772.003 L1026.79 784.912 L1059.76 793.584 L1092.73 796.838 L1125.69 794.098 L1158.66 785.901 L1191.63 774.336 L1224.6 761.892 L1257.56 751.593 L1290.53 745.059 L1323.5 742.472 L1356.46 743.193 L1389.43 745.009 L1422.4 746.213 L1455.36 743.355 L1488.33 734.207 L1521.3 716.688 L1554.27 687.379 L1587.23 641.912 L1620.2 578.228 L1620.2 578.228 L1587.23 641.912 L1554.27 687.379 L1521.3 716.688 L1488.33 734.207 L1455.36 743.355 L1422.4 746.213 L1389.43 745.009 L1356.46 743.193 L1323.5 742.472 L1290.53 745.059 L1257.56 751.593 L1224.6 761.892 L1191.63 774.336 L1158.66 785.901 L1125.69 794.098 L1092.73 796.838 L1059.76 793.584 L1026.79 784.912 L993.826 772.003 L960.859 755.779 L927.892 736.306 L894.925 712.291 L861.958 680.82 L828.991 638.701 L796.024 583.069 L763.057 512.903 L730.09 430.323 L697.123 341.134 L664.156 254.833 L631.189 183.544 L598.222 139.581 L565.255 132.815 L532.288 168.426 L499.321 244.731 L466.354 352.5 L433.387 475.938 L400.42 595.144 L367.453 689.608 L334.486 742.061 L301.518 742.061  Z" fill="#87c55f" fill-rule="evenodd" fill-opacity="0.5"/>
<polyline clip-path="url(#clip183)" style="stroke:#87c55f; stroke-linecap:round; stroke-linejoin:round; stroke-width:12.0022; stroke-opacity:1; fill:none" stroke-dasharray="48, 24, 6, 24" points="301.518,742.061 334.486,742.061 367.453,689.608 400.42,595.144 433.387,475.938 466.354,352.5 499.321,244.731 532.288,168.426 565.255,132.815 598.222,139.581 631.189,183.544 664.156,254.833 697.123,341.134 730.09,430.323 763.057,512.903 796.024,583.069 828.991,638.701 861.958,680.82 894.925,712.291 927.892,736.306 960.859,755.779 993.826,772.003 1026.79,784.912 1059.76,793.584 1092.73,796.838 1125.69,794.098 1158.66,785.901 1191.63,774.336 1224.6,761.892 1257.56,751.593 1290.53,745.059 1323.5,742.472 1356.46,743.193 1389.43,745.009 1422.4,746.213 1455.36,743.355 1488.33,734.207 1521.3,716.688 1554.27,687.379 1587.23,641.912 1620.2,578.228 "/>
<path clip-path="url(#clip183)" d="M301.518 742.061 L334.486 742.061 L367.453 689.608 L400.42 595.144 L433.387 475.938 L466.354 352.5 L499.321 244.731 L532.288 168.426 L565.255 132.821 L598.222 139.602 L631.189 183.317 L664.156 254.255 L697.123 340.084 L730.09 429.056 L763.057 511.906 L796.024 582.554 L828.991 639.229 L861.958 682.28 L894.925 713.568 L927.892 736.127 L960.859 752.419 L993.826 764.211 L1026.79 772.389 L1059.76 776.876 L1092.73 777.181 L1125.69 773.232 L1158.66 764.777 L1191.63 751.962 L1224.6 736.039 L1257.56 720.954 L1290.53 711.417 L1323.5 704.095 L1356.46 698.26 L1389.43 693.359 L1422.4 688.359 L1455.36 683.542 L1488.33 677.819 L1521.3 669.506 L1554.27 654.851 L1587.23 631.608 L1620.2 597.371 L1620.2 597.371 L1587.23 631.608 L1554.27 654.851 L1521.3 669.506 L1488.33 677.819 L1455.36 683.542 L1422.4 688.359 L1389.43 693.359 L1356.46 698.26 L1323.5 704.095 L1290.53 711.417 L1257.56 720.954 L1224.6 736.039 L1191.63 751.962 L1158.66 764.777 L1125.69 773.232 L1092.73 777.181 L1059.76 776.876 L1026.79 772.389 L993.826 764.211 L960.859 752.419 L927.892 736.127 L894.925 713.568 L861.958 682.28 L828.991 639.229 L796.024 582.554 L763.057 511.906 L730.09 429.056 L697.123 340.084 L664.156 254.255 L631.189 183.317 L598.222 139.602 L565.255 132.821 L532.288 168.426 L499.321 244.731 L466.354 352.5 L433.387 475.938 L400.42 595.144 L367.453 689.608 L334.486 742.061 L301.518 742.061  Z" fill="#f89c74" fill-rule="evenodd" fill-opacity="0.5"/>
<polyline clip-path="url(#clip183)" style="stroke:#f89c74; stroke-linecap:round; stroke-linejoin:round; stroke-width:12.0022; stroke-opacity:1; fill:none" stroke-dasharray="6, 12" points="301.518,742.061 334.486,742.061 367.453,689.608 400.42,595.144 433.387,475.938 466.354,352.5 499.321,244.731 532.288,168.426 565.255,132.821 598.222,139.602 631.189,183.317 664.156,254.255 697.123,340.084 730.09,429.056 763.057,511.906 796.024,582.554 828.991,639.229 861.958,682.28 894.925,713.568 927.892,736.127 960.859,752.419 993.826,764.211 1026.79,772.389 1059.76,776.876 1092.73,777.181 1125.69,773.232 1158.66,764.777 1191.63,751.962 1224.6,736.039 1257.56,720.954 1290.53,711.417 1323.5,704.095 1356.46,698.26 1389.43,693.359 1422.4,688.359 1455.36,683.542 1488.33,677.819 1521.3,669.506 1554.27,654.851 1587.23,631.608 1620.2,597.371 "/>
<path clip-path="url(#clip183)" d="M301.518 742.061 L334.486 742.061 L367.453 689.87 L400.42 595.55 L433.387 476.424 L466.354 353.309 L499.321 246.349 L532.288 171.572 L565.255 138.383 L598.222 148.604 L631.189 197.106 L664.156 273.703 L697.123 365.712 L730.09 460.541 L763.057 547.754 L796.024 620.303 L828.991 674.867 L861.958 711.449 L894.925 732.472 L927.892 741.702 L960.859 743.225 L993.826 740.68 L1026.79 736.796 L1059.76 733.254 L1092.73 730.784 L1125.69 729.417 L1158.66 728.769 L1191.63 728.307 L1224.6 727.518 L1257.56 725.994 L1290.53 723.426 L1323.5 719.539 L1356.46 714.002 L1389.43 706.323 L1422.4 695.767 L1455.36 681.286 L1488.33 661.512 L1521.3 634.829 L1554.27 599.564 L1587.23 554.331 L1620.2 498.52 L1620.2 498.52 L1587.23 554.331 L1554.27 599.564 L1521.3 634.829 L1488.33 661.512 L1455.36 681.286 L1422.4 695.767 L1389.43 706.323 L1356.46 714.002 L1323.5 719.539 L1290.53 723.426 L1257.56 725.994 L1224.6 727.518 L1191.63 728.307 L1158.66 728.769 L1125.69 729.417 L1092.73 730.784 L1059.76 733.254 L1026.79 736.796 L993.826 740.68 L960.859 743.225 L927.892 741.702 L894.925 732.472 L861.958 711.449 L828.991 674.867 L796.024 620.303 L763.057 547.754 L730.09 460.541 L697.123 365.712 L664.156 273.703 L631.189 197.106 L598.222 148.604 L565.255 138.383 L532.288 171.572 L499.321 246.349 L466.354 353.309 L433.387 476.424 L400.42 595.55 L367.453 689.87 L334.486 742.061 L301.518 742.061  Z" fill="#f6cf71" fill-rule="evenodd" fill-opacity="0.5"/>
<polyline clip-path="url(#clip183)" style="stroke:#f6cf71; stroke-linecap:round; stroke-linejoin:round; stroke-width:12.0022; stroke-opacity:1; fill:none" stroke-dasharray="48, 30" points="301.518,742.061 334.486,742.061 367.453,689.87 400.42,595.55 433.387,476.424 466.354,353.309 499.321,246.349 532.288,171.572 565.255,138.383 598.222,148.604 631.189,197.106 664.156,273.703 697.123,365.712 730.09,460.541 763.057,547.754 796.024,620.303 828.991,674.867 861.958,711.449 894.925,732.472 927.892,741.702 960.859,743.225 993.826,740.68 1026.79,736.796 1059.76,733.254 1092.73,730.784 1125.69,729.417 1158.66,728.769 1191.63,728.307 1224.6,727.518 1257.56,725.994 1290.53,723.426 1323.5,719.539 1356.46,714.002 1389.43,706.323 1422.4,695.767 1455.36,681.286 1488.33,661.512 1521.3,634.829 1554.27,599.564 1587.23,554.331 1620.2,498.52 "/>
</svg>
