<?xml version="1.0" encoding="utf-8"?>
<svg xmlns="http://www.w3.org/2000/svg" xmlns:xlink="http://www.w3.org/1999/xlink" width="426.75" height="263.5" viewBox="0 0 1707 1054">
<defs>
  <clipPath id="clip500">
    <rect x="0" y="0" width="1707" height="1054"/>
  </clipPath>
</defs>
<path clip-path="url(#clip500)" d="M0 1054 L1707 1054 L1707 0 L0 0  Z" fill="#ffffff" fill-rule="evenodd" fill-opacity="1"/>
<defs>
  <clipPath id="clip501">
    <rect x="341" y="0" width="1196" height="1054"/>
  </clipPath>
</defs>
<defs>
  <clipPath id="clip502">
    <rect x="273" y="47" width="1387" height="826"/>
  </clipPath>
</defs>
<path clip-path="url(#clip500)" d="M227.96 872.688 L1659.76 872.688 L1659.76 47.2528 L227.96 47.2528  Z" fill="#ffffff" fill-rule="evenodd" fill-opacity="1"/>
<defs>
  <clipPath id="clip503">
    <rect x="227" y="47" width="1433" height="826"/>
  </clipPath>
</defs>
<polyline clip-path="url(#clip503)" style="stroke:#000000; stroke-linecap:round; stroke-linejoin:round; stroke-width:2.00037; stroke-opacity:0.1; fill:none" points="268.483,872.688 268.483,47.2528 "/>
<polyline clip-path="url(#clip503)" style="stroke:#000000; stroke-linecap:round; stroke-linejoin:round; stroke-width:2.00037; stroke-opacity:0.1; fill:none" points="606.172,872.688 606.172,47.2528 "/>
<polyline clip-path="url(#clip503)" style="stroke:#000000; stroke-linecap:round; stroke-linejoin:round; stroke-width:2.00037; stroke-opacity:0.1; fill:none" points="943.86,872.688 943.86,47.2528 "/>
<polyline clip-path="url(#clip503)" style="stroke:#000000; stroke-linecap:round; stroke-linejoin:round; stroke-width:2.00037; stroke-opacity:0.1; fill:none" points="1281.55,872.688 1281.55,47.2528 "/>
<polyline clip-path="url(#clip503)" style="stroke:#000000; stroke-linecap:round; stroke-linejoin:round; stroke-width:2.00037; stroke-opacity:0.1; fill:none" points="1619.24,872.688 1619.24,47.2528 "/>
<polyline clip-path="url(#clip500)" style="stroke:#000000; stroke-linecap:round; stroke-linejoin:round; stroke-width:4.00074; stroke-opacity:1; fill:none" points="227.96,872.688 1659.76,872.688 "/>
<polyline clip-path="url(#clip500)" style="stroke:#000000; stroke-linecap:round; stroke-linejoin:round; stroke-width:4.00074; stroke-opacity:1; fill:none" points="227.96,47.2528 1659.76,47.2528 "/>
<polyline clip-path="url(#clip500)" style="stroke:#000000; stroke-linecap:round; stroke-linejoin:round; stroke-width:4.00074; stroke-opacity:1; fill:none" points="268.483,872.688 268.483,853.787 "/>
<polyline clip-path="url(#clip500)" style="stroke:#000000; stroke-linecap:round; stroke-linejoin:round; stroke-width:4.00074; stroke-opacity:1; fill:none" points="606.172,872.688 606.172,853.787 "/>
<polyline clip-path="url(#clip500)" style="stroke:#000000; stroke-linecap:round; stroke-linejoin:round; stroke-width:4.00074; stroke-opacity:1; fill:none" points="943.86,872.688 943.86,853.787 "/>
<polyline clip-path="url(#clip500)" style="stroke:#000000; stroke-linecap:round; stroke-linejoin:round; stroke-width:4.00074; stroke-opacity:1; fill:none" points="1281.55,872.688 1281.55,853.787 "/>
<polyline clip-path="url(#clip500)" style="stroke:#000000; stroke-linecap:round; stroke-linejoin:round; stroke-width:4.00074; stroke-opacity:1; fill:none" points="1619.24,872.688 1619.24,853.787 "/>
<path clip-path="url(#clip500)" d="M226.792 923.507 Q226.792 913.281 229.374 907.709 Q232.974 899.419 241.465 899.419 Q243.265 899.419 245.133 899.929 Q247.035 900.405 249.412 902.273 Q251.824 904.142 253.284 907.199 Q256.069 913.111 256.069 923.507 Q256.069 933.665 253.488 939.202 Q249.718 947.288 241.397 947.288 Q238.272 947.288 235.079 945.691 Q231.921 944.094 229.917 940.255 Q226.792 934.514 226.792 923.507 M232.566 922.657 Q232.566 933.155 233.313 937.334 Q234.162 941.852 236.472 943.823 Q238.815 945.759 241.397 945.759 Q244.182 945.759 246.491 943.687 Q248.835 941.58 249.548 937.062 Q250.329 932.611 250.295 922.657 Q250.295 912.975 249.616 909.102 Q248.699 904.583 246.254 902.783 Q243.842 900.948 241.397 900.948 Q240.48 900.948 239.495 901.22 Q238.544 901.492 237.151 902.273 Q235.759 903.055 234.672 904.991 Q233.619 906.928 233.11 909.849 Q232.566 913.62 232.566 922.657 Z" fill="#000000" fill-rule="evenodd" fill-opacity="1" /><path clip-path="url(#clip500)" d="M265.817 944.638 Q264.764 943.517 264.764 942.056 Q264.764 940.595 265.817 939.542 Q266.87 938.455 268.466 938.455 Q269.994 938.455 271.013 939.474 Q272.066 940.459 272.066 942.09 Q272.066 943.687 270.945 944.74 Q269.858 945.759 268.466 945.759 Q266.87 945.759 265.817 944.638 Z" fill="#000000" fill-rule="evenodd" fill-opacity="1" /><path clip-path="url(#clip500)" d="M280.897 923.507 Q280.897 913.281 283.478 907.709 Q287.078 899.419 295.569 899.419 Q297.369 899.419 299.237 899.929 Q301.139 900.405 303.517 902.273 Q305.928 904.142 307.388 907.199 Q310.173 913.111 310.173 923.507 Q310.173 933.665 307.592 939.202 Q303.822 947.288 295.501 947.288 Q292.376 947.288 289.184 945.691 Q286.025 944.094 284.021 940.255 Q280.897 934.514 280.897 923.507 M286.671 922.657 Q286.671 933.155 287.418 937.334 Q288.267 941.852 290.576 943.823 Q292.92 945.759 295.501 945.759 Q298.286 945.759 300.596 943.687 Q302.939 941.58 303.652 937.062 Q304.434 932.611 304.4 922.657 Q304.4 912.975 303.72 909.102 Q302.803 904.583 300.358 902.783 Q297.947 900.948 295.501 900.948 Q294.584 900.948 293.599 901.22 Q292.648 901.492 291.256 902.273 Q289.863 903.055 288.776 904.991 Q287.723 906.928 287.214 909.849 Q286.671 913.62 286.671 922.657 Z" fill="#000000" fill-rule="evenodd" fill-opacity="1" /><path clip-path="url(#clip500)" d="M564.855 923.507 Q564.855 913.281 567.436 907.709 Q571.036 899.419 579.527 899.419 Q581.327 899.419 583.195 899.929 Q585.097 900.405 587.475 902.273 Q589.886 904.142 591.346 907.199 Q594.131 913.111 594.131 923.507 Q594.131 933.665 591.55 939.202 Q587.78 947.288 579.459 947.288 Q576.334 947.288 573.142 945.691 Q569.983 944.094 567.979 940.255 Q564.855 934.514 564.855 923.507 M570.628 922.657 Q570.628 933.155 571.376 937.334 Q572.225 941.852 574.534 943.823 Q576.878 945.759 579.459 945.759 Q582.244 945.759 584.554 943.687 Q586.897 941.58 587.61 937.062 Q588.392 932.611 588.358 922.657 Q588.358 912.975 587.678 909.102 Q586.761 904.583 584.316 902.783 Q581.904 900.948 579.459 900.948 Q578.542 900.948 577.557 901.22 Q576.606 901.492 575.214 902.273 Q573.821 903.055 572.734 904.991 Q571.681 906.928 571.172 909.849 Q570.628 913.62 570.628 922.657 Z" fill="#000000" fill-rule="evenodd" fill-opacity="1" /><path clip-path="url(#clip500)" d="M603.879 944.638 Q602.826 943.517 602.826 942.056 Q602.826 940.595 603.879 939.542 Q604.932 938.455 606.528 938.455 Q608.057 938.455 609.076 939.474 Q610.128 940.459 610.128 942.09 Q610.128 943.687 609.008 944.74 Q607.921 945.759 606.528 945.759 Q604.932 945.759 603.879 944.638 Z" fill="#000000" fill-rule="evenodd" fill-opacity="1" /><path clip-path="url(#clip500)" d="M619.706 934.548 Q619.706 932.476 620.827 931.694 Q621.948 930.879 623.137 930.879 Q624.733 930.879 625.65 931.898 Q626.601 932.883 626.601 934.276 Q626.601 935.669 625.65 936.688 Q624.733 937.674 623.137 937.674 Q622.355 937.674 621.948 937.538 Q622.865 940.731 625.65 943.041 Q628.469 945.351 632.171 945.351 Q636.824 945.351 639.609 940.833 Q641.273 937.911 641.273 931.287 Q641.273 925.443 640.017 922.521 Q638.081 918.071 634.107 918.071 Q628.469 918.071 625.14 922.929 Q624.733 923.541 624.257 923.575 Q623.578 923.575 623.408 923.201 Q623.272 922.793 623.272 921.74 L623.272 901.152 Q623.272 899.487 623.952 899.487 Q624.223 899.487 624.801 899.691 Q629.182 901.628 634.039 901.662 Q639.032 901.662 643.515 899.623 Q643.854 899.419 644.058 899.419 Q644.738 899.419 644.772 900.201 Q644.772 900.473 644.194 901.288 Q643.651 902.069 642.462 903.123 Q641.273 904.142 639.745 905.127 Q638.217 906.112 635.975 906.792 Q633.767 907.437 631.322 907.437 Q628.401 907.437 625.412 906.52 L625.412 920.075 Q629.012 916.542 634.243 916.542 Q639.813 916.542 643.651 921.027 Q647.489 925.511 647.489 931.762 Q647.489 938.319 642.937 942.803 Q638.42 947.288 632.307 947.288 Q626.737 947.288 623.204 943.313 Q619.706 939.338 619.706 934.548 Z" fill="#000000" fill-rule="evenodd" fill-opacity="1" /><path clip-path="url(#clip500)" d="M903.902 906.044 L903.902 903.87 Q912.257 903.87 916.57 899.419 Q917.759 899.419 917.963 899.691 Q918.167 899.963 918.167 901.22 L918.167 940.255 Q918.167 942.328 919.186 942.973 Q920.205 943.619 924.654 943.619 L926.861 943.619 L926.861 945.759 Q924.416 945.555 915.585 945.555 Q906.755 945.555 904.343 945.759 L904.343 943.619 L906.551 943.619 Q910.932 943.619 911.985 943.007 Q913.038 942.362 913.038 940.255 L913.038 904.21 Q909.404 906.044 903.902 906.044 Z" fill="#000000" fill-rule="evenodd" fill-opacity="1" /><path clip-path="url(#clip500)" d="M939.462 944.638 Q938.409 943.517 938.409 942.056 Q938.409 940.595 939.462 939.542 Q940.515 938.455 942.111 938.455 Q943.64 938.455 944.659 939.474 Q945.711 940.459 945.711 942.09 Q945.711 943.687 944.591 944.74 Q943.504 945.759 942.111 945.759 Q940.515 945.759 939.462 944.638 Z" fill="#000000" fill-rule="evenodd" fill-opacity="1" /><path clip-path="url(#clip500)" d="M954.542 923.507 Q954.542 913.281 957.123 907.709 Q960.723 899.419 969.214 899.419 Q971.014 899.419 972.882 899.929 Q974.784 900.405 977.162 902.273 Q979.573 904.142 981.034 907.199 Q983.819 913.111 983.819 923.507 Q983.819 933.665 981.238 939.202 Q977.468 947.288 969.146 947.288 Q966.022 947.288 962.829 945.691 Q959.671 944.094 957.667 940.255 Q954.542 934.514 954.542 923.507 M960.316 922.657 Q960.316 933.155 961.063 937.334 Q961.912 941.852 964.222 943.823 Q966.565 945.759 969.146 945.759 Q971.931 945.759 974.241 943.687 Q976.585 941.58 977.298 937.062 Q978.079 932.611 978.045 922.657 Q978.045 912.975 977.366 909.102 Q976.449 904.583 974.003 902.783 Q971.592 900.948 969.146 900.948 Q968.229 900.948 967.244 901.22 Q966.293 901.492 964.901 902.273 Q963.508 903.055 962.422 904.991 Q961.369 906.928 960.859 909.849 Q960.316 913.62 960.316 922.657 Z" fill="#000000" fill-rule="evenodd" fill-opacity="1" /><path clip-path="url(#clip500)" d="M1241.96 906.044 L1241.96 903.87 Q1250.32 903.87 1254.63 899.419 Q1255.82 899.419 1256.03 899.691 Q1256.23 899.963 1256.23 901.22 L1256.23 940.255 Q1256.23 942.328 1257.25 942.973 Q1258.27 943.619 1262.72 943.619 L1264.92 943.619 L1264.92 945.759 Q1262.48 945.555 1253.65 945.555 Q1244.82 945.555 1242.41 945.759 L1242.41 943.619 L1244.61 943.619 Q1248.99 943.619 1250.05 943.007 Q1251.1 942.362 1251.1 940.255 L1251.1 904.21 Q1247.47 906.044 1241.96 906.044 Z" fill="#000000" fill-rule="evenodd" fill-opacity="1" /><path clip-path="url(#clip500)" d="M1277.52 944.638 Q1276.47 943.517 1276.47 942.056 Q1276.47 940.595 1277.52 939.542 Q1278.58 938.455 1280.17 938.455 Q1281.7 938.455 1282.72 939.474 Q1283.77 940.459 1283.77 942.09 Q1283.77 943.687 1282.65 944.74 Q1281.57 945.759 1280.17 945.759 Q1278.58 945.759 1277.52 944.638 Z" fill="#000000" fill-rule="evenodd" fill-opacity="1" /><path clip-path="url(#clip500)" d="M1293.35 934.548 Q1293.35 932.476 1294.47 931.694 Q1295.59 930.879 1296.78 930.879 Q1298.38 930.879 1299.3 931.898 Q1300.25 932.883 1300.25 934.276 Q1300.25 935.669 1299.3 936.688 Q1298.38 937.674 1296.78 937.674 Q1296 937.674 1295.59 937.538 Q1296.51 940.731 1299.3 943.041 Q1302.11 945.351 1305.82 945.351 Q1310.47 945.351 1313.25 940.833 Q1314.92 937.911 1314.92 931.287 Q1314.92 925.443 1313.66 922.521 Q1311.73 918.071 1307.75 918.071 Q1302.11 918.071 1298.79 922.929 Q1298.38 923.541 1297.9 923.575 Q1297.22 923.575 1297.05 923.201 Q1296.92 922.793 1296.92 921.74 L1296.92 901.152 Q1296.92 899.487 1297.6 899.487 Q1297.87 899.487 1298.45 899.691 Q1302.83 901.628 1307.68 901.662 Q1312.68 901.662 1317.16 899.623 Q1317.5 899.419 1317.7 899.419 Q1318.38 899.419 1318.42 900.201 Q1318.42 900.473 1317.84 901.288 Q1317.3 902.069 1316.11 903.123 Q1314.92 904.142 1313.39 905.127 Q1311.86 906.112 1309.62 906.792 Q1307.41 907.437 1304.97 907.437 Q1302.05 907.437 1299.06 906.52 L1299.06 920.075 Q1302.66 916.542 1307.89 916.542 Q1313.46 916.542 1317.3 921.027 Q1321.13 925.511 1321.13 931.762 Q1321.13 938.319 1316.58 942.803 Q1312.07 947.288 1305.95 947.288 Q1300.38 947.288 1296.85 943.313 Q1293.35 939.338 1293.35 934.548 Z" fill="#000000" fill-rule="evenodd" fill-opacity="1" /><path clip-path="url(#clip500)" d="M1577.92 945.759 Q1577.92 944.502 1578.02 944.128 Q1578.16 943.755 1578.7 943.177 L1592.05 928.297 Q1599.35 920.075 1599.35 912.907 Q1599.35 908.253 1596.91 904.923 Q1594.5 901.594 1590.05 901.594 Q1586.99 901.594 1584.41 903.462 Q1581.83 905.331 1580.64 908.66 Q1580.84 908.592 1581.55 908.592 Q1583.29 908.592 1584.24 909.679 Q1585.22 910.767 1585.22 912.227 Q1585.22 914.096 1584 915.013 Q1582.81 915.897 1581.62 915.897 Q1581.15 915.897 1580.5 915.795 Q1579.89 915.693 1578.91 914.741 Q1577.92 913.756 1577.92 912.024 Q1577.92 907.165 1581.59 903.292 Q1585.29 899.419 1590.93 899.419 Q1597.31 899.419 1601.49 903.224 Q1605.7 906.996 1605.7 912.907 Q1605.7 914.979 1605.06 916.882 Q1604.45 918.75 1603.6 920.211 Q1602.78 921.672 1600.54 924.016 Q1598.3 926.36 1596.5 928.025 Q1594.7 929.69 1590.66 933.223 L1583.29 940.391 L1595.82 940.391 Q1601.93 940.391 1602.41 939.848 Q1603.09 938.863 1603.94 933.665 L1605.7 933.665 L1603.73 945.759 L1577.92 945.759 Z" fill="#000000" fill-rule="evenodd" fill-opacity="1" /><path clip-path="url(#clip500)" d="M1616.2 944.638 Q1615.15 943.517 1615.15 942.056 Q1615.15 940.595 1616.2 939.542 Q1617.25 938.455 1618.85 938.455 Q1620.38 938.455 1621.39 939.474 Q1622.45 940.459 1622.45 942.09 Q1622.45 943.687 1621.33 944.74 Q1620.24 945.759 1618.85 945.759 Q1617.25 945.759 1616.2 944.638 Z" fill="#000000" fill-rule="evenodd" fill-opacity="1" /><path clip-path="url(#clip500)" d="M1631.28 923.507 Q1631.28 913.281 1633.86 907.709 Q1637.46 899.419 1645.95 899.419 Q1647.75 899.419 1649.62 899.929 Q1651.52 900.405 1653.9 902.273 Q1656.31 904.142 1657.77 907.199 Q1660.55 913.111 1660.55 923.507 Q1660.55 933.665 1657.97 939.202 Q1654.2 947.288 1645.88 947.288 Q1642.76 947.288 1639.57 945.691 Q1636.41 944.094 1634.4 940.255 Q1631.28 934.514 1631.28 923.507 M1637.05 922.657 Q1637.05 933.155 1637.8 937.334 Q1638.65 941.852 1640.96 943.823 Q1643.3 945.759 1645.88 945.759 Q1648.67 945.759 1650.98 943.687 Q1653.32 941.58 1654.03 937.062 Q1654.81 932.611 1654.78 922.657 Q1654.78 912.975 1654.1 909.102 Q1653.18 904.583 1650.74 902.783 Q1648.33 900.948 1645.88 900.948 Q1644.97 900.948 1643.98 901.22 Q1643.03 901.492 1641.64 902.273 Q1640.24 903.055 1639.16 904.991 Q1638.1 906.928 1637.6 909.849 Q1637.05 913.62 1637.05 922.657 Z" fill="#000000" fill-rule="evenodd" fill-opacity="1" /><path clip-path="url(#clip500)" d="M860.013 997.494 L861.458 980.445 L907.809 980.445 L909.254 997.494 L907.365 997.494 Q907.068 994.084 906.772 992.12 Q906.513 990.156 905.846 988.303 Q905.216 986.412 904.401 985.523 Q903.622 984.596 902.103 983.892 Q900.584 983.151 898.621 982.966 Q896.657 982.78 893.693 982.78 Q890.21 982.78 889.358 982.929 Q888.431 983.151 888.209 983.818 Q887.987 984.448 887.987 985.819 L887.987 1025.81 Q887.987 1027.33 888.283 1027.96 Q888.617 1028.55 890.358 1029.03 Q892.099 1029.48 895.953 1029.48 L898.991 1029.48 L898.991 1031.81 Q895.879 1031.59 884.578 1031.59 Q873.351 1031.59 870.239 1031.81 L870.239 1029.48 L873.277 1029.48 Q877.131 1029.48 878.872 1029.03 Q880.651 1028.55 880.947 1027.96 Q881.243 1027.33 881.243 1025.81 L881.243 985.819 Q881.243 984.745 881.169 984.3 Q881.095 983.855 880.762 983.485 Q880.428 983.077 879.65 982.929 Q878.909 982.78 875.575 982.78 Q872.61 982.78 870.61 982.966 Q868.646 983.151 867.127 983.892 Q865.608 984.596 864.793 985.523 Q864.014 986.412 863.348 988.303 Q862.718 990.156 862.458 992.12 Q862.199 994.084 861.903 997.494 L860.013 997.494 Z" fill="#000000" fill-rule="evenodd" fill-opacity="1" /><path clip-path="url(#clip500)" d="M914.553 1031.81 L914.553 1029.48 Q918.591 1029.48 919.518 1029 Q920.444 1028.48 920.444 1026.03 L920.444 1005.61 Q920.444 1002.79 919.481 1002.13 Q918.554 1001.46 914.849 1001.46 L914.849 999.088 L925.446 998.272 L925.446 1026.11 Q925.446 1028.37 926.261 1028.92 Q927.076 1029.48 930.781 1029.48 L930.781 1031.81 Q923.037 1031.59 922.889 1031.59 Q921.852 1031.59 914.553 1031.81 M917.739 985.041 Q917.739 983.522 918.888 982.299 Q920.073 981.038 921.741 981.038 Q923.408 981.038 924.594 982.187 Q925.779 983.299 925.779 985.078 Q925.779 986.82 924.594 987.969 Q923.408 989.081 921.741 989.081 Q919.999 989.081 918.851 987.858 Q917.739 986.635 917.739 985.041 Z" fill="#000000" fill-rule="evenodd" fill-opacity="1" /><path clip-path="url(#clip500)" d="M935.487 1031.81 L935.487 1029.48 Q939.525 1029.48 940.452 1029 Q941.378 1028.48 941.378 1026.03 L941.378 1005.68 Q941.378 1002.87 940.378 1002.16 Q939.414 1001.46 935.487 1001.46 L935.487 999.088 L946.158 998.272 L946.158 1006.24 Q949.714 998.272 957.384 998.272 Q966.276 998.272 967.499 1005.68 Q968.796 1002.79 971.501 1000.53 Q974.243 998.272 978.503 998.272 Q984.209 998.272 986.47 1001.09 Q988.137 1002.98 988.47 1005.09 Q988.804 1007.2 988.804 1012.69 L988.804 1027.18 Q988.878 1028.77 990.101 1029.14 Q991.323 1029.48 994.732 1029.48 L994.732 1031.81 Q986.988 1031.59 986.247 1031.59 Q985.654 1031.59 977.651 1031.81 L977.651 1029.48 Q981.69 1029.48 982.616 1029 Q983.58 1028.48 983.58 1026.03 L983.58 1008.35 Q983.58 1004.5 982.394 1002.24 Q981.208 999.94 977.948 999.94 Q974.02 999.94 970.871 1003.24 Q967.721 1006.54 967.721 1012.1 L967.721 1026.03 Q967.721 1028.48 968.648 1029 Q969.611 1029.48 973.65 1029.48 L973.65 1031.81 Q965.906 1031.59 965.128 1031.59 Q964.535 1031.59 956.569 1031.81 L956.569 1029.48 Q960.608 1029.48 961.534 1029 Q962.497 1028.48 962.497 1026.03 L962.497 1008.35 Q962.497 1004.5 961.312 1002.24 Q960.126 999.94 956.865 999.94 Q952.938 999.94 949.789 1003.24 Q946.639 1006.54 946.639 1012.1 L946.639 1026.03 Q946.639 1028.48 947.566 1029 Q948.529 1029.48 952.53 1029.48 L952.53 1031.81 Q944.787 1031.59 944.046 1031.59 Q943.453 1031.59 935.487 1031.81 Z" fill="#000000" fill-rule="evenodd" fill-opacity="1" /><path clip-path="url(#clip500)" d="M998.326 1015.1 Q998.326 1007.95 1002.92 1002.87 Q1007.51 997.79 1014.11 997.79 Q1020.78 997.79 1024.22 1002.13 Q1027.71 1006.46 1027.71 1012.69 Q1027.71 1013.84 1027.41 1014.06 Q1027.11 1014.28 1025.82 1014.28 L1004.62 1014.28 Q1004.62 1022.03 1006.92 1025.66 Q1010.11 1030.74 1015.48 1030.74 Q1016.22 1030.74 1017.11 1030.59 Q1018 1030.44 1019.82 1029.81 Q1021.63 1029.14 1023.22 1027.4 Q1024.82 1025.66 1025.74 1022.92 Q1025.97 1021.84 1026.71 1021.88 Q1027.71 1021.88 1027.71 1022.77 Q1027.71 1023.44 1026.97 1024.96 Q1026.26 1026.44 1024.89 1028.22 Q1023.52 1030 1020.85 1031.33 Q1018.22 1032.67 1015.04 1032.67 Q1008.37 1032.67 1003.33 1027.63 Q998.326 1022.55 998.326 1015.1 M1004.7 1012.69 L1022.71 1012.69 Q1022.71 1011.1 1022.41 1009.32 Q1022.15 1007.54 1021.33 1005.09 Q1020.56 1002.61 1018.7 1001.05 Q1016.85 999.495 1014.11 999.495 Q1012.89 999.495 1011.55 1000.01 Q1010.26 1000.53 1008.66 1001.79 Q1007.07 1003.05 1005.96 1005.91 Q1004.85 1008.76 1004.7 1012.69 Z" fill="#000000" fill-rule="evenodd" fill-opacity="1" /><polyline clip-path="url(#clip503)" style="stroke:#000000; stroke-linecap:round; stroke-linejoin:round; stroke-width:2.00037; stroke-opacity:0.1; fill:none" points="227.96,849.327 1659.76,849.327 "/>
<polyline clip-path="url(#clip503)" style="stroke:#000000; stroke-linecap:round; stroke-linejoin:round; stroke-width:2.00037; stroke-opacity:0.1; fill:none" points="227.96,679.179 1659.76,679.179 "/>
<polyline clip-path="url(#clip503)" style="stroke:#000000; stroke-linecap:round; stroke-linejoin:round; stroke-width:2.00037; stroke-opacity:0.1; fill:none" points="227.96,509.031 1659.76,509.031 "/>
<polyline clip-path="url(#clip503)" style="stroke:#000000; stroke-linecap:round; stroke-linejoin:round; stroke-width:2.00037; stroke-opacity:0.1; fill:none" points="227.96,338.884 1659.76,338.884 "/>
<polyline clip-path="url(#clip503)" style="stroke:#000000; stroke-linecap:round; stroke-linejoin:round; stroke-width:2.00037; stroke-opacity:0.1; fill:none" points="227.96,168.736 1659.76,168.736 "/>
<polyline clip-path="url(#clip500)" style="stroke:#000000; stroke-linecap:round; stroke-linejoin:round; stroke-width:4.00074; stroke-opacity:1; fill:none" points="227.96,872.688 227.96,47.2528 "/>
<polyline clip-path="url(#clip500)" style="stroke:#000000; stroke-linecap:round; stroke-linejoin:round; stroke-width:4.00074; stroke-opacity:1; fill:none" points="1659.76,872.688 1659.76,47.2528 "/>
<polyline clip-path="url(#clip500)" style="stroke:#000000; stroke-linecap:round; stroke-linejoin:round; stroke-width:4.00074; stroke-opacity:1; fill:none" points="227.96,849.327 246.856,849.327 "/>
<polyline clip-path="url(#clip500)" style="stroke:#000000; stroke-linecap:round; stroke-linejoin:round; stroke-width:4.00074; stroke-opacity:1; fill:none" points="227.96,679.179 246.856,679.179 "/>
<polyline clip-path="url(#clip500)" style="stroke:#000000; stroke-linecap:round; stroke-linejoin:round; stroke-width:4.00074; stroke-opacity:1; fill:none" points="227.96,509.031 246.856,509.031 "/>
<polyline clip-path="url(#clip500)" style="stroke:#000000; stroke-linecap:round; stroke-linejoin:round; stroke-width:4.00074; stroke-opacity:1; fill:none" points="227.96,338.884 246.856,338.884 "/>
<polyline clip-path="url(#clip500)" style="stroke:#000000; stroke-linecap:round; stroke-linejoin:round; stroke-width:4.00074; stroke-opacity:1; fill:none" points="227.96,168.736 246.856,168.736 "/>
<path clip-path="url(#clip500)" d="M118.974 850.839 Q118.974 840.613 121.555 835.041 Q125.155 826.752 133.646 826.752 Q135.447 826.752 137.315 827.261 Q139.216 827.737 141.594 829.605 Q144.005 831.474 145.466 834.532 Q148.251 840.443 148.251 850.839 Q148.251 860.997 145.67 866.535 Q141.9 874.62 133.578 874.62 Q130.454 874.62 127.261 873.023 Q124.103 871.427 122.099 867.588 Q118.974 861.846 118.974 850.839 M124.748 849.989 Q124.748 860.487 125.495 864.666 Q126.344 869.184 128.654 871.155 Q130.997 873.091 133.578 873.091 Q136.364 873.091 138.673 871.019 Q141.017 868.913 141.73 864.394 Q142.511 859.944 142.477 849.989 Q142.477 840.307 141.798 836.434 Q140.881 831.916 138.435 830.115 Q136.024 828.28 133.578 828.28 Q132.661 828.28 131.677 828.552 Q130.726 828.824 129.333 829.605 Q127.94 830.387 126.854 832.323 Q125.801 834.26 125.291 837.182 Q124.748 840.953 124.748 849.989 Z" fill="#000000" fill-rule="evenodd" fill-opacity="1" /><path clip-path="url(#clip500)" d="M157.998 871.97 Q156.946 870.849 156.946 869.388 Q156.946 867.927 157.998 866.874 Q159.051 865.787 160.648 865.787 Q162.176 865.787 163.195 866.806 Q164.248 867.792 164.248 869.422 Q164.248 871.019 163.127 872.072 Q162.04 873.091 160.648 873.091 Q159.051 873.091 157.998 871.97 Z" fill="#000000" fill-rule="evenodd" fill-opacity="1" /><path clip-path="url(#clip500)" d="M173.078 850.839 Q173.078 840.613 175.66 835.041 Q179.26 826.752 187.751 826.752 Q189.551 826.752 191.419 827.261 Q193.321 827.737 195.698 829.605 Q198.11 831.474 199.57 834.532 Q202.355 840.443 202.355 850.839 Q202.355 860.997 199.774 866.535 Q196.004 874.62 187.683 874.62 Q184.558 874.62 181.366 873.023 Q178.207 871.427 176.203 867.588 Q173.078 861.846 173.078 850.839 M178.852 849.989 Q178.852 860.487 179.599 864.666 Q180.449 869.184 182.758 871.155 Q185.102 873.091 187.683 873.091 Q190.468 873.091 192.777 871.019 Q195.121 868.913 195.834 864.394 Q196.615 859.944 196.581 849.989 Q196.581 840.307 195.902 836.434 Q194.985 831.916 192.54 830.115 Q190.128 828.28 187.683 828.28 Q186.766 828.28 185.781 828.552 Q184.83 828.824 183.437 829.605 Q182.045 830.387 180.958 832.323 Q179.905 834.26 179.396 837.182 Q178.852 840.953 178.852 849.989 Z" fill="#000000" fill-rule="evenodd" fill-opacity="1" /><path clip-path="url(#clip500)" d="M121.827 680.691 Q121.827 670.465 124.408 664.893 Q128.008 656.604 136.499 656.604 Q138.299 656.604 140.167 657.114 Q142.069 657.589 144.447 659.458 Q146.858 661.326 148.319 664.384 Q151.104 670.295 151.104 680.691 Q151.104 690.849 148.523 696.387 Q144.753 704.472 136.431 704.472 Q133.307 704.472 130.114 702.876 Q126.956 701.279 124.952 697.44 Q121.827 691.698 121.827 680.691 M127.601 679.842 Q127.601 690.339 128.348 694.518 Q129.197 699.037 131.507 701.007 Q133.85 702.944 136.431 702.944 Q139.216 702.944 141.526 700.871 Q143.87 698.765 144.583 694.246 Q145.364 689.796 145.33 679.842 Q145.33 670.159 144.651 666.286 Q143.734 661.768 141.288 659.967 Q138.877 658.133 136.431 658.133 Q135.514 658.133 134.529 658.405 Q133.578 658.676 132.186 659.458 Q130.793 660.239 129.707 662.176 Q128.654 664.112 128.144 667.034 Q127.601 670.805 127.601 679.842 Z" fill="#000000" fill-rule="evenodd" fill-opacity="1" /><path clip-path="url(#clip500)" d="M160.851 701.822 Q159.799 700.701 159.799 699.241 Q159.799 697.78 160.851 696.726 Q161.904 695.639 163.501 695.639 Q165.029 695.639 166.048 696.659 Q167.101 697.644 167.101 699.274 Q167.101 700.871 165.98 701.924 Q164.893 702.944 163.501 702.944 Q161.904 702.944 160.851 701.822 Z" fill="#000000" fill-rule="evenodd" fill-opacity="1" /><path clip-path="url(#clip500)" d="M179.396 663.229 L179.396 661.054 Q187.751 661.054 192.064 656.604 Q193.253 656.604 193.457 656.876 Q193.661 657.147 193.661 658.405 L193.661 697.44 Q193.661 699.512 194.679 700.158 Q195.698 700.803 200.148 700.803 L202.355 700.803 L202.355 702.944 Q199.91 702.74 191.079 702.74 Q182.249 702.74 179.837 702.944 L179.837 700.803 L182.045 700.803 Q186.426 700.803 187.479 700.192 Q188.532 699.546 188.532 697.44 L188.532 661.394 Q184.898 663.229 179.396 663.229 Z" fill="#000000" fill-rule="evenodd" fill-opacity="1" /><path clip-path="url(#clip500)" d="M119.721 510.543 Q119.721 500.317 122.303 494.746 Q125.903 486.456 134.394 486.456 Q136.194 486.456 138.062 486.966 Q139.964 487.441 142.341 489.31 Q144.753 491.178 146.213 494.236 Q148.998 500.147 148.998 510.543 Q148.998 520.701 146.417 526.239 Q142.647 534.325 134.326 534.325 Q131.201 534.325 128.008 532.728 Q124.85 531.131 122.846 527.292 Q119.721 521.551 119.721 510.543 M125.495 509.694 Q125.495 520.192 126.242 524.37 Q127.091 528.889 129.401 530.859 Q131.744 532.796 134.326 532.796 Q137.111 532.796 139.42 530.723 Q141.764 528.617 142.477 524.099 Q143.258 519.648 143.224 509.694 Q143.224 500.012 142.545 496.139 Q141.628 491.62 139.183 489.82 Q136.771 487.985 134.326 487.985 Q133.409 487.985 132.424 488.257 Q131.473 488.529 130.08 489.31 Q128.688 490.091 127.601 492.028 Q126.548 493.964 126.039 496.886 Q125.495 500.657 125.495 509.694 Z" fill="#000000" fill-rule="evenodd" fill-opacity="1" /><path clip-path="url(#clip500)" d="M158.746 531.675 Q157.693 530.554 157.693 529.093 Q157.693 527.632 158.746 526.579 Q159.799 525.492 161.395 525.492 Q162.923 525.492 163.942 526.511 Q164.995 527.496 164.995 529.127 Q164.995 530.723 163.874 531.777 Q162.787 532.796 161.395 532.796 Q159.799 532.796 158.746 531.675 Z" fill="#000000" fill-rule="evenodd" fill-opacity="1" /><path clip-path="url(#clip500)" d="M174.573 532.796 Q174.573 531.539 174.675 531.165 Q174.811 530.791 175.354 530.214 L188.702 515.334 Q196.004 507.112 196.004 499.944 Q196.004 495.289 193.559 491.96 Q191.147 488.63 186.698 488.63 Q183.641 488.63 181.06 490.499 Q178.479 492.368 177.29 495.697 Q177.494 495.629 178.207 495.629 Q179.939 495.629 180.89 496.716 Q181.875 497.803 181.875 499.264 Q181.875 501.133 180.652 502.05 Q179.464 502.933 178.275 502.933 Q177.799 502.933 177.154 502.831 Q176.543 502.729 175.558 501.778 Q174.573 500.793 174.573 499.06 Q174.573 494.202 178.241 490.329 Q181.943 486.456 187.581 486.456 Q193.966 486.456 198.144 490.261 Q202.355 494.032 202.355 499.944 Q202.355 502.016 201.71 503.918 Q201.099 505.787 200.249 507.248 Q199.434 508.709 197.193 511.053 Q194.951 513.397 193.151 515.062 Q191.351 516.726 187.309 520.26 L179.939 527.428 L192.472 527.428 Q198.585 527.428 199.061 526.884 Q199.74 525.899 200.589 520.701 L202.355 520.701 L200.385 532.796 L174.573 532.796 Z" fill="#000000" fill-rule="evenodd" fill-opacity="1" /><path clip-path="url(#clip500)" d="M119.178 340.396 Q119.178 330.17 121.759 324.598 Q125.359 316.308 133.85 316.308 Q135.65 316.308 137.518 316.818 Q139.42 317.294 141.798 319.162 Q144.209 321.031 145.67 324.088 Q148.455 330 148.455 340.396 Q148.455 350.554 145.873 356.091 Q142.103 364.177 133.782 364.177 Q130.658 364.177 127.465 362.58 Q124.306 360.983 122.303 357.144 Q119.178 351.403 119.178 340.396 M124.952 339.546 Q124.952 350.044 125.699 354.223 Q126.548 358.741 128.858 360.712 Q131.201 362.648 133.782 362.648 Q136.567 362.648 138.877 360.576 Q141.22 358.469 141.934 353.951 Q142.715 349.5 142.681 339.546 Q142.681 329.864 142.002 325.991 Q141.084 321.472 138.639 319.672 Q136.228 317.837 133.782 317.837 Q132.865 317.837 131.88 318.109 Q130.929 318.381 129.537 319.162 Q128.144 319.944 127.057 321.88 Q126.005 323.817 125.495 326.738 Q124.952 330.509 124.952 339.546 Z" fill="#000000" fill-rule="evenodd" fill-opacity="1" /><path clip-path="url(#clip500)" d="M158.202 361.527 Q157.149 360.406 157.149 358.945 Q157.149 357.484 158.202 356.431 Q159.255 355.344 160.851 355.344 Q162.38 355.344 163.399 356.363 Q164.452 357.348 164.452 358.979 Q164.452 360.576 163.331 361.629 Q162.244 362.648 160.851 362.648 Q159.255 362.648 158.202 361.527 Z" fill="#000000" fill-rule="evenodd" fill-opacity="1" /><path clip-path="url(#clip500)" d="M173.486 353.271 Q173.486 351.199 174.675 350.214 Q175.863 349.229 177.392 349.229 Q178.988 349.229 180.109 350.282 Q181.264 351.301 181.264 353.102 Q181.264 355.038 179.905 356.125 Q178.581 357.212 176.679 356.941 Q178.343 359.726 181.4 360.983 Q184.49 362.24 187.343 362.24 Q190.332 362.24 192.743 359.658 Q195.189 357.076 195.189 350.757 Q195.189 345.39 193.083 342.298 Q191.011 339.206 186.902 339.206 L183.845 339.206 Q182.792 339.206 182.486 339.105 Q182.181 339.003 182.181 338.425 Q182.181 337.746 183.234 337.61 Q184.286 337.61 185.951 337.406 Q189.992 337.27 192.132 333.771 Q194.068 330.509 194.068 325.855 Q194.068 321.608 192.03 319.842 Q190.026 318.041 187.411 318.041 Q184.966 318.041 182.283 319.06 Q179.599 320.079 178.139 322.356 Q182.452 322.356 182.452 325.855 Q182.452 327.384 181.467 328.403 Q180.517 329.388 178.92 329.388 Q177.392 329.388 176.373 328.437 Q175.354 327.452 175.354 325.787 Q175.354 321.812 178.886 319.06 Q182.452 316.308 187.683 316.308 Q192.845 316.308 196.649 319.026 Q200.487 321.744 200.487 325.923 Q200.487 330.034 197.77 333.397 Q195.053 336.76 190.74 338.153 Q196.038 339.206 199.197 342.808 Q202.355 346.375 202.355 350.757 Q202.355 356.193 198.076 360.202 Q193.796 364.177 187.547 364.177 Q181.773 364.177 177.63 361.051 Q173.486 357.926 173.486 353.271 Z" fill="#000000" fill-rule="evenodd" fill-opacity="1" /><path clip-path="url(#clip500)" d="M118.193 170.248 Q118.193 160.022 120.774 154.45 Q124.374 146.161 132.865 146.161 Q134.665 146.161 136.533 146.67 Q138.435 147.146 140.813 149.014 Q143.224 150.883 144.685 153.941 Q147.47 159.852 147.47 170.248 Q147.47 180.406 144.888 185.943 Q141.118 194.029 132.797 194.029 Q129.673 194.029 126.48 192.432 Q123.321 190.836 121.318 186.997 Q118.193 181.255 118.193 170.248 M123.967 169.398 Q123.967 179.896 124.714 184.075 Q125.563 188.593 127.873 190.564 Q130.216 192.5 132.797 192.5 Q135.582 192.5 137.892 190.428 Q140.235 188.322 140.949 183.803 Q141.73 179.353 141.696 169.398 Q141.696 159.716 141.017 155.843 Q140.1 151.325 137.654 149.524 Q135.243 147.689 132.797 147.689 Q131.88 147.689 130.895 147.961 Q129.944 148.233 128.552 149.014 Q127.159 149.796 126.072 151.732 Q125.02 153.669 124.51 156.59 Q123.967 160.362 123.967 169.398 Z" fill="#000000" fill-rule="evenodd" fill-opacity="1" /><path clip-path="url(#clip500)" d="M157.217 191.379 Q156.164 190.258 156.164 188.797 Q156.164 187.336 157.217 186.283 Q158.27 185.196 159.866 185.196 Q161.395 185.196 162.414 186.215 Q163.467 187.2 163.467 188.831 Q163.467 190.428 162.346 191.481 Q161.259 192.5 159.866 192.5 Q158.27 192.5 157.217 191.379 Z" fill="#000000" fill-rule="evenodd" fill-opacity="1" /><path clip-path="url(#clip500)" d="M171.516 181.017 L171.516 178.877 L192.879 146.229 Q193.423 145.379 194.272 145.413 Q195.053 145.413 195.223 145.719 Q195.393 146.025 195.393 147.214 L195.393 178.877 L202.355 178.877 L202.355 181.017 L195.393 181.017 L195.393 187.065 Q195.393 189.069 196.208 189.714 Q197.057 190.36 200.657 190.36 L202.117 190.36 L202.117 192.5 Q199.265 192.296 192.676 192.296 Q186.121 192.296 183.268 192.5 L183.268 190.36 L184.728 190.36 Q188.328 190.36 189.177 189.748 Q190.026 189.103 190.026 187.065 L190.026 181.017 L171.516 181.017 M173.486 178.877 L190.434 178.877 L190.434 152.921 L173.486 178.877 Z" fill="#000000" fill-rule="evenodd" fill-opacity="1" /><path clip-path="url(#clip500)" d="M94.2414 558.423 Q94.8386 558.423 95.2602 558.845 Q95.6818 559.267 95.6818 559.864 Q95.6818 560.883 94.7332 561.234 L60.2002 574.623 Q60.0597 574.693 59.7084 574.693 Q59.3571 574.693 59.2165 574.623 L24.6835 561.234 Q23.735 560.883 23.735 559.864 Q23.735 559.267 24.1565 558.845 Q24.5781 558.423 25.1753 558.423 Q25.5266 558.423 25.6671 558.494 L59.7084 571.741 L93.7496 558.494 Q93.8901 558.423 94.2414 558.423 Z" fill="#000000" fill-rule="evenodd" fill-opacity="1" /><path clip-path="url(#clip500)" d="M29.3558 487.673 Q29.9882 487.673 30.3395 487.919 Q30.6556 488.129 30.7259 488.375 Q30.761 488.621 30.7962 489.254 Q31.0421 494.279 34.4497 498.39 Q35.328 499.409 38.0681 501.975 Q40.8083 504.505 44.4618 507.878 Q48.1154 511.217 50.0827 513.149 L72.285 503.872 Q73.1633 503.486 73.5497 503.345 Q73.901 503.169 74.3577 502.818 Q74.8144 502.432 74.9549 502.15 Q75.0954 501.834 75.2711 501.166 Q75.4116 500.464 75.4467 499.761 Q75.4467 499.023 75.4819 497.688 Q75.4819 497.266 75.517 497.09 Q75.517 496.879 75.7278 496.633 Q75.9034 496.387 76.325 496.387 Q76.9573 496.387 77.3086 496.669 Q77.6248 496.915 77.6599 497.16 Q77.6951 497.371 77.6951 497.758 Q77.6951 498.672 77.5897 501.764 Q77.4843 504.856 77.4843 505.735 L77.6951 514.801 Q77.6951 515.89 76.8168 515.89 Q76.3601 515.89 76.1142 515.82 Q75.8332 515.714 75.7278 515.469 Q75.5872 515.223 75.5521 515.047 Q75.517 514.871 75.4819 514.449 Q75.3413 513.149 74.9549 512.165 Q74.5333 511.146 74.1118 510.725 Q73.6902 510.268 73.374 510.268 L72.3553 510.619 L55.1766 517.893 L62.2377 524.394 L70.0015 531.738 Q72.0742 533.671 73.2335 533.671 Q75.1657 533.671 75.4819 530.79 Q75.5521 529.911 76.2547 529.911 Q76.9222 529.911 77.2735 530.192 Q77.5897 530.438 77.6599 530.684 Q77.6951 530.895 77.6951 531.211 Q77.6951 532.511 77.5897 535.252 Q77.4843 537.958 77.4843 539.294 Q77.4843 540.418 77.5897 542.702 Q77.6951 544.986 77.6951 546.04 Q77.6951 546.462 77.4843 546.708 Q77.2735 546.954 77.0627 546.954 L76.8871 546.989 Q76.3952 546.989 76.1142 546.919 Q75.8332 546.814 75.6926 546.532 Q75.5521 546.216 75.5521 546.076 Q75.517 545.935 75.4819 545.408 Q75.3062 542.421 74.1469 539.891 Q72.9876 537.326 70.2826 534.831 Q70.1069 534.62 69.8961 534.374 Q69.6854 534.093 69.5097 533.882 L53.1741 518.701 L33.0796 527.205 Q32.1662 527.592 31.7798 527.943 Q31.3582 528.295 31.0772 529.384 Q30.7962 530.473 30.7962 532.582 Q30.7962 533.179 30.761 533.46 Q30.7259 533.741 30.5502 533.987 Q30.3746 534.233 29.9882 534.233 Q29.3207 534.233 29.0045 533.987 Q28.6532 533.706 28.6181 533.495 Q28.5478 533.249 28.5478 532.933 Q28.5478 532.055 28.6532 528.927 Q28.7586 525.8 28.7586 524.886 Q28.7586 523.375 28.6532 520.353 Q28.5478 517.296 28.5478 515.82 Q28.5478 514.731 29.4261 514.731 Q29.9882 514.731 30.3043 514.977 Q30.6205 515.223 30.6908 515.469 Q30.761 515.714 30.7962 516.171 Q30.9367 517.542 31.3934 518.596 Q31.8149 519.615 32.2365 520.037 Q32.6229 520.423 32.8688 520.423 L33.8174 520.072 L48.1154 514.028 L35.609 502.361 Q34.0633 500.991 33.0094 500.991 Q31.1123 500.991 30.7962 503.872 Q30.6556 504.751 29.9882 504.751 Q29.3207 504.751 29.0045 504.47 Q28.6532 504.189 28.6181 503.978 Q28.5478 503.732 28.5478 503.38 Q28.5478 502.08 28.6532 499.409 Q28.7586 496.704 28.7586 495.368 Q28.7586 494.244 28.6532 491.96 Q28.5478 489.676 28.5478 488.621 Q28.5478 488.2 28.7586 487.954 Q28.9343 487.708 29.145 487.708 L29.3558 487.673 Z" fill="#000000" fill-rule="evenodd" fill-opacity="1" /><path clip-path="url(#clip500)" d="M68.8785 480.569 L67.3047 480.569 Q67.3047 474.518 64.0832 471.394 Q64.0832 470.533 64.28 470.385 Q64.4767 470.238 65.3866 470.238 L93.6418 470.238 Q95.1419 470.238 95.6091 469.5 Q96.0764 468.762 96.0764 465.539 L96.0764 463.94 L97.6256 463.94 Q97.4781 465.711 97.4781 472.107 Q97.4781 478.502 97.6256 480.249 L96.0764 480.249 L96.0764 478.65 Q96.0764 475.477 95.6337 474.714 Q95.1665 473.952 93.6418 473.952 L67.5506 473.952 Q68.8785 476.584 68.8785 480.569 Z" fill="#000000" fill-rule="evenodd" fill-opacity="1" /><path clip-path="url(#clip500)" d="M29.2153 408.561 Q29.4261 408.561 30.2692 408.772 L75.2359 449.007 L75.2359 436.708 Q75.2359 433.089 74.6036 430.348 Q73.9361 427.607 72.812 425.709 Q71.6878 423.812 69.7556 422.336 Q67.7883 420.825 65.6454 419.841 Q63.4673 418.857 60.2704 417.838 Q59.0409 417.451 58.7598 417.276 Q58.4788 417.1 58.4788 416.643 Q58.4788 416.186 58.7598 415.94 Q59.0058 415.694 59.2868 415.694 Q59.4273 415.694 59.6381 415.765 Q59.8138 415.8 60.0245 415.87 Q60.2353 415.94 60.3407 415.975 L76.2547 421.106 Q77.2735 421.422 77.4843 421.738 Q77.6951 422.055 77.6951 423.32 L77.6951 454.63 Q77.6951 455.719 77.6248 456.07 Q77.5194 456.422 77.0627 456.422 L75.7629 456.141 L30.7962 415.905 L30.7962 427.642 Q30.7962 430.945 31.3934 433.545 Q31.9555 436.111 33.0094 437.938 Q34.0281 439.765 35.7495 441.171 Q37.4358 442.576 39.4031 443.525 Q41.3352 444.474 44.0403 445.353 L44.2159 445.458 Q44.3916 445.563 44.497 445.634 Q44.5672 445.704 44.6726 445.88 Q44.7429 446.055 44.7429 446.266 Q44.7429 446.653 44.5321 446.899 Q44.3213 447.11 44.1105 447.11 L43.9349 447.145 Q43.3025 447.074 42.9512 446.934 L29.9882 442.963 Q28.9694 442.647 28.7586 442.33 Q28.5478 442.014 28.5478 440.749 L28.5478 410.353 Q28.5478 409.228 28.6532 408.912 Q28.7586 408.561 29.2153 408.561 Z" fill="#000000" fill-rule="evenodd" fill-opacity="1" /><path clip-path="url(#clip500)" d="M90.8384 401.34 Q89.3384 401.34 88.6252 400.479 Q87.9121 399.618 87.9121 398.511 Q87.9121 397.355 88.6744 396.543 Q89.4122 395.707 90.7155 395.707 Q92.1172 395.707 92.9041 396.691 Q93.691 397.65 93.4943 399.028 Q95.5108 397.822 96.4206 395.609 Q97.3305 393.37 97.3305 391.304 Q97.3305 389.139 95.4616 387.393 Q93.5927 385.622 89.0187 385.622 Q85.1333 385.622 82.8955 387.147 Q80.6577 388.647 80.6577 391.624 L80.6577 393.837 Q80.6577 394.6 80.5839 394.821 Q80.5102 395.043 80.0921 395.043 Q79.6003 395.043 79.5019 394.28 Q79.5019 393.518 79.3544 392.312 Q79.256 389.385 76.7231 387.836 Q74.3624 386.433 70.9934 386.433 Q67.9195 386.433 66.6407 387.909 Q65.3374 389.361 65.3374 391.255 Q65.3374 393.026 66.0751 394.969 Q66.8129 396.912 68.4605 397.97 Q68.4605 394.846 70.9934 394.846 Q72.1 394.846 72.8377 395.559 Q73.5508 396.248 73.5508 397.404 Q73.5508 398.511 72.8623 399.249 Q72.1491 399.987 70.9442 399.987 Q68.067 399.987 66.0751 397.429 Q64.0832 394.846 64.0832 391.058 Q64.0832 387.319 66.0505 384.564 Q68.0178 381.784 71.0425 381.784 Q74.0181 381.784 76.4526 383.752 Q78.8871 385.72 79.8954 388.844 Q80.6577 385.007 83.2644 382.719 Q85.8464 380.432 89.0187 380.432 Q92.9533 380.432 95.8551 383.531 Q98.7322 386.63 98.7322 391.156 Q98.7322 395.338 96.4698 398.339 Q94.2074 401.34 90.8384 401.34 Z" fill="#000000" fill-rule="evenodd" fill-opacity="1" /><path clip-path="url(#clip500)" d="M59.2165 356.787 Q59.3571 356.717 59.7084 356.717 Q60.0597 356.717 60.2002 356.787 L94.7332 370.176 Q95.6818 370.527 95.6818 371.511 Q95.6818 372.109 95.2602 372.53 Q94.8386 372.952 94.2414 372.952 Q93.8901 372.952 93.7496 372.882 L59.7084 359.669 L25.6671 372.882 Q25.5266 372.952 25.1753 372.952 Q24.5781 372.952 24.1565 372.53 Q23.735 372.109 23.735 371.511 Q23.735 370.527 24.6835 370.176 L59.2165 356.787 Z" fill="#000000" fill-rule="evenodd" fill-opacity="1" /><polyline clip-path="url(#clip503)" style="stroke:#000000; stroke-linecap:round; stroke-linejoin:round; stroke-width:8.00147; stroke-opacity:1; fill:none" stroke-dasharray="32, 20" points="268.483,849.327 302.252,830.368 336.021,775.638 369.79,691.259 403.558,586.421 437.327,472.06 471.096,359.351 504.865,258.27 538.634,176.454 572.403,118.521 606.172,85.8959 639.941,77.106 673.709,88.4256 707.478,114.698 741.247,150.164 775.016,189.167 808.785,226.653 842.554,258.454 876.323,281.417 910.091,293.436 943.86,293.48 977.629,281.644 1011.4,259.251 1045.17,228.922 1078.94,194.571 1112.7,161.223 1146.47,134.607 1180.24,120.524 1214.01,124.054 1247.78,148.723 1281.55,195.782 1315.32,263.774 1349.09,348.487 1382.86,443.361 1416.62,540.299 1450.39,630.754 1484.16,706.914 1517.93,762.763 1551.7,794.828 1585.47,802.484 1619.24,787.789 "/>
<path clip-path="url(#clip503)" d="M268.483 849.327 L302.252 849.164 L336.021 811.847 L369.79 741.805 L403.558 647.131 L437.327 538.227 L471.096 426.296 L504.865 321.842 L538.634 233.45 L572.403 166.901 L606.172 124.801 L639.941 106.721 L673.709 109.734 L707.478 129.208 L741.247 159.652 L775.016 195.444 L808.785 231.327 L842.554 262.856 L876.323 286.573 L910.091 300.018 L943.86 301.75 L977.629 291.429 L1011.4 269.898 L1045.17 239.265 L1078.94 202.957 L1112.7 165.618 L1146.47 132.802 L1180.24 110.43 L1214.01 104.113 L1247.78 118.061 L1281.55 154.667 L1315.32 213.697 L1349.09 292.128 L1382.86 384.367 L1416.62 482.897 L1450.39 579.261 L1484.16 665.227 L1517.93 733.902 L1551.7 780.627 L1585.47 803.463 L1619.24 803.219 L1619.24 803.219 L1585.47 803.463 L1551.7 780.627 L1517.93 733.902 L1484.16 665.227 L1450.39 579.261 L1416.62 482.897 L1382.86 384.367 L1349.09 292.128 L1315.32 213.697 L1281.55 154.667 L1247.78 118.061 L1214.01 104.113 L1180.24 110.43 L1146.47 132.802 L1112.7 165.618 L1078.94 202.957 L1045.17 239.265 L1011.4 269.898 L977.629 291.429 L943.86 301.75 L910.091 300.018 L876.323 286.573 L842.554 262.856 L808.785 231.327 L775.016 195.444 L741.247 159.652 L707.478 129.208 L673.709 109.734 L639.941 106.721 L606.172 124.801 L572.403 166.901 L538.634 233.45 L504.865 321.842 L471.096 426.296 L437.327 538.227 L403.558 647.131 L369.79 741.805 L336.021 811.847 L302.252 849.164 L268.483 849.327  Z" fill="#dcb0f2" fill-rule="evenodd" fill-opacity="0.5"/>
<polyline clip-path="url(#clip503)" style="stroke:#dcb0f2; stroke-linecap:round; stroke-linejoin:round; stroke-width:12.0022; stroke-opacity:1; fill:none" points="268.483,849.327 302.252,849.164 336.021,811.847 369.79,741.805 403.558,647.131 437.327,538.227 471.096,426.296 504.865,321.842 538.634,233.45 572.403,166.901 606.172,124.801 639.941,106.721 673.709,109.734 707.478,129.208 741.247,159.652 775.016,195.444 808.785,231.327 842.554,262.856 876.323,286.573 910.091,300.018 943.86,301.75 977.629,291.429 1011.4,269.898 1045.17,239.265 1078.94,202.957 1112.7,165.618 1146.47,132.802 1180.24,110.43 1214.01,104.113 1247.78,118.061 1281.55,154.667 1315.32,213.697 1349.09,292.128 1382.86,384.367 1416.62,482.897 1450.39,579.261 1484.16,665.227 1517.93,733.902 1551.7,780.627 1585.47,803.463 1619.24,803.219 "/>
<path clip-path="url(#clip503)" d="M268.483 849.327 L302.252 849.164 L336.021 811.847 L369.79 741.805 L403.558 647.131 L437.327 538.227 L471.096 426.296 L504.865 321.842 L538.634 233.803 L572.403 167.545 L606.172 125.768 L639.941 108.628 L673.709 112.545 L707.478 133.696 L741.247 165.746 L775.016 203.41 L808.785 241.244 L842.554 273.334 L876.323 295.565 L910.091 306.603 L943.86 304.933 L977.629 290.028 L1011.4 262.906 L1045.17 226.928 L1078.94 185.199 L1112.7 144.022 L1146.47 109.217 L1180.24 86.6859 L1214.01 81.4048 L1247.78 97.242 L1281.55 136.026 L1315.32 197.431 L1349.09 278.087 L1382.86 372.285 L1416.62 471.988 L1450.39 568.76 L1484.16 654.693 L1517.93 722.035 L1551.7 769.105 L1585.47 793.04 L1619.24 794.738 L1619.24 794.738 L1585.47 793.04 L1551.7 769.105 L1517.93 722.035 L1484.16 654.693 L1450.39 568.76 L1416.62 471.988 L1382.86 372.285 L1349.09 278.087 L1315.32 197.431 L1281.55 136.026 L1247.78 97.242 L1214.01 81.4048 L1180.24 86.6859 L1146.47 109.217 L1112.7 144.022 L1078.94 185.199 L1045.17 226.928 L1011.4 262.906 L977.629 290.028 L943.86 304.933 L910.091 306.603 L876.323 295.565 L842.554 273.334 L808.785 241.244 L775.016 203.41 L741.247 165.746 L707.478 133.696 L673.709 112.545 L639.941 108.628 L606.172 125.768 L572.403 167.545 L538.634 233.803 L504.865 321.842 L471.096 426.296 L437.327 538.227 L403.558 647.131 L369.79 741.805 L336.021 811.847 L302.252 849.164 L268.483 849.327  Z" fill="#f89c74" fill-rule="evenodd" fill-opacity="0.5"/>
<polyline clip-path="url(#clip503)" style="stroke:#f89c74; stroke-linecap:round; stroke-linejoin:round; stroke-width:12.0022; stroke-opacity:1; fill:none" stroke-dasharray="6, 12" points="268.483,849.327 302.252,849.164 336.021,811.847 369.79,741.805 403.558,647.131 437.327,538.227 471.096,426.296 504.865,321.842 538.634,233.803 572.403,167.545 606.172,125.768 639.941,108.628 673.709,112.545 707.478,133.696 741.247,165.746 775.016,203.41 808.785,241.244 842.554,273.334 876.323,295.565 910.091,306.603 943.86,304.933 977.629,290.028 1011.4,262.906 1045.17,226.928 1078.94,185.199 1112.7,144.022 1146.47,109.217 1180.24,86.6859 1214.01,81.4048 1247.78,97.242 1281.55,136.026 1315.32,197.431 1349.09,278.087 1382.86,372.285 1416.62,471.988 1450.39,568.76 1484.16,654.693 1517.93,722.035 1551.7,769.105 1585.47,793.04 1619.24,794.738 "/>
<path clip-path="url(#clip503)" d="M268.483 849.327 L302.252 849.327 L336.021 812 L369.79 741.945 L403.558 647.325 L437.327 538.561 L471.096 426.69 L504.865 322.178 L538.634 233.578 L572.403 166.809 L606.172 124.781 L639.941 107.564 L673.709 112.831 L707.478 136.41 L741.247 172.864 L775.016 216.111 L808.785 259.899 L842.554 298.354 L876.323 326.543 L910.091 341.153 L943.86 339.699 L977.629 321.623 L1011.4 288.58 L1045.17 244.254 L1078.94 194.043 L1112.7 144.603 L1146.47 103.154 L1180.24 76.6087 L1214.01 70.6142 L1247.78 88.6717 L1281.55 131.497 L1315.32 196.784 L1349.09 279.458 L1382.86 372.39 L1416.62 467.455 L1450.39 556.719 L1484.16 633.527 L1517.93 693.278 L1551.7 733.76 L1585.47 755.022 L1619.24 758.872 L1619.24 758.872 L1585.47 755.022 L1551.7 733.76 L1517.93 693.278 L1484.16 633.527 L1450.39 556.719 L1416.62 467.455 L1382.86 372.39 L1349.09 279.458 L1315.32 196.784 L1281.55 131.497 L1247.78 88.6717 L1214.01 70.6142 L1180.24 76.6087 L1146.47 103.154 L1112.7 144.603 L1078.94 194.043 L1045.17 244.254 L1011.4 288.58 L977.629 321.623 L943.86 339.699 L910.091 341.153 L876.323 326.543 L842.554 298.354 L808.785 259.899 L775.016 216.111 L741.247 172.864 L707.478 136.41 L673.709 112.831 L639.941 107.564 L606.172 124.781 L572.403 166.809 L538.634 233.578 L504.865 322.178 L471.096 426.69 L437.327 538.561 L403.558 647.325 L369.79 741.945 L336.021 812 L302.252 849.327 L268.483 849.327  Z" fill="#f6cf71" fill-rule="evenodd" fill-opacity="0.5"/>
<polyline clip-path="url(#clip503)" style="stroke:#f6cf71; stroke-linecap:round; stroke-linejoin:round; stroke-width:12.0022; stroke-opacity:1; fill:none" stroke-dasharray="48, 30" points="268.483,849.327 302.252,849.327 336.021,812 369.79,741.945 403.558,647.325 437.327,538.561 471.096,426.69 504.865,322.178 538.634,233.578 572.403,166.809 606.172,124.781 639.941,107.564 673.709,112.831 707.478,136.41 741.247,172.864 775.016,216.111 808.785,259.899 842.554,298.354 876.323,326.543 910.091,341.153 943.86,339.699 977.629,321.623 1011.4,288.58 1045.17,244.254 1078.94,194.043 1112.7,144.603 1146.47,103.154 1180.24,76.6087 1214.01,70.6142 1247.78,88.6717 1281.55,131.497 1315.32,196.784 1349.09,279.458 1382.86,372.39 1416.62,467.455 1450.39,556.719 1484.16,633.527 1517.93,693.278 1551.7,733.76 1585.47,755.022 1619.24,758.872 "/>
<path clip-path="url(#clip503)" d="M268.483 849.327 L302.252 849.327 L336.021 816.06 L369.79 753.123 L403.558 666.928 L437.327 565.907 L471.096 459.489 L504.865 356.998 L538.634 266.745 L572.403 195.067 L606.172 146.045 L639.941 121.137 L673.709 119.431 L707.478 137.692 L741.247 171.325 L775.016 214.535 L808.785 261.305 L842.554 305.709 L876.323 342.471 L910.091 367.486 L943.86 377.96 L977.629 372.651 L1011.4 351.889 L1045.17 317.71 L1078.94 273.764 L1112.7 225.038 L1146.47 177.394 L1180.24 137.025 L1214.01 109.798 L1247.78 100.579 L1281.55 112.604 L1315.32 147.022 L1349.09 202.667 L1382.86 276.129 L1416.62 362.113 L1450.39 454.066 L1484.16 544.964 L1517.93 628.157 L1551.7 698.137 L1585.47 751.121 L1619.24 785.364 L1619.24 785.364 L1585.47 751.121 L1551.7 698.137 L1517.93 628.157 L1484.16 544.964 L1450.39 454.066 L1416.62 362.113 L1382.86 276.129 L1349.09 202.667 L1315.32 147.022 L1281.55 112.604 L1247.78 100.579 L1214.01 109.798 L1180.24 137.025 L1146.47 177.394 L1112.7 225.038 L1078.94 273.764 L1045.17 317.71 L1011.4 351.889 L977.629 372.651 L943.86 377.96 L910.091 367.486 L876.323 342.471 L842.554 305.709 L808.785 261.305 L775.016 214.535 L741.247 171.325 L707.478 137.692 L673.709 119.431 L639.941 121.137 L606.172 146.045 L572.403 195.067 L538.634 266.745 L504.865 356.998 L471.096 459.489 L437.327 565.907 L403.558 666.928 L369.79 753.123 L336.021 816.06 L302.252 849.327 L268.483 849.327  Z" fill="#66c5cc" fill-rule="evenodd" fill-opacity="0.5"/>
<polyline clip-path="url(#clip503)" style="stroke:#66c5cc; stroke-linecap:round; stroke-linejoin:round; stroke-width:12.0022; stroke-opacity:1; fill:none" points="268.483,849.327 302.252,849.327 336.021,816.06 369.79,753.123 403.558,666.928 437.327,565.907 471.096,459.489 504.865,356.998 538.634,266.745 572.403,195.067 606.172,146.045 639.941,121.137 673.709,119.431 707.478,137.692 741.247,171.325 775.016,214.535 808.785,261.305 842.554,305.709 876.323,342.471 910.091,367.486 943.86,377.96 977.629,372.651 1011.4,351.889 1045.17,317.71 1078.94,273.764 1112.7,225.038 1146.47,177.394 1180.24,137.025 1214.01,109.798 1247.78,100.579 1281.55,112.604 1315.32,147.022 1349.09,202.667 1382.86,276.129 1416.62,362.113 1450.39,454.066 1484.16,544.964 1517.93,628.157 1551.7,698.137 1585.47,751.121 1619.24,785.364 "/>
</svg>
