<?xml version="1.0" encoding="utf-8"?>
<svg xmlns="http://www.w3.org/2000/svg" xmlns:xlink="http://www.w3.org/1999/xlink" width="200" height="100" viewBox="0 0 800 400">
<defs>
  <clipPath id="clip220">
    <rect x="0" y="0" width="800" height="400"/>
  </clipPath>
</defs>
<path clip-path="url(#clip220)" d="M0 400 L800 400 L800 0 L0 0  Z" fill="#ffffff" fill-rule="evenodd" fill-opacity="1"/>
<defs>
  <clipPath id="clip221">
    <rect x="160" y="0" width="561" height="400"/>
  </clipPath>
</defs>
<path clip-path="url(#clip220)" d="M278.37 242.74 L752.756 242.74 L752.756 47.2441 L278.37 47.2441  Z" fill="#ffffff" fill-rule="evenodd" fill-opacity="1"/>
<defs>
  <clipPath id="clip222">
    <rect x="278" y="47" width="475" height="196"/>
  </clipPath>
</defs>
<polyline clip-path="url(#clip222)" style="stroke:#000000; stroke-linecap:round; stroke-linejoin:round; stroke-width:2; stroke-opacity:0.1; fill:none" points="278.37,242.74 278.37,47.2441 "/>
<polyline clip-path="url(#clip222)" style="stroke:#000000; stroke-linecap:round; stroke-linejoin:round; stroke-width:2; stroke-opacity:0.1; fill:none" points="515.563,242.74 515.563,47.2441 "/>
<polyline clip-path="url(#clip222)" style="stroke:#000000; stroke-linecap:round; stroke-linejoin:round; stroke-width:2; stroke-opacity:0.1; fill:none" points="752.756,242.74 752.756,47.2441 "/>
<polyline clip-path="url(#clip220)" style="stroke:#000000; stroke-linecap:round; stroke-linejoin:round; stroke-width:4; stroke-opacity:1; fill:none" points="278.37,242.74 752.756,242.74 "/>
<polyline clip-path="url(#clip220)" style="stroke:#000000; stroke-linecap:round; stroke-linejoin:round; stroke-width:4; stroke-opacity:1; fill:none" points="278.37,47.2441 752.756,47.2441 "/>
<polyline clip-path="url(#clip220)" style="stroke:#000000; stroke-linecap:round; stroke-linejoin:round; stroke-width:4; stroke-opacity:1; fill:none" points="278.37,242.74 278.37,223.842 "/>
<polyline clip-path="url(#clip220)" style="stroke:#000000; stroke-linecap:round; stroke-linejoin:round; stroke-width:4; stroke-opacity:1; fill:none" points="515.563,242.74 515.563,223.842 "/>
<polyline clip-path="url(#clip220)" style="stroke:#000000; stroke-linecap:round; stroke-linejoin:round; stroke-width:4; stroke-opacity:1; fill:none" points="752.756,242.74 752.756,223.842 "/>
<path clip-path="url(#clip220)" d="M238.408 268.832 L238.408 266.658 Q246.764 266.658 251.078 262.209 Q252.267 262.209 252.47 262.48 Q252.674 262.752 252.674 264.009 L252.674 303.037 Q252.674 305.109 253.693 305.755 Q254.712 306.4 259.162 306.4 L261.37 306.4 L261.37 308.54 Q258.924 308.336 250.093 308.336 Q241.261 308.336 238.85 308.54 L238.85 306.4 L241.057 306.4 Q245.439 306.4 246.492 305.789 Q247.545 305.143 247.545 303.037 L247.545 266.998 Q243.911 268.832 238.408 268.832 Z" fill="#000000" fill-rule="evenodd" fill-opacity="1" /><path clip-path="url(#clip220)" d="M273.972 307.419 Q272.919 306.298 272.919 304.837 Q272.919 303.377 273.972 302.324 Q275.025 301.237 276.621 301.237 Q278.15 301.237 279.169 302.256 Q280.222 303.241 280.222 304.871 Q280.222 306.468 279.101 307.521 Q278.014 308.54 276.621 308.54 Q275.025 308.54 273.972 307.419 Z" fill="#000000" fill-rule="evenodd" fill-opacity="1" /><path clip-path="url(#clip220)" d="M289.053 286.291 Q289.053 276.067 291.634 270.497 Q295.235 262.209 303.727 262.209 Q305.527 262.209 307.395 262.718 Q309.297 263.194 311.675 265.062 Q314.087 266.93 315.547 269.987 Q318.333 275.897 318.333 286.291 Q318.333 296.448 315.751 301.984 Q311.981 310.068 303.659 310.068 Q300.534 310.068 297.341 308.472 Q294.182 306.875 292.178 303.037 Q289.053 297.297 289.053 286.291 M294.827 285.442 Q294.827 295.938 295.575 300.116 Q296.424 304.634 298.734 306.604 Q301.077 308.54 303.659 308.54 Q306.444 308.54 308.754 306.468 Q311.098 304.362 311.811 299.844 Q312.592 295.395 312.558 285.442 Q312.558 275.762 311.879 271.889 Q310.962 267.372 308.516 265.571 Q306.104 263.737 303.659 263.737 Q302.742 263.737 301.757 264.009 Q300.806 264.281 299.413 265.062 Q298.02 265.843 296.933 267.779 Q295.88 269.715 295.371 272.637 Q294.827 276.407 294.827 285.442 Z" fill="#000000" fill-rule="evenodd" fill-opacity="1" /><path clip-path="url(#clip220)" d="M475.974 268.832 L475.974 266.658 Q484.33 266.658 488.644 262.209 Q489.833 262.209 490.037 262.48 Q490.241 262.752 490.241 264.009 L490.241 303.037 Q490.241 305.109 491.26 305.755 Q492.279 306.4 496.728 306.4 L498.936 306.4 L498.936 308.54 Q496.491 308.336 487.659 308.336 Q478.828 308.336 476.416 308.54 L476.416 306.4 L478.624 306.4 Q483.006 306.4 484.059 305.789 Q485.112 305.143 485.112 303.037 L485.112 266.998 Q481.477 268.832 475.974 268.832 Z" fill="#000000" fill-rule="evenodd" fill-opacity="1" /><path clip-path="url(#clip220)" d="M511.538 307.419 Q510.485 306.298 510.485 304.837 Q510.485 303.377 511.538 302.324 Q512.591 301.237 514.187 301.237 Q515.716 301.237 516.735 302.256 Q517.788 303.241 517.788 304.871 Q517.788 306.468 516.667 307.521 Q515.58 308.54 514.187 308.54 Q512.591 308.54 511.538 307.419 Z" fill="#000000" fill-rule="evenodd" fill-opacity="1" /><path clip-path="url(#clip220)" d="M527.367 297.331 Q527.367 295.259 528.488 294.477 Q529.609 293.662 530.797 293.662 Q532.394 293.662 533.311 294.681 Q534.262 295.666 534.262 297.059 Q534.262 298.452 533.311 299.471 Q532.394 300.456 530.797 300.456 Q530.016 300.456 529.609 300.32 Q530.526 303.513 533.311 305.822 Q536.13 308.132 539.833 308.132 Q544.486 308.132 547.271 303.615 Q548.936 300.693 548.936 294.07 Q548.936 288.228 547.679 285.306 Q545.743 280.857 541.769 280.857 Q536.13 280.857 532.801 285.714 Q532.394 286.325 531.918 286.359 Q531.239 286.359 531.069 285.986 Q530.933 285.578 530.933 284.525 L530.933 263.941 Q530.933 262.277 531.613 262.277 Q531.884 262.277 532.462 262.48 Q536.843 264.417 541.701 264.451 Q546.694 264.451 551.178 262.412 Q551.517 262.209 551.721 262.209 Q552.4 262.209 552.434 262.99 Q552.434 263.262 551.857 264.077 Q551.313 264.858 550.125 265.911 Q548.936 266.93 547.407 267.915 Q545.879 268.9 543.637 269.58 Q541.429 270.225 538.983 270.225 Q536.062 270.225 533.073 269.308 L533.073 282.861 Q536.674 279.328 541.905 279.328 Q547.475 279.328 551.313 283.812 Q555.152 288.295 555.152 294.545 Q555.152 301.101 550.6 305.585 Q546.083 310.068 539.968 310.068 Q534.398 310.068 530.865 306.094 Q527.367 302.12 527.367 297.331 Z" fill="#000000" fill-rule="evenodd" fill-opacity="1" /><path clip-path="url(#clip220)" d="M711.435 308.54 Q711.435 307.283 711.537 306.909 Q711.673 306.536 712.216 305.958 L725.565 291.081 Q732.868 282.861 732.868 275.694 Q732.868 271.04 730.423 267.711 Q728.011 264.383 723.561 264.383 Q720.504 264.383 717.923 266.251 Q715.341 268.119 714.152 271.448 Q714.356 271.38 715.069 271.38 Q716.802 271.38 717.753 272.467 Q718.738 273.554 718.738 275.014 Q718.738 276.882 717.515 277.8 Q716.326 278.683 715.137 278.683 Q714.662 278.683 714.016 278.581 Q713.405 278.479 712.42 277.528 Q711.435 276.543 711.435 274.81 Q711.435 269.953 715.103 266.081 Q718.806 262.209 724.444 262.209 Q730.83 262.209 735.008 266.013 Q739.22 269.783 739.22 275.694 Q739.22 277.766 738.575 279.668 Q737.963 281.536 737.114 282.997 Q736.299 284.457 734.057 286.801 Q731.815 289.145 730.015 290.809 Q728.215 292.473 724.173 296.006 L716.802 303.173 L729.336 303.173 Q735.45 303.173 735.925 302.63 Q736.605 301.645 737.454 296.448 L739.22 296.448 L737.25 308.54 L711.435 308.54 Z" fill="#000000" fill-rule="evenodd" fill-opacity="1" /><path clip-path="url(#clip220)" d="M749.716 307.419 Q748.663 306.298 748.663 304.837 Q748.663 303.377 749.716 302.324 Q750.769 301.237 752.365 301.237 Q753.894 301.237 754.913 302.256 Q755.966 303.241 755.966 304.871 Q755.966 306.468 754.845 307.521 Q753.758 308.54 752.365 308.54 Q750.769 308.54 749.716 307.419 Z" fill="#000000" fill-rule="evenodd" fill-opacity="1" /><path clip-path="url(#clip220)" d="M764.797 286.291 Q764.797 276.067 767.379 270.497 Q770.979 262.209 779.471 262.209 Q781.271 262.209 783.139 262.718 Q785.042 263.194 787.419 265.062 Q789.831 266.93 791.292 269.987 Q794.077 275.897 794.077 286.291 Q794.077 296.448 791.495 301.984 Q787.725 310.068 779.403 310.068 Q776.278 310.068 773.085 308.472 Q769.926 306.875 767.922 303.037 Q764.797 297.297 764.797 286.291 M770.572 285.442 Q770.572 295.938 771.319 300.116 Q772.168 304.634 774.478 306.604 Q776.822 308.54 779.403 308.54 Q782.188 308.54 784.498 306.468 Q786.842 304.362 787.555 299.844 Q788.336 295.395 788.302 285.442 Q788.302 275.762 787.623 271.889 Q786.706 267.372 784.26 265.571 Q781.849 263.737 779.403 263.737 Q778.486 263.737 777.501 264.009 Q776.55 264.281 775.157 265.062 Q773.765 265.843 772.678 267.779 Q771.625 269.715 771.115 272.637 Q770.572 276.407 770.572 285.442 Z" fill="#000000" fill-rule="evenodd" fill-opacity="1" /><path clip-path="url(#clip220)" d="M431.708 353.915 L433.153 336.87 L479.509 336.87 L480.954 353.915 L479.064 353.915 Q478.767 350.506 478.471 348.542 Q478.212 346.578 477.545 344.725 Q476.915 342.835 476.099 341.946 Q475.321 341.02 473.802 340.316 Q472.283 339.575 470.319 339.389 Q468.355 339.204 465.391 339.204 Q461.907 339.204 461.055 339.352 Q460.129 339.575 459.906 340.242 Q459.684 340.872 459.684 342.243 L459.684 382.225 Q459.684 383.744 459.981 384.374 Q460.314 384.967 462.056 385.449 Q463.797 385.893 467.651 385.893 L470.689 385.893 L470.689 388.228 Q467.577 388.006 456.275 388.006 Q445.047 388.006 441.935 388.228 L441.935 385.893 L444.973 385.893 Q448.827 385.893 450.569 385.449 Q452.347 384.967 452.644 384.374 Q452.94 383.744 452.94 382.225 L452.94 342.243 Q452.94 341.168 452.866 340.723 Q452.792 340.279 452.458 339.908 Q452.125 339.5 451.347 339.352 Q450.606 339.204 447.271 339.204 Q444.306 339.204 442.305 339.389 Q440.341 339.575 438.822 340.316 Q437.303 341.02 436.488 341.946 Q435.709 342.835 435.042 344.725 Q434.413 346.578 434.153 348.542 Q433.894 350.506 433.597 353.915 L431.708 353.915 Z" fill="#000000" fill-rule="evenodd" fill-opacity="1" /><path clip-path="url(#clip220)" d="M486.253 388.228 L486.253 385.893 Q490.292 385.893 491.218 385.412 Q492.144 384.893 492.144 382.447 L492.144 362.03 Q492.144 359.214 491.181 358.547 Q490.255 357.88 486.549 357.88 L486.549 355.508 L497.147 354.693 L497.147 382.521 Q497.147 384.782 497.962 385.338 Q498.777 385.893 502.483 385.893 L502.483 388.228 Q494.738 388.006 494.59 388.006 Q493.552 388.006 486.253 388.228 M489.439 341.464 Q489.439 339.945 490.588 338.722 Q491.774 337.462 493.441 337.462 Q495.109 337.462 496.294 338.611 Q497.48 339.723 497.48 341.501 Q497.48 343.243 496.294 344.392 Q495.109 345.503 493.441 345.503 Q491.7 345.503 490.551 344.281 Q489.439 343.058 489.439 341.464 Z" fill="#000000" fill-rule="evenodd" fill-opacity="1" /><path clip-path="url(#clip220)" d="M507.189 388.228 L507.189 385.893 Q511.228 385.893 512.154 385.412 Q513.08 384.893 513.08 382.447 L513.08 362.104 Q513.08 359.288 512.08 358.584 Q511.116 357.88 507.189 357.88 L507.189 355.508 L517.861 354.693 L517.861 362.66 Q521.418 354.693 529.088 354.693 Q537.981 354.693 539.204 362.104 Q540.501 359.214 543.206 356.953 Q545.948 354.693 550.21 354.693 Q555.916 354.693 558.176 357.509 Q559.844 359.399 560.177 361.511 Q560.511 363.623 560.511 369.107 L560.511 383.596 Q560.585 385.189 561.808 385.56 Q563.031 385.893 566.44 385.893 L566.44 388.228 Q558.695 388.006 557.954 388.006 Q557.361 388.006 549.357 388.228 L549.357 385.893 Q553.396 385.893 554.323 385.412 Q555.286 384.893 555.286 382.447 L555.286 364.772 Q555.286 360.918 554.1 358.658 Q552.915 356.361 549.654 356.361 Q545.726 356.361 542.576 359.658 Q539.427 362.956 539.427 368.515 L539.427 382.447 Q539.427 384.893 540.353 385.412 Q541.316 385.893 545.355 385.893 L545.355 388.228 Q537.611 388.006 536.833 388.006 Q536.24 388.006 528.273 388.228 L528.273 385.893 Q532.312 385.893 533.238 385.412 Q534.202 384.893 534.202 382.447 L534.202 364.772 Q534.202 360.918 533.016 358.658 Q531.83 356.361 528.569 356.361 Q524.642 356.361 521.492 359.658 Q518.342 362.956 518.342 368.515 L518.342 382.447 Q518.342 384.893 519.269 385.412 Q520.232 385.893 524.234 385.893 L524.234 388.228 Q516.489 388.006 515.748 388.006 Q515.155 388.006 507.189 388.228 Z" fill="#000000" fill-rule="evenodd" fill-opacity="1" /><path clip-path="url(#clip220)" d="M570.034 371.516 Q570.034 364.364 574.629 359.288 Q579.224 354.211 585.819 354.211 Q592.489 354.211 595.935 358.547 Q599.419 362.882 599.419 369.107 Q599.419 370.256 599.122 370.478 Q598.826 370.701 597.529 370.701 L576.333 370.701 Q576.333 378.445 578.631 382.077 Q581.818 387.153 587.19 387.153 Q587.932 387.153 588.821 387.005 Q589.71 386.857 591.526 386.227 Q593.342 385.56 594.935 383.818 Q596.528 382.077 597.455 379.335 Q597.677 378.26 598.418 378.297 Q599.419 378.297 599.419 379.186 Q599.419 379.853 598.678 381.373 Q597.974 382.855 596.602 384.634 Q595.231 386.412 592.563 387.746 Q589.933 389.08 586.746 389.08 Q580.076 389.08 575.036 384.041 Q570.034 378.964 570.034 371.516 M576.407 369.107 L594.416 369.107 Q594.416 367.514 594.12 365.735 Q593.86 363.957 593.045 361.511 Q592.267 359.028 590.414 357.472 Q588.562 355.916 585.819 355.916 Q584.597 355.916 583.263 356.435 Q581.966 356.953 580.372 358.213 Q578.779 359.473 577.667 362.326 Q576.556 365.18 576.407 369.107 Z" fill="#000000" fill-rule="evenodd" fill-opacity="1" /><polyline clip-path="url(#clip222)" style="stroke:#000000; stroke-linecap:round; stroke-linejoin:round; stroke-width:2; stroke-opacity:0.1; fill:none" points="278.37,231.121 752.756,231.121 "/>
<polyline clip-path="url(#clip222)" style="stroke:#000000; stroke-linecap:round; stroke-linejoin:round; stroke-width:2; stroke-opacity:0.1; fill:none" points="278.37,151.857 752.756,151.857 "/>
<polyline clip-path="url(#clip222)" style="stroke:#000000; stroke-linecap:round; stroke-linejoin:round; stroke-width:2; stroke-opacity:0.1; fill:none" points="278.37,151.857 752.756,151.857 "/>
<polyline clip-path="url(#clip222)" style="stroke:#000000; stroke-linecap:round; stroke-linejoin:round; stroke-width:2; stroke-opacity:0.1; fill:none" points="278.37,72.593 752.756,72.593 "/>
<polyline clip-path="url(#clip220)" style="stroke:#000000; stroke-linecap:round; stroke-linejoin:round; stroke-width:4; stroke-opacity:1; fill:none" points="278.37,242.74 278.37,47.2441 "/>
<polyline clip-path="url(#clip220)" style="stroke:#000000; stroke-linecap:round; stroke-linejoin:round; stroke-width:4; stroke-opacity:1; fill:none" points="752.756,242.74 752.756,47.2441 "/>
<polyline clip-path="url(#clip220)" style="stroke:#000000; stroke-linecap:round; stroke-linejoin:round; stroke-width:4; stroke-opacity:1; fill:none" points="278.37,231.121 297.268,231.121 "/>
<polyline clip-path="url(#clip220)" style="stroke:#000000; stroke-linecap:round; stroke-linejoin:round; stroke-width:4; stroke-opacity:1; fill:none" points="278.37,151.857 297.268,151.857 "/>
<polyline clip-path="url(#clip220)" style="stroke:#000000; stroke-linecap:round; stroke-linejoin:round; stroke-width:4; stroke-opacity:1; fill:none" points="278.37,151.857 297.268,151.857 "/>
<polyline clip-path="url(#clip220)" style="stroke:#000000; stroke-linecap:round; stroke-linejoin:round; stroke-width:4; stroke-opacity:1; fill:none" points="278.37,72.593 297.268,72.593 "/>
<path clip-path="url(#clip220)" d="M116.27 232.632 Q116.27 222.408 118.851 216.838 Q122.452 208.55 130.943 208.55 Q132.744 208.55 134.612 209.059 Q136.514 209.535 138.892 211.403 Q141.303 213.271 142.764 216.328 Q145.549 222.239 145.549 232.632 Q145.549 242.789 142.968 248.325 Q139.197 256.409 130.875 256.409 Q127.75 256.409 124.558 254.813 Q121.399 253.217 119.395 249.378 Q116.27 243.638 116.27 232.632 M122.044 231.783 Q122.044 242.279 122.791 246.457 Q123.64 250.975 125.95 252.945 Q128.294 254.881 130.875 254.881 Q133.661 254.881 135.971 252.809 Q138.314 250.703 139.028 246.185 Q139.809 241.736 139.775 231.783 Q139.775 222.103 139.095 218.23 Q138.178 213.713 135.733 211.913 Q133.321 210.078 130.875 210.078 Q129.958 210.078 128.973 210.35 Q128.022 210.622 126.63 211.403 Q125.237 212.184 124.15 214.12 Q123.097 216.057 122.587 218.978 Q122.044 222.748 122.044 231.783 Z" fill="#000000" fill-rule="evenodd" fill-opacity="1" /><path clip-path="url(#clip220)" d="M155.298 253.76 Q154.245 252.639 154.245 251.179 Q154.245 249.718 155.298 248.665 Q156.351 247.578 157.947 247.578 Q159.476 247.578 160.495 248.597 Q161.548 249.582 161.548 251.212 Q161.548 252.809 160.427 253.862 Q159.34 254.881 157.947 254.881 Q156.351 254.881 155.298 253.76 Z" fill="#000000" fill-rule="evenodd" fill-opacity="1" /><path clip-path="url(#clip220)" d="M170.583 224.209 Q170.583 220.506 171.67 217.993 Q172.757 215.445 175.033 212.932 Q179.211 208.55 185.257 208.55 Q187.838 208.55 190.114 209.637 Q192.424 210.724 194.598 213.203 Q196.806 215.649 198.13 220.506 Q199.455 225.33 199.455 231.987 Q199.455 242.755 194.224 249.582 Q189.027 256.409 181.996 256.409 Q177.546 256.409 174.931 254.405 Q172.315 252.367 172.315 248.903 Q172.315 247.102 173.334 246.355 Q174.353 245.574 175.508 245.574 Q176.765 245.574 177.75 246.423 Q178.735 247.238 178.735 248.767 Q178.735 250.024 177.92 251.009 Q177.139 251.96 175.101 251.96 Q177.105 254.473 181.928 254.473 Q183.66 254.473 185.393 253.692 Q187.125 252.877 188.993 250.941 Q190.895 248.971 192.05 244.861 Q193.205 240.751 193.205 234.976 L193.205 232.768 Q190.42 239.732 184.51 239.732 Q178.667 239.732 174.625 235.248 Q170.583 230.764 170.583 224.209 M176.833 224.277 Q176.833 231.172 178.09 233.719 Q180.23 238.101 184.577 238.101 Q188.823 238.101 190.929 234.331 Q193.069 230.527 193.069 225.601 Q193.069 218.774 191.948 215.785 Q189.876 210.282 185.257 210.282 Q180.671 210.282 178.294 214.664 Q176.833 217.245 176.833 224.277 Z" fill="#000000" fill-rule="evenodd" fill-opacity="1" /><path clip-path="url(#clip220)" d="M205.365 224.209 Q205.365 220.506 206.452 217.993 Q207.539 215.445 209.815 212.932 Q213.993 208.55 220.039 208.55 Q222.621 208.55 224.896 209.637 Q227.206 210.724 229.38 213.203 Q231.588 215.649 232.913 220.506 Q234.237 225.33 234.237 231.987 Q234.237 242.755 229.006 249.582 Q223.809 256.409 216.778 256.409 Q212.329 256.409 209.713 254.405 Q207.098 252.367 207.098 248.903 Q207.098 247.102 208.117 246.355 Q209.136 245.574 210.291 245.574 Q211.547 245.574 212.532 246.423 Q213.517 247.238 213.517 248.767 Q213.517 250.024 212.702 251.009 Q211.921 251.96 209.883 251.96 Q211.887 254.473 216.71 254.473 Q218.443 254.473 220.175 253.692 Q221.907 252.877 223.776 250.941 Q225.678 248.971 226.833 244.861 Q227.987 240.751 227.987 234.976 L227.987 232.768 Q225.202 239.732 219.292 239.732 Q213.45 239.732 209.407 235.248 Q205.365 230.764 205.365 224.209 M211.615 224.277 Q211.615 231.172 212.872 233.719 Q215.012 238.101 219.36 238.101 Q223.606 238.101 225.712 234.331 Q227.852 230.527 227.852 225.601 Q227.852 218.774 226.731 215.785 Q224.659 210.282 220.039 210.282 Q215.454 210.282 213.076 214.664 Q211.615 217.245 211.615 224.277 Z" fill="#000000" fill-rule="evenodd" fill-opacity="1" /><path clip-path="url(#clip220)" d="M243.409 215.173 L243.409 212.999 Q251.764 212.999 256.078 208.55 Q257.267 208.55 257.471 208.822 Q257.675 209.093 257.675 210.35 L257.675 249.378 Q257.675 251.45 258.694 252.096 Q259.713 252.741 264.162 252.741 L266.37 252.741 L266.37 254.881 Q263.925 254.677 255.093 254.677 Q246.262 254.677 243.85 254.881 L243.85 252.741 L246.058 252.741 Q250.44 252.741 251.493 252.13 Q252.546 251.484 252.546 249.378 L252.546 213.339 Q248.911 215.173 243.409 215.173 Z" fill="#000000" fill-rule="evenodd" fill-opacity="1" /><path clip-path="url(#clip220)" d="M114.164 153.369 Q114.164 143.144 116.745 137.574 Q120.346 129.286 128.837 129.286 Q130.638 129.286 132.506 129.795 Q134.408 130.271 136.786 132.139 Q139.197 134.007 140.658 137.064 Q143.443 142.975 143.443 153.369 Q143.443 163.525 140.862 169.061 Q137.091 177.145 128.769 177.145 Q125.645 177.145 122.452 175.549 Q119.293 173.953 117.289 170.114 Q114.164 164.374 114.164 153.369 M119.938 152.519 Q119.938 163.015 120.685 167.193 Q121.534 171.711 123.844 173.681 Q126.188 175.617 128.769 175.617 Q131.555 175.617 133.865 173.545 Q136.208 171.439 136.922 166.921 Q137.703 162.472 137.669 152.519 Q137.669 142.839 136.99 138.966 Q136.072 134.449 133.627 132.649 Q131.215 130.814 128.769 130.814 Q127.852 130.814 126.867 131.086 Q125.916 131.358 124.524 132.139 Q123.131 132.92 122.044 134.856 Q120.991 136.793 120.482 139.714 Q119.938 143.484 119.938 152.519 Z" fill="#000000" fill-rule="evenodd" fill-opacity="1" /><path clip-path="url(#clip220)" d="M153.192 174.496 Q152.139 173.375 152.139 171.915 Q152.139 170.454 153.192 169.401 Q154.245 168.314 155.841 168.314 Q157.37 168.314 158.389 169.333 Q159.442 170.318 159.442 171.949 Q159.442 173.545 158.321 174.598 Q157.234 175.617 155.841 175.617 Q154.245 175.617 153.192 174.496 Z" fill="#000000" fill-rule="evenodd" fill-opacity="1" /><path clip-path="url(#clip220)" d="M168.477 144.945 Q168.477 141.242 169.564 138.729 Q170.651 136.181 172.927 133.668 Q177.105 129.286 183.151 129.286 Q185.732 129.286 188.008 130.373 Q190.318 131.46 192.492 133.939 Q194.7 136.385 196.024 141.242 Q197.349 146.066 197.349 152.723 Q197.349 163.491 192.118 170.318 Q186.921 177.145 179.89 177.145 Q175.44 177.145 172.825 175.141 Q170.209 173.103 170.209 169.639 Q170.209 167.838 171.228 167.091 Q172.247 166.31 173.402 166.31 Q174.659 166.31 175.644 167.159 Q176.629 167.974 176.629 169.503 Q176.629 170.76 175.814 171.745 Q175.033 172.696 172.995 172.696 Q174.999 175.209 179.822 175.209 Q181.554 175.209 183.287 174.428 Q185.019 173.613 186.887 171.677 Q188.789 169.707 189.944 165.597 Q191.099 161.487 191.099 155.712 L191.099 153.504 Q188.314 160.468 182.404 160.468 Q176.561 160.468 172.519 155.984 Q168.477 151.5 168.477 144.945 M174.727 145.013 Q174.727 151.908 175.984 154.455 Q178.124 158.837 182.472 158.837 Q186.717 158.837 188.823 155.067 Q190.963 151.263 190.963 146.337 Q190.963 139.51 189.842 136.521 Q187.77 131.018 183.151 131.018 Q178.565 131.018 176.188 135.4 Q174.727 137.981 174.727 145.013 Z" fill="#000000" fill-rule="evenodd" fill-opacity="1" /><path clip-path="url(#clip220)" d="M203.259 144.945 Q203.259 141.242 204.346 138.729 Q205.433 136.181 207.709 133.668 Q211.887 129.286 217.933 129.286 Q220.515 129.286 222.79 130.373 Q225.1 131.46 227.274 133.939 Q229.482 136.385 230.807 141.242 Q232.131 146.066 232.131 152.723 Q232.131 163.491 226.901 170.318 Q221.704 177.145 214.672 177.145 Q210.223 177.145 207.607 175.141 Q204.992 173.103 204.992 169.639 Q204.992 167.838 206.011 167.091 Q207.03 166.31 208.185 166.31 Q209.441 166.31 210.426 167.159 Q211.411 167.974 211.411 169.503 Q211.411 170.76 210.596 171.745 Q209.815 172.696 207.777 172.696 Q209.781 175.209 214.604 175.209 Q216.337 175.209 218.069 174.428 Q219.801 173.613 221.67 171.677 Q223.572 169.707 224.727 165.597 Q225.881 161.487 225.881 155.712 L225.881 153.504 Q223.096 160.468 217.186 160.468 Q211.344 160.468 207.301 155.984 Q203.259 151.5 203.259 144.945 M209.509 145.013 Q209.509 151.908 210.766 154.455 Q212.906 158.837 217.254 158.837 Q221.5 158.837 223.606 155.067 Q225.746 151.263 225.746 146.337 Q225.746 139.51 224.625 136.521 Q222.553 131.018 217.933 131.018 Q213.348 131.018 210.97 135.4 Q209.509 137.981 209.509 145.013 Z" fill="#000000" fill-rule="evenodd" fill-opacity="1" /><path clip-path="url(#clip220)" d="M238.585 164.408 Q238.585 162.336 239.706 161.555 Q240.827 160.739 242.016 160.739 Q243.612 160.739 244.529 161.758 Q245.481 162.743 245.481 164.136 Q245.481 165.529 244.529 166.548 Q243.612 167.533 242.016 167.533 Q241.235 167.533 240.827 167.397 Q241.744 170.59 244.529 172.9 Q247.349 175.209 251.051 175.209 Q255.705 175.209 258.49 170.692 Q260.154 167.771 260.154 161.147 Q260.154 155.305 258.898 152.383 Q256.961 147.934 252.987 147.934 Q247.349 147.934 244.02 152.791 Q243.612 153.402 243.137 153.436 Q242.457 153.436 242.288 153.063 Q242.152 152.655 242.152 151.602 L242.152 131.018 Q242.152 129.354 242.831 129.354 Q243.103 129.354 243.68 129.558 Q248.062 131.494 252.919 131.528 Q257.912 131.528 262.396 129.49 Q262.736 129.286 262.94 129.286 Q263.619 129.286 263.653 130.067 Q263.653 130.339 263.075 131.154 Q262.532 131.935 261.343 132.988 Q260.154 134.007 258.626 134.992 Q257.097 135.977 254.855 136.657 Q252.648 137.302 250.202 137.302 Q247.281 137.302 244.292 136.385 L244.292 149.938 Q247.892 146.405 253.123 146.405 Q258.694 146.405 262.532 150.889 Q266.37 155.373 266.37 161.623 Q266.37 168.178 261.819 172.662 Q257.301 177.145 251.187 177.145 Q245.616 177.145 242.084 173.171 Q238.585 169.197 238.585 164.408 Z" fill="#000000" fill-rule="evenodd" fill-opacity="1" /><path clip-path="url(#clip220)" d="M114.164 153.369 Q114.164 143.144 116.745 137.574 Q120.346 129.286 128.837 129.286 Q130.638 129.286 132.506 129.795 Q134.408 130.271 136.786 132.139 Q139.197 134.007 140.658 137.064 Q143.443 142.975 143.443 153.369 Q143.443 163.525 140.862 169.061 Q137.091 177.145 128.769 177.145 Q125.645 177.145 122.452 175.549 Q119.293 173.953 117.289 170.114 Q114.164 164.374 114.164 153.369 M119.938 152.519 Q119.938 163.015 120.685 167.193 Q121.534 171.711 123.844 173.681 Q126.188 175.617 128.769 175.617 Q131.555 175.617 133.865 173.545 Q136.208 171.439 136.922 166.921 Q137.703 162.472 137.669 152.519 Q137.669 142.839 136.99 138.966 Q136.072 134.449 133.627 132.649 Q131.215 130.814 128.769 130.814 Q127.852 130.814 126.867 131.086 Q125.916 131.358 124.524 132.139 Q123.131 132.92 122.044 134.856 Q120.991 136.793 120.482 139.714 Q119.938 143.484 119.938 152.519 Z" fill="#000000" fill-rule="evenodd" fill-opacity="1" /><path clip-path="url(#clip220)" d="M153.192 174.496 Q152.139 173.375 152.139 171.915 Q152.139 170.454 153.192 169.401 Q154.245 168.314 155.841 168.314 Q157.37 168.314 158.389 169.333 Q159.442 170.318 159.442 171.949 Q159.442 173.545 158.321 174.598 Q157.234 175.617 155.841 175.617 Q154.245 175.617 153.192 174.496 Z" fill="#000000" fill-rule="evenodd" fill-opacity="1" /><path clip-path="url(#clip220)" d="M168.477 144.945 Q168.477 141.242 169.564 138.729 Q170.651 136.181 172.927 133.668 Q177.105 129.286 183.151 129.286 Q185.732 129.286 188.008 130.373 Q190.318 131.46 192.492 133.939 Q194.7 136.385 196.024 141.242 Q197.349 146.066 197.349 152.723 Q197.349 163.491 192.118 170.318 Q186.921 177.145 179.89 177.145 Q175.44 177.145 172.825 175.141 Q170.209 173.103 170.209 169.639 Q170.209 167.838 171.228 167.091 Q172.247 166.31 173.402 166.31 Q174.659 166.31 175.644 167.159 Q176.629 167.974 176.629 169.503 Q176.629 170.76 175.814 171.745 Q175.033 172.696 172.995 172.696 Q174.999 175.209 179.822 175.209 Q181.554 175.209 183.287 174.428 Q185.019 173.613 186.887 171.677 Q188.789 169.707 189.944 165.597 Q191.099 161.487 191.099 155.712 L191.099 153.504 Q188.314 160.468 182.404 160.468 Q176.561 160.468 172.519 155.984 Q168.477 151.5 168.477 144.945 M174.727 145.013 Q174.727 151.908 175.984 154.455 Q178.124 158.837 182.472 158.837 Q186.717 158.837 188.823 155.067 Q190.963 151.263 190.963 146.337 Q190.963 139.51 189.842 136.521 Q187.77 131.018 183.151 131.018 Q178.565 131.018 176.188 135.4 Q174.727 137.981 174.727 145.013 Z" fill="#000000" fill-rule="evenodd" fill-opacity="1" /><path clip-path="url(#clip220)" d="M203.259 144.945 Q203.259 141.242 204.346 138.729 Q205.433 136.181 207.709 133.668 Q211.887 129.286 217.933 129.286 Q220.515 129.286 222.79 130.373 Q225.1 131.46 227.274 133.939 Q229.482 136.385 230.807 141.242 Q232.131 146.066 232.131 152.723 Q232.131 163.491 226.901 170.318 Q221.704 177.145 214.672 177.145 Q210.223 177.145 207.607 175.141 Q204.992 173.103 204.992 169.639 Q204.992 167.838 206.011 167.091 Q207.03 166.31 208.185 166.31 Q209.441 166.31 210.426 167.159 Q211.411 167.974 211.411 169.503 Q211.411 170.76 210.596 171.745 Q209.815 172.696 207.777 172.696 Q209.781 175.209 214.604 175.209 Q216.337 175.209 218.069 174.428 Q219.801 173.613 221.67 171.677 Q223.572 169.707 224.727 165.597 Q225.881 161.487 225.881 155.712 L225.881 153.504 Q223.096 160.468 217.186 160.468 Q211.344 160.468 207.301 155.984 Q203.259 151.5 203.259 144.945 M209.509 145.013 Q209.509 151.908 210.766 154.455 Q212.906 158.837 217.254 158.837 Q221.5 158.837 223.606 155.067 Q225.746 151.263 225.746 146.337 Q225.746 139.51 224.625 136.521 Q222.553 131.018 217.933 131.018 Q213.348 131.018 210.97 135.4 Q209.509 137.981 209.509 145.013 Z" fill="#000000" fill-rule="evenodd" fill-opacity="1" /><path clip-path="url(#clip220)" d="M238.585 164.408 Q238.585 162.336 239.706 161.555 Q240.827 160.739 242.016 160.739 Q243.612 160.739 244.529 161.758 Q245.481 162.743 245.481 164.136 Q245.481 165.529 244.529 166.548 Q243.612 167.533 242.016 167.533 Q241.235 167.533 240.827 167.397 Q241.744 170.59 244.529 172.9 Q247.349 175.209 251.051 175.209 Q255.705 175.209 258.49 170.692 Q260.154 167.771 260.154 161.147 Q260.154 155.305 258.898 152.383 Q256.961 147.934 252.987 147.934 Q247.349 147.934 244.02 152.791 Q243.612 153.402 243.137 153.436 Q242.457 153.436 242.288 153.063 Q242.152 152.655 242.152 151.602 L242.152 131.018 Q242.152 129.354 242.831 129.354 Q243.103 129.354 243.68 129.558 Q248.062 131.494 252.919 131.528 Q257.912 131.528 262.396 129.49 Q262.736 129.286 262.94 129.286 Q263.619 129.286 263.653 130.067 Q263.653 130.339 263.075 131.154 Q262.532 131.935 261.343 132.988 Q260.154 134.007 258.626 134.992 Q257.097 135.977 254.855 136.657 Q252.648 137.302 250.202 137.302 Q247.281 137.302 244.292 136.385 L244.292 149.938 Q247.892 146.405 253.123 146.405 Q258.694 146.405 262.532 150.889 Q266.37 155.373 266.37 161.623 Q266.37 168.178 261.819 172.662 Q257.301 177.145 251.187 177.145 Q245.616 177.145 242.084 173.171 Q238.585 169.197 238.585 164.408 Z" fill="#000000" fill-rule="evenodd" fill-opacity="1" /><path clip-path="url(#clip220)" d="M113.62 74.1045 Q113.62 63.8804 116.202 58.3098 Q119.802 50.0218 128.294 50.0218 Q130.094 50.0218 131.962 50.5313 Q133.865 51.0069 136.242 52.8751 Q138.654 54.7433 140.115 57.8003 Q142.9 63.7106 142.9 74.1045 Q142.9 84.2607 140.318 89.7973 Q136.548 97.8815 128.226 97.8815 Q125.101 97.8815 121.908 96.2851 Q118.749 94.6886 116.745 90.8503 Q113.62 85.1099 113.62 74.1045 M119.395 73.2553 Q119.395 83.7512 120.142 87.9291 Q120.991 92.4468 123.301 94.4169 Q125.645 96.353 128.226 96.353 Q131.011 96.353 133.321 94.281 Q135.665 92.175 136.378 87.6574 Q137.159 83.2077 137.125 73.2553 Q137.125 63.5747 136.446 59.7025 Q135.529 55.1848 133.083 53.3846 Q130.672 51.5504 128.226 51.5504 Q127.309 51.5504 126.324 51.8221 Q125.373 52.0938 123.98 52.8751 Q122.587 53.6563 121.501 55.5924 Q120.448 57.5286 119.938 60.4497 Q119.395 64.2201 119.395 73.2553 Z" fill="#000000" fill-rule="evenodd" fill-opacity="1" /><path clip-path="url(#clip220)" d="M152.648 95.2321 Q151.595 94.1112 151.595 92.6506 Q151.595 91.19 152.648 90.137 Q153.701 89.0501 155.298 89.0501 Q156.826 89.0501 157.845 90.0691 Q158.898 91.0541 158.898 92.6845 Q158.898 94.281 157.777 95.334 Q156.69 96.353 155.298 96.353 Q153.701 96.353 152.648 95.2321 Z" fill="#000000" fill-rule="evenodd" fill-opacity="1" /><path clip-path="url(#clip220)" d="M167.934 65.6807 Q167.934 61.9783 169.021 59.4647 Q170.107 56.9172 172.383 54.4036 Q176.561 50.0218 182.607 50.0218 Q185.189 50.0218 187.465 51.1088 Q189.774 52.1957 191.948 54.6753 Q194.156 57.121 195.481 61.9783 Q196.806 66.8016 196.806 73.4591 Q196.806 84.2267 191.575 91.0541 Q186.378 97.8815 179.347 97.8815 Q174.897 97.8815 172.281 95.8774 Q169.666 93.8394 169.666 90.3748 Q169.666 88.5745 170.685 87.8272 Q171.704 87.046 172.859 87.046 Q174.116 87.046 175.101 87.8952 Q176.086 88.7104 176.086 90.2389 Q176.086 91.4957 175.27 92.4807 Q174.489 93.4318 172.451 93.4318 Q174.455 95.9454 179.279 95.9454 Q181.011 95.9454 182.743 95.1641 Q184.476 94.3489 186.344 92.4128 Q188.246 90.4427 189.401 86.3327 Q190.556 82.2227 190.556 76.4483 L190.556 74.2404 Q187.77 81.2037 181.86 81.2037 Q176.018 81.2037 171.976 76.72 Q167.934 72.2363 167.934 65.6807 M174.184 65.7486 Q174.184 72.6439 175.44 75.1915 Q177.58 79.5732 181.928 79.5732 Q186.174 79.5732 188.28 75.8029 Q190.42 71.9986 190.42 67.0733 Q190.42 60.2459 189.299 57.2568 Q187.227 51.7542 182.607 51.7542 Q178.022 51.7542 175.644 56.1359 Q174.184 58.7174 174.184 65.7486 Z" fill="#000000" fill-rule="evenodd" fill-opacity="1" /><path clip-path="url(#clip220)" d="M202.716 65.6807 Q202.716 61.9783 203.803 59.4647 Q204.89 56.9172 207.166 54.4036 Q211.344 50.0218 217.39 50.0218 Q219.971 50.0218 222.247 51.1088 Q224.557 52.1957 226.731 54.6753 Q228.939 57.121 230.263 61.9783 Q231.588 66.8016 231.588 73.4591 Q231.588 84.2267 226.357 91.0541 Q221.16 97.8815 214.129 97.8815 Q209.679 97.8815 207.064 95.8774 Q204.448 93.8394 204.448 90.3748 Q204.448 88.5745 205.467 87.8272 Q206.486 87.046 207.641 87.046 Q208.898 87.046 209.883 87.8952 Q210.868 88.7104 210.868 90.2389 Q210.868 91.4957 210.053 92.4807 Q209.272 93.4318 207.234 93.4318 Q209.238 95.9454 214.061 95.9454 Q215.793 95.9454 217.526 95.1641 Q219.258 94.3489 221.126 92.4128 Q223.028 90.4427 224.183 86.3327 Q225.338 82.2227 225.338 76.4483 L225.338 74.2404 Q222.553 81.2037 216.642 81.2037 Q210.8 81.2037 206.758 76.72 Q202.716 72.2363 202.716 65.6807 M208.966 65.7486 Q208.966 72.6439 210.223 75.1915 Q212.363 79.5732 216.71 79.5732 Q220.956 79.5732 223.062 75.8029 Q225.202 71.9986 225.202 67.0733 Q225.202 60.2459 224.081 57.2568 Q222.009 51.7542 217.39 51.7542 Q212.804 51.7542 210.426 56.1359 Q208.966 58.7174 208.966 65.7486 Z" fill="#000000" fill-rule="evenodd" fill-opacity="1" /><path clip-path="url(#clip220)" d="M237.498 65.6807 Q237.498 61.9783 238.585 59.4647 Q239.672 56.9172 241.948 54.4036 Q246.126 50.0218 252.172 50.0218 Q254.754 50.0218 257.029 51.1088 Q259.339 52.1957 261.513 54.6753 Q263.721 57.121 265.046 61.9783 Q266.37 66.8016 266.37 73.4591 Q266.37 84.2267 261.139 91.0541 Q255.942 97.8815 248.911 97.8815 Q244.462 97.8815 241.846 95.8774 Q239.231 93.8394 239.231 90.3748 Q239.231 88.5745 240.25 87.8272 Q241.269 87.046 242.423 87.046 Q243.68 87.046 244.665 87.8952 Q245.65 88.7104 245.65 90.2389 Q245.65 91.4957 244.835 92.4807 Q244.054 93.4318 242.016 93.4318 Q244.02 95.9454 248.843 95.9454 Q250.576 95.9454 252.308 95.1641 Q254.04 94.3489 255.908 92.4128 Q257.811 90.4427 258.965 86.3327 Q260.12 82.2227 260.12 76.4483 L260.12 74.2404 Q257.335 81.2037 251.425 81.2037 Q245.582 81.2037 241.54 76.72 Q237.498 72.2363 237.498 65.6807 M243.748 65.7486 Q243.748 72.6439 245.005 75.1915 Q247.145 79.5732 251.493 79.5732 Q255.739 79.5732 257.845 75.8029 Q259.984 71.9986 259.984 67.0733 Q259.984 60.2459 258.864 57.2568 Q256.792 51.7542 252.172 51.7542 Q247.586 51.7542 245.209 56.1359 Q243.748 58.7174 243.748 65.7486 Z" fill="#000000" fill-rule="evenodd" fill-opacity="1" /><path clip-path="url(#clip220)" d="M86.0682 270.794 L83.7337 270.794 L83.7337 268.978 Q83.7337 264.865 83.0667 263.939 Q82.3627 262.975 80.1394 262.975 L40.3793 262.975 Q38.193 262.975 37.5261 263.939 Q36.822 264.902 36.822 268.978 L36.822 270.794 L34.4505 270.794 L34.4505 229.144 L51.5329 227.032 L51.5329 228.922 Q47.1974 229.44 44.7518 230.144 Q42.2691 230.811 40.3052 232.368 Q38.3413 233.924 37.6002 236.555 Q36.822 239.149 36.822 243.41 L36.822 252.526 Q36.822 255.12 37.3778 255.675 Q37.8966 256.231 39.8605 256.231 L59.055 256.231 L59.055 249.71 Q59.055 244.559 57.2023 243.114 Q55.3495 241.669 50.1618 241.669 L50.1618 239.779 L70.2827 239.779 L70.2827 241.669 Q65.058 241.669 63.2423 243.114 Q61.3895 244.559 61.3895 249.71 L61.3895 256.231 L80.0652 256.231 Q81.6586 256.231 82.2885 255.972 Q82.8814 255.712 83.3261 254.119 Q83.7337 252.526 83.7337 249.043 L83.7337 246.523 L86.0682 246.523 Q85.8458 249.265 85.8458 259.27 Q85.8458 268.126 86.0682 270.794 Z" fill="#000000" fill-rule="evenodd" fill-opacity="1" /><path clip-path="url(#clip220)" d="M86.0682 221.325 L83.7337 221.325 Q83.7337 217.286 83.252 216.36 Q82.7332 215.434 80.2876 215.434 L59.8702 215.434 Q57.0541 215.434 56.3871 216.397 Q55.7201 217.323 55.7201 221.029 L53.3486 221.029 L52.5333 210.431 L80.3617 210.431 Q82.622 210.431 83.1779 209.616 Q83.7337 208.801 83.7337 205.095 L86.0682 205.095 Q85.8458 212.84 85.8458 212.988 Q85.8458 214.026 86.0682 221.325 M39.3047 218.139 Q37.7854 218.139 36.5626 216.99 Q35.3028 215.804 35.3028 214.137 Q35.3028 212.469 36.4515 211.283 Q37.5631 210.098 39.3418 210.098 Q41.0833 210.098 42.232 211.283 Q43.3437 212.469 43.3437 214.137 Q43.3437 215.878 42.1209 217.027 Q40.8981 218.139 39.3047 218.139 Z" fill="#000000" fill-rule="evenodd" fill-opacity="1" /><path clip-path="url(#clip220)" d="M69.7639 200.241 Q62.5382 200.241 57.5358 195.202 Q52.5333 190.162 52.5333 183.344 Q52.5333 177.563 57.2393 173.784 L40.824 173.784 Q38.0078 173.784 37.3037 174.784 Q36.5997 175.748 36.5997 179.675 L34.2282 179.675 L33.4129 168.744 L79.4724 168.744 Q82.2885 168.744 83.0296 167.781 Q83.7337 166.78 83.7337 162.852 L86.0682 162.852 L86.9204 174.006 L81.8809 174.006 Q86.8834 177.934 86.9204 184.159 Q86.9204 190.681 81.918 195.461 Q76.9156 200.241 69.7639 200.241 M69.8381 193.942 Q76.8785 193.942 80.3617 191.755 Q85.2159 188.717 85.2159 183.789 Q85.2159 178.156 79.917 174.821 Q78.6201 173.969 77.1008 174.006 L61.5377 174.006 Q60.0185 174.006 58.7586 174.821 Q54.2008 177.934 54.2008 183.01 Q54.2008 188.309 59.055 191.607 Q62.6864 193.942 69.8381 193.942 Z" fill="#000000" fill-rule="evenodd" fill-opacity="1" /><path clip-path="url(#clip220)" d="M69.3563 158.628 Q62.2047 158.628 57.1282 154.033 Q52.0516 149.439 52.0516 142.843 Q52.0516 136.173 56.3871 132.727 Q60.7225 129.244 66.9478 129.244 Q68.0965 129.244 68.3188 129.54 Q68.5411 129.836 68.5411 131.133 L68.5411 152.329 Q76.2856 152.329 79.917 150.031 Q84.9936 146.845 84.9936 141.472 Q84.9936 140.731 84.8453 139.841 Q84.6971 138.952 84.0672 137.136 Q83.4002 135.321 81.6586 133.727 Q79.917 132.134 77.1749 131.207 Q76.1004 130.985 76.1374 130.244 Q76.1374 129.244 77.0267 129.244 Q77.6937 129.244 79.213 129.985 Q80.6952 130.689 82.4738 132.06 Q84.2525 133.431 85.5864 136.099 Q86.9204 138.73 86.9204 141.916 Q86.9204 148.586 81.8809 153.626 Q76.8044 158.628 69.3563 158.628 M66.9478 152.255 L66.9478 134.246 Q65.3544 134.246 63.5757 134.542 Q61.7971 134.802 59.3515 135.617 Q56.8688 136.395 55.3125 138.248 Q53.7562 140.101 53.7562 142.843 Q53.7562 144.066 54.2749 145.4 Q54.7937 146.697 56.0536 148.29 Q57.3134 149.883 60.1667 150.995 Q63.0199 152.107 66.9478 152.255 Z" fill="#000000" fill-rule="evenodd" fill-opacity="1" /><path clip-path="url(#clip220)" d="M86.0682 124.538 L83.7337 124.538 Q83.7337 120.499 83.252 119.572 Q82.7332 118.646 80.2876 118.646 L40.824 118.646 Q38.0078 118.646 37.3037 119.646 Q36.5997 120.61 36.5997 124.538 L34.2282 124.538 L33.4129 113.643 L80.2876 113.643 Q82.7332 113.643 83.252 112.68 Q83.7337 111.717 83.7337 107.715 L86.0682 107.715 Q86.0682 108.641 85.994 110.568 Q85.9199 112.495 85.8829 113.903 Q85.8458 115.311 85.8458 116.126 Q85.8458 117.015 86.0682 124.538 Z" fill="#000000" fill-rule="evenodd" fill-opacity="1" /><path clip-path="url(#clip220)" d="M86.0682 103.527 L83.7337 103.527 Q83.7337 99.4884 83.252 98.562 Q82.7332 97.6356 80.2876 97.6356 L59.8702 97.6356 Q57.0541 97.6356 56.3871 98.5991 Q55.7201 99.5254 55.7201 103.231 L53.3486 103.231 L52.5333 92.6332 L80.3617 92.6332 Q82.622 92.6332 83.1779 91.818 Q83.7337 91.0028 83.7337 87.2973 L86.0682 87.2973 Q85.8458 95.0418 85.8458 95.19 Q85.8458 96.2275 86.0682 103.527 M39.3047 100.341 Q37.7854 100.341 36.5626 99.1919 Q35.3028 98.0062 35.3028 96.3387 Q35.3028 94.6712 36.4515 93.4855 Q37.5631 92.2997 39.3418 92.2997 Q41.0833 92.2997 42.232 93.4855 Q43.3437 94.6712 43.3437 96.3387 Q43.3437 98.0803 42.1209 99.229 Q40.8981 100.341 39.3047 100.341 Z" fill="#000000" fill-rule="evenodd" fill-opacity="1" /><path clip-path="url(#clip220)" d="M55.7201 83.5918 L54.0526 83.5918 Q53.9044 80.1086 51.4588 77.8112 Q48.9761 75.4767 45.9375 74.6986 Q42.899 73.8833 39.3788 73.8092 L39.3788 71.9194 L53.3486 71.9194 L53.3486 61.0623 L55.7201 61.0623 L55.7201 71.9194 L76.8044 71.9194 Q84.9936 71.9194 84.9936 66.8058 Q84.9936 64.6196 82.7703 63.1744 Q80.5099 61.7293 76.508 61.7293 L72.3207 61.7293 L72.3207 59.8395 L76.6562 59.8395 Q80.7693 59.8395 83.8449 61.7293 Q86.9204 63.6191 86.9204 67.3617 Q86.9204 68.7327 86.5499 70.1037 Q86.2164 71.4377 85.3271 73.2164 Q84.4007 74.9579 82.1774 76.0696 Q79.917 77.1442 76.6562 77.1442 L55.7201 77.1442 L55.7201 83.5918 Z" fill="#000000" fill-rule="evenodd" fill-opacity="1" /><path clip-path="url(#clip220)" d="M95.4801 56.2822 Q93.8868 56.2822 93.0345 55.3558 Q92.2193 54.3924 92.2193 53.0955 Q92.2193 51.7244 93.0716 50.8351 Q93.9609 49.9087 95.406 49.9087 Q98.2222 49.9087 98.5928 52.8731 Q99.9638 51.428 99.9638 49.3159 Q99.9638 47.0555 98.2963 45.2398 Q96.6288 43.3871 95.0355 42.6089 Q93.4421 41.7937 90.5518 40.645 Q88.2915 39.5704 86.0682 38.7552 L58.351 50.1311 Q56.5353 50.8722 56.1277 52.0209 Q55.7201 53.1696 55.7201 56.2822 L53.3486 56.2822 Q53.5709 52.8731 53.5709 48.9083 Q53.5709 46.5738 53.3486 40.645 L55.7201 40.645 Q55.7201 44.9063 57.684 44.9063 Q57.9063 44.9063 59.055 44.4616 L79.4724 36.0131 L60.7966 28.3427 Q59.722 27.898 58.9809 27.898 Q55.8683 27.898 55.7201 31.4553 L53.3486 31.4553 Q53.5709 26.4529 53.5709 24.8595 Q53.5709 21.7469 53.3486 19.1901 L55.7201 19.1901 Q55.7201 24.2667 60.5743 26.2306 L92.9604 39.6074 Q101.594 43.2388 101.631 49.3159 Q101.631 52.2062 99.8526 54.2442 Q98.074 56.2822 95.4801 56.2822 Z" fill="#000000" fill-rule="evenodd" fill-opacity="1" /><polyline clip-path="url(#clip222)" style="stroke:#696969; stroke-linecap:round; stroke-linejoin:round; stroke-width:4; stroke-opacity:1; fill:none" points="-196.015,52.777 752.756,52.777 "/>
<path clip-path="url(#clip222)" d="M-196.015 52.777 L-172.296 55.2213 L-148.577 62.2558 L-124.857 72.6798 L-101.138 84.8778 L-77.4189 97.1821 L-53.6996 108.233 L-29.9804 117.18 L-6.26107 123.736 L17.4582 128.028 L41.1775 130.393 L64.8968 131.232 L88.616 130.907 L112.335 129.74 L136.055 128.035 L159.774 126.065 L183.493 124.267 L207.212 123.168 L230.932 123.123 L254.651 124.321 L278.37 126.691 L302.09 129.875 L325.809 133.292 L349.528 136.265 L373.247 138.166 L396.967 138.558 L420.686 137.282 L444.405 134.465 L468.125 130.199 L491.844 125.454 L515.563 120.258 L539.282 114.809 L563.002 109.148 L586.721 103.235 L610.44 97.0672 L634.16 90.795 L657.879 84.7835 L681.598 79.5964 L705.317 75.9069 L729.037 74.3622 L752.756 75.439 L752.756 75.439 L729.037 74.3622 L705.317 75.9069 L681.598 79.5964 L657.879 84.7835 L634.16 90.795 L610.44 97.0672 L586.721 103.235 L563.002 109.148 L539.282 114.809 L515.563 120.258 L491.844 125.454 L468.125 130.199 L444.405 134.465 L420.686 137.282 L396.967 138.558 L373.247 138.166 L349.528 136.265 L325.809 133.292 L302.09 129.875 L278.37 126.691 L254.651 124.321 L230.932 123.123 L207.212 123.168 L183.493 124.267 L159.774 126.065 L136.055 128.035 L112.335 129.74 L88.616 130.907 L64.8968 131.232 L41.1775 130.393 L17.4582 128.028 L-6.26107 123.736 L-29.9804 117.18 L-53.6996 108.233 L-77.4189 97.1821 L-101.138 84.8778 L-124.857 72.6798 L-148.577 62.2558 L-172.296 55.2213 L-196.015 52.777  Z" fill="#dcb0f2" fill-rule="evenodd" fill-opacity="0.5"/>
<polyline clip-path="url(#clip222)" style="stroke:#dcb0f2; stroke-linecap:round; stroke-linejoin:round; stroke-width:12; stroke-opacity:1; fill:none" points="-196.015,52.777 -172.296,55.2213 -148.577,62.2558 -124.857,72.6798 -101.138,84.8778 -77.4189,97.1821 -53.6996,108.233 -29.9804,117.18 -6.26107,123.736 17.4582,128.028 41.1775,130.393 64.8968,131.232 88.616,130.907 112.335,129.74 136.055,128.035 159.774,126.065 183.493,124.267 207.212,123.168 230.932,123.123 254.651,124.321 278.37,126.691 302.09,129.875 325.809,133.292 349.528,136.265 373.247,138.166 396.967,138.558 420.686,137.282 444.405,134.465 468.125,130.199 491.844,125.454 515.563,120.258 539.282,114.809 563.002,109.148 586.721,103.235 610.44,97.0672 634.16,90.795 657.879,84.7835 681.598,79.5964 705.317,75.9069 729.037,74.3622 752.756,75.439 "/>
<path clip-path="url(#clip222)" d="M-196.015 52.777 L-172.296 55.2213 L-148.577 62.2558 L-124.857 72.6798 L-101.138 84.8778 L-77.4189 97.1821 L-53.6996 108.233 L-29.9804 117.18 L-6.26107 124.323 L17.4582 129.109 L41.1775 131.351 L64.8968 133.913 L88.616 133.135 L112.335 134.586 L136.055 134.317 L159.774 134.411 L183.493 135.486 L207.212 137.01 L230.932 139.858 L254.651 143.326 L278.37 146.448 L302.09 151.223 L325.809 154.856 L349.528 157.808 L373.247 158.179 L396.967 156.86 L420.686 153.714 L444.405 149.253 L468.125 144.702 L491.844 140.15 L515.563 136.272 L539.282 132.695 L563.002 128.973 L586.721 125.174 L610.44 120.766 L634.16 116.151 L657.879 114.811 L681.598 117.151 L705.317 114.007 L729.037 113.099 L752.756 115.457 L752.756 115.457 L729.037 113.099 L705.317 114.007 L681.598 117.151 L657.879 114.811 L634.16 116.151 L610.44 120.766 L586.721 125.174 L563.002 128.973 L539.282 132.695 L515.563 136.272 L491.844 140.15 L468.125 144.702 L444.405 149.253 L420.686 153.714 L396.967 156.86 L373.247 158.179 L349.528 157.808 L325.809 154.856 L302.09 151.223 L278.37 146.448 L254.651 143.326 L230.932 139.858 L207.212 137.01 L183.493 135.486 L159.774 134.411 L136.055 134.317 L112.335 134.586 L88.616 133.135 L64.8968 133.913 L41.1775 131.351 L17.4582 129.109 L-6.26107 124.323 L-29.9804 117.18 L-53.6996 108.233 L-77.4189 97.1821 L-101.138 84.8778 L-124.857 72.6798 L-148.577 62.2558 L-172.296 55.2213 L-196.015 52.777  Z" fill="#f89c74" fill-rule="evenodd" fill-opacity="0.5"/>
<polyline clip-path="url(#clip222)" style="stroke:#f89c74; stroke-linecap:round; stroke-linejoin:round; stroke-width:12; stroke-opacity:1; fill:none" stroke-dasharray="6, 12" points="-196.015,52.777 -172.296,55.2213 -148.577,62.2558 -124.857,72.6798 -101.138,84.8778 -77.4189,97.1821 -53.6996,108.233 -29.9804,117.18 -6.26107,124.323 17.4582,129.109 41.1775,131.351 64.8968,133.913 88.616,133.135 112.335,134.586 136.055,134.317 159.774,134.411 183.493,135.486 207.212,137.01 230.932,139.858 254.651,143.326 278.37,146.448 302.09,151.223 325.809,154.856 349.528,157.808 373.247,158.179 396.967,156.86 420.686,153.714 444.405,149.253 468.125,144.702 491.844,140.15 515.563,136.272 539.282,132.695 563.002,128.973 586.721,125.174 610.44,120.766 634.16,116.151 657.879,114.811 681.598,117.151 705.317,114.007 729.037,113.099 752.756,115.457 "/>
<path clip-path="url(#clip222)" d="M-196.015 52.777 L-172.296 55.2635 L-148.577 62.3495 L-124.857 72.8465 L-101.138 85.2908 L-77.4189 98.284 L-53.6996 110.668 L-29.9804 122.097 L-6.26107 132.685 L17.4582 142.832 L41.1775 152.864 L64.8968 162.869 L88.616 172.662 L112.335 181.873 L136.055 190.136 L159.774 197.413 L183.493 203.938 L207.212 210.123 L230.932 216.216 L254.651 222.003 L278.37 227.745 L302.09 232.872 L325.809 236.347 L349.528 237.207 L373.247 234.944 L396.967 229.735 L420.686 222.492 L444.405 214.686 L468.125 207.987 L491.844 203.813 L515.563 202.911 L539.282 205.107 L563.002 209.303 L586.721 213.738 L610.44 216.439 L634.16 215.732 L657.879 210.689 L681.598 201.419 L705.317 189.135 L729.037 176.011 L752.756 164.839 L752.756 164.839 L729.037 176.011 L705.317 189.135 L681.598 201.419 L657.879 210.689 L634.16 215.732 L610.44 216.439 L586.721 213.738 L563.002 209.303 L539.282 205.107 L515.563 202.911 L491.844 203.813 L468.125 207.987 L444.405 214.686 L420.686 222.492 L396.967 229.735 L373.247 234.944 L349.528 237.207 L325.809 236.347 L302.09 232.872 L278.37 227.745 L254.651 222.003 L230.932 216.216 L207.212 210.123 L183.493 203.938 L159.774 197.413 L136.055 190.136 L112.335 181.873 L88.616 172.662 L64.8968 162.869 L41.1775 152.864 L17.4582 142.832 L-6.26107 132.685 L-29.9804 122.097 L-53.6996 110.668 L-77.4189 98.284 L-101.138 85.2908 L-124.857 72.8465 L-148.577 62.3495 L-172.296 55.2635 L-196.015 52.777  Z" fill="#f6cf71" fill-rule="evenodd" fill-opacity="0.5"/>
<polyline clip-path="url(#clip222)" style="stroke:#f6cf71; stroke-linecap:round; stroke-linejoin:round; stroke-width:12; stroke-opacity:1; fill:none" stroke-dasharray="48, 30" points="-196.015,52.777 -172.296,55.2635 -148.577,62.3495 -124.857,72.8465 -101.138,85.2908 -77.4189,98.284 -53.6996,110.668 -29.9804,122.097 -6.26107,132.685 17.4582,142.832 41.1775,152.864 64.8968,162.869 88.616,172.662 112.335,181.873 136.055,190.136 159.774,197.413 183.493,203.938 207.212,210.123 230.932,216.216 254.651,222.003 278.37,227.745 302.09,232.872 325.809,236.347 349.528,237.207 373.247,234.944 396.967,229.735 420.686,222.492 444.405,214.686 468.125,207.987 491.844,203.813 515.563,202.911 539.282,205.107 563.002,209.303 586.721,213.738 610.44,216.439 634.16,215.732 657.879,210.689 681.598,201.419 705.317,189.135 729.037,176.011 752.756,164.839 "/>
</svg>
