<?xml version="1.0" encoding="utf-8"?>
<svg xmlns="http://www.w3.org/2000/svg" xmlns:xlink="http://www.w3.org/1999/xlink" width="426.75" height="263.5" viewBox="0 0 1707 1054">
<defs>
  <clipPath id="clip450">
    <rect x="0" y="0" width="1707" height="1054"/>
  </clipPath>
</defs>
<path clip-path="url(#clip450)" d="M0 1054 L1707 1054 L1707 0 L0 0  Z" fill="#ffffff" fill-rule="evenodd" fill-opacity="1"/>
<defs>
  <clipPath id="clip451">
    <rect x="341" y="0" width="1196" height="1054"/>
  </clipPath>
</defs>
<path clip-path="url(#clip450)" d="M233.114 888.691 L1659.76 888.691 L1659.76 47.2528 L233.114 47.2528  Z" fill="#ffffff" fill-rule="evenodd" fill-opacity="1"/>
<defs>
  <clipPath id="clip452">
    <rect x="233" y="47" width="1428" height="842"/>
  </clipPath>
</defs>
<polyline clip-path="url(#clip452)" style="stroke:#000000; stroke-linecap:round; stroke-linejoin:round; stroke-width:2.00037; stroke-opacity:0.1; fill:none" points="273.491,888.691 273.491,47.2528 "/>
<polyline clip-path="url(#clip452)" style="stroke:#000000; stroke-linecap:round; stroke-linejoin:round; stroke-width:2.00037; stroke-opacity:0.1; fill:none" points="609.964,888.691 609.964,47.2528 "/>
<polyline clip-path="url(#clip452)" style="stroke:#000000; stroke-linecap:round; stroke-linejoin:round; stroke-width:2.00037; stroke-opacity:0.1; fill:none" points="946.437,888.691 946.437,47.2528 "/>
<polyline clip-path="url(#clip452)" style="stroke:#000000; stroke-linecap:round; stroke-linejoin:round; stroke-width:2.00037; stroke-opacity:0.1; fill:none" points="1282.91,888.691 1282.91,47.2528 "/>
<polyline clip-path="url(#clip452)" style="stroke:#000000; stroke-linecap:round; stroke-linejoin:round; stroke-width:2.00037; stroke-opacity:0.1; fill:none" points="1619.38,888.691 1619.38,47.2528 "/>
<polyline clip-path="url(#clip450)" style="stroke:#000000; stroke-linecap:round; stroke-linejoin:round; stroke-width:4.00074; stroke-opacity:1; fill:none" points="233.114,888.691 1659.76,888.691 "/>
<polyline clip-path="url(#clip450)" style="stroke:#000000; stroke-linecap:round; stroke-linejoin:round; stroke-width:4.00074; stroke-opacity:1; fill:none" points="233.114,47.2528 1659.76,47.2528 "/>
<polyline clip-path="url(#clip450)" style="stroke:#000000; stroke-linecap:round; stroke-linejoin:round; stroke-width:4.00074; stroke-opacity:1; fill:none" points="273.491,888.691 273.491,869.79 "/>
<polyline clip-path="url(#clip450)" style="stroke:#000000; stroke-linecap:round; stroke-linejoin:round; stroke-width:4.00074; stroke-opacity:1; fill:none" points="609.964,888.691 609.964,869.79 "/>
<polyline clip-path="url(#clip450)" style="stroke:#000000; stroke-linecap:round; stroke-linejoin:round; stroke-width:4.00074; stroke-opacity:1; fill:none" points="946.437,888.691 946.437,869.79 "/>
<polyline clip-path="url(#clip450)" style="stroke:#000000; stroke-linecap:round; stroke-linejoin:round; stroke-width:4.00074; stroke-opacity:1; fill:none" points="1282.91,888.691 1282.91,869.79 "/>
<polyline clip-path="url(#clip450)" style="stroke:#000000; stroke-linecap:round; stroke-linejoin:round; stroke-width:4.00074; stroke-opacity:1; fill:none" points="1619.38,888.691 1619.38,869.79 "/>
<path clip-path="url(#clip450)" d="M239.381 932.753 Q239.381 924.387 241.493 919.828 Q244.438 913.046 251.385 913.046 Q252.858 913.046 254.386 913.463 Q255.943 913.852 257.888 915.381 Q259.861 916.91 261.056 919.411 Q263.334 924.248 263.334 932.753 Q263.334 941.065 261.222 945.595 Q258.138 952.211 251.33 952.211 Q248.773 952.211 246.161 950.905 Q243.577 949.598 241.937 946.457 Q239.381 941.76 239.381 932.753 M244.105 932.059 Q244.105 940.648 244.716 944.067 Q245.411 947.764 247.3 949.376 Q249.218 950.96 251.33 950.96 Q253.608 950.96 255.498 949.265 Q257.415 947.541 257.999 943.844 Q258.638 940.203 258.61 932.059 Q258.61 924.137 258.055 920.968 Q257.304 917.271 255.303 915.798 Q253.33 914.297 251.33 914.297 Q250.579 914.297 249.774 914.519 Q248.995 914.741 247.856 915.381 Q246.717 916.02 245.828 917.604 Q244.966 919.189 244.549 921.579 Q244.105 924.665 244.105 932.059 Z" fill="#000000" fill-rule="evenodd" fill-opacity="1" /><path clip-path="url(#clip450)" d="M271.31 950.043 Q270.448 949.126 270.448 947.93 Q270.448 946.735 271.31 945.873 Q272.171 944.984 273.477 944.984 Q274.728 944.984 275.561 945.818 Q276.423 946.624 276.423 947.958 Q276.423 949.265 275.506 950.126 Q274.617 950.96 273.477 950.96 Q272.171 950.96 271.31 950.043 Z" fill="#000000" fill-rule="evenodd" fill-opacity="1" /><path clip-path="url(#clip450)" d="M283.648 932.753 Q283.648 924.387 285.76 919.828 Q288.705 913.046 295.652 913.046 Q297.125 913.046 298.654 913.463 Q300.21 913.852 302.155 915.381 Q304.128 916.91 305.323 919.411 Q307.602 924.248 307.602 932.753 Q307.602 941.065 305.49 945.595 Q302.405 952.211 295.597 952.211 Q293.04 952.211 290.428 950.905 Q287.844 949.598 286.204 946.457 Q283.648 941.76 283.648 932.753 M288.372 932.059 Q288.372 940.648 288.983 944.067 Q289.678 947.764 291.568 949.376 Q293.485 950.96 295.597 950.96 Q297.876 950.96 299.765 949.265 Q301.683 947.541 302.266 943.844 Q302.905 940.203 302.877 932.059 Q302.877 924.137 302.322 920.968 Q301.571 917.271 299.571 915.798 Q297.598 914.297 295.597 914.297 Q294.847 914.297 294.041 914.519 Q293.263 914.741 292.123 915.381 Q290.984 916.02 290.095 917.604 Q289.233 919.189 288.816 921.579 Q288.372 924.665 288.372 932.059 Z" fill="#000000" fill-rule="evenodd" fill-opacity="1" /><path clip-path="url(#clip450)" d="M576.159 932.753 Q576.159 924.387 578.271 919.828 Q581.217 913.046 588.164 913.046 Q589.637 913.046 591.165 913.463 Q592.721 913.852 594.667 915.381 Q596.64 916.91 597.835 919.411 Q600.113 924.248 600.113 932.753 Q600.113 941.065 598.001 945.595 Q594.917 952.211 588.109 952.211 Q585.552 952.211 582.94 950.905 Q580.355 949.598 578.716 946.457 Q576.159 941.76 576.159 932.753 M580.883 932.059 Q580.883 940.648 581.495 944.067 Q582.19 947.764 584.079 949.376 Q585.997 950.96 588.109 950.96 Q590.387 950.96 592.277 949.265 Q594.194 947.541 594.778 943.844 Q595.417 940.203 595.389 932.059 Q595.389 924.137 594.833 920.968 Q594.083 917.271 592.082 915.798 Q590.109 914.297 588.109 914.297 Q587.358 914.297 586.552 914.519 Q585.774 914.741 584.635 915.381 Q583.496 916.02 582.606 917.604 Q581.745 919.189 581.328 921.579 Q580.883 924.665 580.883 932.059 Z" fill="#000000" fill-rule="evenodd" fill-opacity="1" /><path clip-path="url(#clip450)" d="M608.088 950.043 Q607.227 949.126 607.227 947.93 Q607.227 946.735 608.088 945.873 Q608.95 944.984 610.256 944.984 Q611.506 944.984 612.34 945.818 Q613.202 946.624 613.202 947.958 Q613.202 949.265 612.285 950.126 Q611.395 950.96 610.256 950.96 Q608.95 950.96 608.088 950.043 Z" fill="#000000" fill-rule="evenodd" fill-opacity="1" /><path clip-path="url(#clip450)" d="M621.038 941.787 Q621.038 940.092 621.955 939.452 Q622.872 938.785 623.845 938.785 Q625.151 938.785 625.901 939.619 Q626.679 940.425 626.679 941.565 Q626.679 942.705 625.901 943.538 Q625.151 944.345 623.845 944.345 Q623.205 944.345 622.872 944.233 Q623.622 946.846 625.901 948.736 Q628.207 950.627 631.236 950.627 Q635.043 950.627 637.322 946.93 Q638.684 944.539 638.684 939.119 Q638.684 934.338 637.656 931.947 Q636.072 928.306 632.82 928.306 Q628.207 928.306 625.484 932.281 Q625.151 932.781 624.762 932.809 Q624.206 932.809 624.067 932.503 Q623.956 932.17 623.956 931.308 L623.956 914.463 Q623.956 913.101 624.512 913.101 Q624.734 913.101 625.206 913.268 Q628.791 914.853 632.765 914.88 Q636.85 914.88 640.518 913.213 Q640.796 913.046 640.962 913.046 Q641.518 913.046 641.546 913.685 Q641.546 913.908 641.074 914.575 Q640.629 915.214 639.656 916.076 Q638.684 916.91 637.433 917.716 Q636.183 918.522 634.349 919.078 Q632.542 919.606 630.542 919.606 Q628.152 919.606 625.706 918.855 L625.706 929.946 Q628.652 927.055 632.931 927.055 Q637.489 927.055 640.629 930.724 Q643.769 934.393 643.769 939.508 Q643.769 944.873 640.045 948.542 Q636.349 952.211 631.348 952.211 Q626.79 952.211 623.9 948.959 Q621.038 945.707 621.038 941.787 Z" fill="#000000" fill-rule="evenodd" fill-opacity="1" /><path clip-path="url(#clip450)" d="M913.744 918.466 L913.744 916.687 Q920.58 916.687 924.109 913.046 Q925.082 913.046 925.249 913.268 Q925.415 913.491 925.415 914.519 L925.415 946.457 Q925.415 948.153 926.249 948.681 Q927.083 949.209 930.723 949.209 L932.529 949.209 L932.529 950.96 Q930.528 950.793 923.303 950.793 Q916.078 950.793 914.105 950.96 L914.105 949.209 L915.912 949.209 Q919.496 949.209 920.358 948.709 Q921.219 948.18 921.219 946.457 L921.219 916.965 Q918.246 918.466 913.744 918.466 Z" fill="#000000" fill-rule="evenodd" fill-opacity="1" /><path clip-path="url(#clip450)" d="M942.839 950.043 Q941.977 949.126 941.977 947.93 Q941.977 946.735 942.839 945.873 Q943.7 944.984 945.006 944.984 Q946.257 944.984 947.09 945.818 Q947.952 946.624 947.952 947.958 Q947.952 949.265 947.035 950.126 Q946.146 950.96 945.006 950.96 Q943.7 950.96 942.839 950.043 Z" fill="#000000" fill-rule="evenodd" fill-opacity="1" /><path clip-path="url(#clip450)" d="M955.177 932.753 Q955.177 924.387 957.289 919.828 Q960.234 913.046 967.182 913.046 Q968.654 913.046 970.183 913.463 Q971.739 913.852 973.684 915.381 Q975.657 916.91 976.852 919.411 Q979.131 924.248 979.131 932.753 Q979.131 941.065 977.019 945.595 Q973.934 952.211 967.126 952.211 Q964.569 952.211 961.957 950.905 Q959.373 949.598 957.733 946.457 Q955.177 941.76 955.177 932.753 M959.901 932.059 Q959.901 940.648 960.512 944.067 Q961.207 947.764 963.097 949.376 Q965.014 950.96 967.126 950.96 Q969.405 950.96 971.294 949.265 Q973.212 947.541 973.795 943.844 Q974.434 940.203 974.407 932.059 Q974.407 924.137 973.851 920.968 Q973.101 917.271 971.1 915.798 Q969.127 914.297 967.126 914.297 Q966.376 914.297 965.57 914.519 Q964.792 914.741 963.652 915.381 Q962.513 916.02 961.624 917.604 Q960.762 919.189 960.346 921.579 Q959.901 924.665 959.901 932.059 Z" fill="#000000" fill-rule="evenodd" fill-opacity="1" /><path clip-path="url(#clip450)" d="M1250.52 918.466 L1250.52 916.687 Q1257.36 916.687 1260.89 913.046 Q1261.86 913.046 1262.03 913.268 Q1262.19 913.491 1262.19 914.519 L1262.19 946.457 Q1262.19 948.153 1263.03 948.681 Q1263.86 949.209 1267.5 949.209 L1269.31 949.209 L1269.31 950.96 Q1267.31 950.793 1260.08 950.793 Q1252.86 950.793 1250.88 950.96 L1250.88 949.209 L1252.69 949.209 Q1256.28 949.209 1257.14 948.709 Q1258 948.18 1258 946.457 L1258 916.965 Q1255.02 918.466 1250.52 918.466 Z" fill="#000000" fill-rule="evenodd" fill-opacity="1" /><path clip-path="url(#clip450)" d="M1279.62 950.043 Q1278.76 949.126 1278.76 947.93 Q1278.76 946.735 1279.62 945.873 Q1280.48 944.984 1281.79 944.984 Q1283.04 944.984 1283.87 945.818 Q1284.73 946.624 1284.73 947.958 Q1284.73 949.265 1283.81 950.126 Q1282.92 950.96 1281.79 950.96 Q1280.48 950.96 1279.62 950.043 Z" fill="#000000" fill-rule="evenodd" fill-opacity="1" /><path clip-path="url(#clip450)" d="M1292.57 941.787 Q1292.57 940.092 1293.48 939.452 Q1294.4 938.785 1295.37 938.785 Q1296.68 938.785 1297.43 939.619 Q1298.21 940.425 1298.21 941.565 Q1298.21 942.705 1297.43 943.538 Q1296.68 944.345 1295.37 944.345 Q1294.73 944.345 1294.4 944.233 Q1295.15 946.846 1297.43 948.736 Q1299.74 950.627 1302.77 950.627 Q1306.57 950.627 1308.85 946.93 Q1310.21 944.539 1310.21 939.119 Q1310.21 934.338 1309.18 931.947 Q1307.6 928.306 1304.35 928.306 Q1299.74 928.306 1297.01 932.281 Q1296.68 932.781 1296.29 932.809 Q1295.73 932.809 1295.6 932.503 Q1295.48 932.17 1295.48 931.308 L1295.48 914.463 Q1295.48 913.101 1296.04 913.101 Q1296.26 913.101 1296.74 913.268 Q1300.32 914.853 1304.29 914.88 Q1308.38 914.88 1312.05 913.213 Q1312.32 913.046 1312.49 913.046 Q1313.05 913.046 1313.08 913.685 Q1313.08 913.908 1312.6 914.575 Q1312.16 915.214 1311.19 916.076 Q1310.21 916.91 1308.96 917.716 Q1307.71 918.522 1305.88 919.078 Q1304.07 919.606 1302.07 919.606 Q1299.68 919.606 1297.24 918.855 L1297.24 929.946 Q1300.18 927.055 1304.46 927.055 Q1309.02 927.055 1312.16 930.724 Q1315.3 934.393 1315.3 939.508 Q1315.3 944.873 1311.57 948.542 Q1307.88 952.211 1302.88 952.211 Q1298.32 952.211 1295.43 948.959 Q1292.57 945.707 1292.57 941.787 Z" fill="#000000" fill-rule="evenodd" fill-opacity="1" /><path clip-path="url(#clip450)" d="M1585.58 950.96 Q1585.58 949.932 1585.66 949.626 Q1585.77 949.32 1586.22 948.848 L1597.14 936.673 Q1603.11 929.946 1603.11 924.081 Q1603.11 920.273 1601.11 917.549 Q1599.14 914.825 1595.5 914.825 Q1593 914.825 1590.89 916.354 Q1588.77 917.882 1587.8 920.606 Q1587.97 920.551 1588.55 920.551 Q1589.97 920.551 1590.75 921.44 Q1591.55 922.33 1591.55 923.525 Q1591.55 925.054 1590.55 925.804 Q1589.58 926.527 1588.61 926.527 Q1588.22 926.527 1587.69 926.444 Q1587.19 926.36 1586.38 925.582 Q1585.58 924.776 1585.58 923.358 Q1585.58 919.383 1588.58 916.215 Q1591.61 913.046 1596.22 913.046 Q1601.45 913.046 1604.86 916.159 Q1608.31 919.244 1608.31 924.081 Q1608.31 925.777 1607.78 927.333 Q1607.28 928.862 1606.59 930.057 Q1605.92 931.252 1604.09 933.17 Q1602.25 935.088 1600.78 936.45 Q1599.31 937.812 1596 940.703 L1589.97 946.568 L1600.22 946.568 Q1605.23 946.568 1605.61 946.124 Q1606.17 945.317 1606.86 941.065 L1608.31 941.065 L1606.7 950.96 L1585.58 950.96 Z" fill="#000000" fill-rule="evenodd" fill-opacity="1" /><path clip-path="url(#clip450)" d="M1616.9 950.043 Q1616.04 949.126 1616.04 947.93 Q1616.04 946.735 1616.9 945.873 Q1617.76 944.984 1619.06 944.984 Q1620.31 944.984 1621.15 945.818 Q1622.01 946.624 1622.01 947.958 Q1622.01 949.265 1621.09 950.126 Q1620.2 950.96 1619.06 950.96 Q1617.76 950.96 1616.9 950.043 Z" fill="#000000" fill-rule="evenodd" fill-opacity="1" /><path clip-path="url(#clip450)" d="M1629.23 932.753 Q1629.23 924.387 1631.35 919.828 Q1634.29 913.046 1641.24 913.046 Q1642.71 913.046 1644.24 913.463 Q1645.8 913.852 1647.74 915.381 Q1649.71 916.91 1650.91 919.411 Q1653.19 924.248 1653.19 932.753 Q1653.19 941.065 1651.08 945.595 Q1647.99 952.211 1641.18 952.211 Q1638.63 952.211 1636.02 950.905 Q1633.43 949.598 1631.79 946.457 Q1629.23 941.76 1629.23 932.753 M1633.96 932.059 Q1633.96 940.648 1634.57 944.067 Q1635.26 947.764 1637.15 949.376 Q1639.07 950.96 1641.18 950.96 Q1643.46 950.96 1645.35 949.265 Q1647.27 947.541 1647.85 943.844 Q1648.49 940.203 1648.46 932.059 Q1648.46 924.137 1647.91 920.968 Q1647.16 917.271 1645.16 915.798 Q1643.18 914.297 1641.18 914.297 Q1640.43 914.297 1639.63 914.519 Q1638.85 914.741 1637.71 915.381 Q1636.57 916.02 1635.68 917.604 Q1634.82 919.189 1634.4 921.579 Q1633.96 924.665 1633.96 932.059 Z" fill="#000000" fill-rule="evenodd" fill-opacity="1" /><path clip-path="url(#clip450)" d="M876.565 995.884 L877.769 981.677 L916.395 981.677 L917.599 995.884 L916.024 995.884 Q915.777 993.043 915.53 991.406 Q915.314 989.769 914.758 988.225 Q914.233 986.65 913.554 985.909 Q912.906 985.136 911.64 984.55 Q910.374 983.932 908.738 983.778 Q907.101 983.623 904.631 983.623 Q901.729 983.623 901.018 983.747 Q900.247 983.932 900.061 984.488 Q899.876 985.013 899.876 986.156 L899.876 1019.48 Q899.876 1020.75 900.123 1021.27 Q900.401 1021.77 901.852 1022.17 Q903.303 1022.54 906.514 1022.54 L909.046 1022.54 L909.046 1024.48 Q906.453 1024.3 897.035 1024.3 Q887.68 1024.3 885.086 1024.48 L885.086 1022.54 L887.618 1022.54 Q890.829 1022.54 892.281 1022.17 Q893.763 1021.77 894.01 1021.27 Q894.257 1020.75 894.257 1019.48 L894.257 986.156 Q894.257 985.26 894.195 984.889 Q894.133 984.519 893.855 984.21 Q893.577 983.87 892.929 983.747 Q892.311 983.623 889.533 983.623 Q887.062 983.623 885.395 983.778 Q883.759 983.932 882.493 984.55 Q881.227 985.136 880.548 985.909 Q879.899 986.65 879.343 988.225 Q878.818 989.769 878.602 991.406 Q878.386 993.043 878.139 995.884 L876.565 995.884 Z" fill="#000000" fill-rule="evenodd" fill-opacity="1" /><path clip-path="url(#clip450)" d="M922.014 1024.48 L922.014 1022.54 Q925.38 1022.54 926.152 1022.14 Q926.924 1021.7 926.924 1019.67 L926.924 1002.65 Q926.924 1000.3 926.121 999.745 Q925.349 999.189 922.261 999.189 L922.261 997.212 L931.092 996.533 L931.092 1019.73 Q931.092 1021.61 931.771 1022.07 Q932.45 1022.54 935.538 1022.54 L935.538 1024.48 Q929.085 1024.3 928.961 1024.3 Q928.097 1024.3 922.014 1024.48 M924.67 985.507 Q924.67 984.241 925.627 983.222 Q926.615 982.172 928.004 982.172 Q929.394 982.172 930.382 983.129 Q931.37 984.056 931.37 985.538 Q931.37 986.99 930.382 987.947 Q929.394 988.874 928.004 988.874 Q926.553 988.874 925.596 987.854 Q924.67 986.835 924.67 985.507 Z" fill="#000000" fill-rule="evenodd" fill-opacity="1" /><path clip-path="url(#clip450)" d="M939.459 1024.48 L939.459 1022.54 Q942.825 1022.54 943.597 1022.14 Q944.369 1021.7 944.369 1019.67 L944.369 1002.71 Q944.369 1000.36 943.535 999.776 Q942.732 999.189 939.459 999.189 L939.459 997.212 L948.352 996.533 L948.352 1003.17 Q951.316 996.533 957.707 996.533 Q965.117 996.533 966.136 1002.71 Q967.217 1000.3 969.471 998.417 Q971.756 996.533 975.307 996.533 Q980.062 996.533 981.945 998.88 Q983.334 1000.46 983.612 1002.22 Q983.89 1003.98 983.89 1008.55 L983.89 1020.62 Q983.952 1021.95 984.971 1022.26 Q985.99 1022.54 988.83 1022.54 L988.83 1024.48 Q982.377 1024.3 981.76 1024.3 Q981.266 1024.3 974.596 1024.48 L974.596 1022.54 Q977.962 1022.54 978.734 1022.14 Q979.537 1021.7 979.537 1019.67 L979.537 1004.93 Q979.537 1001.72 978.549 999.838 Q977.561 997.923 974.843 997.923 Q971.571 997.923 968.946 1000.67 Q966.322 1003.42 966.322 1008.05 L966.322 1019.67 Q966.322 1021.7 967.094 1022.14 Q967.896 1022.54 971.262 1022.54 L971.262 1024.48 Q964.809 1024.3 964.16 1024.3 Q963.666 1024.3 957.028 1024.48 L957.028 1022.54 Q960.393 1022.54 961.165 1022.14 Q961.968 1021.7 961.968 1019.67 L961.968 1004.93 Q961.968 1001.72 960.98 999.838 Q959.992 997.923 957.275 997.923 Q954.002 997.923 951.378 1000.67 Q948.753 1003.42 948.753 1008.05 L948.753 1019.67 Q948.753 1021.7 949.525 1022.14 Q950.328 1022.54 953.662 1022.54 L953.662 1024.48 Q947.209 1024.3 946.592 1024.3 Q946.098 1024.3 939.459 1024.48 Z" fill="#000000" fill-rule="evenodd" fill-opacity="1" /><path clip-path="url(#clip450)" d="M991.825 1010.55 Q991.825 1004.59 995.654 1000.36 Q999.483 996.131 1004.98 996.131 Q1010.54 996.131 1013.41 999.745 Q1016.31 1003.36 1016.31 1008.55 Q1016.31 1009.5 1016.06 1009.69 Q1015.82 1009.88 1014.74 1009.88 L997.074 1009.88 Q997.074 1016.33 998.989 1019.36 Q1001.64 1023.59 1006.12 1023.59 Q1006.74 1023.59 1007.48 1023.46 Q1008.22 1023.34 1009.73 1022.82 Q1011.25 1022.26 1012.57 1020.81 Q1013.9 1019.36 1014.67 1017.07 Q1014.86 1016.18 1015.48 1016.21 Q1016.31 1016.21 1016.31 1016.95 Q1016.31 1017.5 1015.69 1018.77 Q1015.11 1020.01 1013.96 1021.49 Q1012.82 1022.97 1010.6 1024.08 Q1008.41 1025.19 1005.75 1025.19 Q1000.19 1025.19 995.994 1020.99 Q991.825 1016.76 991.825 1010.55 M997.136 1008.55 L1012.14 1008.55 Q1012.14 1007.22 1011.89 1005.74 Q1011.68 1004.25 1011 1002.22 Q1010.35 1000.15 1008.81 998.849 Q1007.26 997.552 1004.98 997.552 Q1003.96 997.552 1002.85 997.985 Q1001.77 998.417 1000.44 999.467 Q999.112 1000.52 998.186 1002.9 Q997.26 1005.27 997.136 1008.55 Z" fill="#000000" fill-rule="evenodd" fill-opacity="1" /><polyline clip-path="url(#clip452)" style="stroke:#000000; stroke-linecap:round; stroke-linejoin:round; stroke-width:2.00037; stroke-opacity:0.1; fill:none" points="233.114,790.791 1659.76,790.791 "/>
<polyline clip-path="url(#clip452)" style="stroke:#000000; stroke-linecap:round; stroke-linejoin:round; stroke-width:2.00037; stroke-opacity:0.1; fill:none" points="233.114,646.847 1659.76,646.847 "/>
<polyline clip-path="url(#clip452)" style="stroke:#000000; stroke-linecap:round; stroke-linejoin:round; stroke-width:2.00037; stroke-opacity:0.1; fill:none" points="233.114,502.902 1659.76,502.902 "/>
<polyline clip-path="url(#clip452)" style="stroke:#000000; stroke-linecap:round; stroke-linejoin:round; stroke-width:2.00037; stroke-opacity:0.1; fill:none" points="233.114,358.957 1659.76,358.957 "/>
<polyline clip-path="url(#clip452)" style="stroke:#000000; stroke-linecap:round; stroke-linejoin:round; stroke-width:2.00037; stroke-opacity:0.1; fill:none" points="233.114,215.012 1659.76,215.012 "/>
<polyline clip-path="url(#clip452)" style="stroke:#000000; stroke-linecap:round; stroke-linejoin:round; stroke-width:2.00037; stroke-opacity:0.1; fill:none" points="233.114,71.0671 1659.76,71.0671 "/>
<polyline clip-path="url(#clip450)" style="stroke:#000000; stroke-linecap:round; stroke-linejoin:round; stroke-width:4.00074; stroke-opacity:1; fill:none" points="233.114,888.691 233.114,47.2528 "/>
<polyline clip-path="url(#clip450)" style="stroke:#000000; stroke-linecap:round; stroke-linejoin:round; stroke-width:4.00074; stroke-opacity:1; fill:none" points="1659.76,888.691 1659.76,47.2528 "/>
<polyline clip-path="url(#clip450)" style="stroke:#000000; stroke-linecap:round; stroke-linejoin:round; stroke-width:4.00074; stroke-opacity:1; fill:none" points="233.114,790.791 252.01,790.791 "/>
<polyline clip-path="url(#clip450)" style="stroke:#000000; stroke-linecap:round; stroke-linejoin:round; stroke-width:4.00074; stroke-opacity:1; fill:none" points="233.114,646.847 252.01,646.847 "/>
<polyline clip-path="url(#clip450)" style="stroke:#000000; stroke-linecap:round; stroke-linejoin:round; stroke-width:4.00074; stroke-opacity:1; fill:none" points="233.114,502.902 252.01,502.902 "/>
<polyline clip-path="url(#clip450)" style="stroke:#000000; stroke-linecap:round; stroke-linejoin:round; stroke-width:4.00074; stroke-opacity:1; fill:none" points="233.114,358.957 252.01,358.957 "/>
<polyline clip-path="url(#clip450)" style="stroke:#000000; stroke-linecap:round; stroke-linejoin:round; stroke-width:4.00074; stroke-opacity:1; fill:none" points="233.114,215.012 252.01,215.012 "/>
<polyline clip-path="url(#clip450)" style="stroke:#000000; stroke-linecap:round; stroke-linejoin:round; stroke-width:4.00074; stroke-opacity:1; fill:none" points="233.114,71.0671 252.01,71.0671 "/>
<path clip-path="url(#clip450)" d="M110.833 792.028 Q110.833 783.662 112.945 779.103 Q115.89 772.321 122.837 772.321 Q124.31 772.321 125.839 772.738 Q127.395 773.127 129.34 774.656 Q131.313 776.184 132.508 778.686 Q134.787 783.523 134.787 792.028 Q134.787 800.339 132.675 804.87 Q129.59 811.486 122.782 811.486 Q120.225 811.486 117.613 810.179 Q115.029 808.873 113.389 805.732 Q110.833 801.034 110.833 792.028 M115.557 791.333 Q115.557 799.922 116.168 803.341 Q116.863 807.038 118.753 808.651 Q120.67 810.235 122.782 810.235 Q125.061 810.235 126.95 808.539 Q128.868 806.816 129.451 803.119 Q130.09 799.478 130.062 791.333 Q130.062 783.411 129.507 780.243 Q128.756 776.546 126.756 775.073 Q124.783 773.572 122.782 773.572 Q122.032 773.572 121.226 773.794 Q120.448 774.016 119.308 774.656 Q118.169 775.295 117.28 776.879 Q116.418 778.464 116.001 780.854 Q115.557 783.94 115.557 791.333 Z" fill="#000000" fill-rule="evenodd" fill-opacity="1" /><path clip-path="url(#clip450)" d="M142.762 809.318 Q141.9 808.4 141.9 807.205 Q141.9 806.01 142.762 805.148 Q143.623 804.259 144.929 804.259 Q146.18 804.259 147.014 805.093 Q147.875 805.899 147.875 807.233 Q147.875 808.539 146.958 809.401 Q146.069 810.235 144.929 810.235 Q143.623 810.235 142.762 809.318 Z" fill="#000000" fill-rule="evenodd" fill-opacity="1" /><path clip-path="url(#clip450)" d="M155.267 785.135 Q155.267 782.105 156.156 780.048 Q157.045 777.963 158.907 775.906 Q162.325 772.321 167.271 772.321 Q169.383 772.321 171.245 773.21 Q173.135 774.1 174.913 776.129 Q176.72 778.13 177.803 782.105 Q178.887 786.052 178.887 791.5 Q178.887 800.312 174.608 805.899 Q170.356 811.486 164.604 811.486 Q160.963 811.486 158.824 809.846 Q156.684 808.178 156.684 805.343 Q156.684 803.87 157.518 803.258 Q158.351 802.619 159.296 802.619 Q160.324 802.619 161.13 803.314 Q161.936 803.981 161.936 805.232 Q161.936 806.26 161.269 807.066 Q160.63 807.844 158.963 807.844 Q160.602 809.901 164.548 809.901 Q165.965 809.901 167.383 809.262 Q168.8 808.595 170.328 807.011 Q171.884 805.398 172.829 802.035 Q173.774 798.672 173.774 793.946 L173.774 792.14 Q171.495 797.838 166.66 797.838 Q161.88 797.838 158.574 794.169 Q155.267 790.5 155.267 785.135 M160.38 785.19 Q160.38 790.833 161.408 792.918 Q163.159 796.504 166.716 796.504 Q170.189 796.504 171.912 793.418 Q173.663 790.305 173.663 786.274 Q173.663 780.687 172.746 778.241 Q171.051 773.738 167.271 773.738 Q163.52 773.738 161.575 777.324 Q160.38 779.437 160.38 785.19 Z" fill="#000000" fill-rule="evenodd" fill-opacity="1" /><path clip-path="url(#clip450)" d="M183.556 792.028 Q183.556 783.662 185.667 779.103 Q188.613 772.321 195.56 772.321 Q197.033 772.321 198.561 772.738 Q200.118 773.127 202.063 774.656 Q204.036 776.184 205.231 778.686 Q207.509 783.523 207.509 792.028 Q207.509 800.339 205.397 804.87 Q202.313 811.486 195.505 811.486 Q192.948 811.486 190.336 810.179 Q187.752 808.873 186.112 805.732 Q183.556 801.034 183.556 792.028 M188.28 791.333 Q188.28 799.922 188.891 803.341 Q189.586 807.038 191.475 808.651 Q193.393 810.235 195.505 810.235 Q197.783 810.235 199.673 808.539 Q201.59 806.816 202.174 803.119 Q202.813 799.478 202.785 791.333 Q202.785 783.411 202.229 780.243 Q201.479 776.546 199.478 775.073 Q197.505 773.572 195.505 773.572 Q194.754 773.572 193.948 773.794 Q193.17 774.016 192.031 774.656 Q190.892 775.295 190.002 776.879 Q189.141 778.464 188.724 780.854 Q188.28 783.94 188.28 791.333 Z" fill="#000000" fill-rule="evenodd" fill-opacity="1" /><path clip-path="url(#clip450)" d="M111.444 648.083 Q111.444 639.717 113.556 635.158 Q116.502 628.376 123.449 628.376 Q124.922 628.376 126.45 628.793 Q128.006 629.182 129.951 630.711 Q131.924 632.24 133.119 634.741 Q135.398 639.578 135.398 648.083 Q135.398 656.395 133.286 660.925 Q130.201 667.541 123.393 667.541 Q120.837 667.541 118.225 666.235 Q115.64 664.928 114.001 661.787 Q111.444 657.089 111.444 648.083 M116.168 647.389 Q116.168 655.978 116.78 659.397 Q117.474 663.094 119.364 664.706 Q121.281 666.29 123.393 666.29 Q125.672 666.29 127.562 664.595 Q129.479 662.871 130.062 659.174 Q130.702 655.533 130.674 647.389 Q130.674 639.467 130.118 636.298 Q129.368 632.601 127.367 631.128 Q125.394 629.627 123.393 629.627 Q122.643 629.627 121.837 629.849 Q121.059 630.071 119.92 630.711 Q118.78 631.35 117.891 632.934 Q117.03 634.519 116.613 636.909 Q116.168 639.995 116.168 647.389 Z" fill="#000000" fill-rule="evenodd" fill-opacity="1" /><path clip-path="url(#clip450)" d="M143.373 665.373 Q142.512 664.456 142.512 663.26 Q142.512 662.065 143.373 661.203 Q144.235 660.314 145.541 660.314 Q146.791 660.314 147.625 661.148 Q148.486 661.954 148.486 663.288 Q148.486 664.595 147.569 665.456 Q146.68 666.29 145.541 666.29 Q144.235 666.29 143.373 665.373 Z" fill="#000000" fill-rule="evenodd" fill-opacity="1" /><path clip-path="url(#clip450)" d="M155.878 641.19 Q155.878 638.16 156.767 636.103 Q157.657 634.018 159.518 631.962 Q162.936 628.376 167.883 628.376 Q169.995 628.376 171.857 629.265 Q173.746 630.155 175.525 632.184 Q177.331 634.185 178.415 638.16 Q179.498 642.107 179.498 647.555 Q179.498 656.367 175.219 661.954 Q170.967 667.541 165.215 667.541 Q161.575 667.541 159.435 665.901 Q157.295 664.233 157.295 661.398 Q157.295 659.925 158.129 659.313 Q158.963 658.674 159.907 658.674 Q160.936 658.674 161.741 659.369 Q162.547 660.036 162.547 661.287 Q162.547 662.315 161.88 663.121 Q161.241 663.9 159.574 663.9 Q161.213 665.957 165.159 665.957 Q166.577 665.957 167.994 665.317 Q169.411 664.65 170.94 663.066 Q172.496 661.454 173.44 658.09 Q174.385 654.727 174.385 650.001 L174.385 648.195 Q172.107 653.893 167.271 653.893 Q162.492 653.893 159.185 650.224 Q155.878 646.555 155.878 641.19 M160.991 641.246 Q160.991 646.888 162.019 648.973 Q163.77 652.559 167.327 652.559 Q170.801 652.559 172.523 649.473 Q174.274 646.36 174.274 642.33 Q174.274 636.743 173.357 634.296 Q171.662 629.793 167.883 629.793 Q164.131 629.793 162.186 633.379 Q160.991 635.492 160.991 641.246 Z" fill="#000000" fill-rule="evenodd" fill-opacity="1" /><path clip-path="url(#clip450)" d="M184.778 666.29 Q184.778 665.262 184.862 664.956 Q184.973 664.65 185.417 664.178 L196.338 652.003 Q202.313 645.276 202.313 639.411 Q202.313 635.603 200.312 632.879 Q198.339 630.155 194.699 630.155 Q192.198 630.155 190.086 631.684 Q187.974 633.212 187.001 635.936 Q187.168 635.881 187.752 635.881 Q189.169 635.881 189.947 636.77 Q190.753 637.66 190.753 638.855 Q190.753 640.384 189.752 641.134 Q188.78 641.857 187.807 641.857 Q187.418 641.857 186.89 641.774 Q186.39 641.69 185.584 640.912 Q184.778 640.106 184.778 638.688 Q184.778 634.713 187.779 631.545 Q190.808 628.376 195.421 628.376 Q200.646 628.376 204.063 631.489 Q207.509 634.574 207.509 639.411 Q207.509 641.107 206.981 642.663 Q206.481 644.192 205.786 645.387 Q205.119 646.582 203.285 648.5 Q201.451 650.418 199.979 651.78 Q198.506 653.142 195.199 656.033 L189.169 661.898 L199.423 661.898 Q204.425 661.898 204.814 661.454 Q205.37 660.647 206.064 656.395 L207.509 656.395 L205.898 666.29 L184.778 666.29 Z" fill="#000000" fill-rule="evenodd" fill-opacity="1" /><path clip-path="url(#clip450)" d="M110.194 504.139 Q110.194 495.772 112.306 491.213 Q115.251 484.431 122.198 484.431 Q123.671 484.431 125.199 484.848 Q126.756 485.237 128.701 486.766 Q130.674 488.295 131.869 490.796 Q134.147 495.633 134.147 504.139 Q134.147 512.45 132.035 516.981 Q128.951 523.596 122.143 523.596 Q119.586 523.596 116.974 522.29 Q114.39 520.983 112.75 517.842 Q110.194 513.145 110.194 504.139 M114.918 503.444 Q114.918 512.033 115.529 515.452 Q116.224 519.149 118.113 520.761 Q120.031 522.345 122.143 522.345 Q124.421 522.345 126.311 520.65 Q128.228 518.926 128.812 515.229 Q129.451 511.588 129.423 503.444 Q129.423 495.522 128.868 492.353 Q128.117 488.656 126.117 487.183 Q124.144 485.682 122.143 485.682 Q121.392 485.682 120.587 485.904 Q119.809 486.127 118.669 486.766 Q117.53 487.405 116.641 488.99 Q115.779 490.574 115.362 492.964 Q114.918 496.05 114.918 503.444 Z" fill="#000000" fill-rule="evenodd" fill-opacity="1" /><path clip-path="url(#clip450)" d="M142.123 521.428 Q141.261 520.511 141.261 519.315 Q141.261 518.12 142.123 517.259 Q142.984 516.369 144.29 516.369 Q145.541 516.369 146.374 517.203 Q147.236 518.009 147.236 519.343 Q147.236 520.65 146.319 521.511 Q145.43 522.345 144.29 522.345 Q142.984 522.345 142.123 521.428 Z" fill="#000000" fill-rule="evenodd" fill-opacity="1" /><path clip-path="url(#clip450)" d="M154.628 497.245 Q154.628 494.215 155.517 492.158 Q156.406 490.074 158.268 488.017 Q161.686 484.431 166.632 484.431 Q168.744 484.431 170.606 485.32 Q172.496 486.21 174.274 488.239 Q176.08 490.24 177.164 494.215 Q178.248 498.162 178.248 503.61 Q178.248 512.422 173.968 518.009 Q169.717 523.596 163.965 523.596 Q160.324 523.596 158.185 521.956 Q156.045 520.288 156.045 517.453 Q156.045 515.98 156.878 515.368 Q157.712 514.729 158.657 514.729 Q159.685 514.729 160.491 515.424 Q161.297 516.091 161.297 517.342 Q161.297 518.37 160.63 519.176 Q159.991 519.955 158.323 519.955 Q159.963 522.012 163.909 522.012 Q165.326 522.012 166.743 521.372 Q168.161 520.705 169.689 519.121 Q171.245 517.509 172.19 514.145 Q173.135 510.782 173.135 506.057 L173.135 504.25 Q170.856 509.948 166.021 509.948 Q161.241 509.948 157.934 506.279 Q154.628 502.61 154.628 497.245 M159.741 497.301 Q159.741 502.943 160.769 505.028 Q162.52 508.614 166.077 508.614 Q169.55 508.614 171.273 505.528 Q173.024 502.415 173.024 498.385 Q173.024 492.798 172.107 490.352 Q170.412 485.849 166.632 485.849 Q162.881 485.849 160.936 489.434 Q159.741 491.547 159.741 497.301 Z" fill="#000000" fill-rule="evenodd" fill-opacity="1" /><path clip-path="url(#clip450)" d="M182.277 512.95 L182.277 511.199 L199.756 484.487 Q200.201 483.792 200.896 483.819 Q201.535 483.819 201.674 484.07 Q201.813 484.32 201.813 485.293 L201.813 511.199 L207.509 511.199 L207.509 512.95 L201.813 512.95 L201.813 517.898 Q201.813 519.538 202.48 520.066 Q203.174 520.594 206.12 520.594 L207.315 520.594 L207.315 522.345 Q204.981 522.178 199.59 522.178 Q194.226 522.178 191.892 522.345 L191.892 520.594 L193.087 520.594 Q196.033 520.594 196.727 520.094 Q197.422 519.566 197.422 517.898 L197.422 512.95 L182.277 512.95 M183.889 511.199 L197.755 511.199 L197.755 489.962 L183.889 511.199 Z" fill="#000000" fill-rule="evenodd" fill-opacity="1" /><path clip-path="url(#clip450)" d="M111 360.194 Q111 351.827 113.111 347.268 Q116.057 340.486 123.004 340.486 Q124.477 340.486 126.005 340.903 Q127.562 341.292 129.507 342.821 Q131.48 344.35 132.675 346.851 Q134.953 351.688 134.953 360.194 Q134.953 368.505 132.841 373.036 Q129.757 379.651 122.949 379.651 Q120.392 379.651 117.78 378.345 Q115.196 377.038 113.556 373.897 Q111 369.2 111 360.194 M115.724 359.499 Q115.724 368.088 116.335 371.507 Q117.03 375.204 118.919 376.816 Q120.837 378.4 122.949 378.4 Q125.227 378.4 127.117 376.705 Q129.034 374.981 129.618 371.285 Q130.257 367.643 130.229 359.499 Q130.229 351.577 129.673 348.408 Q128.923 344.711 126.922 343.238 Q124.949 341.737 122.949 341.737 Q122.198 341.737 121.392 341.959 Q120.614 342.182 119.475 342.821 Q118.336 343.46 117.446 345.045 Q116.585 346.629 116.168 349.02 Q115.724 352.105 115.724 359.499 Z" fill="#000000" fill-rule="evenodd" fill-opacity="1" /><path clip-path="url(#clip450)" d="M142.929 377.483 Q142.067 376.566 142.067 375.371 Q142.067 374.175 142.929 373.314 Q143.79 372.424 145.096 372.424 Q146.347 372.424 147.18 373.258 Q148.042 374.064 148.042 375.398 Q148.042 376.705 147.125 377.567 Q146.235 378.4 145.096 378.4 Q143.79 378.4 142.929 377.483 Z" fill="#000000" fill-rule="evenodd" fill-opacity="1" /><path clip-path="url(#clip450)" d="M155.433 353.3 Q155.433 350.27 156.323 348.214 Q157.212 346.129 159.074 344.072 Q162.492 340.486 167.438 340.486 Q169.55 340.486 171.412 341.376 Q173.302 342.265 175.08 344.294 Q176.886 346.296 177.97 350.27 Q179.054 354.218 179.054 359.666 Q179.054 368.477 174.774 374.064 Q170.523 379.651 164.77 379.651 Q161.13 379.651 158.99 378.011 Q156.851 376.343 156.851 373.508 Q156.851 372.035 157.684 371.423 Q158.518 370.784 159.463 370.784 Q160.491 370.784 161.297 371.479 Q162.103 372.146 162.103 373.397 Q162.103 374.426 161.436 375.232 Q160.797 376.01 159.129 376.01 Q160.769 378.067 164.715 378.067 Q166.132 378.067 167.549 377.428 Q168.967 376.76 170.495 375.176 Q172.051 373.564 172.996 370.2 Q173.941 366.837 173.941 362.112 L173.941 360.305 Q171.662 366.003 166.827 366.003 Q162.047 366.003 158.74 362.334 Q155.433 358.665 155.433 353.3 M160.547 353.356 Q160.547 358.999 161.575 361.083 Q163.325 364.669 166.882 364.669 Q170.356 364.669 172.079 361.584 Q173.83 358.47 173.83 354.44 Q173.83 348.853 172.912 346.407 Q171.217 341.904 167.438 341.904 Q163.687 341.904 161.741 345.489 Q160.547 347.602 160.547 353.356 Z" fill="#000000" fill-rule="evenodd" fill-opacity="1" /><path clip-path="url(#clip450)" d="M183.889 360.416 Q183.889 351.466 188.446 345.99 Q193.004 340.486 198.867 340.486 Q202.285 340.486 204.175 342.237 Q206.092 343.961 206.092 346.629 Q206.092 348.102 205.231 348.742 Q204.369 349.381 203.48 349.381 Q202.452 349.381 201.646 348.686 Q200.84 347.991 200.84 346.74 Q200.84 344.183 203.98 344.183 Q202.507 341.904 198.978 341.904 Q197.894 341.904 196.783 342.237 Q195.671 342.543 194.226 343.599 Q192.781 344.656 191.67 346.323 Q190.558 347.991 189.78 351.132 Q189.002 354.273 189.002 358.359 L189.002 359.721 Q191.336 354.079 196.116 354.106 Q200.896 354.106 204.202 357.748 Q207.509 361.389 207.509 366.781 Q207.509 372.313 204.063 375.982 Q200.618 379.651 195.783 379.651 Q193.615 379.651 191.642 378.734 Q189.697 377.844 187.863 375.788 Q186.056 373.731 184.973 369.784 Q183.889 365.836 183.889 360.416 M189.113 365.531 Q189.113 371.118 190.141 373.786 Q190.308 374.231 190.669 374.842 Q191.058 375.454 191.698 376.26 Q192.365 377.038 193.448 377.567 Q194.532 378.067 195.783 378.067 Q199.59 378.067 201.424 374.37 Q202.396 372.313 202.396 366.726 Q202.396 361.028 201.368 358.943 Q199.617 355.413 196.06 355.413 Q193.671 355.413 192.003 357.053 Q190.364 358.693 189.725 360.889 Q189.113 363.085 189.113 365.531 Z" fill="#000000" fill-rule="evenodd" fill-opacity="1" /><path clip-path="url(#clip450)" d="M111 216.249 Q111 207.882 113.111 203.324 Q116.057 196.541 123.004 196.541 Q124.477 196.541 126.005 196.958 Q127.562 197.347 129.507 198.876 Q131.48 200.405 132.675 202.907 Q134.953 207.743 134.953 216.249 Q134.953 224.56 132.841 229.091 Q129.757 235.706 122.949 235.706 Q120.392 235.706 117.78 234.4 Q115.196 233.094 113.556 229.953 Q111 225.255 111 216.249 M115.724 215.554 Q115.724 224.143 116.335 227.562 Q117.03 231.259 118.919 232.871 Q120.837 234.456 122.949 234.456 Q125.227 234.456 127.117 232.76 Q129.034 231.037 129.618 227.34 Q130.257 223.698 130.229 215.554 Q130.229 207.632 129.673 204.463 Q128.923 200.766 126.922 199.293 Q124.949 197.792 122.949 197.792 Q122.198 197.792 121.392 198.014 Q120.614 198.237 119.475 198.876 Q118.336 199.515 117.446 201.1 Q116.585 202.684 116.168 205.075 Q115.724 208.16 115.724 215.554 Z" fill="#000000" fill-rule="evenodd" fill-opacity="1" /><path clip-path="url(#clip450)" d="M142.929 233.538 Q142.067 232.621 142.067 231.426 Q142.067 230.23 142.929 229.369 Q143.79 228.479 145.096 228.479 Q146.347 228.479 147.18 229.313 Q148.042 230.119 148.042 231.454 Q148.042 232.76 147.125 233.622 Q146.235 234.456 145.096 234.456 Q143.79 234.456 142.929 233.538 Z" fill="#000000" fill-rule="evenodd" fill-opacity="1" /><path clip-path="url(#clip450)" d="M155.433 209.355 Q155.433 206.326 156.323 204.269 Q157.212 202.184 159.074 200.127 Q162.492 196.541 167.438 196.541 Q169.55 196.541 171.412 197.431 Q173.302 198.32 175.08 200.349 Q176.886 202.351 177.97 206.326 Q179.054 210.273 179.054 215.721 Q179.054 224.532 174.774 230.119 Q170.523 235.706 164.77 235.706 Q161.13 235.706 158.99 234.066 Q156.851 232.399 156.851 229.563 Q156.851 228.09 157.684 227.479 Q158.518 226.839 159.463 226.839 Q160.491 226.839 161.297 227.534 Q162.103 228.201 162.103 229.452 Q162.103 230.481 161.436 231.287 Q160.797 232.065 159.129 232.065 Q160.769 234.122 164.715 234.122 Q166.132 234.122 167.549 233.483 Q168.967 232.816 170.495 231.231 Q172.051 229.619 172.996 226.256 Q173.941 222.892 173.941 218.167 L173.941 216.36 Q171.662 222.058 166.827 222.058 Q162.047 222.058 158.74 218.389 Q155.433 214.72 155.433 209.355 M160.547 209.411 Q160.547 215.054 161.575 217.138 Q163.325 220.724 166.882 220.724 Q170.356 220.724 172.079 217.639 Q173.83 214.526 173.83 210.495 Q173.83 204.908 172.912 202.462 Q171.217 197.959 167.438 197.959 Q163.687 197.959 161.741 201.545 Q160.547 203.657 160.547 209.411 Z" fill="#000000" fill-rule="evenodd" fill-opacity="1" /><path clip-path="url(#clip450)" d="M183.889 225.866 Q183.889 219.501 192.087 215.387 Q188.557 212.997 187.918 212.302 Q185.417 209.522 185.417 206.048 Q185.417 202.073 188.419 199.321 Q191.447 196.541 195.727 196.541 Q199.812 196.541 202.896 198.904 Q205.981 201.267 205.981 205.019 Q205.981 210.3 199.089 213.858 Q203.647 216.694 204.73 217.889 Q207.509 220.974 207.509 224.894 Q207.509 229.452 204.008 232.593 Q200.507 235.706 195.671 235.706 Q190.947 235.706 187.418 232.955 Q183.889 230.203 183.889 225.866 M186.723 225.866 Q186.723 229.397 189.363 231.759 Q192.031 234.122 195.727 234.122 Q199.312 234.122 201.979 232.065 Q204.675 230.008 204.675 226.951 Q204.675 225.755 204.258 224.727 Q203.869 223.698 203.063 222.892 Q202.285 222.058 201.785 221.697 Q201.312 221.308 200.395 220.669 L193.393 216.249 Q186.723 219.946 186.723 225.866 M187.918 203.824 Q187.918 206.548 190.781 208.438 L197.839 212.997 Q203.48 209.689 203.48 205.019 Q203.48 201.989 201.173 199.988 Q198.867 197.959 195.671 197.959 Q192.531 197.959 190.225 199.627 Q187.918 201.267 187.918 203.824 Z" fill="#000000" fill-rule="evenodd" fill-opacity="1" /><path clip-path="url(#clip450)" d="M113.667 58.0167 L113.667 56.2377 Q120.503 56.2377 124.032 52.5964 Q125.005 52.5964 125.172 52.8188 Q125.338 53.0411 125.338 54.0696 L125.338 86.0077 Q125.338 87.7032 126.172 88.2314 Q127.006 88.7595 130.646 88.7595 L132.452 88.7595 L132.452 90.5107 Q130.452 90.3439 123.227 90.3439 Q116.001 90.3439 114.028 90.5107 L114.028 88.7595 L115.835 88.7595 Q119.419 88.7595 120.281 88.2592 Q121.142 87.731 121.142 86.0077 L121.142 56.5157 Q118.169 58.0167 113.667 58.0167 Z" fill="#000000" fill-rule="evenodd" fill-opacity="1" /><path clip-path="url(#clip450)" d="M142.762 89.5934 Q141.9 88.6761 141.9 87.4809 Q141.9 86.2856 142.762 85.4239 Q143.623 84.5345 144.929 84.5345 Q146.18 84.5345 147.014 85.3683 Q147.875 86.1744 147.875 87.5087 Q147.875 88.8151 146.958 89.6768 Q146.069 90.5107 144.929 90.5107 Q143.623 90.5107 142.762 89.5934 Z" fill="#000000" fill-rule="evenodd" fill-opacity="1" /><path clip-path="url(#clip450)" d="M155.1 72.304 Q155.1 63.9373 157.212 59.3787 Q160.158 52.5964 167.105 52.5964 Q168.577 52.5964 170.106 53.0133 Q171.662 53.4025 173.607 54.9313 Q175.58 56.4601 176.775 58.9618 Q179.054 63.7983 179.054 72.304 Q179.054 80.6152 176.942 85.146 Q173.857 91.7615 167.049 91.7615 Q164.493 91.7615 161.88 90.4551 Q159.296 89.1487 157.657 86.0077 Q155.1 81.3101 155.1 72.304 M159.824 71.6091 Q159.824 80.1982 160.435 83.6172 Q161.13 87.3141 163.02 88.9263 Q164.937 90.5107 167.049 90.5107 Q169.328 90.5107 171.217 88.8151 Q173.135 87.0917 173.718 83.3948 Q174.358 79.7535 174.33 71.6091 Q174.33 63.6872 173.774 60.5184 Q173.024 56.8214 171.023 55.3482 Q169.05 53.8472 167.049 53.8472 Q166.299 53.8472 165.493 54.0696 Q164.715 54.292 163.576 54.9313 Q162.436 55.5706 161.547 57.155 Q160.686 58.7394 160.269 61.1299 Q159.824 64.2153 159.824 71.6091 Z" fill="#000000" fill-rule="evenodd" fill-opacity="1" /><path clip-path="url(#clip450)" d="M183.556 72.304 Q183.556 63.9373 185.667 59.3787 Q188.613 52.5964 195.56 52.5964 Q197.033 52.5964 198.561 53.0133 Q200.118 53.4025 202.063 54.9313 Q204.036 56.4601 205.231 58.9618 Q207.509 63.7983 207.509 72.304 Q207.509 80.6152 205.397 85.146 Q202.313 91.7615 195.505 91.7615 Q192.948 91.7615 190.336 90.4551 Q187.752 89.1487 186.112 86.0077 Q183.556 81.3101 183.556 72.304 M188.28 71.6091 Q188.28 80.1982 188.891 83.6172 Q189.586 87.3141 191.475 88.9263 Q193.393 90.5107 195.505 90.5107 Q197.783 90.5107 199.673 88.8151 Q201.59 87.0917 202.174 83.3948 Q202.813 79.7535 202.785 71.6091 Q202.785 63.6872 202.229 60.5184 Q201.479 56.8214 199.478 55.3482 Q197.505 53.8472 195.505 53.8472 Q194.754 53.8472 193.948 54.0696 Q193.17 54.292 192.031 54.9313 Q190.892 55.5706 190.002 57.155 Q189.141 58.7394 188.724 61.1299 Q188.28 64.2153 188.28 71.6091 Z" fill="#000000" fill-rule="evenodd" fill-opacity="1" /><path clip-path="url(#clip450)" d="M71.6299 572.826 L69.6847 572.826 L69.6847 571.313 Q69.6847 567.885 69.1289 567.113 Q68.5423 566.31 66.6897 566.31 L33.5595 566.31 Q31.7378 566.31 31.1821 567.113 Q30.5954 567.916 30.5954 571.313 L30.5954 572.826 L28.6194 572.826 L28.6194 538.112 L42.8533 536.351 L42.8533 537.926 Q39.2408 538.359 37.2029 538.946 Q35.1342 539.501 33.4978 540.799 Q31.8614 542.096 31.2438 544.289 Q30.5954 546.451 30.5954 550.002 L30.5954 557.6 Q30.5954 559.762 31.0586 560.225 Q31.4908 560.689 33.1273 560.689 L49.1212 560.689 L49.1212 555.253 Q49.1212 550.96 47.5773 549.755 Q46.0335 548.551 41.7109 548.551 L41.7109 546.976 L58.4766 546.976 L58.4766 548.551 Q54.1231 548.551 52.6102 549.755 Q51.0664 550.96 51.0664 555.253 L51.0664 560.689 L66.628 560.689 Q67.9556 560.689 68.4805 560.472 Q68.9746 560.256 69.3451 558.928 Q69.6847 557.6 69.6847 554.697 L69.6847 552.597 L71.6299 552.597 Q71.4447 554.882 71.4447 563.221 Q71.4447 570.603 71.6299 572.826 Z" fill="#000000" fill-rule="evenodd" fill-opacity="1" /><path clip-path="url(#clip450)" d="M71.6299 531.595 L69.6847 531.595 Q69.6847 528.228 69.2833 527.456 Q68.8511 526.684 66.8132 526.684 L49.8004 526.684 Q47.4538 526.684 46.8981 527.487 Q46.3423 528.259 46.3423 531.348 L44.3662 531.348 L43.6869 522.515 L66.875 522.515 Q68.7584 522.515 69.2216 521.835 Q69.6847 521.156 69.6847 518.067 L71.6299 518.067 Q71.4447 524.522 71.4447 524.646 Q71.4447 525.511 71.6299 531.595 M32.6641 528.939 Q31.3982 528.939 30.3793 527.981 Q29.3295 526.993 29.3295 525.603 Q29.3295 524.213 30.2867 523.225 Q31.213 522.237 32.695 522.237 Q34.1462 522.237 35.1034 523.225 Q36.0296 524.213 36.0296 525.603 Q36.0296 527.055 35.0107 528.012 Q33.9918 528.939 32.6641 528.939 Z" fill="#000000" fill-rule="evenodd" fill-opacity="1" /><path clip-path="url(#clip450)" d="M58.0444 514.021 Q52.0235 514.021 47.8552 509.821 Q43.6869 505.621 43.6869 499.938 Q43.6869 495.12 47.6082 491.97 L33.9301 491.97 Q31.5835 491.97 30.9968 492.804 Q30.4102 493.607 30.4102 496.88 L28.4341 496.88 L27.7548 487.769 L66.1339 487.769 Q68.4805 487.769 69.0981 486.966 Q69.6847 486.132 69.6847 482.859 L71.6299 482.859 L72.3401 492.155 L68.1409 492.155 Q72.3092 495.429 72.3401 500.617 Q72.3401 506.053 68.1718 510.037 Q64.0035 514.021 58.0444 514.021 M58.1061 508.771 Q63.9726 508.771 66.875 506.949 Q70.9198 504.416 70.9198 500.309 Q70.9198 495.614 66.5045 492.834 Q65.4238 492.124 64.1579 492.155 L51.1899 492.155 Q49.9239 492.155 48.8741 492.834 Q45.0764 495.429 45.0764 499.66 Q45.0764 504.077 49.1212 506.825 Q52.147 508.771 58.1061 508.771 Z" fill="#000000" fill-rule="evenodd" fill-opacity="1" /><path clip-path="url(#clip450)" d="M57.7047 479.338 Q51.7456 479.338 47.5156 475.508 Q43.2856 471.678 43.2856 466.181 Q43.2856 460.621 46.8981 457.749 Q50.5106 454.846 55.6978 454.846 Q56.6549 454.846 56.8402 455.093 Q57.0255 455.34 57.0255 456.421 L57.0255 474.087 Q63.4786 474.087 66.5045 472.172 Q70.7345 469.516 70.7345 465.038 Q70.7345 464.42 70.611 463.679 Q70.4875 462.938 69.9626 461.424 Q69.4068 459.911 67.9556 458.583 Q66.5045 457.255 64.2196 456.483 Q63.3242 456.298 63.3551 455.68 Q63.3551 454.846 64.0961 454.846 Q64.6519 454.846 65.9178 455.464 Q67.1529 456.05 68.6349 457.193 Q70.117 458.336 71.2285 460.56 Q72.3401 462.753 72.3401 465.409 Q72.3401 470.968 68.1409 475.168 Q63.9109 479.338 57.7047 479.338 M55.6978 474.026 L55.6978 459.015 Q54.3701 459.015 52.8881 459.263 Q51.406 459.479 49.3682 460.158 Q47.2995 460.807 46.0027 462.351 Q44.7059 463.895 44.7059 466.181 Q44.7059 467.2 45.1381 468.312 Q45.5704 469.393 46.6202 470.721 Q47.67 472.049 50.0474 472.975 Q52.4249 473.902 55.6978 474.026 Z" fill="#000000" fill-rule="evenodd" fill-opacity="1" /><path clip-path="url(#clip450)" d="M71.6299 450.924 L69.6847 450.924 Q69.6847 447.557 69.2833 446.785 Q68.8511 446.013 66.8132 446.013 L33.9301 446.013 Q31.5835 446.013 30.9968 446.847 Q30.4102 447.65 30.4102 450.924 L28.4341 450.924 L27.7548 441.843 L66.8132 441.843 Q68.8511 441.843 69.2833 441.04 Q69.6847 440.237 69.6847 436.902 L71.6299 436.902 Q71.6299 437.674 71.5682 439.28 Q71.5064 440.886 71.4755 442.06 Q71.4447 443.233 71.4447 443.913 Q71.4447 444.654 71.6299 450.924 Z" fill="#000000" fill-rule="evenodd" fill-opacity="1" /><path clip-path="url(#clip450)" d="M71.6299 433.412 L69.6847 433.412 Q69.6847 430.045 69.2833 429.273 Q68.8511 428.501 66.8132 428.501 L49.8004 428.501 Q47.4538 428.501 46.8981 429.304 Q46.3423 430.076 46.3423 433.165 L44.3662 433.165 L43.6869 424.332 L66.875 424.332 Q68.7584 424.332 69.2216 423.652 Q69.6847 422.973 69.6847 419.884 L71.6299 419.884 Q71.4447 426.339 71.4447 426.463 Q71.4447 427.328 71.6299 433.412 M32.6641 430.756 Q31.3982 430.756 30.3793 429.798 Q29.3295 428.81 29.3295 427.42 Q29.3295 426.03 30.2867 425.042 Q31.213 424.054 32.695 424.054 Q34.1462 424.054 35.1034 425.042 Q36.0296 426.03 36.0296 427.42 Q36.0296 428.872 35.0107 429.829 Q33.9918 430.756 32.6641 430.756 Z" fill="#000000" fill-rule="evenodd" fill-opacity="1" /><path clip-path="url(#clip450)" d="M46.3423 416.796 L44.9529 416.796 Q44.8294 413.893 42.7915 411.978 Q40.7228 410.032 38.191 409.383 Q35.6591 408.704 32.7259 408.642 L32.7259 407.067 L44.3662 407.067 L44.3662 398.018 L46.3423 398.018 L46.3423 407.067 L63.9109 407.067 Q70.7345 407.067 70.7345 402.805 Q70.7345 400.983 68.8819 399.778 Q66.9985 398.574 63.6638 398.574 L60.1748 398.574 L60.1748 396.999 L63.7874 396.999 Q67.2146 396.999 69.7773 398.574 Q72.3401 400.149 72.3401 403.268 Q72.3401 404.411 72.0313 405.554 Q71.7534 406.666 71.0124 408.148 Q70.2405 409.6 68.3879 410.526 Q66.5045 411.422 63.7874 411.422 L46.3423 411.422 L46.3423 416.796 Z" fill="#000000" fill-rule="evenodd" fill-opacity="1" /><path clip-path="url(#clip450)" d="M79.4725 394.034 Q78.1448 394.034 77.4346 393.262 Q76.7554 392.459 76.7554 391.378 Q76.7554 390.235 77.4655 389.494 Q78.2065 388.721 79.4107 388.721 Q81.7573 388.721 82.0661 391.192 Q83.2085 389.988 83.2085 388.227 Q83.2085 386.343 81.8191 384.83 Q80.4296 383.286 79.102 382.637 Q77.7743 381.958 75.3659 381 Q73.4825 380.105 71.6299 379.425 L48.5345 388.907 Q47.0216 389.524 46.6819 390.482 Q46.3423 391.439 46.3423 394.034 L44.3662 394.034 Q44.5515 391.192 44.5515 387.888 Q44.5515 385.942 44.3662 381 L46.3423 381 Q46.3423 384.552 47.9787 384.552 Q48.164 384.552 49.1212 384.181 L66.1339 377.14 L50.5723 370.746 Q49.6769 370.376 49.0594 370.376 Q46.4658 370.376 46.3423 373.341 L44.3662 373.341 Q44.5515 369.171 44.5515 367.843 Q44.5515 365.249 44.3662 363.118 L46.3423 363.118 Q46.3423 367.349 50.3871 368.986 L77.3729 380.135 Q84.567 383.162 84.5979 388.227 Q84.5979 390.636 83.1159 392.335 Q81.6338 394.034 79.4725 394.034 Z" fill="#000000" fill-rule="evenodd" fill-opacity="1" /><polyline clip-path="url(#clip452)" style="stroke:#696969; stroke-linecap:round; stroke-linejoin:round; stroke-width:4.00074; stroke-opacity:1; fill:none" points="273.491,71.0671 1619.38,71.0671 "/>
<path clip-path="url(#clip452)" d="M273.491 71.0671 L307.138 71.9549 L340.786 74.5098 L374.433 78.2959 L408.08 82.7262 L441.728 87.1952 L475.375 91.2089 L509.022 94.4584 L542.67 97.0527 L576.317 98.791 L609.964 99.6053 L643.612 100.536 L677.259 100.253 L710.906 100.78 L744.553 100.683 L778.201 100.717 L811.848 101.107 L845.495 101.661 L879.143 102.695 L912.79 103.955 L946.437 105.089 L980.085 106.823 L1013.73 108.142 L1047.38 109.215 L1081.03 109.35 L1114.67 108.87 L1148.32 107.728 L1181.97 106.107 L1215.62 104.455 L1249.26 102.801 L1282.91 101.393 L1316.56 100.094 L1350.21 98.7418 L1383.85 97.3621 L1417.5 95.7608 L1451.15 94.0848 L1484.79 93.5981 L1518.44 94.4479 L1552.09 93.3061 L1585.74 92.9761 L1619.38 93.8328 L1619.38 93.8328 L1585.74 92.9761 L1552.09 93.3061 L1518.44 94.4479 L1484.79 93.5981 L1451.15 94.0848 L1417.5 95.7608 L1383.85 97.3621 L1350.21 98.7418 L1316.56 100.094 L1282.91 101.393 L1249.26 102.801 L1215.62 104.455 L1181.97 106.107 L1148.32 107.728 L1114.67 108.87 L1081.03 109.35 L1047.38 109.215 L1013.73 108.142 L980.085 106.823 L946.437 105.089 L912.79 103.955 L879.143 102.695 L845.495 101.661 L811.848 101.107 L778.201 100.717 L744.553 100.683 L710.906 100.78 L677.259 100.253 L643.612 100.536 L609.964 99.6053 L576.317 98.791 L542.67 97.0527 L509.022 94.4584 L475.375 91.2089 L441.728 87.1952 L408.08 82.7262 L374.433 78.2959 L340.786 74.5098 L307.138 71.9549 L273.491 71.0671  Z" fill="#fc8d59" fill-rule="evenodd" fill-opacity="0.5"/>
<polyline clip-path="url(#clip452)" style="stroke:#fc8d59; stroke-linecap:round; stroke-linejoin:round; stroke-width:12.0022; stroke-opacity:1; fill:none" stroke-dasharray="6, 12" points="273.491,71.0671 307.138,71.9549 340.786,74.5098 374.433,78.2959 408.08,82.7262 441.728,87.1952 475.375,91.2089 509.022,94.4584 542.67,97.0527 576.317,98.791 609.964,99.6053 643.612,100.536 677.259,100.253 710.906,100.78 744.553,100.683 778.201,100.717 811.848,101.107 845.495,101.661 879.143,102.695 912.79,103.955 946.437,105.089 980.085,106.823 1013.73,108.142 1047.38,109.215 1081.03,109.35 1114.67,108.87 1148.32,107.728 1181.97,106.107 1215.62,104.455 1249.26,102.801 1282.91,101.393 1316.56,100.094 1350.21,98.7418 1383.85,97.3621 1417.5,95.7608 1451.15,94.0848 1484.79,93.5981 1518.44,94.4479 1552.09,93.3061 1585.74,92.9761 1619.38,93.8328 "/>
<path clip-path="url(#clip452)" d="M273.491 71.0671 L307.138 71.9702 L340.786 74.5439 L374.433 78.3564 L408.08 82.8762 L441.728 87.5954 L475.375 92.0934 L509.022 96.2444 L542.67 100.09 L576.317 103.775 L609.964 107.419 L643.612 111.053 L677.259 114.61 L710.906 117.955 L744.553 120.957 L778.201 123.599 L811.848 125.969 L845.495 128.216 L879.143 130.429 L912.79 132.531 L946.437 134.616 L980.085 136.478 L1013.73 137.74 L1047.38 138.053 L1081.03 137.231 L1114.67 135.339 L1148.32 132.708 L1181.97 129.873 L1215.62 127.44 L1249.26 125.924 L1282.91 125.596 L1316.56 126.394 L1350.21 127.918 L1383.85 129.529 L1417.5 130.51 L1451.15 130.253 L1484.79 128.421 L1518.44 125.054 L1552.09 120.593 L1585.74 115.826 L1619.38 111.768 L1619.38 111.768 L1585.74 115.826 L1552.09 120.593 L1518.44 125.054 L1484.79 128.421 L1451.15 130.253 L1417.5 130.51 L1383.85 129.529 L1350.21 127.918 L1316.56 126.394 L1282.91 125.596 L1249.26 125.924 L1215.62 127.44 L1181.97 129.873 L1148.32 132.708 L1114.67 135.339 L1081.03 137.231 L1047.38 138.053 L1013.73 137.74 L980.085 136.478 L946.437 134.616 L912.79 132.531 L879.143 130.429 L845.495 128.216 L811.848 125.969 L778.201 123.599 L744.553 120.957 L710.906 117.955 L677.259 114.61 L643.612 111.053 L609.964 107.419 L576.317 103.775 L542.67 100.09 L509.022 96.2444 L475.375 92.0934 L441.728 87.5954 L408.08 82.8762 L374.433 78.3564 L340.786 74.5439 L307.138 71.9702 L273.491 71.0671  Z" fill="#fdbb84" fill-rule="evenodd" fill-opacity="0.5"/>
<polyline clip-path="url(#clip452)" style="stroke:#fdbb84; stroke-linecap:round; stroke-linejoin:round; stroke-width:12.0022; stroke-opacity:1; fill:none" stroke-dasharray="48, 30" points="273.491,71.0671 307.138,71.9702 340.786,74.5439 374.433,78.3564 408.08,82.8762 441.728,87.5954 475.375,92.0934 509.022,96.2444 542.67,100.09 576.317,103.775 609.964,107.419 643.612,111.053 677.259,114.61 710.906,117.955 744.553,120.957 778.201,123.599 811.848,125.969 845.495,128.216 879.143,130.429 912.79,132.531 946.437,134.616 980.085,136.478 1013.73,137.74 1047.38,138.053 1081.03,137.231 1114.67,135.339 1148.32,132.708 1181.97,129.873 1215.62,127.44 1249.26,125.924 1282.91,125.596 1316.56,126.394 1350.21,127.918 1383.85,129.529 1417.5,130.51 1451.15,130.253 1484.79,128.421 1518.44,125.054 1552.09,120.593 1585.74,115.826 1619.38,111.768 "/>
<path clip-path="url(#clip452)" d="M273.491 71.0671 L307.138 71.9702 L340.786 75.367 L374.433 82.0519 L408.08 92.416 L441.728 106.393 L475.375 123.551 L509.022 143.246 L542.67 164.96 L576.317 188.098 L609.964 212.572 L643.612 238.413 L677.259 266.326 L710.906 296.044 L744.553 328.79 L778.201 363.353 L811.848 400.248 L845.495 439.37 L879.143 479.536 L912.79 520.27 L946.437 560.545 L980.085 599.332 L1013.73 635.724 L1047.38 668.935 L1081.03 698.371 L1114.67 723.669 L1148.32 744.755 L1181.97 761.828 L1215.62 775.314 L1249.26 785.807 L1282.91 793.997 L1316.56 800.583 L1350.21 806.204 L1383.85 811.387 L1417.5 816.534 L1451.15 821.939 L1484.79 827.859 L1518.44 834.587 L1552.09 842.545 L1585.74 852.354 L1619.38 864.877 L1619.38 864.877 L1585.74 852.354 L1552.09 842.545 L1518.44 834.587 L1484.79 827.859 L1451.15 821.939 L1417.5 816.534 L1383.85 811.387 L1350.21 806.204 L1316.56 800.583 L1282.91 793.997 L1249.26 785.807 L1215.62 775.314 L1181.97 761.828 L1148.32 744.755 L1114.67 723.669 L1081.03 698.371 L1047.38 668.935 L1013.73 635.724 L980.085 599.332 L946.437 560.545 L912.79 520.27 L879.143 479.536 L845.495 439.37 L811.848 400.248 L778.201 363.353 L744.553 328.79 L710.906 296.044 L677.259 266.326 L643.612 238.413 L609.964 212.572 L576.317 188.098 L542.67 164.96 L509.022 143.246 L475.375 123.551 L441.728 106.393 L408.08 92.416 L374.433 82.0519 L340.786 75.367 L307.138 71.9702 L273.491 71.0671  Z" fill="#fdd49e" fill-rule="evenodd" fill-opacity="0.5"/>
<polyline clip-path="url(#clip452)" style="stroke:#fdd49e; stroke-linecap:round; stroke-linejoin:round; stroke-width:12.0022; stroke-opacity:1; fill:none" points="273.491,71.0671 307.138,71.9702 340.786,75.367 374.433,82.0519 408.08,92.416 441.728,106.393 475.375,123.551 509.022,143.246 542.67,164.96 576.317,188.098 609.964,212.572 643.612,238.413 677.259,266.326 710.906,296.044 744.553,328.79 778.201,363.353 811.848,400.248 845.495,439.37 879.143,479.536 912.79,520.27 946.437,560.545 980.085,599.332 1013.73,635.724 1047.38,668.935 1081.03,698.371 1114.67,723.669 1148.32,744.755 1181.97,761.828 1215.62,775.314 1249.26,785.807 1282.91,793.997 1316.56,800.583 1350.21,806.204 1383.85,811.387 1417.5,816.534 1451.15,821.939 1484.79,827.859 1518.44,834.587 1552.09,842.545 1585.74,852.354 1619.38,864.877 "/>
<path clip-path="url(#clip450)" d="M280.669 860.643 L781.374 860.643 L781.374 601.396 L280.669 601.396  Z" fill="#ffffff" fill-rule="evenodd" fill-opacity="1"/>
<polyline clip-path="url(#clip450)" style="stroke:#000000; stroke-linecap:round; stroke-linejoin:round; stroke-width:4.00074; stroke-opacity:1; fill:none" points="280.669,860.643 781.374,860.643 781.374,601.396 280.669,601.396 280.669,860.643 "/>
<polyline clip-path="url(#clip450)" style="stroke:#fc8d59; stroke-linecap:round; stroke-linejoin:round; stroke-width:15.0028; stroke-opacity:1; fill:none" stroke-dasharray="8, 15" points="296.521,666.208 391.631,666.208 "/>
<path clip-path="url(#clip450)" d="M407.482 666.192 Q407.482 656.649 413.997 649.947 Q420.512 643.214 429.466 643.214 Q432.245 643.214 434.715 644.233 Q437.185 645.252 438.327 646.148 Q439.47 647.013 441.106 648.649 L444.287 643.986 Q444.781 643.214 445.275 643.214 Q445.8 643.214 445.892 643.523 Q445.985 643.801 445.985 644.727 L445.985 659.737 Q445.985 660.756 445.861 661.003 Q445.738 661.251 444.966 661.251 Q444.348 661.251 444.194 661.065 Q444.07 660.88 443.947 660.17 Q442.99 653.344 439.192 649.267 Q435.425 645.19 430.176 645.19 Q428.663 645.19 426.965 645.53 Q425.298 645.87 422.859 647.167 Q420.45 648.464 418.567 650.626 Q416.714 652.757 415.356 656.834 Q413.997 660.88 413.997 666.254 Q413.997 671.566 415.356 675.643 Q416.714 679.72 418.567 681.851 Q420.45 683.951 422.859 685.248 Q425.298 686.545 426.996 686.916 Q428.725 687.256 430.238 687.256 Q435.672 687.256 439.84 683.395 Q444.009 679.534 444.41 673.018 Q444.472 672.709 444.472 672.585 Q444.472 672.431 444.534 672.276 Q444.595 672.122 444.75 672.06 Q444.904 671.998 445.151 671.998 Q445.985 671.998 445.985 673.079 Q445.985 679.102 441.353 684.167 Q436.753 689.201 429.466 689.201 Q420.481 689.201 413.966 682.53 Q407.482 675.859 407.482 666.192 Z" fill="#000000" fill-rule="evenodd" fill-opacity="1" /><path clip-path="url(#clip450)" d="M451.666 687.812 L451.666 685.866 L453.179 685.866 Q456.606 685.866 457.378 685.31 Q458.181 684.723 458.181 682.87 L458.181 649.545 Q458.181 647.723 457.378 647.167 Q456.575 646.58 453.179 646.58 L451.666 646.58 L451.666 644.604 Q453.889 644.789 461.021 644.789 Q468.092 644.789 470.315 644.604 L470.315 646.58 L468.802 646.58 Q465.375 646.58 464.572 647.167 Q463.8 647.723 463.8 649.545 L463.8 669.651 L483.592 650.75 Q484.734 649.73 484.734 648.649 Q484.734 648.279 484.549 647.877 Q484.395 647.445 483.654 647.013 Q482.944 646.58 481.801 646.58 L481.801 644.604 Q483.963 644.789 489.86 644.789 Q493.596 644.789 495.232 644.604 L495.232 646.58 Q489.983 646.642 486.247 650.379 L474.854 661.312 L489.458 682.808 Q490.786 684.754 492.083 685.31 Q493.38 685.866 496.097 685.866 L496.097 687.812 Q492.114 687.626 488.841 687.626 Q482.017 687.626 479.794 687.812 L479.794 685.866 Q483.53 685.866 483.53 683.951 Q483.53 683.241 482.573 681.789 L471.118 664.864 L463.8 671.813 L463.8 682.87 Q463.8 684.692 464.572 685.279 Q465.375 685.866 468.802 685.866 L470.315 685.866 L470.315 687.812 Q468.092 687.626 460.96 687.626 Q453.889 687.626 451.666 687.812 Z" fill="#000000" fill-rule="evenodd" fill-opacity="1" /><path clip-path="url(#clip450)" d="M500.728 687.812 L500.728 685.866 Q506.348 685.742 507.799 681.604 L520.89 643.801 Q521.137 643.028 521.415 642.781 Q521.693 642.534 522.403 642.534 Q522.774 642.534 522.99 642.596 Q523.237 642.658 523.391 642.874 Q523.546 643.09 523.608 643.214 Q523.669 643.337 523.855 643.801 L537.502 683.333 Q537.996 684.908 539.015 685.403 Q540.034 685.866 542.905 685.866 L544.017 685.866 L544.017 687.812 Q540.034 687.626 535.742 687.626 Q528.918 687.626 526.633 687.812 L526.633 685.866 Q531.882 685.866 531.882 683.951 Q531.882 683.827 531.697 683.055 L528.363 673.388 L512.739 673.388 L509.806 681.665 Q509.682 681.913 509.682 682.623 Q509.682 683.951 510.917 684.908 Q512.152 685.866 514.437 685.866 L514.437 687.812 Q508.355 687.626 507.151 687.626 Q505.082 687.626 500.728 687.812 M513.418 671.443 L527.652 671.443 L520.52 650.873 L513.418 671.443 Z" fill="#000000" fill-rule="evenodd" fill-opacity="1" /><path clip-path="url(#clip450)" d="M552.446 686.792 Q551.551 685.773 551.551 684.445 Q551.551 683.117 552.415 682.129 Q553.31 681.11 554.916 681.11 Q556.799 681.11 557.88 682.932 Q558.961 684.723 558.961 687.75 Q558.961 691.024 557.633 694.05 Q556.305 697.108 555.009 698.559 Q553.712 700.011 553.187 700.011 Q552.569 700.011 552.569 699.332 Q552.569 699.085 553.002 698.621 Q557.541 693.741 557.571 687.75 Q557.571 686.792 557.448 686.792 L557.294 686.916 Q556.213 687.812 554.916 687.812 Q553.341 687.812 552.446 686.792 Z" fill="#000000" fill-rule="evenodd" fill-opacity="1" /><path clip-path="url(#clip450)" d="M586.533 665.173 Q586.533 665.111 586.657 664.679 Q586.811 664.215 587.213 663.536 Q587.614 662.826 588.139 662.177 Q588.695 661.498 589.652 661.034 Q590.609 660.54 591.72 660.54 Q591.844 660.54 592.029 660.571 Q592.245 660.602 592.307 660.602 L609.505 660.602 Q610.339 660.602 610.648 660.88 Q610.956 661.127 610.956 662.054 L610.956 663.32 Q610.956 664.215 610.586 664.463 Q610.246 664.71 609.505 664.71 L599.44 664.71 L599.44 673.265 Q599.44 683.704 603.886 683.704 Q604.905 683.704 605.954 682.993 Q607.035 682.252 607.282 682.252 Q608.301 682.252 608.301 684.074 Q608.301 685.835 607.035 687.194 Q605.769 688.522 603.886 688.522 Q601.848 688.522 600.52 687.317 Q599.193 686.113 598.637 683.827 Q598.112 681.542 597.988 679.812 Q597.865 678.083 597.865 675.488 L597.865 664.71 L593.048 664.71 Q592.863 664.71 592.523 664.679 Q592.184 664.648 591.998 664.648 Q590.238 664.648 588.756 665.296 Q587.305 665.914 587.243 665.914 Q586.533 665.945 586.533 665.173 Z" fill="#000000" fill-rule="evenodd" fill-opacity="1" /><path clip-path="url(#clip450)" d="M638.22 678.206 Q638.282 677.434 639.486 677.434 L678.236 677.434 Q680.057 677.434 680.088 678.145 Q680.088 678.917 678.359 678.886 L639.918 678.886 Q638.22 678.917 638.22 678.206 M638.22 665.852 Q638.22 665.08 639.548 665.111 L678.174 665.111 Q680.057 665.111 680.088 665.852 Q680.088 666.563 678.483 666.563 L639.486 666.563 Q638.22 666.563 638.22 665.852 Z" fill="#000000" fill-rule="evenodd" fill-opacity="1" /><path clip-path="url(#clip450)" d="M710.44 651.707 L710.44 649.73 Q718.035 649.73 721.956 645.685 Q723.037 645.685 723.222 645.932 Q723.408 646.179 723.408 647.321 L723.408 682.808 Q723.408 684.692 724.334 685.279 Q725.26 685.866 729.305 685.866 L731.312 685.866 L731.312 687.812 Q729.089 687.626 721.061 687.626 Q713.033 687.626 710.841 687.812 L710.841 685.866 L712.848 685.866 Q716.831 685.866 717.788 685.31 Q718.745 684.723 718.745 682.808 L718.745 650.039 Q715.441 651.707 710.44 651.707 Z" fill="#000000" fill-rule="evenodd" fill-opacity="1" /><path clip-path="url(#clip450)" d="M738.907 667.582 Q738.907 658.286 741.254 653.22 Q744.527 645.685 752.246 645.685 Q753.882 645.685 755.581 646.148 Q757.31 646.58 759.471 648.279 Q761.663 649.978 762.991 652.757 Q765.523 658.131 765.523 667.582 Q765.523 676.817 763.176 681.851 Q759.749 689.201 752.184 689.201 Q749.344 689.201 746.441 687.75 Q743.57 686.298 741.748 682.808 Q738.907 677.589 738.907 667.582 M744.156 666.81 Q744.156 676.353 744.836 680.152 Q745.608 684.26 747.707 686.051 Q749.838 687.812 752.184 687.812 Q754.716 687.812 756.816 685.928 Q758.946 684.013 759.594 679.905 Q760.305 675.859 760.274 666.81 Q760.274 658.008 759.656 654.487 Q758.823 650.379 756.599 648.742 Q754.407 647.074 752.184 647.074 Q751.35 647.074 750.455 647.321 Q749.591 647.569 748.325 648.279 Q747.059 648.989 746.071 650.75 Q745.113 652.51 744.65 655.166 Q744.156 658.594 744.156 666.81 Z" fill="#000000" fill-rule="evenodd" fill-opacity="1" /><polyline clip-path="url(#clip450)" style="stroke:#fdbb84; stroke-linecap:round; stroke-linejoin:round; stroke-width:15.0028; stroke-opacity:1; fill:none" stroke-dasharray="60, 38" points="296.521,731.019 391.631,731.019 "/>
<path clip-path="url(#clip450)" d="M407.482 752.623 L407.482 750.678 L408.995 750.678 Q412.422 750.678 413.194 750.122 Q413.997 749.535 413.997 747.682 L413.997 714.357 Q413.997 712.535 413.194 711.979 Q412.391 711.392 408.995 711.392 L407.482 711.392 L407.482 709.416 L430.608 709.416 Q436.629 709.416 440.643 712.658 Q444.657 715.87 444.657 720.102 Q444.657 723.592 441.693 726.371 Q438.76 729.151 434.159 730.047 Q439.408 730.603 442.866 733.784 Q446.355 736.934 446.355 741.042 Q446.355 745.674 442.372 749.164 Q438.389 752.623 432.276 752.623 L407.482 752.623 M419.246 748.145 Q419.246 749.782 419.709 750.245 Q420.172 750.678 422.334 750.678 L430.238 750.678 Q434.777 750.678 437.401 747.713 Q440.026 744.717 440.026 740.98 Q440.026 737.243 437.71 734.062 Q435.425 730.85 431.133 730.85 L419.246 730.85 L419.246 748.145 M419.246 729.46 L428.416 729.46 Q433.295 729.46 435.888 726.526 Q438.513 723.592 438.513 720.102 Q438.513 717.013 436.413 714.203 Q434.344 711.392 430.176 711.392 L422.334 711.392 Q420.172 711.392 419.709 711.825 Q419.246 712.257 419.246 713.925 L419.246 729.46 Z" fill="#000000" fill-rule="evenodd" fill-opacity="1" /><path clip-path="url(#clip450)" d="M452.16 752.623 L452.16 750.678 L453.673 750.678 Q457.1 750.678 457.872 750.122 Q458.675 749.535 458.675 747.682 L458.675 714.357 Q458.675 712.535 457.872 711.979 Q457.069 711.392 453.673 711.392 L452.16 711.392 L452.16 709.416 L474.484 709.416 Q480.875 709.416 485.136 712.936 Q489.397 716.457 489.397 721.183 Q489.397 725.877 485.043 729.274 Q480.721 732.641 474.978 732.641 L464.294 732.641 L464.294 747.682 Q464.294 749.504 465.066 750.091 Q465.869 750.678 469.296 750.678 L470.809 750.678 L470.809 752.623 Q468.586 752.438 461.454 752.438 Q454.383 752.438 452.16 752.623 M464.109 731.004 L472.816 731.004 Q475.657 731.004 477.726 730.201 Q479.794 729.398 480.721 728.441 Q481.678 727.452 482.203 725.877 Q482.758 724.271 482.82 723.406 Q482.882 722.511 482.882 721.183 Q482.882 719.793 482.82 718.928 Q482.758 718.032 482.203 716.457 Q481.678 714.851 480.721 713.894 Q479.794 712.906 477.726 712.164 Q475.688 711.392 472.816 711.392 L467.197 711.392 Q465.035 711.392 464.572 711.825 Q464.109 712.257 464.109 713.925 L464.109 731.004 Z" fill="#000000" fill-rule="evenodd" fill-opacity="1" /><path clip-path="url(#clip450)" d="M489.705 752.623 L489.705 750.678 Q495.325 750.554 496.776 746.416 L509.868 708.613 Q510.115 707.84 510.393 707.593 Q510.67 707.346 511.381 707.346 Q511.751 707.346 511.967 707.408 Q512.214 707.47 512.369 707.686 Q512.523 707.902 512.585 708.026 Q512.647 708.149 512.832 708.613 L526.479 748.145 Q526.973 749.72 527.992 750.214 Q529.011 750.678 531.882 750.678 L532.994 750.678 L532.994 752.623 Q529.011 752.438 524.719 752.438 Q517.895 752.438 515.611 752.623 L515.611 750.678 Q520.86 750.678 520.86 748.763 Q520.86 748.639 520.674 747.867 L517.34 738.2 L501.716 738.2 L498.783 746.477 Q498.66 746.724 498.66 747.435 Q498.66 748.763 499.895 749.72 Q501.13 750.678 503.415 750.678 L503.415 752.623 Q497.332 752.438 496.128 752.438 Q494.059 752.438 489.705 752.623 M502.396 736.254 L516.63 736.254 L509.497 715.685 L502.396 736.254 Z" fill="#000000" fill-rule="evenodd" fill-opacity="1" /><path clip-path="url(#clip450)" d="M539.2 724.734 Q539.2 723.653 540.651 722.943 L549.451 718.774 L540.528 714.604 Q539.2 713.986 539.2 712.906 Q539.2 712.288 539.694 711.732 Q540.219 711.145 540.898 711.145 Q541.392 711.145 542.288 711.825 L550.13 717.507 Q549.173 707.068 549.204 706.759 Q549.204 706.142 549.667 705.678 Q550.13 705.184 550.902 705.184 Q551.52 705.184 552.014 705.648 Q552.539 706.08 552.539 706.759 L551.612 717.507 L558.621 712.319 Q560.258 711.114 560.844 711.145 Q561.554 711.145 562.048 711.701 Q562.542 712.257 562.542 712.906 Q562.542 713.986 561.091 714.666 L552.292 718.835 L561.215 723.036 Q562.542 723.653 562.542 724.734 Q562.542 725.352 562.018 725.939 Q561.524 726.495 560.844 726.495 Q560.474 726.495 559.825 726.124 Q559.702 726.062 558.374 725.074 Q557.047 724.086 554.978 722.572 Q552.94 721.059 551.612 720.102 Q552.569 730.541 552.539 730.85 Q552.539 731.467 552.075 731.961 Q551.612 732.456 550.84 732.456 Q550.223 732.456 549.698 732.023 Q549.204 731.56 549.204 730.85 L550.13 720.102 L541.3 726.495 Q540.342 726.495 539.818 726.032 Q539.324 725.537 539.262 725.259 Q539.2 724.981 539.2 724.734 Z" fill="#000000" fill-rule="evenodd" fill-opacity="1" /><polyline clip-path="url(#clip450)" style="stroke:#fdd49e; stroke-linecap:round; stroke-linejoin:round; stroke-width:15.0028; stroke-opacity:1; fill:none" points="296.521,795.831 391.631,795.831 "/>
<path clip-path="url(#clip450)" d="M407.482 817.435 L407.482 815.49 L408.995 815.49 Q412.422 815.49 413.194 814.934 Q413.997 814.347 413.997 812.494 L413.997 779.169 Q413.997 777.347 413.194 776.791 Q412.391 776.204 408.995 776.204 L407.482 776.204 L407.482 774.227 L430.608 774.227 Q436.629 774.227 440.643 777.47 Q444.657 780.682 444.657 784.914 Q444.657 788.404 441.693 791.183 Q438.76 793.963 434.159 794.859 Q439.408 795.414 442.866 798.596 Q446.355 801.746 446.355 805.854 Q446.355 810.486 442.372 813.976 Q438.389 817.435 432.276 817.435 L407.482 817.435 M419.246 812.957 Q419.246 814.594 419.709 815.057 Q420.172 815.49 422.334 815.49 L430.238 815.49 Q434.777 815.49 437.401 812.525 Q440.026 809.529 440.026 805.792 Q440.026 802.055 437.71 798.874 Q435.425 795.662 431.133 795.662 L419.246 795.662 L419.246 812.957 M419.246 794.272 L428.416 794.272 Q433.295 794.272 435.888 791.338 Q438.513 788.404 438.513 784.914 Q438.513 781.825 436.413 779.015 Q434.344 776.204 430.176 776.204 L422.334 776.204 Q420.172 776.204 419.709 776.636 Q419.246 777.069 419.246 778.737 L419.246 794.272 Z" fill="#000000" fill-rule="evenodd" fill-opacity="1" /><path clip-path="url(#clip450)" d="M452.16 817.435 L452.16 815.49 L453.673 815.49 Q457.1 815.49 457.872 814.934 Q458.675 814.347 458.675 812.494 L458.675 779.169 Q458.675 777.347 457.872 776.791 Q457.069 776.204 453.673 776.204 L452.16 776.204 L452.16 774.227 L474.484 774.227 Q480.875 774.227 485.136 777.748 Q489.397 781.269 489.397 785.995 Q489.397 790.689 485.043 794.086 Q480.721 797.453 474.978 797.453 L464.294 797.453 L464.294 812.494 Q464.294 814.316 465.066 814.903 Q465.869 815.49 469.296 815.49 L470.809 815.49 L470.809 817.435 Q468.586 817.25 461.454 817.25 Q454.383 817.25 452.16 817.435 M464.109 795.816 L472.816 795.816 Q475.657 795.816 477.726 795.013 Q479.794 794.21 480.721 793.253 Q481.678 792.264 482.203 790.689 Q482.758 789.083 482.82 788.218 Q482.882 787.323 482.882 785.995 Q482.882 784.605 482.82 783.74 Q482.758 782.844 482.203 781.269 Q481.678 779.663 480.721 778.706 Q479.794 777.717 477.726 776.976 Q475.688 776.204 472.816 776.204 L467.197 776.204 Q465.035 776.204 464.572 776.636 Q464.109 777.069 464.109 778.737 L464.109 795.816 Z" fill="#000000" fill-rule="evenodd" fill-opacity="1" /><path clip-path="url(#clip450)" d="M489.705 817.435 L489.705 815.49 Q495.325 815.366 496.776 811.228 L509.868 773.424 Q510.115 772.652 510.393 772.405 Q510.67 772.158 511.381 772.158 Q511.751 772.158 511.967 772.22 Q512.214 772.282 512.369 772.498 Q512.523 772.714 512.585 772.838 Q512.647 772.961 512.832 773.424 L526.479 812.957 Q526.973 814.532 527.992 815.026 Q529.011 815.49 531.882 815.49 L532.994 815.49 L532.994 817.435 Q529.011 817.25 524.719 817.25 Q517.895 817.25 515.611 817.435 L515.611 815.49 Q520.86 815.49 520.86 813.575 Q520.86 813.451 520.674 812.679 L517.34 803.012 L501.716 803.012 L498.783 811.289 Q498.66 811.536 498.66 812.247 Q498.66 813.575 499.895 814.532 Q501.13 815.49 503.415 815.49 L503.415 817.435 Q497.332 817.25 496.128 817.25 Q494.059 817.25 489.705 817.435 M502.396 801.066 L516.63 801.066 L509.497 780.497 L502.396 801.066 Z" fill="#000000" fill-rule="evenodd" fill-opacity="1" /></svg>
