<?xml version="1.0" encoding="utf-8"?>
<svg xmlns="http://www.w3.org/2000/svg" xmlns:xlink="http://www.w3.org/1999/xlink" width="426.75" height="263.5" viewBox="0 0 1707 1054">
<defs>
  <clipPath id="clip380">
    <rect x="0" y="0" width="1707" height="1054"/>
  </clipPath>
</defs>
<path clip-path="url(#clip380)" d="M0 1054 L1707 1054 L1707 0 L0 0  Z" fill="#ffffff" fill-rule="evenodd" fill-opacity="1"/>
<defs>
  <clipPath id="clip381">
    <rect x="341" y="0" width="1196" height="1054"/>
  </clipPath>
</defs>
<path clip-path="url(#clip380)" d="M262.739 872.688 L1659.76 872.688 L1659.76 47.2528 L262.739 47.2528  Z" fill="#ffffff" fill-rule="evenodd" fill-opacity="1"/>
<defs>
  <clipPath id="clip382">
    <rect x="262" y="47" width="1398" height="826"/>
  </clipPath>
</defs>
<polyline clip-path="url(#clip382)" style="stroke:#000000; stroke-linecap:round; stroke-linejoin:round; stroke-width:2.00037; stroke-opacity:0.1; fill:none" points="302.278,872.688 302.278,47.2528 "/>
<polyline clip-path="url(#clip382)" style="stroke:#000000; stroke-linecap:round; stroke-linejoin:round; stroke-width:2.00037; stroke-opacity:0.1; fill:none" points="631.764,872.688 631.764,47.2528 "/>
<polyline clip-path="url(#clip382)" style="stroke:#000000; stroke-linecap:round; stroke-linejoin:round; stroke-width:2.00037; stroke-opacity:0.1; fill:none" points="961.25,872.688 961.25,47.2528 "/>
<polyline clip-path="url(#clip382)" style="stroke:#000000; stroke-linecap:round; stroke-linejoin:round; stroke-width:2.00037; stroke-opacity:0.1; fill:none" points="1290.74,872.688 1290.74,47.2528 "/>
<polyline clip-path="url(#clip382)" style="stroke:#000000; stroke-linecap:round; stroke-linejoin:round; stroke-width:2.00037; stroke-opacity:0.1; fill:none" points="1620.22,872.688 1620.22,47.2528 "/>
<polyline clip-path="url(#clip380)" style="stroke:#000000; stroke-linecap:round; stroke-linejoin:round; stroke-width:4.00074; stroke-opacity:1; fill:none" points="262.739,872.688 1659.76,872.688 "/>
<polyline clip-path="url(#clip380)" style="stroke:#000000; stroke-linecap:round; stroke-linejoin:round; stroke-width:4.00074; stroke-opacity:1; fill:none" points="262.739,47.2528 1659.76,47.2528 "/>
<polyline clip-path="url(#clip380)" style="stroke:#000000; stroke-linecap:round; stroke-linejoin:round; stroke-width:4.00074; stroke-opacity:1; fill:none" points="302.278,872.688 302.278,853.787 "/>
<polyline clip-path="url(#clip380)" style="stroke:#000000; stroke-linecap:round; stroke-linejoin:round; stroke-width:4.00074; stroke-opacity:1; fill:none" points="631.764,872.688 631.764,853.787 "/>
<polyline clip-path="url(#clip380)" style="stroke:#000000; stroke-linecap:round; stroke-linejoin:round; stroke-width:4.00074; stroke-opacity:1; fill:none" points="961.25,872.688 961.25,853.787 "/>
<polyline clip-path="url(#clip380)" style="stroke:#000000; stroke-linecap:round; stroke-linejoin:round; stroke-width:4.00074; stroke-opacity:1; fill:none" points="1290.74,872.688 1290.74,853.787 "/>
<polyline clip-path="url(#clip380)" style="stroke:#000000; stroke-linecap:round; stroke-linejoin:round; stroke-width:4.00074; stroke-opacity:1; fill:none" points="1620.22,872.688 1620.22,853.787 "/>
<path clip-path="url(#clip380)" d="M260.587 923.507 Q260.587 913.281 263.168 907.709 Q266.768 899.419 275.259 899.419 Q277.059 899.419 278.927 899.929 Q280.829 900.405 283.207 902.273 Q285.618 904.142 287.079 907.199 Q289.864 913.111 289.864 923.507 Q289.864 933.665 287.283 939.202 Q283.513 947.288 275.191 947.288 Q272.067 947.288 268.874 945.691 Q265.715 944.094 263.712 940.255 Q260.587 934.514 260.587 923.507 M266.361 922.657 Q266.361 933.155 267.108 937.334 Q267.957 941.852 270.267 943.823 Q272.61 945.759 275.191 945.759 Q277.976 945.759 280.286 943.687 Q282.629 941.58 283.343 937.062 Q284.124 932.611 284.09 922.657 Q284.09 912.975 283.411 909.102 Q282.494 904.583 280.048 902.783 Q277.637 900.948 275.191 900.948 Q274.274 900.948 273.289 901.22 Q272.338 901.492 270.946 902.273 Q269.553 903.055 268.467 904.991 Q267.414 906.928 266.904 909.849 Q266.361 913.62 266.361 922.657 Z" fill="#000000" fill-rule="evenodd" fill-opacity="1" /><path clip-path="url(#clip380)" d="M299.611 944.638 Q298.559 943.517 298.559 942.056 Q298.559 940.595 299.611 939.542 Q300.664 938.455 302.261 938.455 Q303.789 938.455 304.808 939.474 Q305.861 940.459 305.861 942.09 Q305.861 943.687 304.74 944.74 Q303.653 945.759 302.261 945.759 Q300.664 945.759 299.611 944.638 Z" fill="#000000" fill-rule="evenodd" fill-opacity="1" /><path clip-path="url(#clip380)" d="M314.691 923.507 Q314.691 913.281 317.273 907.709 Q320.873 899.419 329.364 899.419 Q331.164 899.419 333.032 899.929 Q334.934 900.405 337.311 902.273 Q339.723 904.142 341.183 907.199 Q343.968 913.111 343.968 923.507 Q343.968 933.665 341.387 939.202 Q337.617 947.288 329.296 947.288 Q326.171 947.288 322.978 945.691 Q319.82 944.094 317.816 940.255 Q314.691 934.514 314.691 923.507 M320.465 922.657 Q320.465 933.155 321.212 937.334 Q322.061 941.852 324.371 943.823 Q326.715 945.759 329.296 945.759 Q332.081 945.759 334.39 943.687 Q336.734 941.58 337.447 937.062 Q338.228 932.611 338.194 922.657 Q338.194 912.975 337.515 909.102 Q336.598 904.583 334.153 902.783 Q331.741 900.948 329.296 900.948 Q328.379 900.948 327.394 901.22 Q326.443 901.492 325.05 902.273 Q323.658 903.055 322.571 904.991 Q321.518 906.928 321.009 909.849 Q320.465 913.62 320.465 922.657 Z" fill="#000000" fill-rule="evenodd" fill-opacity="1" /><path clip-path="url(#clip380)" d="M590.447 923.507 Q590.447 913.281 593.028 907.709 Q596.628 899.419 605.119 899.419 Q606.919 899.419 608.787 899.929 Q610.689 900.405 613.067 902.273 Q615.478 904.142 616.938 907.199 Q619.724 913.111 619.724 923.507 Q619.724 933.665 617.142 939.202 Q613.372 947.288 605.051 947.288 Q601.926 947.288 598.734 945.691 Q595.575 944.094 593.571 940.255 Q590.447 934.514 590.447 923.507 M596.221 922.657 Q596.221 933.155 596.968 937.334 Q597.817 941.852 600.126 943.823 Q602.47 945.759 605.051 945.759 Q607.836 945.759 610.146 943.687 Q612.489 941.58 613.202 937.062 Q613.984 932.611 613.95 922.657 Q613.95 912.975 613.27 909.102 Q612.353 904.583 609.908 902.783 Q607.497 900.948 605.051 900.948 Q604.134 900.948 603.149 901.22 Q602.198 901.492 600.806 902.273 Q599.413 903.055 598.326 904.991 Q597.273 906.928 596.764 909.849 Q596.221 913.62 596.221 922.657 Z" fill="#000000" fill-rule="evenodd" fill-opacity="1" /><path clip-path="url(#clip380)" d="M629.471 944.638 Q628.418 943.517 628.418 942.056 Q628.418 940.595 629.471 939.542 Q630.524 938.455 632.12 938.455 Q633.649 938.455 634.668 939.474 Q635.72 940.459 635.72 942.09 Q635.72 943.687 634.6 944.74 Q633.513 945.759 632.12 945.759 Q630.524 945.759 629.471 944.638 Z" fill="#000000" fill-rule="evenodd" fill-opacity="1" /><path clip-path="url(#clip380)" d="M645.298 934.548 Q645.298 932.476 646.419 931.694 Q647.54 930.879 648.729 930.879 Q650.325 930.879 651.242 931.898 Q652.193 932.883 652.193 934.276 Q652.193 935.669 651.242 936.688 Q650.325 937.674 648.729 937.674 Q647.947 937.674 647.54 937.538 Q648.457 940.731 651.242 943.041 Q654.061 945.351 657.763 945.351 Q662.416 945.351 665.201 940.833 Q666.865 937.911 666.865 931.287 Q666.865 925.443 665.609 922.521 Q663.673 918.071 659.699 918.071 Q654.061 918.071 650.732 922.929 Q650.325 923.541 649.849 923.575 Q649.17 923.575 649 923.201 Q648.864 922.793 648.864 921.74 L648.864 901.152 Q648.864 899.487 649.544 899.487 Q649.815 899.487 650.393 899.691 Q654.774 901.628 659.631 901.662 Q664.624 901.662 669.107 899.623 Q669.447 899.419 669.65 899.419 Q670.33 899.419 670.364 900.201 Q670.364 900.473 669.786 901.288 Q669.243 902.069 668.054 903.123 Q666.865 904.142 665.337 905.127 Q663.809 906.112 661.567 906.792 Q659.359 907.437 656.914 907.437 Q653.993 907.437 651.004 906.52 L651.004 920.075 Q654.604 916.542 659.835 916.542 Q665.405 916.542 669.243 921.027 Q673.081 925.511 673.081 931.762 Q673.081 938.319 668.53 942.803 Q664.012 947.288 657.899 947.288 Q652.329 947.288 648.797 943.313 Q645.298 939.338 645.298 934.548 Z" fill="#000000" fill-rule="evenodd" fill-opacity="1" /><path clip-path="url(#clip380)" d="M921.291 906.044 L921.291 903.87 Q929.647 903.87 933.96 899.419 Q935.149 899.419 935.352 899.691 Q935.556 899.963 935.556 901.22 L935.556 940.255 Q935.556 942.328 936.575 942.973 Q937.594 943.619 942.043 943.619 L944.251 943.619 L944.251 945.759 Q941.806 945.555 932.975 945.555 Q924.144 945.555 921.733 945.759 L921.733 943.619 L923.941 943.619 Q928.322 943.619 929.375 943.007 Q930.428 942.362 930.428 940.255 L930.428 904.21 Q926.794 906.044 921.291 906.044 Z" fill="#000000" fill-rule="evenodd" fill-opacity="1" /><path clip-path="url(#clip380)" d="M956.852 944.638 Q955.799 943.517 955.799 942.056 Q955.799 940.595 956.852 939.542 Q957.904 938.455 959.501 938.455 Q961.029 938.455 962.048 939.474 Q963.101 940.459 963.101 942.09 Q963.101 943.687 961.98 944.74 Q960.893 945.759 959.501 945.759 Q957.904 945.759 956.852 944.638 Z" fill="#000000" fill-rule="evenodd" fill-opacity="1" /><path clip-path="url(#clip380)" d="M971.931 923.507 Q971.931 913.281 974.513 907.709 Q978.113 899.419 986.604 899.419 Q988.404 899.419 990.272 899.929 Q992.174 900.405 994.551 902.273 Q996.963 904.142 998.423 907.199 Q1001.21 913.111 1001.21 923.507 Q1001.21 933.665 998.627 939.202 Q994.857 947.288 986.536 947.288 Q983.411 947.288 980.219 945.691 Q977.06 944.094 975.056 940.255 Q971.931 934.514 971.931 923.507 M977.705 922.657 Q977.705 933.155 978.453 937.334 Q979.302 941.852 981.611 943.823 Q983.955 945.759 986.536 945.759 Q989.321 945.759 991.63 943.687 Q993.974 941.58 994.687 937.062 Q995.468 932.611 995.434 922.657 Q995.434 912.975 994.755 909.102 Q993.838 904.583 991.393 902.783 Q988.981 900.948 986.536 900.948 Q985.619 900.948 984.634 901.22 Q983.683 901.492 982.29 902.273 Q980.898 903.055 979.811 904.991 Q978.758 906.928 978.249 909.849 Q977.705 913.62 977.705 922.657 Z" fill="#000000" fill-rule="evenodd" fill-opacity="1" /><path clip-path="url(#clip380)" d="M1251.15 906.044 L1251.15 903.87 Q1259.51 903.87 1263.82 899.419 Q1265.01 899.419 1265.21 899.691 Q1265.42 899.963 1265.42 901.22 L1265.42 940.255 Q1265.42 942.328 1266.43 942.973 Q1267.45 943.619 1271.9 943.619 L1274.11 943.619 L1274.11 945.759 Q1271.67 945.555 1262.83 945.555 Q1254 945.555 1251.59 945.759 L1251.59 943.619 L1253.8 943.619 Q1258.18 943.619 1259.23 943.007 Q1260.29 942.362 1260.29 940.255 L1260.29 904.21 Q1256.65 906.044 1251.15 906.044 Z" fill="#000000" fill-rule="evenodd" fill-opacity="1" /><path clip-path="url(#clip380)" d="M1286.71 944.638 Q1285.66 943.517 1285.66 942.056 Q1285.66 940.595 1286.71 939.542 Q1287.76 938.455 1289.36 938.455 Q1290.89 938.455 1291.91 939.474 Q1292.96 940.459 1292.96 942.09 Q1292.96 943.687 1291.84 944.74 Q1290.75 945.759 1289.36 945.759 Q1287.76 945.759 1286.71 944.638 Z" fill="#000000" fill-rule="evenodd" fill-opacity="1" /><path clip-path="url(#clip380)" d="M1302.54 934.548 Q1302.54 932.476 1303.66 931.694 Q1304.78 930.879 1305.97 930.879 Q1307.57 930.879 1308.48 931.898 Q1309.43 932.883 1309.43 934.276 Q1309.43 935.669 1308.48 936.688 Q1307.57 937.674 1305.97 937.674 Q1305.19 937.674 1304.78 937.538 Q1305.7 940.731 1308.48 943.041 Q1311.3 945.351 1315 945.351 Q1319.66 945.351 1322.44 940.833 Q1324.11 937.911 1324.11 931.287 Q1324.11 925.443 1322.85 922.521 Q1320.91 918.071 1316.94 918.071 Q1311.3 918.071 1307.97 922.929 Q1307.57 923.541 1307.09 923.575 Q1306.41 923.575 1306.24 923.201 Q1306.1 922.793 1306.1 921.74 L1306.1 901.152 Q1306.1 899.487 1306.78 899.487 Q1307.06 899.487 1307.63 899.691 Q1312.01 901.628 1316.87 901.662 Q1321.86 901.662 1326.35 899.623 Q1326.69 899.419 1326.89 899.419 Q1327.57 899.419 1327.6 900.201 Q1327.6 900.473 1327.03 901.288 Q1326.48 902.069 1325.29 903.123 Q1324.11 904.142 1322.58 905.127 Q1321.05 906.112 1318.81 906.792 Q1316.6 907.437 1314.15 907.437 Q1311.23 907.437 1308.24 906.52 L1308.24 920.075 Q1311.84 916.542 1317.07 916.542 Q1322.65 916.542 1326.48 921.027 Q1330.32 925.511 1330.32 931.762 Q1330.32 938.319 1325.77 942.803 Q1321.25 947.288 1315.14 947.288 Q1309.57 947.288 1306.04 943.313 Q1302.54 939.338 1302.54 934.548 Z" fill="#000000" fill-rule="evenodd" fill-opacity="1" /><path clip-path="url(#clip380)" d="M1578.91 945.759 Q1578.91 944.502 1579.01 944.128 Q1579.14 943.755 1579.69 943.177 L1593.03 928.297 Q1600.34 920.075 1600.34 912.907 Q1600.34 908.253 1597.89 904.923 Q1595.48 901.594 1591.03 901.594 Q1587.97 901.594 1585.39 903.462 Q1582.81 905.331 1581.62 908.66 Q1581.83 908.592 1582.54 908.592 Q1584.27 908.592 1585.22 909.679 Q1586.21 910.767 1586.21 912.227 Q1586.21 914.096 1584.98 915.013 Q1583.8 915.897 1582.61 915.897 Q1582.13 915.897 1581.49 915.795 Q1580.88 915.693 1579.89 914.741 Q1578.91 913.756 1578.91 912.024 Q1578.91 907.165 1582.57 903.292 Q1586.28 899.419 1591.91 899.419 Q1598.3 899.419 1602.48 903.224 Q1606.69 906.996 1606.69 912.907 Q1606.69 914.979 1606.04 916.882 Q1605.43 918.75 1604.58 920.211 Q1603.77 921.672 1601.53 924.016 Q1599.28 926.36 1597.48 928.025 Q1595.68 929.69 1591.64 933.223 L1584.27 940.391 L1596.8 940.391 Q1602.92 940.391 1603.39 939.848 Q1604.07 938.863 1604.92 933.665 L1606.69 933.665 L1604.72 945.759 L1578.91 945.759 Z" fill="#000000" fill-rule="evenodd" fill-opacity="1" /><path clip-path="url(#clip380)" d="M1617.18 944.638 Q1616.13 943.517 1616.13 942.056 Q1616.13 940.595 1617.18 939.542 Q1618.24 938.455 1619.83 938.455 Q1621.36 938.455 1622.38 939.474 Q1623.43 940.459 1623.43 942.09 Q1623.43 943.687 1622.31 944.74 Q1621.22 945.759 1619.83 945.759 Q1618.24 945.759 1617.18 944.638 Z" fill="#000000" fill-rule="evenodd" fill-opacity="1" /><path clip-path="url(#clip380)" d="M1632.26 923.507 Q1632.26 913.281 1634.84 907.709 Q1638.44 899.419 1646.93 899.419 Q1648.73 899.419 1650.6 899.929 Q1652.5 900.405 1654.88 902.273 Q1657.29 904.142 1658.75 907.199 Q1661.54 913.111 1661.54 923.507 Q1661.54 933.665 1658.96 939.202 Q1655.19 947.288 1646.87 947.288 Q1643.74 947.288 1640.55 945.691 Q1637.39 944.094 1635.39 940.255 Q1632.26 934.514 1632.26 923.507 M1638.04 922.657 Q1638.04 933.155 1638.78 937.334 Q1639.63 941.852 1641.94 943.823 Q1644.29 945.759 1646.87 945.759 Q1649.65 945.759 1651.96 943.687 Q1654.3 941.58 1655.02 937.062 Q1655.8 932.611 1655.77 922.657 Q1655.77 912.975 1655.09 909.102 Q1654.17 904.583 1651.72 902.783 Q1649.31 900.948 1646.87 900.948 Q1645.95 900.948 1644.96 901.22 Q1644.01 901.492 1642.62 902.273 Q1641.23 903.055 1640.14 904.991 Q1639.09 906.928 1638.58 909.849 Q1638.04 913.62 1638.04 922.657 Z" fill="#000000" fill-rule="evenodd" fill-opacity="1" /><path clip-path="url(#clip380)" d="M877.402 997.494 L878.847 980.445 L925.199 980.445 L926.644 997.494 L924.754 997.494 Q924.458 994.084 924.161 992.12 Q923.902 990.156 923.235 988.303 Q922.605 986.412 921.79 985.523 Q921.012 984.596 919.493 983.892 Q917.974 983.151 916.01 982.966 Q914.046 982.78 911.082 982.78 Q907.599 982.78 906.747 982.929 Q905.821 983.151 905.599 983.818 Q905.376 984.448 905.376 985.819 L905.376 1025.81 Q905.376 1027.33 905.673 1027.96 Q906.006 1028.55 907.748 1029.03 Q909.489 1029.48 913.342 1029.48 L916.381 1029.48 L916.381 1031.81 Q913.268 1031.59 901.968 1031.59 Q890.741 1031.59 887.629 1031.81 L887.629 1029.48 L890.667 1029.48 Q894.52 1029.48 896.262 1029.03 Q898.04 1028.55 898.336 1027.96 Q898.633 1027.33 898.633 1025.81 L898.633 985.819 Q898.633 984.745 898.559 984.3 Q898.485 983.855 898.151 983.485 Q897.818 983.077 897.04 982.929 Q896.299 982.78 892.964 982.78 Q890 982.78 887.999 982.966 Q886.035 983.151 884.516 983.892 Q882.997 984.596 882.182 985.523 Q881.404 986.412 880.737 988.303 Q880.107 990.156 879.848 992.12 Q879.588 994.084 879.292 997.494 L877.402 997.494 Z" fill="#000000" fill-rule="evenodd" fill-opacity="1" /><path clip-path="url(#clip380)" d="M931.942 1031.81 L931.942 1029.48 Q935.981 1029.48 936.907 1029 Q937.833 1028.48 937.833 1026.03 L937.833 1005.61 Q937.833 1002.79 936.87 1002.13 Q935.944 1001.46 932.239 1001.46 L932.239 999.088 L942.835 998.272 L942.835 1026.11 Q942.835 1028.37 943.65 1028.92 Q944.466 1029.48 948.171 1029.48 L948.171 1031.81 Q940.427 1031.59 940.279 1031.59 Q939.241 1031.59 931.942 1031.81 M935.129 985.041 Q935.129 983.522 936.277 982.299 Q937.463 981.038 939.13 981.038 Q940.797 981.038 941.983 982.187 Q943.169 983.299 943.169 985.078 Q943.169 986.82 941.983 987.969 Q940.797 989.081 939.13 989.081 Q937.389 989.081 936.24 987.858 Q935.129 986.635 935.129 985.041 Z" fill="#000000" fill-rule="evenodd" fill-opacity="1" /><path clip-path="url(#clip380)" d="M952.876 1031.81 L952.876 1029.48 Q956.915 1029.48 957.841 1029 Q958.767 1028.48 958.767 1026.03 L958.767 1005.68 Q958.767 1002.87 957.767 1002.16 Q956.804 1001.46 952.876 1001.46 L952.876 999.088 L963.547 998.272 L963.547 1006.24 Q967.104 998.272 974.774 998.272 Q983.666 998.272 984.889 1005.68 Q986.185 1002.79 988.89 1000.53 Q991.632 998.272 995.893 998.272 Q1001.6 998.272 1003.86 1001.09 Q1005.53 1002.98 1005.86 1005.09 Q1006.19 1007.2 1006.19 1012.69 L1006.19 1027.18 Q1006.27 1028.77 1007.49 1029.14 Q1008.71 1029.48 1012.12 1029.48 L1012.12 1031.81 Q1004.38 1031.59 1003.64 1031.59 Q1003.04 1031.59 995.041 1031.81 L995.041 1029.48 Q999.079 1029.48 1000.01 1029 Q1000.97 1028.48 1000.97 1026.03 L1000.97 1008.35 Q1000.97 1004.5 999.783 1002.24 Q998.598 999.94 995.337 999.94 Q991.41 999.94 988.26 1003.24 Q985.111 1006.54 985.111 1012.1 L985.111 1026.03 Q985.111 1028.48 986.037 1029 Q987.001 1029.48 991.039 1029.48 L991.039 1031.81 Q983.295 1031.59 982.517 1031.59 Q981.925 1031.59 973.958 1031.81 L973.958 1029.48 Q977.997 1029.48 978.923 1029 Q979.887 1028.48 979.887 1026.03 L979.887 1008.35 Q979.887 1004.5 978.701 1002.24 Q977.515 999.94 974.255 999.94 Q970.327 999.94 967.178 1003.24 Q964.029 1006.54 964.029 1012.1 L964.029 1026.03 Q964.029 1028.48 964.955 1029 Q965.918 1029.48 969.92 1029.48 L969.92 1031.81 Q962.176 1031.59 961.435 1031.59 Q960.842 1031.59 952.876 1031.81 Z" fill="#000000" fill-rule="evenodd" fill-opacity="1" /><path clip-path="url(#clip380)" d="M1015.72 1015.1 Q1015.72 1007.95 1020.31 1002.87 Q1024.9 997.79 1031.5 997.79 Q1038.17 997.79 1041.61 1002.13 Q1045.1 1006.46 1045.1 1012.69 Q1045.1 1013.84 1044.8 1014.06 Q1044.5 1014.28 1043.21 1014.28 L1022.01 1014.28 Q1022.01 1022.03 1024.31 1025.66 Q1027.5 1030.74 1032.87 1030.74 Q1033.61 1030.74 1034.5 1030.59 Q1035.39 1030.44 1037.21 1029.81 Q1039.02 1029.14 1040.61 1027.4 Q1042.21 1025.66 1043.13 1022.92 Q1043.36 1021.84 1044.1 1021.88 Q1045.1 1021.88 1045.1 1022.77 Q1045.1 1023.44 1044.36 1024.96 Q1043.65 1026.44 1042.28 1028.22 Q1040.91 1030 1038.24 1031.33 Q1035.61 1032.67 1032.43 1032.67 Q1025.76 1032.67 1020.72 1027.63 Q1015.72 1022.55 1015.72 1015.1 M1022.09 1012.69 L1040.1 1012.69 Q1040.1 1011.1 1039.8 1009.32 Q1039.54 1007.54 1038.72 1005.09 Q1037.95 1002.61 1036.09 1001.05 Q1034.24 999.495 1031.5 999.495 Q1030.28 999.495 1028.94 1000.01 Q1027.65 1000.53 1026.05 1001.79 Q1024.46 1003.05 1023.35 1005.91 Q1022.24 1008.76 1022.09 1012.69 Z" fill="#000000" fill-rule="evenodd" fill-opacity="1" /><polyline clip-path="url(#clip382)" style="stroke:#000000; stroke-linecap:round; stroke-linejoin:round; stroke-width:2.00037; stroke-opacity:0.1; fill:none" points="262.739,776.65 1659.76,776.65 "/>
<polyline clip-path="url(#clip382)" style="stroke:#000000; stroke-linecap:round; stroke-linejoin:round; stroke-width:2.00037; stroke-opacity:0.1; fill:none" points="262.739,635.443 1659.76,635.443 "/>
<polyline clip-path="url(#clip382)" style="stroke:#000000; stroke-linecap:round; stroke-linejoin:round; stroke-width:2.00037; stroke-opacity:0.1; fill:none" points="262.739,494.236 1659.76,494.236 "/>
<polyline clip-path="url(#clip382)" style="stroke:#000000; stroke-linecap:round; stroke-linejoin:round; stroke-width:2.00037; stroke-opacity:0.1; fill:none" points="262.739,353.029 1659.76,353.029 "/>
<polyline clip-path="url(#clip382)" style="stroke:#000000; stroke-linecap:round; stroke-linejoin:round; stroke-width:2.00037; stroke-opacity:0.1; fill:none" points="262.739,211.821 1659.76,211.821 "/>
<polyline clip-path="url(#clip382)" style="stroke:#000000; stroke-linecap:round; stroke-linejoin:round; stroke-width:2.00037; stroke-opacity:0.1; fill:none" points="262.739,70.6142 1659.76,70.6142 "/>
<polyline clip-path="url(#clip380)" style="stroke:#000000; stroke-linecap:round; stroke-linejoin:round; stroke-width:4.00074; stroke-opacity:1; fill:none" points="262.739,872.688 262.739,47.2528 "/>
<polyline clip-path="url(#clip380)" style="stroke:#000000; stroke-linecap:round; stroke-linejoin:round; stroke-width:4.00074; stroke-opacity:1; fill:none" points="1659.76,872.688 1659.76,47.2528 "/>
<polyline clip-path="url(#clip380)" style="stroke:#000000; stroke-linecap:round; stroke-linejoin:round; stroke-width:4.00074; stroke-opacity:1; fill:none" points="262.739,776.65 281.635,776.65 "/>
<polyline clip-path="url(#clip380)" style="stroke:#000000; stroke-linecap:round; stroke-linejoin:round; stroke-width:4.00074; stroke-opacity:1; fill:none" points="262.739,635.443 281.635,635.443 "/>
<polyline clip-path="url(#clip380)" style="stroke:#000000; stroke-linecap:round; stroke-linejoin:round; stroke-width:4.00074; stroke-opacity:1; fill:none" points="262.739,494.236 281.635,494.236 "/>
<polyline clip-path="url(#clip380)" style="stroke:#000000; stroke-linecap:round; stroke-linejoin:round; stroke-width:4.00074; stroke-opacity:1; fill:none" points="262.739,353.029 281.635,353.029 "/>
<polyline clip-path="url(#clip380)" style="stroke:#000000; stroke-linecap:round; stroke-linejoin:round; stroke-width:4.00074; stroke-opacity:1; fill:none" points="262.739,211.821 281.635,211.821 "/>
<polyline clip-path="url(#clip380)" style="stroke:#000000; stroke-linecap:round; stroke-linejoin:round; stroke-width:4.00074; stroke-opacity:1; fill:none" points="262.739,70.6142 281.635,70.6142 "/>
<path clip-path="url(#clip380)" d="M118.974 778.162 Q118.974 767.936 121.555 762.365 Q125.155 754.075 133.646 754.075 Q135.447 754.075 137.315 754.585 Q139.216 755.06 141.594 756.929 Q144.005 758.797 145.466 761.855 Q148.251 767.766 148.251 778.162 Q148.251 788.32 145.67 793.858 Q141.9 801.944 133.578 801.944 Q130.454 801.944 127.261 800.347 Q124.103 798.75 122.099 794.911 Q118.974 789.17 118.974 778.162 M124.748 777.313 Q124.748 787.811 125.495 791.989 Q126.344 796.508 128.654 798.478 Q130.997 800.415 133.578 800.415 Q136.364 800.415 138.673 798.342 Q141.017 796.236 141.73 791.718 Q142.511 787.267 142.477 777.313 Q142.477 767.63 141.798 763.757 Q140.881 759.239 138.435 757.438 Q136.024 755.604 133.578 755.604 Q132.661 755.604 131.677 755.876 Q130.726 756.147 129.333 756.929 Q127.94 757.71 126.854 759.647 Q125.801 761.583 125.291 764.505 Q124.748 768.276 124.748 777.313 Z" fill="#000000" fill-rule="evenodd" fill-opacity="1" /><path clip-path="url(#clip380)" d="M157.998 799.294 Q156.946 798.172 156.946 796.712 Q156.946 795.251 157.998 794.198 Q159.051 793.11 160.648 793.11 Q162.176 793.11 163.195 794.13 Q164.248 795.115 164.248 796.746 Q164.248 798.342 163.127 799.396 Q162.04 800.415 160.648 800.415 Q159.051 800.415 157.998 799.294 Z" fill="#000000" fill-rule="evenodd" fill-opacity="1" /><path clip-path="url(#clip380)" d="M173.282 769.737 Q173.282 766.034 174.369 763.52 Q175.456 760.972 177.731 758.458 Q181.909 754.075 187.955 754.075 Q190.536 754.075 192.811 755.162 Q195.121 756.249 197.295 758.729 Q199.502 761.175 200.827 766.034 Q202.151 770.858 202.151 777.517 Q202.151 788.286 196.921 795.115 Q191.725 801.944 184.694 801.944 Q180.245 801.944 177.63 799.939 Q175.014 797.901 175.014 794.435 Q175.014 792.635 176.033 791.887 Q177.052 791.106 178.207 791.106 Q179.464 791.106 180.449 791.955 Q181.434 792.771 181.434 794.3 Q181.434 795.557 180.618 796.542 Q179.837 797.493 177.799 797.493 Q179.803 800.007 184.626 800.007 Q186.358 800.007 188.09 799.226 Q189.823 798.41 191.691 796.474 Q193.593 794.503 194.747 790.393 Q195.902 786.282 195.902 780.506 L195.902 778.298 Q193.117 785.263 187.207 785.263 Q181.366 785.263 177.324 780.778 Q173.282 776.294 173.282 769.737 M179.532 769.805 Q179.532 776.701 180.788 779.249 Q182.928 783.632 187.275 783.632 Q191.521 783.632 193.627 779.861 Q195.766 776.056 195.766 771.13 Q195.766 764.301 194.645 761.311 Q192.574 755.808 187.955 755.808 Q183.369 755.808 180.992 760.19 Q179.532 762.772 179.532 769.805 Z" fill="#000000" fill-rule="evenodd" fill-opacity="1" /><path clip-path="url(#clip380)" d="M207.857 778.162 Q207.857 767.936 210.439 762.365 Q214.039 754.075 222.53 754.075 Q224.33 754.075 226.198 754.585 Q228.1 755.06 230.477 756.929 Q232.889 758.797 234.349 761.855 Q237.134 767.766 237.134 778.162 Q237.134 788.32 234.553 793.858 Q230.783 801.944 222.462 801.944 Q219.337 801.944 216.145 800.347 Q212.986 798.75 210.982 794.911 Q207.857 789.17 207.857 778.162 M213.631 777.313 Q213.631 787.811 214.378 791.989 Q215.228 796.508 217.537 798.478 Q219.881 800.415 222.462 800.415 Q225.247 800.415 227.556 798.342 Q229.9 796.236 230.613 791.718 Q231.394 787.267 231.36 777.313 Q231.36 767.63 230.681 763.757 Q229.764 759.239 227.319 757.438 Q224.907 755.604 222.462 755.604 Q221.545 755.604 220.56 755.876 Q219.609 756.147 218.216 756.929 Q216.824 757.71 215.737 759.647 Q214.684 761.583 214.175 764.505 Q213.631 768.276 213.631 777.313 Z" fill="#000000" fill-rule="evenodd" fill-opacity="1" /><path clip-path="url(#clip380)" d="M119.721 636.955 Q119.721 626.729 122.303 621.157 Q125.903 612.868 134.394 612.868 Q136.194 612.868 138.062 613.377 Q139.964 613.853 142.341 615.722 Q144.753 617.59 146.213 620.648 Q148.998 626.559 148.998 636.955 Q148.998 647.113 146.417 652.651 Q142.647 660.736 134.326 660.736 Q131.201 660.736 128.008 659.14 Q124.85 657.543 122.846 653.704 Q119.721 647.962 119.721 636.955 M125.495 636.106 Q125.495 646.603 126.242 650.782 Q127.091 655.301 129.401 657.271 Q131.744 659.207 134.326 659.207 Q137.111 659.207 139.42 657.135 Q141.764 655.029 142.477 650.51 Q143.258 646.06 143.224 636.106 Q143.224 626.423 142.545 622.55 Q141.628 618.032 139.183 616.231 Q136.771 614.397 134.326 614.397 Q133.409 614.397 132.424 614.668 Q131.473 614.94 130.08 615.722 Q128.688 616.503 127.601 618.439 Q126.548 620.376 126.039 623.298 Q125.495 627.069 125.495 636.106 Z" fill="#000000" fill-rule="evenodd" fill-opacity="1" /><path clip-path="url(#clip380)" d="M158.746 658.086 Q157.693 656.965 157.693 655.504 Q157.693 654.044 158.746 652.99 Q159.799 651.903 161.395 651.903 Q162.923 651.903 163.942 652.922 Q164.995 653.908 164.995 655.538 Q164.995 657.135 163.874 658.188 Q162.787 659.207 161.395 659.207 Q159.799 659.207 158.746 658.086 Z" fill="#000000" fill-rule="evenodd" fill-opacity="1" /><path clip-path="url(#clip380)" d="M174.029 628.53 Q174.029 624.826 175.116 622.312 Q176.203 619.764 178.479 617.25 Q182.656 612.868 188.702 612.868 Q191.283 612.868 193.559 613.955 Q195.868 615.042 198.042 617.522 Q200.249 619.968 201.574 624.826 Q202.899 629.651 202.899 636.309 Q202.899 647.079 197.668 653.908 Q192.472 660.736 185.441 660.736 Q180.992 660.736 178.377 658.732 Q175.762 656.693 175.762 653.228 Q175.762 651.428 176.78 650.68 Q177.799 649.899 178.954 649.899 Q180.211 649.899 181.196 650.748 Q182.181 651.563 182.181 653.092 Q182.181 654.349 181.366 655.335 Q180.584 656.286 178.547 656.286 Q180.55 658.8 185.373 658.8 Q187.105 658.8 188.838 658.018 Q190.57 657.203 192.438 655.267 Q194.34 653.296 195.495 649.185 Q196.649 645.075 196.649 639.299 L196.649 637.091 Q193.864 644.055 187.955 644.055 Q182.113 644.055 178.071 639.571 Q174.029 635.086 174.029 628.53 M180.279 628.597 Q180.279 635.494 181.535 638.042 Q183.675 642.425 188.023 642.425 Q192.268 642.425 194.374 638.654 Q196.513 634.849 196.513 629.922 Q196.513 623.094 195.393 620.104 Q193.321 614.6 188.702 614.6 Q184.117 614.6 181.739 618.983 Q180.279 621.565 180.279 628.597 Z" fill="#000000" fill-rule="evenodd" fill-opacity="1" /><path clip-path="url(#clip380)" d="M209.352 659.207 Q209.352 657.95 209.454 657.577 Q209.59 657.203 210.133 656.626 L223.481 641.745 Q230.783 633.524 230.783 626.355 Q230.783 621.701 228.338 618.371 Q225.926 615.042 221.477 615.042 Q218.42 615.042 215.839 616.911 Q213.258 618.779 212.069 622.109 Q212.273 622.041 212.986 622.041 Q214.718 622.041 215.669 623.128 Q216.654 624.215 216.654 625.676 Q216.654 627.544 215.431 628.462 Q214.243 629.345 213.054 629.345 Q212.578 629.345 211.933 629.243 Q211.322 629.141 210.337 628.19 Q209.352 627.205 209.352 625.472 Q209.352 620.614 213.02 616.741 Q216.722 612.868 222.36 612.868 Q228.745 612.868 232.923 616.673 Q237.134 620.444 237.134 626.355 Q237.134 628.428 236.489 630.33 Q235.878 632.199 235.028 633.66 Q234.213 635.12 231.972 637.465 Q229.73 639.809 227.93 641.473 Q226.13 643.138 222.088 646.671 L214.718 653.84 L227.251 653.84 Q233.364 653.84 233.84 653.296 Q234.519 652.311 235.368 647.113 L237.134 647.113 L235.164 659.207 L209.352 659.207 Z" fill="#000000" fill-rule="evenodd" fill-opacity="1" /><path clip-path="url(#clip380)" d="M118.193 495.748 Q118.193 485.522 120.774 479.95 Q124.374 471.661 132.865 471.661 Q134.665 471.661 136.533 472.17 Q138.435 472.646 140.813 474.514 Q143.224 476.383 144.685 479.44 Q147.47 485.352 147.47 495.748 Q147.47 505.906 144.888 511.443 Q141.118 519.529 132.797 519.529 Q129.673 519.529 126.48 517.932 Q123.321 516.336 121.318 512.497 Q118.193 506.755 118.193 495.748 M123.967 494.898 Q123.967 505.396 124.714 509.575 Q125.563 514.093 127.873 516.064 Q130.216 518 132.797 518 Q135.582 518 137.892 515.928 Q140.235 513.822 140.949 509.303 Q141.73 504.853 141.696 494.898 Q141.696 485.216 141.017 481.343 Q140.1 476.825 137.654 475.024 Q135.243 473.189 132.797 473.189 Q131.88 473.189 130.895 473.461 Q129.944 473.733 128.552 474.514 Q127.159 475.296 126.072 477.232 Q125.02 479.169 124.51 482.09 Q123.967 485.861 123.967 494.898 Z" fill="#000000" fill-rule="evenodd" fill-opacity="1" /><path clip-path="url(#clip380)" d="M157.217 516.879 Q156.164 515.758 156.164 514.297 Q156.164 512.836 157.217 511.783 Q158.27 510.696 159.866 510.696 Q161.395 510.696 162.414 511.715 Q163.467 512.7 163.467 514.331 Q163.467 515.928 162.346 516.981 Q161.259 518 159.866 518 Q158.27 518 157.217 516.879 Z" fill="#000000" fill-rule="evenodd" fill-opacity="1" /><path clip-path="url(#clip380)" d="M172.501 487.322 Q172.501 483.619 173.588 481.105 Q174.675 478.557 176.95 476.043 Q181.128 471.661 187.173 471.661 Q189.755 471.661 192.03 472.748 Q194.34 473.835 196.513 476.315 Q198.721 478.761 200.046 483.619 Q201.37 488.443 201.37 495.102 Q201.37 505.872 196.14 512.7 Q190.943 519.529 183.913 519.529 Q179.464 519.529 176.848 517.525 Q174.233 515.486 174.233 512.021 Q174.233 510.22 175.252 509.473 Q176.271 508.692 177.426 508.692 Q178.682 508.692 179.667 509.541 Q180.652 510.356 180.652 511.885 Q180.652 513.142 179.837 514.127 Q179.056 515.079 177.018 515.079 Q179.022 517.593 183.845 517.593 Q185.577 517.593 187.309 516.811 Q189.041 515.996 190.909 514.059 Q192.811 512.089 193.966 507.978 Q195.121 503.867 195.121 498.092 L195.121 495.884 Q192.336 502.848 186.426 502.848 Q180.584 502.848 176.543 498.364 Q172.501 493.879 172.501 487.322 M178.75 487.39 Q178.75 494.287 180.007 496.835 Q182.147 501.217 186.494 501.217 Q190.74 501.217 192.845 497.446 Q194.985 493.641 194.985 488.715 Q194.985 481.887 193.864 478.897 Q191.792 473.393 187.173 473.393 Q182.588 473.393 180.211 477.776 Q178.75 480.358 178.75 487.39 Z" fill="#000000" fill-rule="evenodd" fill-opacity="1" /><path clip-path="url(#clip380)" d="M206.295 506.517 L206.295 504.377 L227.658 471.729 Q228.202 470.879 229.051 470.913 Q229.832 470.913 230.002 471.219 Q230.172 471.525 230.172 472.714 L230.172 504.377 L237.134 504.377 L237.134 506.517 L230.172 506.517 L230.172 512.565 Q230.172 514.569 230.987 515.214 Q231.836 515.86 235.436 515.86 L236.896 515.86 L236.896 518 Q234.043 517.796 227.455 517.796 Q220.899 517.796 218.047 518 L218.047 515.86 L219.507 515.86 Q223.107 515.86 223.956 515.248 Q224.805 514.603 224.805 512.565 L224.805 506.517 L206.295 506.517 M208.265 504.377 L225.213 504.377 L225.213 478.421 L208.265 504.377 Z" fill="#000000" fill-rule="evenodd" fill-opacity="1" /><path clip-path="url(#clip380)" d="M119.178 354.54 Q119.178 344.314 121.759 338.743 Q125.359 330.453 133.85 330.453 Q135.65 330.453 137.518 330.963 Q139.42 331.439 141.798 333.307 Q144.209 335.176 145.67 338.233 Q148.455 344.145 148.455 354.54 Q148.455 364.699 145.873 370.236 Q142.103 378.322 133.782 378.322 Q130.658 378.322 127.465 376.725 Q124.306 375.128 122.303 371.289 Q119.178 365.548 119.178 354.54 M124.952 353.691 Q124.952 364.189 125.699 368.368 Q126.548 372.886 128.858 374.857 Q131.201 376.793 133.782 376.793 Q136.567 376.793 138.877 374.721 Q141.22 372.614 141.934 368.096 Q142.715 363.645 142.681 353.691 Q142.681 344.009 142.002 340.136 Q141.084 335.617 138.639 333.817 Q136.228 331.982 133.782 331.982 Q132.865 331.982 131.88 332.254 Q130.929 332.526 129.537 333.307 Q128.144 334.088 127.057 336.025 Q126.005 337.961 125.495 340.883 Q124.952 344.654 124.952 353.691 Z" fill="#000000" fill-rule="evenodd" fill-opacity="1" /><path clip-path="url(#clip380)" d="M158.202 375.672 Q157.149 374.551 157.149 373.09 Q157.149 371.629 158.202 370.576 Q159.255 369.489 160.851 369.489 Q162.38 369.489 163.399 370.508 Q164.452 371.493 164.452 373.124 Q164.452 374.721 163.331 375.774 Q162.244 376.793 160.851 376.793 Q159.255 376.793 158.202 375.672 Z" fill="#000000" fill-rule="evenodd" fill-opacity="1" /><path clip-path="url(#clip380)" d="M173.486 346.115 Q173.486 342.412 174.573 339.898 Q175.66 337.35 177.935 334.836 Q182.113 330.453 188.158 330.453 Q190.74 330.453 193.015 331.54 Q195.325 332.628 197.498 335.108 Q199.706 337.554 201.031 342.412 Q202.355 347.236 202.355 353.895 Q202.355 364.665 197.125 371.493 Q191.928 378.322 184.898 378.322 Q180.449 378.322 177.833 376.317 Q175.218 374.279 175.218 370.814 Q175.218 369.013 176.237 368.266 Q177.256 367.484 178.411 367.484 Q179.667 367.484 180.652 368.334 Q181.637 369.149 181.637 370.678 Q181.637 371.935 180.822 372.92 Q180.041 373.871 178.003 373.871 Q180.007 376.385 184.83 376.385 Q186.562 376.385 188.294 375.604 Q190.026 374.789 191.894 372.852 Q193.796 370.882 194.951 366.771 Q196.106 362.66 196.106 356.885 L196.106 354.676 Q193.321 361.641 187.411 361.641 Q181.569 361.641 177.528 357.156 Q173.486 352.672 173.486 346.115 M179.735 346.183 Q179.735 353.08 180.992 355.628 Q183.132 360.01 187.479 360.01 Q191.725 360.01 193.83 356.239 Q195.97 352.434 195.97 347.508 Q195.97 340.679 194.849 337.69 Q192.777 332.186 188.158 332.186 Q183.573 332.186 181.196 336.569 Q179.735 339.151 179.735 346.183 Z" fill="#000000" fill-rule="evenodd" fill-opacity="1" /><path clip-path="url(#clip380)" d="M208.265 354.812 Q208.265 343.873 213.835 337.18 Q219.405 330.453 226.571 330.453 Q230.749 330.453 233.059 332.594 Q235.402 334.7 235.402 337.961 Q235.402 339.762 234.349 340.543 Q233.296 341.325 232.209 341.325 Q230.953 341.325 229.968 340.475 Q228.983 339.626 228.983 338.097 Q228.983 334.972 232.821 334.972 Q231.021 332.186 226.707 332.186 Q225.383 332.186 224.024 332.594 Q222.666 332.967 220.899 334.258 Q219.133 335.549 217.775 337.588 Q216.416 339.626 215.465 343.465 Q214.514 347.304 214.514 352.298 L214.514 353.963 Q217.367 347.066 223.209 347.1 Q229.051 347.1 233.093 351.551 Q237.134 356.001 237.134 362.592 Q237.134 369.353 232.923 373.837 Q228.711 378.322 222.801 378.322 Q220.152 378.322 217.741 377.201 Q215.363 376.114 213.122 373.6 Q210.914 371.086 209.59 366.261 Q208.265 361.437 208.265 354.812 M214.65 361.063 Q214.65 367.892 215.907 371.153 Q216.111 371.697 216.552 372.444 Q217.028 373.192 217.809 374.177 Q218.624 375.128 219.949 375.774 Q221.273 376.385 222.801 376.385 Q227.455 376.385 229.696 371.867 Q230.885 369.353 230.885 362.524 Q230.885 355.56 229.628 353.012 Q227.488 348.697 223.141 348.697 Q220.22 348.697 218.182 350.701 Q216.179 352.706 215.397 355.39 Q214.65 358.074 214.65 361.063 Z" fill="#000000" fill-rule="evenodd" fill-opacity="1" /><path clip-path="url(#clip380)" d="M119.178 213.333 Q119.178 203.107 121.759 197.536 Q125.359 189.246 133.85 189.246 Q135.65 189.246 137.518 189.756 Q139.42 190.231 141.798 192.1 Q144.209 193.968 145.67 197.026 Q148.455 202.937 148.455 213.333 Q148.455 223.491 145.873 229.029 Q142.103 237.115 133.782 237.115 Q130.658 237.115 127.465 235.518 Q124.306 233.921 122.303 230.082 Q119.178 224.341 119.178 213.333 M124.952 212.484 Q124.952 222.982 125.699 227.16 Q126.548 231.679 128.858 233.649 Q131.201 235.586 133.782 235.586 Q136.567 235.586 138.877 233.513 Q141.22 231.407 141.934 226.889 Q142.715 222.438 142.681 212.484 Q142.681 202.801 142.002 198.929 Q141.084 194.41 138.639 192.609 Q136.228 190.775 133.782 190.775 Q132.865 190.775 131.88 191.047 Q130.929 191.318 129.537 192.1 Q128.144 192.881 127.057 194.818 Q126.005 196.754 125.495 199.676 Q124.952 203.447 124.952 212.484 Z" fill="#000000" fill-rule="evenodd" fill-opacity="1" /><path clip-path="url(#clip380)" d="M158.202 234.465 Q157.149 233.344 157.149 231.883 Q157.149 230.422 158.202 229.369 Q159.255 228.282 160.851 228.282 Q162.38 228.282 163.399 229.301 Q164.452 230.286 164.452 231.917 Q164.452 233.513 163.331 234.567 Q162.244 235.586 160.851 235.586 Q159.255 235.586 158.202 234.465 Z" fill="#000000" fill-rule="evenodd" fill-opacity="1" /><path clip-path="url(#clip380)" d="M173.486 204.908 Q173.486 201.205 174.573 198.691 Q175.66 196.143 177.935 193.629 Q182.113 189.246 188.158 189.246 Q190.74 189.246 193.015 190.333 Q195.325 191.42 197.498 193.9 Q199.706 196.347 201.031 201.205 Q202.355 206.029 202.355 212.688 Q202.355 223.457 197.125 230.286 Q191.928 237.115 184.898 237.115 Q180.449 237.115 177.833 235.11 Q175.218 233.072 175.218 229.606 Q175.218 227.806 176.237 227.058 Q177.256 226.277 178.411 226.277 Q179.667 226.277 180.652 227.126 Q181.637 227.942 181.637 229.471 Q181.637 230.728 180.822 231.713 Q180.041 232.664 178.003 232.664 Q180.007 235.178 184.83 235.178 Q186.562 235.178 188.294 234.397 Q190.026 233.581 191.894 231.645 Q193.796 229.674 194.951 225.564 Q196.106 221.453 196.106 215.677 L196.106 213.469 Q193.321 220.434 187.411 220.434 Q181.569 220.434 177.528 215.949 Q173.486 211.465 173.486 204.908 M179.735 204.976 Q179.735 211.872 180.992 214.42 Q183.132 218.803 187.479 218.803 Q191.725 218.803 193.83 215.032 Q195.97 211.227 195.97 206.301 Q195.97 199.472 194.849 196.482 Q192.777 190.979 188.158 190.979 Q183.573 190.979 181.196 195.361 Q179.735 197.943 179.735 204.976 Z" fill="#000000" fill-rule="evenodd" fill-opacity="1" /><path clip-path="url(#clip380)" d="M208.265 225.088 Q208.265 217.308 218.284 212.28 Q213.971 209.358 213.19 208.509 Q210.133 205.112 210.133 200.865 Q210.133 196.007 213.801 192.643 Q217.503 189.246 222.734 189.246 Q227.726 189.246 231.496 192.134 Q235.266 195.022 235.266 199.608 Q235.266 206.063 226.843 210.412 Q232.413 213.877 233.738 215.338 Q237.134 219.109 237.134 223.899 Q237.134 229.471 232.855 233.31 Q228.575 237.115 222.666 237.115 Q216.892 237.115 212.578 233.751 Q208.265 230.388 208.265 225.088 M211.729 225.088 Q211.729 229.403 214.956 232.29 Q218.216 235.178 222.734 235.178 Q227.115 235.178 230.375 232.664 Q233.67 230.15 233.67 226.413 Q233.67 224.952 233.16 223.695 Q232.685 222.438 231.7 221.453 Q230.749 220.434 230.138 219.992 Q229.56 219.516 228.439 218.735 L219.881 213.333 Q211.729 217.852 211.729 225.088 M213.19 198.147 Q213.19 201.477 216.688 203.787 L225.315 209.358 Q232.209 205.316 232.209 199.608 Q232.209 195.905 229.39 193.459 Q226.571 190.979 222.666 190.979 Q218.828 190.979 216.009 193.017 Q213.19 195.022 213.19 198.147 Z" fill="#000000" fill-rule="evenodd" fill-opacity="1" /><path clip-path="url(#clip380)" d="M122.438 54.6637 L122.438 52.4894 Q130.793 52.4894 135.107 48.0389 Q136.296 48.0389 136.499 48.3107 Q136.703 48.5824 136.703 49.8395 L136.703 88.8749 Q136.703 90.9473 137.722 91.5927 Q138.741 92.2382 143.19 92.2382 L145.398 92.2382 L145.398 94.3786 Q142.953 94.1747 134.122 94.1747 Q125.291 94.1747 122.88 94.3786 L122.88 92.2382 L125.088 92.2382 Q129.469 92.2382 130.522 91.6267 Q131.575 90.9812 131.575 88.8749 L131.575 52.8291 Q127.94 54.6637 122.438 54.6637 Z" fill="#000000" fill-rule="evenodd" fill-opacity="1" /><path clip-path="url(#clip380)" d="M157.998 93.2574 Q156.946 92.1363 156.946 90.6755 Q156.946 89.2146 157.998 88.1614 Q159.051 87.0743 160.648 87.0743 Q162.176 87.0743 163.195 88.0935 Q164.248 89.0787 164.248 90.7094 Q164.248 92.3062 163.127 93.3594 Q162.04 94.3786 160.648 94.3786 Q159.051 94.3786 157.998 93.2574 Z" fill="#000000" fill-rule="evenodd" fill-opacity="1" /><path clip-path="url(#clip380)" d="M173.078 72.126 Q173.078 61.9 175.66 56.3284 Q179.26 48.0389 187.751 48.0389 Q189.551 48.0389 191.419 48.5485 Q193.321 49.0241 195.698 50.8926 Q198.11 52.7612 199.57 55.8188 Q202.355 61.7301 202.355 72.126 Q202.355 82.284 199.774 87.8217 Q196.004 95.9074 187.683 95.9074 Q184.558 95.9074 181.366 94.3106 Q178.207 92.7139 176.203 88.8749 Q173.078 83.1334 173.078 72.126 M178.852 71.2767 Q178.852 81.7744 179.599 85.9532 Q180.449 90.4716 182.758 92.4421 Q185.102 94.3786 187.683 94.3786 Q190.468 94.3786 192.777 92.3062 Q195.121 90.1998 195.834 85.6814 Q196.615 81.2309 196.581 71.2767 Q196.581 61.5943 195.902 57.7213 Q194.985 53.2028 192.54 51.4022 Q190.128 49.5677 187.683 49.5677 Q186.766 49.5677 185.781 49.8395 Q184.83 50.1113 183.437 50.8926 Q182.045 51.674 180.958 53.6105 Q179.905 55.547 179.396 58.4687 Q178.852 62.2397 178.852 71.2767 Z" fill="#000000" fill-rule="evenodd" fill-opacity="1" /><path clip-path="url(#clip380)" d="M207.857 72.126 Q207.857 61.9 210.439 56.3284 Q214.039 48.0389 222.53 48.0389 Q224.33 48.0389 226.198 48.5485 Q228.1 49.0241 230.477 50.8926 Q232.889 52.7612 234.349 55.8188 Q237.134 61.7301 237.134 72.126 Q237.134 82.284 234.553 87.8217 Q230.783 95.9074 222.462 95.9074 Q219.337 95.9074 216.145 94.3106 Q212.986 92.7139 210.982 88.8749 Q207.857 83.1334 207.857 72.126 M213.631 71.2767 Q213.631 81.7744 214.378 85.9532 Q215.228 90.4716 217.537 92.4421 Q219.881 94.3786 222.462 94.3786 Q225.247 94.3786 227.556 92.3062 Q229.9 90.1998 230.613 85.6814 Q231.394 81.2309 231.36 71.2767 Q231.36 61.5943 230.681 57.7213 Q229.764 53.2028 227.319 51.4022 Q224.907 49.5677 222.462 49.5677 Q221.545 49.5677 220.56 49.8395 Q219.609 50.1113 218.216 50.8926 Q216.824 51.674 215.737 53.6105 Q214.684 55.547 214.175 58.4687 Q213.631 62.2397 213.631 71.2767 Z" fill="#000000" fill-rule="evenodd" fill-opacity="1" /><path clip-path="url(#clip380)" d="M77.0374 585.796 L74.7031 585.796 L74.7031 583.98 Q74.7031 579.866 74.0362 578.939 Q73.3322 577.976 71.1092 577.976 L31.3529 577.976 Q29.1669 577.976 28.5 578.939 Q27.796 579.903 27.796 583.98 L27.796 585.796 L25.4247 585.796 L25.4247 544.138 L42.5054 542.026 L42.5054 543.916 Q38.1704 544.435 35.725 545.139 Q33.2426 545.806 31.2788 547.362 Q29.3151 548.919 28.5741 551.55 Q27.796 554.145 27.796 558.407 L27.796 567.524 Q27.796 570.118 28.3518 570.674 Q28.8705 571.23 30.8342 571.23 L50.0269 571.23 L50.0269 564.707 Q50.0269 559.556 48.1743 558.11 Q46.3217 556.665 41.1345 556.665 L41.1345 554.775 L61.2535 554.775 L61.2535 556.665 Q56.0292 556.665 54.2137 558.11 Q52.3611 559.556 52.3611 564.707 L52.3611 571.23 L71.0351 571.23 Q72.6283 571.23 73.2581 570.971 Q73.851 570.711 74.2956 569.118 Q74.7031 567.524 74.7031 564.04 L74.7031 561.52 L77.0374 561.52 Q76.8151 564.263 76.8151 574.269 Q76.8151 583.127 77.0374 585.796 Z" fill="#000000" fill-rule="evenodd" fill-opacity="1" /><path clip-path="url(#clip380)" d="M77.0374 536.318 L74.7031 536.318 Q74.7031 532.278 74.2215 531.352 Q73.7028 530.425 71.2574 530.425 L50.842 530.425 Q48.0261 530.425 47.3592 531.389 Q46.6922 532.315 46.6922 536.022 L44.321 536.022 L43.5058 525.422 L71.3315 525.422 Q73.5916 525.422 74.1474 524.606 Q74.7031 523.791 74.7031 520.085 L77.0374 520.085 Q76.8151 527.831 76.8151 527.979 Q76.8151 529.017 77.0374 536.318 M30.2785 533.131 Q28.7593 533.131 27.5366 531.982 Q26.2769 530.796 26.2769 529.128 Q26.2769 527.46 27.4255 526.274 Q28.537 525.088 30.3155 525.088 Q32.0569 525.088 33.2055 526.274 Q34.3171 527.46 34.3171 529.128 Q34.3171 530.87 33.0944 532.019 Q31.8717 533.131 30.2785 533.131 Z" fill="#000000" fill-rule="evenodd" fill-opacity="1" /><path clip-path="url(#clip380)" d="M60.7347 515.23 Q53.5097 515.23 48.5078 510.189 Q43.5058 505.149 43.5058 498.33 Q43.5058 492.548 48.2114 488.768 L31.7976 488.768 Q28.9817 488.768 28.2777 489.768 Q27.5737 490.732 27.5737 494.66 L25.2024 494.66 L24.3873 483.727 L70.4422 483.727 Q73.2581 483.727 73.9992 482.764 Q74.7031 481.763 74.7031 477.834 L77.0374 477.834 L77.8896 488.99 L72.8506 488.99 Q77.8525 492.919 77.8896 499.145 Q77.8896 505.668 72.8876 510.449 Q67.8857 515.23 60.7347 515.23 M60.8089 508.929 Q67.8486 508.929 71.3315 506.743 Q76.1852 503.704 76.1852 498.774 Q76.1852 493.141 70.8868 489.805 Q69.59 488.953 68.0709 488.99 L52.5093 488.99 Q50.9902 488.99 49.7305 489.805 Q45.1731 492.919 45.1731 497.996 Q45.1731 503.296 50.0269 506.594 Q53.6579 508.929 60.8089 508.929 Z" fill="#000000" fill-rule="evenodd" fill-opacity="1" /><path clip-path="url(#clip380)" d="M60.3272 473.609 Q53.1763 473.609 48.1002 469.014 Q43.0242 464.418 43.0242 457.821 Q43.0242 451.15 47.3592 447.703 Q51.6942 444.219 57.9188 444.219 Q59.0674 444.219 59.2897 444.516 Q59.512 444.812 59.512 446.109 L59.512 467.309 Q67.2558 467.309 70.8868 465.011 Q75.9629 461.824 75.9629 456.45 Q75.9629 455.708 75.8147 454.819 Q75.6665 453.93 75.0366 452.113 Q74.3697 450.297 72.6283 448.704 Q70.8868 447.11 68.145 446.184 Q67.0705 445.961 67.1076 445.22 Q67.1076 444.219 67.9968 444.219 Q68.6638 444.219 70.1829 444.961 Q71.6649 445.665 73.4434 447.036 Q75.2219 448.407 76.5557 451.076 Q77.8896 453.707 77.8896 456.894 Q77.8896 463.566 72.8506 468.606 Q67.7745 473.609 60.3272 473.609 M57.9188 467.235 L57.9188 449.223 Q56.3256 449.223 54.5472 449.519 Q52.7687 449.779 50.3233 450.594 Q47.8408 451.372 46.2847 453.225 Q44.7285 455.078 44.7285 457.821 Q44.7285 459.044 45.2472 460.378 Q45.766 461.675 47.0257 463.269 Q48.2855 464.863 51.1384 465.975 Q53.9914 467.086 57.9188 467.235 Z" fill="#000000" fill-rule="evenodd" fill-opacity="1" /><path clip-path="url(#clip380)" d="M77.0374 439.512 L74.7031 439.512 Q74.7031 435.473 74.2215 434.546 Q73.7028 433.62 71.2574 433.62 L31.7976 433.62 Q28.9817 433.62 28.2777 434.62 Q27.5737 435.584 27.5737 439.512 L25.2024 439.512 L24.3873 428.616 L71.2574 428.616 Q73.7028 428.616 74.2215 427.653 Q74.7031 426.689 74.7031 422.686 L77.0374 422.686 Q77.0374 423.613 76.9633 425.54 Q76.8892 427.467 76.8521 428.876 Q76.8151 430.284 76.8151 431.099 Q76.8151 431.989 77.0374 439.512 Z" fill="#000000" fill-rule="evenodd" fill-opacity="1" /><path clip-path="url(#clip380)" d="M77.0374 418.498 L74.7031 418.498 Q74.7031 414.459 74.2215 413.532 Q73.7028 412.606 71.2574 412.606 L50.842 412.606 Q48.0261 412.606 47.3592 413.569 Q46.6922 414.496 46.6922 418.202 L44.321 418.202 L43.5058 407.602 L71.3315 407.602 Q73.5916 407.602 74.1474 406.787 Q74.7031 405.971 74.7031 402.265 L77.0374 402.265 Q76.8151 410.011 76.8151 410.159 Q76.8151 411.197 77.0374 418.498 M30.2785 415.311 Q28.7593 415.311 27.5366 414.162 Q26.2769 412.976 26.2769 411.308 Q26.2769 409.641 27.4255 408.455 Q28.537 407.269 30.3155 407.269 Q32.0569 407.269 33.2055 408.455 Q34.3171 409.641 34.3171 411.308 Q34.3171 413.05 33.0944 414.199 Q31.8717 415.311 30.2785 415.311 Z" fill="#000000" fill-rule="evenodd" fill-opacity="1" /><path clip-path="url(#clip380)" d="M46.6922 398.559 L45.0249 398.559 Q44.8767 395.075 42.4313 392.777 Q39.9489 390.443 36.9107 389.664 Q33.8724 388.849 30.3526 388.775 L30.3526 386.885 L44.321 386.885 L44.321 376.025 L46.6922 376.025 L46.6922 386.885 L67.7745 386.885 Q75.9629 386.885 75.9629 381.77 Q75.9629 379.583 73.7398 378.138 Q71.4797 376.693 67.4781 376.693 L63.2913 376.693 L63.2913 374.802 L67.6263 374.802 Q71.739 374.802 74.8143 376.693 Q77.8896 378.583 77.8896 382.326 Q77.8896 383.697 77.5191 385.069 Q77.1856 386.403 76.2964 388.182 Q75.3701 389.924 73.147 391.036 Q70.8868 392.11 67.6263 392.11 L46.6922 392.11 L46.6922 398.559 Z" fill="#000000" fill-rule="evenodd" fill-opacity="1" /><path clip-path="url(#clip380)" d="M86.4485 371.244 Q84.8552 371.244 84.0031 370.318 Q83.1879 369.354 83.1879 368.057 Q83.1879 366.686 84.0401 365.796 Q84.9293 364.87 86.3744 364.87 Q89.1903 364.87 89.5608 367.835 Q90.9317 366.389 90.9317 364.277 Q90.9317 362.016 89.2644 360.2 Q87.597 358.347 86.0038 357.569 Q84.4106 356.753 81.5206 355.604 Q79.2605 354.53 77.0374 353.714 L49.3229 365.092 Q47.5074 365.833 47.0998 366.982 Q46.6922 368.131 46.6922 371.244 L44.321 371.244 Q44.5433 367.835 44.5433 363.869 Q44.5433 361.534 44.321 355.604 L46.6922 355.604 Q46.6922 359.866 48.656 359.866 Q48.8783 359.866 50.0269 359.422 L70.4422 350.972 L51.7683 343.3 Q50.6938 342.855 49.9528 342.855 Q46.8405 342.855 46.6922 346.413 L44.321 346.413 Q44.5433 341.41 44.5433 339.816 Q44.5433 336.703 44.321 334.146 L46.6922 334.146 Q46.6922 339.223 51.546 341.187 L83.929 354.567 Q92.5619 358.199 92.599 364.277 Q92.599 367.168 90.8205 369.206 Q89.0421 371.244 86.4485 371.244 Z" fill="#000000" fill-rule="evenodd" fill-opacity="1" /><polyline clip-path="url(#clip382)" style="stroke:#696969; stroke-linecap:round; stroke-linejoin:round; stroke-width:4.00074; stroke-opacity:1; fill:none" points="302.278,70.6142 1620.22,70.6142 "/>
<path clip-path="url(#clip382)" d="M302.278 70.6142 L335.226 71.4851 L368.175 73.9915 L401.123 77.7055 L434.072 82.0516 L467.021 86.4355 L499.969 90.3729 L532.918 93.5606 L565.866 95.8966 L598.815 97.4259 L631.764 98.2685 L664.712 98.5673 L697.661 98.4516 L730.61 98.0359 L763.558 97.4284 L796.507 96.7265 L829.455 96.0858 L862.404 95.6942 L895.353 95.6782 L928.301 96.1051 L961.25 96.9495 L994.198 98.0839 L1027.15 99.3014 L1060.1 100.361 L1093.04 101.038 L1125.99 101.178 L1158.94 100.723 L1191.89 99.7194 L1224.84 98.1994 L1257.79 96.5088 L1290.74 94.6575 L1323.68 92.716 L1356.63 90.6991 L1389.58 88.5922 L1422.53 86.3946 L1455.48 84.1599 L1488.43 82.018 L1521.38 80.1698 L1554.32 78.8553 L1587.27 78.3049 L1620.22 78.6886 L1620.22 78.6886 L1587.27 78.3049 L1554.32 78.8553 L1521.38 80.1698 L1488.43 82.018 L1455.48 84.1599 L1422.53 86.3946 L1389.58 88.5922 L1356.63 90.6991 L1323.68 92.716 L1290.74 94.6575 L1257.79 96.5088 L1224.84 98.1994 L1191.89 99.7194 L1158.94 100.723 L1125.99 101.178 L1093.04 101.038 L1060.1 100.361 L1027.15 99.3014 L994.198 98.0839 L961.25 96.9495 L928.301 96.1051 L895.353 95.6782 L862.404 95.6942 L829.455 96.0858 L796.507 96.7265 L763.558 97.4284 L730.61 98.0359 L697.661 98.4516 L664.712 98.5673 L631.764 98.2685 L598.815 97.4259 L565.866 95.8966 L532.918 93.5606 L499.969 90.3729 L467.021 86.4355 L434.072 82.0516 L401.123 77.7055 L368.175 73.9915 L335.226 71.4851 L302.278 70.6142  Z" fill="#dcb0f2" fill-rule="evenodd" fill-opacity="0.5"/>
<polyline clip-path="url(#clip382)" style="stroke:#dcb0f2; stroke-linecap:round; stroke-linejoin:round; stroke-width:12.0022; stroke-opacity:1; fill:none" points="302.278,70.6142 335.226,71.4851 368.175,73.9915 401.123,77.7055 434.072,82.0516 467.021,86.4355 499.969,90.3729 532.918,93.5606 565.866,95.8966 598.815,97.4259 631.764,98.2685 664.712,98.5673 697.661,98.4516 730.61,98.0359 763.558,97.4284 796.507,96.7265 829.455,96.0858 862.404,95.6942 895.353,95.6782 928.301,96.1051 961.25,96.9495 994.198,98.0839 1027.15,99.3014 1060.1,100.361 1093.04,101.038 1125.99,101.178 1158.94,100.723 1191.89,99.7194 1224.84,98.1994 1257.79,96.5088 1290.74,94.6575 1323.68,92.716 1356.63,90.6991 1389.58,88.5922 1422.53,86.3946 1455.48,84.1599 1488.43,82.018 1521.38,80.1698 1554.32,78.8553 1587.27,78.3049 1620.22,78.6886 "/>
<path clip-path="url(#clip382)" d="M302.278 70.6142 L335.226 71.4851 L368.175 73.9915 L401.123 77.7055 L434.072 82.0516 L467.021 86.4355 L499.969 90.3729 L532.918 93.5606 L565.866 96.1056 L598.815 97.8108 L631.764 98.6096 L664.712 99.5228 L697.661 99.2455 L730.61 99.7623 L763.558 99.6665 L796.507 99.7 L829.455 100.083 L862.404 100.626 L895.353 101.641 L928.301 102.877 L961.25 103.989 L994.198 105.69 L1027.15 106.984 L1060.1 108.036 L1093.04 108.169 L1125.99 107.699 L1158.94 106.578 L1191.89 104.988 L1224.84 103.367 L1257.79 101.745 L1290.74 100.363 L1323.68 99.0886 L1356.63 97.7626 L1389.58 96.4091 L1422.53 94.8382 L1455.48 93.1941 L1488.43 92.7166 L1521.38 93.5503 L1554.32 92.4302 L1587.27 92.1066 L1620.22 92.9469 L1620.22 92.9469 L1587.27 92.1066 L1554.32 92.4302 L1521.38 93.5503 L1488.43 92.7166 L1455.48 93.1941 L1422.53 94.8382 L1389.58 96.4091 L1356.63 97.7626 L1323.68 99.0886 L1290.74 100.363 L1257.79 101.745 L1224.84 103.367 L1191.89 104.988 L1158.94 106.578 L1125.99 107.699 L1093.04 108.169 L1060.1 108.036 L1027.15 106.984 L994.198 105.69 L961.25 103.989 L928.301 102.877 L895.353 101.641 L862.404 100.626 L829.455 100.083 L796.507 99.7 L763.558 99.6665 L730.61 99.7623 L697.661 99.2455 L664.712 99.5228 L631.764 98.6096 L598.815 97.8108 L565.866 96.1056 L532.918 93.5606 L499.969 90.3729 L467.021 86.4355 L434.072 82.0516 L401.123 77.7055 L368.175 73.9915 L335.226 71.4851 L302.278 70.6142  Z" fill="#f89c74" fill-rule="evenodd" fill-opacity="0.5"/>
<polyline clip-path="url(#clip382)" style="stroke:#f89c74; stroke-linecap:round; stroke-linejoin:round; stroke-width:12.0022; stroke-opacity:1; fill:none" stroke-dasharray="6, 12" points="302.278,70.6142 335.226,71.4851 368.175,73.9915 401.123,77.7055 434.072,82.0516 467.021,86.4355 499.969,90.3729 532.918,93.5606 565.866,96.1056 598.815,97.8108 631.764,98.6096 664.712,99.5228 697.661,99.2455 730.61,99.7623 763.558,99.6665 796.507,99.7 829.455,100.083 862.404,100.626 895.353,101.641 928.301,102.877 961.25,103.989 994.198,105.69 1027.15,106.984 1060.1,108.036 1093.04,108.169 1125.99,107.699 1158.94,106.578 1191.89,104.988 1224.84,103.367 1257.79,101.745 1290.74,100.363 1323.68,99.0886 1356.63,97.7626 1389.58,96.4091 1422.53,94.8382 1455.48,93.1941 1488.43,92.7166 1521.38,93.5503 1554.32,92.4302 1587.27,92.1066 1620.22,92.9469 "/>
<path clip-path="url(#clip382)" d="M302.278 70.6142 L335.226 71.5001 L368.175 74.0248 L401.123 77.7649 L434.072 82.1987 L467.021 86.8281 L499.969 91.2406 L532.918 95.3126 L565.866 99.0851 L598.815 102.7 L631.764 106.275 L664.712 109.839 L697.661 113.329 L730.61 116.611 L763.558 119.555 L796.507 122.147 L829.455 124.472 L862.404 126.676 L895.353 128.847 L928.301 130.909 L961.25 132.955 L994.198 134.782 L1027.15 136.019 L1060.1 136.326 L1093.04 135.52 L1125.99 133.664 L1158.94 131.083 L1191.89 128.302 L1224.84 125.915 L1257.79 124.428 L1290.74 124.106 L1323.68 124.889 L1356.63 126.384 L1389.58 127.964 L1422.53 128.926 L1455.48 128.674 L1488.43 126.878 L1521.38 123.575 L1554.32 119.198 L1587.27 114.522 L1620.22 110.541 L1620.22 110.541 L1587.27 114.522 L1554.32 119.198 L1521.38 123.575 L1488.43 126.878 L1455.48 128.674 L1422.53 128.926 L1389.58 127.964 L1356.63 126.384 L1323.68 124.889 L1290.74 124.106 L1257.79 124.428 L1224.84 125.915 L1191.89 128.302 L1158.94 131.083 L1125.99 133.664 L1093.04 135.52 L1060.1 136.326 L1027.15 136.019 L994.198 134.782 L961.25 132.955 L928.301 130.909 L895.353 128.847 L862.404 126.676 L829.455 124.472 L796.507 122.147 L763.558 119.555 L730.61 116.611 L697.661 113.329 L664.712 109.839 L631.764 106.275 L598.815 102.7 L565.866 99.0851 L532.918 95.3126 L499.969 91.2406 L467.021 86.8281 L434.072 82.1987 L401.123 77.7649 L368.175 74.0248 L335.226 71.5001 L302.278 70.6142  Z" fill="#f6cf71" fill-rule="evenodd" fill-opacity="0.5"/>
<polyline clip-path="url(#clip382)" style="stroke:#f6cf71; stroke-linecap:round; stroke-linejoin:round; stroke-width:12.0022; stroke-opacity:1; fill:none" stroke-dasharray="48, 30" points="302.278,70.6142 335.226,71.5001 368.175,74.0248 401.123,77.7649 434.072,82.1987 467.021,86.8281 499.969,91.2406 532.918,95.3126 565.866,99.0851 598.815,102.7 631.764,106.275 664.712,109.839 697.661,113.329 730.61,116.611 763.558,119.555 796.507,122.147 829.455,124.472 862.404,126.676 895.353,128.847 928.301,130.909 961.25,132.955 994.198,134.782 1027.15,136.019 1060.1,136.326 1093.04,135.52 1125.99,133.664 1158.94,131.083 1191.89,128.302 1224.84,125.915 1257.79,124.428 1290.74,124.106 1323.68,124.889 1356.63,126.384 1389.58,127.964 1422.53,128.926 1455.48,128.674 1488.43,126.878 1521.38,123.575 1554.32,119.198 1587.27,114.522 1620.22,110.541 "/>
<path clip-path="url(#clip382)" d="M302.278 70.6142 L335.226 71.5001 L368.175 74.8323 L401.123 81.39 L434.072 91.557 L467.021 105.268 L499.969 122.1 L532.918 141.421 L565.866 162.722 L598.815 185.42 L631.764 209.428 L664.712 234.778 L697.661 262.159 L730.61 291.312 L763.558 323.435 L796.507 357.342 L829.455 393.534 L862.404 431.913 L895.353 471.314 L928.301 511.274 L961.25 550.783 L994.198 588.832 L1027.15 624.532 L1060.1 657.112 L1093.04 685.988 L1125.99 710.804 L1158.94 731.49 L1191.89 748.238 L1224.84 761.467 L1257.79 771.761 L1290.74 779.795 L1323.68 786.255 L1356.63 791.77 L1389.58 796.855 L1422.53 801.903 L1455.48 807.206 L1488.43 813.013 L1521.38 819.613 L1554.32 827.419 L1587.27 837.042 L1620.22 849.327 L1620.22 849.327 L1587.27 837.042 L1554.32 827.419 L1521.38 819.613 L1488.43 813.013 L1455.48 807.206 L1422.53 801.903 L1389.58 796.855 L1356.63 791.77 L1323.68 786.255 L1290.74 779.795 L1257.79 771.761 L1224.84 761.467 L1191.89 748.238 L1158.94 731.49 L1125.99 710.804 L1093.04 685.988 L1060.1 657.112 L1027.15 624.532 L994.198 588.832 L961.25 550.783 L928.301 511.274 L895.353 471.314 L862.404 431.913 L829.455 393.534 L796.507 357.342 L763.558 323.435 L730.61 291.312 L697.661 262.159 L664.712 234.778 L631.764 209.428 L598.815 185.42 L565.866 162.722 L532.918 141.421 L499.969 122.1 L467.021 105.268 L434.072 91.557 L401.123 81.39 L368.175 74.8323 L335.226 71.5001 L302.278 70.6142  Z" fill="#66c5cc" fill-rule="evenodd" fill-opacity="0.5"/>
<polyline clip-path="url(#clip382)" style="stroke:#66c5cc; stroke-linecap:round; stroke-linejoin:round; stroke-width:12.0022; stroke-opacity:1; fill:none" points="302.278,70.6142 335.226,71.5001 368.175,74.8323 401.123,81.39 434.072,91.557 467.021,105.268 499.969,122.1 532.918,141.421 565.866,162.722 598.815,185.42 631.764,209.428 664.712,234.778 697.661,262.159 730.61,291.312 763.558,323.435 796.507,357.342 829.455,393.534 862.404,431.913 895.353,471.314 928.301,511.274 961.25,550.783 994.198,588.832 1027.15,624.532 1060.1,657.112 1093.04,685.988 1125.99,710.804 1158.94,731.49 1191.89,748.238 1224.84,761.467 1257.79,771.761 1290.74,779.795 1323.68,786.255 1356.63,791.77 1389.58,796.855 1422.53,801.903 1455.48,807.206 1488.43,813.013 1521.38,819.613 1554.32,827.419 1587.27,837.042 1620.22,849.327 "/>
<path clip-path="url(#clip380)" d="M309.307 845.174 L1072.58 845.174 L1072.58 378.528 L309.307 378.528  Z" fill="#ffffff" fill-rule="evenodd" fill-opacity="1"/>
<polyline clip-path="url(#clip380)" style="stroke:#000000; stroke-linecap:round; stroke-linejoin:round; stroke-width:4.00074; stroke-opacity:1; fill:none" points="309.307,845.174 1072.58,845.174 1072.58,378.528 309.307,378.528 309.307,845.174 "/>
<polyline clip-path="url(#clip380)" style="stroke:#000000; stroke-linecap:round; stroke-linejoin:round; stroke-width:12.0022; stroke-opacity:1; fill:none" stroke-dasharray="48, 30" points="324.829,456.302 417.964,456.302 "/>
<path clip-path="url(#clip380)" d="M433.486 482.227 L433.486 479.892 L435.302 479.892 Q439.414 479.892 440.341 479.225 Q441.304 478.521 441.304 476.297 L441.304 436.53 Q441.304 434.343 440.341 433.676 Q439.377 432.972 435.302 432.972 L433.486 432.972 L433.486 430.6 L476.207 430.6 L478.319 447.685 L476.429 447.685 Q475.91 443.349 475.206 440.866 Q474.539 438.346 472.872 436.419 Q471.242 434.491 468.537 433.75 Q465.869 432.972 461.534 432.972 L451.753 432.972 Q449.159 432.972 448.603 433.528 Q448.047 434.047 448.047 436.011 L448.047 454.208 L454.865 454.208 Q460.089 454.208 461.571 452.392 Q463.053 450.576 463.053 445.35 L464.98 445.35 L464.98 465.438 L463.053 465.438 Q463.053 460.286 461.571 458.433 Q460.089 456.58 454.865 456.58 L448.047 456.58 L448.047 476.853 Q448.047 478.817 448.603 479.373 Q449.196 479.892 451.753 479.892 L461.868 479.892 Q465.128 479.892 467.499 479.484 Q469.908 479.04 471.575 478.002 Q473.242 476.927 474.354 475.704 Q475.503 474.481 476.281 472.294 Q477.096 470.071 477.54 468.032 Q478.022 465.994 478.541 462.658 L480.43 462.658 L477.244 482.227 L433.486 482.227 Z" fill="#000000" fill-rule="evenodd" fill-opacity="1" /><path clip-path="url(#clip380)" d="M483.469 482.227 L483.469 479.892 Q489.397 479.892 493.176 475.333 Q493.176 475.333 500.29 466.29 L492.769 456.506 Q490.101 453.096 488.915 452.503 Q487.767 451.873 483.839 451.873 L483.839 449.501 Q486.951 449.724 491.027 449.724 Q493.287 449.724 499.253 449.501 L499.253 451.873 Q496.585 452.022 496.585 453.763 Q496.585 454.356 497.252 455.135 L503.18 462.807 L507.886 456.877 Q509.034 455.505 509.034 454.208 Q509.034 452.096 506.811 451.873 L506.811 449.501 Q509.775 449.724 514.11 449.724 Q517.371 449.724 520.335 449.501 L520.335 451.873 Q514.555 452.022 511.294 455.802 Q509.849 457.396 504.329 464.4 L514.481 477.52 Q515.703 479.114 517.074 479.521 Q518.445 479.892 521.706 479.892 L521.706 482.227 Q518.297 482.005 514.407 482.005 Q513.036 482.005 506.218 482.227 L506.218 479.892 Q507.589 479.818 508.256 479.225 Q508.96 478.595 508.96 477.965 Q508.96 477.668 507.367 475.482 L501.587 467.884 Q495.807 474.703 495.066 476.297 Q494.769 476.964 494.769 477.52 Q494.769 479.559 496.955 479.892 L496.955 482.227 Q491.509 482.005 489.767 482.005 Q486.433 482.005 483.469 482.227 Z" fill="#000000" fill-rule="evenodd" fill-opacity="1" /><path clip-path="url(#clip380)" d="M525.707 475 Q525.707 468.551 533.303 465.141 Q537.86 462.955 547.271 462.399 L547.271 459.619 Q547.271 454.912 544.789 452.429 Q542.343 449.909 539.231 449.909 Q533.673 449.909 531.006 453.393 Q533.266 453.467 534.081 454.616 Q534.896 455.728 534.896 456.877 Q534.896 458.396 533.933 459.397 Q533.006 460.36 531.413 460.36 Q529.894 460.36 528.894 459.434 Q527.893 458.47 527.893 456.803 Q527.893 453.096 531.228 450.65 Q534.6 448.204 539.379 448.204 Q545.604 448.204 549.754 452.392 Q551.05 453.689 551.68 455.357 Q552.347 457.025 552.421 458.137 Q552.496 459.212 552.496 461.361 L552.496 476.519 Q552.496 476.964 552.644 477.705 Q552.792 478.447 553.459 479.41 Q554.163 480.337 555.311 480.337 Q558.053 480.337 558.016 475.482 L558.016 471.22 L559.943 471.22 L559.943 475.482 Q559.943 479.521 557.794 481.115 Q555.682 482.672 553.718 482.672 Q551.199 482.672 549.605 480.819 Q548.012 478.966 547.79 476.445 Q546.641 479.336 544.011 481.226 Q541.417 483.079 537.86 483.079 Q535.118 483.079 532.525 482.375 Q529.968 481.708 527.819 479.818 Q525.707 477.891 525.707 475 M531.561 474.926 Q531.561 477.743 533.562 479.559 Q535.563 481.375 538.379 481.375 Q541.565 481.375 544.418 478.928 Q547.271 476.445 547.271 471.59 L547.271 463.993 Q538.861 464.289 535.192 467.662 Q531.561 470.997 531.561 474.926 Z" fill="#000000" fill-rule="evenodd" fill-opacity="1" /><path clip-path="url(#clip380)" d="M567.872 478.076 Q563.055 473.036 563.055 465.846 Q563.055 458.619 567.798 453.43 Q572.54 448.204 579.506 448.204 Q584.137 448.204 587.62 450.428 Q591.103 452.615 591.103 456.358 Q591.103 458.026 590.103 458.989 Q589.139 459.916 587.62 459.916 Q586.027 459.916 585.064 458.952 Q584.137 457.951 584.137 456.432 Q584.137 455.765 584.36 455.098 Q584.582 454.431 585.397 453.726 Q586.249 453.022 587.694 452.911 Q584.99 450.131 579.728 450.131 Q579.654 450.131 579.58 450.131 Q575.727 450.131 572.54 453.763 Q569.354 457.396 569.354 465.697 Q569.354 470.034 570.391 473.221 Q571.466 476.371 573.207 478.002 Q574.949 479.633 576.653 480.411 Q578.357 481.152 580.025 481.152 Q587.472 481.152 589.992 473.184 Q590.214 472.443 590.955 472.443 Q591.955 472.443 591.955 473.184 Q591.955 473.555 591.659 474.518 Q591.362 475.482 590.436 477.001 Q589.51 478.521 588.176 479.855 Q586.879 481.152 584.545 482.116 Q582.248 483.079 579.358 483.079 Q572.689 483.079 567.872 478.076 Z" fill="#000000" fill-rule="evenodd" fill-opacity="1" /><path clip-path="url(#clip380)" d="M595.586 451.873 L595.586 450.206 Q599.069 450.057 601.366 447.611 Q603.701 445.128 604.479 442.089 Q605.294 439.05 605.368 435.529 L607.258 435.529 L607.258 449.501 L618.114 449.501 L618.114 451.873 L607.258 451.873 L607.258 472.962 Q607.258 481.152 612.371 481.152 Q614.557 481.152 616.002 478.928 Q617.447 476.668 617.447 472.665 L617.447 468.477 L619.336 468.477 L619.336 472.813 Q619.336 476.927 617.447 480.003 Q615.557 483.079 611.815 483.079 Q610.444 483.079 609.073 482.709 Q607.739 482.375 605.961 481.486 Q604.219 480.559 603.108 478.335 Q602.033 476.075 602.033 472.813 L602.033 451.873 L595.586 451.873 Z" fill="#000000" fill-rule="evenodd" fill-opacity="1" /><polyline clip-path="url(#clip380)" style="stroke:#dcb0f2; stroke-linecap:round; stroke-linejoin:round; stroke-width:18.0033; stroke-opacity:1; fill:none" points="324.829,534.077 417.964,534.077 "/>
<path clip-path="url(#clip380)" d="M433.486 534.058 Q433.486 522.606 441.304 514.563 Q449.122 506.484 459.867 506.484 Q463.202 506.484 466.166 507.707 Q469.13 508.93 470.501 510.005 Q471.872 511.043 473.835 513.007 L477.652 507.411 Q478.244 506.484 478.837 506.484 Q479.467 506.484 479.578 506.855 Q479.689 507.188 479.689 508.3 L479.689 526.312 Q479.689 527.535 479.541 527.832 Q479.393 528.128 478.467 528.128 Q477.726 528.128 477.54 527.906 Q477.392 527.683 477.244 526.831 Q476.095 518.64 471.538 513.748 Q467.018 508.856 460.719 508.856 Q458.904 508.856 456.866 509.264 Q454.865 509.671 451.938 511.228 Q449.048 512.784 446.788 515.379 Q444.565 517.936 442.934 522.828 Q441.304 527.683 441.304 534.132 Q441.304 540.507 442.934 545.399 Q444.565 550.291 446.788 552.848 Q449.048 555.369 451.938 556.925 Q454.865 558.482 456.903 558.927 Q458.978 559.334 460.793 559.334 Q467.314 559.334 472.316 554.701 Q477.318 550.069 477.8 542.249 Q477.874 541.878 477.874 541.73 Q477.874 541.545 477.948 541.359 Q478.022 541.174 478.207 541.1 Q478.393 541.026 478.689 541.026 Q479.689 541.026 479.689 542.323 Q479.689 549.55 474.132 555.628 Q468.611 561.669 459.867 561.669 Q449.085 561.669 441.267 553.664 Q433.486 545.658 433.486 534.058 Z" fill="#000000" fill-rule="evenodd" fill-opacity="1" /><path clip-path="url(#clip380)" d="M486.507 560.001 L486.507 557.666 L488.322 557.666 Q492.435 557.666 493.361 556.999 Q494.325 556.295 494.325 554.071 L494.325 514.082 Q494.325 511.895 493.361 511.228 Q492.398 510.524 488.322 510.524 L486.507 510.524 L486.507 508.152 Q489.175 508.374 497.733 508.374 Q506.218 508.374 508.886 508.152 L508.886 510.524 L507.07 510.524 Q502.958 510.524 501.994 511.228 Q501.068 511.895 501.068 514.082 L501.068 538.209 L524.818 515.527 Q526.189 514.304 526.189 513.007 Q526.189 512.562 525.967 512.08 Q525.781 511.561 524.892 511.043 Q524.04 510.524 522.669 510.524 L522.669 508.152 Q525.263 508.374 532.34 508.374 Q536.823 508.374 538.786 508.152 L538.786 510.524 Q532.488 510.598 528.004 515.082 L514.333 528.202 L531.858 553.997 Q533.451 556.332 535.007 556.999 Q536.563 557.666 539.824 557.666 L539.824 560.001 Q535.044 559.779 531.117 559.779 Q522.928 559.779 520.261 560.001 L520.261 557.666 Q524.744 557.666 524.744 555.369 Q524.744 554.516 523.595 552.774 L509.849 532.464 L501.068 540.803 L501.068 554.071 Q501.068 556.258 501.994 556.962 Q502.958 557.666 507.07 557.666 L508.886 557.666 L508.886 560.001 Q506.218 559.779 497.659 559.779 Q489.175 559.779 486.507 560.001 Z" fill="#000000" fill-rule="evenodd" fill-opacity="1" /><path clip-path="url(#clip380)" d="M545.382 560.001 L545.382 557.666 Q552.125 557.518 553.866 552.552 L569.576 507.188 Q569.873 506.262 570.206 505.965 Q570.54 505.669 571.392 505.669 Q571.836 505.669 572.096 505.743 Q572.392 505.817 572.577 506.076 Q572.763 506.336 572.837 506.484 Q572.911 506.632 573.133 507.188 L589.51 554.627 Q590.103 556.518 591.325 557.11 Q592.548 557.666 595.994 557.666 L597.328 557.666 L597.328 560.001 Q592.548 559.779 587.398 559.779 Q579.21 559.779 576.468 560.001 L576.468 557.666 Q582.767 557.666 582.767 555.369 Q582.767 555.22 582.544 554.294 L578.543 542.693 L559.795 542.693 L556.275 552.626 Q556.127 552.922 556.127 553.775 Q556.127 555.369 557.609 556.518 Q559.091 557.666 561.832 557.666 L561.832 560.001 Q554.533 559.779 553.088 559.779 Q550.606 559.779 545.382 560.001 M560.61 540.359 L577.69 540.359 L569.132 515.675 L560.61 540.359 Z" fill="#000000" fill-rule="evenodd" fill-opacity="1" /><path clip-path="url(#clip380)" d="M607.443 558.778 Q606.368 557.555 606.368 555.962 Q606.368 554.368 607.406 553.182 Q608.48 551.959 610.407 551.959 Q612.667 551.959 613.964 554.146 Q615.261 556.295 615.261 559.927 Q615.261 563.856 613.667 567.488 Q612.074 571.157 610.518 572.899 Q608.962 574.641 608.332 574.641 Q607.591 574.641 607.591 573.825 Q607.591 573.529 608.11 572.973 Q613.556 567.117 613.593 559.927 Q613.593 558.778 613.445 558.778 L613.26 558.927 Q611.963 560.001 610.407 560.001 Q608.517 560.001 607.443 558.778 Z" fill="#000000" fill-rule="evenodd" fill-opacity="1" /><path clip-path="url(#clip380)" d="M648.533 560.001 L648.533 557.666 Q652.571 557.666 653.498 557.185 Q654.424 556.666 654.424 554.22 L654.424 533.873 Q654.424 531.056 653.424 530.352 Q652.46 529.648 648.533 529.648 L648.533 527.276 L659.204 526.46 L659.204 534.429 Q662.761 526.46 670.43 526.46 Q676.136 526.46 678.396 529.277 Q680.064 531.167 680.397 533.28 Q680.768 535.392 680.768 540.877 L680.768 555.369 Q680.842 556.962 682.064 557.333 Q683.287 557.666 686.696 557.666 L686.696 560.001 Q678.952 559.779 678.174 559.779 Q677.581 559.779 669.615 560.001 L669.615 557.666 Q673.654 557.666 674.58 557.185 Q675.543 556.666 675.543 554.22 L675.543 536.541 Q675.543 532.687 674.358 530.426 Q673.172 528.128 669.912 528.128 Q665.984 528.128 662.835 531.427 Q659.685 534.725 659.685 540.284 L659.685 554.22 Q659.685 556.666 660.612 557.185 Q661.575 557.666 665.577 557.666 L665.577 560.001 Q657.833 559.779 657.092 559.779 Q656.499 559.779 648.533 560.001 Z" fill="#000000" fill-rule="evenodd" fill-opacity="1" /><path clip-path="url(#clip380)" d="M695.292 555.925 Q690.29 550.958 690.29 543.768 Q690.29 536.541 695.181 531.278 Q700.108 525.979 707.148 525.979 Q714.04 525.979 718.968 531.241 Q723.933 536.467 723.933 543.768 Q723.933 550.921 718.931 555.887 Q713.966 560.854 707.074 560.854 Q700.331 560.854 695.292 555.925 M696.589 543.138 Q696.589 550.513 698.515 553.849 Q701.479 558.927 707.148 558.927 Q709.964 558.927 712.298 557.407 Q714.67 555.887 715.966 553.33 Q717.634 549.995 717.634 543.138 Q717.634 535.837 715.633 532.613 Q712.669 527.683 707.074 527.683 Q704.629 527.683 702.22 528.981 Q699.849 530.241 698.404 532.761 Q696.589 536.096 696.589 543.138 Z" fill="#000000" fill-rule="evenodd" fill-opacity="1" /><path clip-path="url(#clip380)" d="M752.796 529.648 L752.796 527.98 Q756.278 527.832 758.576 525.386 Q760.91 522.902 761.688 519.863 Q762.503 516.824 762.577 513.303 L764.467 513.303 L764.467 527.276 L775.323 527.276 L775.323 529.648 L764.467 529.648 L764.467 550.736 Q764.467 558.927 769.58 558.927 Q771.766 558.927 773.211 556.703 Q774.656 554.442 774.656 550.439 L774.656 546.251 L776.546 546.251 L776.546 550.588 Q776.546 554.701 774.656 557.778 Q772.766 560.854 769.024 560.854 Q767.653 560.854 766.282 560.483 Q764.949 560.15 763.17 559.26 Q761.429 558.334 760.317 556.11 Q759.243 553.849 759.243 550.588 L759.243 529.648 L752.796 529.648 Z" fill="#000000" fill-rule="evenodd" fill-opacity="1" /><path clip-path="url(#clip380)" d="M783.215 560.001 L783.215 557.666 Q787.253 557.666 788.18 557.185 Q789.106 556.666 789.106 554.22 L789.106 514.749 Q789.106 511.932 788.106 511.228 Q787.142 510.524 783.215 510.524 L783.215 508.152 L794.108 507.336 L794.108 533.724 L794.182 533.724 Q795.405 530.982 798.147 528.721 Q800.888 526.46 805.112 526.46 Q810.818 526.46 813.078 529.277 Q814.746 531.167 815.079 533.28 Q815.45 535.392 815.45 540.877 L815.45 555.369 Q815.524 556.962 816.746 557.333 Q817.969 557.666 821.378 557.666 L821.378 560.001 Q813.634 559.779 812.856 559.779 Q812.263 559.779 804.297 560.001 L804.297 557.666 Q808.336 557.666 809.262 557.185 Q810.225 556.666 810.225 554.22 L810.225 536.541 Q810.225 532.687 809.04 530.426 Q807.854 528.128 804.594 528.128 Q800.666 528.128 797.517 531.427 Q794.367 534.725 794.367 540.284 L794.367 554.22 Q794.367 556.666 795.294 557.185 Q796.257 557.666 800.259 557.666 L800.259 560.001 Q792.515 559.779 791.774 559.779 Q791.181 559.779 783.215 560.001 Z" fill="#000000" fill-rule="evenodd" fill-opacity="1" /><path clip-path="url(#clip380)" d="M824.972 560.001 L824.972 557.666 Q829.01 557.666 829.937 557.185 Q830.9 556.666 830.9 554.22 L830.9 533.873 Q830.9 531.056 829.9 530.352 Q828.936 529.648 824.972 529.648 L824.972 527.276 L835.532 526.46 L835.532 534.799 Q836.606 531.538 838.866 529.018 Q841.163 526.46 844.868 526.46 Q847.314 526.46 848.87 527.832 Q850.463 529.203 850.463 531.093 Q850.463 532.761 849.426 533.613 Q848.425 534.429 847.203 534.429 Q845.832 534.429 844.868 533.576 Q843.942 532.687 843.942 531.167 Q843.942 530.241 844.35 529.536 Q844.794 528.795 845.128 528.536 Q845.461 528.276 845.684 528.202 Q845.535 528.128 844.868 528.128 Q840.682 528.128 838.273 532.316 Q835.902 536.467 835.902 542.397 L835.902 554.071 Q835.902 556.258 836.791 556.962 Q837.718 557.666 841.682 557.666 L843.275 557.666 L843.275 560.001 Q840.237 559.779 833.642 559.779 Q832.716 559.779 831.271 559.816 Q829.826 559.853 827.936 559.927 Q826.046 560.001 824.972 560.001 Z" fill="#000000" fill-rule="evenodd" fill-opacity="1" /><path clip-path="url(#clip380)" d="M854.613 543.286 Q854.613 536.133 859.207 531.056 Q863.802 525.979 870.397 525.979 Q877.066 525.979 880.512 530.315 Q883.995 534.651 883.995 540.877 Q883.995 542.026 883.698 542.249 Q883.402 542.471 882.105 542.471 L860.912 542.471 Q860.912 550.217 863.209 553.849 Q866.395 558.927 871.768 558.927 Q872.509 558.927 873.398 558.778 Q874.287 558.63 876.103 558 Q877.918 557.333 879.512 555.591 Q881.105 553.849 882.031 551.106 Q882.253 550.032 882.994 550.069 Q883.995 550.069 883.995 550.958 Q883.995 551.625 883.254 553.145 Q882.55 554.627 881.179 556.406 Q879.808 558.185 877.14 559.52 Q874.51 560.854 871.323 560.854 Q864.654 560.854 859.615 555.813 Q854.613 550.736 854.613 543.286 M860.986 540.877 L878.993 540.877 Q878.993 539.284 878.696 537.505 Q878.437 535.726 877.622 533.28 Q876.844 530.797 874.991 529.24 Q873.139 527.683 870.397 527.683 Q869.174 527.683 867.84 528.202 Q866.544 528.721 864.95 529.981 Q863.357 531.241 862.246 534.095 Q861.134 536.949 860.986 540.877 Z" fill="#000000" fill-rule="evenodd" fill-opacity="1" /><path clip-path="url(#clip380)" d="M888.7 559.001 L888.7 548.994 Q888.7 548.142 888.737 547.845 Q888.774 547.549 888.997 547.326 Q889.219 547.104 889.664 547.104 Q890.182 547.104 890.368 547.326 Q890.59 547.549 890.738 548.401 Q891.887 553.627 894.332 556.406 Q896.815 559.149 901.298 559.149 Q905.559 559.149 907.708 557.259 Q909.857 555.369 909.857 552.255 Q909.857 546.696 901.965 545.288 Q897.407 544.361 895.518 543.768 Q893.628 543.138 891.961 541.767 Q888.7 539.098 888.7 535.318 Q888.7 531.538 891.553 528.758 Q894.443 525.979 900.816 525.979 Q905.077 525.979 907.967 528.128 Q908.819 527.461 909.264 526.905 Q910.264 525.979 910.783 525.979 Q911.376 525.979 911.487 526.386 Q911.598 526.757 911.598 527.832 L911.598 535.466 Q911.598 536.319 911.561 536.615 Q911.524 536.912 911.302 537.134 Q911.079 537.319 910.598 537.319 Q909.746 537.319 909.709 536.615 Q909.116 527.424 900.816 527.424 Q896.333 527.424 894.332 529.166 Q892.331 530.871 892.331 533.206 Q892.331 534.503 892.924 535.503 Q893.554 536.467 894.332 537.06 Q895.147 537.616 896.629 538.172 Q898.111 538.691 899.001 538.876 Q899.927 539.061 901.668 539.432 Q907.745 540.581 910.301 543.064 Q913.488 546.251 913.488 550.291 Q913.488 554.776 910.45 557.815 Q907.411 560.854 901.298 560.854 Q896.37 560.854 892.924 557.555 Q892.48 558 892.146 558.408 Q891.813 558.778 891.664 558.927 Q891.553 559.075 891.516 559.186 Q891.479 559.26 891.405 559.334 Q889.886 560.854 889.515 560.854 Q888.923 560.854 888.812 560.446 Q888.7 560.075 888.7 559.001 Z" fill="#000000" fill-rule="evenodd" fill-opacity="1" /><path clip-path="url(#clip380)" d="M918.49 560.001 L918.49 557.666 Q922.528 557.666 923.455 557.185 Q924.381 556.666 924.381 554.22 L924.381 514.749 Q924.381 511.932 923.381 511.228 Q922.417 510.524 918.49 510.524 L918.49 508.152 L929.383 507.336 L929.383 533.724 L929.457 533.724 Q930.68 530.982 933.421 528.721 Q936.163 526.46 940.387 526.46 Q946.093 526.46 948.353 529.277 Q950.021 531.167 950.354 533.28 Q950.724 535.392 950.724 540.877 L950.724 555.369 Q950.799 556.962 952.021 557.333 Q953.244 557.666 956.653 557.666 L956.653 560.001 Q948.909 559.779 948.131 559.779 Q947.538 559.779 939.572 560.001 L939.572 557.666 Q943.611 557.666 944.537 557.185 Q945.5 556.666 945.5 554.22 L945.5 536.541 Q945.5 532.687 944.315 530.426 Q943.129 528.128 939.868 528.128 Q935.941 528.128 932.792 531.427 Q929.642 534.725 929.642 540.284 L929.642 554.22 Q929.642 556.666 930.568 557.185 Q931.532 557.666 935.533 557.666 L935.533 560.001 Q927.79 559.779 927.049 559.779 Q926.456 559.779 918.49 560.001 Z" fill="#000000" fill-rule="evenodd" fill-opacity="1" /><path clip-path="url(#clip380)" d="M965.249 555.925 Q960.247 550.958 960.247 543.768 Q960.247 536.541 965.137 531.278 Q970.065 525.979 977.105 525.979 Q983.997 525.979 988.925 531.241 Q993.889 536.467 993.889 543.768 Q993.889 550.921 988.887 555.887 Q983.923 560.854 977.031 560.854 Q970.288 560.854 965.249 555.925 M966.545 543.138 Q966.545 550.513 968.472 553.849 Q971.436 558.927 977.105 558.927 Q979.921 558.927 982.255 557.407 Q984.627 555.887 985.923 553.33 Q987.591 549.995 987.591 543.138 Q987.591 535.837 985.59 532.613 Q982.626 527.683 977.031 527.683 Q974.586 527.683 972.177 528.981 Q969.806 530.241 968.361 532.761 Q966.545 536.096 966.545 543.138 Z" fill="#000000" fill-rule="evenodd" fill-opacity="1" /><path clip-path="url(#clip380)" d="M998.595 560.001 L998.595 557.666 Q1002.63 557.666 1003.56 557.185 Q1004.49 556.666 1004.49 554.22 L1004.49 514.749 Q1004.49 511.932 1003.49 511.228 Q1002.52 510.524 998.595 510.524 L998.595 508.152 L1009.49 507.336 L1009.49 554.22 Q1009.49 556.666 1010.45 557.185 Q1011.41 557.666 1015.42 557.666 L1015.42 560.001 Q1014.49 560.001 1012.56 559.927 Q1010.64 559.853 1009.23 559.816 Q1007.82 559.779 1007.01 559.779 Q1006.12 559.779 998.595 560.001 Z" fill="#000000" fill-rule="evenodd" fill-opacity="1" /><path clip-path="url(#clip380)" d="M1019.68 543.694 Q1019.68 536.467 1024.72 531.464 Q1029.76 526.46 1036.57 526.46 Q1042.35 526.46 1046.13 531.167 L1046.13 514.749 Q1046.13 511.932 1045.13 511.228 Q1044.17 510.524 1040.24 510.524 L1040.24 508.152 L1051.17 507.336 L1051.17 553.404 Q1051.17 556.221 1052.13 556.962 Q1053.13 557.666 1057.06 557.666 L1057.06 560.001 L1045.91 560.854 L1045.91 555.813 Q1041.98 560.817 1035.76 560.854 Q1029.24 560.854 1024.46 555.85 Q1019.68 550.847 1019.68 543.694 M1025.98 543.768 Q1025.98 550.81 1028.16 554.294 Q1031.2 559.149 1036.13 559.149 Q1041.76 559.149 1045.09 553.849 Q1045.95 552.552 1045.91 551.032 L1045.91 535.466 Q1045.91 533.947 1045.09 532.687 Q1041.98 528.128 1036.91 528.128 Q1031.61 528.128 1028.31 532.983 Q1025.98 536.615 1025.98 543.768 Z" fill="#000000" fill-rule="evenodd" fill-opacity="1" /><polyline clip-path="url(#clip380)" style="stroke:#f89c74; stroke-linecap:round; stroke-linejoin:round; stroke-width:18.0033; stroke-opacity:1; fill:none" stroke-dasharray="9, 18" points="324.829,611.851 417.964,611.851 "/>
<path clip-path="url(#clip380)" d="M433.486 611.832 Q433.486 600.38 441.304 592.338 Q449.122 584.258 459.867 584.258 Q463.202 584.258 466.166 585.481 Q469.13 586.704 470.501 587.779 Q471.872 588.817 473.835 590.781 L477.652 585.185 Q478.244 584.258 478.837 584.258 Q479.467 584.258 479.578 584.629 Q479.689 584.962 479.689 586.074 L479.689 604.086 Q479.689 605.309 479.541 605.606 Q479.393 605.902 478.467 605.902 Q477.726 605.902 477.54 605.68 Q477.392 605.458 477.244 604.605 Q476.095 596.415 471.538 591.522 Q467.018 586.63 460.719 586.63 Q458.904 586.63 456.866 587.038 Q454.865 587.446 451.938 589.002 Q449.048 590.559 446.788 593.153 Q444.565 595.71 442.934 600.603 Q441.304 605.458 441.304 611.906 Q441.304 618.281 442.934 623.173 Q444.565 628.065 446.788 630.623 Q449.048 633.143 451.938 634.7 Q454.865 636.256 456.903 636.701 Q458.978 637.109 460.793 637.109 Q467.314 637.109 472.316 632.476 Q477.318 627.843 477.8 620.023 Q477.874 619.652 477.874 619.504 Q477.874 619.319 477.948 619.134 Q478.022 618.948 478.207 618.874 Q478.393 618.8 478.689 618.8 Q479.689 618.8 479.689 620.097 Q479.689 627.324 474.132 633.402 Q468.611 639.443 459.867 639.443 Q449.085 639.443 441.267 631.438 Q433.486 623.433 433.486 611.832 Z" fill="#000000" fill-rule="evenodd" fill-opacity="1" /><path clip-path="url(#clip380)" d="M486.507 637.776 L486.507 635.441 L488.322 635.441 Q492.435 635.441 493.361 634.774 Q494.325 634.069 494.325 631.846 L494.325 591.856 Q494.325 589.669 493.361 589.002 Q492.398 588.298 488.322 588.298 L486.507 588.298 L486.507 585.926 Q489.175 586.148 497.733 586.148 Q506.218 586.148 508.886 585.926 L508.886 588.298 L507.07 588.298 Q502.958 588.298 501.994 589.002 Q501.068 589.669 501.068 591.856 L501.068 615.983 L524.818 593.301 Q526.189 592.078 526.189 590.781 Q526.189 590.336 525.967 589.855 Q525.781 589.336 524.892 588.817 Q524.04 588.298 522.669 588.298 L522.669 585.926 Q525.263 586.148 532.34 586.148 Q536.823 586.148 538.786 585.926 L538.786 588.298 Q532.488 588.372 528.004 592.857 L514.333 605.977 L531.858 631.772 Q533.451 634.107 535.007 634.774 Q536.563 635.441 539.824 635.441 L539.824 637.776 Q535.044 637.553 531.117 637.553 Q522.928 637.553 520.261 637.776 L520.261 635.441 Q524.744 635.441 524.744 633.143 Q524.744 632.29 523.595 630.549 L509.849 610.239 L501.068 618.578 L501.068 631.846 Q501.068 634.032 501.994 634.737 Q502.958 635.441 507.07 635.441 L508.886 635.441 L508.886 637.776 Q506.218 637.553 497.659 637.553 Q489.175 637.553 486.507 637.776 Z" fill="#000000" fill-rule="evenodd" fill-opacity="1" /><path clip-path="url(#clip380)" d="M545.382 637.776 L545.382 635.441 Q552.125 635.293 553.866 630.326 L569.576 584.962 Q569.873 584.036 570.206 583.739 Q570.54 583.443 571.392 583.443 Q571.836 583.443 572.096 583.517 Q572.392 583.591 572.577 583.851 Q572.763 584.11 572.837 584.258 Q572.911 584.407 573.133 584.962 L589.51 632.402 Q590.103 634.292 591.325 634.885 Q592.548 635.441 595.994 635.441 L597.328 635.441 L597.328 637.776 Q592.548 637.553 587.398 637.553 Q579.21 637.553 576.468 637.776 L576.468 635.441 Q582.767 635.441 582.767 633.143 Q582.767 632.995 582.544 632.068 L578.543 620.468 L559.795 620.468 L556.275 630.4 Q556.127 630.697 556.127 631.549 Q556.127 633.143 557.609 634.292 Q559.091 635.441 561.832 635.441 L561.832 637.776 Q554.533 637.553 553.088 637.553 Q550.606 637.553 545.382 637.776 M560.61 618.133 L577.69 618.133 L569.132 593.45 L560.61 618.133 Z" fill="#000000" fill-rule="evenodd" fill-opacity="1" /><path clip-path="url(#clip380)" d="M607.443 636.553 Q606.368 635.33 606.368 633.736 Q606.368 632.142 607.406 630.956 Q608.48 629.733 610.407 629.733 Q612.667 629.733 613.964 631.92 Q615.261 634.069 615.261 637.702 Q615.261 641.63 613.667 645.262 Q612.074 648.931 610.518 650.673 Q608.962 652.415 608.332 652.415 Q607.591 652.415 607.591 651.6 Q607.591 651.303 608.11 650.747 Q613.556 644.892 613.593 637.702 Q613.593 636.553 613.445 636.553 L613.26 636.701 Q611.963 637.776 610.407 637.776 Q608.517 637.776 607.443 636.553 Z" fill="#000000" fill-rule="evenodd" fill-opacity="1" /><path clip-path="url(#clip380)" d="M648.348 610.609 Q648.348 610.535 648.496 610.016 Q648.681 609.46 649.163 608.645 Q649.644 607.793 650.274 607.014 Q650.941 606.199 652.09 605.643 Q653.238 605.05 654.572 605.05 Q654.72 605.05 654.943 605.087 Q655.202 605.124 655.276 605.124 L675.914 605.124 Q676.914 605.124 677.285 605.458 Q677.655 605.754 677.655 606.866 L677.655 608.386 Q677.655 609.46 677.211 609.757 Q676.803 610.053 675.914 610.053 L663.835 610.053 L663.835 620.32 Q663.835 632.846 669.171 632.846 Q670.393 632.846 671.653 631.994 Q672.95 631.105 673.246 631.105 Q674.469 631.105 674.469 633.291 Q674.469 635.404 672.95 637.034 Q671.431 638.628 669.171 638.628 Q666.725 638.628 665.132 637.183 Q663.539 635.737 662.872 632.995 Q662.242 630.252 662.094 628.177 Q661.945 626.101 661.945 622.988 L661.945 610.053 L656.165 610.053 Q655.943 610.053 655.536 610.016 Q655.128 609.979 654.906 609.979 Q652.794 609.979 651.015 610.758 Q649.274 611.499 649.2 611.499 Q648.348 611.536 648.348 610.609 Z" fill="#000000" fill-rule="evenodd" fill-opacity="1" /><path clip-path="url(#clip380)" d="M710.372 626.249 Q710.446 625.323 711.891 625.323 L758.39 625.323 Q760.576 625.323 760.613 626.175 Q760.613 627.102 758.539 627.065 L712.41 627.065 Q710.372 627.102 710.372 626.249 M710.372 611.425 Q710.372 610.498 711.965 610.535 L758.316 610.535 Q760.576 610.535 760.613 611.425 Q760.613 612.277 758.687 612.277 L711.891 612.277 Q710.372 612.277 710.372 611.425 Z" fill="#000000" fill-rule="evenodd" fill-opacity="1" /><path clip-path="url(#clip380)" d="M797.035 594.45 L797.035 592.078 Q806.15 592.078 810.855 587.223 Q812.152 587.223 812.374 587.52 Q812.597 587.816 812.597 589.188 L812.597 631.772 Q812.597 634.032 813.708 634.737 Q814.82 635.441 819.674 635.441 L822.082 635.441 L822.082 637.776 Q819.414 637.553 809.781 637.553 Q800.147 637.553 797.517 637.776 L797.517 635.441 L799.925 635.441 Q804.705 635.441 805.853 634.774 Q807.002 634.069 807.002 631.772 L807.002 592.449 Q803.037 594.45 797.035 594.45 Z" fill="#000000" fill-rule="evenodd" fill-opacity="1" /><path clip-path="url(#clip380)" d="M831.197 613.5 Q831.197 602.345 834.012 596.266 Q837.94 587.223 847.203 587.223 Q849.166 587.223 851.204 587.779 Q853.279 588.298 855.873 590.336 Q858.503 592.375 860.097 595.71 Q863.135 602.159 863.135 613.5 Q863.135 624.582 860.319 630.623 Q856.206 639.443 847.129 639.443 Q843.72 639.443 840.237 637.702 Q836.791 635.96 834.605 631.772 Q831.197 625.508 831.197 613.5 M837.495 612.574 Q837.495 624.026 838.31 628.584 Q839.237 633.514 841.756 635.663 Q844.313 637.776 847.129 637.776 Q850.167 637.776 852.686 635.515 Q855.243 633.217 856.021 628.288 Q856.873 623.433 856.836 612.574 Q856.836 602.011 856.095 597.786 Q855.095 592.857 852.427 590.892 Q849.796 588.891 847.129 588.891 Q846.128 588.891 845.054 589.188 Q844.016 589.484 842.497 590.336 Q840.978 591.189 839.792 593.301 Q838.644 595.414 838.088 598.601 Q837.495 602.715 837.495 612.574 Z" fill="#000000" fill-rule="evenodd" fill-opacity="1" /><polyline clip-path="url(#clip380)" style="stroke:#f6cf71; stroke-linecap:round; stroke-linejoin:round; stroke-width:18.0033; stroke-opacity:1; fill:none" stroke-dasharray="72, 45" points="324.829,689.625 417.964,689.625 "/>
<path clip-path="url(#clip380)" d="M433.486 715.55 L433.486 713.215 L435.302 713.215 Q439.414 713.215 440.341 712.548 Q441.304 711.844 441.304 709.62 L441.304 669.63 Q441.304 667.444 440.341 666.777 Q439.377 666.072 435.302 666.072 L433.486 666.072 L433.486 663.7 L461.238 663.7 Q468.463 663.7 473.28 667.592 Q478.096 671.446 478.096 676.524 Q478.096 680.712 474.539 684.047 Q471.019 687.383 465.499 688.458 Q471.797 689.125 475.947 692.942 Q480.134 696.723 480.134 701.652 Q480.134 707.211 475.354 711.399 Q470.575 715.55 463.239 715.55 L433.486 715.55 M447.603 710.176 Q447.603 712.14 448.159 712.696 Q448.714 713.215 451.308 713.215 L460.793 713.215 Q466.24 713.215 469.389 709.657 Q472.538 706.062 472.538 701.578 Q472.538 697.093 469.76 693.276 Q467.018 689.421 461.868 689.421 L447.603 689.421 L447.603 710.176 M447.603 687.754 L458.607 687.754 Q464.461 687.754 467.574 684.233 Q470.723 680.712 470.723 676.524 Q470.723 672.818 468.203 669.445 Q465.721 666.072 460.719 666.072 L451.308 666.072 Q448.714 666.072 448.159 666.591 Q447.603 667.11 447.603 669.111 L447.603 687.754 Z" fill="#000000" fill-rule="evenodd" fill-opacity="1" /><path clip-path="url(#clip380)" d="M487.1 715.55 L487.1 713.215 L488.915 713.215 Q493.028 713.215 493.954 712.548 Q494.918 711.844 494.918 709.62 L494.918 669.63 Q494.918 667.444 493.954 666.777 Q492.991 666.072 488.915 666.072 L487.1 666.072 L487.1 663.7 L513.888 663.7 Q521.558 663.7 526.671 667.925 Q531.784 672.151 531.784 677.821 Q531.784 683.454 526.559 687.531 Q521.372 691.571 514.481 691.571 L501.661 691.571 L501.661 709.62 Q501.661 711.807 502.587 712.511 Q503.551 713.215 507.663 713.215 L509.479 713.215 L509.479 715.55 Q506.811 715.328 498.252 715.328 Q489.767 715.328 487.1 715.55 M501.439 689.607 L511.887 689.607 Q515.296 689.607 517.778 688.643 Q520.261 687.679 521.372 686.531 Q522.521 685.345 523.151 683.454 Q523.818 681.527 523.892 680.489 Q523.966 679.415 523.966 677.821 Q523.966 676.153 523.892 675.115 Q523.818 674.041 523.151 672.151 Q522.521 670.223 521.372 669.074 Q520.261 667.888 517.778 666.999 Q515.333 666.072 511.887 666.072 L505.144 666.072 Q502.55 666.072 501.994 666.591 Q501.439 667.11 501.439 669.111 L501.439 689.607 Z" fill="#000000" fill-rule="evenodd" fill-opacity="1" /><path clip-path="url(#clip380)" d="M532.154 715.55 L532.154 713.215 Q538.898 713.067 540.639 708.101 L556.349 662.737 Q556.645 661.81 556.979 661.514 Q557.312 661.217 558.164 661.217 Q558.609 661.217 558.868 661.291 Q559.165 661.366 559.35 661.625 Q559.535 661.884 559.609 662.033 Q559.683 662.181 559.906 662.737 L576.283 710.176 Q576.875 712.066 578.098 712.659 Q579.321 713.215 582.767 713.215 L584.1 713.215 L584.1 715.55 Q579.321 715.328 574.171 715.328 Q565.982 715.328 563.24 715.55 L563.24 713.215 Q569.539 713.215 569.539 710.917 Q569.539 710.769 569.317 709.842 L565.315 698.242 L546.567 698.242 L543.047 708.175 Q542.899 708.471 542.899 709.324 Q542.899 710.917 544.381 712.066 Q545.863 713.215 548.605 713.215 L548.605 715.55 Q541.306 715.328 539.861 715.328 Q537.379 715.328 532.154 715.55 M547.382 695.907 L564.463 695.907 L555.904 671.224 L547.382 695.907 Z" fill="#000000" fill-rule="evenodd" fill-opacity="1" /><path clip-path="url(#clip380)" d="M591.548 682.083 Q591.548 680.786 593.289 679.934 L603.849 674.93 L593.141 669.927 Q591.548 669.186 591.548 667.888 Q591.548 667.147 592.141 666.48 Q592.77 665.776 593.586 665.776 Q594.178 665.776 595.253 666.591 L604.664 673.411 Q603.515 660.884 603.552 660.513 Q603.552 659.772 604.108 659.216 Q604.664 658.623 605.59 658.623 Q606.331 658.623 606.924 659.179 Q607.554 659.698 607.554 660.513 L606.442 673.411 L614.853 667.184 Q616.817 665.739 617.521 665.776 Q618.373 665.776 618.966 666.443 Q619.559 667.11 619.559 667.888 Q619.559 669.186 617.817 670.001 L607.258 675.004 L617.965 680.045 Q619.559 680.786 619.559 682.083 Q619.559 682.824 618.929 683.529 Q618.336 684.196 617.521 684.196 Q617.076 684.196 616.298 683.751 Q616.15 683.677 614.557 682.491 Q612.963 681.305 610.481 679.489 Q608.036 677.673 606.442 676.524 Q607.591 689.051 607.554 689.421 Q607.554 690.163 606.998 690.756 Q606.442 691.349 605.516 691.349 Q604.775 691.349 604.145 690.83 Q603.552 690.274 603.552 689.421 L604.664 676.524 L594.067 684.196 Q592.919 684.196 592.289 683.64 Q591.696 683.047 591.622 682.713 Q591.548 682.38 591.548 682.083 Z" fill="#000000" fill-rule="evenodd" fill-opacity="1" /><polyline clip-path="url(#clip380)" style="stroke:#66c5cc; stroke-linecap:round; stroke-linejoin:round; stroke-width:18.0033; stroke-opacity:1; fill:none" points="324.829,767.4 417.964,767.4 "/>
<path clip-path="url(#clip380)" d="M433.486 793.324 L433.486 790.989 L435.302 790.989 Q439.414 790.989 440.341 790.322 Q441.304 789.618 441.304 787.394 L441.304 747.405 Q441.304 745.218 440.341 744.551 Q439.377 743.847 435.302 743.847 L433.486 743.847 L433.486 741.475 L461.238 741.475 Q468.463 741.475 473.28 745.366 Q478.096 749.221 478.096 754.298 Q478.096 758.486 474.539 761.822 Q471.019 765.157 465.499 766.232 Q471.797 766.899 475.947 770.717 Q480.134 774.497 480.134 779.426 Q480.134 784.985 475.354 789.173 Q470.575 793.324 463.239 793.324 L433.486 793.324 M447.603 787.95 Q447.603 789.915 448.159 790.471 Q448.714 790.989 451.308 790.989 L460.793 790.989 Q466.24 790.989 469.389 787.431 Q472.538 783.836 472.538 779.352 Q472.538 774.867 469.76 771.05 Q467.018 767.196 461.868 767.196 L447.603 767.196 L447.603 787.95 M447.603 765.528 L458.607 765.528 Q464.461 765.528 467.574 762.007 Q470.723 758.486 470.723 754.298 Q470.723 750.592 468.203 747.219 Q465.721 743.847 460.719 743.847 L451.308 743.847 Q448.714 743.847 448.159 744.366 Q447.603 744.884 447.603 746.886 L447.603 765.528 Z" fill="#000000" fill-rule="evenodd" fill-opacity="1" /><path clip-path="url(#clip380)" d="M487.1 793.324 L487.1 790.989 L488.915 790.989 Q493.028 790.989 493.954 790.322 Q494.918 789.618 494.918 787.394 L494.918 747.405 Q494.918 745.218 493.954 744.551 Q492.991 743.847 488.915 743.847 L487.1 743.847 L487.1 741.475 L513.888 741.475 Q521.558 741.475 526.671 745.7 Q531.784 749.925 531.784 755.595 Q531.784 761.229 526.559 765.306 Q521.372 769.345 514.481 769.345 L501.661 769.345 L501.661 787.394 Q501.661 789.581 502.587 790.285 Q503.551 790.989 507.663 790.989 L509.479 790.989 L509.479 793.324 Q506.811 793.102 498.252 793.102 Q489.767 793.102 487.1 793.324 M501.439 767.381 L511.887 767.381 Q515.296 767.381 517.778 766.417 Q520.261 765.454 521.372 764.305 Q522.521 763.119 523.151 761.229 Q523.818 759.302 523.892 758.264 Q523.966 757.189 523.966 755.595 Q523.966 753.928 523.892 752.89 Q523.818 751.815 523.151 749.925 Q522.521 747.998 521.372 746.849 Q520.261 745.663 517.778 744.773 Q515.333 743.847 511.887 743.847 L505.144 743.847 Q502.55 743.847 501.994 744.366 Q501.439 744.884 501.439 746.886 L501.439 767.381 Z" fill="#000000" fill-rule="evenodd" fill-opacity="1" /><path clip-path="url(#clip380)" d="M532.154 793.324 L532.154 790.989 Q538.898 790.841 540.639 785.875 L556.349 740.511 Q556.645 739.585 556.979 739.288 Q557.312 738.992 558.164 738.992 Q558.609 738.992 558.868 739.066 Q559.165 739.14 559.35 739.399 Q559.535 739.659 559.609 739.807 Q559.683 739.955 559.906 740.511 L576.283 787.95 Q576.875 789.84 578.098 790.433 Q579.321 790.989 582.767 790.989 L584.1 790.989 L584.1 793.324 Q579.321 793.102 574.171 793.102 Q565.982 793.102 563.24 793.324 L563.24 790.989 Q569.539 790.989 569.539 788.692 Q569.539 788.543 569.317 787.617 L565.315 776.016 L546.567 776.016 L543.047 785.949 Q542.899 786.245 542.899 787.098 Q542.899 788.692 544.381 789.84 Q545.863 790.989 548.605 790.989 L548.605 793.324 Q541.306 793.102 539.861 793.102 Q537.379 793.102 532.154 793.324 M547.382 773.682 L564.463 773.682 L555.904 748.998 L547.382 773.682 Z" fill="#000000" fill-rule="evenodd" fill-opacity="1" /></svg>
