<?xml version="1.0" encoding="utf-8"?>
<svg xmlns="http://www.w3.org/2000/svg" xmlns:xlink="http://www.w3.org/1999/xlink" width="426.75" height="263.5" viewBox="0 0 1707 1054">
<defs>
  <clipPath id="clip530">
    <rect x="0" y="0" width="1707" height="1054"/>
  </clipPath>
</defs>
<path clip-path="url(#clip530)" d="M0 1054 L1707 1054 L1707 0 L0 0  Z" fill="#ffffff" fill-rule="evenodd" fill-opacity="1"/>
<defs>
  <clipPath id="clip531">
    <rect x="341" y="0" width="1196" height="1054"/>
  </clipPath>
</defs>
<defs>
  <clipPath id="clip532">
    <rect x="242" y="47" width="1418" height="842"/>
  </clipPath>
</defs>
<path clip-path="url(#clip530)" d="M204.659 888.691 L1659.76 888.691 L1659.76 47.2528 L204.659 47.2528  Z" fill="#ffffff" fill-rule="evenodd" fill-opacity="1"/>
<defs>
  <clipPath id="clip533">
    <rect x="204" y="47" width="1456" height="842"/>
  </clipPath>
</defs>
<polyline clip-path="url(#clip533)" style="stroke:#000000; stroke-linecap:round; stroke-linejoin:round; stroke-width:2.00037; stroke-opacity:0.1; fill:none" points="245.841,888.691 245.841,47.2528 "/>
<polyline clip-path="url(#clip533)" style="stroke:#000000; stroke-linecap:round; stroke-linejoin:round; stroke-width:2.00037; stroke-opacity:0.1; fill:none" points="589.025,888.691 589.025,47.2528 "/>
<polyline clip-path="url(#clip533)" style="stroke:#000000; stroke-linecap:round; stroke-linejoin:round; stroke-width:2.00037; stroke-opacity:0.1; fill:none" points="932.21,888.691 932.21,47.2528 "/>
<polyline clip-path="url(#clip533)" style="stroke:#000000; stroke-linecap:round; stroke-linejoin:round; stroke-width:2.00037; stroke-opacity:0.1; fill:none" points="1275.39,888.691 1275.39,47.2528 "/>
<polyline clip-path="url(#clip533)" style="stroke:#000000; stroke-linecap:round; stroke-linejoin:round; stroke-width:2.00037; stroke-opacity:0.1; fill:none" points="1618.58,888.691 1618.58,47.2528 "/>
<polyline clip-path="url(#clip530)" style="stroke:#000000; stroke-linecap:round; stroke-linejoin:round; stroke-width:4.00074; stroke-opacity:1; fill:none" points="204.659,888.691 1659.76,888.691 "/>
<polyline clip-path="url(#clip530)" style="stroke:#000000; stroke-linecap:round; stroke-linejoin:round; stroke-width:4.00074; stroke-opacity:1; fill:none" points="204.659,47.2528 1659.76,47.2528 "/>
<polyline clip-path="url(#clip530)" style="stroke:#000000; stroke-linecap:round; stroke-linejoin:round; stroke-width:4.00074; stroke-opacity:1; fill:none" points="245.841,888.691 245.841,869.79 "/>
<polyline clip-path="url(#clip530)" style="stroke:#000000; stroke-linecap:round; stroke-linejoin:round; stroke-width:4.00074; stroke-opacity:1; fill:none" points="589.025,888.691 589.025,869.79 "/>
<polyline clip-path="url(#clip530)" style="stroke:#000000; stroke-linecap:round; stroke-linejoin:round; stroke-width:4.00074; stroke-opacity:1; fill:none" points="932.21,888.691 932.21,869.79 "/>
<polyline clip-path="url(#clip530)" style="stroke:#000000; stroke-linecap:round; stroke-linejoin:round; stroke-width:4.00074; stroke-opacity:1; fill:none" points="1275.39,888.691 1275.39,869.79 "/>
<polyline clip-path="url(#clip530)" style="stroke:#000000; stroke-linecap:round; stroke-linejoin:round; stroke-width:4.00074; stroke-opacity:1; fill:none" points="1618.58,888.691 1618.58,869.79 "/>
<path clip-path="url(#clip530)" d="M211.73 932.753 Q211.73 924.387 213.842 919.828 Q216.788 913.046 223.735 913.046 Q225.208 913.046 226.736 913.463 Q228.292 913.852 230.238 915.381 Q232.211 916.91 233.406 919.411 Q235.684 924.248 235.684 932.753 Q235.684 941.065 233.572 945.595 Q230.488 952.211 223.679 952.211 Q221.123 952.211 218.511 950.905 Q215.926 949.598 214.287 946.457 Q211.73 941.76 211.73 932.753 M216.454 932.059 Q216.454 940.648 217.066 944.067 Q217.761 947.764 219.65 949.376 Q221.568 950.96 223.679 950.96 Q225.958 950.96 227.848 949.265 Q229.765 947.541 230.349 943.844 Q230.988 940.203 230.96 932.059 Q230.96 924.137 230.404 920.968 Q229.654 917.271 227.653 915.798 Q225.68 914.297 223.679 914.297 Q222.929 914.297 222.123 914.519 Q221.345 914.741 220.206 915.381 Q219.067 916.02 218.177 917.604 Q217.316 919.189 216.899 921.579 Q216.454 924.665 216.454 932.059 Z" fill="#000000" fill-rule="evenodd" fill-opacity="1" /><path clip-path="url(#clip530)" d="M243.659 950.043 Q242.798 949.126 242.798 947.93 Q242.798 946.735 243.659 945.873 Q244.521 944.984 245.827 944.984 Q247.077 944.984 247.911 945.818 Q248.773 946.624 248.773 947.958 Q248.773 949.265 247.856 950.126 Q246.966 950.96 245.827 950.96 Q244.521 950.96 243.659 950.043 Z" fill="#000000" fill-rule="evenodd" fill-opacity="1" /><path clip-path="url(#clip530)" d="M255.998 932.753 Q255.998 924.387 258.11 919.828 Q261.055 913.046 268.002 913.046 Q269.475 913.046 271.003 913.463 Q272.56 913.852 274.505 915.381 Q276.478 916.91 277.673 919.411 Q279.951 924.248 279.951 932.753 Q279.951 941.065 277.839 945.595 Q274.755 952.211 267.947 952.211 Q265.39 952.211 262.778 950.905 Q260.194 949.598 258.554 946.457 Q255.998 941.76 255.998 932.753 M260.722 932.059 Q260.722 940.648 261.333 944.067 Q262.028 947.764 263.917 949.376 Q265.835 950.96 267.947 950.96 Q270.225 950.96 272.115 949.265 Q274.032 947.541 274.616 943.844 Q275.255 940.203 275.227 932.059 Q275.227 924.137 274.672 920.968 Q273.921 917.271 271.92 915.798 Q269.947 914.297 267.947 914.297 Q267.196 914.297 266.391 914.519 Q265.612 914.741 264.473 915.381 Q263.334 916.02 262.445 917.604 Q261.583 919.189 261.166 921.579 Q260.722 924.665 260.722 932.059 Z" fill="#000000" fill-rule="evenodd" fill-opacity="1" /><path clip-path="url(#clip530)" d="M555.22 932.753 Q555.22 924.387 557.332 919.828 Q560.278 913.046 567.225 913.046 Q568.698 913.046 570.226 913.463 Q571.782 913.852 573.728 915.381 Q575.701 916.91 576.896 919.411 Q579.174 924.248 579.174 932.753 Q579.174 941.065 577.062 945.595 Q573.978 952.211 567.17 952.211 Q564.613 952.211 562.001 950.905 Q559.417 949.598 557.777 946.457 Q555.22 941.76 555.22 932.753 M559.945 932.059 Q559.945 940.648 560.556 944.067 Q561.251 947.764 563.14 949.376 Q565.058 950.96 567.17 950.96 Q569.448 950.96 571.338 949.265 Q573.255 947.541 573.839 943.844 Q574.478 940.203 574.45 932.059 Q574.45 924.137 573.894 920.968 Q573.144 917.271 571.143 915.798 Q569.17 914.297 567.17 914.297 Q566.419 914.297 565.613 914.519 Q564.835 914.741 563.696 915.381 Q562.557 916.02 561.667 917.604 Q560.806 919.189 560.389 921.579 Q559.945 924.665 559.945 932.059 Z" fill="#000000" fill-rule="evenodd" fill-opacity="1" /><path clip-path="url(#clip530)" d="M587.15 950.043 Q586.288 949.126 586.288 947.93 Q586.288 946.735 587.15 945.873 Q588.011 944.984 589.317 944.984 Q590.568 944.984 591.401 945.818 Q592.263 946.624 592.263 947.958 Q592.263 949.265 591.346 950.126 Q590.456 950.96 589.317 950.96 Q588.011 950.96 587.15 950.043 Z" fill="#000000" fill-rule="evenodd" fill-opacity="1" /><path clip-path="url(#clip530)" d="M600.099 941.787 Q600.099 940.092 601.016 939.452 Q601.933 938.785 602.906 938.785 Q604.212 938.785 604.962 939.619 Q605.74 940.425 605.74 941.565 Q605.74 942.705 604.962 943.538 Q604.212 944.345 602.906 944.345 Q602.267 944.345 601.933 944.233 Q602.683 946.846 604.962 948.736 Q607.268 950.627 610.297 950.627 Q614.104 950.627 616.383 946.93 Q617.745 944.539 617.745 939.119 Q617.745 934.338 616.717 931.947 Q615.133 928.306 611.881 928.306 Q607.268 928.306 604.545 932.281 Q604.212 932.781 603.823 932.809 Q603.267 932.809 603.128 932.503 Q603.017 932.17 603.017 931.308 L603.017 914.463 Q603.017 913.101 603.573 913.101 Q603.795 913.101 604.267 913.268 Q607.852 914.853 611.826 914.88 Q615.911 914.88 619.579 913.213 Q619.857 913.046 620.023 913.046 Q620.579 913.046 620.607 913.685 Q620.607 913.908 620.135 914.575 Q619.69 915.214 618.717 916.076 Q617.745 916.91 616.494 917.716 Q615.244 918.522 613.41 919.078 Q611.603 919.606 609.603 919.606 Q607.213 919.606 604.767 918.855 L604.767 929.946 Q607.713 927.055 611.993 927.055 Q616.55 927.055 619.69 930.724 Q622.83 934.393 622.83 939.508 Q622.83 944.873 619.106 948.542 Q615.411 952.211 610.409 952.211 Q605.851 952.211 602.961 948.959 Q600.099 945.707 600.099 941.787 Z" fill="#000000" fill-rule="evenodd" fill-opacity="1" /><path clip-path="url(#clip530)" d="M899.516 918.466 L899.516 916.687 Q906.352 916.687 909.881 913.046 Q910.854 913.046 911.021 913.268 Q911.188 913.491 911.188 914.519 L911.188 946.457 Q911.188 948.153 912.021 948.681 Q912.855 949.209 916.495 949.209 L918.301 949.209 L918.301 950.96 Q916.301 950.793 909.076 950.793 Q901.851 950.793 899.878 950.96 L899.878 949.209 L901.684 949.209 Q905.269 949.209 906.13 948.709 Q906.991 948.18 906.991 946.457 L906.991 916.965 Q904.018 918.466 899.516 918.466 Z" fill="#000000" fill-rule="evenodd" fill-opacity="1" /><path clip-path="url(#clip530)" d="M928.611 950.043 Q927.75 949.126 927.75 947.93 Q927.75 946.735 928.611 945.873 Q929.472 944.984 930.779 944.984 Q932.029 944.984 932.863 945.818 Q933.724 946.624 933.724 947.958 Q933.724 949.265 932.807 950.126 Q931.918 950.96 930.779 950.96 Q929.472 950.96 928.611 950.043 Z" fill="#000000" fill-rule="evenodd" fill-opacity="1" /><path clip-path="url(#clip530)" d="M940.949 932.753 Q940.949 924.387 943.061 919.828 Q946.007 913.046 952.954 913.046 Q954.427 913.046 955.955 913.463 Q957.511 913.852 959.456 915.381 Q961.429 916.91 962.624 919.411 Q964.903 924.248 964.903 932.753 Q964.903 941.065 962.791 945.595 Q959.706 952.211 952.898 952.211 Q950.342 952.211 947.73 950.905 Q945.145 949.598 943.506 946.457 Q940.949 941.76 940.949 932.753 M945.673 932.059 Q945.673 940.648 946.285 944.067 Q946.979 947.764 948.869 949.376 Q950.786 950.96 952.898 950.96 Q955.177 950.96 957.067 949.265 Q958.984 947.541 959.567 943.844 Q960.207 940.203 960.179 932.059 Q960.179 924.137 959.623 920.968 Q958.873 917.271 956.872 915.798 Q954.899 914.297 952.898 914.297 Q952.148 914.297 951.342 914.519 Q950.564 914.741 949.425 915.381 Q948.285 916.02 947.396 917.604 Q946.535 919.189 946.118 921.579 Q945.673 924.665 945.673 932.059 Z" fill="#000000" fill-rule="evenodd" fill-opacity="1" /><path clip-path="url(#clip530)" d="M1243.01 918.466 L1243.01 916.687 Q1249.84 916.687 1253.37 913.046 Q1254.34 913.046 1254.51 913.268 Q1254.68 913.491 1254.68 914.519 L1254.68 946.457 Q1254.68 948.153 1255.51 948.681 Q1256.34 949.209 1259.99 949.209 L1261.79 949.209 L1261.79 950.96 Q1259.79 950.793 1252.57 950.793 Q1245.34 950.793 1243.37 950.96 L1243.37 949.209 L1245.17 949.209 Q1248.76 949.209 1249.62 948.709 Q1250.48 948.18 1250.48 946.457 L1250.48 916.965 Q1247.51 918.466 1243.01 918.466 Z" fill="#000000" fill-rule="evenodd" fill-opacity="1" /><path clip-path="url(#clip530)" d="M1272.1 950.043 Q1271.24 949.126 1271.24 947.93 Q1271.24 946.735 1272.1 945.873 Q1272.96 944.984 1274.27 944.984 Q1275.52 944.984 1276.35 945.818 Q1277.21 946.624 1277.21 947.958 Q1277.21 949.265 1276.3 950.126 Q1275.41 950.96 1274.27 950.96 Q1272.96 950.96 1272.1 950.043 Z" fill="#000000" fill-rule="evenodd" fill-opacity="1" /><path clip-path="url(#clip530)" d="M1285.05 941.787 Q1285.05 940.092 1285.97 939.452 Q1286.88 938.785 1287.86 938.785 Q1289.16 938.785 1289.91 939.619 Q1290.69 940.425 1290.69 941.565 Q1290.69 942.705 1289.91 943.538 Q1289.16 944.345 1287.86 944.345 Q1287.22 944.345 1286.88 944.233 Q1287.63 946.846 1289.91 948.736 Q1292.22 950.627 1295.25 950.627 Q1299.06 950.627 1301.33 946.93 Q1302.7 944.539 1302.7 939.119 Q1302.7 934.338 1301.67 931.947 Q1300.08 928.306 1296.83 928.306 Q1292.22 928.306 1289.5 932.281 Q1289.16 932.781 1288.77 932.809 Q1288.22 932.809 1288.08 932.503 Q1287.97 932.17 1287.97 931.308 L1287.97 914.463 Q1287.97 913.101 1288.52 913.101 Q1288.75 913.101 1289.22 913.268 Q1292.8 914.853 1296.78 914.88 Q1300.86 914.88 1304.53 913.213 Q1304.81 913.046 1304.97 913.046 Q1305.53 913.046 1305.56 913.685 Q1305.56 913.908 1305.09 914.575 Q1304.64 915.214 1303.67 916.076 Q1302.7 916.91 1301.45 917.716 Q1300.2 918.522 1298.36 919.078 Q1296.56 919.606 1294.55 919.606 Q1292.16 919.606 1289.72 918.855 L1289.72 929.946 Q1292.66 927.055 1296.94 927.055 Q1301.5 927.055 1304.64 930.724 Q1307.78 934.393 1307.78 939.508 Q1307.78 944.873 1304.06 948.542 Q1300.36 952.211 1295.36 952.211 Q1290.8 952.211 1287.91 948.959 Q1285.05 945.707 1285.05 941.787 Z" fill="#000000" fill-rule="evenodd" fill-opacity="1" /><path clip-path="url(#clip530)" d="M1584.77 950.96 Q1584.77 949.932 1584.86 949.626 Q1584.97 949.32 1585.41 948.848 L1596.33 936.673 Q1602.31 929.946 1602.31 924.081 Q1602.31 920.273 1600.31 917.549 Q1598.33 914.825 1594.69 914.825 Q1592.19 914.825 1590.08 916.354 Q1587.97 917.882 1587 920.606 Q1587.16 920.551 1587.75 920.551 Q1589.16 920.551 1589.94 921.44 Q1590.75 922.33 1590.75 923.525 Q1590.75 925.054 1589.75 925.804 Q1588.78 926.527 1587.8 926.527 Q1587.41 926.527 1586.89 926.444 Q1586.39 926.36 1585.58 925.582 Q1584.77 924.776 1584.77 923.358 Q1584.77 919.383 1587.77 916.215 Q1590.8 913.046 1595.42 913.046 Q1600.64 913.046 1604.06 916.159 Q1607.5 919.244 1607.5 924.081 Q1607.5 925.777 1606.98 927.333 Q1606.48 928.862 1605.78 930.057 Q1605.11 931.252 1603.28 933.17 Q1601.45 935.088 1599.97 936.45 Q1598.5 937.812 1595.19 940.703 L1589.16 946.568 L1599.42 946.568 Q1604.42 946.568 1604.81 946.124 Q1605.36 945.317 1606.06 941.065 L1607.5 941.065 L1605.89 950.96 L1584.77 950.96 Z" fill="#000000" fill-rule="evenodd" fill-opacity="1" /><path clip-path="url(#clip530)" d="M1616.09 950.043 Q1615.23 949.126 1615.23 947.93 Q1615.23 946.735 1616.09 945.873 Q1616.95 944.984 1618.26 944.984 Q1619.51 944.984 1620.34 945.818 Q1621.2 946.624 1621.2 947.958 Q1621.2 949.265 1620.29 950.126 Q1619.4 950.96 1618.26 950.96 Q1616.95 950.96 1616.09 950.043 Z" fill="#000000" fill-rule="evenodd" fill-opacity="1" /><path clip-path="url(#clip530)" d="M1628.43 932.753 Q1628.43 924.387 1630.54 919.828 Q1633.49 913.046 1640.43 913.046 Q1641.91 913.046 1643.44 913.463 Q1644.99 913.852 1646.94 915.381 Q1648.91 916.91 1650.1 919.411 Q1652.38 924.248 1652.38 932.753 Q1652.38 941.065 1650.27 945.595 Q1647.19 952.211 1640.38 952.211 Q1637.82 952.211 1635.21 950.905 Q1632.63 949.598 1630.99 946.457 Q1628.43 941.76 1628.43 932.753 M1633.15 932.059 Q1633.15 940.648 1633.76 944.067 Q1634.46 947.764 1636.35 949.376 Q1638.27 950.96 1640.38 950.96 Q1642.66 950.96 1644.55 949.265 Q1646.46 947.541 1647.05 943.844 Q1647.69 940.203 1647.66 932.059 Q1647.66 924.137 1647.1 920.968 Q1646.35 917.271 1644.35 915.798 Q1642.38 914.297 1640.38 914.297 Q1639.63 914.297 1638.82 914.519 Q1638.04 914.741 1636.9 915.381 Q1635.77 916.02 1634.88 917.604 Q1634.01 919.189 1633.6 921.579 Q1633.15 924.665 1633.15 932.059 Z" fill="#000000" fill-rule="evenodd" fill-opacity="1" /><path clip-path="url(#clip530)" d="M862.337 995.884 L863.541 981.677 L902.167 981.677 L903.371 995.884 L901.797 995.884 Q901.55 993.043 901.303 991.406 Q901.086 989.769 900.531 988.225 Q900.006 986.65 899.326 985.909 Q898.678 985.136 897.412 984.55 Q896.146 983.932 894.51 983.778 Q892.873 983.623 890.403 983.623 Q887.501 983.623 886.791 983.747 Q886.019 983.932 885.834 984.488 Q885.648 985.013 885.648 986.156 L885.648 1019.48 Q885.648 1020.75 885.895 1021.27 Q886.173 1021.77 887.624 1022.17 Q889.076 1022.54 892.287 1022.54 L894.819 1022.54 L894.819 1024.48 Q892.225 1024.3 882.808 1024.3 Q873.452 1024.3 870.859 1024.48 L870.859 1022.54 L873.39 1022.54 Q876.602 1022.54 878.053 1022.17 Q879.535 1021.77 879.782 1021.27 Q880.029 1020.75 880.029 1019.48 L880.029 986.156 Q880.029 985.26 879.967 984.889 Q879.905 984.519 879.627 984.21 Q879.35 983.87 878.701 983.747 Q878.084 983.623 875.305 983.623 Q872.835 983.623 871.167 983.778 Q869.531 983.932 868.265 984.55 Q866.999 985.136 866.32 985.909 Q865.671 986.65 865.116 988.225 Q864.591 989.769 864.375 991.406 Q864.158 993.043 863.911 995.884 L862.337 995.884 Z" fill="#000000" fill-rule="evenodd" fill-opacity="1" /><path clip-path="url(#clip530)" d="M907.787 1024.48 L907.787 1022.54 Q911.152 1022.54 911.924 1022.14 Q912.696 1021.7 912.696 1019.67 L912.696 1002.65 Q912.696 1000.3 911.893 999.745 Q911.121 999.189 908.034 999.189 L908.034 997.212 L916.864 996.533 L916.864 1019.73 Q916.864 1021.61 917.543 1022.07 Q918.223 1022.54 921.31 1022.54 L921.31 1024.48 Q914.857 1024.3 914.734 1024.3 Q913.869 1024.3 907.787 1024.48 M910.442 985.507 Q910.442 984.241 911.399 983.222 Q912.387 982.172 913.777 982.172 Q915.166 982.172 916.154 983.129 Q917.142 984.056 917.142 985.538 Q917.142 986.99 916.154 987.947 Q915.166 988.874 913.777 988.874 Q912.325 988.874 911.368 987.854 Q910.442 986.835 910.442 985.507 Z" fill="#000000" fill-rule="evenodd" fill-opacity="1" /><path clip-path="url(#clip530)" d="M925.232 1024.48 L925.232 1022.54 Q928.597 1022.54 929.369 1022.14 Q930.141 1021.7 930.141 1019.67 L930.141 1002.71 Q930.141 1000.36 929.307 999.776 Q928.504 999.189 925.232 999.189 L925.232 997.212 L934.124 996.533 L934.124 1003.17 Q937.088 996.533 943.479 996.533 Q950.89 996.533 951.909 1002.71 Q952.989 1000.3 955.243 998.417 Q957.528 996.533 961.079 996.533 Q965.834 996.533 967.717 998.88 Q969.107 1000.46 969.385 1002.22 Q969.662 1003.98 969.662 1008.55 L969.662 1020.62 Q969.724 1021.95 970.743 1022.26 Q971.762 1022.54 974.603 1022.54 L974.603 1024.48 Q968.15 1024.3 967.532 1024.3 Q967.038 1024.3 960.369 1024.48 L960.369 1022.54 Q963.734 1022.54 964.506 1022.14 Q965.309 1021.7 965.309 1019.67 L965.309 1004.93 Q965.309 1001.72 964.321 999.838 Q963.333 997.923 960.616 997.923 Q957.343 997.923 954.718 1000.67 Q952.094 1003.42 952.094 1008.05 L952.094 1019.67 Q952.094 1021.7 952.866 1022.14 Q953.669 1022.54 957.034 1022.54 L957.034 1024.48 Q950.581 1024.3 949.933 1024.3 Q949.439 1024.3 942.8 1024.48 L942.8 1022.54 Q946.166 1022.54 946.938 1022.14 Q947.74 1021.7 947.74 1019.67 L947.74 1004.93 Q947.74 1001.72 946.752 999.838 Q945.764 997.923 943.047 997.923 Q939.774 997.923 937.15 1000.67 Q934.525 1003.42 934.525 1008.05 L934.525 1019.67 Q934.525 1021.7 935.297 1022.14 Q936.1 1022.54 939.435 1022.54 L939.435 1024.48 Q932.982 1024.3 932.364 1024.3 Q931.87 1024.3 925.232 1024.48 Z" fill="#000000" fill-rule="evenodd" fill-opacity="1" /><path clip-path="url(#clip530)" d="M977.598 1010.55 Q977.598 1004.59 981.426 1000.36 Q985.255 996.131 990.751 996.131 Q996.309 996.131 999.18 999.745 Q1002.08 1003.36 1002.08 1008.55 Q1002.08 1009.5 1001.84 1009.69 Q1001.59 1009.88 1000.51 1009.88 L982.847 1009.88 Q982.847 1016.33 984.761 1019.36 Q987.416 1023.59 991.893 1023.59 Q992.511 1023.59 993.252 1023.46 Q993.993 1023.34 995.506 1022.82 Q997.019 1022.26 998.346 1020.81 Q999.674 1019.36 1000.45 1017.07 Q1000.63 1016.18 1001.25 1016.21 Q1002.08 1016.21 1002.08 1016.95 Q1002.08 1017.5 1001.46 1018.77 Q1000.88 1020.01 999.736 1021.49 Q998.593 1022.97 996.37 1024.08 Q994.178 1025.19 991.523 1025.19 Q985.965 1025.19 981.766 1020.99 Q977.598 1016.76 977.598 1010.55 M982.908 1008.55 L997.914 1008.55 Q997.914 1007.22 997.667 1005.74 Q997.451 1004.25 996.772 1002.22 Q996.123 1000.15 994.58 998.849 Q993.036 997.552 990.751 997.552 Q989.732 997.552 988.62 997.985 Q987.54 998.417 986.212 999.467 Q984.884 1000.52 983.958 1002.9 Q983.032 1005.27 982.908 1008.55 Z" fill="#000000" fill-rule="evenodd" fill-opacity="1" /><polyline clip-path="url(#clip533)" style="stroke:#000000; stroke-linecap:round; stroke-linejoin:round; stroke-width:2.00037; stroke-opacity:0.1; fill:none" points="204.659,864.877 1659.76,864.877 "/>
<polyline clip-path="url(#clip533)" style="stroke:#000000; stroke-linecap:round; stroke-linejoin:round; stroke-width:2.00037; stroke-opacity:0.1; fill:none" points="204.659,691.431 1659.76,691.431 "/>
<polyline clip-path="url(#clip533)" style="stroke:#000000; stroke-linecap:round; stroke-linejoin:round; stroke-width:2.00037; stroke-opacity:0.1; fill:none" points="204.659,517.984 1659.76,517.984 "/>
<polyline clip-path="url(#clip533)" style="stroke:#000000; stroke-linecap:round; stroke-linejoin:round; stroke-width:2.00037; stroke-opacity:0.1; fill:none" points="204.659,344.538 1659.76,344.538 "/>
<polyline clip-path="url(#clip533)" style="stroke:#000000; stroke-linecap:round; stroke-linejoin:round; stroke-width:2.00037; stroke-opacity:0.1; fill:none" points="204.659,171.091 1659.76,171.091 "/>
<polyline clip-path="url(#clip530)" style="stroke:#000000; stroke-linecap:round; stroke-linejoin:round; stroke-width:4.00074; stroke-opacity:1; fill:none" points="204.659,888.691 204.659,47.2528 "/>
<polyline clip-path="url(#clip530)" style="stroke:#000000; stroke-linecap:round; stroke-linejoin:round; stroke-width:4.00074; stroke-opacity:1; fill:none" points="1659.76,888.691 1659.76,47.2528 "/>
<polyline clip-path="url(#clip530)" style="stroke:#000000; stroke-linecap:round; stroke-linejoin:round; stroke-width:4.00074; stroke-opacity:1; fill:none" points="204.659,864.877 223.555,864.877 "/>
<polyline clip-path="url(#clip530)" style="stroke:#000000; stroke-linecap:round; stroke-linejoin:round; stroke-width:4.00074; stroke-opacity:1; fill:none" points="204.659,691.431 223.555,691.431 "/>
<polyline clip-path="url(#clip530)" style="stroke:#000000; stroke-linecap:round; stroke-linejoin:round; stroke-width:4.00074; stroke-opacity:1; fill:none" points="204.659,517.984 223.555,517.984 "/>
<polyline clip-path="url(#clip530)" style="stroke:#000000; stroke-linecap:round; stroke-linejoin:round; stroke-width:4.00074; stroke-opacity:1; fill:none" points="204.659,344.538 223.555,344.538 "/>
<polyline clip-path="url(#clip530)" style="stroke:#000000; stroke-linecap:round; stroke-linejoin:round; stroke-width:4.00074; stroke-opacity:1; fill:none" points="204.659,171.091 223.555,171.091 "/>
<path clip-path="url(#clip530)" d="M110.833 866.114 Q110.833 857.747 112.945 853.189 Q115.89 846.406 122.837 846.406 Q124.31 846.406 125.839 846.823 Q127.395 847.212 129.34 848.741 Q131.313 850.27 132.508 852.772 Q134.787 857.608 134.787 866.114 Q134.787 874.425 132.675 878.956 Q129.59 885.571 122.782 885.571 Q120.225 885.571 117.613 884.265 Q115.029 882.959 113.389 879.818 Q110.833 875.12 110.833 866.114 M115.557 865.419 Q115.557 874.008 116.168 877.427 Q116.863 881.124 118.753 882.736 Q120.67 884.321 122.782 884.321 Q125.061 884.321 126.95 882.625 Q128.868 880.902 129.451 877.205 Q130.09 873.563 130.062 865.419 Q130.062 857.497 129.507 854.328 Q128.756 850.631 126.756 849.158 Q124.783 847.657 122.782 847.657 Q122.032 847.657 121.226 847.88 Q120.448 848.102 119.308 848.741 Q118.169 849.381 117.28 850.965 Q116.418 852.549 116.001 854.94 Q115.557 858.025 115.557 865.419 Z" fill="#000000" fill-rule="evenodd" fill-opacity="1" /><path clip-path="url(#clip530)" d="M142.762 883.403 Q141.9 882.486 141.9 881.291 Q141.9 880.096 142.762 879.234 Q143.623 878.344 144.929 878.344 Q146.18 878.344 147.014 879.178 Q147.875 879.984 147.875 881.319 Q147.875 882.625 146.958 883.487 Q146.069 884.321 144.929 884.321 Q143.623 884.321 142.762 883.403 Z" fill="#000000" fill-rule="evenodd" fill-opacity="1" /><path clip-path="url(#clip530)" d="M155.1 866.114 Q155.1 857.747 157.212 853.189 Q160.158 846.406 167.105 846.406 Q168.577 846.406 170.106 846.823 Q171.662 847.212 173.607 848.741 Q175.58 850.27 176.775 852.772 Q179.054 857.608 179.054 866.114 Q179.054 874.425 176.942 878.956 Q173.857 885.571 167.049 885.571 Q164.493 885.571 161.88 884.265 Q159.296 882.959 157.657 879.818 Q155.1 875.12 155.1 866.114 M159.824 865.419 Q159.824 874.008 160.435 877.427 Q161.13 881.124 163.02 882.736 Q164.937 884.321 167.049 884.321 Q169.328 884.321 171.217 882.625 Q173.135 880.902 173.718 877.205 Q174.358 873.563 174.33 865.419 Q174.33 857.497 173.774 854.328 Q173.024 850.631 171.023 849.158 Q169.05 847.657 167.049 847.657 Q166.299 847.657 165.493 847.88 Q164.715 848.102 163.576 848.741 Q162.436 849.381 161.547 850.965 Q160.686 852.549 160.269 854.94 Q159.824 858.025 159.824 865.419 Z" fill="#000000" fill-rule="evenodd" fill-opacity="1" /><path clip-path="url(#clip530)" d="M113.167 692.668 Q113.167 684.301 115.279 679.742 Q118.225 672.96 125.172 672.96 Q126.644 672.96 128.173 673.377 Q129.729 673.766 131.674 675.295 Q133.647 676.824 134.842 679.325 Q137.121 684.162 137.121 692.668 Q137.121 700.979 135.009 705.509 Q131.924 712.125 125.116 712.125 Q122.56 712.125 119.947 710.819 Q117.363 709.512 115.724 706.371 Q113.167 701.674 113.167 692.668 M117.891 691.973 Q117.891 700.562 118.502 703.981 Q119.197 707.678 121.087 709.29 Q123.004 710.874 125.116 710.874 Q127.395 710.874 129.284 709.179 Q131.202 707.455 131.785 703.758 Q132.425 700.117 132.397 691.973 Q132.397 684.051 131.841 680.882 Q131.091 677.185 129.09 675.712 Q127.117 674.211 125.116 674.211 Q124.366 674.211 123.56 674.433 Q122.782 674.655 121.643 675.295 Q120.503 675.934 119.614 677.518 Q118.753 679.103 118.336 681.493 Q117.891 684.579 117.891 691.973 Z" fill="#000000" fill-rule="evenodd" fill-opacity="1" /><path clip-path="url(#clip530)" d="M145.096 709.957 Q144.235 709.04 144.235 707.844 Q144.235 706.649 145.096 705.787 Q145.958 704.898 147.264 704.898 Q148.514 704.898 149.348 705.732 Q150.209 706.538 150.209 707.872 Q150.209 709.179 149.292 710.04 Q148.403 710.874 147.264 710.874 Q145.958 710.874 145.096 709.957 Z" fill="#000000" fill-rule="evenodd" fill-opacity="1" /><path clip-path="url(#clip530)" d="M160.269 678.38 L160.269 676.601 Q167.105 676.601 170.634 672.96 Q171.606 672.96 171.773 673.182 Q171.94 673.405 171.94 674.433 L171.94 706.371 Q171.94 708.067 172.774 708.595 Q173.607 709.123 177.248 709.123 L179.054 709.123 L179.054 710.874 Q177.053 710.707 169.828 710.707 Q162.603 710.707 160.63 710.874 L160.63 709.123 L162.436 709.123 Q166.021 709.123 166.882 708.623 Q167.744 708.095 167.744 706.371 L167.744 676.879 Q164.77 678.38 160.269 678.38 Z" fill="#000000" fill-rule="evenodd" fill-opacity="1" /><path clip-path="url(#clip530)" d="M111.444 519.221 Q111.444 510.854 113.556 506.296 Q116.502 499.513 123.449 499.513 Q124.922 499.513 126.45 499.93 Q128.006 500.319 129.951 501.848 Q131.924 503.377 133.119 505.879 Q135.398 510.715 135.398 519.221 Q135.398 527.532 133.286 532.063 Q130.201 538.679 123.393 538.679 Q120.837 538.679 118.225 537.372 Q115.64 536.066 114.001 532.925 Q111.444 528.227 111.444 519.221 M116.168 518.526 Q116.168 527.115 116.78 530.534 Q117.474 534.231 119.364 535.843 Q121.281 537.428 123.393 537.428 Q125.672 537.428 127.562 535.732 Q129.479 534.009 130.062 530.312 Q130.702 526.67 130.674 518.526 Q130.674 510.604 130.118 507.435 Q129.368 503.738 127.367 502.265 Q125.394 500.764 123.393 500.764 Q122.643 500.764 121.837 500.987 Q121.059 501.209 119.92 501.848 Q118.78 502.488 117.891 504.072 Q117.03 505.656 116.613 508.047 Q116.168 511.132 116.168 518.526 Z" fill="#000000" fill-rule="evenodd" fill-opacity="1" /><path clip-path="url(#clip530)" d="M143.373 536.51 Q142.512 535.593 142.512 534.398 Q142.512 533.203 143.373 532.341 Q144.235 531.451 145.541 531.451 Q146.791 531.451 147.625 532.285 Q148.486 533.091 148.486 534.426 Q148.486 535.732 147.569 536.594 Q146.68 537.428 145.541 537.428 Q144.235 537.428 143.373 536.51 Z" fill="#000000" fill-rule="evenodd" fill-opacity="1" /><path clip-path="url(#clip530)" d="M156.323 537.428 Q156.323 536.399 156.406 536.093 Q156.517 535.788 156.962 535.315 L167.883 523.14 Q173.857 516.414 173.857 510.549 Q173.857 506.74 171.857 504.016 Q169.884 501.292 166.243 501.292 Q163.742 501.292 161.63 502.821 Q159.518 504.35 158.546 507.074 Q158.713 507.018 159.296 507.018 Q160.713 507.018 161.491 507.908 Q162.297 508.797 162.297 509.993 Q162.297 511.521 161.297 512.272 Q160.324 512.995 159.352 512.995 Q158.963 512.995 158.435 512.911 Q157.934 512.828 157.129 512.05 Q156.323 511.243 156.323 509.826 Q156.323 505.851 159.324 502.682 Q162.353 499.513 166.966 499.513 Q172.19 499.513 175.608 502.627 Q179.054 505.712 179.054 510.549 Q179.054 512.244 178.526 513.801 Q178.026 515.33 177.331 516.525 Q176.664 517.72 174.83 519.638 Q172.996 521.556 171.523 522.918 Q170.05 524.28 166.743 527.171 L160.713 533.036 L170.967 533.036 Q175.969 533.036 176.358 532.591 Q176.914 531.785 177.609 527.532 L179.054 527.532 L177.442 537.428 L156.323 537.428 Z" fill="#000000" fill-rule="evenodd" fill-opacity="1" /><path clip-path="url(#clip530)" d="M111 345.775 Q111 337.408 113.111 332.849 Q116.057 326.067 123.004 326.067 Q124.477 326.067 126.005 326.484 Q127.562 326.873 129.507 328.402 Q131.48 329.931 132.675 332.432 Q134.953 337.269 134.953 345.775 Q134.953 354.086 132.841 358.617 Q129.757 365.232 122.949 365.232 Q120.392 365.232 117.78 363.926 Q115.196 362.619 113.556 359.478 Q111 354.781 111 345.775 M115.724 345.08 Q115.724 353.669 116.335 357.088 Q117.03 360.785 118.919 362.397 Q120.837 363.981 122.949 363.981 Q125.227 363.981 127.117 362.286 Q129.034 360.562 129.618 356.865 Q130.257 353.224 130.229 345.08 Q130.229 337.158 129.673 333.989 Q128.923 330.292 126.922 328.819 Q124.949 327.318 122.949 327.318 Q122.198 327.318 121.392 327.54 Q120.614 327.763 119.475 328.402 Q118.336 329.041 117.446 330.626 Q116.585 332.21 116.168 334.6 Q115.724 337.686 115.724 345.08 Z" fill="#000000" fill-rule="evenodd" fill-opacity="1" /><path clip-path="url(#clip530)" d="M142.929 363.064 Q142.067 362.147 142.067 360.951 Q142.067 359.756 142.929 358.894 Q143.79 358.005 145.096 358.005 Q146.347 358.005 147.18 358.839 Q148.042 359.645 148.042 360.979 Q148.042 362.286 147.125 363.147 Q146.235 363.981 145.096 363.981 Q143.79 363.981 142.929 363.064 Z" fill="#000000" fill-rule="evenodd" fill-opacity="1" /><path clip-path="url(#clip530)" d="M155.433 356.309 Q155.433 354.614 156.406 353.808 Q157.379 353.002 158.629 353.002 Q159.935 353.002 160.852 353.863 Q161.797 354.697 161.797 356.17 Q161.797 357.755 160.686 358.644 Q159.602 359.534 158.046 359.311 Q159.407 361.591 161.908 362.619 Q164.437 363.648 166.771 363.648 Q169.217 363.648 171.19 361.535 Q173.19 359.423 173.19 354.252 Q173.19 349.861 171.467 347.331 Q169.772 344.802 166.41 344.802 L163.909 344.802 Q163.048 344.802 162.797 344.718 Q162.547 344.635 162.547 344.162 Q162.547 343.606 163.409 343.495 Q164.27 343.495 165.632 343.328 Q168.939 343.217 170.689 340.354 Q172.273 337.686 172.273 333.878 Q172.273 330.403 170.606 328.958 Q168.967 327.485 166.827 327.485 Q164.826 327.485 162.631 328.318 Q160.435 329.152 159.241 331.015 Q162.77 331.015 162.77 333.878 Q162.77 335.129 161.964 335.962 Q161.186 336.769 159.88 336.769 Q158.629 336.769 157.796 335.99 Q156.962 335.184 156.962 333.822 Q156.962 330.57 159.852 328.318 Q162.77 326.067 167.049 326.067 Q171.273 326.067 174.385 328.291 Q177.525 330.514 177.525 333.933 Q177.525 337.297 175.302 340.049 Q173.079 342.8 169.55 343.94 Q173.885 344.802 176.469 347.748 Q179.054 350.667 179.054 354.252 Q179.054 358.7 175.552 361.98 Q172.051 365.232 166.938 365.232 Q162.214 365.232 158.824 362.675 Q155.433 360.118 155.433 356.309 Z" fill="#000000" fill-rule="evenodd" fill-opacity="1" /><path clip-path="url(#clip530)" d="M110.194 172.328 Q110.194 163.961 112.306 159.403 Q115.251 152.62 122.198 152.62 Q123.671 152.62 125.199 153.037 Q126.756 153.427 128.701 154.955 Q130.674 156.484 131.869 158.986 Q134.147 163.822 134.147 172.328 Q134.147 180.639 132.035 185.17 Q128.951 191.786 122.143 191.786 Q119.586 191.786 116.974 190.479 Q114.39 189.173 112.75 186.032 Q110.194 181.334 110.194 172.328 M114.918 171.633 Q114.918 180.222 115.529 183.641 Q116.224 187.338 118.113 188.95 Q120.031 190.535 122.143 190.535 Q124.421 190.535 126.311 188.839 Q128.228 187.116 128.812 183.419 Q129.451 179.778 129.423 171.633 Q129.423 163.711 128.868 160.542 Q128.117 156.846 126.117 155.372 Q124.144 153.871 122.143 153.871 Q121.392 153.871 120.587 154.094 Q119.809 154.316 118.669 154.955 Q117.53 155.595 116.641 157.179 Q115.779 158.763 115.362 161.154 Q114.918 164.239 114.918 171.633 Z" fill="#000000" fill-rule="evenodd" fill-opacity="1" /><path clip-path="url(#clip530)" d="M142.123 189.617 Q141.261 188.7 141.261 187.505 Q141.261 186.31 142.123 185.448 Q142.984 184.559 144.29 184.559 Q145.541 184.559 146.374 185.392 Q147.236 186.199 147.236 187.533 Q147.236 188.839 146.319 189.701 Q145.43 190.535 144.29 190.535 Q142.984 190.535 142.123 189.617 Z" fill="#000000" fill-rule="evenodd" fill-opacity="1" /><path clip-path="url(#clip530)" d="M153.822 181.14 L153.822 179.388 L171.301 152.676 Q171.745 151.981 172.44 152.009 Q173.079 152.009 173.218 152.259 Q173.357 152.509 173.357 153.482 L173.357 179.388 L179.054 179.388 L179.054 181.14 L173.357 181.14 L173.357 186.087 Q173.357 187.727 174.024 188.255 Q174.719 188.784 177.664 188.784 L178.859 188.784 L178.859 190.535 Q176.525 190.368 171.134 190.368 Q165.771 190.368 163.437 190.535 L163.437 188.784 L164.631 188.784 Q167.577 188.784 168.272 188.283 Q168.967 187.755 168.967 186.087 L168.967 181.14 L153.822 181.14 M155.433 179.388 L169.3 179.388 L169.3 158.152 L155.433 179.388 Z" fill="#000000" fill-rule="evenodd" fill-opacity="1" /><path clip-path="url(#clip530)" d="M85.9642 550.008 Q86.4619 550.008 86.8132 550.359 Q87.1645 550.71 87.1645 551.208 Q87.1645 552.057 86.3741 552.35 L57.5965 563.507 Q57.4794 563.566 57.1867 563.566 Q56.8939 563.566 56.7768 563.507 L27.9993 552.35 Q27.2088 552.057 27.2088 551.208 Q27.2088 550.71 27.5601 550.359 Q27.9114 550.008 28.4091 550.008 Q28.7019 550.008 28.819 550.066 L57.1867 561.106 L85.5544 550.066 Q85.6715 550.008 85.9642 550.008 Z" fill="#000000" fill-rule="evenodd" fill-opacity="1" /><path clip-path="url(#clip530)" d="M31.8929 491.05 Q32.4198 491.05 32.7126 491.255 Q32.9761 491.431 33.0346 491.636 Q33.0639 491.841 33.0932 492.368 Q33.2981 496.555 36.1378 499.982 Q36.8697 500.831 39.1531 502.969 Q41.4366 505.077 44.4812 507.888 Q47.5258 510.67 49.1653 512.281 L67.6672 504.55 Q68.3991 504.228 68.7211 504.111 Q69.0139 503.964 69.3944 503.671 Q69.775 503.349 69.8921 503.115 Q70.0092 502.851 70.1556 502.295 Q70.2727 501.709 70.302 501.124 Q70.302 500.509 70.3312 499.396 Q70.3312 499.045 70.3605 498.898 Q70.3605 498.722 70.5362 498.517 Q70.6825 498.312 71.0338 498.312 Q71.5608 498.312 71.8536 498.547 Q72.117 498.752 72.1463 498.957 Q72.1756 499.132 72.1756 499.455 Q72.1756 500.216 72.0878 502.793 Q71.9999 505.37 71.9999 506.102 L72.1756 513.657 Q72.1756 514.565 71.4437 514.565 Q71.0631 514.565 70.8582 514.506 Q70.624 514.418 70.5362 514.213 Q70.4191 514.008 70.3898 513.862 Q70.3605 513.716 70.3312 513.364 Q70.2141 512.281 69.8921 511.461 Q69.5408 510.612 69.1895 510.26 Q68.8382 509.879 68.5747 509.879 L67.7257 510.172 L53.4102 516.234 L59.2945 521.651 L65.7643 527.772 Q67.4915 529.382 68.4576 529.382 Q70.0678 529.382 70.3312 526.981 Q70.3898 526.249 70.9753 526.249 Q71.5315 526.249 71.8243 526.483 Q72.0878 526.688 72.1463 526.893 Q72.1756 527.069 72.1756 527.332 Q72.1756 528.416 72.0878 530.7 Q71.9999 532.955 71.9999 534.068 Q71.9999 535.005 72.0878 536.908 Q72.1756 538.811 72.1756 539.69 Q72.1756 540.041 71.9999 540.246 Q71.8243 540.451 71.6486 540.451 L71.5022 540.481 Q71.0924 540.481 70.8582 540.422 Q70.624 540.334 70.5069 540.1 Q70.3898 539.836 70.3898 539.719 Q70.3605 539.602 70.3312 539.163 Q70.1849 536.674 69.2188 534.565 Q68.2527 532.428 65.9985 530.349 Q65.8521 530.173 65.6765 529.968 Q65.5008 529.734 65.3545 529.558 L51.7415 516.907 L34.9961 523.994 Q34.2349 524.316 33.9129 524.609 Q33.5616 524.902 33.3274 525.81 Q33.0932 526.717 33.0932 528.474 Q33.0932 528.972 33.0639 529.207 Q33.0346 529.441 32.8882 529.646 Q32.7419 529.851 32.4198 529.851 Q31.8636 529.851 31.6001 529.646 Q31.3074 529.411 31.2781 529.236 Q31.2195 529.031 31.2195 528.767 Q31.2195 528.035 31.3074 525.429 Q31.3952 522.823 31.3952 522.061 Q31.3952 520.802 31.3074 518.284 Q31.2195 515.736 31.2195 514.506 Q31.2195 513.598 31.9514 513.598 Q32.4198 513.598 32.6833 513.803 Q32.9468 514.008 33.0053 514.213 Q33.0639 514.418 33.0932 514.799 Q33.2103 515.941 33.5908 516.82 Q33.9421 517.669 34.2934 518.02 Q34.6155 518.342 34.8204 518.342 L35.6108 518.05 L47.5258 513.013 L37.1039 503.291 Q35.8158 502.149 34.9375 502.149 Q33.3566 502.149 33.0932 504.55 Q32.9761 505.282 32.4198 505.282 Q31.8636 505.282 31.6001 505.048 Q31.3074 504.813 31.2781 504.638 Q31.2195 504.433 31.2195 504.14 Q31.2195 503.056 31.3074 500.831 Q31.3952 498.576 31.3952 497.463 Q31.3952 496.526 31.3074 494.623 Q31.2195 492.719 31.2195 491.841 Q31.2195 491.489 31.3952 491.284 Q31.5416 491.079 31.7172 491.079 L31.8929 491.05 Z" fill="#000000" fill-rule="evenodd" fill-opacity="1" /><path clip-path="url(#clip530)" d="M64.8316 485.134 L63.52 485.134 Q63.52 480.091 60.8355 477.488 Q60.8355 476.771 60.9995 476.648 Q61.1634 476.525 61.9216 476.525 L85.4677 476.525 Q86.7177 476.525 87.1071 475.91 Q87.4965 475.295 87.4965 472.609 L87.4965 471.277 L88.7875 471.277 Q88.6645 472.753 88.6645 478.082 Q88.6645 483.412 88.7875 484.867 L87.4965 484.867 L87.4965 483.535 Q87.4965 480.891 87.1276 480.255 Q86.7382 479.62 85.4677 479.62 L63.725 479.62 Q64.8316 481.813 64.8316 485.134 Z" fill="#000000" fill-rule="evenodd" fill-opacity="1" /><path clip-path="url(#clip530)" d="M31.7758 425.13 Q31.9514 425.13 32.654 425.306 L70.1263 458.835 L70.1263 448.586 Q70.1263 445.57 69.5994 443.286 Q69.0431 441.002 68.1063 439.42 Q67.1695 437.839 65.5594 436.609 Q63.92 435.35 62.1342 434.53 Q60.3191 433.71 57.6551 432.861 Q56.6304 432.539 56.3962 432.392 Q56.162 432.246 56.162 431.865 Q56.162 431.484 56.3962 431.279 Q56.6012 431.074 56.8354 431.074 Q56.9525 431.074 57.1281 431.133 Q57.2745 431.162 57.4501 431.221 Q57.6258 431.279 57.7136 431.309 L70.9753 435.584 Q71.8243 435.848 71.9999 436.111 Q72.1756 436.375 72.1756 437.429 L72.1756 463.521 Q72.1756 464.428 72.117 464.721 Q72.0292 465.014 71.6486 465.014 L70.5654 464.78 L33.0932 431.25 L33.0932 441.031 Q33.0932 443.783 33.5908 445.95 Q34.0592 448.088 34.9375 449.611 Q35.7865 451.134 37.221 452.305 Q38.6262 453.476 40.2656 454.267 Q41.8757 455.058 44.1299 455.79 L44.2763 455.878 Q44.4227 455.965 44.5105 456.024 Q44.569 456.083 44.6569 456.229 Q44.7154 456.375 44.7154 456.551 Q44.7154 456.873 44.5398 457.078 Q44.3641 457.254 44.1885 457.254 L44.0421 457.283 Q43.5151 457.225 43.2224 457.107 L32.4198 453.798 Q31.5709 453.535 31.3952 453.271 Q31.2195 453.008 31.2195 451.954 L31.2195 426.623 Q31.2195 425.686 31.3074 425.423 Q31.3952 425.13 31.7758 425.13 Z" fill="#000000" fill-rule="evenodd" fill-opacity="1" /><path clip-path="url(#clip530)" d="M83.1315 419.116 Q81.8815 419.116 81.2872 418.399 Q80.6929 417.681 80.6929 416.759 Q80.6929 415.795 81.3282 415.119 Q81.9429 414.422 83.0291 414.422 Q84.1971 414.422 84.8529 415.242 Q85.5087 416.041 85.3447 417.189 Q87.0251 416.185 87.7833 414.34 Q88.5416 412.475 88.5416 410.753 Q88.5416 408.949 86.9841 407.494 Q85.4267 406.018 81.6151 406.018 Q78.3772 406.018 76.5124 407.289 Q74.6476 408.539 74.6476 411.019 L74.6476 412.864 Q74.6476 413.5 74.5861 413.684 Q74.5246 413.869 74.1762 413.869 Q73.7664 413.869 73.6844 413.233 Q73.6844 412.598 73.5614 411.593 Q73.4795 409.154 71.3687 407.863 Q69.4014 406.694 66.5939 406.694 Q64.0324 406.694 62.9667 407.924 Q61.8806 409.133 61.8806 410.712 Q61.8806 412.188 62.4954 413.807 Q63.1102 415.427 64.4832 416.308 Q64.4832 413.705 66.5939 413.705 Q67.5161 413.705 68.1309 414.299 Q68.7252 414.873 68.7252 415.836 Q68.7252 416.759 68.1514 417.374 Q67.5571 417.989 66.553 417.989 Q64.1553 417.989 62.4954 415.857 Q60.8355 413.705 60.8355 410.548 Q60.8355 407.432 62.4749 405.136 Q64.1143 402.82 66.6349 402.82 Q69.1145 402.82 71.1433 404.46 Q73.1721 406.1 74.0123 408.703 Q74.6476 405.505 76.8198 403.599 Q78.9715 401.693 81.6151 401.693 Q84.8939 401.693 87.312 404.275 Q89.7097 406.858 89.7097 410.63 Q89.7097 414.115 87.8243 416.615 Q85.939 419.116 83.1315 419.116 Z" fill="#000000" fill-rule="evenodd" fill-opacity="1" /><path clip-path="url(#clip530)" d="M56.7768 381.993 Q56.8939 381.935 57.1867 381.935 Q57.4794 381.935 57.5965 381.993 L86.3741 393.15 Q87.1645 393.443 87.1645 394.263 Q87.1645 394.761 86.8132 395.112 Q86.4619 395.463 85.9642 395.463 Q85.6715 395.463 85.5544 395.405 L57.1867 384.394 L28.819 395.405 Q28.7019 395.463 28.4091 395.463 Q27.9114 395.463 27.5601 395.112 Q27.2088 394.761 27.2088 394.263 Q27.2088 393.443 27.9993 393.15 L56.7768 381.993 Z" fill="#000000" fill-rule="evenodd" fill-opacity="1" /><polyline clip-path="url(#clip533)" style="stroke:#000000; stroke-linecap:round; stroke-linejoin:round; stroke-width:8.00147; stroke-opacity:1; fill:none" stroke-dasharray="32, 20" points="245.841,864.877 280.159,845.55 314.478,789.76 348.796,703.745 383.115,596.874 417.433,480.296 451.752,365.402 486.07,262.361 520.388,178.959 554.707,119.903 589.025,86.6451 623.344,77.6847 657.662,89.2238 691.981,116.005 726.299,152.159 760.617,191.919 794.936,230.131 829.254,262.549 863.573,285.957 897.891,298.209 932.21,298.253 966.528,286.188 1000.85,263.361 1035.16,232.444 1069.48,197.427 1103.8,163.433 1138.12,136.3 1172.44,121.944 1206.76,125.543 1241.08,150.69 1275.39,198.662 1309.71,267.972 1344.03,354.327 1378.35,451.041 1412.67,549.858 1446.99,642.066 1481.3,719.703 1515.62,776.635 1549.94,809.321 1584.26,817.126 1618.58,802.146 "/>
<path clip-path="url(#clip533)" d="M245.841 864.877 L280.159 864.711 L314.478 826.671 L348.796 755.27 L383.115 658.761 L417.433 547.746 L451.752 433.645 L486.07 327.166 L520.388 237.42 L554.707 169.877 L589.025 127.291 L623.344 109.818 L657.662 113.811 L691.981 135.372 L726.299 168.044 L760.617 206.437 L794.936 245.005 L829.254 277.717 L863.573 300.379 L897.891 311.631 L932.21 309.929 L966.528 294.735 L1000.85 267.087 L1035.16 230.411 L1069.48 187.873 L1103.8 145.898 L1138.12 110.419 L1172.44 87.4504 L1206.76 82.0669 L1241.08 98.2111 L1275.39 137.747 L1309.71 200.343 L1344.03 282.562 L1378.35 378.586 L1412.67 480.222 L1446.99 578.871 L1481.3 666.469 L1515.62 735.117 L1549.94 783.1 L1584.26 807.499 L1618.58 809.23 L1618.58 809.23 L1584.26 807.499 L1549.94 783.1 L1515.62 735.117 L1481.3 666.469 L1446.99 578.871 L1412.67 480.222 L1378.35 378.586 L1344.03 282.562 L1309.71 200.343 L1275.39 137.747 L1241.08 98.2111 L1206.76 82.0669 L1172.44 87.4504 L1138.12 110.419 L1103.8 145.898 L1069.48 187.873 L1035.16 230.411 L1000.85 267.087 L966.528 294.735 L932.21 309.929 L897.891 311.631 L863.573 300.379 L829.254 277.717 L794.936 245.005 L760.617 206.437 L726.299 168.044 L691.981 135.372 L657.662 113.811 L623.344 109.818 L589.025 127.291 L554.707 169.877 L520.388 237.42 L486.07 327.166 L451.752 433.645 L417.433 547.746 L383.115 658.761 L348.796 755.27 L314.478 826.671 L280.159 864.711 L245.841 864.877  Z" fill="#fc8d59" fill-rule="evenodd" fill-opacity="0.5"/>
<polyline clip-path="url(#clip533)" style="stroke:#fc8d59; stroke-linecap:round; stroke-linejoin:round; stroke-width:12.0022; stroke-opacity:1; fill:none" stroke-dasharray="6, 12" points="245.841,864.877 280.159,864.711 314.478,826.671 348.796,755.27 383.115,658.761 417.433,547.746 451.752,433.645 486.07,327.166 520.388,237.42 554.707,169.877 589.025,127.291 623.344,109.818 657.662,113.811 691.981,135.372 726.299,168.044 760.617,206.437 794.936,245.005 829.254,277.717 863.573,300.379 897.891,311.631 932.21,309.929 966.528,294.735 1000.85,267.087 1035.16,230.411 1069.48,187.873 1103.8,145.898 1138.12,110.419 1172.44,87.4504 1206.76,82.0669 1241.08,98.2111 1275.39,137.747 1309.71,200.343 1344.03,282.562 1378.35,378.586 1412.67,480.222 1446.99,578.871 1481.3,666.469 1515.62,735.117 1549.94,783.1 1584.26,807.499 1618.58,809.23 "/>
<path clip-path="url(#clip533)" d="M245.841 864.877 L280.159 864.877 L314.478 826.826 L348.796 755.413 L383.115 658.959 L417.433 548.086 L451.752 434.046 L486.07 327.508 L520.388 237.19 L554.707 169.127 L589.025 126.284 L623.344 108.733 L657.662 114.102 L691.981 138.138 L726.299 175.3 L760.617 219.385 L794.936 264.022 L829.254 303.223 L863.573 331.958 L897.891 346.85 L932.21 345.368 L966.528 326.943 L1000.85 293.259 L1035.16 248.073 L1069.48 196.889 L1103.8 146.49 L1138.12 104.238 L1172.44 77.1778 L1206.76 71.0671 L1241.08 89.4747 L1275.39 133.13 L1309.71 199.683 L1344.03 283.96 L1378.35 378.694 L1412.67 475.602 L1446.99 566.596 L1481.3 644.894 L1515.62 705.803 L1549.94 747.069 L1584.26 768.744 L1618.58 772.668 L1618.58 772.668 L1584.26 768.744 L1549.94 747.069 L1515.62 705.803 L1481.3 644.894 L1446.99 566.596 L1412.67 475.602 L1378.35 378.694 L1344.03 283.96 L1309.71 199.683 L1275.39 133.13 L1241.08 89.4747 L1206.76 71.0671 L1172.44 77.1778 L1138.12 104.238 L1103.8 146.49 L1069.48 196.889 L1035.16 248.073 L1000.85 293.259 L966.528 326.943 L932.21 345.368 L897.891 346.85 L863.573 331.958 L829.254 303.223 L794.936 264.022 L760.617 219.385 L726.299 175.3 L691.981 138.138 L657.662 114.102 L623.344 108.733 L589.025 126.284 L554.707 169.127 L520.388 237.19 L486.07 327.508 L451.752 434.046 L417.433 548.086 L383.115 658.959 L348.796 755.413 L314.478 826.826 L280.159 864.877 L245.841 864.877  Z" fill="#fdbb84" fill-rule="evenodd" fill-opacity="0.5"/>
<polyline clip-path="url(#clip533)" style="stroke:#fdbb84; stroke-linecap:round; stroke-linejoin:round; stroke-width:12.0022; stroke-opacity:1; fill:none" stroke-dasharray="48, 30" points="245.841,864.877 280.159,864.877 314.478,826.826 348.796,755.413 383.115,658.959 417.433,548.086 451.752,434.046 486.07,327.508 520.388,237.19 554.707,169.127 589.025,126.284 623.344,108.733 657.662,114.102 691.981,138.138 726.299,175.3 760.617,219.385 794.936,264.022 829.254,303.223 863.573,331.958 897.891,346.85 932.21,345.368 966.528,326.943 1000.85,293.259 1035.16,248.073 1069.48,196.889 1103.8,146.49 1138.12,104.238 1172.44,77.1778 1206.76,71.0671 1241.08,89.4747 1275.39,133.13 1309.71,199.683 1344.03,283.96 1378.35,378.694 1412.67,475.602 1446.99,566.596 1481.3,644.894 1515.62,705.803 1549.94,747.069 1584.26,768.744 1618.58,772.668 "/>
<path clip-path="url(#clip533)" d="M245.841 864.877 L280.159 864.877 L314.478 830.965 L348.796 766.808 L383.115 678.942 L417.433 575.962 L451.752 467.481 L486.07 363.004 L520.388 271.001 L554.707 197.933 L589.025 147.96 L623.344 122.569 L657.662 120.83 L691.981 139.446 L726.299 173.731 L760.617 217.778 L794.936 265.455 L829.254 310.72 L863.573 348.194 L897.891 373.694 L932.21 384.372 L966.528 378.959 L1000.85 357.795 L1035.16 322.953 L1069.48 278.155 L1103.8 228.485 L1138.12 179.918 L1172.44 138.765 L1206.76 111.011 L1241.08 101.613 L1275.39 113.871 L1309.71 148.956 L1344.03 205.68 L1378.35 280.566 L1412.67 368.217 L1446.99 461.953 L1481.3 554.614 L1515.62 639.419 L1549.94 710.756 L1584.26 764.768 L1618.58 799.674 L1618.58 799.674 L1584.26 764.768 L1549.94 710.756 L1515.62 639.419 L1481.3 554.614 L1446.99 461.953 L1412.67 368.217 L1378.35 280.566 L1344.03 205.68 L1309.71 148.956 L1275.39 113.871 L1241.08 101.613 L1206.76 111.011 L1172.44 138.765 L1138.12 179.918 L1103.8 228.485 L1069.48 278.155 L1035.16 322.953 L1000.85 357.795 L966.528 378.959 L932.21 384.372 L897.891 373.694 L863.573 348.194 L829.254 310.72 L794.936 265.455 L760.617 217.778 L726.299 173.731 L691.981 139.446 L657.662 120.83 L623.344 122.569 L589.025 147.96 L554.707 197.933 L520.388 271.001 L486.07 363.004 L451.752 467.481 L417.433 575.962 L383.115 678.942 L348.796 766.808 L314.478 830.965 L280.159 864.877 L245.841 864.877  Z" fill="#fdd49e" fill-rule="evenodd" fill-opacity="0.5"/>
<polyline clip-path="url(#clip533)" style="stroke:#fdd49e; stroke-linecap:round; stroke-linejoin:round; stroke-width:12.0022; stroke-opacity:1; fill:none" points="245.841,864.877 280.159,864.877 314.478,830.965 348.796,766.808 383.115,678.942 417.433,575.962 451.752,467.481 486.07,363.004 520.388,271.001 554.707,197.933 589.025,147.96 623.344,122.569 657.662,120.83 691.981,139.446 726.299,173.731 760.617,217.778 794.936,265.455 829.254,310.72 863.573,348.194 897.891,373.694 932.21,384.372 966.528,378.959 1000.85,357.795 1035.16,322.953 1069.48,278.155 1103.8,228.485 1138.12,179.918 1172.44,138.765 1206.76,111.011 1241.08,101.613 1275.39,113.871 1309.71,148.956 1344.03,205.68 1378.35,280.566 1412.67,368.217 1446.99,461.953 1481.3,554.614 1515.62,639.419 1549.94,710.756 1584.26,764.768 1618.58,799.674 "/>
</svg>
