<?xml version="1.0" encoding="utf-8"?>
<svg xmlns="http://www.w3.org/2000/svg" xmlns:xlink="http://www.w3.org/1999/xlink" width="426.75" height="263.5" viewBox="0 0 1707 1054">
<defs>
  <clipPath id="clip980">
    <rect x="0" y="0" width="1707" height="1054"/>
  </clipPath>
</defs>
<path clip-path="url(#clip980)" d="M0 1054 L1707 1054 L1707 0 L0 0  Z" fill="#ffffff" fill-rule="evenodd" fill-opacity="1"/>
<defs>
  <clipPath id="clip981">
    <rect x="341" y="0" width="1196" height="1054"/>
  </clipPath>
</defs>
<path clip-path="url(#clip980)" d="M297.518 872.688 L1659.76 872.688 L1659.76 47.2528 L297.518 47.2528  Z" fill="#ffffff" fill-rule="evenodd" fill-opacity="1"/>
<defs>
  <clipPath id="clip982">
    <rect x="297" y="47" width="1363" height="826"/>
  </clipPath>
</defs>
<polyline clip-path="url(#clip982)" style="stroke:#000000; stroke-linecap:round; stroke-linejoin:round; stroke-width:2.00037; stroke-opacity:0.1; fill:none" points="611.882,872.688 611.882,47.2528 "/>
<polyline clip-path="url(#clip982)" style="stroke:#000000; stroke-linecap:round; stroke-linejoin:round; stroke-width:2.00037; stroke-opacity:0.1; fill:none" points="961.175,872.688 961.175,47.2528 "/>
<polyline clip-path="url(#clip982)" style="stroke:#000000; stroke-linecap:round; stroke-linejoin:round; stroke-width:2.00037; stroke-opacity:0.1; fill:none" points="1310.47,872.688 1310.47,47.2528 "/>
<polyline clip-path="url(#clip982)" style="stroke:#000000; stroke-linecap:round; stroke-linejoin:round; stroke-width:2.00037; stroke-opacity:0.1; fill:none" points="1659.76,872.688 1659.76,47.2528 "/>
<polyline clip-path="url(#clip980)" style="stroke:#000000; stroke-linecap:round; stroke-linejoin:round; stroke-width:4.00074; stroke-opacity:1; fill:none" points="297.518,872.688 1659.76,872.688 "/>
<polyline clip-path="url(#clip980)" style="stroke:#000000; stroke-linecap:round; stroke-linejoin:round; stroke-width:4.00074; stroke-opacity:1; fill:none" points="297.518,47.2528 1659.76,47.2528 "/>
<polyline clip-path="url(#clip980)" style="stroke:#000000; stroke-linecap:round; stroke-linejoin:round; stroke-width:4.00074; stroke-opacity:1; fill:none" points="611.882,872.688 611.882,853.787 "/>
<polyline clip-path="url(#clip980)" style="stroke:#000000; stroke-linecap:round; stroke-linejoin:round; stroke-width:4.00074; stroke-opacity:1; fill:none" points="961.175,872.688 961.175,853.787 "/>
<polyline clip-path="url(#clip980)" style="stroke:#000000; stroke-linecap:round; stroke-linejoin:round; stroke-width:4.00074; stroke-opacity:1; fill:none" points="1310.47,872.688 1310.47,853.787 "/>
<polyline clip-path="url(#clip980)" style="stroke:#000000; stroke-linecap:round; stroke-linejoin:round; stroke-width:4.00074; stroke-opacity:1; fill:none" points="1659.76,872.688 1659.76,853.787 "/>
<path clip-path="url(#clip980)" d="M570.565 923.507 Q570.565 913.281 573.146 907.709 Q576.746 899.419 585.237 899.419 Q587.037 899.419 588.905 899.929 Q590.807 900.405 593.185 902.273 Q595.596 904.142 597.057 907.199 Q599.842 913.111 599.842 923.507 Q599.842 933.665 597.26 939.202 Q593.49 947.288 585.169 947.288 Q582.045 947.288 578.852 945.691 Q575.693 944.094 573.689 940.255 Q570.565 934.514 570.565 923.507 M576.339 922.657 Q576.339 933.155 577.086 937.334 Q577.935 941.852 580.244 943.823 Q582.588 945.759 585.169 945.759 Q587.954 945.759 590.264 943.687 Q592.607 941.58 593.321 937.062 Q594.102 932.611 594.068 922.657 Q594.068 912.975 593.388 909.102 Q592.471 904.583 590.026 902.783 Q587.615 900.948 585.169 900.948 Q584.252 900.948 583.267 901.22 Q582.316 901.492 580.924 902.273 Q579.531 903.055 578.444 904.991 Q577.392 906.928 576.882 909.849 Q576.339 913.62 576.339 922.657 Z" fill="#000000" fill-rule="evenodd" fill-opacity="1" /><path clip-path="url(#clip980)" d="M609.589 944.638 Q608.536 943.517 608.536 942.056 Q608.536 940.595 609.589 939.542 Q610.642 938.455 612.238 938.455 Q613.767 938.455 614.786 939.474 Q615.839 940.459 615.839 942.09 Q615.839 943.687 614.718 944.74 Q613.631 945.759 612.238 945.759 Q610.642 945.759 609.589 944.638 Z" fill="#000000" fill-rule="evenodd" fill-opacity="1" /><path clip-path="url(#clip980)" d="M625.416 934.548 Q625.416 932.476 626.537 931.694 Q627.658 930.879 628.847 930.879 Q630.443 930.879 631.36 931.898 Q632.311 932.883 632.311 934.276 Q632.311 935.669 631.36 936.688 Q630.443 937.674 628.847 937.674 Q628.066 937.674 627.658 937.538 Q628.575 940.731 631.36 943.041 Q634.179 945.351 637.881 945.351 Q642.534 945.351 645.319 940.833 Q646.983 937.911 646.983 931.287 Q646.983 925.443 645.727 922.521 Q643.791 918.071 639.817 918.071 Q634.179 918.071 630.851 922.929 Q630.443 923.541 629.968 923.575 Q629.288 923.575 629.118 923.201 Q628.983 922.793 628.983 921.74 L628.983 901.152 Q628.983 899.487 629.662 899.487 Q629.934 899.487 630.511 899.691 Q634.892 901.628 639.749 901.662 Q644.742 901.662 649.225 899.623 Q649.565 899.419 649.768 899.419 Q650.448 899.419 650.482 900.201 Q650.482 900.473 649.904 901.288 Q649.361 902.069 648.172 903.123 Q646.983 904.142 645.455 905.127 Q643.927 906.112 641.685 906.792 Q639.477 907.437 637.032 907.437 Q634.111 907.437 631.122 906.52 L631.122 920.075 Q634.722 916.542 639.953 916.542 Q645.523 916.542 649.361 921.027 Q653.199 925.511 653.199 931.762 Q653.199 938.319 648.648 942.803 Q644.13 947.288 638.017 947.288 Q632.447 947.288 628.915 943.313 Q625.416 939.338 625.416 934.548 Z" fill="#000000" fill-rule="evenodd" fill-opacity="1" /><path clip-path="url(#clip980)" d="M921.216 906.044 L921.216 903.87 Q929.571 903.87 933.885 899.419 Q935.073 899.419 935.277 899.691 Q935.481 899.963 935.481 901.22 L935.481 940.255 Q935.481 942.328 936.5 942.973 Q937.519 943.619 941.968 943.619 L944.176 943.619 L944.176 945.759 Q941.73 945.555 932.9 945.555 Q924.069 945.555 921.658 945.759 L921.658 943.619 L923.865 943.619 Q928.247 943.619 929.3 943.007 Q930.353 942.362 930.353 940.255 L930.353 904.21 Q926.718 906.044 921.216 906.044 Z" fill="#000000" fill-rule="evenodd" fill-opacity="1" /><path clip-path="url(#clip980)" d="M956.776 944.638 Q955.723 943.517 955.723 942.056 Q955.723 940.595 956.776 939.542 Q957.829 938.455 959.426 938.455 Q960.954 938.455 961.973 939.474 Q963.026 940.459 963.026 942.09 Q963.026 943.687 961.905 944.74 Q960.818 945.759 959.426 945.759 Q957.829 945.759 956.776 944.638 Z" fill="#000000" fill-rule="evenodd" fill-opacity="1" /><path clip-path="url(#clip980)" d="M971.856 923.507 Q971.856 913.281 974.438 907.709 Q978.038 899.419 986.529 899.419 Q988.329 899.419 990.197 899.929 Q992.099 900.405 994.476 902.273 Q996.888 904.142 998.348 907.199 Q1001.13 913.111 1001.13 923.507 Q1001.13 933.665 998.552 939.202 Q994.782 947.288 986.461 947.288 Q983.336 947.288 980.143 945.691 Q976.985 944.094 974.981 940.255 Q971.856 934.514 971.856 923.507 M977.63 922.657 Q977.63 933.155 978.377 937.334 Q979.226 941.852 981.536 943.823 Q983.879 945.759 986.461 945.759 Q989.246 945.759 991.555 943.687 Q993.899 941.58 994.612 937.062 Q995.393 932.611 995.359 922.657 Q995.359 912.975 994.68 909.102 Q993.763 904.583 991.318 902.783 Q988.906 900.948 986.461 900.948 Q985.544 900.948 984.559 901.22 Q983.608 901.492 982.215 902.273 Q980.823 903.055 979.736 904.991 Q978.683 906.928 978.174 909.849 Q977.63 913.62 977.63 922.657 Z" fill="#000000" fill-rule="evenodd" fill-opacity="1" /><path clip-path="url(#clip980)" d="M1270.88 906.044 L1270.88 903.87 Q1279.24 903.87 1283.55 899.419 Q1284.74 899.419 1284.94 899.691 Q1285.15 899.963 1285.15 901.22 L1285.15 940.255 Q1285.15 942.328 1286.17 942.973 Q1287.19 943.619 1291.63 943.619 L1293.84 943.619 L1293.84 945.759 Q1291.4 945.555 1282.57 945.555 Q1273.74 945.555 1271.32 945.759 L1271.32 943.619 L1273.53 943.619 Q1277.91 943.619 1278.97 943.007 Q1280.02 942.362 1280.02 940.255 L1280.02 904.21 Q1276.38 906.044 1270.88 906.044 Z" fill="#000000" fill-rule="evenodd" fill-opacity="1" /><path clip-path="url(#clip980)" d="M1306.44 944.638 Q1305.39 943.517 1305.39 942.056 Q1305.39 940.595 1306.44 939.542 Q1307.5 938.455 1309.09 938.455 Q1310.62 938.455 1311.64 939.474 Q1312.69 940.459 1312.69 942.09 Q1312.69 943.687 1311.57 944.74 Q1310.48 945.759 1309.09 945.759 Q1307.5 945.759 1306.44 944.638 Z" fill="#000000" fill-rule="evenodd" fill-opacity="1" /><path clip-path="url(#clip980)" d="M1322.27 934.548 Q1322.27 932.476 1323.39 931.694 Q1324.51 930.879 1325.7 930.879 Q1327.3 930.879 1328.21 931.898 Q1329.16 932.883 1329.16 934.276 Q1329.16 935.669 1328.21 936.688 Q1327.3 937.674 1325.7 937.674 Q1324.92 937.674 1324.51 937.538 Q1325.43 940.731 1328.21 943.041 Q1331.03 945.351 1334.73 945.351 Q1339.39 945.351 1342.17 940.833 Q1343.84 937.911 1343.84 931.287 Q1343.84 925.443 1342.58 922.521 Q1340.64 918.071 1336.67 918.071 Q1331.03 918.071 1327.7 922.929 Q1327.3 923.541 1326.82 923.575 Q1326.14 923.575 1325.97 923.201 Q1325.84 922.793 1325.84 921.74 L1325.84 901.152 Q1325.84 899.487 1326.52 899.487 Q1326.79 899.487 1327.36 899.691 Q1331.75 901.628 1336.6 901.662 Q1341.6 901.662 1346.08 899.623 Q1346.42 899.419 1346.62 899.419 Q1347.3 899.419 1347.34 900.201 Q1347.34 900.473 1346.76 901.288 Q1346.21 902.069 1345.03 903.123 Q1343.84 904.142 1342.31 905.127 Q1340.78 906.112 1338.54 906.792 Q1336.33 907.437 1333.89 907.437 Q1330.96 907.437 1327.98 906.52 L1327.98 920.075 Q1331.58 916.542 1336.81 916.542 Q1342.38 916.542 1346.21 921.027 Q1350.05 925.511 1350.05 931.762 Q1350.05 938.319 1345.5 942.803 Q1340.98 947.288 1334.87 947.288 Q1329.3 947.288 1325.77 943.313 Q1322.27 939.338 1322.27 934.548 Z" fill="#000000" fill-rule="evenodd" fill-opacity="1" /><path clip-path="url(#clip980)" d="M1618.44 945.759 Q1618.44 944.502 1618.55 944.128 Q1618.68 943.755 1619.22 943.177 L1632.57 928.297 Q1639.87 920.075 1639.87 912.907 Q1639.87 908.253 1637.43 904.923 Q1635.02 901.594 1630.57 901.594 Q1627.51 901.594 1624.93 903.462 Q1622.35 905.331 1621.16 908.66 Q1621.36 908.592 1622.08 908.592 Q1623.81 908.592 1624.76 909.679 Q1625.75 910.767 1625.75 912.227 Q1625.75 914.096 1624.52 915.013 Q1623.33 915.897 1622.15 915.897 Q1621.67 915.897 1621.02 915.795 Q1620.41 915.693 1619.43 914.741 Q1618.44 913.756 1618.44 912.024 Q1618.44 907.165 1622.11 903.292 Q1625.81 899.419 1631.45 899.419 Q1637.84 899.419 1642.01 903.224 Q1646.23 906.996 1646.23 912.907 Q1646.23 914.979 1645.58 916.882 Q1644.97 918.75 1644.12 920.211 Q1643.31 921.672 1641.06 924.016 Q1638.82 926.36 1637.02 928.025 Q1635.22 929.69 1631.18 933.223 L1623.81 940.391 L1636.34 940.391 Q1642.46 940.391 1642.93 939.848 Q1643.61 938.863 1644.46 933.665 L1646.23 933.665 L1644.26 945.759 L1618.44 945.759 Z" fill="#000000" fill-rule="evenodd" fill-opacity="1" /><path clip-path="url(#clip980)" d="M1656.72 944.638 Q1655.67 943.517 1655.67 942.056 Q1655.67 940.595 1656.72 939.542 Q1657.77 938.455 1659.37 938.455 Q1660.9 938.455 1661.92 939.474 Q1662.97 940.459 1662.97 942.09 Q1662.97 943.687 1661.85 944.74 Q1660.76 945.759 1659.37 945.759 Q1657.77 945.759 1656.72 944.638 Z" fill="#000000" fill-rule="evenodd" fill-opacity="1" /><path clip-path="url(#clip980)" d="M1671.8 923.507 Q1671.8 913.281 1674.38 907.709 Q1677.98 899.419 1686.47 899.419 Q1688.27 899.419 1690.14 899.929 Q1692.04 900.405 1694.42 902.273 Q1696.83 904.142 1698.29 907.199 Q1701.08 913.111 1701.08 923.507 Q1701.08 933.665 1698.5 939.202 Q1694.73 947.288 1686.41 947.288 Q1683.28 947.288 1680.09 945.691 Q1676.93 944.094 1674.93 940.255 Q1671.8 934.514 1671.8 923.507 M1677.57 922.657 Q1677.57 933.155 1678.32 937.334 Q1679.17 941.852 1681.48 943.823 Q1683.82 945.759 1686.41 945.759 Q1689.19 945.759 1691.5 943.687 Q1693.84 941.58 1694.56 937.062 Q1695.34 932.611 1695.3 922.657 Q1695.3 912.975 1694.62 909.102 Q1693.71 904.583 1691.26 902.783 Q1688.85 900.948 1686.41 900.948 Q1685.49 900.948 1684.5 901.22 Q1683.55 901.492 1682.16 902.273 Q1680.77 903.055 1679.68 904.991 Q1678.63 906.928 1678.12 909.849 Q1677.57 913.62 1677.57 922.657 Z" fill="#000000" fill-rule="evenodd" fill-opacity="1" /><path clip-path="url(#clip980)" d="M894.792 997.494 L896.237 980.445 L942.588 980.445 L944.033 997.494 L942.144 997.494 Q941.847 994.084 941.551 992.12 Q941.291 990.156 940.625 988.303 Q939.995 986.412 939.18 985.523 Q938.401 984.596 936.882 983.892 Q935.363 983.151 933.4 982.966 Q931.436 982.78 928.472 982.78 Q924.989 982.78 924.137 982.929 Q923.21 983.151 922.988 983.818 Q922.766 984.448 922.766 985.819 L922.766 1025.81 Q922.766 1027.33 923.062 1027.96 Q923.396 1028.55 925.137 1029.03 Q926.878 1029.48 930.732 1029.48 L933.77 1029.48 L933.77 1031.81 Q930.658 1031.59 919.357 1031.59 Q908.13 1031.59 905.018 1031.81 L905.018 1029.48 L908.056 1029.48 Q911.91 1029.48 913.651 1029.03 Q915.43 1028.55 915.726 1027.96 Q916.022 1027.33 916.022 1025.81 L916.022 985.819 Q916.022 984.745 915.948 984.3 Q915.874 983.855 915.541 983.485 Q915.207 983.077 914.429 982.929 Q913.688 982.78 910.354 982.78 Q907.389 982.78 905.389 982.966 Q903.425 983.151 901.906 983.892 Q900.387 984.596 899.572 985.523 Q898.793 986.412 898.127 988.303 Q897.497 990.156 897.237 992.12 Q896.978 994.084 896.682 997.494 L894.792 997.494 Z" fill="#000000" fill-rule="evenodd" fill-opacity="1" /><path clip-path="url(#clip980)" d="M949.332 1031.81 L949.332 1029.48 Q953.37 1029.48 954.297 1029 Q955.223 1028.48 955.223 1026.03 L955.223 1005.61 Q955.223 1002.79 954.259 1002.13 Q953.333 1001.46 949.628 1001.46 L949.628 999.088 L960.225 998.272 L960.225 1026.11 Q960.225 1028.37 961.04 1028.92 Q961.855 1029.48 965.56 1029.48 L965.56 1031.81 Q957.816 1031.59 957.668 1031.59 Q956.631 1031.59 949.332 1031.81 M952.518 985.041 Q952.518 983.522 953.667 982.299 Q954.852 981.038 956.52 981.038 Q958.187 981.038 959.373 982.187 Q960.558 983.299 960.558 985.078 Q960.558 986.82 959.373 987.969 Q958.187 989.081 956.52 989.081 Q954.778 989.081 953.63 987.858 Q952.518 986.635 952.518 985.041 Z" fill="#000000" fill-rule="evenodd" fill-opacity="1" /><path clip-path="url(#clip980)" d="M970.266 1031.81 L970.266 1029.48 Q974.304 1029.48 975.231 1029 Q976.157 1028.48 976.157 1026.03 L976.157 1005.68 Q976.157 1002.87 975.156 1002.16 Q974.193 1001.46 970.266 1001.46 L970.266 999.088 L980.937 998.272 L980.937 1006.24 Q984.493 998.272 992.163 998.272 Q1001.06 998.272 1002.28 1005.68 Q1003.57 1002.79 1006.28 1000.53 Q1009.02 998.272 1013.28 998.272 Q1018.99 998.272 1021.25 1001.09 Q1022.92 1002.98 1023.25 1005.09 Q1023.58 1007.2 1023.58 1012.69 L1023.58 1027.18 Q1023.66 1028.77 1024.88 1029.14 Q1026.1 1029.48 1029.51 1029.48 L1029.51 1031.81 Q1021.77 1031.59 1021.03 1031.59 Q1020.43 1031.59 1012.43 1031.81 L1012.43 1029.48 Q1016.47 1029.48 1017.4 1029 Q1018.36 1028.48 1018.36 1026.03 L1018.36 1008.35 Q1018.36 1004.5 1017.17 1002.24 Q1015.99 999.94 1012.73 999.94 Q1008.8 999.94 1005.65 1003.24 Q1002.5 1006.54 1002.5 1012.1 L1002.5 1026.03 Q1002.5 1028.48 1003.43 1029 Q1004.39 1029.48 1008.43 1029.48 L1008.43 1031.81 Q1000.68 1031.59 999.907 1031.59 Q999.314 1031.59 991.348 1031.81 L991.348 1029.48 Q995.387 1029.48 996.313 1029 Q997.276 1028.48 997.276 1026.03 L997.276 1008.35 Q997.276 1004.5 996.091 1002.24 Q994.905 999.94 991.644 999.94 Q987.717 999.94 984.568 1003.24 Q981.418 1006.54 981.418 1012.1 L981.418 1026.03 Q981.418 1028.48 982.344 1029 Q983.308 1029.48 987.309 1029.48 L987.309 1031.81 Q979.566 1031.59 978.825 1031.59 Q978.232 1031.59 970.266 1031.81 Z" fill="#000000" fill-rule="evenodd" fill-opacity="1" /><path clip-path="url(#clip980)" d="M1033.1 1015.1 Q1033.1 1007.95 1037.7 1002.87 Q1042.29 997.79 1048.89 997.79 Q1055.56 997.79 1059 1002.13 Q1062.49 1006.46 1062.49 1012.69 Q1062.49 1013.84 1062.19 1014.06 Q1061.89 1014.28 1060.6 1014.28 L1039.4 1014.28 Q1039.4 1022.03 1041.7 1025.66 Q1044.89 1030.74 1050.26 1030.74 Q1051 1030.74 1051.89 1030.59 Q1052.78 1030.44 1054.59 1029.81 Q1056.41 1029.14 1058 1027.4 Q1059.6 1025.66 1060.52 1022.92 Q1060.75 1021.84 1061.49 1021.88 Q1062.49 1021.88 1062.49 1022.77 Q1062.49 1023.44 1061.75 1024.96 Q1061.04 1026.44 1059.67 1028.22 Q1058.3 1030 1055.63 1031.33 Q1053 1032.67 1049.82 1032.67 Q1043.15 1032.67 1038.11 1027.63 Q1033.1 1022.55 1033.1 1015.1 M1039.48 1012.69 L1057.48 1012.69 Q1057.48 1011.1 1057.19 1009.32 Q1056.93 1007.54 1056.11 1005.09 Q1055.34 1002.61 1053.48 1001.05 Q1051.63 999.495 1048.89 999.495 Q1047.67 999.495 1046.33 1000.01 Q1045.04 1000.53 1043.44 1001.79 Q1041.85 1003.05 1040.74 1005.91 Q1039.63 1008.76 1039.48 1012.69 Z" fill="#000000" fill-rule="evenodd" fill-opacity="1" /><polyline clip-path="url(#clip982)" style="stroke:#000000; stroke-linecap:round; stroke-linejoin:round; stroke-width:2.00037; stroke-opacity:0.1; fill:none" points="297.518,849.327 1659.76,849.327 "/>
<polyline clip-path="url(#clip982)" style="stroke:#000000; stroke-linecap:round; stroke-linejoin:round; stroke-width:2.00037; stroke-opacity:0.1; fill:none" points="297.518,681.99 1659.76,681.99 "/>
<polyline clip-path="url(#clip982)" style="stroke:#000000; stroke-linecap:round; stroke-linejoin:round; stroke-width:2.00037; stroke-opacity:0.1; fill:none" points="297.518,514.653 1659.76,514.653 "/>
<polyline clip-path="url(#clip982)" style="stroke:#000000; stroke-linecap:round; stroke-linejoin:round; stroke-width:2.00037; stroke-opacity:0.1; fill:none" points="297.518,347.316 1659.76,347.316 "/>
<polyline clip-path="url(#clip982)" style="stroke:#000000; stroke-linecap:round; stroke-linejoin:round; stroke-width:2.00037; stroke-opacity:0.1; fill:none" points="297.518,179.979 1659.76,179.979 "/>
<polyline clip-path="url(#clip980)" style="stroke:#000000; stroke-linecap:round; stroke-linejoin:round; stroke-width:4.00074; stroke-opacity:1; fill:none" points="297.518,872.688 297.518,47.2528 "/>
<polyline clip-path="url(#clip980)" style="stroke:#000000; stroke-linecap:round; stroke-linejoin:round; stroke-width:4.00074; stroke-opacity:1; fill:none" points="1659.76,872.688 1659.76,47.2528 "/>
<polyline clip-path="url(#clip980)" style="stroke:#000000; stroke-linecap:round; stroke-linejoin:round; stroke-width:4.00074; stroke-opacity:1; fill:none" points="297.518,849.327 316.414,849.327 "/>
<polyline clip-path="url(#clip980)" style="stroke:#000000; stroke-linecap:round; stroke-linejoin:round; stroke-width:4.00074; stroke-opacity:1; fill:none" points="297.518,681.99 316.414,681.99 "/>
<polyline clip-path="url(#clip980)" style="stroke:#000000; stroke-linecap:round; stroke-linejoin:round; stroke-width:4.00074; stroke-opacity:1; fill:none" points="297.518,514.653 316.414,514.653 "/>
<polyline clip-path="url(#clip980)" style="stroke:#000000; stroke-linecap:round; stroke-linejoin:round; stroke-width:4.00074; stroke-opacity:1; fill:none" points="297.518,347.316 316.414,347.316 "/>
<polyline clip-path="url(#clip980)" style="stroke:#000000; stroke-linecap:round; stroke-linejoin:round; stroke-width:4.00074; stroke-opacity:1; fill:none" points="297.518,179.979 316.414,179.979 "/>
<path clip-path="url(#clip980)" d="M118.974 850.839 Q118.974 840.613 121.555 835.041 Q125.155 826.752 133.646 826.752 Q135.447 826.752 137.315 827.261 Q139.216 827.737 141.594 829.605 Q144.005 831.474 145.466 834.532 Q148.251 840.443 148.251 850.839 Q148.251 860.997 145.67 866.535 Q141.9 874.62 133.578 874.62 Q130.454 874.62 127.261 873.023 Q124.103 871.427 122.099 867.588 Q118.974 861.846 118.974 850.839 M124.748 849.989 Q124.748 860.487 125.495 864.666 Q126.344 869.184 128.654 871.155 Q130.997 873.091 133.578 873.091 Q136.364 873.091 138.673 871.019 Q141.017 868.913 141.73 864.394 Q142.511 859.944 142.477 849.989 Q142.477 840.307 141.798 836.434 Q140.881 831.916 138.435 830.115 Q136.024 828.28 133.578 828.28 Q132.661 828.28 131.677 828.552 Q130.726 828.824 129.333 829.605 Q127.94 830.387 126.854 832.323 Q125.801 834.26 125.291 837.182 Q124.748 840.953 124.748 849.989 Z" fill="#000000" fill-rule="evenodd" fill-opacity="1" /><path clip-path="url(#clip980)" d="M157.998 871.97 Q156.946 870.849 156.946 869.388 Q156.946 867.927 157.998 866.874 Q159.051 865.787 160.648 865.787 Q162.176 865.787 163.195 866.806 Q164.248 867.792 164.248 869.422 Q164.248 871.019 163.127 872.072 Q162.04 873.091 160.648 873.091 Q159.051 873.091 157.998 871.97 Z" fill="#000000" fill-rule="evenodd" fill-opacity="1" /><path clip-path="url(#clip980)" d="M173.078 850.839 Q173.078 840.613 175.66 835.041 Q179.26 826.752 187.751 826.752 Q189.551 826.752 191.419 827.261 Q193.321 827.737 195.698 829.605 Q198.11 831.474 199.57 834.532 Q202.355 840.443 202.355 850.839 Q202.355 860.997 199.774 866.535 Q196.004 874.62 187.683 874.62 Q184.558 874.62 181.366 873.023 Q178.207 871.427 176.203 867.588 Q173.078 861.846 173.078 850.839 M178.852 849.989 Q178.852 860.487 179.599 864.666 Q180.449 869.184 182.758 871.155 Q185.102 873.091 187.683 873.091 Q190.468 873.091 192.777 871.019 Q195.121 868.913 195.834 864.394 Q196.615 859.944 196.581 849.989 Q196.581 840.307 195.902 836.434 Q194.985 831.916 192.54 830.115 Q190.128 828.28 187.683 828.28 Q186.766 828.28 185.781 828.552 Q184.83 828.824 183.437 829.605 Q182.045 830.387 180.958 832.323 Q179.905 834.26 179.396 837.182 Q178.852 840.953 178.852 849.989 Z" fill="#000000" fill-rule="evenodd" fill-opacity="1" /><path clip-path="url(#clip980)" d="M207.857 850.839 Q207.857 840.613 210.439 835.041 Q214.039 826.752 222.53 826.752 Q224.33 826.752 226.198 827.261 Q228.1 827.737 230.477 829.605 Q232.889 831.474 234.349 834.532 Q237.134 840.443 237.134 850.839 Q237.134 860.997 234.553 866.535 Q230.783 874.62 222.462 874.62 Q219.337 874.62 216.145 873.023 Q212.986 871.427 210.982 867.588 Q207.857 861.846 207.857 850.839 M213.631 849.989 Q213.631 860.487 214.378 864.666 Q215.228 869.184 217.537 871.155 Q219.881 873.091 222.462 873.091 Q225.247 873.091 227.556 871.019 Q229.9 868.913 230.613 864.394 Q231.394 859.944 231.36 849.989 Q231.36 840.307 230.681 836.434 Q229.764 831.916 227.319 830.115 Q224.907 828.28 222.462 828.28 Q221.545 828.28 220.56 828.552 Q219.609 828.824 218.216 829.605 Q216.824 830.387 215.737 832.323 Q214.684 834.26 214.175 837.182 Q213.631 840.953 213.631 849.989 Z" fill="#000000" fill-rule="evenodd" fill-opacity="1" /><path clip-path="url(#clip980)" d="M242.636 850.839 Q242.636 840.613 245.218 835.041 Q248.818 826.752 257.309 826.752 Q259.109 826.752 260.977 827.261 Q262.879 827.737 265.256 829.605 Q267.668 831.474 269.128 834.532 Q271.913 840.443 271.913 850.839 Q271.913 860.997 269.332 866.535 Q265.562 874.62 257.241 874.62 Q254.116 874.62 250.924 873.023 Q247.765 871.427 245.761 867.588 Q242.636 861.846 242.636 850.839 M248.41 849.989 Q248.41 860.487 249.157 864.666 Q250.006 869.184 252.316 871.155 Q254.66 873.091 257.241 873.091 Q260.026 873.091 262.335 871.019 Q264.679 868.913 265.392 864.394 Q266.173 859.944 266.139 849.989 Q266.139 840.307 265.46 836.434 Q264.543 831.916 262.098 830.115 Q259.686 828.28 257.241 828.28 Q256.324 828.28 255.339 828.552 Q254.388 828.824 252.995 829.605 Q251.603 830.387 250.516 832.323 Q249.463 834.26 248.954 837.182 Q248.41 840.953 248.41 849.989 Z" fill="#000000" fill-rule="evenodd" fill-opacity="1" /><path clip-path="url(#clip980)" d="M119.721 683.502 Q119.721 673.276 122.303 667.704 Q125.903 659.415 134.394 659.415 Q136.194 659.415 138.062 659.924 Q139.964 660.4 142.341 662.269 Q144.753 664.137 146.213 667.195 Q148.998 673.106 148.998 683.502 Q148.998 693.66 146.417 699.198 Q142.647 707.283 134.326 707.283 Q131.201 707.283 128.008 705.687 Q124.85 704.09 122.846 700.251 Q119.721 694.509 119.721 683.502 M125.495 682.653 Q125.495 693.15 126.242 697.329 Q127.091 701.848 129.401 703.818 Q131.744 705.754 134.326 705.754 Q137.111 705.754 139.42 703.682 Q141.764 701.576 142.477 697.057 Q143.258 692.607 143.224 682.653 Q143.224 672.97 142.545 669.097 Q141.628 664.579 139.183 662.778 Q136.771 660.944 134.326 660.944 Q133.409 660.944 132.424 661.215 Q131.473 661.487 130.08 662.269 Q128.688 663.05 127.601 664.986 Q126.548 666.923 126.039 669.845 Q125.495 673.616 125.495 682.653 Z" fill="#000000" fill-rule="evenodd" fill-opacity="1" /><path clip-path="url(#clip980)" d="M158.746 704.633 Q157.693 703.512 157.693 702.051 Q157.693 700.591 158.746 699.537 Q159.799 698.45 161.395 698.45 Q162.923 698.45 163.942 699.469 Q164.995 700.455 164.995 702.085 Q164.995 703.682 163.874 704.735 Q162.787 705.754 161.395 705.754 Q159.799 705.754 158.746 704.633 Z" fill="#000000" fill-rule="evenodd" fill-opacity="1" /><path clip-path="url(#clip980)" d="M173.826 683.502 Q173.826 673.276 176.407 667.704 Q180.007 659.415 188.498 659.415 Q190.298 659.415 192.166 659.924 Q194.068 660.4 196.446 662.269 Q198.857 664.137 200.317 667.195 Q203.102 673.106 203.102 683.502 Q203.102 693.66 200.521 699.198 Q196.751 707.283 188.43 707.283 Q185.305 707.283 182.113 705.687 Q178.954 704.09 176.95 700.251 Q173.826 694.509 173.826 683.502 M179.599 682.653 Q179.599 693.15 180.347 697.329 Q181.196 701.848 183.505 703.818 Q185.849 705.754 188.43 705.754 Q191.215 705.754 193.525 703.682 Q195.868 701.576 196.581 697.057 Q197.363 692.607 197.329 682.653 Q197.329 672.97 196.649 669.097 Q195.732 664.579 193.287 662.778 Q190.875 660.944 188.43 660.944 Q187.513 660.944 186.528 661.215 Q185.577 661.487 184.185 662.269 Q182.792 663.05 181.705 664.986 Q180.652 666.923 180.143 669.845 Q179.599 673.616 179.599 682.653 Z" fill="#000000" fill-rule="evenodd" fill-opacity="1" /><path clip-path="url(#clip980)" d="M208.605 683.502 Q208.605 673.276 211.186 667.704 Q214.786 659.415 223.277 659.415 Q225.077 659.415 226.945 659.924 Q228.847 660.4 231.224 662.269 Q233.636 664.137 235.096 667.195 Q237.881 673.106 237.881 683.502 Q237.881 693.66 235.3 699.198 Q231.53 707.283 223.209 707.283 Q220.084 707.283 216.892 705.687 Q213.733 704.09 211.729 700.251 Q208.605 694.509 208.605 683.502 M214.378 682.653 Q214.378 693.15 215.126 697.329 Q215.975 701.848 218.284 703.818 Q220.628 705.754 223.209 705.754 Q225.994 705.754 228.304 703.682 Q230.647 701.576 231.36 697.057 Q232.142 692.607 232.108 682.653 Q232.108 672.97 231.428 669.097 Q230.511 664.579 228.066 662.778 Q225.654 660.944 223.209 660.944 Q222.292 660.944 221.307 661.215 Q220.356 661.487 218.964 662.269 Q217.571 663.05 216.484 664.986 Q215.431 666.923 214.922 669.845 Q214.378 673.616 214.378 682.653 Z" fill="#000000" fill-rule="evenodd" fill-opacity="1" /><path clip-path="url(#clip980)" d="M244.131 705.754 Q244.131 704.497 244.233 704.124 Q244.369 703.75 244.912 703.172 L258.26 688.292 Q265.562 680.071 265.562 672.902 Q265.562 668.248 263.117 664.918 Q260.705 661.589 256.256 661.589 Q253.199 661.589 250.618 663.458 Q248.037 665.326 246.848 668.656 Q247.052 668.588 247.765 668.588 Q249.497 668.588 250.448 669.675 Q251.433 670.762 251.433 672.223 Q251.433 674.091 250.21 675.009 Q249.022 675.892 247.833 675.892 Q247.357 675.892 246.712 675.79 Q246.101 675.688 245.116 674.737 Q244.131 673.752 244.131 672.019 Q244.131 667.161 247.799 663.288 Q251.501 659.415 257.139 659.415 Q263.524 659.415 267.702 663.22 Q271.913 666.991 271.913 672.902 Q271.913 674.975 271.268 676.877 Q270.657 678.746 269.807 680.206 Q268.992 681.667 266.751 684.012 Q264.509 686.356 262.709 688.02 Q260.909 689.685 256.867 693.218 L249.497 700.387 L262.03 700.387 Q268.143 700.387 268.619 699.843 Q269.298 698.858 270.147 693.66 L271.913 693.66 L269.943 705.754 L244.131 705.754 Z" fill="#000000" fill-rule="evenodd" fill-opacity="1" /><path clip-path="url(#clip980)" d="M118.193 516.165 Q118.193 505.939 120.774 500.367 Q124.374 492.078 132.865 492.078 Q134.665 492.078 136.533 492.587 Q138.435 493.063 140.813 494.932 Q143.224 496.8 144.685 499.858 Q147.47 505.769 147.47 516.165 Q147.47 526.323 144.888 531.861 Q141.118 539.946 132.797 539.946 Q129.673 539.946 126.48 538.35 Q123.321 536.753 121.318 532.914 Q118.193 527.172 118.193 516.165 M123.967 515.316 Q123.967 525.813 124.714 529.992 Q125.563 534.511 127.873 536.481 Q130.216 538.418 132.797 538.418 Q135.582 538.418 137.892 536.345 Q140.235 534.239 140.949 529.72 Q141.73 525.27 141.696 515.316 Q141.696 505.633 141.017 501.76 Q140.1 497.242 137.654 495.441 Q135.243 493.607 132.797 493.607 Q131.88 493.607 130.895 493.878 Q129.944 494.15 128.552 494.932 Q127.159 495.713 126.072 497.65 Q125.02 499.586 124.51 502.508 Q123.967 506.279 123.967 515.316 Z" fill="#000000" fill-rule="evenodd" fill-opacity="1" /><path clip-path="url(#clip980)" d="M157.217 537.296 Q156.164 536.175 156.164 534.714 Q156.164 533.254 157.217 532.2 Q158.27 531.113 159.866 531.113 Q161.395 531.113 162.414 532.132 Q163.467 533.118 163.467 534.748 Q163.467 536.345 162.346 537.398 Q161.259 538.418 159.866 538.418 Q158.27 538.418 157.217 537.296 Z" fill="#000000" fill-rule="evenodd" fill-opacity="1" /><path clip-path="url(#clip980)" d="M172.297 516.165 Q172.297 505.939 174.879 500.367 Q178.479 492.078 186.97 492.078 Q188.77 492.078 190.638 492.587 Q192.54 493.063 194.917 494.932 Q197.329 496.8 198.789 499.858 Q201.574 505.769 201.574 516.165 Q201.574 526.323 198.993 531.861 Q195.223 539.946 186.902 539.946 Q183.777 539.946 180.584 538.35 Q177.426 536.753 175.422 532.914 Q172.297 527.172 172.297 516.165 M178.071 515.316 Q178.071 525.813 178.818 529.992 Q179.667 534.511 181.977 536.481 Q184.32 538.418 186.902 538.418 Q189.687 538.418 191.996 536.345 Q194.34 534.239 195.053 529.72 Q195.834 525.27 195.8 515.316 Q195.8 505.633 195.121 501.76 Q194.204 497.242 191.759 495.441 Q189.347 493.607 186.902 493.607 Q185.985 493.607 185 493.878 Q184.049 494.15 182.656 494.932 Q181.264 495.713 180.177 497.65 Q179.124 499.586 178.615 502.508 Q178.071 506.279 178.071 515.316 Z" fill="#000000" fill-rule="evenodd" fill-opacity="1" /><path clip-path="url(#clip980)" d="M207.076 516.165 Q207.076 505.939 209.657 500.367 Q213.258 492.078 221.749 492.078 Q223.549 492.078 225.417 492.587 Q227.319 493.063 229.696 494.932 Q232.108 496.8 233.568 499.858 Q236.353 505.769 236.353 516.165 Q236.353 526.323 233.772 531.861 Q230.002 539.946 221.681 539.946 Q218.556 539.946 215.363 538.35 Q212.205 536.753 210.201 532.914 Q207.076 527.172 207.076 516.165 M212.85 515.316 Q212.85 525.813 213.597 529.992 Q214.446 534.511 216.756 536.481 Q219.099 538.418 221.681 538.418 Q224.466 538.418 226.775 536.345 Q229.119 534.239 229.832 529.72 Q230.613 525.27 230.579 515.316 Q230.579 505.633 229.9 501.76 Q228.983 497.242 226.537 495.441 Q224.126 493.607 221.681 493.607 Q220.764 493.607 219.779 493.878 Q218.828 494.15 217.435 494.932 Q216.043 495.713 214.956 497.65 Q213.903 499.586 213.393 502.508 Q212.85 506.279 212.85 515.316 Z" fill="#000000" fill-rule="evenodd" fill-opacity="1" /><path clip-path="url(#clip980)" d="M241.074 526.935 L241.074 524.794 L262.437 492.146 Q262.981 491.296 263.83 491.33 Q264.611 491.33 264.781 491.636 Q264.951 491.942 264.951 493.131 L264.951 524.794 L271.913 524.794 L271.913 526.935 L264.951 526.935 L264.951 532.982 Q264.951 534.986 265.766 535.632 Q266.615 536.277 270.215 536.277 L271.675 536.277 L271.675 538.418 Q268.822 538.214 262.233 538.214 Q255.678 538.214 252.825 538.418 L252.825 536.277 L254.286 536.277 Q257.886 536.277 258.735 535.666 Q259.584 535.02 259.584 532.982 L259.584 526.935 L241.074 526.935 M243.044 524.794 L259.992 524.794 L259.992 498.839 L243.044 524.794 Z" fill="#000000" fill-rule="evenodd" fill-opacity="1" /><path clip-path="url(#clip980)" d="M119.178 348.828 Q119.178 338.602 121.759 333.03 Q125.359 324.741 133.85 324.741 Q135.65 324.741 137.518 325.251 Q139.42 325.726 141.798 327.595 Q144.209 329.463 145.67 332.521 Q148.455 338.432 148.455 348.828 Q148.455 358.986 145.873 364.524 Q142.103 372.609 133.782 372.609 Q130.658 372.609 127.465 371.013 Q124.306 369.416 122.303 365.577 Q119.178 359.835 119.178 348.828 M124.952 347.979 Q124.952 358.477 125.699 362.655 Q126.548 367.174 128.858 369.144 Q131.201 371.081 133.782 371.081 Q136.567 371.081 138.877 369.008 Q141.22 366.902 141.934 362.383 Q142.715 357.933 142.681 347.979 Q142.681 338.296 142.002 334.423 Q141.084 329.905 138.639 328.104 Q136.228 326.27 133.782 326.27 Q132.865 326.27 131.88 326.542 Q130.929 326.813 129.537 327.595 Q128.144 328.376 127.057 330.313 Q126.005 332.249 125.495 335.171 Q124.952 338.942 124.952 347.979 Z" fill="#000000" fill-rule="evenodd" fill-opacity="1" /><path clip-path="url(#clip980)" d="M158.202 369.96 Q157.149 368.838 157.149 367.378 Q157.149 365.917 158.202 364.864 Q159.255 363.776 160.851 363.776 Q162.38 363.776 163.399 364.796 Q164.452 365.781 164.452 367.412 Q164.452 369.008 163.331 370.061 Q162.244 371.081 160.851 371.081 Q159.255 371.081 158.202 369.96 Z" fill="#000000" fill-rule="evenodd" fill-opacity="1" /><path clip-path="url(#clip980)" d="M173.282 348.828 Q173.282 338.602 175.863 333.03 Q179.464 324.741 187.955 324.741 Q189.755 324.741 191.623 325.251 Q193.525 325.726 195.902 327.595 Q198.314 329.463 199.774 332.521 Q202.559 338.432 202.559 348.828 Q202.559 358.986 199.978 364.524 Q196.208 372.609 187.887 372.609 Q184.762 372.609 181.569 371.013 Q178.411 369.416 176.407 365.577 Q173.282 359.835 173.282 348.828 M179.056 347.979 Q179.056 358.477 179.803 362.655 Q180.652 367.174 182.962 369.144 Q185.305 371.081 187.887 371.081 Q190.672 371.081 192.981 369.008 Q195.325 366.902 196.038 362.383 Q196.819 357.933 196.785 347.979 Q196.785 338.296 196.106 334.423 Q195.189 329.905 192.743 328.104 Q190.332 326.27 187.887 326.27 Q186.97 326.27 185.985 326.542 Q185.034 326.813 183.641 327.595 Q182.249 328.376 181.162 330.313 Q180.109 332.249 179.599 335.171 Q179.056 338.942 179.056 347.979 Z" fill="#000000" fill-rule="evenodd" fill-opacity="1" /><path clip-path="url(#clip980)" d="M208.061 348.828 Q208.061 338.602 210.642 333.03 Q214.243 324.741 222.734 324.741 Q224.534 324.741 226.402 325.251 Q228.304 325.726 230.681 327.595 Q233.093 329.463 234.553 332.521 Q237.338 338.432 237.338 348.828 Q237.338 358.986 234.757 364.524 Q230.987 372.609 222.666 372.609 Q219.541 372.609 216.348 371.013 Q213.19 369.416 211.186 365.577 Q208.061 359.835 208.061 348.828 M213.835 347.979 Q213.835 358.477 214.582 362.655 Q215.431 367.174 217.741 369.144 Q220.084 371.081 222.666 371.081 Q225.451 371.081 227.76 369.008 Q230.104 366.902 230.817 362.383 Q231.598 357.933 231.564 347.979 Q231.564 338.296 230.885 334.423 Q229.968 329.905 227.522 328.104 Q225.111 326.27 222.666 326.27 Q221.749 326.27 220.764 326.542 Q219.813 326.813 218.42 327.595 Q217.028 328.376 215.941 330.313 Q214.888 332.249 214.378 335.171 Q213.835 338.942 213.835 347.979 Z" fill="#000000" fill-rule="evenodd" fill-opacity="1" /><path clip-path="url(#clip980)" d="M243.044 349.1 Q243.044 338.16 248.614 331.468 Q254.184 324.741 261.35 324.741 Q265.528 324.741 267.838 326.881 Q270.181 328.988 270.181 332.249 Q270.181 334.05 269.128 334.831 Q268.075 335.612 266.988 335.612 Q265.732 335.612 264.747 334.763 Q263.762 333.914 263.762 332.385 Q263.762 329.259 267.6 329.259 Q265.8 326.474 261.486 326.474 Q260.162 326.474 258.803 326.881 Q257.445 327.255 255.678 328.546 Q253.912 329.837 252.554 331.875 Q251.195 333.914 250.244 337.753 Q249.293 341.592 249.293 346.586 L249.293 348.251 Q252.146 341.354 257.988 341.388 Q263.83 341.388 267.871 345.838 Q271.913 350.289 271.913 356.88 Q271.913 363.64 267.702 368.125 Q263.49 372.609 257.58 372.609 Q254.931 372.609 252.52 371.488 Q250.142 370.401 247.901 367.887 Q245.693 365.373 244.369 360.549 Q243.044 355.725 243.044 349.1 M249.429 355.351 Q249.429 362.18 250.686 365.441 Q250.89 365.985 251.331 366.732 Q251.807 367.479 252.588 368.465 Q253.403 369.416 254.727 370.061 Q256.052 370.673 257.58 370.673 Q262.233 370.673 264.475 366.155 Q265.664 363.64 265.664 356.812 Q265.664 349.847 264.407 347.299 Q262.267 342.985 257.92 342.985 Q254.999 342.985 252.961 344.989 Q250.957 346.994 250.176 349.677 Q249.429 352.361 249.429 355.351 Z" fill="#000000" fill-rule="evenodd" fill-opacity="1" /><path clip-path="url(#clip980)" d="M119.178 181.491 Q119.178 171.265 121.759 165.694 Q125.359 157.404 133.85 157.404 Q135.65 157.404 137.518 157.914 Q139.42 158.389 141.798 160.258 Q144.209 162.126 145.67 165.184 Q148.455 171.095 148.455 181.491 Q148.455 191.649 145.873 197.187 Q142.103 205.273 133.782 205.273 Q130.658 205.273 127.465 203.676 Q124.306 202.079 122.303 198.24 Q119.178 192.499 119.178 181.491 M124.952 180.642 Q124.952 191.14 125.699 195.318 Q126.548 199.837 128.858 201.807 Q131.201 203.744 133.782 203.744 Q136.567 203.744 138.877 201.671 Q141.22 199.565 141.934 195.047 Q142.715 190.596 142.681 180.642 Q142.681 170.959 142.002 167.086 Q141.084 162.568 138.639 160.767 Q136.228 158.933 133.782 158.933 Q132.865 158.933 131.88 159.205 Q130.929 159.476 129.537 160.258 Q128.144 161.039 127.057 162.976 Q126.005 164.912 125.495 167.834 Q124.952 171.605 124.952 180.642 Z" fill="#000000" fill-rule="evenodd" fill-opacity="1" /><path clip-path="url(#clip980)" d="M158.202 202.623 Q157.149 201.502 157.149 200.041 Q157.149 198.58 158.202 197.527 Q159.255 196.439 160.851 196.439 Q162.38 196.439 163.399 197.459 Q164.452 198.444 164.452 200.075 Q164.452 201.671 163.331 202.725 Q162.244 203.744 160.851 203.744 Q159.255 203.744 158.202 202.623 Z" fill="#000000" fill-rule="evenodd" fill-opacity="1" /><path clip-path="url(#clip980)" d="M173.282 181.491 Q173.282 171.265 175.863 165.694 Q179.464 157.404 187.955 157.404 Q189.755 157.404 191.623 157.914 Q193.525 158.389 195.902 160.258 Q198.314 162.126 199.774 165.184 Q202.559 171.095 202.559 181.491 Q202.559 191.649 199.978 197.187 Q196.208 205.273 187.887 205.273 Q184.762 205.273 181.569 203.676 Q178.411 202.079 176.407 198.24 Q173.282 192.499 173.282 181.491 M179.056 180.642 Q179.056 191.14 179.803 195.318 Q180.652 199.837 182.962 201.807 Q185.305 203.744 187.887 203.744 Q190.672 203.744 192.981 201.671 Q195.325 199.565 196.038 195.047 Q196.819 190.596 196.785 180.642 Q196.785 170.959 196.106 167.086 Q195.189 162.568 192.743 160.767 Q190.332 158.933 187.887 158.933 Q186.97 158.933 185.985 159.205 Q185.034 159.476 183.641 160.258 Q182.249 161.039 181.162 162.976 Q180.109 164.912 179.599 167.834 Q179.056 171.605 179.056 180.642 Z" fill="#000000" fill-rule="evenodd" fill-opacity="1" /><path clip-path="url(#clip980)" d="M208.061 181.491 Q208.061 171.265 210.642 165.694 Q214.243 157.404 222.734 157.404 Q224.534 157.404 226.402 157.914 Q228.304 158.389 230.681 160.258 Q233.093 162.126 234.553 165.184 Q237.338 171.095 237.338 181.491 Q237.338 191.649 234.757 197.187 Q230.987 205.273 222.666 205.273 Q219.541 205.273 216.348 203.676 Q213.19 202.079 211.186 198.24 Q208.061 192.499 208.061 181.491 M213.835 180.642 Q213.835 191.14 214.582 195.318 Q215.431 199.837 217.741 201.807 Q220.084 203.744 222.666 203.744 Q225.451 203.744 227.76 201.671 Q230.104 199.565 230.817 195.047 Q231.598 190.596 231.564 180.642 Q231.564 170.959 230.885 167.086 Q229.968 162.568 227.522 160.767 Q225.111 158.933 222.666 158.933 Q221.749 158.933 220.764 159.205 Q219.813 159.476 218.42 160.258 Q217.028 161.039 215.941 162.976 Q214.888 164.912 214.378 167.834 Q213.835 171.605 213.835 180.642 Z" fill="#000000" fill-rule="evenodd" fill-opacity="1" /><path clip-path="url(#clip980)" d="M243.044 193.246 Q243.044 185.466 253.063 180.438 Q248.75 177.516 247.969 176.667 Q244.912 173.27 244.912 169.023 Q244.912 164.165 248.58 160.801 Q252.282 157.404 257.513 157.404 Q262.505 157.404 266.275 160.292 Q270.045 163.18 270.045 167.766 Q270.045 174.221 261.622 178.569 Q267.192 182.035 268.517 183.496 Q271.913 187.267 271.913 192.057 Q271.913 197.629 267.634 201.468 Q263.354 205.273 257.445 205.273 Q251.671 205.273 247.357 201.909 Q243.044 198.546 243.044 193.246 M246.508 193.246 Q246.508 197.561 249.735 200.448 Q252.995 203.336 257.513 203.336 Q261.894 203.336 265.154 200.822 Q268.449 198.308 268.449 194.571 Q268.449 193.11 267.939 191.853 Q267.464 190.596 266.479 189.611 Q265.528 188.592 264.917 188.15 Q264.339 187.674 263.218 186.893 L254.66 181.491 Q246.508 186.01 246.508 193.246 M247.969 166.305 Q247.969 169.634 251.467 171.945 L260.094 177.516 Q266.988 173.473 266.988 167.766 Q266.988 164.063 264.169 161.617 Q261.35 159.137 257.445 159.137 Q253.607 159.137 250.788 161.175 Q247.969 163.18 247.969 166.305 Z" fill="#000000" fill-rule="evenodd" fill-opacity="1" /><path clip-path="url(#clip980)" d="M77.0374 607.569 L74.7031 607.569 L74.7031 605.568 Q74.7031 601.306 74.0362 600.342 Q73.3322 599.342 71.1092 599.342 L31.1306 599.342 Q28.9446 599.342 28.2777 600.342 Q27.5737 601.343 27.5737 605.568 L27.5737 607.569 L25.2024 607.569 Q25.4247 604.901 25.4247 595.932 Q25.4247 587.037 25.2024 584.406 L27.5737 584.406 L27.5737 586.37 Q27.5737 590.632 28.2777 591.633 Q28.9446 592.596 31.1306 592.596 L71.1092 592.596 Q73.2952 592.596 73.9992 591.633 Q74.7031 590.632 74.7031 586.37 L74.7031 584.406 L77.0374 584.406 Q76.8151 587.074 76.8151 596.006 Q76.8151 604.901 77.0374 607.569 Z" fill="#000000" fill-rule="evenodd" fill-opacity="1" /><path clip-path="url(#clip980)" d="M77.0374 579.847 L74.7031 579.847 Q74.7031 575.807 74.2215 574.881 Q73.7028 573.954 71.2574 573.954 L50.9161 573.954 Q48.1002 573.954 47.3962 574.955 Q46.6922 575.919 46.6922 579.847 L44.321 579.847 L43.5058 569.173 L51.4719 569.173 Q43.5058 565.615 43.5058 557.944 Q43.5058 552.236 46.3217 549.975 Q48.2114 548.308 50.3233 547.974 Q52.4352 547.603 57.9188 547.603 L72.406 547.603 Q73.9992 547.529 74.3697 546.306 Q74.7031 545.083 74.7031 541.673 L77.0374 541.673 Q76.8151 549.419 76.8151 550.198 Q76.8151 550.791 77.0374 558.759 L74.7031 558.759 Q74.7031 554.719 74.2215 553.793 Q73.7028 552.829 71.2574 552.829 L53.5838 552.829 Q49.7305 552.829 47.4703 554.015 Q45.1731 555.201 45.1731 558.463 Q45.1731 562.391 48.4707 565.541 Q51.7683 568.692 57.326 568.692 L71.2574 568.692 Q73.7028 568.692 74.2215 567.765 Q74.7031 566.801 74.7031 562.799 L77.0374 562.799 Q76.8151 570.545 76.8151 571.286 Q76.8151 571.879 77.0374 579.847 Z" fill="#000000" fill-rule="evenodd" fill-opacity="1" /><path clip-path="url(#clip980)" d="M46.6922 537.671 L44.321 537.671 L44.321 531.704 L35.6139 531.704 Q29.982 531.704 26.7586 528.072 Q23.5351 524.403 23.5351 519.918 Q23.5351 516.953 25.1283 515.026 Q26.7215 513.099 28.8705 513.099 Q30.3155 513.099 31.2788 513.988 Q32.2051 514.841 32.2051 516.434 Q32.2051 517.954 31.2418 518.843 Q30.2785 519.696 28.9446 519.696 Q26.4992 519.696 25.7582 517.435 Q25.2395 518.584 25.2024 519.918 Q25.2024 522.661 28.0183 524.81 Q30.8342 526.923 35.5398 526.923 L44.321 526.923 L44.321 518.028 L46.6922 518.028 L46.6922 526.663 L71.1092 526.663 Q73.2952 526.663 73.9992 525.774 Q74.7031 524.847 74.7031 520.919 L74.7031 519.325 L77.0374 519.325 Q76.8151 522.364 76.8151 528.961 Q76.8151 529.888 76.8521 531.333 Q76.8892 532.742 76.9633 534.669 Q77.0374 536.559 77.0374 537.597 L74.7031 537.597 Q74.7031 533.557 74.2215 532.63 Q73.7028 531.704 71.2574 531.704 L46.6922 531.704 L46.6922 537.671 Z" fill="#000000" fill-rule="evenodd" fill-opacity="1" /><path clip-path="url(#clip980)" d="M77.0374 514.544 L74.7031 514.544 Q74.7031 510.504 74.2215 509.578 Q73.7028 508.651 71.2574 508.651 L50.842 508.651 Q48.0261 508.651 47.3592 509.615 Q46.6922 510.542 46.6922 514.248 L44.321 514.248 L43.5058 503.648 L71.3315 503.648 Q73.5916 503.648 74.1474 502.833 Q74.7031 502.017 74.7031 498.311 L77.0374 498.311 Q76.8151 506.057 76.8151 506.205 Q76.8151 507.243 77.0374 514.544 M30.2785 511.357 Q28.7593 511.357 27.5366 510.208 Q26.2769 509.022 26.2769 507.354 Q26.2769 505.686 27.4255 504.5 Q28.537 503.314 30.3155 503.314 Q32.0569 503.314 33.2055 504.5 Q34.3171 505.686 34.3171 507.354 Q34.3171 509.096 33.0944 510.245 Q31.8717 511.357 30.2785 511.357 Z" fill="#000000" fill-rule="evenodd" fill-opacity="1" /><path clip-path="url(#clip980)" d="M60.7347 493.456 Q53.5097 493.456 48.5078 488.416 Q43.5058 483.375 43.5058 476.556 Q43.5058 470.774 48.2114 466.994 L31.7976 466.994 Q28.9817 466.994 28.2777 467.994 Q27.5737 468.958 27.5737 472.887 L25.2024 472.887 L24.3873 461.953 L70.4422 461.953 Q73.2581 461.953 73.9992 460.99 Q74.7031 459.989 74.7031 456.061 L77.0374 456.061 L77.8896 467.216 L72.8506 467.216 Q77.8525 471.145 77.8896 477.371 Q77.8896 483.894 72.8876 488.675 Q67.8857 493.456 60.7347 493.456 M60.8089 487.155 Q67.8486 487.155 71.3315 484.969 Q76.1852 481.93 76.1852 477.001 Q76.1852 471.367 70.8868 468.032 Q69.59 467.179 68.0709 467.216 L52.5093 467.216 Q50.9902 467.216 49.7305 468.032 Q45.1731 471.145 45.1731 476.222 Q45.1731 481.522 50.0269 484.821 Q53.6579 487.155 60.8089 487.155 Z" fill="#000000" fill-rule="evenodd" fill-opacity="1" /><path clip-path="url(#clip980)" d="M60.3272 451.836 Q53.1763 451.836 48.1002 447.24 Q43.0242 442.644 43.0242 436.047 Q43.0242 429.376 47.3592 425.929 Q51.6942 422.445 57.9188 422.445 Q59.0674 422.445 59.2897 422.742 Q59.512 423.038 59.512 424.336 L59.512 445.535 Q67.2558 445.535 70.8868 443.237 Q75.9629 440.05 75.9629 434.676 Q75.9629 433.935 75.8147 433.045 Q75.6665 432.156 75.0366 430.34 Q74.3697 428.524 72.6283 426.93 Q70.8868 425.336 68.145 424.41 Q67.0705 424.187 67.1076 423.446 Q67.1076 422.445 67.9968 422.445 Q68.6638 422.445 70.1829 423.187 Q71.6649 423.891 73.4434 425.262 Q75.2219 426.633 76.5557 429.302 Q77.8896 431.933 77.8896 435.121 Q77.8896 441.792 72.8506 446.832 Q67.7745 451.836 60.3272 451.836 M57.9188 445.461 L57.9188 427.449 Q56.3256 427.449 54.5472 427.745 Q52.7687 428.005 50.3233 428.82 Q47.8408 429.598 46.2847 431.451 Q44.7285 433.305 44.7285 436.047 Q44.7285 437.27 45.2472 438.604 Q45.766 439.902 47.0257 441.495 Q48.2855 443.089 51.1384 444.201 Q53.9914 445.313 57.9188 445.461 Z" fill="#000000" fill-rule="evenodd" fill-opacity="1" /><path clip-path="url(#clip980)" d="M77.0374 417.739 L74.7031 417.739 Q74.7031 413.699 74.2215 412.772 Q73.7028 411.846 71.2574 411.846 L31.7976 411.846 Q28.9817 411.846 28.2777 412.846 Q27.5737 413.81 27.5737 417.739 L25.2024 417.739 L24.3873 406.842 L71.2574 406.842 Q73.7028 406.842 74.2215 405.879 Q74.7031 404.915 74.7031 400.913 L77.0374 400.913 Q77.0374 401.839 76.9633 403.766 Q76.8892 405.693 76.8521 407.102 Q76.8151 408.51 76.8151 409.326 Q76.8151 410.215 77.0374 417.739 Z" fill="#000000" fill-rule="evenodd" fill-opacity="1" /><path clip-path="url(#clip980)" d="M77.0374 396.725 L74.7031 396.725 Q74.7031 392.685 74.2215 391.758 Q73.7028 390.832 71.2574 390.832 L50.842 390.832 Q48.0261 390.832 47.3592 391.795 Q46.6922 392.722 46.6922 396.428 L44.321 396.428 L43.5058 385.828 L71.3315 385.828 Q73.5916 385.828 74.1474 385.013 Q74.7031 384.198 74.7031 380.491 L77.0374 380.491 Q76.8151 388.237 76.8151 388.386 Q76.8151 389.423 77.0374 396.725 M30.2785 393.537 Q28.7593 393.537 27.5366 392.388 Q26.2769 391.202 26.2769 389.535 Q26.2769 387.867 27.4255 386.681 Q28.537 385.495 30.3155 385.495 Q32.0569 385.495 33.2055 386.681 Q34.3171 387.867 34.3171 389.535 Q34.3171 391.276 33.0944 392.425 Q31.8717 393.537 30.2785 393.537 Z" fill="#000000" fill-rule="evenodd" fill-opacity="1" /><path clip-path="url(#clip980)" d="M46.6922 376.785 L45.0249 376.785 Q44.8767 373.301 42.4313 371.004 Q39.9489 368.669 36.9107 367.89 Q33.8724 367.075 30.3526 367.001 L30.3526 365.111 L44.321 365.111 L44.321 354.252 L46.6922 354.252 L46.6922 365.111 L67.7745 365.111 Q75.9629 365.111 75.9629 359.996 Q75.9629 357.81 73.7398 356.364 Q71.4797 354.919 67.4781 354.919 L63.2913 354.919 L63.2913 353.029 L67.6263 353.029 Q71.739 353.029 74.8143 354.919 Q77.8896 356.809 77.8896 360.552 Q77.8896 361.923 77.5191 363.295 Q77.1856 364.629 76.2964 366.408 Q75.3701 368.15 73.147 369.262 Q70.8868 370.336 67.6263 370.336 L46.6922 370.336 L46.6922 376.785 Z" fill="#000000" fill-rule="evenodd" fill-opacity="1" /><path clip-path="url(#clip980)" d="M86.4485 349.471 Q84.8552 349.471 84.0031 348.544 Q83.1879 347.58 83.1879 346.283 Q83.1879 344.912 84.0401 344.023 Q84.9293 343.096 86.3744 343.096 Q89.1903 343.096 89.5608 346.061 Q90.9317 344.616 90.9317 342.503 Q90.9317 340.242 89.2644 338.426 Q87.597 336.573 86.0038 335.795 Q84.4106 334.979 81.5206 333.831 Q79.2605 332.756 77.0374 331.94 L49.3229 343.318 Q47.5074 344.06 47.0998 345.209 Q46.6922 346.357 46.6922 349.471 L44.321 349.471 Q44.5433 346.061 44.5433 342.095 Q44.5433 339.76 44.321 333.831 L46.6922 333.831 Q46.6922 338.093 48.656 338.093 Q48.8783 338.093 50.0269 337.648 L70.4422 329.198 L51.7683 321.526 Q50.6938 321.081 49.9528 321.081 Q46.8405 321.081 46.6922 324.639 L44.321 324.639 Q44.5433 319.636 44.5433 318.042 Q44.5433 314.929 44.321 312.372 L46.6922 312.372 Q46.6922 317.449 51.546 319.413 L83.929 332.793 Q92.5619 336.425 92.599 342.503 Q92.599 345.394 90.8205 347.432 Q89.0421 349.471 86.4485 349.471 Z" fill="#000000" fill-rule="evenodd" fill-opacity="1" /><path clip-path="url(#clip982)" d="M262.589 849.327 L297.518 839.007 L332.447 809.305 L367.377 765.292 L402.306 713.789 L437.235 661.837 L472.165 615.177 L507.094 577.402 L542.023 549.719 L576.952 531.596 L611.882 521.611 L646.811 518.07 L681.74 519.441 L716.67 524.367 L751.599 531.566 L786.528 539.884 L821.458 547.477 L856.387 552.118 L891.316 552.308 L926.245 547.249 L961.175 537.241 L996.104 523.799 L1031.03 509.371 L1065.96 496.817 L1100.89 488.79 L1135.82 487.136 L1170.75 492.525 L1205.68 504.417 L1240.61 522.43 L1275.54 542.464 L1310.47 564.403 L1345.4 587.411 L1380.33 611.311 L1415.26 636.28 L1450.18 662.322 L1485.11 688.805 L1520.04 714.187 L1554.97 736.088 L1589.9 751.666 L1624.83 758.188 L1659.76 753.642 L1659.76 753.642 L1624.83 758.188 L1589.9 751.666 L1554.97 736.088 L1520.04 714.187 L1485.11 688.805 L1450.18 662.322 L1415.26 636.28 L1380.33 611.311 L1345.4 587.411 L1310.47 564.403 L1275.54 542.464 L1240.61 522.43 L1205.68 504.417 L1170.75 492.525 L1135.82 487.136 L1100.89 488.79 L1065.96 496.817 L1031.03 509.371 L996.104 523.799 L961.175 537.241 L926.245 547.249 L891.316 552.308 L856.387 552.118 L821.458 547.477 L786.528 539.884 L751.599 531.566 L716.67 524.367 L681.74 519.441 L646.811 518.07 L611.882 521.611 L576.952 531.596 L542.023 549.719 L507.094 577.402 L472.165 615.177 L437.235 661.837 L402.306 713.789 L367.377 765.292 L332.447 809.305 L297.518 839.007 L262.589 849.327  Z" fill="#dcb0f2" fill-rule="evenodd" fill-opacity="0.5"/>
<polyline clip-path="url(#clip982)" style="stroke:#dcb0f2; stroke-linecap:round; stroke-linejoin:round; stroke-width:12.0022; stroke-opacity:1; fill:none" points="262.589,849.327 297.518,839.007 332.447,809.305 367.377,765.292 402.306,713.789 437.235,661.837 472.165,615.177 507.094,577.402 542.023,549.719 576.952,531.596 611.882,521.611 646.811,518.07 681.74,519.441 716.67,524.367 751.599,531.566 786.528,539.884 821.458,547.477 856.387,552.118 891.316,552.308 926.245,547.249 961.175,537.241 996.104,523.799 1031.03,509.371 1065.96,496.817 1100.89,488.79 1135.82,487.136 1170.75,492.525 1205.68,504.417 1240.61,522.43 1275.54,542.464 1310.47,564.403 1345.4,587.411 1380.33,611.311 1415.26,636.28 1450.18,662.322 1485.11,688.805 1520.04,714.187 1554.97,736.088 1589.9,751.666 1624.83,758.188 1659.76,753.642 "/>
<path clip-path="url(#clip982)" d="M262.589 849.327 L297.518 839.007 L332.447 809.305 L367.377 765.292 L402.306 713.789 L437.235 661.837 L472.165 615.177 L507.094 577.402 L542.023 547.242 L576.952 527.035 L611.882 517.569 L646.811 506.747 L681.74 510.033 L716.67 503.909 L751.599 505.044 L786.528 504.647 L821.458 500.106 L856.387 493.674 L891.316 481.649 L926.245 467.003 L961.175 453.823 L996.104 433.66 L1031.03 418.323 L1065.96 405.856 L1100.89 404.29 L1135.82 409.86 L1170.75 423.143 L1205.68 441.981 L1240.61 461.193 L1275.54 480.416 L1310.47 496.79 L1345.4 511.892 L1380.33 527.607 L1415.26 543.646 L1450.18 562.261 L1485.11 581.745 L1520.04 587.403 L1554.97 577.523 L1589.9 590.797 L1624.83 594.633 L1659.76 584.674 L1659.76 584.674 L1624.83 594.633 L1589.9 590.797 L1554.97 577.523 L1520.04 587.403 L1485.11 581.745 L1450.18 562.261 L1415.26 543.646 L1380.33 527.607 L1345.4 511.892 L1310.47 496.79 L1275.54 480.416 L1240.61 461.193 L1205.68 441.981 L1170.75 423.143 L1135.82 409.86 L1100.89 404.29 L1065.96 405.856 L1031.03 418.323 L996.104 433.66 L961.175 453.823 L926.245 467.003 L891.316 481.649 L856.387 493.674 L821.458 500.106 L786.528 504.647 L751.599 505.044 L716.67 503.909 L681.74 510.033 L646.811 506.747 L611.882 517.569 L576.952 527.035 L542.023 547.242 L507.094 577.402 L472.165 615.177 L437.235 661.837 L402.306 713.789 L367.377 765.292 L332.447 809.305 L297.518 839.007 L262.589 849.327  Z" fill="#f89c74" fill-rule="evenodd" fill-opacity="0.5"/>
<polyline clip-path="url(#clip982)" style="stroke:#f89c74; stroke-linecap:round; stroke-linejoin:round; stroke-width:12.0022; stroke-opacity:1; fill:none" stroke-dasharray="6, 12" points="262.589,849.327 297.518,839.007 332.447,809.305 367.377,765.292 402.306,713.789 437.235,661.837 472.165,615.177 507.094,577.402 542.023,547.242 576.952,527.035 611.882,517.569 646.811,506.747 681.74,510.033 716.67,503.909 751.599,505.044 786.528,504.647 821.458,500.106 856.387,493.674 891.316,481.649 926.245,467.003 961.175,453.823 996.104,433.66 1031.03,418.323 1065.96,405.856 1100.89,404.29 1135.82,409.86 1170.75,423.143 1205.68,441.981 1240.61,461.193 1275.54,480.416 1310.47,496.79 1345.4,511.892 1380.33,527.607 1415.26,543.646 1450.18,562.261 1485.11,581.745 1520.04,587.403 1554.97,577.523 1589.9,590.797 1624.83,594.633 1659.76,584.674 "/>
<path clip-path="url(#clip982)" d="M262.589 849.327 L297.518 838.828 L332.447 808.909 L367.377 764.588 L402.306 712.045 L437.235 657.184 L472.165 604.895 L507.094 556.639 L542.023 511.934 L576.952 469.092 L611.882 426.735 L646.811 384.49 L681.74 343.142 L716.67 304.247 L751.599 269.359 L786.528 238.636 L821.458 211.083 L856.387 184.97 L891.316 159.242 L926.245 134.809 L961.175 110.563 L996.104 88.9154 L1031.03 74.2454 L1065.96 70.6142 L1100.89 80.1693 L1135.82 102.162 L1170.75 132.744 L1205.68 165.704 L1240.61 193.99 L1275.54 211.614 L1310.47 215.422 L1345.4 206.15 L1380.33 188.434 L1415.26 169.706 L1450.18 158.302 L1485.11 161.288 L1520.04 182.578 L1554.97 221.72 L1589.9 273.589 L1624.83 328.998 L1659.76 376.172 L1659.76 376.172 L1624.83 328.998 L1589.9 273.589 L1554.97 221.72 L1520.04 182.578 L1485.11 161.288 L1450.18 158.302 L1415.26 169.706 L1380.33 188.434 L1345.4 206.15 L1310.47 215.422 L1275.54 211.614 L1240.61 193.99 L1205.68 165.704 L1170.75 132.744 L1135.82 102.162 L1100.89 80.1693 L1065.96 70.6142 L1031.03 74.2454 L996.104 88.9154 L961.175 110.563 L926.245 134.809 L891.316 159.242 L856.387 184.97 L821.458 211.083 L786.528 238.636 L751.599 269.359 L716.67 304.247 L681.74 343.142 L646.811 384.49 L611.882 426.735 L576.952 469.092 L542.023 511.934 L507.094 556.639 L472.165 604.895 L437.235 657.184 L402.306 712.045 L367.377 764.588 L332.447 808.909 L297.518 838.828 L262.589 849.327  Z" fill="#f6cf71" fill-rule="evenodd" fill-opacity="0.5"/>
<polyline clip-path="url(#clip982)" style="stroke:#f6cf71; stroke-linecap:round; stroke-linejoin:round; stroke-width:12.0022; stroke-opacity:1; fill:none" stroke-dasharray="48, 30" points="262.589,849.327 297.518,838.828 332.447,808.909 367.377,764.588 402.306,712.045 437.235,657.184 472.165,604.895 507.094,556.639 542.023,511.934 576.952,469.092 611.882,426.735 646.811,384.49 681.74,343.142 716.67,304.247 751.599,269.359 786.528,238.636 821.458,211.083 856.387,184.97 891.316,159.242 926.245,134.809 961.175,110.563 996.104,88.9154 1031.03,74.2454 1065.96,70.6142 1100.89,80.1693 1135.82,102.162 1170.75,132.744 1205.68,165.704 1240.61,193.99 1275.54,211.614 1310.47,215.422 1345.4,206.15 1380.33,188.434 1415.26,169.706 1450.18,158.302 1485.11,161.288 1520.04,182.578 1554.97,221.72 1589.9,273.589 1624.83,328.998 1659.76,376.172 "/>
</svg>
