<?xml version="1.0" encoding="utf-8"?>
<svg xmlns="http://www.w3.org/2000/svg" xmlns:xlink="http://www.w3.org/1999/xlink" width="426.75" height="263.5" viewBox="0 0 1707 1054">
<defs>
  <clipPath id="clip260">
    <rect x="0" y="0" width="1707" height="1054"/>
  </clipPath>
</defs>
<path clip-path="url(#clip260)" d="M0 1054 L1707 1054 L1707 0 L0 0  Z" fill="#ffffff" fill-rule="evenodd" fill-opacity="1"/>
<defs>
  <clipPath id="clip261">
    <rect x="341" y="0" width="1196" height="1054"/>
  </clipPath>
</defs>
<path clip-path="url(#clip260)" d="M273.947 872.688 L1659.76 872.688 L1659.76 47.2528 L273.947 47.2528  Z" fill="#ffffff" fill-rule="evenodd" fill-opacity="1"/>
<defs>
  <clipPath id="clip262">
    <rect x="273" y="47" width="1387" height="826"/>
  </clipPath>
</defs>
<polyline clip-path="url(#clip262)" style="stroke:#000000; stroke-linecap:round; stroke-linejoin:round; stroke-width:2.00037; stroke-opacity:0.1; fill:none" points="279.646,872.688 279.646,47.2528 "/>
<polyline clip-path="url(#clip262)" style="stroke:#000000; stroke-linecap:round; stroke-linejoin:round; stroke-width:2.00037; stroke-opacity:0.1; fill:none" points="614.869,872.688 614.869,47.2528 "/>
<polyline clip-path="url(#clip262)" style="stroke:#000000; stroke-linecap:round; stroke-linejoin:round; stroke-width:2.00037; stroke-opacity:0.1; fill:none" points="950.093,872.688 950.093,47.2528 "/>
<polyline clip-path="url(#clip262)" style="stroke:#000000; stroke-linecap:round; stroke-linejoin:round; stroke-width:2.00037; stroke-opacity:0.1; fill:none" points="1285.32,872.688 1285.32,47.2528 "/>
<polyline clip-path="url(#clip262)" style="stroke:#000000; stroke-linecap:round; stroke-linejoin:round; stroke-width:2.00037; stroke-opacity:0.1; fill:none" points="1620.54,872.688 1620.54,47.2528 "/>
<polyline clip-path="url(#clip260)" style="stroke:#000000; stroke-linecap:round; stroke-linejoin:round; stroke-width:4.00074; stroke-opacity:1; fill:none" points="273.947,872.688 1659.76,872.688 "/>
<polyline clip-path="url(#clip260)" style="stroke:#000000; stroke-linecap:round; stroke-linejoin:round; stroke-width:4.00074; stroke-opacity:1; fill:none" points="273.947,47.2528 1659.76,47.2528 "/>
<polyline clip-path="url(#clip260)" style="stroke:#000000; stroke-linecap:round; stroke-linejoin:round; stroke-width:4.00074; stroke-opacity:1; fill:none" points="279.646,872.688 279.646,853.787 "/>
<polyline clip-path="url(#clip260)" style="stroke:#000000; stroke-linecap:round; stroke-linejoin:round; stroke-width:4.00074; stroke-opacity:1; fill:none" points="614.869,872.688 614.869,853.787 "/>
<polyline clip-path="url(#clip260)" style="stroke:#000000; stroke-linecap:round; stroke-linejoin:round; stroke-width:4.00074; stroke-opacity:1; fill:none" points="950.093,872.688 950.093,853.787 "/>
<polyline clip-path="url(#clip260)" style="stroke:#000000; stroke-linecap:round; stroke-linejoin:round; stroke-width:4.00074; stroke-opacity:1; fill:none" points="1285.32,872.688 1285.32,853.787 "/>
<polyline clip-path="url(#clip260)" style="stroke:#000000; stroke-linecap:round; stroke-linejoin:round; stroke-width:4.00074; stroke-opacity:1; fill:none" points="1620.54,872.688 1620.54,853.787 "/>
<path clip-path="url(#clip260)" d="M237.955 923.507 Q237.955 913.281 240.537 907.709 Q244.137 899.419 252.628 899.419 Q254.428 899.419 256.296 899.929 Q258.198 900.405 260.575 902.273 Q262.987 904.142 264.447 907.199 Q267.232 913.111 267.232 923.507 Q267.232 933.665 264.651 939.202 Q260.881 947.288 252.56 947.288 Q249.435 947.288 246.243 945.691 Q243.084 944.094 241.08 940.255 Q237.955 934.514 237.955 923.507 M243.729 922.657 Q243.729 933.155 244.477 937.334 Q245.326 941.852 247.635 943.823 Q249.979 945.759 252.56 945.759 Q255.345 945.759 257.654 943.687 Q259.998 941.58 260.711 937.062 Q261.492 932.611 261.458 922.657 Q261.458 912.975 260.779 909.102 Q259.862 904.583 257.417 902.783 Q255.005 900.948 252.56 900.948 Q251.643 900.948 250.658 901.22 Q249.707 901.492 248.314 902.273 Q246.922 903.055 245.835 904.991 Q244.782 906.928 244.273 909.849 Q243.729 913.62 243.729 922.657 Z" fill="#000000" fill-rule="evenodd" fill-opacity="1" /><path clip-path="url(#clip260)" d="M276.98 944.638 Q275.927 943.517 275.927 942.056 Q275.927 940.595 276.98 939.542 Q278.033 938.455 279.629 938.455 Q281.157 938.455 282.176 939.474 Q283.229 940.459 283.229 942.09 Q283.229 943.687 282.108 944.74 Q281.022 945.759 279.629 945.759 Q278.033 945.759 276.98 944.638 Z" fill="#000000" fill-rule="evenodd" fill-opacity="1" /><path clip-path="url(#clip260)" d="M292.06 923.507 Q292.06 913.281 294.641 907.709 Q298.241 899.419 306.732 899.419 Q308.532 899.419 310.4 899.929 Q312.302 900.405 314.68 902.273 Q317.091 904.142 318.552 907.199 Q321.337 913.111 321.337 923.507 Q321.337 933.665 318.755 939.202 Q314.985 947.288 306.664 947.288 Q303.54 947.288 300.347 945.691 Q297.188 944.094 295.185 940.255 Q292.06 934.514 292.06 923.507 M297.834 922.657 Q297.834 933.155 298.581 937.334 Q299.43 941.852 301.74 943.823 Q304.083 945.759 306.664 945.759 Q309.449 945.759 311.759 943.687 Q314.102 941.58 314.816 937.062 Q315.597 932.611 315.563 922.657 Q315.563 912.975 314.884 909.102 Q313.967 904.583 311.521 902.783 Q309.11 900.948 306.664 900.948 Q305.747 900.948 304.762 901.22 Q303.811 901.492 302.419 902.273 Q301.026 903.055 299.939 904.991 Q298.887 906.928 298.377 909.849 Q297.834 913.62 297.834 922.657 Z" fill="#000000" fill-rule="evenodd" fill-opacity="1" /><path clip-path="url(#clip260)" d="M573.552 923.507 Q573.552 913.281 576.134 907.709 Q579.734 899.419 588.225 899.419 Q590.025 899.419 591.893 899.929 Q593.795 900.405 596.172 902.273 Q598.584 904.142 600.044 907.199 Q602.829 913.111 602.829 923.507 Q602.829 933.665 600.248 939.202 Q596.478 947.288 588.157 947.288 Q585.032 947.288 581.84 945.691 Q578.681 944.094 576.677 940.255 Q573.552 934.514 573.552 923.507 M579.326 922.657 Q579.326 933.155 580.073 937.334 Q580.923 941.852 583.232 943.823 Q585.576 945.759 588.157 945.759 Q590.942 945.759 593.251 943.687 Q595.595 941.58 596.308 937.062 Q597.089 932.611 597.055 922.657 Q597.055 912.975 596.376 909.102 Q595.459 904.583 593.014 902.783 Q590.602 900.948 588.157 900.948 Q587.24 900.948 586.255 901.22 Q585.304 901.492 583.911 902.273 Q582.519 903.055 581.432 904.991 Q580.379 906.928 579.87 909.849 Q579.326 913.62 579.326 922.657 Z" fill="#000000" fill-rule="evenodd" fill-opacity="1" /><path clip-path="url(#clip260)" d="M612.577 944.638 Q611.524 943.517 611.524 942.056 Q611.524 940.595 612.577 939.542 Q613.63 938.455 615.226 938.455 Q616.754 938.455 617.773 939.474 Q618.826 940.459 618.826 942.09 Q618.826 943.687 617.705 944.74 Q616.619 945.759 615.226 945.759 Q613.63 945.759 612.577 944.638 Z" fill="#000000" fill-rule="evenodd" fill-opacity="1" /><path clip-path="url(#clip260)" d="M628.404 934.548 Q628.404 932.476 629.525 931.694 Q630.646 930.879 631.834 930.879 Q633.431 930.879 634.348 931.898 Q635.299 932.883 635.299 934.276 Q635.299 935.669 634.348 936.688 Q633.431 937.674 631.834 937.674 Q631.053 937.674 630.646 937.538 Q631.563 940.731 634.348 943.041 Q637.167 945.351 640.869 945.351 Q645.522 945.351 648.307 940.833 Q649.971 937.911 649.971 931.287 Q649.971 925.443 648.714 922.521 Q646.778 918.071 642.805 918.071 Q637.167 918.071 633.838 922.929 Q633.431 923.541 632.955 923.575 Q632.276 923.575 632.106 923.201 Q631.97 922.793 631.97 921.74 L631.97 901.152 Q631.97 899.487 632.649 899.487 Q632.921 899.487 633.499 899.691 Q637.88 901.628 642.737 901.662 Q647.729 901.662 652.213 899.623 Q652.552 899.419 652.756 899.419 Q653.435 899.419 653.469 900.201 Q653.469 900.473 652.892 901.288 Q652.348 902.069 651.16 903.123 Q649.971 904.142 648.443 905.127 Q646.914 906.112 644.673 906.792 Q642.465 907.437 640.02 907.437 Q637.099 907.437 634.11 906.52 L634.11 920.075 Q637.71 916.542 642.94 916.542 Q648.511 916.542 652.348 921.027 Q656.186 925.511 656.186 931.762 Q656.186 938.319 651.635 942.803 Q647.118 947.288 641.005 947.288 Q635.434 947.288 631.902 943.313 Q628.404 939.338 628.404 934.548 Z" fill="#000000" fill-rule="evenodd" fill-opacity="1" /><path clip-path="url(#clip260)" d="M910.134 906.044 L910.134 903.87 Q918.489 903.87 922.803 899.419 Q923.992 899.419 924.195 899.691 Q924.399 899.963 924.399 901.22 L924.399 940.255 Q924.399 942.328 925.418 942.973 Q926.437 943.619 930.886 943.619 L933.094 943.619 L933.094 945.759 Q930.648 945.555 921.818 945.555 Q912.987 945.555 910.576 945.759 L910.576 943.619 L912.783 943.619 Q917.165 943.619 918.218 943.007 Q919.271 942.362 919.271 940.255 L919.271 904.21 Q915.636 906.044 910.134 906.044 Z" fill="#000000" fill-rule="evenodd" fill-opacity="1" /><path clip-path="url(#clip260)" d="M945.694 944.638 Q944.642 943.517 944.642 942.056 Q944.642 940.595 945.694 939.542 Q946.747 938.455 948.344 938.455 Q949.872 938.455 950.891 939.474 Q951.944 940.459 951.944 942.09 Q951.944 943.687 950.823 944.74 Q949.736 945.759 948.344 945.759 Q946.747 945.759 945.694 944.638 Z" fill="#000000" fill-rule="evenodd" fill-opacity="1" /><path clip-path="url(#clip260)" d="M960.774 923.507 Q960.774 913.281 963.356 907.709 Q966.956 899.419 975.447 899.419 Q977.247 899.419 979.115 899.929 Q981.017 900.405 983.394 902.273 Q985.806 904.142 987.266 907.199 Q990.051 913.111 990.051 923.507 Q990.051 933.665 987.47 939.202 Q983.7 947.288 975.379 947.288 Q972.254 947.288 969.062 945.691 Q965.903 944.094 963.899 940.255 Q960.774 934.514 960.774 923.507 M966.548 922.657 Q966.548 933.155 967.295 937.334 Q968.144 941.852 970.454 943.823 Q972.798 945.759 975.379 945.759 Q978.164 945.759 980.473 943.687 Q982.817 941.58 983.53 937.062 Q984.311 932.611 984.277 922.657 Q984.277 912.975 983.598 909.102 Q982.681 904.583 980.236 902.783 Q977.824 900.948 975.379 900.948 Q974.462 900.948 973.477 901.22 Q972.526 901.492 971.133 902.273 Q969.741 903.055 968.654 904.991 Q967.601 906.928 967.092 909.849 Q966.548 913.62 966.548 922.657 Z" fill="#000000" fill-rule="evenodd" fill-opacity="1" /><path clip-path="url(#clip260)" d="M1245.73 906.044 L1245.73 903.87 Q1254.09 903.87 1258.4 899.419 Q1259.59 899.419 1259.79 899.691 Q1260 899.963 1260 901.22 L1260 940.255 Q1260 942.328 1261.01 942.973 Q1262.03 943.619 1266.48 943.619 L1268.69 943.619 L1268.69 945.759 Q1266.25 945.555 1257.41 945.555 Q1248.58 945.555 1246.17 945.759 L1246.17 943.619 L1248.38 943.619 Q1252.76 943.619 1253.81 943.007 Q1254.87 942.362 1254.87 940.255 L1254.87 904.21 Q1251.23 906.044 1245.73 906.044 Z" fill="#000000" fill-rule="evenodd" fill-opacity="1" /><path clip-path="url(#clip260)" d="M1281.29 944.638 Q1280.24 943.517 1280.24 942.056 Q1280.24 940.595 1281.29 939.542 Q1282.34 938.455 1283.94 938.455 Q1285.47 938.455 1286.49 939.474 Q1287.54 940.459 1287.54 942.09 Q1287.54 943.687 1286.42 944.74 Q1285.33 945.759 1283.94 945.759 Q1282.34 945.759 1281.29 944.638 Z" fill="#000000" fill-rule="evenodd" fill-opacity="1" /><path clip-path="url(#clip260)" d="M1297.12 934.548 Q1297.12 932.476 1298.24 931.694 Q1299.36 930.879 1300.55 930.879 Q1302.15 930.879 1303.06 931.898 Q1304.01 932.883 1304.01 934.276 Q1304.01 935.669 1303.06 936.688 Q1302.15 937.674 1300.55 937.674 Q1299.77 937.674 1299.36 937.538 Q1300.28 940.731 1303.06 943.041 Q1305.88 945.351 1309.58 945.351 Q1314.24 945.351 1317.02 940.833 Q1318.69 937.911 1318.69 931.287 Q1318.69 925.443 1317.43 922.521 Q1315.49 918.071 1311.52 918.071 Q1305.88 918.071 1302.55 922.929 Q1302.15 923.541 1301.67 923.575 Q1300.99 923.575 1300.82 923.201 Q1300.68 922.793 1300.68 921.74 L1300.68 901.152 Q1300.68 899.487 1301.36 899.487 Q1301.64 899.487 1302.21 899.691 Q1306.59 901.628 1311.45 901.662 Q1316.44 901.662 1320.93 899.623 Q1321.27 899.419 1321.47 899.419 Q1322.15 899.419 1322.18 900.201 Q1322.18 900.473 1321.61 901.288 Q1321.06 902.069 1319.87 903.123 Q1318.69 904.142 1317.16 905.127 Q1315.63 906.112 1313.39 906.792 Q1311.18 907.437 1308.73 907.437 Q1305.81 907.437 1302.82 906.52 L1302.82 920.075 Q1306.42 916.542 1311.65 916.542 Q1317.23 916.542 1321.06 921.027 Q1324.9 925.511 1324.9 931.762 Q1324.9 938.319 1320.35 942.803 Q1315.83 947.288 1309.72 947.288 Q1304.15 947.288 1300.62 943.313 Q1297.12 939.338 1297.12 934.548 Z" fill="#000000" fill-rule="evenodd" fill-opacity="1" /><path clip-path="url(#clip260)" d="M1579.22 945.759 Q1579.22 944.502 1579.32 944.128 Q1579.46 943.755 1580 943.177 L1593.35 928.297 Q1600.65 920.075 1600.65 912.907 Q1600.65 908.253 1598.21 904.923 Q1595.8 901.594 1591.35 901.594 Q1588.29 901.594 1585.71 903.462 Q1583.13 905.331 1581.94 908.66 Q1582.14 908.592 1582.86 908.592 Q1584.59 908.592 1585.54 909.679 Q1586.52 910.767 1586.52 912.227 Q1586.52 914.096 1585.3 915.013 Q1584.11 915.897 1582.92 915.897 Q1582.45 915.897 1581.8 915.795 Q1581.19 915.693 1580.21 914.741 Q1579.22 913.756 1579.22 912.024 Q1579.22 907.165 1582.89 903.292 Q1586.59 899.419 1592.23 899.419 Q1598.62 899.419 1602.79 903.224 Q1607 906.996 1607 912.907 Q1607 914.979 1606.36 916.882 Q1605.75 918.75 1604.9 920.211 Q1604.08 921.672 1601.84 924.016 Q1599.6 926.36 1597.8 928.025 Q1596 929.69 1591.96 933.223 L1584.59 940.391 L1597.12 940.391 Q1603.23 940.391 1603.71 939.848 Q1604.39 938.863 1605.24 933.665 L1607 933.665 L1605.03 945.759 L1579.22 945.759 Z" fill="#000000" fill-rule="evenodd" fill-opacity="1" /><path clip-path="url(#clip260)" d="M1617.5 944.638 Q1616.45 943.517 1616.45 942.056 Q1616.45 940.595 1617.5 939.542 Q1618.55 938.455 1620.15 938.455 Q1621.68 938.455 1622.7 939.474 Q1623.75 940.459 1623.75 942.09 Q1623.75 943.687 1622.63 944.74 Q1621.54 945.759 1620.15 945.759 Q1618.55 945.759 1617.5 944.638 Z" fill="#000000" fill-rule="evenodd" fill-opacity="1" /><path clip-path="url(#clip260)" d="M1632.58 923.507 Q1632.58 913.281 1635.16 907.709 Q1638.76 899.419 1647.25 899.419 Q1649.05 899.419 1650.92 899.929 Q1652.82 900.405 1655.2 902.273 Q1657.61 904.142 1659.07 907.199 Q1661.86 913.111 1661.86 923.507 Q1661.86 933.665 1659.28 939.202 Q1655.51 947.288 1647.18 947.288 Q1644.06 947.288 1640.87 945.691 Q1637.71 944.094 1635.7 940.255 Q1632.58 934.514 1632.58 923.507 M1638.35 922.657 Q1638.35 933.155 1639.1 937.334 Q1639.95 941.852 1642.26 943.823 Q1644.6 945.759 1647.18 945.759 Q1649.97 945.759 1652.28 943.687 Q1654.62 941.58 1655.34 937.062 Q1656.12 932.611 1656.08 922.657 Q1656.08 912.975 1655.4 909.102 Q1654.49 904.583 1652.04 902.783 Q1649.63 900.948 1647.18 900.948 Q1646.27 900.948 1645.28 901.22 Q1644.33 901.492 1642.94 902.273 Q1641.55 903.055 1640.46 904.991 Q1639.41 906.928 1638.9 909.849 Q1638.35 913.62 1638.35 922.657 Z" fill="#000000" fill-rule="evenodd" fill-opacity="1" /><path clip-path="url(#clip260)" d="M883.006 997.494 L884.451 980.445 L930.803 980.445 L932.248 997.494 L930.358 997.494 Q930.062 994.084 929.765 992.12 Q929.506 990.156 928.839 988.303 Q928.209 986.412 927.394 985.523 Q926.616 984.596 925.097 983.892 Q923.578 983.151 921.614 982.966 Q919.65 982.78 916.686 982.78 Q913.203 982.78 912.351 982.929 Q911.425 983.151 911.203 983.818 Q910.98 984.448 910.98 985.819 L910.98 1025.81 Q910.98 1027.33 911.277 1027.96 Q911.61 1028.55 913.352 1029.03 Q915.093 1029.48 918.946 1029.48 L921.985 1029.48 L921.985 1031.81 Q918.872 1031.59 907.572 1031.59 Q896.345 1031.59 893.233 1031.81 L893.233 1029.48 L896.271 1029.48 Q900.124 1029.48 901.866 1029.03 Q903.644 1028.55 903.941 1027.96 Q904.237 1027.33 904.237 1025.81 L904.237 985.819 Q904.237 984.745 904.163 984.3 Q904.089 983.855 903.755 983.485 Q903.422 983.077 902.644 982.929 Q901.903 982.78 898.568 982.78 Q895.604 982.78 893.603 982.966 Q891.639 983.151 890.12 983.892 Q888.601 984.596 887.786 985.523 Q887.008 986.412 886.341 988.303 Q885.711 990.156 885.452 992.12 Q885.192 994.084 884.896 997.494 L883.006 997.494 Z" fill="#000000" fill-rule="evenodd" fill-opacity="1" /><path clip-path="url(#clip260)" d="M937.546 1031.81 L937.546 1029.48 Q941.585 1029.48 942.511 1029 Q943.437 1028.48 943.437 1026.03 L943.437 1005.61 Q943.437 1002.79 942.474 1002.13 Q941.548 1001.46 937.843 1001.46 L937.843 999.088 L948.439 998.272 L948.439 1026.11 Q948.439 1028.37 949.254 1028.92 Q950.07 1029.48 953.775 1029.48 L953.775 1031.81 Q946.031 1031.59 945.883 1031.59 Q944.845 1031.59 937.546 1031.81 M940.733 985.041 Q940.733 983.522 941.881 982.299 Q943.067 981.038 944.734 981.038 Q946.401 981.038 947.587 982.187 Q948.773 983.299 948.773 985.078 Q948.773 986.82 947.587 987.969 Q946.401 989.081 944.734 989.081 Q942.993 989.081 941.844 987.858 Q940.733 986.635 940.733 985.041 Z" fill="#000000" fill-rule="evenodd" fill-opacity="1" /><path clip-path="url(#clip260)" d="M958.48 1031.81 L958.48 1029.48 Q962.519 1029.48 963.445 1029 Q964.371 1028.48 964.371 1026.03 L964.371 1005.68 Q964.371 1002.87 963.371 1002.16 Q962.408 1001.46 958.48 1001.46 L958.48 999.088 L969.151 998.272 L969.151 1006.24 Q972.708 998.272 980.378 998.272 Q989.27 998.272 990.493 1005.68 Q991.79 1002.79 994.494 1000.53 Q997.236 998.272 1001.5 998.272 Q1007.2 998.272 1009.46 1001.09 Q1011.13 1002.98 1011.46 1005.09 Q1011.8 1007.2 1011.8 1012.69 L1011.8 1027.18 Q1011.87 1028.77 1013.09 1029.14 Q1014.32 1029.48 1017.73 1029.48 L1017.73 1031.81 Q1009.98 1031.59 1009.24 1031.59 Q1008.65 1031.59 1000.64 1031.81 L1000.64 1029.48 Q1004.68 1029.48 1005.61 1029 Q1006.57 1028.48 1006.57 1026.03 L1006.57 1008.35 Q1006.57 1004.5 1005.39 1002.24 Q1004.2 999.94 1000.94 999.94 Q997.014 999.94 993.864 1003.24 Q990.715 1006.54 990.715 1012.1 L990.715 1026.03 Q990.715 1028.48 991.641 1029 Q992.605 1029.48 996.643 1029.48 L996.643 1031.81 Q988.899 1031.59 988.121 1031.59 Q987.529 1031.59 979.563 1031.81 L979.563 1029.48 Q983.601 1029.48 984.527 1029 Q985.491 1028.48 985.491 1026.03 L985.491 1008.35 Q985.491 1004.5 984.305 1002.24 Q983.119 999.94 979.859 999.94 Q975.931 999.94 972.782 1003.24 Q969.633 1006.54 969.633 1012.1 L969.633 1026.03 Q969.633 1028.48 970.559 1029 Q971.522 1029.48 975.524 1029.48 L975.524 1031.81 Q967.78 1031.59 967.039 1031.59 Q966.446 1031.59 958.48 1031.81 Z" fill="#000000" fill-rule="evenodd" fill-opacity="1" /><path clip-path="url(#clip260)" d="M1021.32 1015.1 Q1021.32 1007.95 1025.91 1002.87 Q1030.51 997.79 1037.1 997.79 Q1043.77 997.79 1047.22 1002.13 Q1050.7 1006.46 1050.7 1012.69 Q1050.7 1013.84 1050.4 1014.06 Q1050.11 1014.28 1048.81 1014.28 L1027.62 1014.28 Q1027.62 1022.03 1029.92 1025.66 Q1033.1 1030.74 1038.47 1030.74 Q1039.22 1030.74 1040.1 1030.59 Q1040.99 1030.44 1042.81 1029.81 Q1044.62 1029.14 1046.22 1027.4 Q1047.81 1025.66 1048.74 1022.92 Q1048.96 1021.84 1049.7 1021.88 Q1050.7 1021.88 1050.7 1022.77 Q1050.7 1023.44 1049.96 1024.96 Q1049.26 1026.44 1047.89 1028.22 Q1046.51 1030 1043.85 1031.33 Q1041.22 1032.67 1038.03 1032.67 Q1031.36 1032.67 1026.32 1027.63 Q1021.32 1022.55 1021.32 1015.1 M1027.69 1012.69 L1045.7 1012.69 Q1045.7 1011.1 1045.4 1009.32 Q1045.14 1007.54 1044.33 1005.09 Q1043.55 1002.61 1041.7 1001.05 Q1039.85 999.495 1037.1 999.495 Q1035.88 999.495 1034.55 1000.01 Q1033.25 1000.53 1031.66 1001.79 Q1030.06 1003.05 1028.95 1005.91 Q1027.84 1008.76 1027.69 1012.69 Z" fill="#000000" fill-rule="evenodd" fill-opacity="1" /><polyline clip-path="url(#clip262)" style="stroke:#000000; stroke-linecap:round; stroke-linejoin:round; stroke-width:2.00037; stroke-opacity:0.1; fill:none" points="273.947,849.327 1659.76,849.327 "/>
<polyline clip-path="url(#clip262)" style="stroke:#000000; stroke-linecap:round; stroke-linejoin:round; stroke-width:2.00037; stroke-opacity:0.1; fill:none" points="273.947,677.061 1659.76,677.061 "/>
<polyline clip-path="url(#clip262)" style="stroke:#000000; stroke-linecap:round; stroke-linejoin:round; stroke-width:2.00037; stroke-opacity:0.1; fill:none" points="273.947,504.794 1659.76,504.794 "/>
<polyline clip-path="url(#clip262)" style="stroke:#000000; stroke-linecap:round; stroke-linejoin:round; stroke-width:2.00037; stroke-opacity:0.1; fill:none" points="273.947,332.528 1659.76,332.528 "/>
<polyline clip-path="url(#clip260)" style="stroke:#000000; stroke-linecap:round; stroke-linejoin:round; stroke-width:4.00074; stroke-opacity:1; fill:none" points="273.947,872.688 273.947,47.2528 "/>
<polyline clip-path="url(#clip260)" style="stroke:#000000; stroke-linecap:round; stroke-linejoin:round; stroke-width:4.00074; stroke-opacity:1; fill:none" points="1659.76,872.688 1659.76,47.2528 "/>
<polyline clip-path="url(#clip260)" style="stroke:#000000; stroke-linecap:round; stroke-linejoin:round; stroke-width:4.00074; stroke-opacity:1; fill:none" points="273.947,849.327 292.843,849.327 "/>
<polyline clip-path="url(#clip260)" style="stroke:#000000; stroke-linecap:round; stroke-linejoin:round; stroke-width:4.00074; stroke-opacity:1; fill:none" points="273.947,677.061 292.843,677.061 "/>
<polyline clip-path="url(#clip260)" style="stroke:#000000; stroke-linecap:round; stroke-linejoin:round; stroke-width:4.00074; stroke-opacity:1; fill:none" points="273.947,504.794 292.843,504.794 "/>
<polyline clip-path="url(#clip260)" style="stroke:#000000; stroke-linecap:round; stroke-linejoin:round; stroke-width:4.00074; stroke-opacity:1; fill:none" points="273.947,332.528 292.843,332.528 "/>
<path clip-path="url(#clip260)" d="M225.383 833.376 L225.383 831.202 Q233.738 831.202 238.051 826.752 Q239.24 826.752 239.444 827.023 Q239.648 827.295 239.648 828.552 L239.648 867.588 Q239.648 869.66 240.666 870.306 Q241.685 870.951 246.135 870.951 L248.342 870.951 L248.342 873.091 Q245.897 872.888 237.066 872.888 Q228.236 872.888 225.824 873.091 L225.824 870.951 L228.032 870.951 Q232.413 870.951 233.466 870.34 Q234.519 869.694 234.519 867.588 L234.519 831.542 Q230.885 833.376 225.383 833.376 Z" fill="#000000" fill-rule="evenodd" fill-opacity="1" /><path clip-path="url(#clip260)" d="M187.751 661.11 L187.751 658.936 Q196.106 658.936 200.419 654.485 Q201.608 654.485 201.812 654.757 Q202.016 655.029 202.016 656.286 L202.016 695.321 Q202.016 697.394 203.035 698.039 Q204.053 698.685 208.503 698.685 L210.71 698.685 L210.71 700.825 Q208.265 700.621 199.434 700.621 Q190.604 700.621 188.192 700.825 L188.192 698.685 L190.4 698.685 Q194.781 698.685 195.834 698.073 Q196.887 697.428 196.887 695.321 L196.887 659.276 Q193.253 661.11 187.751 661.11 Z" fill="#000000" fill-rule="evenodd" fill-opacity="1" /><path clip-path="url(#clip260)" d="M219.065 678.572 Q219.065 668.346 221.647 662.775 Q225.247 654.485 233.738 654.485 Q235.538 654.485 237.406 654.995 Q239.308 655.471 241.685 657.339 Q244.097 659.208 245.557 662.265 Q248.342 668.177 248.342 678.572 Q248.342 688.73 245.761 694.268 Q241.991 702.354 233.67 702.354 Q230.545 702.354 227.353 700.757 Q224.194 699.16 222.19 695.321 Q219.065 689.58 219.065 678.572 M224.839 677.723 Q224.839 688.221 225.587 692.4 Q226.436 696.918 228.745 698.889 Q231.089 700.825 233.67 700.825 Q236.455 700.825 238.764 698.753 Q241.108 696.646 241.821 692.128 Q242.602 687.677 242.568 677.723 Q242.568 668.041 241.889 664.168 Q240.972 659.649 238.527 657.849 Q236.115 656.014 233.67 656.014 Q232.753 656.014 231.768 656.286 Q230.817 656.558 229.424 657.339 Q228.032 658.12 226.945 660.057 Q225.892 661.993 225.383 664.915 Q224.839 668.686 224.839 677.723 Z" fill="#000000" fill-rule="evenodd" fill-opacity="1" /><path clip-path="url(#clip260)" d="M152.972 488.844 L152.972 486.669 Q161.327 486.669 165.64 482.219 Q166.829 482.219 167.033 482.491 Q167.237 482.763 167.237 484.02 L167.237 523.055 Q167.237 525.127 168.256 525.773 Q169.274 526.418 173.724 526.418 L175.931 526.418 L175.931 528.559 Q173.486 528.355 164.655 528.355 Q155.825 528.355 153.413 528.559 L153.413 526.418 L155.621 526.418 Q160.002 526.418 161.055 525.807 Q162.108 525.161 162.108 523.055 L162.108 487.009 Q158.474 488.844 152.972 488.844 Z" fill="#000000" fill-rule="evenodd" fill-opacity="1" /><path clip-path="url(#clip260)" d="M184.286 506.306 Q184.286 496.08 186.868 490.508 Q190.468 482.219 198.959 482.219 Q200.759 482.219 202.627 482.729 Q204.529 483.204 206.906 485.073 Q209.318 486.941 210.778 489.999 Q213.563 495.91 213.563 506.306 Q213.563 516.464 210.982 522.002 Q207.212 530.087 198.891 530.087 Q195.766 530.087 192.574 528.491 Q189.415 526.894 187.411 523.055 Q184.286 517.313 184.286 506.306 M190.06 505.457 Q190.06 515.955 190.808 520.133 Q191.657 524.652 193.966 526.622 Q196.31 528.559 198.891 528.559 Q201.676 528.559 203.986 526.486 Q206.329 524.38 207.042 519.861 Q207.823 515.411 207.789 505.457 Q207.789 495.774 207.11 491.901 Q206.193 487.383 203.748 485.582 Q201.336 483.748 198.891 483.748 Q197.974 483.748 196.989 484.02 Q196.038 484.291 194.645 485.073 Q193.253 485.854 192.166 487.791 Q191.113 489.727 190.604 492.649 Q190.06 496.42 190.06 505.457 Z" fill="#000000" fill-rule="evenodd" fill-opacity="1" /><path clip-path="url(#clip260)" d="M219.065 506.306 Q219.065 496.08 221.647 490.508 Q225.247 482.219 233.738 482.219 Q235.538 482.219 237.406 482.729 Q239.308 483.204 241.685 485.073 Q244.097 486.941 245.557 489.999 Q248.342 495.91 248.342 506.306 Q248.342 516.464 245.761 522.002 Q241.991 530.087 233.67 530.087 Q230.545 530.087 227.353 528.491 Q224.194 526.894 222.19 523.055 Q219.065 517.313 219.065 506.306 M224.839 505.457 Q224.839 515.955 225.587 520.133 Q226.436 524.652 228.745 526.622 Q231.089 528.559 233.67 528.559 Q236.455 528.559 238.764 526.486 Q241.108 524.38 241.821 519.861 Q242.602 515.411 242.568 505.457 Q242.568 495.774 241.889 491.901 Q240.972 487.383 238.527 485.582 Q236.115 483.748 233.67 483.748 Q232.753 483.748 231.768 484.02 Q230.817 484.291 229.424 485.073 Q228.032 485.854 226.945 487.791 Q225.892 489.727 225.383 492.649 Q224.839 496.42 224.839 505.457 Z" fill="#000000" fill-rule="evenodd" fill-opacity="1" /><path clip-path="url(#clip260)" d="M118.193 316.577 L118.193 314.403 Q126.548 314.403 130.861 309.953 Q132.05 309.953 132.254 310.224 Q132.458 310.496 132.458 311.753 L132.458 350.789 Q132.458 352.861 133.477 353.506 Q134.496 354.152 138.945 354.152 L141.152 354.152 L141.152 356.292 Q138.707 356.088 129.876 356.088 Q121.046 356.088 118.634 356.292 L118.634 354.152 L120.842 354.152 Q125.223 354.152 126.276 353.54 Q127.329 352.895 127.329 350.789 L127.329 314.743 Q123.695 316.577 118.193 316.577 Z" fill="#000000" fill-rule="evenodd" fill-opacity="1" /><path clip-path="url(#clip260)" d="M149.508 334.04 Q149.508 323.814 152.089 318.242 Q155.689 309.953 164.18 309.953 Q165.98 309.953 167.848 310.462 Q169.75 310.938 172.127 312.806 Q174.539 314.675 175.999 317.733 Q178.784 323.644 178.784 334.04 Q178.784 344.198 176.203 349.735 Q172.433 357.821 164.112 357.821 Q160.987 357.821 157.795 356.224 Q154.636 354.628 152.632 350.789 Q149.508 345.047 149.508 334.04 M155.281 333.19 Q155.281 343.688 156.029 347.867 Q156.878 352.385 159.187 354.356 Q161.531 356.292 164.112 356.292 Q166.897 356.292 169.207 354.22 Q171.55 352.114 172.263 347.595 Q173.044 343.145 173.01 333.19 Q173.01 323.508 172.331 319.635 Q171.414 315.117 168.969 313.316 Q166.557 311.481 164.112 311.481 Q163.195 311.481 162.21 311.753 Q161.259 312.025 159.866 312.806 Q158.474 313.588 157.387 315.524 Q156.334 317.461 155.825 320.382 Q155.281 324.153 155.281 333.19 Z" fill="#000000" fill-rule="evenodd" fill-opacity="1" /><path clip-path="url(#clip260)" d="M184.286 334.04 Q184.286 323.814 186.868 318.242 Q190.468 309.953 198.959 309.953 Q200.759 309.953 202.627 310.462 Q204.529 310.938 206.906 312.806 Q209.318 314.675 210.778 317.733 Q213.563 323.644 213.563 334.04 Q213.563 344.198 210.982 349.735 Q207.212 357.821 198.891 357.821 Q195.766 357.821 192.574 356.224 Q189.415 354.628 187.411 350.789 Q184.286 345.047 184.286 334.04 M190.06 333.19 Q190.06 343.688 190.808 347.867 Q191.657 352.385 193.966 354.356 Q196.31 356.292 198.891 356.292 Q201.676 356.292 203.986 354.22 Q206.329 352.114 207.042 347.595 Q207.823 343.145 207.789 333.19 Q207.789 323.508 207.11 319.635 Q206.193 315.117 203.748 313.316 Q201.336 311.481 198.891 311.481 Q197.974 311.481 196.989 311.753 Q196.038 312.025 194.645 312.806 Q193.253 313.588 192.166 315.524 Q191.113 317.461 190.604 320.382 Q190.06 324.153 190.06 333.19 Z" fill="#000000" fill-rule="evenodd" fill-opacity="1" /><path clip-path="url(#clip260)" d="M219.065 334.04 Q219.065 323.814 221.647 318.242 Q225.247 309.953 233.738 309.953 Q235.538 309.953 237.406 310.462 Q239.308 310.938 241.685 312.806 Q244.097 314.675 245.557 317.733 Q248.342 323.644 248.342 334.04 Q248.342 344.198 245.761 349.735 Q241.991 357.821 233.67 357.821 Q230.545 357.821 227.353 356.224 Q224.194 354.628 222.19 350.789 Q219.065 345.047 219.065 334.04 M224.839 333.19 Q224.839 343.688 225.587 347.867 Q226.436 352.385 228.745 354.356 Q231.089 356.292 233.67 356.292 Q236.455 356.292 238.764 354.22 Q241.108 352.114 241.821 347.595 Q242.602 343.145 242.568 333.19 Q242.568 323.508 241.889 319.635 Q240.972 315.117 238.527 313.316 Q236.115 311.481 233.67 311.481 Q232.753 311.481 231.768 311.753 Q230.817 312.025 229.424 312.806 Q228.032 313.588 226.945 315.524 Q225.892 317.461 225.383 320.382 Q224.839 324.153 224.839 333.19 Z" fill="#000000" fill-rule="evenodd" fill-opacity="1" /><path clip-path="url(#clip260)" d="M51.3237 614.797 Q39.7266 614.797 31.6494 607.384 Q23.5351 599.935 23.5351 589.594 Q23.5351 579.18 31.6494 571.768 Q39.7636 564.318 51.3237 564.318 Q62.7726 564.318 70.7386 571.768 Q78.7047 579.217 78.7047 589.594 Q78.7047 599.824 70.7757 607.31 Q62.8467 614.797 51.3237 614.797 M50.2492 606.976 Q57.289 606.976 62.6985 605.309 Q68.0709 603.641 70.998 600.972 Q73.9251 598.267 75.333 595.376 Q76.741 592.485 76.741 589.52 Q76.741 586.63 75.3701 583.813 Q73.9992 580.959 71.1092 578.254 Q68.2191 575.548 62.8096 573.843 Q57.4001 572.138 50.2492 572.138 Q44.6915 572.138 40.2453 573.324 Q35.7621 574.51 33.0573 576.363 Q30.3526 578.216 28.5741 580.626 Q26.7956 582.997 26.1287 585.258 Q25.4247 587.482 25.4247 589.594 Q25.4247 592.263 26.6104 595.043 Q27.796 597.822 30.4267 600.639 Q33.0203 603.419 38.1704 605.198 Q43.2835 606.976 50.2492 606.976 Z" fill="#000000" fill-rule="evenodd" fill-opacity="1" /><path clip-path="url(#clip260)" d="M46.6922 558.648 L44.321 558.648 Q44.5433 555.238 44.5433 551.273 Q44.5433 549.827 44.321 543.008 L46.6922 543.008 Q46.6922 547.344 48.656 547.344 Q48.9524 547.344 49.9528 546.899 L71.1092 538.375 L51.7683 530.629 Q50.4715 530.184 49.9528 530.184 Q48.656 530.184 47.7297 531.074 Q46.7664 531.926 46.6922 533.816 L44.321 533.816 Q44.5433 529.962 44.5433 527.219 Q44.5433 524.106 44.321 521.549 L46.6922 521.549 Q46.6922 523.81 47.7297 525.403 Q48.7301 526.997 49.6193 527.516 Q50.4715 527.998 51.7683 528.517 L76.4446 538.449 Q77.8896 539.042 77.8896 540.043 Q77.8896 540.71 77.5932 541.006 Q77.3338 541.266 76.4446 541.636 L49.5082 552.57 Q47.6185 553.311 47.1739 554.275 Q46.6922 555.238 46.6922 558.648 Z" fill="#000000" fill-rule="evenodd" fill-opacity="1" /><path clip-path="url(#clip260)" d="M60.3272 520.103 Q53.1763 520.103 48.1002 515.508 Q43.0242 510.912 43.0242 504.315 Q43.0242 497.644 47.3592 494.197 Q51.6942 490.713 57.9188 490.713 Q59.0674 490.713 59.2897 491.01 Q59.512 491.306 59.512 492.604 L59.512 513.803 Q67.2558 513.803 70.8868 511.505 Q75.9629 508.318 75.9629 502.944 Q75.9629 502.203 75.8147 501.313 Q75.6665 500.424 75.0366 498.608 Q74.3697 496.792 72.6283 495.198 Q70.8868 493.604 68.145 492.678 Q67.0705 492.455 67.1076 491.714 Q67.1076 490.713 67.9968 490.713 Q68.6638 490.713 70.1829 491.455 Q71.6649 492.159 73.4434 493.53 Q75.2219 494.901 76.5557 497.57 Q77.8896 500.201 77.8896 503.389 Q77.8896 510.06 72.8506 515.1 Q67.7745 520.103 60.3272 520.103 M57.9188 513.729 L57.9188 495.717 Q56.3256 495.717 54.5472 496.013 Q52.7687 496.273 50.3233 497.088 Q47.8408 497.866 46.2847 499.719 Q44.7285 501.573 44.7285 504.315 Q44.7285 505.538 45.2472 506.872 Q45.766 508.17 47.0257 509.763 Q48.2855 511.357 51.1384 512.469 Q53.9914 513.581 57.9188 513.729 Z" fill="#000000" fill-rule="evenodd" fill-opacity="1" /><path clip-path="url(#clip260)" d="M77.0374 486.414 L74.7031 486.414 Q74.7031 482.374 74.2215 481.448 Q73.7028 480.484 71.2574 480.484 L50.9161 480.484 Q48.1002 480.484 47.3962 481.485 Q46.6922 482.449 46.6922 486.414 L44.321 486.414 L43.5058 475.852 L51.8424 475.852 Q48.5819 474.777 46.0624 472.516 Q43.5058 470.218 43.5058 466.512 Q43.5058 464.066 44.8767 462.509 Q46.2476 460.916 48.1373 460.916 Q49.8046 460.916 50.6568 461.953 Q51.4719 462.954 51.4719 464.177 Q51.4719 465.548 50.6197 466.512 Q49.7305 467.439 48.2114 467.439 Q47.2851 467.439 46.5811 467.031 Q45.8401 466.586 45.5807 466.253 Q45.3213 465.919 45.2472 465.697 Q45.1731 465.845 45.1731 466.512 Q45.1731 470.7 49.36 473.109 Q53.5097 475.481 59.4379 475.481 L71.1092 475.481 Q73.2952 475.481 73.9992 474.591 Q74.7031 473.665 74.7031 469.699 L74.7031 468.106 L77.0374 468.106 Q76.8151 471.145 76.8151 477.742 Q76.8151 478.668 76.8521 480.114 Q76.8892 481.559 76.9633 483.449 Q77.0374 485.339 77.0374 486.414 Z" fill="#000000" fill-rule="evenodd" fill-opacity="1" /><path clip-path="url(#clip260)" d="M77.0374 456.431 L74.7031 456.431 Q74.7031 452.391 74.2215 451.465 Q73.7028 450.538 71.2574 450.538 L31.7976 450.538 Q28.9817 450.538 28.2777 451.539 Q27.5737 452.503 27.5737 456.431 L25.2024 456.431 L24.3873 445.535 L50.7679 445.535 L50.7679 445.461 Q48.0261 444.238 45.766 441.495 Q43.5058 438.753 43.5058 434.528 Q43.5058 428.82 46.3217 426.559 Q48.2114 424.892 50.3233 424.558 Q52.4352 424.187 57.9188 424.187 L72.406 424.187 Q73.9992 424.113 74.3697 422.89 Q74.7031 421.667 74.7031 418.257 L77.0374 418.257 Q76.8151 426.003 76.8151 426.782 Q76.8151 427.375 77.0374 435.343 L74.7031 435.343 Q74.7031 431.303 74.2215 430.377 Q73.7028 429.413 71.2574 429.413 L53.5838 429.413 Q49.7305 429.413 47.4703 430.599 Q45.1731 431.785 45.1731 435.046 Q45.1731 438.975 48.4707 442.125 Q51.7683 445.276 57.326 445.276 L71.2574 445.276 Q73.7028 445.276 74.2215 444.349 Q74.7031 443.385 74.7031 439.383 L77.0374 439.383 Q76.8151 447.129 76.8151 447.87 Q76.8151 448.463 77.0374 456.431 Z" fill="#000000" fill-rule="evenodd" fill-opacity="1" /><path clip-path="url(#clip260)" d="M60.3272 414.662 Q53.1763 414.662 48.1002 410.067 Q43.0242 405.471 43.0242 398.874 Q43.0242 392.203 47.3592 388.756 Q51.6942 385.272 57.9188 385.272 Q59.0674 385.272 59.2897 385.569 Q59.512 385.865 59.512 387.163 L59.512 408.362 Q67.2558 408.362 70.8868 406.064 Q75.9629 402.877 75.9629 397.503 Q75.9629 396.762 75.8147 395.872 Q75.6665 394.983 75.0366 393.167 Q74.3697 391.351 72.6283 389.757 Q70.8868 388.163 68.145 387.237 Q67.0705 387.014 67.1076 386.273 Q67.1076 385.272 67.9968 385.272 Q68.6638 385.272 70.1829 386.014 Q71.6649 386.718 73.4434 388.089 Q75.2219 389.46 76.5557 392.129 Q77.8896 394.76 77.8896 397.948 Q77.8896 404.619 72.8506 409.659 Q67.7745 414.662 60.3272 414.662 M57.9188 408.288 L57.9188 390.276 Q56.3256 390.276 54.5472 390.572 Q52.7687 390.832 50.3233 391.647 Q47.8408 392.425 46.2847 394.278 Q44.7285 396.132 44.7285 398.874 Q44.7285 400.097 45.2472 401.431 Q45.766 402.729 47.0257 404.322 Q48.2855 405.916 51.1384 407.028 Q53.9914 408.14 57.9188 408.288 Z" fill="#000000" fill-rule="evenodd" fill-opacity="1" /><path clip-path="url(#clip260)" d="M69.8124 379.898 Q63.3654 379.898 59.9567 372.301 Q57.7706 367.742 57.2149 358.328 L54.436 358.328 Q49.7305 358.328 47.248 360.812 Q44.7285 363.258 44.7285 366.371 Q44.7285 371.93 48.2114 374.599 Q48.2855 372.338 49.4341 371.522 Q50.5456 370.707 51.6942 370.707 Q53.2133 370.707 54.2137 371.671 Q55.177 372.597 55.177 374.191 Q55.177 375.71 54.2507 376.711 Q53.2874 377.712 51.6201 377.712 Q47.9149 377.712 45.4696 374.376 Q43.0242 371.004 43.0242 366.223 Q43.0242 359.996 47.211 355.845 Q48.5078 354.548 50.1751 353.918 Q51.8424 353.251 52.9539 353.177 Q54.0284 353.103 56.1774 353.103 L71.3315 353.103 Q71.7761 353.103 72.5171 352.954 Q73.2581 352.806 74.2215 352.139 Q75.1478 351.435 75.1478 350.286 Q75.1478 347.543 70.294 347.58 L66.0331 347.58 L66.0331 345.653 L70.294 345.653 Q74.3326 345.653 75.9258 347.803 Q77.482 349.915 77.482 351.88 Q77.482 354.4 75.6294 355.994 Q73.7769 357.587 71.2574 357.81 Q74.1474 358.958 76.037 361.59 Q77.8896 364.184 77.8896 367.742 Q77.8896 370.485 77.1856 373.079 Q76.5187 375.636 74.629 377.786 Q72.7024 379.898 69.8124 379.898 M69.7382 374.043 Q72.5542 374.043 74.3697 372.041 Q76.1852 370.04 76.1852 367.223 Q76.1852 364.036 73.7398 361.182 Q71.2574 358.328 66.4036 358.328 L58.8081 358.328 Q59.1045 366.741 62.4762 370.411 Q65.8108 374.043 69.7382 374.043 Z" fill="#000000" fill-rule="evenodd" fill-opacity="1" /><path clip-path="url(#clip260)" d="M60.7347 342.54 Q53.5097 342.54 48.5078 337.5 Q43.5058 332.459 43.5058 325.64 Q43.5058 319.858 48.2114 316.078 L31.7976 316.078 Q28.9817 316.078 28.2777 317.079 Q27.5737 318.042 27.5737 321.971 L25.2024 321.971 L24.3873 311.037 L70.4422 311.037 Q73.2581 311.037 73.9992 310.074 Q74.7031 309.073 74.7031 305.145 L77.0374 305.145 L77.8896 316.3 L72.8506 316.3 Q77.8525 320.229 77.8896 326.455 Q77.8896 332.978 72.8876 337.759 Q67.8857 342.54 60.7347 342.54 M60.8089 336.24 Q67.8486 336.24 71.3315 334.053 Q76.1852 331.014 76.1852 326.085 Q76.1852 320.451 70.8868 317.116 Q69.59 316.263 68.0709 316.3 L52.5093 316.3 Q50.9902 316.3 49.7305 317.116 Q45.1731 320.229 45.1731 325.306 Q45.1731 330.606 50.0269 333.905 Q53.6579 336.24 60.8089 336.24 Z" fill="#000000" fill-rule="evenodd" fill-opacity="1" /><path clip-path="url(#clip262)" d="M313.168 834.71 L346.691 815.987 L380.213 793.343 L413.735 772.39 L447.258 752.628 L480.78 734.277 L514.302 716.982 L547.825 700.263 L581.347 683.514 L614.869 665.784 L648.392 645.454 L681.914 620.943 L715.436 587.508 L748.959 552.061 L782.481 519.212 L816.003 489.551 L849.526 462.344 L883.048 436.887 L916.57 413.435 L950.093 392.464 L983.615 374.618 L1017.14 361.717 L1050.66 352.778 L1084.18 345.67 L1117.7 337.617 L1151.23 327.983 L1184.75 317.73 L1218.27 307.928 L1251.79 298.048 L1285.32 287.682 L1318.84 276.386 L1352.36 264.168 L1385.88 250.898 L1419.41 236.09 L1452.93 219.034 L1486.45 198.579 L1519.97 173.45 L1553.49 141.909 L1587.02 105.442 L1620.54 70.6142 L1620.54 70.6142 L1587.02 105.442 L1553.49 141.909 L1519.97 173.45 L1486.45 198.579 L1452.93 219.034 L1419.41 236.09 L1385.88 250.898 L1352.36 264.168 L1318.84 276.386 L1285.32 287.682 L1251.79 298.048 L1218.27 307.928 L1184.75 317.73 L1151.23 327.983 L1117.7 337.617 L1084.18 345.67 L1050.66 352.778 L1017.14 361.717 L983.615 374.618 L950.093 392.464 L916.57 413.435 L883.048 436.887 L849.526 462.344 L816.003 489.551 L782.481 519.212 L748.959 552.061 L715.436 587.508 L681.914 620.943 L648.392 645.454 L614.869 665.784 L581.347 683.514 L547.825 700.263 L514.302 716.982 L480.78 734.277 L447.258 752.628 L413.735 772.39 L380.213 793.343 L346.691 815.987 L313.168 834.71  Z" fill="#dcb0f2" fill-rule="evenodd" fill-opacity="0.5"/>
<polyline clip-path="url(#clip262)" style="stroke:#dcb0f2; stroke-linecap:round; stroke-linejoin:round; stroke-width:12.0022; stroke-opacity:1; fill:none" points="313.168,834.71 346.691,815.987 380.213,793.343 413.735,772.39 447.258,752.628 480.78,734.277 514.302,716.982 547.825,700.263 581.347,683.514 614.869,665.784 648.392,645.454 681.914,620.943 715.436,587.508 748.959,552.061 782.481,519.212 816.003,489.551 849.526,462.344 883.048,436.887 916.57,413.435 950.093,392.464 983.615,374.618 1017.14,361.717 1050.66,352.778 1084.18,345.67 1117.7,337.617 1151.23,327.983 1184.75,317.73 1218.27,307.928 1251.79,298.048 1285.32,287.682 1318.84,276.386 1352.36,264.168 1385.88,250.898 1419.41,236.09 1452.93,219.034 1486.45,198.579 1519.97,173.45 1553.49,141.909 1587.02,105.442 1620.54,70.6142 "/>
<path clip-path="url(#clip262)" d="M313.168 834.71 L346.691 815.987 L380.213 793.343 L413.735 772.39 L447.258 752.628 L480.78 734.277 L514.302 716.982 L547.825 700.263 L581.347 683.514 L614.869 665.784 L648.392 645.454 L681.914 620.943 L715.436 587.508 L748.959 552.061 L782.481 519.212 L816.003 489.551 L849.526 462.344 L883.048 436.887 L916.57 413.435 L950.093 392.464 L983.615 374.618 L1017.14 361.717 L1050.66 352.778 L1084.18 345.67 L1117.7 337.617 L1151.23 332.598 L1184.75 332.581 L1218.27 333.241 L1251.79 332.537 L1285.32 332.661 L1318.84 333.582 L1352.36 332.964 L1385.88 333.512 L1419.41 333.52 L1452.93 333.046 L1486.45 332.596 L1519.97 332.624 L1553.49 333.037 L1587.02 332.694 L1620.54 333.021 L1620.54 333.021 L1587.02 332.694 L1553.49 333.037 L1519.97 332.624 L1486.45 332.596 L1452.93 333.046 L1419.41 333.52 L1385.88 333.512 L1352.36 332.964 L1318.84 333.582 L1285.32 332.661 L1251.79 332.537 L1218.27 333.241 L1184.75 332.581 L1151.23 332.598 L1117.7 337.617 L1084.18 345.67 L1050.66 352.778 L1017.14 361.717 L983.615 374.618 L950.093 392.464 L916.57 413.435 L883.048 436.887 L849.526 462.344 L816.003 489.551 L782.481 519.212 L748.959 552.061 L715.436 587.508 L681.914 620.943 L648.392 645.454 L614.869 665.784 L581.347 683.514 L547.825 700.263 L514.302 716.982 L480.78 734.277 L447.258 752.628 L413.735 772.39 L380.213 793.343 L346.691 815.987 L313.168 834.71  Z" fill="#87c55f" fill-rule="evenodd" fill-opacity="0.5"/>
<polyline clip-path="url(#clip262)" style="stroke:#87c55f; stroke-linecap:round; stroke-linejoin:round; stroke-width:12.0022; stroke-opacity:1; fill:none" stroke-dasharray="48, 24, 6, 24" points="313.168,834.71 346.691,815.987 380.213,793.343 413.735,772.39 447.258,752.628 480.78,734.277 514.302,716.982 547.825,700.263 581.347,683.514 614.869,665.784 648.392,645.454 681.914,620.943 715.436,587.508 748.959,552.061 782.481,519.212 816.003,489.551 849.526,462.344 883.048,436.887 916.57,413.435 950.093,392.464 983.615,374.618 1017.14,361.717 1050.66,352.778 1084.18,345.67 1117.7,337.617 1151.23,332.598 1184.75,332.581 1218.27,333.241 1251.79,332.537 1285.32,332.661 1318.84,333.582 1352.36,332.964 1385.88,333.512 1419.41,333.52 1452.93,333.046 1486.45,332.596 1519.97,332.624 1553.49,333.037 1587.02,332.694 1620.54,333.021 "/>
<path clip-path="url(#clip262)" d="M313.168 834.71 L346.691 815.987 L380.213 793.343 L413.735 772.39 L447.258 752.628 L480.78 734.277 L514.302 716.982 L547.825 700.263 L581.347 683.514 L614.869 665.784 L648.392 645.454 L681.914 620.943 L715.436 587.508 L748.959 552.061 L782.481 519.212 L816.003 505.332 L849.526 505.031 L883.048 505.332 L916.57 505.211 L950.093 504.967 L983.615 505.931 L1017.14 505.127 L1050.66 505.53 L1084.18 505.946 L1117.7 505.631 L1151.23 505.748 L1184.75 505.646 L1218.27 504.937 L1251.79 505.649 L1285.32 504.892 L1318.84 505.113 L1352.36 505.348 L1385.88 505.35 L1419.41 505.204 L1452.93 504.839 L1486.45 505.187 L1519.97 505.027 L1553.49 505.077 L1587.02 505.205 L1620.54 505.196 L1620.54 505.196 L1587.02 505.205 L1553.49 505.077 L1519.97 505.027 L1486.45 505.187 L1452.93 504.839 L1419.41 505.204 L1385.88 505.35 L1352.36 505.348 L1318.84 505.113 L1285.32 504.892 L1251.79 505.649 L1218.27 504.937 L1184.75 505.646 L1151.23 505.748 L1117.7 505.631 L1084.18 505.946 L1050.66 505.53 L1017.14 505.127 L983.615 505.931 L950.093 504.967 L916.57 505.211 L883.048 505.332 L849.526 505.031 L816.003 505.332 L782.481 519.212 L748.959 552.061 L715.436 587.508 L681.914 620.943 L648.392 645.454 L614.869 665.784 L581.347 683.514 L547.825 700.263 L514.302 716.982 L480.78 734.277 L447.258 752.628 L413.735 772.39 L380.213 793.343 L346.691 815.987 L313.168 834.71  Z" fill="#f89c74" fill-rule="evenodd" fill-opacity="0.5"/>
<polyline clip-path="url(#clip262)" style="stroke:#f89c74; stroke-linecap:round; stroke-linejoin:round; stroke-width:12.0022; stroke-opacity:1; fill:none" stroke-dasharray="6, 12" points="313.168,834.71 346.691,815.987 380.213,793.343 413.735,772.39 447.258,752.628 480.78,734.277 514.302,716.982 547.825,700.263 581.347,683.514 614.869,665.784 648.392,645.454 681.914,620.943 715.436,587.508 748.959,552.061 782.481,519.212 816.003,505.332 849.526,505.031 883.048,505.332 916.57,505.211 950.093,504.967 983.615,505.931 1017.14,505.127 1050.66,505.53 1084.18,505.946 1117.7,505.631 1151.23,505.748 1184.75,505.646 1218.27,504.937 1251.79,505.649 1285.32,504.892 1318.84,505.113 1352.36,505.348 1385.88,505.35 1419.41,505.204 1452.93,504.839 1486.45,505.187 1519.97,505.027 1553.49,505.077 1587.02,505.205 1620.54,505.196 "/>
<path clip-path="url(#clip262)" d="M313.168 834.728 L346.691 834.728 L380.213 834.728 L413.735 834.728 L447.258 834.728 L480.78 834.728 L514.302 834.728 L547.825 834.728 L581.347 834.728 L614.869 834.728 L648.392 834.728 L681.914 834.728 L715.436 834.728 L748.959 834.728 L782.481 834.728 L816.003 834.728 L849.526 834.728 L883.048 834.728 L916.57 834.728 L950.093 834.728 L983.615 834.728 L1017.14 834.728 L1050.66 834.728 L1084.18 834.728 L1117.7 834.728 L1151.23 834.728 L1184.75 834.728 L1218.27 834.728 L1251.79 834.728 L1285.32 834.728 L1318.84 834.728 L1352.36 834.728 L1385.88 834.728 L1419.41 834.728 L1452.93 834.728 L1486.45 834.728 L1519.97 834.728 L1553.49 834.728 L1587.02 834.728 L1620.54 834.728 L1620.54 834.728 L1587.02 834.728 L1553.49 834.728 L1519.97 834.728 L1486.45 834.728 L1452.93 834.728 L1419.41 834.728 L1385.88 834.728 L1352.36 834.728 L1318.84 834.728 L1285.32 834.728 L1251.79 834.728 L1218.27 834.728 L1184.75 834.728 L1151.23 834.728 L1117.7 834.728 L1084.18 834.728 L1050.66 834.728 L1017.14 834.728 L983.615 834.728 L950.093 834.728 L916.57 834.728 L883.048 834.728 L849.526 834.728 L816.003 834.728 L782.481 834.728 L748.959 834.728 L715.436 834.728 L681.914 834.728 L648.392 834.728 L614.869 834.728 L581.347 834.728 L547.825 834.728 L514.302 834.728 L480.78 834.728 L447.258 834.728 L413.735 834.728 L380.213 834.728 L346.691 834.728 L313.168 834.728  Z" fill="#f6cf71" fill-rule="evenodd" fill-opacity="0.5"/>
<polyline clip-path="url(#clip262)" style="stroke:#f6cf71; stroke-linecap:round; stroke-linejoin:round; stroke-width:12.0022; stroke-opacity:1; fill:none" stroke-dasharray="48, 30" points="313.168,834.728 346.691,834.728 380.213,834.728 413.735,834.728 447.258,834.728 480.78,834.728 514.302,834.728 547.825,834.728 581.347,834.728 614.869,834.728 648.392,834.728 681.914,834.728 715.436,834.728 748.959,834.728 782.481,834.728 816.003,834.728 849.526,834.728 883.048,834.728 916.57,834.728 950.093,834.728 983.615,834.728 1017.14,834.728 1050.66,834.728 1084.18,834.728 1117.7,834.728 1151.23,834.728 1184.75,834.728 1218.27,834.728 1251.79,834.728 1285.32,834.728 1318.84,834.728 1352.36,834.728 1385.88,834.728 1419.41,834.728 1452.93,834.728 1486.45,834.728 1519.97,834.728 1553.49,834.728 1587.02,834.728 1620.54,834.728 "/>
<path clip-path="url(#clip262)" d="M313.168 849.327 L346.691 849.327 L380.213 849.327 L413.735 849.327 L447.258 849.327 L480.78 849.327 L514.302 849.327 L547.825 849.327 L581.347 849.327 L614.869 849.327 L648.392 849.327 L681.914 849.327 L715.436 849.327 L748.959 849.327 L782.481 849.327 L816.003 849.327 L849.526 849.327 L883.048 849.327 L916.57 849.327 L950.093 849.327 L983.615 849.327 L1017.14 849.327 L1050.66 849.327 L1084.18 849.327 L1117.7 849.327 L1151.23 849.327 L1184.75 849.327 L1218.27 849.327 L1251.79 849.327 L1285.32 849.327 L1318.84 849.327 L1352.36 849.327 L1385.88 849.327 L1419.41 849.327 L1452.93 849.327 L1486.45 849.327 L1519.97 849.327 L1553.49 849.327 L1587.02 849.327 L1620.54 849.327 L1620.54 849.327 L1587.02 849.327 L1553.49 849.327 L1519.97 849.327 L1486.45 849.327 L1452.93 849.327 L1419.41 849.327 L1385.88 849.327 L1352.36 849.327 L1318.84 849.327 L1285.32 849.327 L1251.79 849.327 L1218.27 849.327 L1184.75 849.327 L1151.23 849.327 L1117.7 849.327 L1084.18 849.327 L1050.66 849.327 L1017.14 849.327 L983.615 849.327 L950.093 849.327 L916.57 849.327 L883.048 849.327 L849.526 849.327 L816.003 849.327 L782.481 849.327 L748.959 849.327 L715.436 849.327 L681.914 849.327 L648.392 849.327 L614.869 849.327 L581.347 849.327 L547.825 849.327 L514.302 849.327 L480.78 849.327 L447.258 849.327 L413.735 849.327 L380.213 849.327 L346.691 849.327 L313.168 849.327  Z" fill="#66c5cc" fill-rule="evenodd" fill-opacity="0.5"/>
<polyline clip-path="url(#clip262)" style="stroke:#66c5cc; stroke-linecap:round; stroke-linejoin:round; stroke-width:12.0022; stroke-opacity:1; fill:none" points="313.168,849.327 346.691,849.327 380.213,849.327 413.735,849.327 447.258,849.327 480.78,849.327 514.302,849.327 547.825,849.327 581.347,849.327 614.869,849.327 648.392,849.327 681.914,849.327 715.436,849.327 748.959,849.327 782.481,849.327 816.003,849.327 849.526,849.327 883.048,849.327 916.57,849.327 950.093,849.327 983.615,849.327 1017.14,849.327 1050.66,849.327 1084.18,849.327 1117.7,849.327 1151.23,849.327 1184.75,849.327 1218.27,849.327 1251.79,849.327 1285.32,849.327 1318.84,849.327 1352.36,849.327 1385.88,849.327 1419.41,849.327 1452.93,849.327 1486.45,849.327 1519.97,849.327 1553.49,849.327 1587.02,849.327 1620.54,849.327 "/>
</svg>
