<?xml version="1.0" encoding="utf-8"?>
<svg xmlns="http://www.w3.org/2000/svg" xmlns:xlink="http://www.w3.org/1999/xlink" width="426.75" height="263.5" viewBox="0 0 1707 1054">
<defs>
  <clipPath id="clip290">
    <rect x="0" y="0" width="1707" height="1054"/>
  </clipPath>
</defs>
<path clip-path="url(#clip290)" d="M0 1054 L1707 1054 L1707 0 L0 0  Z" fill="#ffffff" fill-rule="evenodd" fill-opacity="1"/>
<defs>
  <clipPath id="clip291">
    <rect x="341" y="0" width="1196" height="1054"/>
  </clipPath>
</defs>
<path clip-path="url(#clip290)" d="M233.114 875.894 L1659.76 875.894 L1659.76 47.2528 L233.114 47.2528  Z" fill="#ffffff" fill-rule="evenodd" fill-opacity="1"/>
<defs>
  <clipPath id="clip292">
    <rect x="233" y="47" width="1428" height="830"/>
  </clipPath>
</defs>
<polyline clip-path="url(#clip292)" style="stroke:#000000; stroke-linecap:round; stroke-linejoin:round; stroke-width:2.00037; stroke-opacity:0.1; fill:none" points="273.491,875.894 273.491,47.2528 "/>
<polyline clip-path="url(#clip292)" style="stroke:#000000; stroke-linecap:round; stroke-linejoin:round; stroke-width:2.00037; stroke-opacity:0.1; fill:none" points="571.229,875.894 571.229,47.2528 "/>
<polyline clip-path="url(#clip292)" style="stroke:#000000; stroke-linecap:round; stroke-linejoin:round; stroke-width:2.00037; stroke-opacity:0.1; fill:none" points="868.966,875.894 868.966,47.2528 "/>
<polyline clip-path="url(#clip292)" style="stroke:#000000; stroke-linecap:round; stroke-linejoin:round; stroke-width:2.00037; stroke-opacity:0.1; fill:none" points="1166.7,875.894 1166.7,47.2528 "/>
<polyline clip-path="url(#clip290)" style="stroke:#000000; stroke-linecap:round; stroke-linejoin:round; stroke-width:4.00074; stroke-opacity:1; fill:none" points="233.114,875.894 1659.76,875.894 "/>
<polyline clip-path="url(#clip290)" style="stroke:#000000; stroke-linecap:round; stroke-linejoin:round; stroke-width:4.00074; stroke-opacity:1; fill:none" points="233.114,47.2528 1659.76,47.2528 "/>
<polyline clip-path="url(#clip290)" style="stroke:#000000; stroke-linecap:round; stroke-linejoin:round; stroke-width:4.00074; stroke-opacity:1; fill:none" points="273.491,875.894 273.491,856.993 "/>
<polyline clip-path="url(#clip290)" style="stroke:#000000; stroke-linecap:round; stroke-linejoin:round; stroke-width:4.00074; stroke-opacity:1; fill:none" points="571.229,875.894 571.229,856.993 "/>
<polyline clip-path="url(#clip290)" style="stroke:#000000; stroke-linecap:round; stroke-linejoin:round; stroke-width:4.00074; stroke-opacity:1; fill:none" points="868.966,875.894 868.966,856.993 "/>
<polyline clip-path="url(#clip290)" style="stroke:#000000; stroke-linecap:round; stroke-linejoin:round; stroke-width:4.00074; stroke-opacity:1; fill:none" points="1166.7,875.894 1166.7,856.993 "/>
<path clip-path="url(#clip290)" d="M238.972 923.29 L238.972 921.511 Q245.808 921.511 249.338 917.869 Q250.31 917.869 250.477 918.092 Q250.644 918.314 250.644 919.342 L250.644 951.28 Q250.644 952.976 251.477 953.504 Q252.311 954.032 255.951 954.032 L257.758 954.032 L257.758 955.784 Q255.757 955.617 248.532 955.617 Q241.307 955.617 239.334 955.784 L239.334 954.032 L241.14 954.032 Q244.725 954.032 245.586 953.532 Q246.448 953.004 246.448 951.28 L246.448 921.789 Q243.474 923.29 238.972 923.29 Z" fill="#000000" fill-rule="evenodd" fill-opacity="1" /><path clip-path="url(#clip290)" d="M264.594 937.577 Q264.594 929.21 266.705 924.652 Q269.651 917.869 276.598 917.869 Q278.071 917.869 279.599 918.286 Q281.156 918.675 283.101 920.204 Q285.074 921.733 286.269 924.235 Q288.547 929.071 288.547 937.577 Q288.547 945.888 286.435 950.419 Q283.351 957.034 276.543 957.034 Q273.986 957.034 271.374 955.728 Q268.79 954.421 267.15 951.28 Q264.594 946.583 264.594 937.577 M269.318 936.882 Q269.318 945.471 269.929 948.89 Q270.624 952.587 272.513 954.199 Q274.431 955.784 276.543 955.784 Q278.821 955.784 280.711 954.088 Q282.628 952.365 283.212 948.668 Q283.851 945.026 283.823 936.882 Q283.823 928.96 283.267 925.791 Q282.517 922.094 280.516 920.621 Q278.543 919.12 276.543 919.12 Q275.792 919.12 274.986 919.342 Q274.208 919.565 273.069 920.204 Q271.93 920.843 271.04 922.428 Q270.179 924.012 269.762 926.403 Q269.318 929.488 269.318 936.882 Z" fill="#000000" fill-rule="evenodd" fill-opacity="1" /><path clip-path="url(#clip290)" d="M288.547 910.148 Q288.547 903.35 290.263 899.646 Q292.657 894.136 298.301 894.136 Q299.498 894.136 300.74 894.475 Q302.004 894.791 303.584 896.033 Q305.187 897.275 306.158 899.308 Q308.01 903.237 308.01 910.148 Q308.01 916.901 306.294 920.582 Q303.788 925.957 298.256 925.957 Q296.179 925.957 294.056 924.896 Q291.957 923.834 290.624 921.282 Q288.547 917.466 288.547 910.148 M292.386 909.584 Q292.386 916.562 292.882 919.34 Q293.447 922.344 294.982 923.654 Q296.54 924.941 298.256 924.941 Q300.107 924.941 301.643 923.563 Q303.201 922.163 303.675 919.159 Q304.194 916.201 304.171 909.584 Q304.171 903.147 303.72 900.572 Q303.11 897.569 301.485 896.372 Q299.882 895.152 298.256 895.152 Q297.646 895.152 296.992 895.333 Q296.359 895.513 295.434 896.033 Q294.508 896.552 293.785 897.84 Q293.085 899.127 292.747 901.069 Q292.386 903.576 292.386 909.584 Z" fill="#000000" fill-rule="evenodd" fill-opacity="1" /><path clip-path="url(#clip290)" d="M538.81 923.29 L538.81 921.511 Q545.646 921.511 549.175 917.869 Q550.147 917.869 550.314 918.092 Q550.481 918.314 550.481 919.342 L550.481 951.28 Q550.481 952.976 551.315 953.504 Q552.148 954.032 555.789 954.032 L557.595 954.032 L557.595 955.784 Q555.594 955.617 548.369 955.617 Q541.144 955.617 539.171 955.784 L539.171 954.032 L540.977 954.032 Q544.562 954.032 545.423 953.532 Q546.285 953.004 546.285 951.28 L546.285 921.789 Q543.311 923.29 538.81 923.29 Z" fill="#000000" fill-rule="evenodd" fill-opacity="1" /><path clip-path="url(#clip290)" d="M564.431 937.577 Q564.431 929.21 566.543 924.652 Q569.488 917.869 576.435 917.869 Q577.908 917.869 579.437 918.286 Q580.993 918.675 582.938 920.204 Q584.911 921.733 586.106 924.235 Q588.385 929.071 588.385 937.577 Q588.385 945.888 586.273 950.419 Q583.188 957.034 576.38 957.034 Q573.823 957.034 571.211 955.728 Q568.627 954.421 566.987 951.28 Q564.431 946.583 564.431 937.577 M569.155 936.882 Q569.155 945.471 569.766 948.89 Q570.461 952.587 572.351 954.199 Q574.268 955.784 576.38 955.784 Q578.659 955.784 580.548 954.088 Q582.466 952.365 583.049 948.668 Q583.688 945.026 583.66 936.882 Q583.66 928.96 583.105 925.791 Q582.354 922.094 580.354 920.621 Q578.381 919.12 576.38 919.12 Q575.63 919.12 574.824 919.342 Q574.046 919.565 572.906 920.204 Q571.767 920.843 570.878 922.428 Q570.016 924.012 569.599 926.403 Q569.155 929.488 569.155 936.882 Z" fill="#000000" fill-rule="evenodd" fill-opacity="1" /><path clip-path="url(#clip290)" d="M588.385 898.54 L588.385 897.094 Q593.939 897.094 596.806 894.136 Q597.596 894.136 597.732 894.316 Q597.867 894.497 597.867 895.333 L597.867 921.282 Q597.867 922.66 598.545 923.089 Q599.222 923.518 602.18 923.518 L603.647 923.518 L603.647 924.941 Q602.022 924.806 596.151 924.806 Q590.281 924.806 588.678 924.941 L588.678 923.518 L590.146 923.518 Q593.058 923.518 593.758 923.112 Q594.458 922.683 594.458 921.282 L594.458 897.32 Q592.042 898.54 588.385 898.54 Z" fill="#000000" fill-rule="evenodd" fill-opacity="1" /><path clip-path="url(#clip290)" d="M834.944 923.29 L834.944 921.511 Q841.78 921.511 845.309 917.869 Q846.282 917.869 846.449 918.092 Q846.615 918.314 846.615 919.342 L846.615 951.28 Q846.615 952.976 847.449 953.504 Q848.283 954.032 851.923 954.032 L853.729 954.032 L853.729 955.784 Q851.728 955.617 844.503 955.617 Q837.278 955.617 835.305 955.784 L835.305 954.032 L837.112 954.032 Q840.696 954.032 841.558 953.532 Q842.419 953.004 842.419 951.28 L842.419 921.789 Q839.446 923.29 834.944 923.29 Z" fill="#000000" fill-rule="evenodd" fill-opacity="1" /><path clip-path="url(#clip290)" d="M860.565 937.577 Q860.565 929.21 862.677 924.652 Q865.623 917.869 872.57 917.869 Q874.043 917.869 875.571 918.286 Q877.127 918.675 879.072 920.204 Q881.045 921.733 882.24 924.235 Q884.519 929.071 884.519 937.577 Q884.519 945.888 882.407 950.419 Q879.323 957.034 872.514 957.034 Q869.958 957.034 867.346 955.728 Q864.761 954.421 863.122 951.28 Q860.565 946.583 860.565 937.577 M865.289 936.882 Q865.289 945.471 865.901 948.89 Q866.595 952.587 868.485 954.199 Q870.402 955.784 872.514 955.784 Q874.793 955.784 876.683 954.088 Q878.6 952.365 879.184 948.668 Q879.823 945.026 879.795 936.882 Q879.795 928.96 879.239 925.791 Q878.489 922.094 876.488 920.621 Q874.515 919.12 872.514 919.12 Q871.764 919.12 870.958 919.342 Q870.18 919.565 869.041 920.204 Q867.901 920.843 867.012 922.428 Q866.151 924.012 865.734 926.403 Q865.289 929.488 865.289 936.882 Z" fill="#000000" fill-rule="evenodd" fill-opacity="1" /><path clip-path="url(#clip290)" d="M884.519 924.941 Q884.519 924.105 884.587 923.857 Q884.677 923.609 885.038 923.225 L893.912 913.333 Q898.766 907.867 898.766 903.102 Q898.766 900.008 897.14 897.794 Q895.537 895.581 892.579 895.581 Q890.547 895.581 888.831 896.823 Q887.116 898.065 886.325 900.279 Q886.461 900.234 886.935 900.234 Q888.086 900.234 888.719 900.956 Q889.373 901.679 889.373 902.65 Q889.373 903.892 888.561 904.502 Q887.77 905.089 886.98 905.089 Q886.664 905.089 886.235 905.022 Q885.829 904.954 885.174 904.321 Q884.519 903.666 884.519 902.515 Q884.519 899.285 886.957 896.71 Q889.418 894.136 893.166 894.136 Q897.411 894.136 900.188 896.665 Q902.988 899.172 902.988 903.102 Q902.988 904.48 902.559 905.744 Q902.153 906.986 901.588 907.958 Q901.046 908.929 899.556 910.487 Q898.066 912.045 896.869 913.152 Q895.673 914.259 892.986 916.607 L888.086 921.373 L896.418 921.373 Q900.482 921.373 900.798 921.011 Q901.249 920.356 901.814 916.901 L902.988 916.901 L901.678 924.941 L884.519 924.941 Z" fill="#000000" fill-rule="evenodd" fill-opacity="1" /><path clip-path="url(#clip290)" d="M1132.32 923.29 L1132.32 921.511 Q1139.16 921.511 1142.69 917.869 Q1143.66 917.869 1143.82 918.092 Q1143.99 918.314 1143.99 919.342 L1143.99 951.28 Q1143.99 952.976 1144.83 953.504 Q1145.66 954.032 1149.3 954.032 L1151.11 954.032 L1151.11 955.784 Q1149.1 955.617 1141.88 955.617 Q1134.65 955.617 1132.68 955.784 L1132.68 954.032 L1134.49 954.032 Q1138.07 954.032 1138.93 953.532 Q1139.8 953.004 1139.8 951.28 L1139.8 921.789 Q1136.82 923.29 1132.32 923.29 Z" fill="#000000" fill-rule="evenodd" fill-opacity="1" /><path clip-path="url(#clip290)" d="M1157.94 937.577 Q1157.94 929.21 1160.05 924.652 Q1163 917.869 1169.95 917.869 Q1171.42 917.869 1172.95 918.286 Q1174.5 918.675 1176.45 920.204 Q1178.42 921.733 1179.62 924.235 Q1181.9 929.071 1181.9 937.577 Q1181.9 945.888 1179.78 950.419 Q1176.7 957.034 1169.89 957.034 Q1167.33 957.034 1164.72 955.728 Q1162.14 954.421 1160.5 951.28 Q1157.94 946.583 1157.94 937.577 M1162.67 936.882 Q1162.67 945.471 1163.28 948.89 Q1163.97 952.587 1165.86 954.199 Q1167.78 955.784 1169.89 955.784 Q1172.17 955.784 1174.06 954.088 Q1175.98 952.365 1176.56 948.668 Q1177.2 945.026 1177.17 936.882 Q1177.17 928.96 1176.62 925.791 Q1175.87 922.094 1173.86 920.621 Q1171.89 919.12 1169.89 919.12 Q1169.14 919.12 1168.33 919.342 Q1167.56 919.565 1166.42 920.204 Q1165.28 920.843 1164.39 922.428 Q1163.53 924.012 1163.11 926.403 Q1162.67 929.488 1162.67 936.882 Z" fill="#000000" fill-rule="evenodd" fill-opacity="1" /><path clip-path="url(#clip290)" d="M1181.9 918.708 Q1181.9 917.33 1182.69 916.675 Q1183.48 916.02 1184.49 916.02 Q1185.55 916.02 1186.3 916.72 Q1187.07 917.398 1187.07 918.595 Q1187.07 919.882 1186.16 920.605 Q1185.28 921.328 1184.02 921.147 Q1185.12 922.999 1187.16 923.834 Q1189.21 924.67 1191.11 924.67 Q1193.09 924.67 1194.7 922.954 Q1196.32 921.237 1196.32 917.037 Q1196.32 913.468 1194.92 911.413 Q1193.55 909.358 1190.81 909.358 L1188.78 909.358 Q1188.08 909.358 1187.88 909.29 Q1187.68 909.222 1187.68 908.838 Q1187.68 908.387 1188.38 908.296 Q1189.08 908.296 1190.18 908.161 Q1192.87 908.07 1194.29 905.744 Q1195.58 903.576 1195.58 900.482 Q1195.58 897.659 1194.22 896.485 Q1192.89 895.288 1191.15 895.288 Q1189.53 895.288 1187.74 895.965 Q1185.96 896.643 1184.99 898.156 Q1187.86 898.156 1187.86 900.482 Q1187.86 901.498 1187.2 902.176 Q1186.57 902.831 1185.51 902.831 Q1184.49 902.831 1183.81 902.198 Q1183.14 901.544 1183.14 900.437 Q1183.14 897.794 1185.49 895.965 Q1187.86 894.136 1191.33 894.136 Q1194.76 894.136 1197.29 895.943 Q1199.84 897.749 1199.84 900.527 Q1199.84 903.26 1198.04 905.496 Q1196.23 907.732 1193.37 908.658 Q1196.89 909.358 1198.99 911.752 Q1201.09 914.123 1201.09 917.037 Q1201.09 920.65 1198.24 923.315 Q1195.4 925.957 1191.24 925.957 Q1187.4 925.957 1184.65 923.88 Q1181.9 921.802 1181.9 918.708 Z" fill="#000000" fill-rule="evenodd" fill-opacity="1" /><path clip-path="url(#clip290)" d="M817.452 1010.98 Q817.452 1001.32 823.627 994.584 Q829.833 987.82 838.448 987.82 Q847.124 987.82 853.299 994.584 Q859.505 1001.35 859.505 1010.98 Q859.505 1020.53 853.299 1027.17 Q847.093 1033.81 838.448 1033.81 Q829.926 1033.81 823.689 1027.2 Q817.452 1020.59 817.452 1010.98 M823.967 1010.09 Q823.967 1015.96 825.356 1020.47 Q826.746 1024.94 828.969 1027.38 Q831.223 1029.82 833.631 1031 Q836.04 1032.17 838.51 1032.17 Q840.918 1032.17 843.265 1031.03 Q845.642 1029.89 847.896 1027.48 Q850.15 1025.07 851.57 1020.56 Q852.991 1016.05 852.991 1010.09 Q852.991 1005.46 852.003 1001.75 Q851.014 998.012 849.471 995.758 Q847.927 993.503 845.92 992.021 Q843.944 990.538 842.06 989.982 Q840.208 989.396 838.448 989.396 Q836.225 989.396 833.909 990.384 Q831.593 991.372 829.247 993.565 Q826.931 995.727 825.449 1000.02 Q823.967 1004.28 823.967 1010.09 Z" fill="#000000" fill-rule="evenodd" fill-opacity="1" /><path clip-path="url(#clip290)" d="M864.229 1007.12 L864.229 1005.15 Q867.07 1005.33 870.374 1005.33 Q871.578 1005.33 877.259 1005.15 L877.259 1007.12 Q873.647 1007.12 873.647 1008.76 Q873.647 1009.01 874.017 1009.84 L881.119 1027.48 L887.572 1011.35 Q887.942 1010.27 887.942 1009.84 Q887.942 1008.76 887.201 1007.99 Q886.491 1007.19 884.917 1007.12 L884.917 1005.15 Q888.128 1005.33 890.413 1005.33 Q893.006 1005.33 895.137 1005.15 L895.137 1007.12 Q893.253 1007.12 891.925 1007.99 Q890.598 1008.82 890.165 1009.56 Q889.764 1010.27 889.332 1011.35 L881.057 1031.92 Q880.563 1033.13 879.729 1033.13 Q879.174 1033.13 878.927 1032.88 Q878.71 1032.67 878.402 1031.92 L869.293 1009.47 Q868.676 1007.9 867.873 1007.52 Q867.07 1007.12 864.229 1007.12 Z" fill="#000000" fill-rule="evenodd" fill-opacity="1" /><path clip-path="url(#clip290)" d="M896.341 1018.49 Q896.341 1012.53 900.169 1008.3 Q903.998 1004.07 909.494 1004.07 Q915.052 1004.07 917.923 1007.68 Q920.826 1011.29 920.826 1016.48 Q920.826 1017.44 920.579 1017.62 Q920.332 1017.81 919.251 1017.81 L901.59 1017.81 Q901.59 1024.26 903.504 1027.29 Q906.159 1031.52 910.636 1031.52 Q911.254 1031.52 911.995 1031.4 Q912.736 1031.28 914.249 1030.75 Q915.762 1030.19 917.09 1028.74 Q918.417 1027.29 919.189 1025.01 Q919.374 1024.11 919.992 1024.14 Q920.826 1024.14 920.826 1024.88 Q920.826 1025.44 920.208 1026.7 Q919.621 1027.94 918.479 1029.42 Q917.337 1030.9 915.113 1032.02 Q912.921 1033.13 910.266 1033.13 Q904.708 1033.13 900.509 1028.93 Q896.341 1024.7 896.341 1018.49 M901.651 1016.48 L916.657 1016.48 Q916.657 1015.15 916.41 1013.67 Q916.194 1012.19 915.515 1010.15 Q914.866 1008.08 913.323 1006.78 Q911.779 1005.49 909.494 1005.49 Q908.475 1005.49 907.364 1005.92 Q906.283 1006.35 904.955 1007.4 Q903.628 1008.45 902.701 1010.83 Q901.775 1013.21 901.651 1016.48 Z" fill="#000000" fill-rule="evenodd" fill-opacity="1" /><path clip-path="url(#clip290)" d="M924.407 1032.42 L924.407 1030.47 Q927.773 1030.47 928.545 1030.07 Q929.347 1029.64 929.347 1027.6 L929.347 1010.64 Q929.347 1008.3 928.514 1007.71 Q927.711 1007.12 924.407 1007.12 L924.407 1005.15 L933.207 1004.47 L933.207 1011.42 Q934.102 1008.7 935.986 1006.6 Q937.9 1004.47 940.988 1004.47 Q943.026 1004.47 944.322 1005.61 Q945.65 1006.75 945.65 1008.33 Q945.65 1009.72 944.786 1010.43 Q943.952 1011.11 942.933 1011.11 Q941.791 1011.11 940.988 1010.4 Q940.216 1009.66 940.216 1008.39 Q940.216 1007.62 940.555 1007.03 Q940.926 1006.41 941.204 1006.2 Q941.482 1005.98 941.667 1005.92 Q941.544 1005.86 940.988 1005.86 Q937.499 1005.86 935.492 1009.35 Q933.516 1012.81 933.516 1017.75 L933.516 1027.48 Q933.516 1029.3 934.257 1029.89 Q935.029 1030.47 938.332 1030.47 L939.66 1030.47 L939.66 1032.42 Q937.128 1032.23 931.632 1032.23 Q930.86 1032.23 929.656 1032.26 Q928.452 1032.29 926.877 1032.36 Q925.303 1032.42 924.407 1032.42 Z" fill="#000000" fill-rule="evenodd" fill-opacity="1" /><path clip-path="url(#clip290)" d="M949.386 1032.42 L949.386 1030.47 Q952.752 1030.47 953.523 1030.07 Q954.295 1029.64 954.295 1027.6 L954.295 994.708 Q954.295 992.36 953.462 991.774 Q952.659 991.187 949.386 991.187 L949.386 989.21 L958.464 988.531 L958.464 1010.52 L958.525 1010.52 Q959.544 1008.24 961.829 1006.35 Q964.114 1004.47 967.634 1004.47 Q972.389 1004.47 974.272 1006.81 Q975.662 1008.39 975.94 1010.15 Q976.248 1011.91 976.248 1016.48 L976.248 1028.56 Q976.31 1029.89 977.329 1030.19 Q978.348 1030.47 981.189 1030.47 L981.189 1032.42 Q974.735 1032.23 974.087 1032.23 Q973.593 1032.23 966.955 1032.42 L966.955 1030.47 Q970.32 1030.47 971.092 1030.07 Q971.895 1029.64 971.895 1027.6 L971.895 1012.87 Q971.895 1009.66 970.907 1007.77 Q969.919 1005.86 967.202 1005.86 Q963.929 1005.86 961.304 1008.61 Q958.68 1011.35 958.68 1015.99 L958.68 1027.6 Q958.68 1029.64 959.452 1030.07 Q960.254 1030.47 963.589 1030.47 L963.589 1032.42 Q957.136 1032.23 956.518 1032.23 Q956.024 1032.23 949.386 1032.42 Z" fill="#000000" fill-rule="evenodd" fill-opacity="1" /><path clip-path="url(#clip290)" d="M984.184 1018.49 Q984.184 1012.53 988.012 1008.3 Q991.841 1004.07 997.337 1004.07 Q1002.89 1004.07 1005.77 1007.68 Q1008.67 1011.29 1008.67 1016.48 Q1008.67 1017.44 1008.42 1017.62 Q1008.17 1017.81 1007.09 1017.81 L989.433 1017.81 Q989.433 1024.26 991.347 1027.29 Q994.002 1031.52 998.479 1031.52 Q999.097 1031.52 999.838 1031.4 Q1000.58 1031.28 1002.09 1030.75 Q1003.6 1030.19 1004.93 1028.74 Q1006.26 1027.29 1007.03 1025.01 Q1007.22 1024.11 1007.83 1024.14 Q1008.67 1024.14 1008.67 1024.88 Q1008.67 1025.44 1008.05 1026.7 Q1007.46 1027.94 1006.32 1029.42 Q1005.18 1030.9 1002.96 1032.02 Q1000.76 1033.13 998.109 1033.13 Q992.551 1033.13 988.352 1028.93 Q984.184 1024.7 984.184 1018.49 M989.494 1016.48 L1004.5 1016.48 Q1004.5 1015.15 1004.25 1013.67 Q1004.04 1012.19 1003.36 1010.15 Q1002.71 1008.08 1001.17 1006.78 Q999.622 1005.49 997.337 1005.49 Q996.318 1005.49 995.206 1005.92 Q994.126 1006.35 992.798 1007.4 Q991.47 1008.45 990.544 1010.83 Q989.618 1013.21 989.494 1016.48 Z" fill="#000000" fill-rule="evenodd" fill-opacity="1" /><path clip-path="url(#clip290)" d="M1013.15 1026.4 Q1013.15 1021.02 1019.48 1018.18 Q1023.27 1016.36 1031.12 1015.89 L1031.12 1013.58 Q1031.12 1009.66 1029.05 1007.59 Q1027.01 1005.49 1024.42 1005.49 Q1019.78 1005.49 1017.56 1008.39 Q1019.44 1008.45 1020.12 1009.41 Q1020.8 1010.34 1020.8 1011.29 Q1020.8 1012.56 1020 1013.39 Q1019.23 1014.2 1017.9 1014.2 Q1016.63 1014.2 1015.8 1013.42 Q1014.97 1012.62 1014.97 1011.23 Q1014.97 1008.14 1017.75 1006.1 Q1020.56 1004.07 1024.54 1004.07 Q1029.73 1004.07 1033.18 1007.56 Q1034.26 1008.64 1034.79 1010.03 Q1035.35 1011.42 1035.41 1012.34 Q1035.47 1013.24 1035.47 1015.03 L1035.47 1027.66 Q1035.47 1028.03 1035.59 1028.65 Q1035.72 1029.27 1036.27 1030.07 Q1036.86 1030.84 1037.82 1030.84 Q1040.1 1030.84 1040.07 1026.8 L1040.07 1023.25 L1041.68 1023.25 L1041.68 1026.8 Q1041.68 1030.16 1039.88 1031.49 Q1038.12 1032.79 1036.49 1032.79 Q1034.39 1032.79 1033.06 1031.24 Q1031.73 1029.7 1031.55 1027.6 Q1030.59 1030.01 1028.4 1031.58 Q1026.24 1033.13 1023.27 1033.13 Q1020.99 1033.13 1018.83 1032.54 Q1016.7 1031.99 1014.91 1030.41 Q1013.15 1028.8 1013.15 1026.4 M1018.02 1026.33 Q1018.02 1028.68 1019.69 1030.19 Q1021.36 1031.71 1023.71 1031.71 Q1026.36 1031.71 1028.74 1029.67 Q1031.12 1027.6 1031.12 1023.55 L1031.12 1017.22 Q1024.11 1017.47 1021.05 1020.28 Q1018.02 1023.06 1018.02 1026.33 Z" fill="#000000" fill-rule="evenodd" fill-opacity="1" /><path clip-path="url(#clip290)" d="M1044.27 1018.83 Q1044.27 1012.81 1048.47 1008.64 Q1052.67 1004.47 1058.35 1004.47 Q1063.16 1004.47 1066.31 1008.39 L1066.31 994.708 Q1066.31 992.36 1065.48 991.774 Q1064.68 991.187 1061.4 991.187 L1061.4 989.21 L1070.51 988.531 L1070.51 1026.92 Q1070.51 1029.27 1071.32 1029.89 Q1072.15 1030.47 1075.42 1030.47 L1075.42 1032.42 L1066.13 1033.13 L1066.13 1028.93 Q1062.86 1033.1 1057.67 1033.13 Q1052.23 1033.13 1048.25 1028.96 Q1044.27 1024.79 1044.27 1018.83 M1049.52 1018.89 Q1049.52 1024.76 1051.34 1027.66 Q1053.87 1031.71 1057.98 1031.71 Q1062.67 1031.71 1065.45 1027.29 Q1066.16 1026.21 1066.13 1024.94 L1066.13 1011.97 Q1066.13 1010.71 1065.45 1009.66 Q1062.86 1005.86 1058.63 1005.86 Q1054.21 1005.86 1051.46 1009.9 Q1049.52 1012.93 1049.52 1018.89 Z" fill="#000000" fill-rule="evenodd" fill-opacity="1" /><polyline clip-path="url(#clip292)" style="stroke:#000000; stroke-linecap:round; stroke-linejoin:round; stroke-width:2.00037; stroke-opacity:0.1; fill:none" points="233.114,875.894 1659.76,875.894 "/>
<polyline clip-path="url(#clip292)" style="stroke:#000000; stroke-linecap:round; stroke-linejoin:round; stroke-width:2.00037; stroke-opacity:0.1; fill:none" points="233.114,654.923 1659.76,654.923 "/>
<polyline clip-path="url(#clip292)" style="stroke:#000000; stroke-linecap:round; stroke-linejoin:round; stroke-width:2.00037; stroke-opacity:0.1; fill:none" points="233.114,433.952 1659.76,433.952 "/>
<polyline clip-path="url(#clip292)" style="stroke:#000000; stroke-linecap:round; stroke-linejoin:round; stroke-width:2.00037; stroke-opacity:0.1; fill:none" points="233.114,212.981 1659.76,212.981 "/>
<polyline clip-path="url(#clip290)" style="stroke:#000000; stroke-linecap:round; stroke-linejoin:round; stroke-width:4.00074; stroke-opacity:1; fill:none" points="233.114,875.894 233.114,47.2528 "/>
<polyline clip-path="url(#clip290)" style="stroke:#000000; stroke-linecap:round; stroke-linejoin:round; stroke-width:4.00074; stroke-opacity:1; fill:none" points="1659.76,875.894 1659.76,47.2528 "/>
<polyline clip-path="url(#clip290)" style="stroke:#000000; stroke-linecap:round; stroke-linejoin:round; stroke-width:4.00074; stroke-opacity:1; fill:none" points="233.114,875.894 252.01,875.894 "/>
<polyline clip-path="url(#clip290)" style="stroke:#000000; stroke-linecap:round; stroke-linejoin:round; stroke-width:4.00074; stroke-opacity:1; fill:none" points="233.114,654.923 252.01,654.923 "/>
<polyline clip-path="url(#clip290)" style="stroke:#000000; stroke-linecap:round; stroke-linejoin:round; stroke-width:4.00074; stroke-opacity:1; fill:none" points="233.114,433.952 252.01,433.952 "/>
<polyline clip-path="url(#clip290)" style="stroke:#000000; stroke-linecap:round; stroke-linejoin:round; stroke-width:4.00074; stroke-opacity:1; fill:none" points="233.114,212.981 252.01,212.981 "/>
<path clip-path="url(#clip290)" d="M110.833 877.131 Q110.833 868.764 112.945 864.206 Q115.89 857.423 122.837 857.423 Q124.31 857.423 125.839 857.84 Q127.395 858.229 129.34 859.758 Q131.313 861.287 132.508 863.789 Q134.787 868.625 134.787 877.131 Q134.787 885.442 132.675 889.973 Q129.59 896.588 122.782 896.588 Q120.225 896.588 117.613 895.282 Q115.029 893.976 113.389 890.835 Q110.833 886.137 110.833 877.131 M115.557 876.436 Q115.557 885.025 116.168 888.444 Q116.863 892.141 118.753 893.753 Q120.67 895.338 122.782 895.338 Q125.061 895.338 126.95 893.642 Q128.868 891.919 129.451 888.222 Q130.09 884.58 130.062 876.436 Q130.062 868.514 129.507 865.345 Q128.756 861.648 126.756 860.175 Q124.783 858.674 122.782 858.674 Q122.032 858.674 121.226 858.896 Q120.448 859.119 119.308 859.758 Q118.169 860.397 117.28 861.982 Q116.418 863.566 116.001 865.957 Q115.557 869.042 115.557 876.436 Z" fill="#000000" fill-rule="evenodd" fill-opacity="1" /><path clip-path="url(#clip290)" d="M142.762 894.42 Q141.9 893.503 141.9 892.308 Q141.9 891.112 142.762 890.251 Q143.623 889.361 144.929 889.361 Q146.18 889.361 147.014 890.195 Q147.875 891.001 147.875 892.336 Q147.875 893.642 146.958 894.504 Q146.069 895.338 144.929 895.338 Q143.623 895.338 142.762 894.42 Z" fill="#000000" fill-rule="evenodd" fill-opacity="1" /><path clip-path="url(#clip290)" d="M155.1 877.131 Q155.1 868.764 157.212 864.206 Q160.158 857.423 167.105 857.423 Q168.577 857.423 170.106 857.84 Q171.662 858.229 173.607 859.758 Q175.58 861.287 176.775 863.789 Q179.054 868.625 179.054 877.131 Q179.054 885.442 176.942 889.973 Q173.857 896.588 167.049 896.588 Q164.493 896.588 161.88 895.282 Q159.296 893.976 157.657 890.835 Q155.1 886.137 155.1 877.131 M159.824 876.436 Q159.824 885.025 160.435 888.444 Q161.13 892.141 163.02 893.753 Q164.937 895.338 167.049 895.338 Q169.328 895.338 171.217 893.642 Q173.135 891.919 173.718 888.222 Q174.358 884.58 174.33 876.436 Q174.33 868.514 173.774 865.345 Q173.024 861.648 171.023 860.175 Q169.05 858.674 167.049 858.674 Q166.299 858.674 165.493 858.896 Q164.715 859.119 163.576 859.758 Q162.436 860.397 161.547 861.982 Q160.686 863.566 160.269 865.957 Q159.824 869.042 159.824 876.436 Z" fill="#000000" fill-rule="evenodd" fill-opacity="1" /><path clip-path="url(#clip290)" d="M183.556 877.131 Q183.556 868.764 185.667 864.206 Q188.613 857.423 195.56 857.423 Q197.033 857.423 198.561 857.84 Q200.118 858.229 202.063 859.758 Q204.036 861.287 205.231 863.789 Q207.509 868.625 207.509 877.131 Q207.509 885.442 205.397 889.973 Q202.313 896.588 195.505 896.588 Q192.948 896.588 190.336 895.282 Q187.752 893.976 186.112 890.835 Q183.556 886.137 183.556 877.131 M188.28 876.436 Q188.28 885.025 188.891 888.444 Q189.586 892.141 191.475 893.753 Q193.393 895.338 195.505 895.338 Q197.783 895.338 199.673 893.642 Q201.59 891.919 202.174 888.222 Q202.813 884.58 202.785 876.436 Q202.785 868.514 202.229 865.345 Q201.479 861.648 199.478 860.175 Q197.505 858.674 195.505 858.674 Q194.754 858.674 193.948 858.896 Q193.17 859.119 192.031 859.758 Q190.892 860.397 190.002 861.982 Q189.141 863.566 188.724 865.957 Q188.28 869.042 188.28 876.436 Z" fill="#000000" fill-rule="evenodd" fill-opacity="1" /><path clip-path="url(#clip290)" d="M111.444 656.16 Q111.444 647.793 113.556 643.235 Q116.502 636.452 123.449 636.452 Q124.922 636.452 126.45 636.869 Q128.006 637.258 129.951 638.787 Q131.924 640.316 133.119 642.818 Q135.398 647.654 135.398 656.16 Q135.398 664.471 133.286 669.002 Q130.201 675.617 123.393 675.617 Q120.837 675.617 118.225 674.311 Q115.64 673.005 114.001 669.864 Q111.444 665.166 111.444 656.16 M116.168 655.465 Q116.168 664.054 116.78 667.473 Q117.474 671.17 119.364 672.782 Q121.281 674.367 123.393 674.367 Q125.672 674.367 127.562 672.671 Q129.479 670.948 130.062 667.251 Q130.702 663.609 130.674 655.465 Q130.674 647.543 130.118 644.374 Q129.368 640.677 127.367 639.204 Q125.394 637.703 123.393 637.703 Q122.643 637.703 121.837 637.925 Q121.059 638.148 119.92 638.787 Q118.78 639.426 117.891 641.011 Q117.03 642.595 116.613 644.986 Q116.168 648.071 116.168 655.465 Z" fill="#000000" fill-rule="evenodd" fill-opacity="1" /><path clip-path="url(#clip290)" d="M143.373 673.449 Q142.512 672.532 142.512 671.337 Q142.512 670.142 143.373 669.28 Q144.235 668.39 145.541 668.39 Q146.791 668.39 147.625 669.224 Q148.486 670.03 148.486 671.365 Q148.486 672.671 147.569 673.533 Q146.68 674.367 145.541 674.367 Q144.235 674.367 143.373 673.449 Z" fill="#000000" fill-rule="evenodd" fill-opacity="1" /><path clip-path="url(#clip290)" d="M155.711 656.16 Q155.711 647.793 157.823 643.235 Q160.769 636.452 167.716 636.452 Q169.189 636.452 170.717 636.869 Q172.273 637.258 174.219 638.787 Q176.192 640.316 177.386 642.818 Q179.665 647.654 179.665 656.16 Q179.665 664.471 177.553 669.002 Q174.469 675.617 167.66 675.617 Q165.104 675.617 162.492 674.311 Q159.907 673.005 158.268 669.864 Q155.711 665.166 155.711 656.16 M160.435 655.465 Q160.435 664.054 161.047 667.473 Q161.741 671.17 163.631 672.782 Q165.549 674.367 167.66 674.367 Q169.939 674.367 171.829 672.671 Q173.746 670.948 174.33 667.251 Q174.969 663.609 174.941 655.465 Q174.941 647.543 174.385 644.374 Q173.635 640.677 171.634 639.204 Q169.661 637.703 167.66 637.703 Q166.91 637.703 166.104 637.925 Q165.326 638.148 164.187 638.787 Q163.048 639.426 162.158 641.011 Q161.297 642.595 160.88 644.986 Q160.435 648.071 160.435 655.465 Z" fill="#000000" fill-rule="evenodd" fill-opacity="1" /><path clip-path="url(#clip290)" d="M184.778 674.367 Q184.778 673.338 184.862 673.032 Q184.973 672.727 185.417 672.254 L196.338 660.079 Q202.313 653.352 202.313 647.487 Q202.313 643.679 200.312 640.955 Q198.339 638.231 194.699 638.231 Q192.198 638.231 190.086 639.76 Q187.974 641.289 187.001 644.013 Q187.168 643.957 187.752 643.957 Q189.169 643.957 189.947 644.847 Q190.753 645.736 190.753 646.932 Q190.753 648.46 189.752 649.211 Q188.78 649.934 187.807 649.934 Q187.418 649.934 186.89 649.85 Q186.39 649.767 185.584 648.988 Q184.778 648.182 184.778 646.765 Q184.778 642.79 187.779 639.621 Q190.808 636.452 195.421 636.452 Q200.646 636.452 204.063 639.565 Q207.509 642.651 207.509 647.487 Q207.509 649.183 206.981 650.74 Q206.481 652.268 205.786 653.464 Q205.119 654.659 203.285 656.577 Q201.451 658.495 199.979 659.857 Q198.506 661.219 195.199 664.11 L189.169 669.975 L199.423 669.975 Q204.425 669.975 204.814 669.53 Q205.37 668.724 206.064 664.471 L207.509 664.471 L205.898 674.367 L184.778 674.367 Z" fill="#000000" fill-rule="evenodd" fill-opacity="1" /><path clip-path="url(#clip290)" d="M110.194 435.189 Q110.194 426.822 112.306 422.264 Q115.251 415.481 122.198 415.481 Q123.671 415.481 125.199 415.898 Q126.756 416.287 128.701 417.816 Q130.674 419.345 131.869 421.847 Q134.147 426.683 134.147 435.189 Q134.147 443.5 132.035 448.031 Q128.951 454.646 122.143 454.646 Q119.586 454.646 116.974 453.34 Q114.39 452.034 112.75 448.893 Q110.194 444.195 110.194 435.189 M114.918 434.494 Q114.918 443.083 115.529 446.502 Q116.224 450.199 118.113 451.811 Q120.031 453.396 122.143 453.396 Q124.421 453.396 126.311 451.7 Q128.228 449.977 128.812 446.28 Q129.451 442.638 129.423 434.494 Q129.423 426.572 128.868 423.403 Q128.117 419.706 126.117 418.233 Q124.144 416.732 122.143 416.732 Q121.392 416.732 120.587 416.955 Q119.809 417.177 118.669 417.816 Q117.53 418.456 116.641 420.04 Q115.779 421.624 115.362 424.015 Q114.918 427.1 114.918 434.494 Z" fill="#000000" fill-rule="evenodd" fill-opacity="1" /><path clip-path="url(#clip290)" d="M142.123 452.478 Q141.261 451.561 141.261 450.366 Q141.261 449.171 142.123 448.309 Q142.984 447.419 144.29 447.419 Q145.541 447.419 146.374 448.253 Q147.236 449.059 147.236 450.394 Q147.236 451.7 146.319 452.562 Q145.43 453.396 144.29 453.396 Q142.984 453.396 142.123 452.478 Z" fill="#000000" fill-rule="evenodd" fill-opacity="1" /><path clip-path="url(#clip290)" d="M154.461 435.189 Q154.461 426.822 156.573 422.264 Q159.518 415.481 166.466 415.481 Q167.938 415.481 169.467 415.898 Q171.023 416.287 172.968 417.816 Q174.941 419.345 176.136 421.847 Q178.415 426.683 178.415 435.189 Q178.415 443.5 176.303 448.031 Q173.218 454.646 166.41 454.646 Q163.853 454.646 161.241 453.34 Q158.657 452.034 157.017 448.893 Q154.461 444.195 154.461 435.189 M159.185 434.494 Q159.185 443.083 159.796 446.502 Q160.491 450.199 162.381 451.811 Q164.298 453.396 166.41 453.396 Q168.689 453.396 170.578 451.7 Q172.496 449.977 173.079 446.28 Q173.718 442.638 173.691 434.494 Q173.691 426.572 173.135 423.403 Q172.385 419.706 170.384 418.233 Q168.411 416.732 166.41 416.732 Q165.66 416.732 164.854 416.955 Q164.076 417.177 162.936 417.816 Q161.797 418.456 160.908 420.04 Q160.046 421.624 159.63 424.015 Q159.185 427.1 159.185 434.494 Z" fill="#000000" fill-rule="evenodd" fill-opacity="1" /><path clip-path="url(#clip290)" d="M182.277 444 L182.277 442.249 L199.756 415.537 Q200.201 414.842 200.896 414.87 Q201.535 414.87 201.674 415.12 Q201.813 415.37 201.813 416.343 L201.813 442.249 L207.509 442.249 L207.509 444 L201.813 444 L201.813 448.948 Q201.813 450.588 202.48 451.116 Q203.174 451.644 206.12 451.644 L207.315 451.644 L207.315 453.396 Q204.981 453.229 199.59 453.229 Q194.226 453.229 191.892 453.396 L191.892 451.644 L193.087 451.644 Q196.033 451.644 196.727 451.144 Q197.422 450.616 197.422 448.948 L197.422 444 L182.277 444 M183.889 442.249 L197.755 442.249 L197.755 421.013 L183.889 442.249 Z" fill="#000000" fill-rule="evenodd" fill-opacity="1" /><path clip-path="url(#clip290)" d="M111 214.218 Q111 205.851 113.111 201.293 Q116.057 194.51 123.004 194.51 Q124.477 194.51 126.005 194.927 Q127.562 195.316 129.507 196.845 Q131.48 198.374 132.675 200.876 Q134.953 205.712 134.953 214.218 Q134.953 222.529 132.841 227.06 Q129.757 233.675 122.949 233.675 Q120.392 233.675 117.78 232.369 Q115.196 231.063 113.556 227.922 Q111 223.224 111 214.218 M115.724 213.523 Q115.724 222.112 116.335 225.531 Q117.03 229.228 118.919 230.84 Q120.837 232.425 122.949 232.425 Q125.227 232.425 127.117 230.729 Q129.034 229.006 129.618 225.309 Q130.257 221.667 130.229 213.523 Q130.229 205.601 129.673 202.432 Q128.923 198.735 126.922 197.262 Q124.949 195.761 122.949 195.761 Q122.198 195.761 121.392 195.984 Q120.614 196.206 119.475 196.845 Q118.336 197.485 117.446 199.069 Q116.585 200.653 116.168 203.044 Q115.724 206.129 115.724 213.523 Z" fill="#000000" fill-rule="evenodd" fill-opacity="1" /><path clip-path="url(#clip290)" d="M142.929 231.507 Q142.067 230.59 142.067 229.395 Q142.067 228.2 142.929 227.338 Q143.79 226.448 145.096 226.448 Q146.347 226.448 147.18 227.282 Q148.042 228.088 148.042 229.423 Q148.042 230.729 147.125 231.591 Q146.235 232.425 145.096 232.425 Q143.79 232.425 142.929 231.507 Z" fill="#000000" fill-rule="evenodd" fill-opacity="1" /><path clip-path="url(#clip290)" d="M155.267 214.218 Q155.267 205.851 157.379 201.293 Q160.324 194.51 167.271 194.51 Q168.744 194.51 170.273 194.927 Q171.829 195.316 173.774 196.845 Q175.747 198.374 176.942 200.876 Q179.221 205.712 179.221 214.218 Q179.221 222.529 177.109 227.06 Q174.024 233.675 167.216 233.675 Q164.659 233.675 162.047 232.369 Q159.463 231.063 157.823 227.922 Q155.267 223.224 155.267 214.218 M159.991 213.523 Q159.991 222.112 160.602 225.531 Q161.297 229.228 163.186 230.84 Q165.104 232.425 167.216 232.425 Q169.494 232.425 171.384 230.729 Q173.302 229.006 173.885 225.309 Q174.524 221.667 174.496 213.523 Q174.496 205.601 173.941 202.432 Q173.19 198.735 171.19 197.262 Q169.217 195.761 167.216 195.761 Q166.466 195.761 165.66 195.984 Q164.882 196.206 163.742 196.845 Q162.603 197.485 161.714 199.069 Q160.852 200.653 160.435 203.044 Q159.991 206.129 159.991 213.523 Z" fill="#000000" fill-rule="evenodd" fill-opacity="1" /><path clip-path="url(#clip290)" d="M183.889 214.44 Q183.889 205.49 188.446 200.014 Q193.004 194.51 198.867 194.51 Q202.285 194.51 204.175 196.261 Q206.092 197.985 206.092 200.653 Q206.092 202.127 205.231 202.766 Q204.369 203.405 203.48 203.405 Q202.452 203.405 201.646 202.71 Q200.84 202.015 200.84 200.765 Q200.84 198.207 203.98 198.207 Q202.507 195.928 198.978 195.928 Q197.894 195.928 196.783 196.261 Q195.671 196.567 194.226 197.624 Q192.781 198.68 191.67 200.348 Q190.558 202.015 189.78 205.156 Q189.002 208.297 189.002 212.383 L189.002 213.745 Q191.336 208.103 196.116 208.131 Q200.896 208.131 204.202 211.772 Q207.509 215.413 207.509 220.806 Q207.509 226.337 204.063 230.006 Q200.618 233.675 195.783 233.675 Q193.615 233.675 191.642 232.758 Q189.697 231.869 187.863 229.812 Q186.056 227.755 184.973 223.808 Q183.889 219.861 183.889 214.44 M189.113 219.555 Q189.113 225.142 190.141 227.81 Q190.308 228.255 190.669 228.867 Q191.058 229.478 191.698 230.284 Q192.365 231.063 193.448 231.591 Q194.532 232.091 195.783 232.091 Q199.59 232.091 201.424 228.394 Q202.396 226.337 202.396 220.75 Q202.396 215.052 201.368 212.967 Q199.617 209.437 196.06 209.437 Q193.671 209.437 192.003 211.077 Q190.364 212.717 189.725 214.913 Q189.113 217.109 189.113 219.555 Z" fill="#000000" fill-rule="evenodd" fill-opacity="1" /><path clip-path="url(#clip290)" d="M71.6299 584.572 L69.6847 584.572 L69.6847 582.905 Q69.6847 579.353 69.1289 578.55 Q68.5423 577.716 66.6897 577.716 L33.3743 577.716 Q31.5526 577.716 30.9968 578.55 Q30.4102 579.384 30.4102 582.905 L30.4102 584.572 L28.4341 584.572 Q28.6194 582.349 28.6194 574.875 Q28.6194 567.462 28.4341 565.269 L30.4102 565.269 L30.4102 566.906 Q30.4102 570.458 30.9968 571.292 Q31.5526 572.095 33.3743 572.095 L66.6897 572.095 Q68.5114 572.095 69.0981 571.292 Q69.6847 570.458 69.6847 566.906 L69.6847 565.269 L71.6299 565.269 Q71.4447 567.493 71.4447 574.936 Q71.4447 582.349 71.6299 584.572 Z" fill="#000000" fill-rule="evenodd" fill-opacity="1" /><path clip-path="url(#clip290)" d="M71.6299 561.471 L69.6847 561.471 Q69.6847 558.104 69.2833 557.332 Q68.8511 556.56 66.8132 556.56 L49.8622 556.56 Q47.5156 556.56 46.9289 557.394 Q46.3423 558.197 46.3423 561.471 L44.3662 561.471 L43.6869 552.576 L50.3253 552.576 Q43.6869 549.611 43.6869 543.218 Q43.6869 538.461 46.0335 536.577 Q47.6082 535.188 49.3682 534.91 Q51.1281 534.601 55.6978 534.601 L67.7704 534.601 Q69.0981 534.539 69.4068 533.52 Q69.6847 532.501 69.6847 529.659 L71.6299 529.659 Q71.4447 536.114 71.4447 536.763 Q71.4447 537.257 71.6299 543.897 L69.6847 543.897 Q69.6847 540.531 69.2833 539.758 Q68.8511 538.955 66.8132 538.955 L52.0853 538.955 Q48.8741 538.955 46.9907 539.944 Q45.0764 540.932 45.0764 543.65 Q45.0764 546.924 47.8244 549.549 Q50.5723 552.174 55.2038 552.174 L66.8132 552.174 Q68.8511 552.174 69.2833 551.402 Q69.6847 550.599 69.6847 547.264 L71.6299 547.264 Q71.4447 553.718 71.4447 554.336 Q71.4447 554.83 71.6299 561.471 Z" fill="#000000" fill-rule="evenodd" fill-opacity="1" /><path clip-path="url(#clip290)" d="M46.3423 526.324 L44.3662 526.324 L44.3662 521.351 L37.1103 521.351 Q32.4171 521.351 29.7309 518.324 Q27.0447 515.267 27.0447 511.53 Q27.0447 509.059 28.3723 507.453 Q29.7 505.847 31.4908 505.847 Q32.695 505.847 33.4978 506.588 Q34.2697 507.298 34.2697 508.627 Q34.2697 509.893 33.4669 510.634 Q32.6641 511.344 31.5526 511.344 Q29.5148 511.344 28.8972 509.46 Q28.465 510.418 28.4341 511.53 Q28.4341 513.815 30.7807 515.606 Q33.1273 517.367 37.0486 517.367 L44.3662 517.367 L44.3662 509.955 L46.3423 509.955 L46.3423 517.151 L66.6897 517.151 Q68.5114 517.151 69.0981 516.41 Q69.6847 515.637 69.6847 512.364 L69.6847 511.036 L71.6299 511.036 Q71.4447 513.568 71.4447 519.066 Q71.4447 519.838 71.4755 521.042 Q71.5064 522.216 71.5682 523.822 Q71.6299 525.397 71.6299 526.262 L69.6847 526.262 Q69.6847 522.895 69.2833 522.123 Q68.8511 521.351 66.8132 521.351 L46.3423 521.351 L46.3423 526.324 Z" fill="#000000" fill-rule="evenodd" fill-opacity="1" /><path clip-path="url(#clip290)" d="M71.6299 507.051 L69.6847 507.051 Q69.6847 503.685 69.2833 502.913 Q68.8511 502.141 66.8132 502.141 L49.8004 502.141 Q47.4538 502.141 46.8981 502.944 Q46.3423 503.716 46.3423 506.804 L44.3662 506.804 L43.6869 497.971 L66.875 497.971 Q68.7584 497.971 69.2216 497.292 Q69.6847 496.612 69.6847 493.524 L71.6299 493.524 Q71.4447 499.979 71.4447 500.102 Q71.4447 500.967 71.6299 507.051 M32.6641 504.395 Q31.3982 504.395 30.3793 503.438 Q29.3295 502.45 29.3295 501.06 Q29.3295 499.67 30.2867 498.682 Q31.213 497.693 32.695 497.693 Q34.1462 497.693 35.1034 498.682 Q36.0296 499.67 36.0296 501.06 Q36.0296 502.511 35.0107 503.469 Q33.9918 504.395 32.6641 504.395 Z" fill="#000000" fill-rule="evenodd" fill-opacity="1" /><path clip-path="url(#clip290)" d="M58.0444 489.478 Q52.0235 489.478 47.8552 485.278 Q43.6869 481.077 43.6869 475.394 Q43.6869 470.576 47.6082 467.426 L33.9301 467.426 Q31.5835 467.426 30.9968 468.26 Q30.4102 469.063 30.4102 472.337 L28.4341 472.337 L27.7548 463.226 L66.1339 463.226 Q68.4805 463.226 69.0981 462.423 Q69.6847 461.589 69.6847 458.315 L71.6299 458.315 L72.3401 467.611 L68.1409 467.611 Q72.3092 470.885 72.3401 476.074 Q72.3401 481.51 68.1718 485.494 Q64.0035 489.478 58.0444 489.478 M58.1061 484.227 Q63.9726 484.227 66.875 482.405 Q70.9198 479.873 70.9198 475.765 Q70.9198 471.07 66.5045 468.291 Q65.4238 467.58 64.1579 467.611 L51.1899 467.611 Q49.9239 467.611 48.8741 468.291 Q45.0764 470.885 45.0764 475.116 Q45.0764 479.533 49.1212 482.282 Q52.147 484.227 58.1061 484.227 Z" fill="#000000" fill-rule="evenodd" fill-opacity="1" /><path clip-path="url(#clip290)" d="M57.7047 454.794 Q51.7456 454.794 47.5156 450.964 Q43.2856 447.135 43.2856 441.637 Q43.2856 436.078 46.8981 433.206 Q50.5106 430.302 55.6978 430.302 Q56.6549 430.302 56.8402 430.55 Q57.0255 430.797 57.0255 431.878 L57.0255 449.544 Q63.4786 449.544 66.5045 447.629 Q70.7345 444.973 70.7345 440.494 Q70.7345 439.877 70.611 439.136 Q70.4875 438.394 69.9626 436.881 Q69.4068 435.368 67.9556 434.04 Q66.5045 432.711 64.2196 431.939 Q63.3242 431.754 63.3551 431.136 Q63.3551 430.302 64.0961 430.302 Q64.6519 430.302 65.9178 430.92 Q67.1529 431.507 68.6349 432.65 Q70.117 433.792 71.2285 436.016 Q72.3401 438.209 72.3401 440.865 Q72.3401 446.424 68.1409 450.625 Q63.9109 454.794 57.7047 454.794 M55.6978 449.482 L55.6978 434.472 Q54.3701 434.472 52.8881 434.719 Q51.406 434.935 49.3682 435.615 Q47.2995 436.263 46.0027 437.807 Q44.7059 439.352 44.7059 441.637 Q44.7059 442.656 45.1381 443.768 Q45.5704 444.849 46.6202 446.177 Q47.67 447.505 50.0474 448.432 Q52.4249 449.358 55.6978 449.482 Z" fill="#000000" fill-rule="evenodd" fill-opacity="1" /><path clip-path="url(#clip290)" d="M71.6299 426.38 L69.6847 426.38 Q69.6847 423.014 69.2833 422.241 Q68.8511 421.469 66.8132 421.469 L33.9301 421.469 Q31.5835 421.469 30.9968 422.303 Q30.4102 423.106 30.4102 426.38 L28.4341 426.38 L27.7548 417.3 L66.8132 417.3 Q68.8511 417.3 69.2833 416.497 Q69.6847 415.694 69.6847 412.358 L71.6299 412.358 Q71.6299 413.13 71.5682 414.736 Q71.5064 416.342 71.4755 417.516 Q71.4447 418.69 71.4447 419.369 Q71.4447 420.11 71.6299 426.38 Z" fill="#000000" fill-rule="evenodd" fill-opacity="1" /><path clip-path="url(#clip290)" d="M71.6299 408.868 L69.6847 408.868 Q69.6847 405.502 69.2833 404.73 Q68.8511 403.958 66.8132 403.958 L49.8004 403.958 Q47.4538 403.958 46.8981 404.761 Q46.3423 405.533 46.3423 408.621 L44.3662 408.621 L43.6869 399.788 L66.875 399.788 Q68.7584 399.788 69.2216 399.109 Q69.6847 398.429 69.6847 395.341 L71.6299 395.341 Q71.4447 401.796 71.4447 401.919 Q71.4447 402.784 71.6299 408.868 M32.6641 406.212 Q31.3982 406.212 30.3793 405.255 Q29.3295 404.266 29.3295 402.877 Q29.3295 401.487 30.2867 400.499 Q31.213 399.51 32.695 399.51 Q34.1462 399.51 35.1034 400.499 Q36.0296 401.487 36.0296 402.877 Q36.0296 404.328 35.0107 405.286 Q33.9918 406.212 32.6641 406.212 Z" fill="#000000" fill-rule="evenodd" fill-opacity="1" /><path clip-path="url(#clip290)" d="M46.3423 392.252 L44.9529 392.252 Q44.8294 389.349 42.7915 387.434 Q40.7228 385.488 38.191 384.84 Q35.6591 384.16 32.7259 384.099 L32.7259 382.524 L44.3662 382.524 L44.3662 373.474 L46.3423 373.474 L46.3423 382.524 L63.9109 382.524 Q70.7345 382.524 70.7345 378.261 Q70.7345 376.439 68.8819 375.235 Q66.9985 374.03 63.6638 374.03 L60.1748 374.03 L60.1748 372.455 L63.7874 372.455 Q67.2146 372.455 69.7773 374.03 Q72.3401 375.605 72.3401 378.725 Q72.3401 379.867 72.0313 381.01 Q71.7534 382.122 71.0124 383.604 Q70.2405 385.056 68.3879 385.983 Q66.5045 386.878 63.7874 386.878 L46.3423 386.878 L46.3423 392.252 Z" fill="#000000" fill-rule="evenodd" fill-opacity="1" /><path clip-path="url(#clip290)" d="M79.4725 369.49 Q78.1448 369.49 77.4346 368.718 Q76.7554 367.915 76.7554 366.834 Q76.7554 365.691 77.4655 364.95 Q78.2065 364.178 79.4107 364.178 Q81.7573 364.178 82.0661 366.649 Q83.2085 365.444 83.2085 363.684 Q83.2085 361.8 81.8191 360.286 Q80.4296 358.742 79.102 358.094 Q77.7743 357.414 75.3659 356.457 Q73.4825 355.561 71.6299 354.882 L48.5345 364.363 Q47.0216 364.981 46.6819 365.938 Q46.3423 366.896 46.3423 369.49 L44.3662 369.49 Q44.5515 366.649 44.5515 363.344 Q44.5515 361.398 44.3662 356.457 L46.3423 356.457 Q46.3423 360.008 47.9787 360.008 Q48.164 360.008 49.1212 359.638 L66.1339 352.596 L50.5723 346.203 Q49.6769 345.832 49.0594 345.832 Q46.4658 345.832 46.3423 348.797 L44.3662 348.797 Q44.5515 344.628 44.5515 343.3 Q44.5515 340.705 44.3662 338.574 L46.3423 338.574 Q46.3423 342.806 50.3871 344.442 L77.3729 355.592 Q84.567 358.619 84.5979 363.684 Q84.5979 366.093 83.1159 367.791 Q81.6338 369.49 79.4725 369.49 Z" fill="#000000" fill-rule="evenodd" fill-opacity="1" /><circle clip-path="url(#clip292)" cx="1619.38" cy="861.572" r="14.4027" fill="#b30000" fill-rule="evenodd" fill-opacity="1" stroke="#000000" stroke-opacity="1" stroke-width="2.108"/>
<path clip-path="url(#clip292)" d="M1165.85 843.373 L1149.85 875.379 L1181.85 875.379 L1165.85 843.373 Z" fill="#e34a33" fill-rule="evenodd" fill-opacity="1" stroke="#000000" stroke-opacity="1" stroke-width="2.108"/>
<path clip-path="url(#clip292)" d="M868.271 794.137 L852.268 810.14 L868.271 826.143 L884.274 810.14 L868.271 794.137 Z" fill="#fc8d59" fill-rule="evenodd" fill-opacity="1" stroke="#000000" stroke-opacity="1" stroke-width="2.108"/>
<path clip-path="url(#clip292)" d="M298.724 411.907 L284.865 403.906 L284.865 387.903 L298.724 379.901 L312.582 387.903 L312.582 403.906 Z" fill="#fdbb84" fill-rule="evenodd" fill-opacity="1" stroke="#000000" stroke-opacity="1" stroke-width="2.108"/>
<path clip-path="url(#clip292)" d="M273.491 215.118 L269.73 225.936 L258.272 226.176 L267.41 233.105 L264.081 244.067 L273.491 237.522 L282.901 244.067 L279.572 233.105 L288.71 226.176 L277.252 225.936 L273.491 215.118 Z" fill="#fdd49e" fill-rule="evenodd" fill-opacity="1" stroke="#000000" stroke-opacity="1" stroke-width="2.108"/>
<circle clip-path="url(#clip292)" cx="1077.01" cy="851.555" r="14.4027" fill="#000000" fill-rule="evenodd" fill-opacity="1" stroke="none"/>
</svg>
