<?xml version="1.0" encoding="utf-8"?>
<svg xmlns="http://www.w3.org/2000/svg" xmlns:xlink="http://www.w3.org/1999/xlink" width="426.75" height="263.5" viewBox="0 0 1707 1054">
<defs>
  <clipPath id="clip570">
    <rect x="0" y="0" width="1707" height="1054"/>
  </clipPath>
</defs>
<path clip-path="url(#clip570)" d="M0 1054 L1707 1054 L1707 0 L0 0  Z" fill="#ffffff" fill-rule="evenodd" fill-opacity="1"/>
<defs>
  <clipPath id="clip571">
    <rect x="341" y="0" width="1196" height="1054"/>
  </clipPath>
</defs>
<path clip-path="url(#clip570)" d="M204.02 888.691 L1659.76 888.691 L1659.76 47.2528 L204.02 47.2528  Z" fill="#ffffff" fill-rule="evenodd" fill-opacity="1"/>
<defs>
  <clipPath id="clip572">
    <rect x="204" y="47" width="1457" height="842"/>
  </clipPath>
</defs>
<polyline clip-path="url(#clip572)" style="stroke:#000000; stroke-linecap:round; stroke-linejoin:round; stroke-width:2.00037; stroke-opacity:0.1; fill:none" points="245.22,888.691 245.22,47.2528 "/>
<polyline clip-path="url(#clip572)" style="stroke:#000000; stroke-linecap:round; stroke-linejoin:round; stroke-width:2.00037; stroke-opacity:0.1; fill:none" points="588.555,888.691 588.555,47.2528 "/>
<polyline clip-path="url(#clip572)" style="stroke:#000000; stroke-linecap:round; stroke-linejoin:round; stroke-width:2.00037; stroke-opacity:0.1; fill:none" points="931.89,888.691 931.89,47.2528 "/>
<polyline clip-path="url(#clip572)" style="stroke:#000000; stroke-linecap:round; stroke-linejoin:round; stroke-width:2.00037; stroke-opacity:0.1; fill:none" points="1275.23,888.691 1275.23,47.2528 "/>
<polyline clip-path="url(#clip572)" style="stroke:#000000; stroke-linecap:round; stroke-linejoin:round; stroke-width:2.00037; stroke-opacity:0.1; fill:none" points="1618.56,888.691 1618.56,47.2528 "/>
<polyline clip-path="url(#clip570)" style="stroke:#000000; stroke-linecap:round; stroke-linejoin:round; stroke-width:4.00074; stroke-opacity:1; fill:none" points="204.02,888.691 1659.76,888.691 "/>
<polyline clip-path="url(#clip570)" style="stroke:#000000; stroke-linecap:round; stroke-linejoin:round; stroke-width:4.00074; stroke-opacity:1; fill:none" points="204.02,47.2528 1659.76,47.2528 "/>
<polyline clip-path="url(#clip570)" style="stroke:#000000; stroke-linecap:round; stroke-linejoin:round; stroke-width:4.00074; stroke-opacity:1; fill:none" points="245.22,888.691 245.22,869.79 "/>
<polyline clip-path="url(#clip570)" style="stroke:#000000; stroke-linecap:round; stroke-linejoin:round; stroke-width:4.00074; stroke-opacity:1; fill:none" points="588.555,888.691 588.555,869.79 "/>
<polyline clip-path="url(#clip570)" style="stroke:#000000; stroke-linecap:round; stroke-linejoin:round; stroke-width:4.00074; stroke-opacity:1; fill:none" points="931.89,888.691 931.89,869.79 "/>
<polyline clip-path="url(#clip570)" style="stroke:#000000; stroke-linecap:round; stroke-linejoin:round; stroke-width:4.00074; stroke-opacity:1; fill:none" points="1275.23,888.691 1275.23,869.79 "/>
<polyline clip-path="url(#clip570)" style="stroke:#000000; stroke-linecap:round; stroke-linejoin:round; stroke-width:4.00074; stroke-opacity:1; fill:none" points="1618.56,888.691 1618.56,869.79 "/>
<path clip-path="url(#clip570)" d="M211.109 932.753 Q211.109 924.387 213.221 919.828 Q216.167 913.046 223.114 913.046 Q224.587 913.046 226.115 913.463 Q227.671 913.852 229.617 915.381 Q231.59 916.91 232.784 919.411 Q235.063 924.248 235.063 932.753 Q235.063 941.065 232.951 945.595 Q229.867 952.211 223.058 952.211 Q220.502 952.211 217.89 950.905 Q215.305 949.598 213.666 946.457 Q211.109 941.76 211.109 932.753 M215.833 932.059 Q215.833 940.648 216.445 944.067 Q217.139 947.764 219.029 949.376 Q220.947 950.96 223.058 950.96 Q225.337 950.96 227.227 949.265 Q229.144 947.541 229.728 943.844 Q230.367 940.203 230.339 932.059 Q230.339 924.137 229.783 920.968 Q229.033 917.271 227.032 915.798 Q225.059 914.297 223.058 914.297 Q222.308 914.297 221.502 914.519 Q220.724 914.741 219.585 915.381 Q218.446 916.02 217.556 917.604 Q216.695 919.189 216.278 921.579 Q215.833 924.665 215.833 932.059 Z" fill="#000000" fill-rule="evenodd" fill-opacity="1" /><path clip-path="url(#clip570)" d="M243.038 950.043 Q242.177 949.126 242.177 947.93 Q242.177 946.735 243.038 945.873 Q243.9 944.984 245.206 944.984 Q246.456 944.984 247.29 945.818 Q248.152 946.624 248.152 947.958 Q248.152 949.265 247.235 950.126 Q246.345 950.96 245.206 950.96 Q243.9 950.96 243.038 950.043 Z" fill="#000000" fill-rule="evenodd" fill-opacity="1" /><path clip-path="url(#clip570)" d="M255.377 932.753 Q255.377 924.387 257.489 919.828 Q260.434 913.046 267.381 913.046 Q268.854 913.046 270.382 913.463 Q271.939 913.852 273.884 915.381 Q275.857 916.91 277.052 919.411 Q279.33 924.248 279.33 932.753 Q279.33 941.065 277.218 945.595 Q274.134 952.211 267.326 952.211 Q264.769 952.211 262.157 950.905 Q259.573 949.598 257.933 946.457 Q255.377 941.76 255.377 932.753 M260.101 932.059 Q260.101 940.648 260.712 944.067 Q261.407 947.764 263.296 949.376 Q265.214 950.96 267.326 950.96 Q269.604 950.96 271.494 949.265 Q273.411 947.541 273.995 943.844 Q274.634 940.203 274.606 932.059 Q274.606 924.137 274.051 920.968 Q273.3 917.271 271.299 915.798 Q269.326 914.297 267.326 914.297 Q266.575 914.297 265.77 914.519 Q264.991 914.741 263.852 915.381 Q262.713 916.02 261.824 917.604 Q260.962 919.189 260.545 921.579 Q260.101 924.665 260.101 932.059 Z" fill="#000000" fill-rule="evenodd" fill-opacity="1" /><path clip-path="url(#clip570)" d="M554.75 932.753 Q554.75 924.387 556.862 919.828 Q559.808 913.046 566.755 913.046 Q568.228 913.046 569.756 913.463 Q571.312 913.852 573.257 915.381 Q575.23 916.91 576.425 919.411 Q578.704 924.248 578.704 932.753 Q578.704 941.065 576.592 945.595 Q573.507 952.211 566.699 952.211 Q564.143 952.211 561.531 950.905 Q558.946 949.598 557.307 946.457 Q554.75 941.76 554.75 932.753 M559.474 932.059 Q559.474 940.648 560.086 944.067 Q560.78 947.764 562.67 949.376 Q564.587 950.96 566.699 950.96 Q568.978 950.96 570.868 949.265 Q572.785 947.541 573.368 943.844 Q574.008 940.203 573.98 932.059 Q573.98 924.137 573.424 920.968 Q572.674 917.271 570.673 915.798 Q568.7 914.297 566.699 914.297 Q565.949 914.297 565.143 914.519 Q564.365 914.741 563.226 915.381 Q562.086 916.02 561.197 917.604 Q560.336 919.189 559.919 921.579 Q559.474 924.665 559.474 932.059 Z" fill="#000000" fill-rule="evenodd" fill-opacity="1" /><path clip-path="url(#clip570)" d="M586.679 950.043 Q585.818 949.126 585.818 947.93 Q585.818 946.735 586.679 945.873 Q587.541 944.984 588.847 944.984 Q590.097 944.984 590.931 945.818 Q591.792 946.624 591.792 947.958 Q591.792 949.265 590.875 950.126 Q589.986 950.96 588.847 950.96 Q587.541 950.96 586.679 950.043 Z" fill="#000000" fill-rule="evenodd" fill-opacity="1" /><path clip-path="url(#clip570)" d="M599.629 941.787 Q599.629 940.092 600.546 939.452 Q601.463 938.785 602.435 938.785 Q603.741 938.785 604.492 939.619 Q605.27 940.425 605.27 941.565 Q605.27 942.705 604.492 943.538 Q603.741 944.345 602.435 944.345 Q601.796 944.345 601.463 944.233 Q602.213 946.846 604.492 948.736 Q606.798 950.627 609.827 950.627 Q613.634 950.627 615.913 946.93 Q617.274 944.539 617.274 939.119 Q617.274 934.338 616.246 931.947 Q614.662 928.306 611.411 928.306 Q606.798 928.306 604.075 932.281 Q603.741 932.781 603.352 932.809 Q602.797 932.809 602.658 932.503 Q602.547 932.17 602.547 931.308 L602.547 914.463 Q602.547 913.101 603.102 913.101 Q603.325 913.101 603.797 913.268 Q607.382 914.853 611.355 914.88 Q615.44 914.88 619.109 913.213 Q619.386 913.046 619.553 913.046 Q620.109 913.046 620.137 913.685 Q620.137 913.908 619.664 914.575 Q619.22 915.214 618.247 916.076 Q617.274 916.91 616.024 917.716 Q614.773 918.522 612.939 919.078 Q611.133 919.606 609.132 919.606 Q606.743 919.606 604.297 918.855 L604.297 929.946 Q607.243 927.055 611.522 927.055 Q616.08 927.055 619.22 930.724 Q622.36 934.393 622.36 939.508 Q622.36 944.873 618.636 948.542 Q614.94 952.211 609.938 952.211 Q605.381 952.211 602.491 948.959 Q599.629 945.707 599.629 941.787 Z" fill="#000000" fill-rule="evenodd" fill-opacity="1" /><path clip-path="url(#clip570)" d="M899.197 918.466 L899.197 916.687 Q906.033 916.687 909.562 913.046 Q910.535 913.046 910.701 913.268 Q910.868 913.491 910.868 914.519 L910.868 946.457 Q910.868 948.153 911.702 948.681 Q912.535 949.209 916.176 949.209 L917.982 949.209 L917.982 950.96 Q915.981 950.793 908.756 950.793 Q901.531 950.793 899.558 950.96 L899.558 949.209 L901.364 949.209 Q904.949 949.209 905.81 948.709 Q906.672 948.18 906.672 946.457 L906.672 916.965 Q903.699 918.466 899.197 918.466 Z" fill="#000000" fill-rule="evenodd" fill-opacity="1" /><path clip-path="url(#clip570)" d="M928.291 950.043 Q927.43 949.126 927.43 947.93 Q927.43 946.735 928.291 945.873 Q929.153 944.984 930.459 944.984 Q931.709 944.984 932.543 945.818 Q933.405 946.624 933.405 947.958 Q933.405 949.265 932.488 950.126 Q931.598 950.96 930.459 950.96 Q929.153 950.96 928.291 950.043 Z" fill="#000000" fill-rule="evenodd" fill-opacity="1" /><path clip-path="url(#clip570)" d="M940.63 932.753 Q940.63 924.387 942.742 919.828 Q945.687 913.046 952.634 913.046 Q954.107 913.046 955.635 913.463 Q957.192 913.852 959.137 915.381 Q961.11 916.91 962.305 919.411 Q964.583 924.248 964.583 932.753 Q964.583 941.065 962.471 945.595 Q959.387 952.211 952.579 952.211 Q950.022 952.211 947.41 950.905 Q944.826 949.598 943.186 946.457 Q940.63 941.76 940.63 932.753 M945.354 932.059 Q945.354 940.648 945.965 944.067 Q946.66 947.764 948.549 949.376 Q950.467 950.96 952.579 950.96 Q954.857 950.96 956.747 949.265 Q958.664 947.541 959.248 943.844 Q959.887 940.203 959.859 932.059 Q959.859 924.137 959.303 920.968 Q958.553 917.271 956.552 915.798 Q954.579 914.297 952.579 914.297 Q951.828 914.297 951.023 914.519 Q950.244 914.741 949.105 915.381 Q947.966 916.02 947.077 917.604 Q946.215 919.189 945.798 921.579 Q945.354 924.665 945.354 932.059 Z" fill="#000000" fill-rule="evenodd" fill-opacity="1" /><path clip-path="url(#clip570)" d="M1242.84 918.466 L1242.84 916.687 Q1249.67 916.687 1253.2 913.046 Q1254.18 913.046 1254.34 913.268 Q1254.51 913.491 1254.51 914.519 L1254.51 946.457 Q1254.51 948.153 1255.34 948.681 Q1256.18 949.209 1259.82 949.209 L1261.62 949.209 L1261.62 950.96 Q1259.62 950.793 1252.4 950.793 Q1245.17 950.793 1243.2 950.96 L1243.2 949.209 L1245.01 949.209 Q1248.59 949.209 1249.45 948.709 Q1250.31 948.18 1250.31 946.457 L1250.31 916.965 Q1247.34 918.466 1242.84 918.466 Z" fill="#000000" fill-rule="evenodd" fill-opacity="1" /><path clip-path="url(#clip570)" d="M1271.93 950.043 Q1271.07 949.126 1271.07 947.93 Q1271.07 946.735 1271.93 945.873 Q1272.79 944.984 1274.1 944.984 Q1275.35 944.984 1276.18 945.818 Q1277.05 946.624 1277.05 947.958 Q1277.05 949.265 1276.13 950.126 Q1275.24 950.96 1274.1 950.96 Q1272.79 950.96 1271.93 950.043 Z" fill="#000000" fill-rule="evenodd" fill-opacity="1" /><path clip-path="url(#clip570)" d="M1284.88 941.787 Q1284.88 940.092 1285.8 939.452 Q1286.72 938.785 1287.69 938.785 Q1288.99 938.785 1289.74 939.619 Q1290.52 940.425 1290.52 941.565 Q1290.52 942.705 1289.74 943.538 Q1288.99 944.345 1287.69 944.345 Q1287.05 944.345 1286.72 944.233 Q1287.47 946.846 1289.74 948.736 Q1292.05 950.627 1295.08 950.627 Q1298.89 950.627 1301.17 946.93 Q1302.53 944.539 1302.53 939.119 Q1302.53 934.338 1301.5 931.947 Q1299.92 928.306 1296.66 928.306 Q1292.05 928.306 1289.33 932.281 Q1288.99 932.781 1288.61 932.809 Q1288.05 932.809 1287.91 932.503 Q1287.8 932.17 1287.8 931.308 L1287.8 914.463 Q1287.8 913.101 1288.36 913.101 Q1288.58 913.101 1289.05 913.268 Q1292.63 914.853 1296.61 914.88 Q1300.69 914.88 1304.36 913.213 Q1304.64 913.046 1304.81 913.046 Q1305.36 913.046 1305.39 913.685 Q1305.39 913.908 1304.92 914.575 Q1304.47 915.214 1303.5 916.076 Q1302.53 916.91 1301.28 917.716 Q1300.03 918.522 1298.19 919.078 Q1296.39 919.606 1294.39 919.606 Q1292 919.606 1289.55 918.855 L1289.55 929.946 Q1292.5 927.055 1296.78 927.055 Q1301.33 927.055 1304.47 930.724 Q1307.61 934.393 1307.61 939.508 Q1307.61 944.873 1303.89 948.542 Q1300.19 952.211 1295.19 952.211 Q1290.63 952.211 1287.74 948.959 Q1284.88 945.707 1284.88 941.787 Z" fill="#000000" fill-rule="evenodd" fill-opacity="1" /><path clip-path="url(#clip570)" d="M1584.76 950.96 Q1584.76 949.932 1584.84 949.626 Q1584.95 949.32 1585.39 948.848 L1596.32 936.673 Q1602.29 929.946 1602.29 924.081 Q1602.29 920.273 1600.29 917.549 Q1598.32 914.825 1594.68 914.825 Q1592.18 914.825 1590.06 916.354 Q1587.95 917.882 1586.98 920.606 Q1587.15 920.551 1587.73 920.551 Q1589.15 920.551 1589.92 921.44 Q1590.73 922.33 1590.73 923.525 Q1590.73 925.054 1589.73 925.804 Q1588.76 926.527 1587.78 926.527 Q1587.4 926.527 1586.87 926.444 Q1586.37 926.36 1585.56 925.582 Q1584.76 924.776 1584.76 923.358 Q1584.76 919.383 1587.76 916.215 Q1590.79 913.046 1595.4 913.046 Q1600.62 913.046 1604.04 916.159 Q1607.49 919.244 1607.49 924.081 Q1607.49 925.777 1606.96 927.333 Q1606.46 928.862 1605.76 930.057 Q1605.1 931.252 1603.26 933.17 Q1601.43 935.088 1599.96 936.45 Q1598.48 937.812 1595.18 940.703 L1589.15 946.568 L1599.4 946.568 Q1604.4 946.568 1604.79 946.124 Q1605.35 945.317 1606.04 941.065 L1607.49 941.065 L1605.87 950.96 L1584.76 950.96 Z" fill="#000000" fill-rule="evenodd" fill-opacity="1" /><path clip-path="url(#clip570)" d="M1616.07 950.043 Q1615.21 949.126 1615.21 947.93 Q1615.21 946.735 1616.07 945.873 Q1616.93 944.984 1618.24 944.984 Q1619.49 944.984 1620.32 945.818 Q1621.19 946.624 1621.19 947.958 Q1621.19 949.265 1620.27 950.126 Q1619.38 950.96 1618.24 950.96 Q1616.93 950.96 1616.07 950.043 Z" fill="#000000" fill-rule="evenodd" fill-opacity="1" /><path clip-path="url(#clip570)" d="M1628.41 932.753 Q1628.41 924.387 1630.52 919.828 Q1633.47 913.046 1640.42 913.046 Q1641.89 913.046 1643.42 913.463 Q1644.97 913.852 1646.92 915.381 Q1648.89 916.91 1650.09 919.411 Q1652.37 924.248 1652.37 932.753 Q1652.37 941.065 1650.25 945.595 Q1647.17 952.211 1640.36 952.211 Q1637.8 952.211 1635.19 950.905 Q1632.61 949.598 1630.97 946.457 Q1628.41 941.76 1628.41 932.753 M1633.14 932.059 Q1633.14 940.648 1633.75 944.067 Q1634.44 947.764 1636.33 949.376 Q1638.25 950.96 1640.36 950.96 Q1642.64 950.96 1644.53 949.265 Q1646.45 947.541 1647.03 943.844 Q1647.67 940.203 1647.64 932.059 Q1647.64 924.137 1647.09 920.968 Q1646.33 917.271 1644.33 915.798 Q1642.36 914.297 1640.36 914.297 Q1639.61 914.297 1638.8 914.519 Q1638.03 914.741 1636.89 915.381 Q1635.75 916.02 1634.86 917.604 Q1634 919.189 1633.58 921.579 Q1633.14 924.665 1633.14 932.059 Z" fill="#000000" fill-rule="evenodd" fill-opacity="1" /><path clip-path="url(#clip570)" d="M862.017 995.884 L863.221 981.677 L901.848 981.677 L903.052 995.884 L901.477 995.884 Q901.23 993.043 900.983 991.406 Q900.767 989.769 900.211 988.225 Q899.686 986.65 899.007 985.909 Q898.358 985.136 897.093 984.55 Q895.827 983.932 894.19 983.778 Q892.554 983.623 890.084 983.623 Q887.181 983.623 886.471 983.747 Q885.699 983.932 885.514 984.488 Q885.329 985.013 885.329 986.156 L885.329 1019.48 Q885.329 1020.75 885.576 1021.27 Q885.854 1021.77 887.305 1022.17 Q888.756 1022.54 891.967 1022.54 L894.499 1022.54 L894.499 1024.48 Q891.905 1024.3 882.488 1024.3 Q873.133 1024.3 870.539 1024.48 L870.539 1022.54 L873.071 1022.54 Q876.282 1022.54 877.733 1022.17 Q879.215 1021.77 879.462 1021.27 Q879.709 1020.75 879.709 1019.48 L879.709 986.156 Q879.709 985.26 879.648 984.889 Q879.586 984.519 879.308 984.21 Q879.03 983.87 878.382 983.747 Q877.764 983.623 874.985 983.623 Q872.515 983.623 870.848 983.778 Q869.211 983.932 867.945 984.55 Q866.68 985.136 866 985.909 Q865.352 986.65 864.796 988.225 Q864.271 989.769 864.055 991.406 Q863.839 993.043 863.592 995.884 L862.017 995.884 Z" fill="#000000" fill-rule="evenodd" fill-opacity="1" /><path clip-path="url(#clip570)" d="M907.467 1024.48 L907.467 1022.54 Q910.832 1022.54 911.604 1022.14 Q912.376 1021.7 912.376 1019.67 L912.376 1002.65 Q912.376 1000.3 911.574 999.745 Q910.802 999.189 907.714 999.189 L907.714 997.212 L916.545 996.533 L916.545 1019.73 Q916.545 1021.61 917.224 1022.07 Q917.903 1022.54 920.991 1022.54 L920.991 1024.48 Q914.538 1024.3 914.414 1024.3 Q913.55 1024.3 907.467 1024.48 M910.122 985.507 Q910.122 984.241 911.079 983.222 Q912.068 982.172 913.457 982.172 Q914.846 982.172 915.834 983.129 Q916.822 984.056 916.822 985.538 Q916.822 986.99 915.834 987.947 Q914.846 988.874 913.457 988.874 Q912.006 988.874 911.049 987.854 Q910.122 986.835 910.122 985.507 Z" fill="#000000" fill-rule="evenodd" fill-opacity="1" /><path clip-path="url(#clip570)" d="M924.912 1024.48 L924.912 1022.54 Q928.278 1022.54 929.049 1022.14 Q929.821 1021.7 929.821 1019.67 L929.821 1002.71 Q929.821 1000.36 928.988 999.776 Q928.185 999.189 924.912 999.189 L924.912 997.212 L933.804 996.533 L933.804 1003.17 Q936.768 996.533 943.16 996.533 Q950.57 996.533 951.589 1002.71 Q952.67 1000.3 954.924 998.417 Q957.209 996.533 960.759 996.533 Q965.514 996.533 967.398 998.88 Q968.787 1000.46 969.065 1002.22 Q969.343 1003.98 969.343 1008.55 L969.343 1020.62 Q969.405 1021.95 970.424 1022.26 Q971.442 1022.54 974.283 1022.54 L974.283 1024.48 Q967.83 1024.3 967.212 1024.3 Q966.718 1024.3 960.049 1024.48 L960.049 1022.54 Q963.415 1022.54 964.187 1022.14 Q964.989 1021.7 964.989 1019.67 L964.989 1004.93 Q964.989 1001.72 964.001 999.838 Q963.013 997.923 960.296 997.923 Q957.023 997.923 954.399 1000.67 Q951.774 1003.42 951.774 1008.05 L951.774 1019.67 Q951.774 1021.7 952.546 1022.14 Q953.349 1022.54 956.715 1022.54 L956.715 1024.48 Q950.261 1024.3 949.613 1024.3 Q949.119 1024.3 942.481 1024.48 L942.481 1022.54 Q945.846 1022.54 946.618 1022.14 Q947.421 1021.7 947.421 1019.67 L947.421 1004.93 Q947.421 1001.72 946.433 999.838 Q945.445 997.923 942.728 997.923 Q939.455 997.923 936.83 1000.67 Q934.206 1003.42 934.206 1008.05 L934.206 1019.67 Q934.206 1021.7 934.978 1022.14 Q935.78 1022.54 939.115 1022.54 L939.115 1024.48 Q932.662 1024.3 932.044 1024.3 Q931.55 1024.3 924.912 1024.48 Z" fill="#000000" fill-rule="evenodd" fill-opacity="1" /><path clip-path="url(#clip570)" d="M977.278 1010.55 Q977.278 1004.59 981.107 1000.36 Q984.935 996.131 990.431 996.131 Q995.989 996.131 998.861 999.745 Q1001.76 1003.36 1001.76 1008.55 Q1001.76 1009.5 1001.52 1009.69 Q1001.27 1009.88 1000.19 1009.88 L982.527 1009.88 Q982.527 1016.33 984.441 1019.36 Q987.097 1023.59 991.574 1023.59 Q992.191 1023.59 992.932 1023.46 Q993.673 1023.34 995.186 1022.82 Q996.699 1022.26 998.027 1020.81 Q999.355 1019.36 1000.13 1017.07 Q1000.31 1016.18 1000.93 1016.21 Q1001.76 1016.21 1001.76 1016.95 Q1001.76 1017.5 1001.15 1018.77 Q1000.56 1020.01 999.416 1021.49 Q998.274 1022.97 996.051 1024.08 Q993.859 1025.19 991.203 1025.19 Q985.646 1025.19 981.446 1020.99 Q977.278 1016.76 977.278 1010.55 M982.589 1008.55 L997.595 1008.55 Q997.595 1007.22 997.348 1005.74 Q997.131 1004.25 996.452 1002.22 Q995.804 1000.15 994.26 998.849 Q992.716 997.552 990.431 997.552 Q989.412 997.552 988.301 997.985 Q987.22 998.417 985.893 999.467 Q984.565 1000.52 983.639 1002.9 Q982.712 1005.27 982.589 1008.55 Z" fill="#000000" fill-rule="evenodd" fill-opacity="1" /><polyline clip-path="url(#clip572)" style="stroke:#000000; stroke-linecap:round; stroke-linejoin:round; stroke-width:2.00037; stroke-opacity:0.1; fill:none" points="204.02,864.877 1659.76,864.877 "/>
<polyline clip-path="url(#clip572)" style="stroke:#000000; stroke-linecap:round; stroke-linejoin:round; stroke-width:2.00037; stroke-opacity:0.1; fill:none" points="204.02,659.429 1659.76,659.429 "/>
<polyline clip-path="url(#clip572)" style="stroke:#000000; stroke-linecap:round; stroke-linejoin:round; stroke-width:2.00037; stroke-opacity:0.1; fill:none" points="204.02,453.981 1659.76,453.981 "/>
<polyline clip-path="url(#clip572)" style="stroke:#000000; stroke-linecap:round; stroke-linejoin:round; stroke-width:2.00037; stroke-opacity:0.1; fill:none" points="204.02,248.533 1659.76,248.533 "/>
<polyline clip-path="url(#clip570)" style="stroke:#000000; stroke-linecap:round; stroke-linejoin:round; stroke-width:4.00074; stroke-opacity:1; fill:none" points="204.02,888.691 204.02,47.2528 "/>
<polyline clip-path="url(#clip570)" style="stroke:#000000; stroke-linecap:round; stroke-linejoin:round; stroke-width:4.00074; stroke-opacity:1; fill:none" points="1659.76,888.691 1659.76,47.2528 "/>
<polyline clip-path="url(#clip570)" style="stroke:#000000; stroke-linecap:round; stroke-linejoin:round; stroke-width:4.00074; stroke-opacity:1; fill:none" points="204.02,864.877 222.915,864.877 "/>
<polyline clip-path="url(#clip570)" style="stroke:#000000; stroke-linecap:round; stroke-linejoin:round; stroke-width:4.00074; stroke-opacity:1; fill:none" points="204.02,659.429 222.915,659.429 "/>
<polyline clip-path="url(#clip570)" style="stroke:#000000; stroke-linecap:round; stroke-linejoin:round; stroke-width:4.00074; stroke-opacity:1; fill:none" points="204.02,453.981 222.915,453.981 "/>
<polyline clip-path="url(#clip570)" style="stroke:#000000; stroke-linecap:round; stroke-linejoin:round; stroke-width:4.00074; stroke-opacity:1; fill:none" points="204.02,248.533 222.915,248.533 "/>
<path clip-path="url(#clip570)" d="M110.194 866.114 Q110.194 857.747 112.306 853.189 Q115.251 846.406 122.198 846.406 Q123.671 846.406 125.199 846.823 Q126.756 847.212 128.701 848.741 Q130.674 850.27 131.869 852.772 Q134.147 857.608 134.147 866.114 Q134.147 874.425 132.035 878.956 Q128.951 885.571 122.143 885.571 Q119.586 885.571 116.974 884.265 Q114.39 882.959 112.75 879.818 Q110.194 875.12 110.194 866.114 M114.918 865.419 Q114.918 874.008 115.529 877.427 Q116.224 881.124 118.113 882.736 Q120.031 884.321 122.143 884.321 Q124.421 884.321 126.311 882.625 Q128.228 880.902 128.812 877.205 Q129.451 873.563 129.423 865.419 Q129.423 857.497 128.868 854.328 Q128.117 850.631 126.117 849.158 Q124.144 847.657 122.143 847.657 Q121.392 847.657 120.587 847.88 Q119.809 848.102 118.669 848.741 Q117.53 849.381 116.641 850.965 Q115.779 852.549 115.362 854.94 Q114.918 858.025 114.918 865.419 Z" fill="#000000" fill-rule="evenodd" fill-opacity="1" /><path clip-path="url(#clip570)" d="M142.123 883.403 Q141.261 882.486 141.261 881.291 Q141.261 880.096 142.123 879.234 Q142.984 878.344 144.29 878.344 Q145.541 878.344 146.374 879.178 Q147.236 879.984 147.236 881.319 Q147.236 882.625 146.319 883.487 Q145.43 884.321 144.29 884.321 Q142.984 884.321 142.123 883.403 Z" fill="#000000" fill-rule="evenodd" fill-opacity="1" /><path clip-path="url(#clip570)" d="M154.461 866.114 Q154.461 857.747 156.573 853.189 Q159.518 846.406 166.466 846.406 Q167.938 846.406 169.467 846.823 Q171.023 847.212 172.968 848.741 Q174.941 850.27 176.136 852.772 Q178.415 857.608 178.415 866.114 Q178.415 874.425 176.303 878.956 Q173.218 885.571 166.41 885.571 Q163.853 885.571 161.241 884.265 Q158.657 882.959 157.017 879.818 Q154.461 875.12 154.461 866.114 M159.185 865.419 Q159.185 874.008 159.796 877.427 Q160.491 881.124 162.381 882.736 Q164.298 884.321 166.41 884.321 Q168.689 884.321 170.578 882.625 Q172.496 880.902 173.079 877.205 Q173.718 873.563 173.691 865.419 Q173.691 857.497 173.135 854.328 Q172.385 850.631 170.384 849.158 Q168.411 847.657 166.41 847.657 Q165.66 847.657 164.854 847.88 Q164.076 848.102 162.936 848.741 Q161.797 849.381 160.908 850.965 Q160.046 852.549 159.63 854.94 Q159.185 858.025 159.185 865.419 Z" fill="#000000" fill-rule="evenodd" fill-opacity="1" /><path clip-path="url(#clip570)" d="M112.528 660.666 Q112.528 652.299 114.64 647.741 Q117.585 640.958 124.533 640.958 Q126.005 640.958 127.534 641.375 Q129.09 641.764 131.035 643.293 Q133.008 644.822 134.203 647.324 Q136.482 652.16 136.482 660.666 Q136.482 668.977 134.37 673.508 Q131.285 680.123 124.477 680.123 Q121.92 680.123 119.308 678.817 Q116.724 677.511 115.084 674.37 Q112.528 669.672 112.528 660.666 M117.252 659.971 Q117.252 668.56 117.863 671.979 Q118.558 675.676 120.448 677.288 Q122.365 678.873 124.477 678.873 Q126.756 678.873 128.645 677.177 Q130.563 675.454 131.146 671.757 Q131.785 668.115 131.758 659.971 Q131.758 652.049 131.202 648.88 Q130.452 645.183 128.451 643.71 Q126.478 642.209 124.477 642.209 Q123.727 642.209 122.921 642.431 Q122.143 642.654 121.003 643.293 Q119.864 643.932 118.975 645.517 Q118.113 647.101 117.697 649.492 Q117.252 652.577 117.252 659.971 Z" fill="#000000" fill-rule="evenodd" fill-opacity="1" /><path clip-path="url(#clip570)" d="M144.457 677.955 Q143.596 677.038 143.596 675.843 Q143.596 674.648 144.457 673.786 Q145.318 672.896 146.624 672.896 Q147.875 672.896 148.709 673.73 Q149.57 674.536 149.57 675.871 Q149.57 677.177 148.653 678.039 Q147.764 678.873 146.624 678.873 Q145.318 678.873 144.457 677.955 Z" fill="#000000" fill-rule="evenodd" fill-opacity="1" /><path clip-path="url(#clip570)" d="M159.63 646.379 L159.63 644.6 Q166.466 644.6 169.995 640.958 Q170.967 640.958 171.134 641.181 Q171.301 641.403 171.301 642.431 L171.301 674.37 Q171.301 676.065 172.134 676.593 Q172.968 677.121 176.608 677.121 L178.415 677.121 L178.415 678.873 Q176.414 678.706 169.189 678.706 Q161.964 678.706 159.991 678.873 L159.991 677.121 L161.797 677.121 Q165.382 677.121 166.243 676.621 Q167.105 676.093 167.105 674.37 L167.105 644.878 Q164.131 646.379 159.63 646.379 Z" fill="#000000" fill-rule="evenodd" fill-opacity="1" /><path clip-path="url(#clip570)" d="M110.805 455.218 Q110.805 446.851 112.917 442.293 Q115.863 435.51 122.81 435.51 Q124.282 435.51 125.811 435.927 Q127.367 436.316 129.312 437.845 Q131.285 439.374 132.48 441.876 Q134.759 446.712 134.759 455.218 Q134.759 463.529 132.647 468.06 Q129.562 474.675 122.754 474.675 Q120.198 474.675 117.585 473.369 Q115.001 472.062 113.362 468.921 Q110.805 464.224 110.805 455.218 M115.529 454.523 Q115.529 463.112 116.14 466.531 Q116.835 470.228 118.725 471.84 Q120.642 473.424 122.754 473.424 Q125.033 473.424 126.922 471.729 Q128.84 470.006 129.423 466.309 Q130.062 462.667 130.035 454.523 Q130.035 446.601 129.479 443.432 Q128.729 439.735 126.728 438.262 Q124.755 436.761 122.754 436.761 Q122.004 436.761 121.198 436.983 Q120.42 437.206 119.281 437.845 Q118.141 438.484 117.252 440.069 Q116.391 441.653 115.974 444.044 Q115.529 447.129 115.529 454.523 Z" fill="#000000" fill-rule="evenodd" fill-opacity="1" /><path clip-path="url(#clip570)" d="M142.734 472.507 Q141.873 471.59 141.873 470.395 Q141.873 469.199 142.734 468.338 Q143.596 467.448 144.902 467.448 Q146.152 467.448 146.986 468.282 Q147.847 469.088 147.847 470.422 Q147.847 471.729 146.93 472.591 Q146.041 473.424 144.902 473.424 Q143.596 473.424 142.734 472.507 Z" fill="#000000" fill-rule="evenodd" fill-opacity="1" /><path clip-path="url(#clip570)" d="M155.684 473.424 Q155.684 472.396 155.767 472.09 Q155.878 471.785 156.323 471.312 L167.244 459.137 Q173.218 452.41 173.218 446.545 Q173.218 442.737 171.217 440.013 Q169.244 437.289 165.604 437.289 Q163.103 437.289 160.991 438.818 Q158.879 440.347 157.907 443.071 Q158.073 443.015 158.657 443.015 Q160.074 443.015 160.852 443.905 Q161.658 444.794 161.658 445.989 Q161.658 447.518 160.658 448.269 Q159.685 448.991 158.713 448.991 Q158.323 448.991 157.796 448.908 Q157.295 448.825 156.489 448.046 Q155.684 447.24 155.684 445.823 Q155.684 441.848 158.685 438.679 Q161.714 435.51 166.327 435.51 Q171.551 435.51 174.969 438.623 Q178.415 441.709 178.415 446.545 Q178.415 448.241 177.887 449.798 Q177.386 451.326 176.692 452.522 Q176.025 453.717 174.191 455.635 Q172.357 457.553 170.884 458.915 Q169.411 460.277 166.104 463.168 L160.074 469.033 L170.328 469.033 Q175.33 469.033 175.719 468.588 Q176.275 467.782 176.97 463.529 L178.415 463.529 L176.803 473.424 L155.684 473.424 Z" fill="#000000" fill-rule="evenodd" fill-opacity="1" /><path clip-path="url(#clip570)" d="M110.36 249.77 Q110.36 241.403 112.472 236.844 Q115.418 230.062 122.365 230.062 Q123.838 230.062 125.366 230.479 Q126.922 230.868 128.868 232.397 Q130.841 233.926 132.035 236.428 Q134.314 241.264 134.314 249.77 Q134.314 258.081 132.202 262.612 Q129.118 269.227 122.309 269.227 Q119.753 269.227 117.141 267.921 Q114.556 266.614 112.917 263.473 Q110.36 258.776 110.36 249.77 M115.084 249.075 Q115.084 257.664 115.696 261.083 Q116.391 264.78 118.28 266.392 Q120.198 267.976 122.309 267.976 Q124.588 267.976 126.478 266.281 Q128.395 264.557 128.979 260.861 Q129.618 257.219 129.59 249.075 Q129.59 241.153 129.034 237.984 Q128.284 234.287 126.283 232.814 Q124.31 231.313 122.309 231.313 Q121.559 231.313 120.753 231.535 Q119.975 231.758 118.836 232.397 Q117.697 233.036 116.807 234.621 Q115.946 236.205 115.529 238.596 Q115.084 241.681 115.084 249.075 Z" fill="#000000" fill-rule="evenodd" fill-opacity="1" /><path clip-path="url(#clip570)" d="M142.289 267.059 Q141.428 266.142 141.428 264.947 Q141.428 263.751 142.289 262.89 Q143.151 262 144.457 262 Q145.707 262 146.541 262.834 Q147.403 263.64 147.403 264.974 Q147.403 266.281 146.486 267.143 Q145.596 267.976 144.457 267.976 Q143.151 267.976 142.289 267.059 Z" fill="#000000" fill-rule="evenodd" fill-opacity="1" /><path clip-path="url(#clip570)" d="M154.794 260.305 Q154.794 258.609 155.767 257.803 Q156.74 256.997 157.99 256.997 Q159.296 256.997 160.213 257.859 Q161.158 258.692 161.158 260.166 Q161.158 261.75 160.046 262.64 Q158.963 263.529 157.406 263.307 Q158.768 265.586 161.269 266.614 Q163.798 267.643 166.132 267.643 Q168.577 267.643 170.55 265.53 Q172.551 263.418 172.551 258.248 Q172.551 253.856 170.828 251.326 Q169.133 248.797 165.771 248.797 L163.27 248.797 Q162.408 248.797 162.158 248.714 Q161.908 248.63 161.908 248.158 Q161.908 247.602 162.77 247.49 Q163.631 247.49 164.993 247.324 Q168.3 247.213 170.05 244.35 Q171.634 241.681 171.634 237.873 Q171.634 234.398 169.967 232.953 Q168.327 231.48 166.188 231.48 Q164.187 231.48 161.992 232.314 Q159.796 233.148 158.601 235.01 Q162.131 235.01 162.131 237.873 Q162.131 239.124 161.325 239.958 Q160.547 240.764 159.241 240.764 Q157.99 240.764 157.156 239.985 Q156.323 239.179 156.323 237.817 Q156.323 234.565 159.213 232.314 Q162.131 230.062 166.41 230.062 Q170.634 230.062 173.746 232.286 Q176.886 234.51 176.886 237.929 Q176.886 241.292 174.663 244.044 Q172.44 246.796 168.911 247.935 Q173.246 248.797 175.83 251.743 Q178.415 254.662 178.415 258.248 Q178.415 262.695 174.913 265.975 Q171.412 269.227 166.299 269.227 Q161.575 269.227 158.185 266.67 Q154.794 264.113 154.794 260.305 Z" fill="#000000" fill-rule="evenodd" fill-opacity="1" /><path clip-path="url(#clip570)" d="M71.6299 772.96 L69.6847 772.96 L69.6847 771.447 Q69.6847 768.019 69.1289 767.247 Q68.5423 766.444 66.6897 766.444 L33.5595 766.444 Q31.7378 766.444 31.1821 767.247 Q30.5954 768.05 30.5954 771.447 L30.5954 772.96 L28.6194 772.96 L28.6194 737.35 L42.8533 735.59 L42.8533 737.165 Q39.2408 737.597 37.1721 738.184 Q35.0725 738.74 33.4669 740.13 Q31.8614 741.489 31.2438 743.743 Q30.5954 745.967 30.5954 749.58 L30.5954 757.734 Q30.5954 759.896 31.0586 760.359 Q31.4908 760.823 33.1273 760.823 L48.2875 760.823 L48.2875 755.14 Q48.2875 750.785 46.7746 749.55 Q45.2616 748.314 40.9081 748.314 L40.9081 746.708 L57.643 746.708 L57.643 748.314 Q53.3512 748.314 51.8074 749.55 Q50.2636 750.785 50.2636 755.14 L50.2636 760.823 L67.1529 760.823 Q68.7893 760.823 69.2524 760.359 Q69.6847 759.865 69.6847 757.734 L69.6847 749.303 Q69.6847 746.585 69.3451 744.608 Q68.9746 742.601 68.11 741.211 Q67.2146 739.821 66.1957 738.894 Q65.1768 737.937 63.3551 737.288 Q61.5025 736.609 59.8043 736.238 Q58.1061 735.837 55.3273 735.404 L55.3273 733.829 L71.6299 736.485 L71.6299 772.96 Z" fill="#000000" fill-rule="evenodd" fill-opacity="1" /><path clip-path="url(#clip570)" d="M71.6299 730.03 L69.6847 730.03 Q69.6847 726.664 69.2833 725.892 Q68.8511 725.12 66.8132 725.12 L49.8622 725.12 Q47.5156 725.12 46.9289 725.954 Q46.3423 726.757 46.3423 730.03 L44.3662 730.03 L43.6869 721.136 L50.3253 721.136 Q43.6869 718.171 43.6869 711.777 Q43.6869 707.021 46.0335 705.137 Q47.6082 703.747 49.3682 703.469 Q51.1281 703.161 55.6978 703.161 L67.7704 703.161 Q69.0981 703.099 69.4068 702.08 Q69.6847 701.06 69.6847 698.219 L71.6299 698.219 Q71.4447 704.674 71.4447 705.322 Q71.4447 705.817 71.6299 712.457 L69.6847 712.457 Q69.6847 709.09 69.2833 708.318 Q68.8511 707.515 66.8132 707.515 L52.0853 707.515 Q48.8741 707.515 46.9907 708.504 Q45.0764 709.492 45.0764 712.21 Q45.0764 715.484 47.8244 718.109 Q50.5723 720.734 55.2038 720.734 L66.8132 720.734 Q68.8511 720.734 69.2833 719.962 Q69.6847 719.159 69.6847 715.823 L71.6299 715.823 Q71.4447 722.278 71.4447 722.896 Q71.4447 723.39 71.6299 730.03 Z" fill="#000000" fill-rule="evenodd" fill-opacity="1" /><path clip-path="url(#clip570)" d="M46.3423 697.539 L44.9529 697.539 Q44.8294 694.636 42.7915 692.721 Q40.7228 690.776 38.191 690.127 Q35.6591 689.448 32.7259 689.386 L32.7259 687.811 L44.3662 687.811 L44.3662 678.761 L46.3423 678.761 L46.3423 687.811 L63.9109 687.811 Q70.7345 687.811 70.7345 683.549 Q70.7345 681.726 68.8819 680.522 Q66.9985 679.317 63.6638 679.317 L60.1748 679.317 L60.1748 677.742 L63.7874 677.742 Q67.2146 677.742 69.7773 679.317 Q72.3401 680.892 72.3401 684.012 Q72.3401 685.155 72.0313 686.297 Q71.7534 687.409 71.0124 688.892 Q70.2405 690.343 68.3879 691.27 Q66.5045 692.165 63.7874 692.165 L46.3423 692.165 L46.3423 697.539 Z" fill="#000000" fill-rule="evenodd" fill-opacity="1" /><path clip-path="url(#clip570)" d="M65.609 671.565 Q60.2366 671.565 57.396 665.234 Q55.5743 661.435 55.1111 653.59 L52.7954 653.59 Q48.8741 653.59 46.8054 655.66 Q44.7059 657.698 44.7059 660.292 Q44.7059 664.925 47.6082 667.149 Q47.67 665.265 48.6271 664.585 Q49.5534 663.906 50.5106 663.906 Q51.7765 663.906 52.6102 664.709 Q53.4129 665.481 53.4129 666.809 Q53.4129 668.075 52.641 668.909 Q51.8383 669.743 50.4488 669.743 Q47.3612 669.743 45.3234 666.963 Q43.2856 664.153 43.2856 660.169 Q43.2856 654.98 46.7746 651.521 Q47.8552 650.44 49.2447 649.915 Q50.6341 649.359 51.5604 649.297 Q52.4558 649.235 54.2466 649.235 L66.875 649.235 Q67.2455 649.235 67.863 649.112 Q68.4805 648.988 69.2833 648.432 Q70.0552 647.846 70.0552 646.888 Q70.0552 644.603 66.0104 644.634 L62.4597 644.634 L62.4597 643.028 L66.0104 643.028 Q69.3759 643.028 70.7036 644.819 Q72.0004 646.579 72.0004 648.216 Q72.0004 650.316 70.4566 651.645 Q68.9128 652.973 66.8132 653.158 Q69.2216 654.115 70.7963 656.308 Q72.3401 658.47 72.3401 661.435 Q72.3401 663.72 71.7534 665.882 Q71.1976 668.013 69.623 669.805 Q68.0174 671.565 65.609 671.565 M65.5473 666.685 Q67.8939 666.685 69.4068 665.018 Q70.9198 663.35 70.9198 661.003 Q70.9198 658.347 68.8819 655.968 Q66.8132 653.59 62.7684 653.59 L56.4388 653.59 Q56.6858 660.601 59.4956 663.659 Q62.2744 666.685 65.5473 666.685 Z" fill="#000000" fill-rule="evenodd" fill-opacity="1" /><path clip-path="url(#clip570)" d="M71.6299 640.557 L69.6847 640.557 Q69.6847 637.19 69.2833 636.418 Q68.8511 635.646 66.8132 635.646 L49.8622 635.646 Q47.5156 635.646 46.9289 636.48 Q46.3423 637.283 46.3423 640.557 L44.3662 640.557 L43.6869 631.662 L50.3253 631.662 Q43.6869 628.697 43.6869 622.304 Q43.6869 617.548 46.0335 615.664 Q47.6082 614.274 49.3682 613.996 Q51.1281 613.687 55.6978 613.687 L67.7704 613.687 Q69.0981 613.625 69.4068 612.606 Q69.6847 611.587 69.6847 608.745 L71.6299 608.745 Q71.4447 615.2 71.4447 615.849 Q71.4447 616.343 71.6299 622.983 L69.6847 622.983 Q69.6847 619.617 69.2833 618.845 Q68.8511 618.042 66.8132 618.042 L52.0853 618.042 Q48.8741 618.042 46.9907 619.03 Q45.0764 620.018 45.0764 622.736 Q45.0764 626.01 47.8244 628.635 Q50.5723 631.26 55.2038 631.26 L66.8132 631.26 Q68.8511 631.26 69.2833 630.488 Q69.6847 629.685 69.6847 626.35 L71.6299 626.35 Q71.4447 632.805 71.4447 633.422 Q71.4447 633.917 71.6299 640.557 Z" fill="#000000" fill-rule="evenodd" fill-opacity="1" /><path clip-path="url(#clip570)" d="M76.6319 605.75 Q74.594 605.75 72.8341 604.205 Q71.0741 602.63 70.3022 599.912 Q68.5423 602.692 64.6828 602.692 Q61.7186 602.692 59.4338 600.746 Q56.9637 603.711 52.9189 603.711 Q49.1829 603.711 46.4349 600.746 Q43.6869 597.781 43.6869 593.457 Q43.6869 589.659 45.9718 586.755 Q43.0077 583.729 42.9768 580.053 Q42.9768 578.416 43.9957 577.644 Q45.0146 576.841 46.0953 576.841 Q47.0524 576.841 47.5156 577.459 Q47.9787 578.046 47.9787 578.664 Q47.9787 579.436 47.4847 579.992 Q46.9598 580.517 46.157 580.517 Q44.8294 580.517 44.428 579.497 Q44.3662 579.683 44.3662 580.115 Q44.3662 583.204 46.8363 585.829 Q49.2447 583.234 52.9807 583.234 Q56.7167 583.234 59.4647 586.199 Q62.2127 589.164 62.2127 593.457 Q62.2127 597.009 60.2366 599.727 Q61.5025 600.808 63.2316 600.808 Q64.8063 600.808 66.0413 599.851 Q67.2764 598.893 67.4616 597.442 Q67.5234 597.009 67.5234 592.716 Q67.5234 590.184 67.5851 588.794 Q67.6469 587.404 68.0791 585.427 Q68.4805 583.42 69.2833 581.845 Q71.5682 577.737 76.5083 577.706 Q80.1209 577.706 82.3748 581.876 Q84.6597 586.014 84.6597 591.759 Q84.6597 597.565 82.344 601.673 Q80.0591 605.75 76.6319 605.75 M76.6319 602.445 Q79.2255 602.445 81.2015 599.387 Q83.2085 596.33 83.2085 591.697 Q83.2085 587.157 81.2324 584.099 Q79.2872 581.011 76.6319 581.011 Q74.7484 581.011 73.5442 582.092 Q72.3401 583.173 71.846 585.396 Q71.3829 587.589 71.2903 589.133 Q71.1976 590.678 71.1976 593.519 L71.1976 597.256 Q71.3211 599.418 72.8958 600.932 Q74.4705 602.445 76.6319 602.445 M52.9807 598.986 Q60.7615 598.986 60.7615 593.457 Q60.7615 590.678 58.2296 588.979 Q56.5314 587.96 52.9189 587.96 Q45.1381 587.96 45.1381 593.457 Q45.1381 596.237 47.67 597.967 Q49.3682 598.986 52.9807 598.986 Z" fill="#000000" fill-rule="evenodd" fill-opacity="1" /><path clip-path="url(#clip570)" d="M71.6299 573.784 L69.6847 573.784 Q69.6847 570.417 69.2833 569.645 Q68.8511 568.873 66.8132 568.873 L33.9301 568.873 Q31.5835 568.873 30.9968 569.707 Q30.4102 570.51 30.4102 573.784 L28.4341 573.784 L27.7548 564.704 L66.8132 564.704 Q68.8511 564.704 69.2833 563.901 Q69.6847 563.098 69.6847 559.762 L71.6299 559.762 Q71.6299 560.534 71.5682 562.14 Q71.5064 563.746 71.4755 564.92 Q71.4447 566.093 71.4447 566.773 Q71.4447 567.514 71.6299 573.784 Z" fill="#000000" fill-rule="evenodd" fill-opacity="1" /><path clip-path="url(#clip570)" d="M57.7047 556.612 Q51.7456 556.612 47.5156 552.782 Q43.2856 548.952 43.2856 543.455 Q43.2856 537.895 46.8981 535.023 Q50.5106 532.12 55.6978 532.12 Q56.6549 532.12 56.8402 532.367 Q57.0255 532.614 57.0255 533.695 L57.0255 551.361 Q63.4786 551.361 66.5045 549.446 Q70.7345 546.79 70.7345 542.312 Q70.7345 541.694 70.611 540.953 Q70.4875 540.212 69.9626 538.698 Q69.4068 537.185 67.9556 535.857 Q66.5045 534.529 64.2196 533.757 Q63.3242 533.572 63.3551 532.954 Q63.3551 532.12 64.0961 532.12 Q64.6519 532.12 65.9178 532.738 Q67.1529 533.324 68.6349 534.467 Q70.117 535.61 71.2285 537.834 Q72.3401 540.027 72.3401 542.683 Q72.3401 548.242 68.1409 552.442 Q63.9109 556.612 57.7047 556.612 M55.6978 551.299 L55.6978 536.289 Q54.3701 536.289 52.8881 536.537 Q51.406 536.753 49.3682 537.432 Q47.2995 538.081 46.0027 539.625 Q44.7059 541.169 44.7059 543.455 Q44.7059 544.474 45.1381 545.586 Q45.5704 546.667 46.6202 547.995 Q47.67 549.323 50.0474 550.249 Q52.4249 551.176 55.6978 551.299 Z" fill="#000000" fill-rule="evenodd" fill-opacity="1" /><path clip-path="url(#clip570)" d="M71.6299 528.259 L69.6847 528.259 Q69.6847 524.893 69.2833 524.121 Q68.8511 523.349 66.8132 523.349 L49.8622 523.349 Q47.5156 523.349 46.9289 524.183 Q46.3423 524.986 46.3423 528.259 L44.3662 528.259 L43.6869 519.365 L50.3253 519.365 Q43.6869 516.4 43.6869 510.006 Q43.6869 502.594 49.8622 501.575 Q47.4538 500.494 45.5704 498.239 Q43.6869 495.954 43.6869 492.402 Q43.6869 487.646 46.0335 485.762 Q47.6082 484.372 49.3682 484.094 Q51.1281 483.816 55.6978 483.816 L67.7704 483.816 Q69.0981 483.754 69.4068 482.735 Q69.6847 481.716 69.6847 478.874 L71.6299 478.874 Q71.4447 485.329 71.4447 485.947 Q71.4447 486.441 71.6299 493.112 L69.6847 493.112 Q69.6847 489.746 69.2833 488.974 Q68.8511 488.171 66.8132 488.171 L52.0853 488.171 Q48.8741 488.171 46.9907 489.159 Q45.0764 490.147 45.0764 492.865 Q45.0764 496.139 47.8244 498.764 Q50.5723 501.39 55.2038 501.39 L66.8132 501.39 Q68.8511 501.39 69.2833 500.617 Q69.6847 499.814 69.6847 496.448 L71.6299 496.448 Q71.4447 502.903 71.4447 503.551 Q71.4447 504.046 71.6299 510.686 L69.6847 510.686 Q69.6847 507.319 69.2833 506.547 Q68.8511 505.744 66.8132 505.744 L52.0853 505.744 Q48.8741 505.744 46.9907 506.733 Q45.0764 507.721 45.0764 510.439 Q45.0764 513.713 47.8244 516.338 Q50.5723 518.963 55.2038 518.963 L66.8132 518.963 Q68.8511 518.963 69.2833 518.191 Q69.6847 517.388 69.6847 514.052 L71.6299 514.052 Q71.4447 520.507 71.4447 521.125 Q71.4447 521.619 71.6299 528.259 Z" fill="#000000" fill-rule="evenodd" fill-opacity="1" /><path clip-path="url(#clip570)" d="M57.7047 475.879 Q51.7456 475.879 47.5156 472.049 Q43.2856 468.219 43.2856 462.722 Q43.2856 457.162 46.8981 454.29 Q50.5106 451.387 55.6978 451.387 Q56.6549 451.387 56.8402 451.634 Q57.0255 451.881 57.0255 452.962 L57.0255 470.628 Q63.4786 470.628 66.5045 468.713 Q70.7345 466.057 70.7345 461.579 Q70.7345 460.961 70.611 460.22 Q70.4875 459.479 69.9626 457.965 Q69.4068 456.452 67.9556 455.124 Q66.5045 453.796 64.2196 453.024 Q63.3242 452.838 63.3551 452.221 Q63.3551 451.387 64.0961 451.387 Q64.6519 451.387 65.9178 452.005 Q67.1529 452.591 68.6349 453.734 Q70.117 454.877 71.2285 457.101 Q72.3401 459.293 72.3401 461.95 Q72.3401 467.509 68.1409 471.709 Q63.9109 475.879 57.7047 475.879 M55.6978 470.566 L55.6978 455.556 Q54.3701 455.556 52.8881 455.803 Q51.406 456.02 49.3682 456.699 Q47.2995 457.348 46.0027 458.892 Q44.7059 460.436 44.7059 462.722 Q44.7059 463.741 45.1381 464.853 Q45.5704 465.934 46.6202 467.262 Q47.67 468.59 50.0474 469.516 Q52.4249 470.443 55.6978 470.566 Z" fill="#000000" fill-rule="evenodd" fill-opacity="1" /><path clip-path="url(#clip570)" d="M71.6299 447.526 L69.6847 447.526 Q69.6847 444.16 69.2833 443.388 Q68.8511 442.616 66.8132 442.616 L49.8622 442.616 Q47.5156 442.616 46.9289 443.449 Q46.3423 444.252 46.3423 447.526 L44.3662 447.526 L43.6869 438.631 L50.3253 438.631 Q43.6869 435.666 43.6869 429.273 Q43.6869 424.517 46.0335 422.633 Q47.6082 421.243 49.3682 420.965 Q51.1281 420.656 55.6978 420.656 L67.7704 420.656 Q69.0981 420.595 69.4068 419.575 Q69.6847 418.556 69.6847 415.715 L71.6299 415.715 Q71.4447 422.17 71.4447 422.818 Q71.4447 423.313 71.6299 429.953 L69.6847 429.953 Q69.6847 426.586 69.2833 425.814 Q68.8511 425.011 66.8132 425.011 L52.0853 425.011 Q48.8741 425.011 46.9907 425.999 Q45.0764 426.988 45.0764 429.706 Q45.0764 432.979 47.8244 435.605 Q50.5723 438.23 55.2038 438.23 L66.8132 438.23 Q68.8511 438.23 69.2833 437.458 Q69.6847 436.655 69.6847 433.319 L71.6299 433.319 Q71.4447 439.774 71.4447 440.392 Q71.4447 440.886 71.6299 447.526 Z" fill="#000000" fill-rule="evenodd" fill-opacity="1" /><path clip-path="url(#clip570)" d="M46.3423 415.035 L44.9529 415.035 Q44.8294 412.132 42.7915 410.217 Q40.7228 408.272 38.191 407.623 Q35.6591 406.944 32.7259 406.882 L32.7259 405.307 L44.3662 405.307 L44.3662 396.257 L46.3423 396.257 L46.3423 405.307 L63.9109 405.307 Q70.7345 405.307 70.7345 401.045 Q70.7345 399.222 68.8819 398.018 Q66.9985 396.813 63.6638 396.813 L60.1748 396.813 L60.1748 395.238 L63.7874 395.238 Q67.2146 395.238 69.7773 396.813 Q72.3401 398.388 72.3401 401.508 Q72.3401 402.651 72.0313 403.793 Q71.7534 404.905 71.0124 406.388 Q70.2405 407.839 68.3879 408.766 Q66.5045 409.661 63.7874 409.661 L46.3423 409.661 L46.3423 415.035 Z" fill="#000000" fill-rule="evenodd" fill-opacity="1" /><path clip-path="url(#clip570)" d="M57.7047 368.924 Q51.7456 368.924 47.5156 365.094 Q43.2856 361.265 43.2856 355.767 Q43.2856 350.208 46.8981 347.336 Q50.5106 344.433 55.6978 344.433 Q56.6549 344.433 56.8402 344.68 Q57.0255 344.927 57.0255 346.008 L57.0255 363.674 Q63.4786 363.674 66.5045 361.759 Q70.7345 359.103 70.7345 354.625 Q70.7345 354.007 70.611 353.266 Q70.4875 352.524 69.9626 351.011 Q69.4068 349.498 67.9556 348.17 Q66.5045 346.842 64.2196 346.069 Q63.3242 345.884 63.3551 345.266 Q63.3551 344.433 64.0961 344.433 Q64.6519 344.433 65.9178 345.05 Q67.1529 345.637 68.6349 346.78 Q70.117 347.922 71.2285 350.146 Q72.3401 352.339 72.3401 354.995 Q72.3401 360.554 68.1409 364.755 Q63.9109 368.924 57.7047 368.924 M55.6978 363.612 L55.6978 348.602 Q54.3701 348.602 52.8881 348.849 Q51.406 349.065 49.3682 349.745 Q47.2995 350.393 46.0027 351.938 Q44.7059 353.482 44.7059 355.767 Q44.7059 356.786 45.1381 357.898 Q45.5704 358.979 46.6202 360.307 Q47.67 361.635 50.0474 362.562 Q52.4249 363.488 55.6978 363.612 Z" fill="#000000" fill-rule="evenodd" fill-opacity="1" /><path clip-path="url(#clip570)" d="M71.6299 340.572 L69.6847 340.572 Q69.6847 337.205 69.2833 336.433 Q68.8511 335.661 66.8132 335.661 L49.8622 335.661 Q47.5156 335.661 46.9289 336.495 Q46.3423 337.298 46.3423 340.572 L44.3662 340.572 L43.6869 331.677 L50.3253 331.677 Q43.6869 328.712 43.6869 322.319 Q43.6869 317.563 46.0335 315.679 Q47.6082 314.289 49.3682 314.011 Q51.1281 313.702 55.6978 313.702 L67.7704 313.702 Q69.0981 313.64 69.4068 312.621 Q69.6847 311.602 69.6847 308.76 L71.6299 308.76 Q71.4447 315.215 71.4447 315.864 Q71.4447 316.358 71.6299 322.998 L69.6847 322.998 Q69.6847 319.632 69.2833 318.86 Q68.8511 318.057 66.8132 318.057 L52.0853 318.057 Q48.8741 318.057 46.9907 319.045 Q45.0764 320.033 45.0764 322.751 Q45.0764 326.025 47.8244 328.65 Q50.5723 331.276 55.2038 331.276 L66.8132 331.276 Q68.8511 331.276 69.2833 330.503 Q69.6847 329.7 69.6847 326.365 L71.6299 326.365 Q71.4447 332.82 71.4447 333.437 Q71.4447 333.932 71.6299 340.572 Z" fill="#000000" fill-rule="evenodd" fill-opacity="1" /><path clip-path="url(#clip570)" d="M46.3423 308.081 L44.9529 308.081 Q44.8294 305.178 42.7915 303.263 Q40.7228 301.317 38.191 300.669 Q35.6591 299.989 32.7259 299.927 L32.7259 298.352 L44.3662 298.352 L44.3662 289.303 L46.3423 289.303 L46.3423 298.352 L63.9109 298.352 Q70.7345 298.352 70.7345 294.09 Q70.7345 292.268 68.8819 291.063 Q66.9985 289.859 63.6638 289.859 L60.1748 289.859 L60.1748 288.284 L63.7874 288.284 Q67.2146 288.284 69.7773 289.859 Q72.3401 291.434 72.3401 294.553 Q72.3401 295.696 72.0313 296.839 Q71.7534 297.951 71.0124 299.433 Q70.2405 300.885 68.3879 301.811 Q66.5045 302.707 63.7874 302.707 L46.3423 302.707 L46.3423 308.081 Z" fill="#000000" fill-rule="evenodd" fill-opacity="1" /><path clip-path="url(#clip570)" d="M71.6299 283.002 L69.6847 283.002 Q69.6847 279.636 69.2833 278.864 Q68.8511 278.061 66.8132 278.061 L49.8622 278.061 Q47.5156 278.061 46.9289 278.895 Q46.3423 279.698 46.3423 283.002 L44.3662 283.002 L43.6869 274.2 L50.6341 274.2 Q47.917 273.305 45.8174 271.421 Q43.6869 269.506 43.6869 266.417 Q43.6869 264.379 44.8294 263.082 Q45.9718 261.754 47.5465 261.754 Q48.9359 261.754 49.646 262.618 Q50.3253 263.452 50.3253 264.472 Q50.3253 265.614 49.6152 266.417 Q48.8741 267.189 47.6082 267.189 Q46.8363 267.189 46.2497 266.85 Q45.6321 266.479 45.416 266.201 Q45.1999 265.923 45.1381 265.738 Q45.0764 265.861 45.0764 266.417 Q45.0764 269.907 48.5654 271.915 Q52.0235 273.891 56.9637 273.891 L66.6897 273.891 Q68.5114 273.891 69.0981 273.15 Q69.6847 272.378 69.6847 269.073 L69.6847 267.745 L71.6299 267.745 Q71.4447 270.278 71.4447 275.775 Q71.4447 276.548 71.4755 277.752 Q71.5064 278.957 71.5682 280.532 Q71.6299 282.107 71.6299 283.002 Z" fill="#000000" fill-rule="evenodd" fill-opacity="1" /><path clip-path="url(#clip570)" d="M68.2335 254.125 Q64.0961 258.295 58.1061 258.295 Q52.0853 258.295 47.7008 254.218 Q43.2856 250.11 43.2856 244.242 Q43.2856 238.497 47.67 234.39 Q52.0235 230.251 58.1061 230.251 Q64.0652 230.251 68.2026 234.421 Q72.3401 238.559 72.3401 244.304 Q72.3401 249.925 68.2335 254.125 M57.5812 253.044 Q63.7256 253.044 66.5045 251.438 Q70.7345 248.967 70.7345 244.242 Q70.7345 241.895 69.4686 239.949 Q68.2026 237.972 66.0722 236.891 Q63.2933 235.501 57.5812 235.501 Q51.4986 235.501 48.8124 237.169 Q44.7059 239.64 44.7059 244.304 Q44.7059 246.342 45.7865 248.35 Q46.8363 250.326 48.9359 251.531 Q51.7148 253.044 57.5812 253.044 Z" fill="#000000" fill-rule="evenodd" fill-opacity="1" /><path clip-path="url(#clip570)" d="M81.9426 226.668 Q81.9426 223.302 81.5103 222.53 Q81.1089 221.727 79.102 221.727 L49.4917 221.727 Q47.3921 221.727 46.8672 222.53 Q46.3423 223.302 46.3423 226.668 L44.3662 226.668 L43.6869 217.557 L47.8552 217.557 Q43.6869 213.759 43.6869 208.693 Q43.6869 203.319 47.8552 199.397 Q52.0235 195.475 57.9826 195.475 Q64.0035 195.475 68.1718 199.644 Q72.3401 203.814 72.3401 209.589 Q72.3401 212.739 70.7345 214.87 Q69.0981 216.971 67.8939 217.372 L68.4805 217.372 L79.102 217.372 Q81.1398 217.372 81.5412 216.569 Q81.9426 215.766 81.9426 212.43 L83.8878 212.43 Q83.7025 219.071 83.7025 219.565 Q83.7025 220.183 83.8878 226.668 L81.9426 226.668 M64.4358 217.372 Q65.3929 217.372 65.7326 217.249 Q66.0722 217.094 67.0911 216.476 Q70.9198 213.975 70.9198 209.898 Q70.9198 209.867 70.9198 209.836 Q70.9198 206.223 67.2455 203.474 Q63.5403 200.725 57.9826 200.725 Q52.6719 200.725 48.9668 203.227 Q45.2616 205.728 45.2616 209.188 Q45.2616 211.658 46.5893 213.82 Q47.917 215.982 50.3253 217.372 L64.4358 217.372 Z" fill="#000000" fill-rule="evenodd" fill-opacity="1" /><path clip-path="url(#clip570)" d="M79.4725 193.9 Q78.1448 193.9 77.4346 193.127 Q76.7554 192.324 76.7554 191.243 Q76.7554 190.101 77.4655 189.359 Q78.2065 188.587 79.4107 188.587 Q81.7573 188.587 82.0661 191.058 Q83.2085 189.854 83.2085 188.093 Q83.2085 186.209 81.8191 184.696 Q80.4296 183.152 79.102 182.503 Q77.7743 181.824 75.3659 180.866 Q73.4825 179.97 71.6299 179.291 L48.5345 188.773 Q47.0216 189.39 46.6819 190.348 Q46.3423 191.305 46.3423 193.9 L44.3662 193.9 Q44.5515 191.058 44.5515 187.753 Q44.5515 185.808 44.3662 180.866 L46.3423 180.866 Q46.3423 184.418 47.9787 184.418 Q48.164 184.418 49.1212 184.047 L66.1339 177.006 L50.5723 170.612 Q49.6769 170.242 49.0594 170.242 Q46.4658 170.242 46.3423 173.207 L44.3662 173.207 Q44.5515 169.037 44.5515 167.709 Q44.5515 165.115 44.3662 162.984 L46.3423 162.984 Q46.3423 167.215 50.3871 168.852 L77.3729 180.001 Q84.567 183.028 84.5979 188.093 Q84.5979 190.502 83.1159 192.201 Q81.6338 193.9 79.4725 193.9 Z" fill="#000000" fill-rule="evenodd" fill-opacity="1" /><polyline clip-path="url(#clip572)" style="stroke:#000000; stroke-linecap:round; stroke-linejoin:round; stroke-width:8.00147; stroke-opacity:1; fill:none" stroke-dasharray="32, 20" points="245.22,864.877 279.553,864.877 313.887,864.869 348.22,864.805 382.554,864.532 416.887,863.751 451.221,861.997 485.554,858.666 519.888,853.079 554.221,844.562 588.555,832.542 622.888,816.619 657.222,796.618 691.555,772.606 725.889,744.876 760.223,713.908 794.556,680.308 828.89,644.74 863.223,607.869 897.557,570.303 931.89,532.558 966.224,495.038 1000.56,458.029 1034.89,421.717 1069.22,386.212 1103.56,351.582 1137.89,317.888 1172.22,285.223 1206.56,253.733 1240.89,223.633 1275.23,195.215 1309.56,168.832 1343.89,144.88 1378.23,123.765 1412.56,105.868 1446.89,91.5026 1481.23,80.8832 1515.56,74.0934 1549.89,71.0671 1584.23,71.5813 1618.56,75.2622 "/>
<polyline clip-path="url(#clip572)" style="stroke:#fdbb84; stroke-linecap:round; stroke-linejoin:round; stroke-width:12.0022; stroke-opacity:1; fill:none" stroke-dasharray="48, 30" points="245.22,864.877 279.553,864.877 313.887,864.877 348.22,864.877 382.554,864.877 416.887,864.877 451.221,864.877 485.554,864.877 519.888,864.877 554.221,864.877 588.555,864.877 622.888,864.877 657.222,864.877 691.555,864.877 725.889,864.877 760.223,864.877 794.556,864.877 828.89,864.877 863.223,864.877 897.557,864.877 931.89,864.877 966.224,864.877 1000.56,864.877 1034.89,864.877 1069.22,864.877 1103.56,864.877 1137.89,864.877 1172.22,864.877 1206.56,864.877 1240.89,864.877 1275.23,864.877 1309.56,864.877 1343.89,864.877 1378.23,864.877 1412.56,864.877 1446.89,864.877 1481.23,864.877 1515.56,864.877 1549.89,864.877 1584.23,864.877 1618.56,864.877 "/>
<polyline clip-path="url(#clip572)" style="stroke:#fc8d59; stroke-linecap:round; stroke-linejoin:round; stroke-width:12.0022; stroke-opacity:1; fill:none" stroke-dasharray="6, 12" points="245.22,864.877 279.553,864.877 313.887,864.876 348.22,864.857 382.554,864.733 416.887,864.277 451.221,863.103 485.554,860.664 519.888,856.295 554.221,849.292 588.555,839.001 622.888,824.905 657.222,806.701 691.555,784.4 725.889,758.253 760.223,728.63 794.556,696.945 828.89,663.854 863.223,630.919 897.557,599.87 931.89,571.272 966.224,547.012 1000.56,523.096 1034.89,505.509 1069.22,493.166 1103.56,484.321 1137.89,473.717 1172.22,457.637 1206.56,438.59 1240.89,420.941 1275.23,402.443 1309.56,385.731 1343.89,370.753 1378.23,357.515 1412.56,346 1446.89,337.341 1481.23,345.858 1515.56,353.359 1549.89,360.143 1584.23,366.844 1618.56,371.541 "/>
<polyline clip-path="url(#clip572)" style="stroke:#e34a33; stroke-linecap:round; stroke-linejoin:round; stroke-width:12.0022; stroke-opacity:1; fill:none" stroke-dasharray="48, 24, 6, 24" points="245.22,864.877 279.553,864.877 313.887,864.876 348.22,864.857 382.554,864.733 416.887,864.277 451.221,863.103 485.554,860.664 519.888,856.295 554.221,849.292 588.555,839.001 622.888,824.905 657.222,806.701 691.555,784.4 725.889,758.253 760.223,728.63 794.556,696.076 828.89,661.232 863.223,624.791 897.557,587.408 931.89,549.66 966.224,511.982 1000.56,474.704 1034.89,438.034 1069.22,402.109 1103.56,367.052 1137.89,333.109 1172.22,301.148 1206.56,271.317 1240.89,242.116 1275.23,214.996 1309.56,190.431 1343.89,166.167 1378.23,166.25 1412.56,163.537 1446.89,163.073 1481.23,163.691 1515.56,166.406 1549.89,170.305 1584.23,175.6 1618.56,181.186 "/>
<polyline clip-path="url(#clip572)" style="stroke:#b30000; stroke-linecap:round; stroke-linejoin:round; stroke-width:12.0022; stroke-opacity:1; fill:none" points="245.22,864.877 279.553,864.877 313.887,864.876 348.22,864.857 382.554,864.733 416.887,864.277 451.221,863.103 485.554,860.664 519.888,856.295 554.221,849.292 588.555,839.001 622.888,824.905 657.222,806.701 691.555,784.4 725.889,758.253 760.223,728.63 794.556,696.076 828.89,661.232 863.223,624.791 897.557,587.408 931.89,549.66 966.224,511.982 1000.56,474.704 1034.89,438.034 1069.22,402.109 1103.56,367.052 1137.89,332.919 1172.22,299.793 1206.56,267.8 1240.89,237.13 1275.23,208.021 1309.56,180.798 1343.89,155.844 1378.23,133.59 1412.56,114.454 1446.89,98.8129 1481.23,86.9539 1515.56,79.0847 1549.89,75.3178 1584.23,75.5694 1618.56,79.4382 "/>
<path clip-path="url(#clip570)" d="M252.544 464.172 L917.765 464.172 L917.765 75.3008 L252.544 75.3008  Z" fill="#ffffff" fill-rule="evenodd" fill-opacity="1"/>
<polyline clip-path="url(#clip570)" style="stroke:#000000; stroke-linecap:round; stroke-linejoin:round; stroke-width:4.00074; stroke-opacity:1; fill:none" points="252.544,464.172 917.765,464.172 917.765,75.3008 252.544,75.3008 252.544,464.172 "/>
<polyline clip-path="url(#clip570)" style="stroke:#000000; stroke-linecap:round; stroke-linejoin:round; stroke-width:10.0018; stroke-opacity:1; fill:none" stroke-dasharray="40, 25" points="268.719,140.113 365.769,140.113 "/>
<path clip-path="url(#clip570)" d="M381.944 161.717 L381.944 159.771 L383.456 159.771 Q386.884 159.771 387.656 159.215 Q388.458 158.628 388.458 156.775 L388.458 123.636 Q388.458 121.813 387.656 121.257 Q386.853 120.671 383.456 120.671 L381.944 120.671 L381.944 118.694 L417.544 118.694 L419.304 132.932 L417.729 132.932 Q417.297 129.318 416.71 127.249 Q416.154 125.149 414.765 123.543 Q413.406 121.937 411.152 121.319 Q408.929 120.671 405.317 120.671 L397.165 120.671 Q395.004 120.671 394.541 121.134 Q394.078 121.566 394.078 123.203 L394.078 138.368 L399.759 138.368 Q404.113 138.368 405.348 136.854 Q406.583 135.341 406.583 130.986 L408.188 130.986 L408.188 147.726 L406.583 147.726 Q406.583 143.433 405.348 141.889 Q404.113 140.344 399.759 140.344 L394.078 140.344 L394.078 157.238 Q394.078 158.875 394.541 159.339 Q395.035 159.771 397.165 159.771 L405.595 159.771 Q408.312 159.771 410.288 159.431 Q412.295 159.061 413.684 158.196 Q415.074 157.3 416 156.281 Q416.957 155.262 417.606 153.44 Q418.285 151.586 418.655 149.888 Q419.057 148.189 419.489 145.409 L421.064 145.409 L418.408 161.717 L381.944 161.717 Z" fill="#000000" fill-rule="evenodd" fill-opacity="1" /><path clip-path="url(#clip570)" d="M423.596 161.717 L423.596 159.771 Q428.536 159.771 431.685 155.972 Q431.685 155.972 437.613 148.436 L431.345 140.283 Q429.122 137.441 428.134 136.947 Q427.177 136.422 423.904 136.422 L423.904 134.445 Q426.498 134.631 429.894 134.631 Q431.778 134.631 436.749 134.445 L436.749 136.422 Q434.526 136.545 434.526 137.997 Q434.526 138.491 435.081 139.14 L440.022 145.533 L443.943 140.591 Q444.9 139.449 444.9 138.368 Q444.9 136.607 443.048 136.422 L443.048 134.445 Q445.518 134.631 449.13 134.631 Q451.847 134.631 454.317 134.445 L454.317 136.422 Q449.501 136.545 446.784 139.696 Q445.579 141.024 440.979 146.861 L449.439 157.794 Q450.458 159.122 451.6 159.462 Q452.743 159.771 455.46 159.771 L455.46 161.717 Q452.619 161.531 449.377 161.531 Q448.235 161.531 442.554 161.717 L442.554 159.771 Q443.696 159.709 444.252 159.215 Q444.838 158.69 444.838 158.165 Q444.838 157.918 443.511 156.096 L438.694 149.764 Q433.877 155.447 433.26 156.775 Q433.013 157.331 433.013 157.794 Q433.013 159.493 434.834 159.771 L434.834 161.717 Q430.296 161.531 428.844 161.531 Q426.066 161.531 423.596 161.717 Z" fill="#000000" fill-rule="evenodd" fill-opacity="1" /><path clip-path="url(#clip570)" d="M458.794 155.694 Q458.794 150.32 465.124 147.479 Q468.922 145.657 476.764 145.193 L476.764 142.877 Q476.764 138.955 474.696 136.885 Q472.658 134.785 470.064 134.785 Q465.433 134.785 463.21 137.688 Q465.093 137.75 465.772 138.707 Q466.452 139.634 466.452 140.591 Q466.452 141.858 465.649 142.692 Q464.877 143.495 463.549 143.495 Q462.283 143.495 461.45 142.722 Q460.616 141.919 460.616 140.53 Q460.616 137.441 463.395 135.403 Q466.205 133.364 470.188 133.364 Q475.375 133.364 478.833 136.854 Q479.914 137.935 480.439 139.325 Q480.994 140.715 481.056 141.641 Q481.118 142.537 481.118 144.328 L481.118 156.96 Q481.118 157.331 481.241 157.949 Q481.365 158.566 481.921 159.369 Q482.507 160.142 483.464 160.142 Q485.749 160.142 485.718 156.096 L485.718 152.544 L487.324 152.544 L487.324 156.096 Q487.324 159.462 485.533 160.79 Q483.773 162.087 482.137 162.087 Q480.037 162.087 478.71 160.543 Q477.382 158.999 477.197 156.899 Q476.239 159.308 474.047 160.883 Q471.886 162.427 468.922 162.427 Q466.637 162.427 464.476 161.84 Q462.345 161.284 460.554 159.709 Q458.794 158.103 458.794 155.694 M463.673 155.632 Q463.673 157.98 465.34 159.493 Q467.007 161.006 469.354 161.006 Q472.009 161.006 474.387 158.968 Q476.764 156.899 476.764 152.853 L476.764 146.521 Q469.755 146.768 466.699 149.579 Q463.673 152.359 463.673 155.632 Z" fill="#000000" fill-rule="evenodd" fill-opacity="1" /><path clip-path="url(#clip570)" d="M493.932 158.258 Q489.918 154.057 489.918 148.066 Q489.918 142.043 493.87 137.719 Q497.822 133.364 503.627 133.364 Q507.486 133.364 510.389 135.217 Q513.291 137.04 513.291 140.159 Q513.291 141.549 512.457 142.352 Q511.654 143.124 510.389 143.124 Q509.061 143.124 508.258 142.321 Q507.486 141.487 507.486 140.221 Q507.486 139.665 507.671 139.109 Q507.857 138.553 508.536 137.966 Q509.246 137.379 510.45 137.287 Q508.196 134.97 503.812 134.97 Q503.75 134.97 503.688 134.97 Q500.477 134.97 497.822 137.997 Q495.167 141.024 495.167 147.942 Q495.167 151.556 496.031 154.212 Q496.927 156.837 498.378 158.196 Q499.829 159.555 501.249 160.203 Q502.669 160.821 504.059 160.821 Q510.265 160.821 512.365 154.181 Q512.55 153.563 513.167 153.563 Q514.001 153.563 514.001 154.181 Q514.001 154.49 513.754 155.293 Q513.507 156.096 512.735 157.362 Q511.963 158.628 510.852 159.74 Q509.771 160.821 507.826 161.624 Q505.911 162.427 503.503 162.427 Q497.945 162.427 493.932 158.258 Z" fill="#000000" fill-rule="evenodd" fill-opacity="1" /><path clip-path="url(#clip570)" d="M517.027 136.422 L517.027 135.032 Q519.929 134.909 521.844 132.87 Q523.789 130.801 524.437 128.268 Q525.116 125.736 525.178 122.802 L526.753 122.802 L526.753 134.445 L535.8 134.445 L535.8 136.422 L526.753 136.422 L526.753 153.995 Q526.753 160.821 531.014 160.821 Q532.836 160.821 534.04 158.968 Q535.244 157.084 535.244 153.748 L535.244 150.258 L536.819 150.258 L536.819 153.872 Q536.819 157.3 535.244 159.864 Q533.669 162.427 530.551 162.427 Q529.408 162.427 528.266 162.118 Q527.154 161.84 525.672 161.099 Q524.221 160.327 523.295 158.474 Q522.399 156.59 522.399 153.872 L522.399 136.422 L517.027 136.422 Z" fill="#000000" fill-rule="evenodd" fill-opacity="1" /><polyline clip-path="url(#clip570)" style="stroke:#fdbb84; stroke-linecap:round; stroke-linejoin:round; stroke-width:15.0028; stroke-opacity:1; fill:none" stroke-dasharray="60, 38" points="268.719,204.925 365.769,204.925 "/>
<path clip-path="url(#clip570)" d="M381.944 226.529 L381.944 224.583 L383.456 224.583 Q386.884 224.583 387.656 224.027 Q388.458 223.44 388.458 221.587 L388.458 188.262 Q388.458 186.44 387.656 185.884 Q386.853 185.297 383.456 185.297 L381.944 185.297 L381.944 183.321 L405.07 183.321 Q411.091 183.321 415.105 186.564 Q419.118 189.776 419.118 194.007 Q419.118 197.497 416.154 200.276 Q413.221 203.056 408.621 203.952 Q413.87 204.508 417.328 207.689 Q420.817 210.839 420.817 214.947 Q420.817 219.58 416.834 223.07 Q412.851 226.529 406.737 226.529 L381.944 226.529 M393.707 222.05 Q393.707 223.687 394.17 224.15 Q394.634 224.583 396.795 224.583 L404.699 224.583 Q409.238 224.583 411.863 221.618 Q414.487 218.622 414.487 214.885 Q414.487 211.148 412.171 207.967 Q409.886 204.755 405.595 204.755 L393.707 204.755 L393.707 222.05 M393.707 203.365 L402.878 203.365 Q407.756 203.365 410.35 200.431 Q412.974 197.497 412.974 194.007 Q412.974 190.918 410.875 188.108 Q408.806 185.297 404.638 185.297 L396.795 185.297 Q394.634 185.297 394.17 185.73 Q393.707 186.162 393.707 187.83 L393.707 203.365 Z" fill="#000000" fill-rule="evenodd" fill-opacity="1" /><path clip-path="url(#clip570)" d="M426.621 226.529 L426.621 224.583 L428.134 224.583 Q431.562 224.583 432.333 224.027 Q433.136 223.44 433.136 221.587 L433.136 188.262 Q433.136 186.44 432.333 185.884 Q431.531 185.297 428.134 185.297 L426.621 185.297 L426.621 183.321 L448.945 183.321 Q455.336 183.321 459.597 186.842 Q463.858 190.362 463.858 195.088 Q463.858 199.782 459.505 203.18 Q455.182 206.546 449.439 206.546 L438.756 206.546 L438.756 221.587 Q438.756 223.409 439.528 223.996 Q440.33 224.583 443.758 224.583 L445.271 224.583 L445.271 226.529 Q443.048 226.343 435.915 226.343 Q428.844 226.343 426.621 226.529 M438.57 204.909 L447.278 204.909 Q450.118 204.909 452.187 204.106 Q454.256 203.303 455.182 202.346 Q456.139 201.357 456.664 199.782 Q457.22 198.176 457.281 197.312 Q457.343 196.416 457.343 195.088 Q457.343 193.698 457.281 192.833 Q457.22 191.938 456.664 190.362 Q456.139 188.756 455.182 187.799 Q454.256 186.811 452.187 186.069 Q450.149 185.297 447.278 185.297 L441.658 185.297 Q439.497 185.297 439.034 185.73 Q438.57 186.162 438.57 187.83 L438.57 204.909 Z" fill="#000000" fill-rule="evenodd" fill-opacity="1" /><path clip-path="url(#clip570)" d="M464.167 226.529 L464.167 224.583 Q469.786 224.459 471.238 220.321 L484.329 182.518 Q484.576 181.746 484.854 181.498 Q485.132 181.251 485.842 181.251 Q486.212 181.251 486.429 181.313 Q486.676 181.375 486.83 181.591 Q486.984 181.807 487.046 181.931 Q487.108 182.054 487.293 182.518 L500.94 222.05 Q501.434 223.625 502.453 224.12 Q503.472 224.583 506.344 224.583 L507.455 224.583 L507.455 226.529 Q503.472 226.343 499.18 226.343 Q492.357 226.343 490.072 226.529 L490.072 224.583 Q495.321 224.583 495.321 222.668 Q495.321 222.544 495.136 221.772 L491.801 212.105 L476.178 212.105 L473.244 220.383 Q473.121 220.63 473.121 221.34 Q473.121 222.668 474.356 223.625 Q475.591 224.583 477.876 224.583 L477.876 226.529 Q471.793 226.343 470.589 226.343 Q468.52 226.343 464.167 226.529 M476.857 210.16 L491.091 210.16 L483.959 189.59 L476.857 210.16 Z" fill="#000000" fill-rule="evenodd" fill-opacity="1" /><path clip-path="url(#clip570)" d="M513.661 198.64 Q513.661 197.559 515.113 196.848 L523.912 192.679 L514.989 188.509 Q513.661 187.892 513.661 186.811 Q513.661 186.193 514.155 185.637 Q514.68 185.05 515.36 185.05 Q515.854 185.05 516.749 185.73 L524.592 191.412 Q523.634 180.973 523.665 180.665 Q523.665 180.047 524.128 179.584 Q524.592 179.089 525.364 179.089 Q525.981 179.089 526.475 179.553 Q527 179.985 527 180.665 L526.074 191.412 L533.083 186.224 Q534.719 185.019 535.306 185.05 Q536.016 185.05 536.51 185.606 Q537.004 186.162 537.004 186.811 Q537.004 187.892 535.553 188.571 L526.753 192.741 L535.676 196.941 Q537.004 197.559 537.004 198.64 Q537.004 199.257 536.479 199.844 Q535.985 200.4 535.306 200.4 Q534.935 200.4 534.287 200.029 Q534.163 199.968 532.836 198.979 Q531.508 197.991 529.439 196.478 Q527.401 194.964 526.074 194.007 Q527.031 204.446 527 204.755 Q527 205.372 526.537 205.867 Q526.074 206.361 525.302 206.361 Q524.684 206.361 524.159 205.928 Q523.665 205.465 523.665 204.755 L524.592 194.007 L515.761 200.4 Q514.804 200.4 514.279 199.937 Q513.785 199.443 513.723 199.165 Q513.661 198.887 513.661 198.64 Z" fill="#000000" fill-rule="evenodd" fill-opacity="1" /><polyline clip-path="url(#clip570)" style="stroke:#fc8d59; stroke-linecap:round; stroke-linejoin:round; stroke-width:15.0028; stroke-opacity:1; fill:none" stroke-dasharray="8, 15" points="268.719,269.737 365.769,269.737 "/>
<path clip-path="url(#clip570)" d="M381.944 269.721 Q381.944 260.178 388.458 253.476 Q394.973 246.743 403.927 246.743 Q406.706 246.743 409.176 247.762 Q411.646 248.781 412.789 249.677 Q413.931 250.542 415.568 252.179 L418.748 247.515 Q419.242 246.743 419.736 246.743 Q420.261 246.743 420.354 247.052 Q420.446 247.33 420.446 248.256 L420.446 263.266 Q420.446 264.285 420.323 264.532 Q420.199 264.78 419.427 264.78 Q418.81 264.78 418.655 264.594 Q418.532 264.409 418.408 263.699 Q417.451 256.873 413.653 252.796 Q409.886 248.719 404.638 248.719 Q403.125 248.719 401.426 249.059 Q399.759 249.399 397.32 250.696 Q394.912 251.993 393.028 254.155 Q391.176 256.286 389.817 260.363 Q388.458 264.409 388.458 269.783 Q388.458 275.095 389.817 279.172 Q391.176 283.249 393.028 285.38 Q394.912 287.48 397.32 288.777 Q399.759 290.074 401.457 290.445 Q403.186 290.785 404.699 290.785 Q410.133 290.785 414.302 286.924 Q418.47 283.063 418.871 276.547 Q418.933 276.238 418.933 276.114 Q418.933 275.96 418.995 275.805 Q419.057 275.651 419.211 275.589 Q419.365 275.527 419.612 275.527 Q420.446 275.527 420.446 276.608 Q420.446 282.631 415.815 287.696 Q411.214 292.73 403.927 292.73 Q394.942 292.73 388.428 286.059 Q381.944 279.388 381.944 269.721 Z" fill="#000000" fill-rule="evenodd" fill-opacity="1" /><path clip-path="url(#clip570)" d="M426.127 291.341 L426.127 289.395 L427.64 289.395 Q431.068 289.395 431.839 288.839 Q432.642 288.252 432.642 286.399 L432.642 253.074 Q432.642 251.252 431.839 250.696 Q431.037 250.109 427.64 250.109 L426.127 250.109 L426.127 248.133 Q428.35 248.318 435.483 248.318 Q442.554 248.318 444.777 248.133 L444.777 250.109 L443.264 250.109 Q439.836 250.109 439.034 250.696 Q438.262 251.252 438.262 253.074 L438.262 273.18 L458.053 254.279 Q459.196 253.259 459.196 252.179 Q459.196 251.808 459.011 251.406 Q458.856 250.974 458.115 250.542 Q457.405 250.109 456.263 250.109 L456.263 248.133 Q458.424 248.318 464.321 248.318 Q468.057 248.318 469.694 248.133 L469.694 250.109 Q464.445 250.171 460.709 253.908 L449.315 264.841 L463.92 286.337 Q465.248 288.283 466.544 288.839 Q467.841 289.395 470.558 289.395 L470.558 291.341 Q466.575 291.155 463.302 291.155 Q456.479 291.155 454.256 291.341 L454.256 289.395 Q457.992 289.395 457.992 287.48 Q457.992 286.77 457.034 285.318 L445.579 268.393 L438.262 275.342 L438.262 286.399 Q438.262 288.221 439.034 288.808 Q439.836 289.395 443.264 289.395 L444.777 289.395 L444.777 291.341 Q442.554 291.155 435.421 291.155 Q428.35 291.155 426.127 291.341 Z" fill="#000000" fill-rule="evenodd" fill-opacity="1" /><path clip-path="url(#clip570)" d="M475.19 291.341 L475.19 289.395 Q480.809 289.271 482.26 285.133 L495.352 247.33 Q495.599 246.557 495.877 246.31 Q496.155 246.063 496.865 246.063 Q497.235 246.063 497.451 246.125 Q497.698 246.187 497.853 246.403 Q498.007 246.619 498.069 246.743 Q498.131 246.866 498.316 247.33 L511.963 286.862 Q512.457 288.437 513.476 288.932 Q514.495 289.395 517.367 289.395 L518.478 289.395 L518.478 291.341 Q514.495 291.155 510.203 291.155 Q503.38 291.155 501.095 291.341 L501.095 289.395 Q506.344 289.395 506.344 287.48 Q506.344 287.356 506.158 286.584 L502.824 276.917 L487.201 276.917 L484.267 285.194 Q484.144 285.442 484.144 286.152 Q484.144 287.48 485.379 288.437 Q486.614 289.395 488.899 289.395 L488.899 291.341 Q482.816 291.155 481.612 291.155 Q479.543 291.155 475.19 291.341 M487.88 274.972 L502.114 274.972 L494.981 254.402 L487.88 274.972 Z" fill="#000000" fill-rule="evenodd" fill-opacity="1" /><path clip-path="url(#clip570)" d="M526.907 290.321 Q526.012 289.302 526.012 287.974 Q526.012 286.646 526.876 285.658 Q527.772 284.639 529.377 284.639 Q531.261 284.639 532.342 286.461 Q533.422 288.252 533.422 291.279 Q533.422 294.553 532.095 297.579 Q530.767 300.637 529.47 302.088 Q528.173 303.54 527.648 303.54 Q527.031 303.54 527.031 302.861 Q527.031 302.614 527.463 302.15 Q532.002 297.27 532.033 291.279 Q532.033 290.321 531.909 290.321 L531.755 290.445 Q530.674 291.341 529.377 291.341 Q527.803 291.341 526.907 290.321 Z" fill="#000000" fill-rule="evenodd" fill-opacity="1" /><path clip-path="url(#clip570)" d="M560.995 268.702 Q560.995 268.64 561.118 268.208 Q561.273 267.745 561.674 267.065 Q562.075 266.355 562.6 265.706 Q563.156 265.027 564.113 264.563 Q565.07 264.069 566.182 264.069 Q566.305 264.069 566.491 264.1 Q566.707 264.131 566.768 264.131 L583.967 264.131 Q584.8 264.131 585.109 264.409 Q585.418 264.656 585.418 265.583 L585.418 266.849 Q585.418 267.745 585.047 267.992 Q584.708 268.239 583.967 268.239 L573.901 268.239 L573.901 276.794 Q573.901 287.233 578.347 287.233 Q579.366 287.233 580.416 286.523 Q581.496 285.781 581.743 285.781 Q582.762 285.781 582.762 287.603 Q582.762 289.364 581.496 290.723 Q580.231 292.051 578.347 292.051 Q576.309 292.051 574.982 290.846 Q573.654 289.642 573.098 287.356 Q572.573 285.071 572.45 283.341 Q572.326 281.612 572.326 279.017 L572.326 268.239 L567.51 268.239 Q567.324 268.239 566.985 268.208 Q566.645 268.177 566.46 268.177 Q564.7 268.177 563.218 268.825 Q561.767 269.443 561.705 269.443 Q560.995 269.474 560.995 268.702 Z" fill="#000000" fill-rule="evenodd" fill-opacity="1" /><path clip-path="url(#clip570)" d="M612.681 281.735 Q612.743 280.963 613.947 280.963 L652.697 280.963 Q654.519 280.963 654.55 281.674 Q654.55 282.446 652.82 282.415 L614.38 282.415 Q612.681 282.446 612.681 281.735 M612.681 269.381 Q612.681 268.609 614.009 268.64 L652.635 268.64 Q654.519 268.64 654.55 269.381 Q654.55 270.092 652.944 270.092 L613.947 270.092 Q612.681 270.092 612.681 269.381 Z" fill="#000000" fill-rule="evenodd" fill-opacity="1" /><path clip-path="url(#clip570)" d="M684.901 255.236 L684.901 253.259 Q692.496 253.259 696.418 249.214 Q697.498 249.214 697.684 249.461 Q697.869 249.708 697.869 250.85 L697.869 286.337 Q697.869 288.221 698.795 288.808 Q699.721 289.395 703.766 289.395 L705.773 289.395 L705.773 291.341 Q703.55 291.155 695.522 291.155 Q687.494 291.155 685.302 291.341 L685.302 289.395 L687.309 289.395 Q691.292 289.395 692.249 288.839 Q693.207 288.252 693.207 286.337 L693.207 253.568 Q689.903 255.236 684.901 255.236 Z" fill="#000000" fill-rule="evenodd" fill-opacity="1" /><path clip-path="url(#clip570)" d="M713.369 271.111 Q713.369 261.815 715.715 256.749 Q718.988 249.214 726.707 249.214 Q728.344 249.214 730.042 249.677 Q731.771 250.109 733.932 251.808 Q736.124 253.507 737.452 256.286 Q739.984 261.66 739.984 271.111 Q739.984 280.346 737.637 285.38 Q734.21 292.73 726.645 292.73 Q723.805 292.73 720.903 291.279 Q718.031 289.827 716.209 286.337 Q713.369 281.118 713.369 271.111 M718.618 270.339 Q718.618 279.882 719.297 283.681 Q720.069 287.789 722.168 289.58 Q724.299 291.341 726.645 291.341 Q729.177 291.341 731.277 289.457 Q733.407 287.542 734.056 283.434 Q734.766 279.388 734.735 270.339 Q734.735 261.537 734.118 258.016 Q733.284 253.908 731.061 252.271 Q728.869 250.603 726.645 250.603 Q725.812 250.603 724.916 250.85 Q724.052 251.098 722.786 251.808 Q721.52 252.518 720.532 254.279 Q719.575 256.039 719.112 258.695 Q718.618 262.123 718.618 270.339 Z" fill="#000000" fill-rule="evenodd" fill-opacity="1" /><path clip-path="url(#clip570)" d="M744.986 271.111 Q744.986 261.815 747.333 256.749 Q750.605 249.214 758.324 249.214 Q759.961 249.214 761.659 249.677 Q763.388 250.109 765.55 251.808 Q767.742 253.507 769.069 256.286 Q771.601 261.66 771.601 271.111 Q771.601 280.346 769.255 285.38 Q765.827 292.73 758.263 292.73 Q755.422 292.73 752.52 291.279 Q749.648 289.827 747.827 286.337 Q744.986 281.118 744.986 271.111 M750.235 270.339 Q750.235 279.882 750.914 283.681 Q751.686 287.789 753.786 289.58 Q755.916 291.341 758.263 291.341 Q760.795 291.341 762.894 289.457 Q765.025 287.542 765.673 283.434 Q766.383 279.388 766.352 270.339 Q766.352 261.537 765.735 258.016 Q764.901 253.908 762.678 252.271 Q760.486 250.603 758.263 250.603 Q757.429 250.603 756.534 250.85 Q755.669 251.098 754.403 251.808 Q753.137 252.518 752.149 254.279 Q751.192 256.039 750.729 258.695 Q750.235 262.123 750.235 270.339 Z" fill="#000000" fill-rule="evenodd" fill-opacity="1" /><polyline clip-path="url(#clip570)" style="stroke:#e34a33; stroke-linecap:round; stroke-linejoin:round; stroke-width:15.0028; stroke-opacity:1; fill:none" stroke-dasharray="60, 30, 8, 30" points="268.719,334.549 365.769,334.549 "/>
<path clip-path="url(#clip570)" d="M381.944 334.533 Q381.944 324.99 388.458 318.288 Q394.973 311.555 403.927 311.555 Q406.706 311.555 409.176 312.574 Q411.646 313.593 412.789 314.489 Q413.931 315.354 415.568 316.99 L418.748 312.327 Q419.242 311.555 419.736 311.555 Q420.261 311.555 420.354 311.864 Q420.446 312.142 420.446 313.068 L420.446 328.078 Q420.446 329.097 420.323 329.344 Q420.199 329.591 419.427 329.591 Q418.81 329.591 418.655 329.406 Q418.532 329.221 418.408 328.511 Q417.451 321.685 413.653 317.608 Q409.886 313.531 404.638 313.531 Q403.125 313.531 401.426 313.871 Q399.759 314.211 397.32 315.508 Q394.912 316.805 393.028 318.967 Q391.176 321.098 389.817 325.175 Q388.458 329.221 388.458 334.595 Q388.458 339.907 389.817 343.984 Q391.176 348.061 393.028 350.192 Q394.912 352.292 397.32 353.589 Q399.759 354.886 401.457 355.257 Q403.186 355.597 404.699 355.597 Q410.133 355.597 414.302 351.736 Q418.47 347.875 418.871 341.359 Q418.933 341.05 418.933 340.926 Q418.933 340.772 418.995 340.617 Q419.057 340.463 419.211 340.401 Q419.365 340.339 419.612 340.339 Q420.446 340.339 420.446 341.42 Q420.446 347.443 415.815 352.508 Q411.214 357.542 403.927 357.542 Q394.942 357.542 388.428 350.871 Q381.944 344.2 381.944 334.533 Z" fill="#000000" fill-rule="evenodd" fill-opacity="1" /><path clip-path="url(#clip570)" d="M426.127 356.152 L426.127 354.207 L427.64 354.207 Q431.068 354.207 431.839 353.651 Q432.642 353.064 432.642 351.211 L432.642 317.886 Q432.642 316.064 431.839 315.508 Q431.037 314.921 427.64 314.921 L426.127 314.921 L426.127 312.945 Q428.35 313.13 435.483 313.13 Q442.554 313.13 444.777 312.945 L444.777 314.921 L443.264 314.921 Q439.836 314.921 439.034 315.508 Q438.262 316.064 438.262 317.886 L438.262 337.992 L458.053 319.091 Q459.196 318.071 459.196 316.99 Q459.196 316.62 459.011 316.218 Q458.856 315.786 458.115 315.354 Q457.405 314.921 456.263 314.921 L456.263 312.945 Q458.424 313.13 464.321 313.13 Q468.057 313.13 469.694 312.945 L469.694 314.921 Q464.445 314.983 460.709 318.72 L449.315 329.653 L463.92 351.149 Q465.248 353.095 466.544 353.651 Q467.841 354.207 470.558 354.207 L470.558 356.152 Q466.575 355.967 463.302 355.967 Q456.479 355.967 454.256 356.152 L454.256 354.207 Q457.992 354.207 457.992 352.292 Q457.992 351.582 457.034 350.13 L445.579 333.205 L438.262 340.154 L438.262 351.211 Q438.262 353.033 439.034 353.62 Q439.836 354.207 443.264 354.207 L444.777 354.207 L444.777 356.152 Q442.554 355.967 435.421 355.967 Q428.35 355.967 426.127 356.152 Z" fill="#000000" fill-rule="evenodd" fill-opacity="1" /><path clip-path="url(#clip570)" d="M475.19 356.152 L475.19 354.207 Q480.809 354.083 482.26 349.945 L495.352 312.142 Q495.599 311.369 495.877 311.122 Q496.155 310.875 496.865 310.875 Q497.235 310.875 497.451 310.937 Q497.698 310.999 497.853 311.215 Q498.007 311.431 498.069 311.555 Q498.131 311.678 498.316 312.142 L511.963 351.674 Q512.457 353.249 513.476 353.743 Q514.495 354.207 517.367 354.207 L518.478 354.207 L518.478 356.152 Q514.495 355.967 510.203 355.967 Q503.38 355.967 501.095 356.152 L501.095 354.207 Q506.344 354.207 506.344 352.292 Q506.344 352.168 506.158 351.396 L502.824 341.729 L487.201 341.729 L484.267 350.006 Q484.144 350.253 484.144 350.964 Q484.144 352.292 485.379 353.249 Q486.614 354.207 488.899 354.207 L488.899 356.152 Q482.816 355.967 481.612 355.967 Q479.543 355.967 475.19 356.152 M487.88 339.784 L502.114 339.784 L494.981 319.214 L487.88 339.784 Z" fill="#000000" fill-rule="evenodd" fill-opacity="1" /><path clip-path="url(#clip570)" d="M526.907 355.133 Q526.012 354.114 526.012 352.786 Q526.012 351.458 526.876 350.47 Q527.772 349.45 529.377 349.45 Q531.261 349.45 532.342 351.273 Q533.422 353.064 533.422 356.091 Q533.422 359.365 532.095 362.391 Q530.767 365.449 529.47 366.9 Q528.173 368.352 527.648 368.352 Q527.031 368.352 527.031 367.673 Q527.031 367.425 527.463 366.962 Q532.002 362.082 532.033 356.091 Q532.033 355.133 531.909 355.133 L531.755 355.257 Q530.674 356.152 529.377 356.152 Q527.803 356.152 526.907 355.133 Z" fill="#000000" fill-rule="evenodd" fill-opacity="1" /><path clip-path="url(#clip570)" d="M560.995 333.514 Q560.995 333.452 561.118 333.02 Q561.273 332.556 561.674 331.877 Q562.075 331.167 562.6 330.518 Q563.156 329.839 564.113 329.375 Q565.07 328.881 566.182 328.881 Q566.305 328.881 566.491 328.912 Q566.707 328.943 566.768 328.943 L583.967 328.943 Q584.8 328.943 585.109 329.221 Q585.418 329.468 585.418 330.394 L585.418 331.661 Q585.418 332.556 585.047 332.804 Q584.708 333.051 583.967 333.051 L573.901 333.051 L573.901 341.606 Q573.901 352.045 578.347 352.045 Q579.366 352.045 580.416 351.334 Q581.496 350.593 581.743 350.593 Q582.762 350.593 582.762 352.415 Q582.762 354.176 581.496 355.535 Q580.231 356.863 578.347 356.863 Q576.309 356.863 574.982 355.658 Q573.654 354.454 573.098 352.168 Q572.573 349.883 572.45 348.153 Q572.326 346.424 572.326 343.829 L572.326 333.051 L567.51 333.051 Q567.324 333.051 566.985 333.02 Q566.645 332.989 566.46 332.989 Q564.7 332.989 563.218 333.637 Q561.767 334.255 561.705 334.255 Q560.995 334.286 560.995 333.514 Z" fill="#000000" fill-rule="evenodd" fill-opacity="1" /><path clip-path="url(#clip570)" d="M612.681 346.547 Q612.743 345.775 613.947 345.775 L652.697 345.775 Q654.519 345.775 654.55 346.486 Q654.55 347.258 652.82 347.227 L614.38 347.227 Q612.681 347.258 612.681 346.547 M612.681 334.193 Q612.681 333.421 614.009 333.452 L652.635 333.452 Q654.519 333.452 654.55 334.193 Q654.55 334.904 652.944 334.904 L613.947 334.904 Q612.681 334.904 612.681 334.193 Z" fill="#000000" fill-rule="evenodd" fill-opacity="1" /><path clip-path="url(#clip570)" d="M684.901 320.048 L684.901 318.071 Q692.496 318.071 696.418 314.026 Q697.498 314.026 697.684 314.273 Q697.869 314.52 697.869 315.662 L697.869 351.149 Q697.869 353.033 698.795 353.62 Q699.721 354.207 703.766 354.207 L705.773 354.207 L705.773 356.152 Q703.55 355.967 695.522 355.967 Q687.494 355.967 685.302 356.152 L685.302 354.207 L687.309 354.207 Q691.292 354.207 692.249 353.651 Q693.207 353.064 693.207 351.149 L693.207 318.38 Q689.903 320.048 684.901 320.048 Z" fill="#000000" fill-rule="evenodd" fill-opacity="1" /><path clip-path="url(#clip570)" d="M713.369 335.923 Q713.369 326.627 715.715 321.561 Q718.988 314.026 726.707 314.026 Q728.344 314.026 730.042 314.489 Q731.771 314.921 733.932 316.62 Q736.124 318.319 737.452 321.098 Q739.984 326.472 739.984 335.923 Q739.984 345.157 737.637 350.192 Q734.21 357.542 726.645 357.542 Q723.805 357.542 720.903 356.091 Q718.031 354.639 716.209 351.149 Q713.369 345.93 713.369 335.923 M718.618 335.151 Q718.618 344.694 719.297 348.493 Q720.069 352.601 722.168 354.392 Q724.299 356.152 726.645 356.152 Q729.177 356.152 731.277 354.269 Q733.407 352.354 734.056 348.246 Q734.766 344.2 734.735 335.151 Q734.735 326.349 734.118 322.828 Q733.284 318.72 731.061 317.083 Q728.869 315.415 726.645 315.415 Q725.812 315.415 724.916 315.662 Q724.052 315.909 722.786 316.62 Q721.52 317.33 720.532 319.091 Q719.575 320.851 719.112 323.507 Q718.618 326.935 718.618 335.151 Z" fill="#000000" fill-rule="evenodd" fill-opacity="1" /><path clip-path="url(#clip570)" d="M744.986 335.923 Q744.986 326.627 747.333 321.561 Q750.605 314.026 758.324 314.026 Q759.961 314.026 761.659 314.489 Q763.388 314.921 765.55 316.62 Q767.742 318.319 769.069 321.098 Q771.601 326.472 771.601 335.923 Q771.601 345.157 769.255 350.192 Q765.827 357.542 758.263 357.542 Q755.422 357.542 752.52 356.091 Q749.648 354.639 747.827 351.149 Q744.986 345.93 744.986 335.923 M750.235 335.151 Q750.235 344.694 750.914 348.493 Q751.686 352.601 753.786 354.392 Q755.916 356.152 758.263 356.152 Q760.795 356.152 762.894 354.269 Q765.025 352.354 765.673 348.246 Q766.383 344.2 766.352 335.151 Q766.352 326.349 765.735 322.828 Q764.901 318.72 762.678 317.083 Q760.486 315.415 758.263 315.415 Q757.429 315.415 756.534 315.662 Q755.669 315.909 754.403 316.62 Q753.137 317.33 752.149 319.091 Q751.192 320.851 750.729 323.507 Q750.235 326.935 750.235 335.151 Z" fill="#000000" fill-rule="evenodd" fill-opacity="1" /><path clip-path="url(#clip570)" d="M776.603 335.923 Q776.603 326.627 778.95 321.561 Q782.223 314.026 789.942 314.026 Q791.578 314.026 793.276 314.489 Q795.005 314.921 797.167 316.62 Q799.359 318.319 800.687 321.098 Q803.218 326.472 803.218 335.923 Q803.218 345.157 800.872 350.192 Q797.445 357.542 789.88 357.542 Q787.039 357.542 784.137 356.091 Q781.266 354.639 779.444 351.149 Q776.603 345.93 776.603 335.923 M781.852 335.151 Q781.852 344.694 782.531 348.493 Q783.303 352.601 785.403 354.392 Q787.533 356.152 789.88 356.152 Q792.412 356.152 794.511 354.269 Q796.642 352.354 797.29 348.246 Q798 344.2 797.97 335.151 Q797.97 326.349 797.352 322.828 Q796.518 318.72 794.295 317.083 Q792.103 315.415 789.88 315.415 Q789.046 315.415 788.151 315.662 Q787.286 315.909 786.02 316.62 Q784.755 317.33 783.766 319.091 Q782.809 320.851 782.346 323.507 Q781.852 326.935 781.852 335.151 Z" fill="#000000" fill-rule="evenodd" fill-opacity="1" /><polyline clip-path="url(#clip570)" style="stroke:#b30000; stroke-linecap:round; stroke-linejoin:round; stroke-width:15.0028; stroke-opacity:1; fill:none" points="268.719,399.36 365.769,399.36 "/>
<path clip-path="url(#clip570)" d="M381.944 399.345 Q381.944 389.802 388.458 383.1 Q394.973 376.367 403.927 376.367 Q406.706 376.367 409.176 377.386 Q411.646 378.405 412.789 379.301 Q413.931 380.165 415.568 381.802 L418.748 377.139 Q419.242 376.367 419.736 376.367 Q420.261 376.367 420.354 376.676 Q420.446 376.953 420.446 377.88 L420.446 392.89 Q420.446 393.909 420.323 394.156 Q420.199 394.403 419.427 394.403 Q418.81 394.403 418.655 394.218 Q418.532 394.033 418.408 393.322 Q417.451 386.497 413.653 382.42 Q409.886 378.343 404.638 378.343 Q403.125 378.343 401.426 378.683 Q399.759 379.023 397.32 380.32 Q394.912 381.617 393.028 383.779 Q391.176 385.91 389.817 389.987 Q388.458 394.033 388.458 399.407 Q388.458 404.719 389.817 408.796 Q391.176 412.873 393.028 415.004 Q394.912 417.104 397.32 418.401 Q399.759 419.698 401.457 420.069 Q403.186 420.409 404.699 420.409 Q410.133 420.409 414.302 416.548 Q418.47 412.687 418.871 406.171 Q418.933 405.862 418.933 405.738 Q418.933 405.584 418.995 405.429 Q419.057 405.275 419.211 405.213 Q419.365 405.151 419.612 405.151 Q420.446 405.151 420.446 406.232 Q420.446 412.255 415.815 417.32 Q411.214 422.354 403.927 422.354 Q394.942 422.354 388.428 415.683 Q381.944 409.012 381.944 399.345 Z" fill="#000000" fill-rule="evenodd" fill-opacity="1" /><path clip-path="url(#clip570)" d="M426.127 420.964 L426.127 419.019 L427.64 419.019 Q431.068 419.019 431.839 418.463 Q432.642 417.876 432.642 416.023 L432.642 382.698 Q432.642 380.876 431.839 380.32 Q431.037 379.733 427.64 379.733 L426.127 379.733 L426.127 377.756 Q428.35 377.942 435.483 377.942 Q442.554 377.942 444.777 377.756 L444.777 379.733 L443.264 379.733 Q439.836 379.733 439.034 380.32 Q438.262 380.876 438.262 382.698 L438.262 402.804 L458.053 383.903 Q459.196 382.883 459.196 381.802 Q459.196 381.432 459.011 381.03 Q458.856 380.598 458.115 380.165 Q457.405 379.733 456.263 379.733 L456.263 377.756 Q458.424 377.942 464.321 377.942 Q468.057 377.942 469.694 377.756 L469.694 379.733 Q464.445 379.795 460.709 383.532 L449.315 394.465 L463.92 415.961 Q465.248 417.907 466.544 418.463 Q467.841 419.019 470.558 419.019 L470.558 420.964 Q466.575 420.779 463.302 420.779 Q456.479 420.779 454.256 420.964 L454.256 419.019 Q457.992 419.019 457.992 417.104 Q457.992 416.393 457.034 414.942 L445.579 398.017 L438.262 404.966 L438.262 416.023 Q438.262 417.845 439.034 418.432 Q439.836 419.019 443.264 419.019 L444.777 419.019 L444.777 420.964 Q442.554 420.779 435.421 420.779 Q428.35 420.779 426.127 420.964 Z" fill="#000000" fill-rule="evenodd" fill-opacity="1" /><path clip-path="url(#clip570)" d="M475.19 420.964 L475.19 419.019 Q480.809 418.895 482.26 414.757 L495.352 376.953 Q495.599 376.181 495.877 375.934 Q496.155 375.687 496.865 375.687 Q497.235 375.687 497.451 375.749 Q497.698 375.811 497.853 376.027 Q498.007 376.243 498.069 376.367 Q498.131 376.49 498.316 376.953 L511.963 416.486 Q512.457 418.061 513.476 418.555 Q514.495 419.019 517.367 419.019 L518.478 419.019 L518.478 420.964 Q514.495 420.779 510.203 420.779 Q503.38 420.779 501.095 420.964 L501.095 419.019 Q506.344 419.019 506.344 417.104 Q506.344 416.98 506.158 416.208 L502.824 406.541 L487.201 406.541 L484.267 414.818 Q484.144 415.065 484.144 415.776 Q484.144 417.104 485.379 418.061 Q486.614 419.019 488.899 419.019 L488.899 420.964 Q482.816 420.779 481.612 420.779 Q479.543 420.779 475.19 420.964 M487.88 404.595 L502.114 404.595 L494.981 384.026 L487.88 404.595 Z" fill="#000000" fill-rule="evenodd" fill-opacity="1" /><path clip-path="url(#clip570)" d="M526.907 419.945 Q526.012 418.926 526.012 417.598 Q526.012 416.27 526.876 415.282 Q527.772 414.262 529.377 414.262 Q531.261 414.262 532.342 416.085 Q533.422 417.876 533.422 420.903 Q533.422 424.176 532.095 427.203 Q530.767 430.261 529.47 431.712 Q528.173 433.164 527.648 433.164 Q527.031 433.164 527.031 432.485 Q527.031 432.237 527.463 431.774 Q532.002 426.894 532.033 420.903 Q532.033 419.945 531.909 419.945 L531.755 420.069 Q530.674 420.964 529.377 420.964 Q527.803 420.964 526.907 419.945 Z" fill="#000000" fill-rule="evenodd" fill-opacity="1" /><path clip-path="url(#clip570)" d="M561.149 420.964 L561.149 419.019 Q564.515 419.019 565.286 418.617 Q566.058 418.185 566.058 416.146 L566.058 399.191 Q566.058 396.843 565.225 396.257 Q564.422 395.67 561.149 395.67 L561.149 393.693 L570.041 393.014 L570.041 399.654 Q573.005 393.014 579.397 393.014 Q584.152 393.014 586.035 395.361 Q587.425 396.936 587.703 398.696 Q588.011 400.457 588.011 405.028 L588.011 417.104 Q588.073 418.432 589.092 418.741 Q590.111 419.019 592.952 419.019 L592.952 420.964 Q586.498 420.779 585.85 420.779 Q585.356 420.779 578.718 420.964 L578.718 419.019 Q582.083 419.019 582.855 418.617 Q583.658 418.185 583.658 416.146 L583.658 401.414 Q583.658 398.202 582.67 396.318 Q581.682 394.403 578.965 394.403 Q575.692 394.403 573.067 397.152 Q570.443 399.901 570.443 404.534 L570.443 416.146 Q570.443 418.185 571.215 418.617 Q572.017 419.019 575.352 419.019 L575.352 420.964 Q568.899 420.779 568.281 420.779 Q567.787 420.779 561.149 420.964 Z" fill="#000000" fill-rule="evenodd" fill-opacity="1" /><path clip-path="url(#clip570)" d="M600.115 417.567 Q595.947 413.429 595.947 407.437 Q595.947 401.414 600.022 397.029 Q604.129 392.612 609.995 392.612 Q615.738 392.612 619.845 396.998 Q623.982 401.353 623.982 407.437 Q623.982 413.398 619.814 417.536 Q615.676 421.675 609.933 421.675 Q604.314 421.675 600.115 417.567 M601.195 406.912 Q601.195 413.058 602.801 415.838 Q605.271 420.069 609.995 420.069 Q612.342 420.069 614.287 418.802 Q616.263 417.536 617.344 415.405 Q618.733 412.626 618.733 406.912 Q618.733 400.827 617.066 398.141 Q614.596 394.033 609.933 394.033 Q607.896 394.033 605.889 395.114 Q603.913 396.164 602.708 398.264 Q601.195 401.044 601.195 406.912 Z" fill="#000000" fill-rule="evenodd" fill-opacity="1" /><path clip-path="url(#clip570)" d="M648.035 395.67 L648.035 394.28 Q650.937 394.156 652.851 392.118 Q654.797 390.049 655.445 387.516 Q656.124 384.984 656.186 382.049 L657.761 382.049 L657.761 393.693 L666.807 393.693 L666.807 395.67 L657.761 395.67 L657.761 413.243 Q657.761 420.069 662.022 420.069 Q663.843 420.069 665.047 418.216 Q666.252 416.332 666.252 412.996 L666.252 409.506 L667.826 409.506 L667.826 413.12 Q667.826 416.548 666.252 419.111 Q664.677 421.675 661.558 421.675 Q660.416 421.675 659.274 421.366 Q658.162 421.088 656.68 420.347 Q655.229 419.575 654.303 417.722 Q653.407 415.838 653.407 413.12 L653.407 395.67 L648.035 395.67 Z" fill="#000000" fill-rule="evenodd" fill-opacity="1" /><path clip-path="url(#clip570)" d="M673.384 420.964 L673.384 419.019 Q676.75 419.019 677.521 418.617 Q678.293 418.185 678.293 416.146 L678.293 383.254 Q678.293 380.907 677.46 380.32 Q676.657 379.733 673.384 379.733 L673.384 377.756 L682.462 377.077 L682.462 399.067 L682.523 399.067 Q683.542 396.782 685.827 394.898 Q688.112 393.014 691.632 393.014 Q696.387 393.014 698.27 395.361 Q699.66 396.936 699.938 398.696 Q700.246 400.457 700.246 405.028 L700.246 417.104 Q700.308 418.432 701.327 418.741 Q702.346 419.019 705.187 419.019 L705.187 420.964 Q698.733 420.779 698.085 420.779 Q697.591 420.779 690.953 420.964 L690.953 419.019 Q694.318 419.019 695.09 418.617 Q695.893 418.185 695.893 416.146 L695.893 401.414 Q695.893 398.202 694.905 396.318 Q693.917 394.403 691.2 394.403 Q687.927 394.403 685.302 397.152 Q682.678 399.901 682.678 404.534 L682.678 416.146 Q682.678 418.185 683.45 418.617 Q684.252 419.019 687.587 419.019 L687.587 420.964 Q681.134 420.779 680.516 420.779 Q680.022 420.779 673.384 420.964 Z" fill="#000000" fill-rule="evenodd" fill-opacity="1" /><path clip-path="url(#clip570)" d="M708.182 420.964 L708.182 419.019 Q711.547 419.019 712.319 418.617 Q713.122 418.185 713.122 416.146 L713.122 399.191 Q713.122 396.843 712.288 396.257 Q711.485 395.67 708.182 395.67 L708.182 393.693 L716.981 393.014 L716.981 399.963 Q717.877 397.245 719.76 395.145 Q721.674 393.014 724.762 393.014 Q726.8 393.014 728.097 394.156 Q729.424 395.299 729.424 396.874 Q729.424 398.264 728.56 398.974 Q727.726 399.654 726.707 399.654 Q725.565 399.654 724.762 398.944 Q723.99 398.202 723.99 396.936 Q723.99 396.164 724.33 395.577 Q724.7 394.959 724.978 394.743 Q725.256 394.527 725.441 394.465 Q725.318 394.403 724.762 394.403 Q721.273 394.403 719.266 397.893 Q717.29 401.353 717.29 406.294 L717.29 416.023 Q717.29 417.845 718.031 418.432 Q718.803 419.019 722.107 419.019 L723.434 419.019 L723.434 420.964 Q720.903 420.779 715.407 420.779 Q714.635 420.779 713.43 420.81 Q712.226 420.841 710.652 420.903 Q709.077 420.964 708.182 420.964 Z" fill="#000000" fill-rule="evenodd" fill-opacity="1" /><path clip-path="url(#clip570)" d="M732.882 407.035 Q732.882 401.075 736.711 396.843 Q740.54 392.612 746.036 392.612 Q751.593 392.612 754.465 396.226 Q757.367 399.839 757.367 405.028 Q757.367 405.985 757.12 406.171 Q756.873 406.356 755.793 406.356 L738.131 406.356 Q738.131 412.811 740.046 415.838 Q742.701 420.069 747.178 420.069 Q747.796 420.069 748.537 419.945 Q749.278 419.822 750.791 419.297 Q752.304 418.741 753.631 417.289 Q754.959 415.838 755.731 413.552 Q755.916 412.656 756.534 412.687 Q757.367 412.687 757.367 413.429 Q757.367 413.984 756.75 415.251 Q756.163 416.486 755.021 417.969 Q753.878 419.451 751.655 420.563 Q749.463 421.675 746.808 421.675 Q741.25 421.675 737.051 417.474 Q732.882 413.243 732.882 407.035 M738.193 405.028 L753.199 405.028 Q753.199 403.7 752.952 402.217 Q752.736 400.735 752.057 398.696 Q751.408 396.627 749.864 395.33 Q748.321 394.033 746.036 394.033 Q745.017 394.033 743.905 394.465 Q742.825 394.898 741.497 395.948 Q740.169 396.998 739.243 399.376 Q738.317 401.754 738.193 405.028 Z" fill="#000000" fill-rule="evenodd" fill-opacity="1" /><path clip-path="url(#clip570)" d="M761.289 420.131 L761.289 411.792 Q761.289 411.081 761.319 410.834 Q761.35 410.587 761.536 410.402 Q761.721 410.216 762.091 410.216 Q762.524 410.216 762.678 410.402 Q762.863 410.587 762.987 411.297 Q763.944 415.652 765.982 417.969 Q768.05 420.254 771.787 420.254 Q775.337 420.254 777.128 418.679 Q778.919 417.104 778.919 414.509 Q778.919 409.877 772.342 408.703 Q768.545 407.931 766.97 407.437 Q765.395 406.912 764.006 405.769 Q761.289 403.545 761.289 400.395 Q761.289 397.245 763.666 394.928 Q766.074 392.612 771.385 392.612 Q774.936 392.612 777.344 394.403 Q778.054 393.848 778.425 393.384 Q779.259 392.612 779.691 392.612 Q780.185 392.612 780.277 392.952 Q780.37 393.261 780.37 394.156 L780.37 400.519 Q780.37 401.229 780.339 401.476 Q780.308 401.723 780.123 401.908 Q779.938 402.063 779.536 402.063 Q778.826 402.063 778.795 401.476 Q778.301 393.817 771.385 393.817 Q767.649 393.817 765.982 395.268 Q764.314 396.689 764.314 398.635 Q764.314 399.716 764.808 400.55 Q765.333 401.353 765.982 401.847 Q766.661 402.31 767.896 402.773 Q769.131 403.206 769.872 403.36 Q770.644 403.514 772.095 403.823 Q777.159 404.781 779.289 406.85 Q781.945 409.506 781.945 412.873 Q781.945 416.61 779.413 419.142 Q776.881 421.675 771.787 421.675 Q767.68 421.675 764.808 418.926 Q764.438 419.297 764.16 419.636 Q763.882 419.945 763.759 420.069 Q763.666 420.192 763.635 420.285 Q763.604 420.347 763.543 420.409 Q762.277 421.675 761.968 421.675 Q761.474 421.675 761.381 421.335 Q761.289 421.026 761.289 420.131 Z" fill="#000000" fill-rule="evenodd" fill-opacity="1" /><path clip-path="url(#clip570)" d="M786.113 420.964 L786.113 419.019 Q789.479 419.019 790.25 418.617 Q791.022 418.185 791.022 416.146 L791.022 383.254 Q791.022 380.907 790.189 380.32 Q789.386 379.733 786.113 379.733 L786.113 377.756 L795.191 377.077 L795.191 399.067 L795.252 399.067 Q796.271 396.782 798.556 394.898 Q800.841 393.014 804.361 393.014 Q809.116 393.014 810.999 395.361 Q812.389 396.936 812.667 398.696 Q812.975 400.457 812.975 405.028 L812.975 417.104 Q813.037 418.432 814.056 418.741 Q815.075 419.019 817.916 419.019 L817.916 420.964 Q811.462 420.779 810.814 420.779 Q810.32 420.779 803.682 420.964 L803.682 419.019 Q807.047 419.019 807.819 418.617 Q808.622 418.185 808.622 416.146 L808.622 401.414 Q808.622 398.202 807.634 396.318 Q806.646 394.403 803.929 394.403 Q800.656 394.403 798.031 397.152 Q795.407 399.901 795.407 404.534 L795.407 416.146 Q795.407 418.185 796.179 418.617 Q796.981 419.019 800.316 419.019 L800.316 420.964 Q793.863 420.779 793.245 420.779 Q792.751 420.779 786.113 420.964 Z" fill="#000000" fill-rule="evenodd" fill-opacity="1" /><path clip-path="url(#clip570)" d="M825.079 417.567 Q820.911 413.429 820.911 407.437 Q820.911 401.414 824.986 397.029 Q829.093 392.612 834.959 392.612 Q840.702 392.612 844.809 396.998 Q848.946 401.353 848.946 407.437 Q848.946 413.398 844.778 417.536 Q840.64 421.675 834.897 421.675 Q829.278 421.675 825.079 417.567 M826.16 406.912 Q826.16 413.058 827.765 415.838 Q830.235 420.069 834.959 420.069 Q837.306 420.069 839.251 418.802 Q841.227 417.536 842.308 415.405 Q843.697 412.626 843.697 406.912 Q843.697 400.827 842.03 398.141 Q839.56 394.033 834.897 394.033 Q832.86 394.033 830.853 395.114 Q828.877 396.164 827.672 398.264 Q826.16 401.044 826.16 406.912 Z" fill="#000000" fill-rule="evenodd" fill-opacity="1" /><path clip-path="url(#clip570)" d="M852.867 420.964 L852.867 419.019 Q856.233 419.019 857.005 418.617 Q857.777 418.185 857.777 416.146 L857.777 383.254 Q857.777 380.907 856.943 380.32 Q856.14 379.733 852.867 379.733 L852.867 377.756 L861.945 377.077 L861.945 416.146 Q861.945 418.185 862.748 418.617 Q863.551 419.019 866.885 419.019 L866.885 420.964 Q866.113 420.964 864.508 420.903 Q862.902 420.841 861.729 420.81 Q860.556 420.779 859.876 420.779 Q859.135 420.779 852.867 420.964 Z" fill="#000000" fill-rule="evenodd" fill-opacity="1" /><path clip-path="url(#clip570)" d="M870.436 407.375 Q870.436 401.353 874.635 397.183 Q878.834 393.014 884.516 393.014 Q889.332 393.014 892.482 396.936 L892.482 383.254 Q892.482 380.907 891.648 380.32 Q890.845 379.733 887.572 379.733 L887.572 377.756 L896.681 377.077 L896.681 415.467 Q896.681 417.814 897.484 418.432 Q898.317 419.019 901.59 419.019 L901.59 420.964 L892.296 421.675 L892.296 417.474 Q889.023 421.644 883.836 421.675 Q878.402 421.675 874.419 417.505 Q870.436 413.336 870.436 407.375 M875.685 407.437 Q875.685 413.305 877.507 416.208 Q880.038 420.254 884.145 420.254 Q888.838 420.254 891.617 415.838 Q892.327 414.757 892.296 413.49 L892.296 400.519 Q892.296 399.252 891.617 398.202 Q889.023 394.403 884.793 394.403 Q880.378 394.403 877.63 398.449 Q875.685 401.476 875.685 407.437 Z" fill="#000000" fill-rule="evenodd" fill-opacity="1" /></svg>
