<?xml version="1.0" encoding="utf-8"?>
<svg xmlns="http://www.w3.org/2000/svg" xmlns:xlink="http://www.w3.org/1999/xlink" width="426.75" height="263.5" viewBox="0 0 1707 1054">
<defs>
  <clipPath id="clip240">
    <rect x="0" y="0" width="1707" height="1054"/>
  </clipPath>
</defs>
<path clip-path="url(#clip240)" d="M0 1054 L1707 1054 L1707 0 L0 0  Z" fill="#ffffff" fill-rule="evenodd" fill-opacity="1"/>
<defs>
  <clipPath id="clip241">
    <rect x="341" y="0" width="1196" height="1054"/>
  </clipPath>
</defs>
<path clip-path="url(#clip240)" d="M233.114 875.894 L1659.76 875.894 L1659.76 47.2528 L233.114 47.2528  Z" fill="#ffffff" fill-rule="evenodd" fill-opacity="1"/>
<defs>
  <clipPath id="clip242">
    <rect x="233" y="47" width="1428" height="830"/>
  </clipPath>
</defs>
<polyline clip-path="url(#clip242)" style="stroke:#000000; stroke-linecap:round; stroke-linejoin:round; stroke-width:2.00037; stroke-opacity:0.1; fill:none" points="273.491,875.894 273.491,47.2528 "/>
<polyline clip-path="url(#clip242)" style="stroke:#000000; stroke-linecap:round; stroke-linejoin:round; stroke-width:2.00037; stroke-opacity:0.1; fill:none" points="637.649,875.894 637.649,47.2528 "/>
<polyline clip-path="url(#clip242)" style="stroke:#000000; stroke-linecap:round; stroke-linejoin:round; stroke-width:2.00037; stroke-opacity:0.1; fill:none" points="1001.81,875.894 1001.81,47.2528 "/>
<polyline clip-path="url(#clip242)" style="stroke:#000000; stroke-linecap:round; stroke-linejoin:round; stroke-width:2.00037; stroke-opacity:0.1; fill:none" points="1365.96,875.894 1365.96,47.2528 "/>
<polyline clip-path="url(#clip240)" style="stroke:#000000; stroke-linecap:round; stroke-linejoin:round; stroke-width:4.00074; stroke-opacity:1; fill:none" points="233.114,875.894 1659.76,875.894 "/>
<polyline clip-path="url(#clip240)" style="stroke:#000000; stroke-linecap:round; stroke-linejoin:round; stroke-width:4.00074; stroke-opacity:1; fill:none" points="233.114,47.2528 1659.76,47.2528 "/>
<polyline clip-path="url(#clip240)" style="stroke:#000000; stroke-linecap:round; stroke-linejoin:round; stroke-width:4.00074; stroke-opacity:1; fill:none" points="273.491,875.894 273.491,856.993 "/>
<polyline clip-path="url(#clip240)" style="stroke:#000000; stroke-linecap:round; stroke-linejoin:round; stroke-width:4.00074; stroke-opacity:1; fill:none" points="637.649,875.894 637.649,856.993 "/>
<polyline clip-path="url(#clip240)" style="stroke:#000000; stroke-linecap:round; stroke-linejoin:round; stroke-width:4.00074; stroke-opacity:1; fill:none" points="1001.81,875.894 1001.81,856.993 "/>
<polyline clip-path="url(#clip240)" style="stroke:#000000; stroke-linecap:round; stroke-linejoin:round; stroke-width:4.00074; stroke-opacity:1; fill:none" points="1365.96,875.894 1365.96,856.993 "/>
<path clip-path="url(#clip240)" d="M238.972 923.29 L238.972 921.511 Q245.808 921.511 249.338 917.869 Q250.31 917.869 250.477 918.092 Q250.644 918.314 250.644 919.342 L250.644 951.28 Q250.644 952.976 251.477 953.504 Q252.311 954.032 255.951 954.032 L257.758 954.032 L257.758 955.784 Q255.757 955.617 248.532 955.617 Q241.307 955.617 239.334 955.784 L239.334 954.032 L241.14 954.032 Q244.725 954.032 245.586 953.532 Q246.448 953.004 246.448 951.28 L246.448 921.789 Q243.474 923.29 238.972 923.29 Z" fill="#000000" fill-rule="evenodd" fill-opacity="1" /><path clip-path="url(#clip240)" d="M264.594 937.577 Q264.594 929.21 266.705 924.652 Q269.651 917.869 276.598 917.869 Q278.071 917.869 279.599 918.286 Q281.156 918.675 283.101 920.204 Q285.074 921.733 286.269 924.235 Q288.547 929.071 288.547 937.577 Q288.547 945.888 286.435 950.419 Q283.351 957.034 276.543 957.034 Q273.986 957.034 271.374 955.728 Q268.79 954.421 267.15 951.28 Q264.594 946.583 264.594 937.577 M269.318 936.882 Q269.318 945.471 269.929 948.89 Q270.624 952.587 272.513 954.199 Q274.431 955.784 276.543 955.784 Q278.821 955.784 280.711 954.088 Q282.628 952.365 283.212 948.668 Q283.851 945.026 283.823 936.882 Q283.823 928.96 283.267 925.791 Q282.517 922.094 280.516 920.621 Q278.543 919.12 276.543 919.12 Q275.792 919.12 274.986 919.342 Q274.208 919.565 273.069 920.204 Q271.93 920.843 271.04 922.428 Q270.179 924.012 269.762 926.403 Q269.318 929.488 269.318 936.882 Z" fill="#000000" fill-rule="evenodd" fill-opacity="1" /><path clip-path="url(#clip240)" d="M288.547 910.148 Q288.547 903.35 290.263 899.646 Q292.657 894.136 298.301 894.136 Q299.498 894.136 300.74 894.475 Q302.004 894.791 303.584 896.033 Q305.187 897.275 306.158 899.308 Q308.01 903.237 308.01 910.148 Q308.01 916.901 306.294 920.582 Q303.788 925.957 298.256 925.957 Q296.179 925.957 294.056 924.896 Q291.957 923.834 290.624 921.282 Q288.547 917.466 288.547 910.148 M292.386 909.584 Q292.386 916.562 292.882 919.34 Q293.447 922.344 294.982 923.654 Q296.54 924.941 298.256 924.941 Q300.107 924.941 301.643 923.563 Q303.201 922.163 303.675 919.159 Q304.194 916.201 304.171 909.584 Q304.171 903.147 303.72 900.572 Q303.11 897.569 301.485 896.372 Q299.882 895.152 298.256 895.152 Q297.646 895.152 296.992 895.333 Q296.359 895.513 295.434 896.033 Q294.508 896.552 293.785 897.84 Q293.085 899.127 292.747 901.069 Q292.386 903.576 292.386 909.584 Z" fill="#000000" fill-rule="evenodd" fill-opacity="1" /><path clip-path="url(#clip240)" d="M605.23 923.29 L605.23 921.511 Q612.066 921.511 615.595 917.869 Q616.568 917.869 616.735 918.092 Q616.901 918.314 616.901 919.342 L616.901 951.28 Q616.901 952.976 617.735 953.504 Q618.569 954.032 622.209 954.032 L624.015 954.032 L624.015 955.784 Q622.014 955.617 614.789 955.617 Q607.564 955.617 605.591 955.784 L605.591 954.032 L607.398 954.032 Q610.982 954.032 611.844 953.532 Q612.705 953.004 612.705 951.28 L612.705 921.789 Q609.732 923.29 605.23 923.29 Z" fill="#000000" fill-rule="evenodd" fill-opacity="1" /><path clip-path="url(#clip240)" d="M630.851 937.577 Q630.851 929.21 632.963 924.652 Q635.909 917.869 642.856 917.869 Q644.329 917.869 645.857 918.286 Q647.413 918.675 649.358 920.204 Q651.331 921.733 652.526 924.235 Q654.805 929.071 654.805 937.577 Q654.805 945.888 652.693 950.419 Q649.609 957.034 642.8 957.034 Q640.244 957.034 637.632 955.728 Q635.047 954.421 633.408 951.28 Q630.851 946.583 630.851 937.577 M635.575 936.882 Q635.575 945.471 636.187 948.89 Q636.881 952.587 638.771 954.199 Q640.688 955.784 642.8 955.784 Q645.079 955.784 646.969 954.088 Q648.886 952.365 649.47 948.668 Q650.109 945.026 650.081 936.882 Q650.081 928.96 649.525 925.791 Q648.775 922.094 646.774 920.621 Q644.801 919.12 642.8 919.12 Q642.05 919.12 641.244 919.342 Q640.466 919.565 639.327 920.204 Q638.187 920.843 637.298 922.428 Q636.437 924.012 636.02 926.403 Q635.575 929.488 635.575 936.882 Z" fill="#000000" fill-rule="evenodd" fill-opacity="1" /><path clip-path="url(#clip240)" d="M654.805 898.54 L654.805 897.094 Q660.359 897.094 663.227 894.136 Q664.017 894.136 664.152 894.316 Q664.288 894.497 664.288 895.333 L664.288 921.282 Q664.288 922.66 664.965 923.089 Q665.643 923.518 668.6 923.518 L670.068 923.518 L670.068 924.941 Q668.442 924.806 662.572 924.806 Q656.702 924.806 655.098 924.941 L655.098 923.518 L656.566 923.518 Q659.479 923.518 660.179 923.112 Q660.879 922.683 660.879 921.282 L660.879 897.32 Q658.463 898.54 654.805 898.54 Z" fill="#000000" fill-rule="evenodd" fill-opacity="1" /><path clip-path="url(#clip240)" d="M967.785 923.29 L967.785 921.511 Q974.621 921.511 978.15 917.869 Q979.123 917.869 979.289 918.092 Q979.456 918.314 979.456 919.342 L979.456 951.28 Q979.456 952.976 980.29 953.504 Q981.124 954.032 984.764 954.032 L986.57 954.032 L986.57 955.784 Q984.569 955.617 977.344 955.617 Q970.119 955.617 968.146 955.784 L968.146 954.032 L969.953 954.032 Q973.537 954.032 974.399 953.532 Q975.26 953.004 975.26 951.28 L975.26 921.789 Q972.287 923.29 967.785 923.29 Z" fill="#000000" fill-rule="evenodd" fill-opacity="1" /><path clip-path="url(#clip240)" d="M993.406 937.577 Q993.406 929.21 995.518 924.652 Q998.464 917.869 1005.41 917.869 Q1006.88 917.869 1008.41 918.286 Q1009.97 918.675 1011.91 920.204 Q1013.89 921.733 1015.08 924.235 Q1017.36 929.071 1017.36 937.577 Q1017.36 945.888 1015.25 950.419 Q1012.16 957.034 1005.36 957.034 Q1002.8 957.034 1000.19 955.728 Q997.602 954.421 995.963 951.28 Q993.406 946.583 993.406 937.577 M998.13 936.882 Q998.13 945.471 998.741 948.89 Q999.436 952.587 1001.33 954.199 Q1003.24 955.784 1005.36 955.784 Q1007.63 955.784 1009.52 954.088 Q1011.44 952.365 1012.02 948.668 Q1012.66 945.026 1012.64 936.882 Q1012.64 928.96 1012.08 925.791 Q1011.33 922.094 1009.33 920.621 Q1007.36 919.12 1005.36 919.12 Q1004.6 919.12 1003.8 919.342 Q1003.02 919.565 1001.88 920.204 Q1000.74 920.843 999.853 922.428 Q998.992 924.012 998.575 926.403 Q998.13 929.488 998.13 936.882 Z" fill="#000000" fill-rule="evenodd" fill-opacity="1" /><path clip-path="url(#clip240)" d="M1017.36 924.941 Q1017.36 924.105 1017.43 923.857 Q1017.52 923.609 1017.88 923.225 L1026.75 913.333 Q1031.61 907.867 1031.61 903.102 Q1031.61 900.008 1029.98 897.794 Q1028.38 895.581 1025.42 895.581 Q1023.39 895.581 1021.67 896.823 Q1019.96 898.065 1019.17 900.279 Q1019.3 900.234 1019.78 900.234 Q1020.93 900.234 1021.56 900.956 Q1022.21 901.679 1022.21 902.65 Q1022.21 903.892 1021.4 904.502 Q1020.61 905.089 1019.82 905.089 Q1019.5 905.089 1019.08 905.022 Q1018.67 904.954 1018.01 904.321 Q1017.36 903.666 1017.36 902.515 Q1017.36 899.285 1019.8 896.71 Q1022.26 894.136 1026.01 894.136 Q1030.25 894.136 1033.03 896.665 Q1035.83 899.172 1035.83 903.102 Q1035.83 904.48 1035.4 905.744 Q1034.99 906.986 1034.43 907.958 Q1033.89 908.929 1032.4 910.487 Q1030.91 912.045 1029.71 913.152 Q1028.51 914.259 1025.83 916.607 L1020.93 921.373 L1029.26 921.373 Q1033.32 921.373 1033.64 921.011 Q1034.09 920.356 1034.65 916.901 L1035.83 916.901 L1034.52 924.941 L1017.36 924.941 Z" fill="#000000" fill-rule="evenodd" fill-opacity="1" /><path clip-path="url(#clip240)" d="M1331.58 923.29 L1331.58 921.511 Q1338.42 921.511 1341.95 917.869 Q1342.92 917.869 1343.09 918.092 Q1343.25 918.314 1343.25 919.342 L1343.25 951.28 Q1343.25 952.976 1344.09 953.504 Q1344.92 954.032 1348.56 954.032 L1350.37 954.032 L1350.37 955.784 Q1348.37 955.617 1341.14 955.617 Q1333.92 955.617 1331.94 955.784 L1331.94 954.032 L1333.75 954.032 Q1337.33 954.032 1338.2 953.532 Q1339.06 953.004 1339.06 951.28 L1339.06 921.789 Q1336.08 923.29 1331.58 923.29 Z" fill="#000000" fill-rule="evenodd" fill-opacity="1" /><path clip-path="url(#clip240)" d="M1357.2 937.577 Q1357.2 929.21 1359.31 924.652 Q1362.26 917.869 1369.21 917.869 Q1370.68 917.869 1372.21 918.286 Q1373.76 918.675 1375.71 920.204 Q1377.68 921.733 1378.88 924.235 Q1381.16 929.071 1381.16 937.577 Q1381.16 945.888 1379.04 950.419 Q1375.96 957.034 1369.15 957.034 Q1366.6 957.034 1363.98 955.728 Q1361.4 954.421 1359.76 951.28 Q1357.2 946.583 1357.2 937.577 M1361.93 936.882 Q1361.93 945.471 1362.54 948.89 Q1363.23 952.587 1365.12 954.199 Q1367.04 955.784 1369.15 955.784 Q1371.43 955.784 1373.32 954.088 Q1375.24 952.365 1375.82 948.668 Q1376.46 945.026 1376.43 936.882 Q1376.43 928.96 1375.88 925.791 Q1375.13 922.094 1373.13 920.621 Q1371.15 919.12 1369.15 919.12 Q1368.4 919.12 1367.6 919.342 Q1366.82 919.565 1365.68 920.204 Q1364.54 920.843 1363.65 922.428 Q1362.79 924.012 1362.37 926.403 Q1361.93 929.488 1361.93 936.882 Z" fill="#000000" fill-rule="evenodd" fill-opacity="1" /><path clip-path="url(#clip240)" d="M1381.16 918.708 Q1381.16 917.33 1381.95 916.675 Q1382.74 916.02 1383.75 916.02 Q1384.81 916.02 1385.56 916.72 Q1386.33 917.398 1386.33 918.595 Q1386.33 919.882 1385.42 920.605 Q1384.54 921.328 1383.28 921.147 Q1384.39 922.999 1386.42 923.834 Q1388.47 924.67 1390.37 924.67 Q1392.36 924.67 1393.96 922.954 Q1395.58 921.237 1395.58 917.037 Q1395.58 913.468 1394.18 911.413 Q1392.81 909.358 1390.07 909.358 L1388.04 909.358 Q1387.34 909.358 1387.14 909.29 Q1386.94 909.222 1386.94 908.838 Q1386.94 908.387 1387.64 908.296 Q1388.34 908.296 1389.44 908.161 Q1392.13 908.07 1393.55 905.744 Q1394.84 903.576 1394.84 900.482 Q1394.84 897.659 1393.48 896.485 Q1392.15 895.288 1390.41 895.288 Q1388.79 895.288 1387 895.965 Q1385.22 896.643 1384.25 898.156 Q1387.12 898.156 1387.12 900.482 Q1387.12 901.498 1386.46 902.176 Q1385.83 902.831 1384.77 902.831 Q1383.75 902.831 1383.08 902.198 Q1382.4 901.544 1382.4 900.437 Q1382.4 897.794 1384.75 895.965 Q1387.12 894.136 1390.59 894.136 Q1394.03 894.136 1396.55 895.943 Q1399.11 897.749 1399.11 900.527 Q1399.11 903.26 1397.3 905.496 Q1395.49 907.732 1392.63 908.658 Q1396.15 909.358 1398.25 911.752 Q1400.35 914.123 1400.35 917.037 Q1400.35 920.65 1397.5 923.315 Q1394.66 925.957 1390.5 925.957 Q1386.67 925.957 1383.91 923.88 Q1381.16 921.802 1381.16 918.708 Z" fill="#000000" fill-rule="evenodd" fill-opacity="1" /><path clip-path="url(#clip240)" d="M817.452 1010.98 Q817.452 1001.32 823.627 994.584 Q829.833 987.82 838.448 987.82 Q847.124 987.82 853.299 994.584 Q859.505 1001.35 859.505 1010.98 Q859.505 1020.53 853.299 1027.17 Q847.093 1033.81 838.448 1033.81 Q829.926 1033.81 823.689 1027.2 Q817.452 1020.59 817.452 1010.98 M823.967 1010.09 Q823.967 1015.96 825.356 1020.47 Q826.746 1024.94 828.969 1027.38 Q831.223 1029.82 833.631 1031 Q836.04 1032.17 838.51 1032.17 Q840.918 1032.17 843.265 1031.03 Q845.642 1029.89 847.896 1027.48 Q850.15 1025.07 851.57 1020.56 Q852.991 1016.05 852.991 1010.09 Q852.991 1005.46 852.003 1001.75 Q851.014 998.012 849.471 995.758 Q847.927 993.503 845.92 992.021 Q843.944 990.538 842.06 989.982 Q840.208 989.396 838.448 989.396 Q836.225 989.396 833.909 990.384 Q831.593 991.372 829.247 993.565 Q826.931 995.727 825.449 1000.02 Q823.967 1004.28 823.967 1010.09 Z" fill="#000000" fill-rule="evenodd" fill-opacity="1" /><path clip-path="url(#clip240)" d="M864.229 1007.12 L864.229 1005.15 Q867.07 1005.33 870.374 1005.33 Q871.578 1005.33 877.259 1005.15 L877.259 1007.12 Q873.647 1007.12 873.647 1008.76 Q873.647 1009.01 874.017 1009.84 L881.119 1027.48 L887.572 1011.35 Q887.942 1010.27 887.942 1009.84 Q887.942 1008.76 887.201 1007.99 Q886.491 1007.19 884.917 1007.12 L884.917 1005.15 Q888.128 1005.33 890.413 1005.33 Q893.006 1005.33 895.137 1005.15 L895.137 1007.12 Q893.253 1007.12 891.925 1007.99 Q890.598 1008.82 890.165 1009.56 Q889.764 1010.27 889.332 1011.35 L881.057 1031.92 Q880.563 1033.13 879.729 1033.13 Q879.174 1033.13 878.927 1032.88 Q878.71 1032.67 878.402 1031.92 L869.293 1009.47 Q868.676 1007.9 867.873 1007.52 Q867.07 1007.12 864.229 1007.12 Z" fill="#000000" fill-rule="evenodd" fill-opacity="1" /><path clip-path="url(#clip240)" d="M896.341 1018.49 Q896.341 1012.53 900.169 1008.3 Q903.998 1004.07 909.494 1004.07 Q915.052 1004.07 917.923 1007.68 Q920.826 1011.29 920.826 1016.48 Q920.826 1017.44 920.579 1017.62 Q920.332 1017.81 919.251 1017.81 L901.59 1017.81 Q901.59 1024.26 903.504 1027.29 Q906.159 1031.52 910.636 1031.52 Q911.254 1031.52 911.995 1031.4 Q912.736 1031.28 914.249 1030.75 Q915.762 1030.19 917.09 1028.74 Q918.417 1027.29 919.189 1025.01 Q919.374 1024.11 919.992 1024.14 Q920.826 1024.14 920.826 1024.88 Q920.826 1025.44 920.208 1026.7 Q919.621 1027.94 918.479 1029.42 Q917.337 1030.9 915.113 1032.02 Q912.921 1033.13 910.266 1033.13 Q904.708 1033.13 900.509 1028.93 Q896.341 1024.7 896.341 1018.49 M901.651 1016.48 L916.657 1016.48 Q916.657 1015.15 916.41 1013.67 Q916.194 1012.19 915.515 1010.15 Q914.866 1008.08 913.323 1006.78 Q911.779 1005.49 909.494 1005.49 Q908.475 1005.49 907.364 1005.92 Q906.283 1006.35 904.955 1007.4 Q903.628 1008.45 902.701 1010.83 Q901.775 1013.21 901.651 1016.48 Z" fill="#000000" fill-rule="evenodd" fill-opacity="1" /><path clip-path="url(#clip240)" d="M924.407 1032.42 L924.407 1030.47 Q927.773 1030.47 928.545 1030.07 Q929.347 1029.64 929.347 1027.6 L929.347 1010.64 Q929.347 1008.3 928.514 1007.71 Q927.711 1007.12 924.407 1007.12 L924.407 1005.15 L933.207 1004.47 L933.207 1011.42 Q934.102 1008.7 935.986 1006.6 Q937.9 1004.47 940.988 1004.47 Q943.026 1004.47 944.322 1005.61 Q945.65 1006.75 945.65 1008.33 Q945.65 1009.72 944.786 1010.43 Q943.952 1011.11 942.933 1011.11 Q941.791 1011.11 940.988 1010.4 Q940.216 1009.66 940.216 1008.39 Q940.216 1007.62 940.555 1007.03 Q940.926 1006.41 941.204 1006.2 Q941.482 1005.98 941.667 1005.92 Q941.544 1005.86 940.988 1005.86 Q937.499 1005.86 935.492 1009.35 Q933.516 1012.81 933.516 1017.75 L933.516 1027.48 Q933.516 1029.3 934.257 1029.89 Q935.029 1030.47 938.332 1030.47 L939.66 1030.47 L939.66 1032.42 Q937.128 1032.23 931.632 1032.23 Q930.86 1032.23 929.656 1032.26 Q928.452 1032.29 926.877 1032.36 Q925.303 1032.42 924.407 1032.42 Z" fill="#000000" fill-rule="evenodd" fill-opacity="1" /><path clip-path="url(#clip240)" d="M949.386 1032.42 L949.386 1030.47 Q952.752 1030.47 953.523 1030.07 Q954.295 1029.64 954.295 1027.6 L954.295 994.708 Q954.295 992.36 953.462 991.774 Q952.659 991.187 949.386 991.187 L949.386 989.21 L958.464 988.531 L958.464 1010.52 L958.525 1010.52 Q959.544 1008.24 961.829 1006.35 Q964.114 1004.47 967.634 1004.47 Q972.389 1004.47 974.272 1006.81 Q975.662 1008.39 975.94 1010.15 Q976.248 1011.91 976.248 1016.48 L976.248 1028.56 Q976.31 1029.89 977.329 1030.19 Q978.348 1030.47 981.189 1030.47 L981.189 1032.42 Q974.735 1032.23 974.087 1032.23 Q973.593 1032.23 966.955 1032.42 L966.955 1030.47 Q970.32 1030.47 971.092 1030.07 Q971.895 1029.64 971.895 1027.6 L971.895 1012.87 Q971.895 1009.66 970.907 1007.77 Q969.919 1005.86 967.202 1005.86 Q963.929 1005.86 961.304 1008.61 Q958.68 1011.35 958.68 1015.99 L958.68 1027.6 Q958.68 1029.64 959.452 1030.07 Q960.254 1030.47 963.589 1030.47 L963.589 1032.42 Q957.136 1032.23 956.518 1032.23 Q956.024 1032.23 949.386 1032.42 Z" fill="#000000" fill-rule="evenodd" fill-opacity="1" /><path clip-path="url(#clip240)" d="M984.184 1018.49 Q984.184 1012.53 988.012 1008.3 Q991.841 1004.07 997.337 1004.07 Q1002.89 1004.07 1005.77 1007.68 Q1008.67 1011.29 1008.67 1016.48 Q1008.67 1017.44 1008.42 1017.62 Q1008.17 1017.81 1007.09 1017.81 L989.433 1017.81 Q989.433 1024.26 991.347 1027.29 Q994.002 1031.52 998.479 1031.52 Q999.097 1031.52 999.838 1031.4 Q1000.58 1031.28 1002.09 1030.75 Q1003.6 1030.19 1004.93 1028.74 Q1006.26 1027.29 1007.03 1025.01 Q1007.22 1024.11 1007.83 1024.14 Q1008.67 1024.14 1008.67 1024.88 Q1008.67 1025.44 1008.05 1026.7 Q1007.46 1027.94 1006.32 1029.42 Q1005.18 1030.9 1002.96 1032.02 Q1000.76 1033.13 998.109 1033.13 Q992.551 1033.13 988.352 1028.93 Q984.184 1024.7 984.184 1018.49 M989.494 1016.48 L1004.5 1016.48 Q1004.5 1015.15 1004.25 1013.67 Q1004.04 1012.19 1003.36 1010.15 Q1002.71 1008.08 1001.17 1006.78 Q999.622 1005.49 997.337 1005.49 Q996.318 1005.49 995.206 1005.92 Q994.126 1006.35 992.798 1007.4 Q991.47 1008.45 990.544 1010.83 Q989.618 1013.21 989.494 1016.48 Z" fill="#000000" fill-rule="evenodd" fill-opacity="1" /><path clip-path="url(#clip240)" d="M1013.15 1026.4 Q1013.15 1021.02 1019.48 1018.18 Q1023.27 1016.36 1031.12 1015.89 L1031.12 1013.58 Q1031.12 1009.66 1029.05 1007.59 Q1027.01 1005.49 1024.42 1005.49 Q1019.78 1005.49 1017.56 1008.39 Q1019.44 1008.45 1020.12 1009.41 Q1020.8 1010.34 1020.8 1011.29 Q1020.8 1012.56 1020 1013.39 Q1019.23 1014.2 1017.9 1014.2 Q1016.63 1014.2 1015.8 1013.42 Q1014.97 1012.62 1014.97 1011.23 Q1014.97 1008.14 1017.75 1006.1 Q1020.56 1004.07 1024.54 1004.07 Q1029.73 1004.07 1033.18 1007.56 Q1034.26 1008.64 1034.79 1010.03 Q1035.35 1011.42 1035.41 1012.34 Q1035.47 1013.24 1035.47 1015.03 L1035.47 1027.66 Q1035.47 1028.03 1035.59 1028.65 Q1035.72 1029.27 1036.27 1030.07 Q1036.86 1030.84 1037.82 1030.84 Q1040.1 1030.84 1040.07 1026.8 L1040.07 1023.25 L1041.68 1023.25 L1041.68 1026.8 Q1041.68 1030.16 1039.88 1031.49 Q1038.12 1032.79 1036.49 1032.79 Q1034.39 1032.79 1033.06 1031.24 Q1031.73 1029.7 1031.55 1027.6 Q1030.59 1030.01 1028.4 1031.58 Q1026.24 1033.13 1023.27 1033.13 Q1020.99 1033.13 1018.83 1032.54 Q1016.7 1031.99 1014.91 1030.41 Q1013.15 1028.8 1013.15 1026.4 M1018.02 1026.33 Q1018.02 1028.68 1019.69 1030.19 Q1021.36 1031.71 1023.71 1031.71 Q1026.36 1031.71 1028.74 1029.67 Q1031.12 1027.6 1031.12 1023.55 L1031.12 1017.22 Q1024.11 1017.47 1021.05 1020.28 Q1018.02 1023.06 1018.02 1026.33 Z" fill="#000000" fill-rule="evenodd" fill-opacity="1" /><path clip-path="url(#clip240)" d="M1044.27 1018.83 Q1044.27 1012.81 1048.47 1008.64 Q1052.67 1004.47 1058.35 1004.47 Q1063.16 1004.47 1066.31 1008.39 L1066.31 994.708 Q1066.31 992.36 1065.48 991.774 Q1064.68 991.187 1061.4 991.187 L1061.4 989.21 L1070.51 988.531 L1070.51 1026.92 Q1070.51 1029.27 1071.32 1029.89 Q1072.15 1030.47 1075.42 1030.47 L1075.42 1032.42 L1066.13 1033.13 L1066.13 1028.93 Q1062.86 1033.1 1057.67 1033.13 Q1052.23 1033.13 1048.25 1028.96 Q1044.27 1024.79 1044.27 1018.83 M1049.52 1018.89 Q1049.52 1024.76 1051.34 1027.66 Q1053.87 1031.71 1057.98 1031.71 Q1062.67 1031.71 1065.45 1027.29 Q1066.16 1026.21 1066.13 1024.94 L1066.13 1011.97 Q1066.13 1010.71 1065.45 1009.66 Q1062.86 1005.86 1058.63 1005.86 Q1054.21 1005.86 1051.46 1009.9 Q1049.52 1012.93 1049.52 1018.89 Z" fill="#000000" fill-rule="evenodd" fill-opacity="1" /><polyline clip-path="url(#clip242)" style="stroke:#000000; stroke-linecap:round; stroke-linejoin:round; stroke-width:2.00037; stroke-opacity:0.1; fill:none" points="233.114,875.894 1659.76,875.894 "/>
<polyline clip-path="url(#clip242)" style="stroke:#000000; stroke-linecap:round; stroke-linejoin:round; stroke-width:2.00037; stroke-opacity:0.1; fill:none" points="233.114,654.923 1659.76,654.923 "/>
<polyline clip-path="url(#clip242)" style="stroke:#000000; stroke-linecap:round; stroke-linejoin:round; stroke-width:2.00037; stroke-opacity:0.1; fill:none" points="233.114,433.952 1659.76,433.952 "/>
<polyline clip-path="url(#clip242)" style="stroke:#000000; stroke-linecap:round; stroke-linejoin:round; stroke-width:2.00037; stroke-opacity:0.1; fill:none" points="233.114,212.981 1659.76,212.981 "/>
<polyline clip-path="url(#clip240)" style="stroke:#000000; stroke-linecap:round; stroke-linejoin:round; stroke-width:4.00074; stroke-opacity:1; fill:none" points="233.114,875.894 233.114,47.2528 "/>
<polyline clip-path="url(#clip240)" style="stroke:#000000; stroke-linecap:round; stroke-linejoin:round; stroke-width:4.00074; stroke-opacity:1; fill:none" points="1659.76,875.894 1659.76,47.2528 "/>
<polyline clip-path="url(#clip240)" style="stroke:#000000; stroke-linecap:round; stroke-linejoin:round; stroke-width:4.00074; stroke-opacity:1; fill:none" points="233.114,875.894 252.01,875.894 "/>
<polyline clip-path="url(#clip240)" style="stroke:#000000; stroke-linecap:round; stroke-linejoin:round; stroke-width:4.00074; stroke-opacity:1; fill:none" points="233.114,654.923 252.01,654.923 "/>
<polyline clip-path="url(#clip240)" style="stroke:#000000; stroke-linecap:round; stroke-linejoin:round; stroke-width:4.00074; stroke-opacity:1; fill:none" points="233.114,433.952 252.01,433.952 "/>
<polyline clip-path="url(#clip240)" style="stroke:#000000; stroke-linecap:round; stroke-linejoin:round; stroke-width:4.00074; stroke-opacity:1; fill:none" points="233.114,212.981 252.01,212.981 "/>
<path clip-path="url(#clip240)" d="M110.833 877.131 Q110.833 868.764 112.945 864.206 Q115.89 857.423 122.837 857.423 Q124.31 857.423 125.839 857.84 Q127.395 858.229 129.34 859.758 Q131.313 861.287 132.508 863.789 Q134.787 868.625 134.787 877.131 Q134.787 885.442 132.675 889.973 Q129.59 896.588 122.782 896.588 Q120.225 896.588 117.613 895.282 Q115.029 893.976 113.389 890.835 Q110.833 886.137 110.833 877.131 M115.557 876.436 Q115.557 885.025 116.168 888.444 Q116.863 892.141 118.753 893.753 Q120.67 895.338 122.782 895.338 Q125.061 895.338 126.95 893.642 Q128.868 891.919 129.451 888.222 Q130.09 884.58 130.062 876.436 Q130.062 868.514 129.507 865.345 Q128.756 861.648 126.756 860.175 Q124.783 858.674 122.782 858.674 Q122.032 858.674 121.226 858.896 Q120.448 859.119 119.308 859.758 Q118.169 860.397 117.28 861.982 Q116.418 863.566 116.001 865.957 Q115.557 869.042 115.557 876.436 Z" fill="#000000" fill-rule="evenodd" fill-opacity="1" /><path clip-path="url(#clip240)" d="M142.762 894.42 Q141.9 893.503 141.9 892.308 Q141.9 891.112 142.762 890.251 Q143.623 889.361 144.929 889.361 Q146.18 889.361 147.014 890.195 Q147.875 891.001 147.875 892.336 Q147.875 893.642 146.958 894.504 Q146.069 895.338 144.929 895.338 Q143.623 895.338 142.762 894.42 Z" fill="#000000" fill-rule="evenodd" fill-opacity="1" /><path clip-path="url(#clip240)" d="M155.1 877.131 Q155.1 868.764 157.212 864.206 Q160.158 857.423 167.105 857.423 Q168.577 857.423 170.106 857.84 Q171.662 858.229 173.607 859.758 Q175.58 861.287 176.775 863.789 Q179.054 868.625 179.054 877.131 Q179.054 885.442 176.942 889.973 Q173.857 896.588 167.049 896.588 Q164.493 896.588 161.88 895.282 Q159.296 893.976 157.657 890.835 Q155.1 886.137 155.1 877.131 M159.824 876.436 Q159.824 885.025 160.435 888.444 Q161.13 892.141 163.02 893.753 Q164.937 895.338 167.049 895.338 Q169.328 895.338 171.217 893.642 Q173.135 891.919 173.718 888.222 Q174.358 884.58 174.33 876.436 Q174.33 868.514 173.774 865.345 Q173.024 861.648 171.023 860.175 Q169.05 858.674 167.049 858.674 Q166.299 858.674 165.493 858.896 Q164.715 859.119 163.576 859.758 Q162.436 860.397 161.547 861.982 Q160.686 863.566 160.269 865.957 Q159.824 869.042 159.824 876.436 Z" fill="#000000" fill-rule="evenodd" fill-opacity="1" /><path clip-path="url(#clip240)" d="M183.556 877.131 Q183.556 868.764 185.667 864.206 Q188.613 857.423 195.56 857.423 Q197.033 857.423 198.561 857.84 Q200.118 858.229 202.063 859.758 Q204.036 861.287 205.231 863.789 Q207.509 868.625 207.509 877.131 Q207.509 885.442 205.397 889.973 Q202.313 896.588 195.505 896.588 Q192.948 896.588 190.336 895.282 Q187.752 893.976 186.112 890.835 Q183.556 886.137 183.556 877.131 M188.28 876.436 Q188.28 885.025 188.891 888.444 Q189.586 892.141 191.475 893.753 Q193.393 895.338 195.505 895.338 Q197.783 895.338 199.673 893.642 Q201.59 891.919 202.174 888.222 Q202.813 884.58 202.785 876.436 Q202.785 868.514 202.229 865.345 Q201.479 861.648 199.478 860.175 Q197.505 858.674 195.505 858.674 Q194.754 858.674 193.948 858.896 Q193.17 859.119 192.031 859.758 Q190.892 860.397 190.002 861.982 Q189.141 863.566 188.724 865.957 Q188.28 869.042 188.28 876.436 Z" fill="#000000" fill-rule="evenodd" fill-opacity="1" /><path clip-path="url(#clip240)" d="M111.444 656.16 Q111.444 647.793 113.556 643.235 Q116.502 636.452 123.449 636.452 Q124.922 636.452 126.45 636.869 Q128.006 637.258 129.951 638.787 Q131.924 640.316 133.119 642.818 Q135.398 647.654 135.398 656.16 Q135.398 664.471 133.286 669.002 Q130.201 675.617 123.393 675.617 Q120.837 675.617 118.225 674.311 Q115.64 673.005 114.001 669.864 Q111.444 665.166 111.444 656.16 M116.168 655.465 Q116.168 664.054 116.78 667.473 Q117.474 671.17 119.364 672.782 Q121.281 674.367 123.393 674.367 Q125.672 674.367 127.562 672.671 Q129.479 670.948 130.062 667.251 Q130.702 663.609 130.674 655.465 Q130.674 647.543 130.118 644.374 Q129.368 640.677 127.367 639.204 Q125.394 637.703 123.393 637.703 Q122.643 637.703 121.837 637.925 Q121.059 638.148 119.92 638.787 Q118.78 639.426 117.891 641.011 Q117.03 642.595 116.613 644.986 Q116.168 648.071 116.168 655.465 Z" fill="#000000" fill-rule="evenodd" fill-opacity="1" /><path clip-path="url(#clip240)" d="M143.373 673.449 Q142.512 672.532 142.512 671.337 Q142.512 670.142 143.373 669.28 Q144.235 668.39 145.541 668.39 Q146.791 668.39 147.625 669.224 Q148.486 670.03 148.486 671.365 Q148.486 672.671 147.569 673.533 Q146.68 674.367 145.541 674.367 Q144.235 674.367 143.373 673.449 Z" fill="#000000" fill-rule="evenodd" fill-opacity="1" /><path clip-path="url(#clip240)" d="M155.711 656.16 Q155.711 647.793 157.823 643.235 Q160.769 636.452 167.716 636.452 Q169.189 636.452 170.717 636.869 Q172.273 637.258 174.219 638.787 Q176.192 640.316 177.386 642.818 Q179.665 647.654 179.665 656.16 Q179.665 664.471 177.553 669.002 Q174.469 675.617 167.66 675.617 Q165.104 675.617 162.492 674.311 Q159.907 673.005 158.268 669.864 Q155.711 665.166 155.711 656.16 M160.435 655.465 Q160.435 664.054 161.047 667.473 Q161.741 671.17 163.631 672.782 Q165.549 674.367 167.66 674.367 Q169.939 674.367 171.829 672.671 Q173.746 670.948 174.33 667.251 Q174.969 663.609 174.941 655.465 Q174.941 647.543 174.385 644.374 Q173.635 640.677 171.634 639.204 Q169.661 637.703 167.66 637.703 Q166.91 637.703 166.104 637.925 Q165.326 638.148 164.187 638.787 Q163.048 639.426 162.158 641.011 Q161.297 642.595 160.88 644.986 Q160.435 648.071 160.435 655.465 Z" fill="#000000" fill-rule="evenodd" fill-opacity="1" /><path clip-path="url(#clip240)" d="M184.778 674.367 Q184.778 673.338 184.862 673.032 Q184.973 672.727 185.417 672.254 L196.338 660.079 Q202.313 653.352 202.313 647.487 Q202.313 643.679 200.312 640.955 Q198.339 638.231 194.699 638.231 Q192.198 638.231 190.086 639.76 Q187.974 641.289 187.001 644.013 Q187.168 643.957 187.752 643.957 Q189.169 643.957 189.947 644.847 Q190.753 645.736 190.753 646.932 Q190.753 648.46 189.752 649.211 Q188.78 649.934 187.807 649.934 Q187.418 649.934 186.89 649.85 Q186.39 649.767 185.584 648.988 Q184.778 648.182 184.778 646.765 Q184.778 642.79 187.779 639.621 Q190.808 636.452 195.421 636.452 Q200.646 636.452 204.063 639.565 Q207.509 642.651 207.509 647.487 Q207.509 649.183 206.981 650.74 Q206.481 652.268 205.786 653.464 Q205.119 654.659 203.285 656.577 Q201.451 658.495 199.979 659.857 Q198.506 661.219 195.199 664.11 L189.169 669.975 L199.423 669.975 Q204.425 669.975 204.814 669.53 Q205.37 668.724 206.064 664.471 L207.509 664.471 L205.898 674.367 L184.778 674.367 Z" fill="#000000" fill-rule="evenodd" fill-opacity="1" /><path clip-path="url(#clip240)" d="M110.194 435.189 Q110.194 426.822 112.306 422.264 Q115.251 415.481 122.198 415.481 Q123.671 415.481 125.199 415.898 Q126.756 416.287 128.701 417.816 Q130.674 419.345 131.869 421.847 Q134.147 426.683 134.147 435.189 Q134.147 443.5 132.035 448.031 Q128.951 454.646 122.143 454.646 Q119.586 454.646 116.974 453.34 Q114.39 452.034 112.75 448.893 Q110.194 444.195 110.194 435.189 M114.918 434.494 Q114.918 443.083 115.529 446.502 Q116.224 450.199 118.113 451.811 Q120.031 453.396 122.143 453.396 Q124.421 453.396 126.311 451.7 Q128.228 449.977 128.812 446.28 Q129.451 442.638 129.423 434.494 Q129.423 426.572 128.868 423.403 Q128.117 419.706 126.117 418.233 Q124.144 416.732 122.143 416.732 Q121.392 416.732 120.587 416.955 Q119.809 417.177 118.669 417.816 Q117.53 418.456 116.641 420.04 Q115.779 421.624 115.362 424.015 Q114.918 427.1 114.918 434.494 Z" fill="#000000" fill-rule="evenodd" fill-opacity="1" /><path clip-path="url(#clip240)" d="M142.123 452.478 Q141.261 451.561 141.261 450.366 Q141.261 449.171 142.123 448.309 Q142.984 447.419 144.29 447.419 Q145.541 447.419 146.374 448.253 Q147.236 449.059 147.236 450.394 Q147.236 451.7 146.319 452.562 Q145.43 453.396 144.29 453.396 Q142.984 453.396 142.123 452.478 Z" fill="#000000" fill-rule="evenodd" fill-opacity="1" /><path clip-path="url(#clip240)" d="M154.461 435.189 Q154.461 426.822 156.573 422.264 Q159.518 415.481 166.466 415.481 Q167.938 415.481 169.467 415.898 Q171.023 416.287 172.968 417.816 Q174.941 419.345 176.136 421.847 Q178.415 426.683 178.415 435.189 Q178.415 443.5 176.303 448.031 Q173.218 454.646 166.41 454.646 Q163.853 454.646 161.241 453.34 Q158.657 452.034 157.017 448.893 Q154.461 444.195 154.461 435.189 M159.185 434.494 Q159.185 443.083 159.796 446.502 Q160.491 450.199 162.381 451.811 Q164.298 453.396 166.41 453.396 Q168.689 453.396 170.578 451.7 Q172.496 449.977 173.079 446.28 Q173.718 442.638 173.691 434.494 Q173.691 426.572 173.135 423.403 Q172.385 419.706 170.384 418.233 Q168.411 416.732 166.41 416.732 Q165.66 416.732 164.854 416.955 Q164.076 417.177 162.936 417.816 Q161.797 418.456 160.908 420.04 Q160.046 421.624 159.63 424.015 Q159.185 427.1 159.185 434.494 Z" fill="#000000" fill-rule="evenodd" fill-opacity="1" /><path clip-path="url(#clip240)" d="M182.277 444 L182.277 442.249 L199.756 415.537 Q200.201 414.842 200.896 414.87 Q201.535 414.87 201.674 415.12 Q201.813 415.37 201.813 416.343 L201.813 442.249 L207.509 442.249 L207.509 444 L201.813 444 L201.813 448.948 Q201.813 450.588 202.48 451.116 Q203.174 451.644 206.12 451.644 L207.315 451.644 L207.315 453.396 Q204.981 453.229 199.59 453.229 Q194.226 453.229 191.892 453.396 L191.892 451.644 L193.087 451.644 Q196.033 451.644 196.727 451.144 Q197.422 450.616 197.422 448.948 L197.422 444 L182.277 444 M183.889 442.249 L197.755 442.249 L197.755 421.013 L183.889 442.249 Z" fill="#000000" fill-rule="evenodd" fill-opacity="1" /><path clip-path="url(#clip240)" d="M111 214.218 Q111 205.851 113.111 201.293 Q116.057 194.51 123.004 194.51 Q124.477 194.51 126.005 194.927 Q127.562 195.316 129.507 196.845 Q131.48 198.374 132.675 200.876 Q134.953 205.712 134.953 214.218 Q134.953 222.529 132.841 227.06 Q129.757 233.675 122.949 233.675 Q120.392 233.675 117.78 232.369 Q115.196 231.063 113.556 227.922 Q111 223.224 111 214.218 M115.724 213.523 Q115.724 222.112 116.335 225.531 Q117.03 229.228 118.919 230.84 Q120.837 232.425 122.949 232.425 Q125.227 232.425 127.117 230.729 Q129.034 229.006 129.618 225.309 Q130.257 221.667 130.229 213.523 Q130.229 205.601 129.673 202.432 Q128.923 198.735 126.922 197.262 Q124.949 195.761 122.949 195.761 Q122.198 195.761 121.392 195.984 Q120.614 196.206 119.475 196.845 Q118.336 197.485 117.446 199.069 Q116.585 200.653 116.168 203.044 Q115.724 206.129 115.724 213.523 Z" fill="#000000" fill-rule="evenodd" fill-opacity="1" /><path clip-path="url(#clip240)" d="M142.929 231.507 Q142.067 230.59 142.067 229.395 Q142.067 228.2 142.929 227.338 Q143.79 226.448 145.096 226.448 Q146.347 226.448 147.18 227.282 Q148.042 228.088 148.042 229.423 Q148.042 230.729 147.125 231.591 Q146.235 232.425 145.096 232.425 Q143.79 232.425 142.929 231.507 Z" fill="#000000" fill-rule="evenodd" fill-opacity="1" /><path clip-path="url(#clip240)" d="M155.267 214.218 Q155.267 205.851 157.379 201.293 Q160.324 194.51 167.271 194.51 Q168.744 194.51 170.273 194.927 Q171.829 195.316 173.774 196.845 Q175.747 198.374 176.942 200.876 Q179.221 205.712 179.221 214.218 Q179.221 222.529 177.109 227.06 Q174.024 233.675 167.216 233.675 Q164.659 233.675 162.047 232.369 Q159.463 231.063 157.823 227.922 Q155.267 223.224 155.267 214.218 M159.991 213.523 Q159.991 222.112 160.602 225.531 Q161.297 229.228 163.186 230.84 Q165.104 232.425 167.216 232.425 Q169.494 232.425 171.384 230.729 Q173.302 229.006 173.885 225.309 Q174.524 221.667 174.496 213.523 Q174.496 205.601 173.941 202.432 Q173.19 198.735 171.19 197.262 Q169.217 195.761 167.216 195.761 Q166.466 195.761 165.66 195.984 Q164.882 196.206 163.742 196.845 Q162.603 197.485 161.714 199.069 Q160.852 200.653 160.435 203.044 Q159.991 206.129 159.991 213.523 Z" fill="#000000" fill-rule="evenodd" fill-opacity="1" /><path clip-path="url(#clip240)" d="M183.889 214.44 Q183.889 205.49 188.446 200.014 Q193.004 194.51 198.867 194.51 Q202.285 194.51 204.175 196.261 Q206.092 197.985 206.092 200.653 Q206.092 202.127 205.231 202.766 Q204.369 203.405 203.48 203.405 Q202.452 203.405 201.646 202.71 Q200.84 202.015 200.84 200.765 Q200.84 198.207 203.98 198.207 Q202.507 195.928 198.978 195.928 Q197.894 195.928 196.783 196.261 Q195.671 196.567 194.226 197.624 Q192.781 198.68 191.67 200.348 Q190.558 202.015 189.78 205.156 Q189.002 208.297 189.002 212.383 L189.002 213.745 Q191.336 208.103 196.116 208.131 Q200.896 208.131 204.202 211.772 Q207.509 215.413 207.509 220.806 Q207.509 226.337 204.063 230.006 Q200.618 233.675 195.783 233.675 Q193.615 233.675 191.642 232.758 Q189.697 231.869 187.863 229.812 Q186.056 227.755 184.973 223.808 Q183.889 219.861 183.889 214.44 M189.113 219.555 Q189.113 225.142 190.141 227.81 Q190.308 228.255 190.669 228.867 Q191.058 229.478 191.698 230.284 Q192.365 231.063 193.448 231.591 Q194.532 232.091 195.783 232.091 Q199.59 232.091 201.424 228.394 Q202.396 226.337 202.396 220.75 Q202.396 215.052 201.368 212.967 Q199.617 209.437 196.06 209.437 Q193.671 209.437 192.003 211.077 Q190.364 212.717 189.725 214.913 Q189.113 217.109 189.113 219.555 Z" fill="#000000" fill-rule="evenodd" fill-opacity="1" /><path clip-path="url(#clip240)" d="M71.6299 584.572 L69.6847 584.572 L69.6847 582.905 Q69.6847 579.353 69.1289 578.55 Q68.5423 577.716 66.6897 577.716 L33.3743 577.716 Q31.5526 577.716 30.9968 578.55 Q30.4102 579.384 30.4102 582.905 L30.4102 584.572 L28.4341 584.572 Q28.6194 582.349 28.6194 574.875 Q28.6194 567.462 28.4341 565.269 L30.4102 565.269 L30.4102 566.906 Q30.4102 570.458 30.9968 571.292 Q31.5526 572.095 33.3743 572.095 L66.6897 572.095 Q68.5114 572.095 69.0981 571.292 Q69.6847 570.458 69.6847 566.906 L69.6847 565.269 L71.6299 565.269 Q71.4447 567.493 71.4447 574.936 Q71.4447 582.349 71.6299 584.572 Z" fill="#000000" fill-rule="evenodd" fill-opacity="1" /><path clip-path="url(#clip240)" d="M71.6299 561.471 L69.6847 561.471 Q69.6847 558.104 69.2833 557.332 Q68.8511 556.56 66.8132 556.56 L49.8622 556.56 Q47.5156 556.56 46.9289 557.394 Q46.3423 558.197 46.3423 561.471 L44.3662 561.471 L43.6869 552.576 L50.3253 552.576 Q43.6869 549.611 43.6869 543.218 Q43.6869 538.461 46.0335 536.577 Q47.6082 535.188 49.3682 534.91 Q51.1281 534.601 55.6978 534.601 L67.7704 534.601 Q69.0981 534.539 69.4068 533.52 Q69.6847 532.501 69.6847 529.659 L71.6299 529.659 Q71.4447 536.114 71.4447 536.763 Q71.4447 537.257 71.6299 543.897 L69.6847 543.897 Q69.6847 540.531 69.2833 539.758 Q68.8511 538.955 66.8132 538.955 L52.0853 538.955 Q48.8741 538.955 46.9907 539.944 Q45.0764 540.932 45.0764 543.65 Q45.0764 546.924 47.8244 549.549 Q50.5723 552.174 55.2038 552.174 L66.8132 552.174 Q68.8511 552.174 69.2833 551.402 Q69.6847 550.599 69.6847 547.264 L71.6299 547.264 Q71.4447 553.718 71.4447 554.336 Q71.4447 554.83 71.6299 561.471 Z" fill="#000000" fill-rule="evenodd" fill-opacity="1" /><path clip-path="url(#clip240)" d="M46.3423 526.324 L44.3662 526.324 L44.3662 521.351 L37.1103 521.351 Q32.4171 521.351 29.7309 518.324 Q27.0447 515.267 27.0447 511.53 Q27.0447 509.059 28.3723 507.453 Q29.7 505.847 31.4908 505.847 Q32.695 505.847 33.4978 506.588 Q34.2697 507.298 34.2697 508.627 Q34.2697 509.893 33.4669 510.634 Q32.6641 511.344 31.5526 511.344 Q29.5148 511.344 28.8972 509.46 Q28.465 510.418 28.4341 511.53 Q28.4341 513.815 30.7807 515.606 Q33.1273 517.367 37.0486 517.367 L44.3662 517.367 L44.3662 509.955 L46.3423 509.955 L46.3423 517.151 L66.6897 517.151 Q68.5114 517.151 69.0981 516.41 Q69.6847 515.637 69.6847 512.364 L69.6847 511.036 L71.6299 511.036 Q71.4447 513.568 71.4447 519.066 Q71.4447 519.838 71.4755 521.042 Q71.5064 522.216 71.5682 523.822 Q71.6299 525.397 71.6299 526.262 L69.6847 526.262 Q69.6847 522.895 69.2833 522.123 Q68.8511 521.351 66.8132 521.351 L46.3423 521.351 L46.3423 526.324 Z" fill="#000000" fill-rule="evenodd" fill-opacity="1" /><path clip-path="url(#clip240)" d="M71.6299 507.051 L69.6847 507.051 Q69.6847 503.685 69.2833 502.913 Q68.8511 502.141 66.8132 502.141 L49.8004 502.141 Q47.4538 502.141 46.8981 502.944 Q46.3423 503.716 46.3423 506.804 L44.3662 506.804 L43.6869 497.971 L66.875 497.971 Q68.7584 497.971 69.2216 497.292 Q69.6847 496.612 69.6847 493.524 L71.6299 493.524 Q71.4447 499.979 71.4447 500.102 Q71.4447 500.967 71.6299 507.051 M32.6641 504.395 Q31.3982 504.395 30.3793 503.438 Q29.3295 502.45 29.3295 501.06 Q29.3295 499.67 30.2867 498.682 Q31.213 497.693 32.695 497.693 Q34.1462 497.693 35.1034 498.682 Q36.0296 499.67 36.0296 501.06 Q36.0296 502.511 35.0107 503.469 Q33.9918 504.395 32.6641 504.395 Z" fill="#000000" fill-rule="evenodd" fill-opacity="1" /><path clip-path="url(#clip240)" d="M58.0444 489.478 Q52.0235 489.478 47.8552 485.278 Q43.6869 481.077 43.6869 475.394 Q43.6869 470.576 47.6082 467.426 L33.9301 467.426 Q31.5835 467.426 30.9968 468.26 Q30.4102 469.063 30.4102 472.337 L28.4341 472.337 L27.7548 463.226 L66.1339 463.226 Q68.4805 463.226 69.0981 462.423 Q69.6847 461.589 69.6847 458.315 L71.6299 458.315 L72.3401 467.611 L68.1409 467.611 Q72.3092 470.885 72.3401 476.074 Q72.3401 481.51 68.1718 485.494 Q64.0035 489.478 58.0444 489.478 M58.1061 484.227 Q63.9726 484.227 66.875 482.405 Q70.9198 479.873 70.9198 475.765 Q70.9198 471.07 66.5045 468.291 Q65.4238 467.58 64.1579 467.611 L51.1899 467.611 Q49.9239 467.611 48.8741 468.291 Q45.0764 470.885 45.0764 475.116 Q45.0764 479.533 49.1212 482.282 Q52.147 484.227 58.1061 484.227 Z" fill="#000000" fill-rule="evenodd" fill-opacity="1" /><path clip-path="url(#clip240)" d="M57.7047 454.794 Q51.7456 454.794 47.5156 450.964 Q43.2856 447.135 43.2856 441.637 Q43.2856 436.078 46.8981 433.206 Q50.5106 430.302 55.6978 430.302 Q56.6549 430.302 56.8402 430.55 Q57.0255 430.797 57.0255 431.878 L57.0255 449.544 Q63.4786 449.544 66.5045 447.629 Q70.7345 444.973 70.7345 440.494 Q70.7345 439.877 70.611 439.136 Q70.4875 438.394 69.9626 436.881 Q69.4068 435.368 67.9556 434.04 Q66.5045 432.711 64.2196 431.939 Q63.3242 431.754 63.3551 431.136 Q63.3551 430.302 64.0961 430.302 Q64.6519 430.302 65.9178 430.92 Q67.1529 431.507 68.6349 432.65 Q70.117 433.792 71.2285 436.016 Q72.3401 438.209 72.3401 440.865 Q72.3401 446.424 68.1409 450.625 Q63.9109 454.794 57.7047 454.794 M55.6978 449.482 L55.6978 434.472 Q54.3701 434.472 52.8881 434.719 Q51.406 434.935 49.3682 435.615 Q47.2995 436.263 46.0027 437.807 Q44.7059 439.352 44.7059 441.637 Q44.7059 442.656 45.1381 443.768 Q45.5704 444.849 46.6202 446.177 Q47.67 447.505 50.0474 448.432 Q52.4249 449.358 55.6978 449.482 Z" fill="#000000" fill-rule="evenodd" fill-opacity="1" /><path clip-path="url(#clip240)" d="M71.6299 426.38 L69.6847 426.38 Q69.6847 423.014 69.2833 422.241 Q68.8511 421.469 66.8132 421.469 L33.9301 421.469 Q31.5835 421.469 30.9968 422.303 Q30.4102 423.106 30.4102 426.38 L28.4341 426.38 L27.7548 417.3 L66.8132 417.3 Q68.8511 417.3 69.2833 416.497 Q69.6847 415.694 69.6847 412.358 L71.6299 412.358 Q71.6299 413.13 71.5682 414.736 Q71.5064 416.342 71.4755 417.516 Q71.4447 418.69 71.4447 419.369 Q71.4447 420.11 71.6299 426.38 Z" fill="#000000" fill-rule="evenodd" fill-opacity="1" /><path clip-path="url(#clip240)" d="M71.6299 408.868 L69.6847 408.868 Q69.6847 405.502 69.2833 404.73 Q68.8511 403.958 66.8132 403.958 L49.8004 403.958 Q47.4538 403.958 46.8981 404.761 Q46.3423 405.533 46.3423 408.621 L44.3662 408.621 L43.6869 399.788 L66.875 399.788 Q68.7584 399.788 69.2216 399.109 Q69.6847 398.429 69.6847 395.341 L71.6299 395.341 Q71.4447 401.796 71.4447 401.919 Q71.4447 402.784 71.6299 408.868 M32.6641 406.212 Q31.3982 406.212 30.3793 405.255 Q29.3295 404.266 29.3295 402.877 Q29.3295 401.487 30.2867 400.499 Q31.213 399.51 32.695 399.51 Q34.1462 399.51 35.1034 400.499 Q36.0296 401.487 36.0296 402.877 Q36.0296 404.328 35.0107 405.286 Q33.9918 406.212 32.6641 406.212 Z" fill="#000000" fill-rule="evenodd" fill-opacity="1" /><path clip-path="url(#clip240)" d="M46.3423 392.252 L44.9529 392.252 Q44.8294 389.349 42.7915 387.434 Q40.7228 385.488 38.191 384.84 Q35.6591 384.16 32.7259 384.099 L32.7259 382.524 L44.3662 382.524 L44.3662 373.474 L46.3423 373.474 L46.3423 382.524 L63.9109 382.524 Q70.7345 382.524 70.7345 378.261 Q70.7345 376.439 68.8819 375.235 Q66.9985 374.03 63.6638 374.03 L60.1748 374.03 L60.1748 372.455 L63.7874 372.455 Q67.2146 372.455 69.7773 374.03 Q72.3401 375.605 72.3401 378.725 Q72.3401 379.867 72.0313 381.01 Q71.7534 382.122 71.0124 383.604 Q70.2405 385.056 68.3879 385.983 Q66.5045 386.878 63.7874 386.878 L46.3423 386.878 L46.3423 392.252 Z" fill="#000000" fill-rule="evenodd" fill-opacity="1" /><path clip-path="url(#clip240)" d="M79.4725 369.49 Q78.1448 369.49 77.4346 368.718 Q76.7554 367.915 76.7554 366.834 Q76.7554 365.691 77.4655 364.95 Q78.2065 364.178 79.4107 364.178 Q81.7573 364.178 82.0661 366.649 Q83.2085 365.444 83.2085 363.684 Q83.2085 361.8 81.8191 360.286 Q80.4296 358.742 79.102 358.094 Q77.7743 357.414 75.3659 356.457 Q73.4825 355.561 71.6299 354.882 L48.5345 364.363 Q47.0216 364.981 46.6819 365.938 Q46.3423 366.896 46.3423 369.49 L44.3662 369.49 Q44.5515 366.649 44.5515 363.344 Q44.5515 361.398 44.3662 356.457 L46.3423 356.457 Q46.3423 360.008 47.9787 360.008 Q48.164 360.008 49.1212 359.638 L66.1339 352.596 L50.5723 346.203 Q49.6769 345.832 49.0594 345.832 Q46.4658 345.832 46.3423 348.797 L44.3662 348.797 Q44.5515 344.628 44.5515 343.3 Q44.5515 340.705 44.3662 338.574 L46.3423 338.574 Q46.3423 342.806 50.3871 344.442 L77.3729 355.592 Q84.567 358.619 84.5979 363.684 Q84.5979 366.093 83.1159 367.791 Q81.6338 369.49 79.4725 369.49 Z" fill="#000000" fill-rule="evenodd" fill-opacity="1" /><path clip-path="url(#clip242)" d="M1364.92 843.373 L1348.92 875.379 L1380.93 875.379 L1364.92 843.373 Z" fill="#dcb0f2" fill-rule="evenodd" fill-opacity="1" stroke="#000000" stroke-opacity="1" stroke-width="2.108"/>
<path clip-path="url(#clip242)" d="M1000.96 794.137 L984.954 810.14 L1000.96 826.143 L1016.96 810.14 L1000.96 794.137 Z" fill="#f89c74" fill-rule="evenodd" fill-opacity="1" stroke="#000000" stroke-opacity="1" stroke-width="2.108"/>
<path clip-path="url(#clip242)" d="M304.353 411.907 L290.494 403.906 L290.494 387.903 L304.353 379.901 L318.211 387.903 L318.211 403.906 Z" fill="#f6cf71" fill-rule="evenodd" fill-opacity="1" stroke="#000000" stroke-opacity="1" stroke-width="2.108"/>
<path clip-path="url(#clip242)" d="M273.491 215.118 L269.73 225.936 L258.272 226.176 L267.41 233.105 L264.081 244.067 L273.491 237.522 L282.901 244.067 L279.572 233.105 L288.71 226.176 L277.252 225.936 L273.491 215.118 Z" fill="#66c5cc" fill-rule="evenodd" fill-opacity="1" stroke="#000000" stroke-opacity="1" stroke-width="2.108"/>
<circle clip-path="url(#clip242)" cx="1619.38" cy="861.824" r="14.4027" fill="#000000" fill-rule="evenodd" fill-opacity="1" stroke="none"/>
<circle clip-path="url(#clip242)" cx="1256.26" cy="851.555" r="14.4027" fill="#000000" fill-rule="evenodd" fill-opacity="1" stroke="none"/>
<circle clip-path="url(#clip242)" cx="1144.96" cy="832.457" r="14.4027" fill="#000000" fill-rule="evenodd" fill-opacity="1" stroke="none"/>
<circle clip-path="url(#clip242)" cx="890.918" cy="779.918" r="14.4027" fill="#000000" fill-rule="evenodd" fill-opacity="1" stroke="none"/>
<circle clip-path="url(#clip242)" cx="781.534" cy="685.234" r="14.4027" fill="#000000" fill-rule="evenodd" fill-opacity="1" stroke="none"/>
<circle clip-path="url(#clip242)" cx="636.836" cy="589.447" r="14.4027" fill="#000000" fill-rule="evenodd" fill-opacity="1" stroke="none"/>
<circle clip-path="url(#clip242)" cx="527.893" cy="529.633" r="14.4027" fill="#000000" fill-rule="evenodd" fill-opacity="1" stroke="none"/>
<path clip-path="url(#clip240)" d="M1048.27 398.934 L1612.21 398.934 L1612.21 74.8742 L1048.27 74.8742  Z" fill="#ffffff" fill-rule="evenodd" fill-opacity="1"/>
<polyline clip-path="url(#clip240)" style="stroke:#000000; stroke-linecap:round; stroke-linejoin:round; stroke-width:4.00074; stroke-opacity:1; fill:none" points="1048.27,398.934 1612.21,398.934 1612.21,74.8742 1048.27,74.8742 1048.27,398.934 "/>
<path clip-path="url(#clip240)" d="M1111.67 107.68 L1079.67 171.692 L1143.68 171.692 L1111.67 107.68 Z" fill="#dcb0f2" fill-rule="evenodd" fill-opacity="1" stroke="#000000" stroke-opacity="1" stroke-width="4.216"/>
<path clip-path="url(#clip240)" d="M1175.08 139.671 Q1175.08 130.127 1181.59 123.425 Q1188.11 116.692 1197.06 116.692 Q1199.84 116.692 1202.31 117.712 Q1204.78 118.731 1205.92 119.626 Q1207.07 120.491 1208.7 122.128 L1211.88 117.464 Q1212.38 116.692 1212.87 116.692 Q1213.4 116.692 1213.49 117.001 Q1213.58 117.279 1213.58 118.206 L1213.58 133.216 Q1213.58 134.235 1213.46 134.482 Q1213.33 134.729 1212.56 134.729 Q1211.95 134.729 1211.79 134.544 Q1211.67 134.358 1211.54 133.648 Q1210.59 126.823 1206.79 122.746 Q1203.02 118.669 1197.77 118.669 Q1196.26 118.669 1194.56 119.009 Q1192.89 119.348 1190.46 120.646 Q1188.05 121.943 1186.16 124.105 Q1184.31 126.236 1182.95 130.313 Q1181.59 134.358 1181.59 139.732 Q1181.59 145.045 1182.95 149.121 Q1184.31 153.198 1186.16 155.329 Q1188.05 157.429 1190.46 158.727 Q1192.89 160.024 1194.59 160.394 Q1196.32 160.734 1197.83 160.734 Q1203.27 160.734 1207.44 156.874 Q1211.61 153.013 1212.01 146.496 Q1212.07 146.187 1212.07 146.064 Q1212.07 145.909 1212.13 145.755 Q1212.19 145.601 1212.35 145.539 Q1212.5 145.477 1212.75 145.477 Q1213.58 145.477 1213.58 146.558 Q1213.58 152.581 1208.95 157.646 Q1204.35 162.68 1197.06 162.68 Q1188.08 162.68 1181.56 156.009 Q1175.08 149.338 1175.08 139.671 Z" fill="#000000" fill-rule="evenodd" fill-opacity="1" /><path clip-path="url(#clip240)" d="M1219.26 161.29 L1219.26 159.344 L1220.78 159.344 Q1224.2 159.344 1224.97 158.788 Q1225.78 158.202 1225.78 156.349 L1225.78 123.024 Q1225.78 121.202 1224.97 120.646 Q1224.17 120.059 1220.78 120.059 L1219.26 120.059 L1219.26 118.082 Q1221.49 118.267 1228.62 118.267 Q1235.69 118.267 1237.91 118.082 L1237.91 120.059 L1236.4 120.059 Q1232.97 120.059 1232.17 120.646 Q1231.4 121.202 1231.4 123.024 L1231.4 143.13 L1251.19 124.228 Q1252.33 123.209 1252.33 122.128 Q1252.33 121.757 1252.15 121.356 Q1251.99 120.924 1251.25 120.491 Q1250.54 120.059 1249.4 120.059 L1249.4 118.082 Q1251.56 118.267 1257.46 118.267 Q1261.19 118.267 1262.83 118.082 L1262.83 120.059 Q1257.58 120.121 1253.84 123.858 L1242.45 134.791 L1257.06 156.287 Q1258.38 158.232 1259.68 158.788 Q1260.98 159.344 1263.69 159.344 L1263.69 161.29 Q1259.71 161.105 1256.44 161.105 Q1249.61 161.105 1247.39 161.29 L1247.39 159.344 Q1251.13 159.344 1251.13 157.429 Q1251.13 156.719 1250.17 155.268 L1238.71 138.343 L1231.4 145.292 L1231.4 156.349 Q1231.4 158.171 1232.17 158.758 Q1232.97 159.344 1236.4 159.344 L1237.91 159.344 L1237.91 161.29 Q1235.69 161.105 1228.56 161.105 Q1221.49 161.105 1219.26 161.29 Z" fill="#000000" fill-rule="evenodd" fill-opacity="1" /><path clip-path="url(#clip240)" d="M1268.33 161.29 L1268.33 159.344 Q1273.94 159.221 1275.4 155.082 L1288.49 117.279 Q1288.73 116.507 1289.01 116.26 Q1289.29 116.013 1290 116.013 Q1290.37 116.013 1290.59 116.075 Q1290.83 116.136 1290.99 116.353 Q1291.14 116.569 1291.2 116.692 Q1291.27 116.816 1291.45 117.279 L1305.1 156.812 Q1305.59 158.387 1306.61 158.881 Q1307.63 159.344 1310.5 159.344 L1311.61 159.344 L1311.61 161.29 Q1307.63 161.105 1303.34 161.105 Q1296.52 161.105 1294.23 161.29 L1294.23 159.344 Q1299.48 159.344 1299.48 157.429 Q1299.48 157.306 1299.29 156.534 L1295.96 146.867 L1280.34 146.867 L1277.4 155.144 Q1277.28 155.391 1277.28 156.101 Q1277.28 157.429 1278.51 158.387 Q1279.75 159.344 1282.03 159.344 L1282.03 161.29 Q1275.95 161.105 1274.75 161.105 Q1272.68 161.105 1268.33 161.29 M1281.02 144.921 L1295.25 144.921 L1288.12 124.352 L1281.02 144.921 Z" fill="#000000" fill-rule="evenodd" fill-opacity="1" /><path clip-path="url(#clip240)" d="M1320.04 160.271 Q1319.15 159.252 1319.15 157.924 Q1319.15 156.596 1320.01 155.607 Q1320.91 154.588 1322.51 154.588 Q1324.4 154.588 1325.48 156.41 Q1326.56 158.202 1326.56 161.228 Q1326.56 164.502 1325.23 167.529 Q1323.9 170.586 1322.61 172.038 Q1321.31 173.49 1320.78 173.49 Q1320.17 173.49 1320.17 172.81 Q1320.17 172.563 1320.6 172.1 Q1325.14 167.22 1325.17 161.228 Q1325.17 160.271 1325.04 160.271 L1324.89 160.394 Q1323.81 161.29 1322.51 161.29 Q1320.94 161.29 1320.04 160.271 Z" fill="#000000" fill-rule="evenodd" fill-opacity="1" /><path clip-path="url(#clip240)" d="M1354.13 138.651 Q1354.13 138.59 1354.25 138.157 Q1354.41 137.694 1354.81 137.015 Q1355.21 136.304 1355.74 135.656 Q1356.29 134.976 1357.25 134.513 Q1358.21 134.019 1359.32 134.019 Q1359.44 134.019 1359.63 134.05 Q1359.84 134.081 1359.9 134.081 L1377.1 134.081 Q1377.94 134.081 1378.24 134.358 Q1378.55 134.606 1378.55 135.532 L1378.55 136.798 Q1378.55 137.694 1378.18 137.941 Q1377.84 138.188 1377.1 138.188 L1367.04 138.188 L1367.04 146.743 Q1367.04 157.182 1371.48 157.182 Q1372.5 157.182 1373.55 156.472 Q1374.63 155.731 1374.88 155.731 Q1375.9 155.731 1375.9 157.553 Q1375.9 159.313 1374.63 160.672 Q1373.37 162 1371.48 162 Q1369.44 162 1368.12 160.796 Q1366.79 159.591 1366.23 157.306 Q1365.71 155.02 1365.59 153.291 Q1365.46 151.561 1365.46 148.967 L1365.46 138.188 L1360.65 138.188 Q1360.46 138.188 1360.12 138.157 Q1359.78 138.126 1359.6 138.126 Q1357.84 138.126 1356.35 138.775 Q1354.9 139.393 1354.84 139.393 Q1354.13 139.424 1354.13 138.651 Z" fill="#000000" fill-rule="evenodd" fill-opacity="1" /><path clip-path="url(#clip240)" d="M1405.82 151.685 Q1405.88 150.913 1407.08 150.913 L1445.83 150.913 Q1447.65 150.913 1447.69 151.623 Q1447.69 152.395 1445.96 152.364 L1407.52 152.364 Q1405.82 152.395 1405.82 151.685 M1405.82 139.331 Q1405.82 138.559 1407.14 138.59 L1445.77 138.59 Q1447.65 138.59 1447.69 139.331 Q1447.69 140.041 1446.08 140.041 L1407.08 140.041 Q1405.82 140.041 1405.82 139.331 Z" fill="#000000" fill-rule="evenodd" fill-opacity="1" /><path clip-path="url(#clip240)" d="M1478.04 125.186 L1478.04 123.209 Q1485.63 123.209 1489.55 119.163 Q1490.63 119.163 1490.82 119.41 Q1491 119.657 1491 120.8 L1491 156.287 Q1491 158.171 1491.93 158.758 Q1492.86 159.344 1496.9 159.344 L1498.91 159.344 L1498.91 161.29 Q1496.69 161.105 1488.66 161.105 Q1480.63 161.105 1478.44 161.29 L1478.44 159.344 L1480.44 159.344 Q1484.43 159.344 1485.38 158.788 Q1486.34 158.202 1486.34 156.287 L1486.34 123.518 Q1483.04 125.186 1478.04 125.186 Z" fill="#000000" fill-rule="evenodd" fill-opacity="1" /><path clip-path="url(#clip240)" d="M1506.5 141.06 Q1506.5 131.764 1508.85 126.699 Q1512.12 119.163 1519.84 119.163 Q1521.48 119.163 1523.18 119.626 Q1524.91 120.059 1527.07 121.757 Q1529.26 123.456 1530.59 126.236 Q1533.12 131.61 1533.12 141.06 Q1533.12 150.295 1530.77 155.329 Q1527.35 162.68 1519.78 162.68 Q1516.94 162.68 1514.04 161.228 Q1511.17 159.777 1509.34 156.287 Q1506.5 151.067 1506.5 141.06 M1511.75 140.288 Q1511.75 149.832 1512.43 153.631 Q1513.2 157.738 1515.3 159.53 Q1517.43 161.29 1519.78 161.29 Q1522.31 161.29 1524.41 159.406 Q1526.54 157.491 1527.19 153.384 Q1527.9 149.338 1527.87 140.288 Q1527.87 131.486 1527.25 127.965 Q1526.42 123.858 1524.2 122.221 Q1522 120.553 1519.78 120.553 Q1518.95 120.553 1518.05 120.8 Q1517.19 121.047 1515.92 121.757 Q1514.66 122.468 1513.67 124.228 Q1512.71 125.989 1512.25 128.645 Q1511.75 132.073 1511.75 140.288 Z" fill="#000000" fill-rule="evenodd" fill-opacity="1" /><path clip-path="url(#clip240)" d="M1538.12 141.06 Q1538.12 131.764 1540.47 126.699 Q1543.74 119.163 1551.46 119.163 Q1553.1 119.163 1554.79 119.626 Q1556.52 120.059 1558.69 121.757 Q1560.88 123.456 1562.2 126.236 Q1564.74 131.61 1564.74 141.06 Q1564.74 150.295 1562.39 155.329 Q1558.96 162.68 1551.4 162.68 Q1548.56 162.68 1545.66 161.228 Q1542.78 159.777 1540.96 156.287 Q1538.12 151.067 1538.12 141.06 M1543.37 140.288 Q1543.37 149.832 1544.05 153.631 Q1544.82 157.738 1546.92 159.53 Q1549.05 161.29 1551.4 161.29 Q1553.93 161.29 1556.03 159.406 Q1558.16 157.491 1558.81 153.384 Q1559.52 149.338 1559.49 140.288 Q1559.49 131.486 1558.87 127.965 Q1558.04 123.858 1555.81 122.221 Q1553.62 120.553 1551.4 120.553 Q1550.56 120.553 1549.67 120.8 Q1548.8 121.047 1547.54 121.757 Q1546.27 122.468 1545.28 124.228 Q1544.33 125.989 1543.86 128.645 Q1543.37 132.073 1543.37 140.288 Z" fill="#000000" fill-rule="evenodd" fill-opacity="1" /><path clip-path="url(#clip240)" d="M1569.74 141.06 Q1569.74 131.764 1572.09 126.699 Q1575.36 119.163 1583.08 119.163 Q1584.71 119.163 1586.41 119.626 Q1588.14 120.059 1590.3 121.757 Q1592.49 123.456 1593.82 126.236 Q1596.35 131.61 1596.35 141.06 Q1596.35 150.295 1594.01 155.329 Q1590.58 162.68 1583.02 162.68 Q1580.17 162.68 1577.27 161.228 Q1574.4 159.777 1572.58 156.287 Q1569.74 151.067 1569.74 141.06 M1574.99 140.288 Q1574.99 149.832 1575.67 153.631 Q1576.44 157.738 1578.54 159.53 Q1580.67 161.29 1583.02 161.29 Q1585.55 161.29 1587.65 159.406 Q1589.78 157.491 1590.43 153.384 Q1591.14 149.338 1591.11 140.288 Q1591.11 131.486 1590.49 127.965 Q1589.65 123.858 1587.43 122.221 Q1585.24 120.553 1583.02 120.553 Q1582.18 120.553 1581.29 120.8 Q1580.42 121.047 1579.16 121.757 Q1577.89 122.468 1576.9 124.228 Q1575.94 125.989 1575.48 128.645 Q1574.99 132.073 1574.99 140.288 Z" fill="#000000" fill-rule="evenodd" fill-opacity="1" /><path clip-path="url(#clip240)" d="M1111.67 172.492 L1079.67 204.498 L1111.67 236.504 L1143.68 204.498 L1111.67 172.492 Z" fill="#f89c74" fill-rule="evenodd" fill-opacity="1" stroke="#000000" stroke-opacity="1" stroke-width="4.216"/>
<path clip-path="url(#clip240)" d="M1175.08 204.483 Q1175.08 194.939 1181.59 188.237 Q1188.11 181.504 1197.06 181.504 Q1199.84 181.504 1202.31 182.523 Q1204.78 183.543 1205.92 184.438 Q1207.07 185.303 1208.7 186.94 L1211.88 182.276 Q1212.38 181.504 1212.87 181.504 Q1213.4 181.504 1213.49 181.813 Q1213.58 182.091 1213.58 183.018 L1213.58 198.028 Q1213.58 199.047 1213.46 199.294 Q1213.33 199.541 1212.56 199.541 Q1211.95 199.541 1211.79 199.356 Q1211.67 199.17 1211.54 198.46 Q1210.59 191.634 1206.79 187.558 Q1203.02 183.481 1197.77 183.481 Q1196.26 183.481 1194.56 183.821 Q1192.89 184.16 1190.46 185.458 Q1188.05 186.755 1186.16 188.917 Q1184.31 191.048 1182.95 195.124 Q1181.59 199.17 1181.59 204.544 Q1181.59 209.857 1182.95 213.933 Q1184.31 218.01 1186.16 220.141 Q1188.05 222.241 1190.46 223.539 Q1192.89 224.836 1194.59 225.206 Q1196.32 225.546 1197.83 225.546 Q1203.27 225.546 1207.44 221.685 Q1211.61 217.825 1212.01 211.308 Q1212.07 210.999 1212.07 210.876 Q1212.07 210.721 1212.13 210.567 Q1212.19 210.413 1212.35 210.351 Q1212.5 210.289 1212.75 210.289 Q1213.58 210.289 1213.58 211.37 Q1213.58 217.392 1208.95 222.458 Q1204.35 227.492 1197.06 227.492 Q1188.08 227.492 1181.56 220.821 Q1175.08 214.15 1175.08 204.483 Z" fill="#000000" fill-rule="evenodd" fill-opacity="1" /><path clip-path="url(#clip240)" d="M1219.26 226.102 L1219.26 224.156 L1220.78 224.156 Q1224.2 224.156 1224.97 223.6 Q1225.78 223.014 1225.78 221.16 L1225.78 187.836 Q1225.78 186.013 1224.97 185.458 Q1224.17 184.871 1220.78 184.871 L1219.26 184.871 L1219.26 182.894 Q1221.49 183.079 1228.62 183.079 Q1235.69 183.079 1237.91 182.894 L1237.91 184.871 L1236.4 184.871 Q1232.97 184.871 1232.17 185.458 Q1231.4 186.013 1231.4 187.836 L1231.4 207.942 L1251.19 189.04 Q1252.33 188.021 1252.33 186.94 Q1252.33 186.569 1252.15 186.168 Q1251.99 185.735 1251.25 185.303 Q1250.54 184.871 1249.4 184.871 L1249.4 182.894 Q1251.56 183.079 1257.46 183.079 Q1261.19 183.079 1262.83 182.894 L1262.83 184.871 Q1257.58 184.932 1253.84 188.67 L1242.45 199.603 L1257.06 221.099 Q1258.38 223.044 1259.68 223.6 Q1260.98 224.156 1263.69 224.156 L1263.69 226.102 Q1259.71 225.917 1256.44 225.917 Q1249.61 225.917 1247.39 226.102 L1247.39 224.156 Q1251.13 224.156 1251.13 222.241 Q1251.13 221.531 1250.17 220.079 L1238.71 203.155 L1231.4 210.104 L1231.4 221.16 Q1231.4 222.983 1232.17 223.569 Q1232.97 224.156 1236.4 224.156 L1237.91 224.156 L1237.91 226.102 Q1235.69 225.917 1228.56 225.917 Q1221.49 225.917 1219.26 226.102 Z" fill="#000000" fill-rule="evenodd" fill-opacity="1" /><path clip-path="url(#clip240)" d="M1268.33 226.102 L1268.33 224.156 Q1273.94 224.033 1275.4 219.894 L1288.49 182.091 Q1288.73 181.319 1289.01 181.072 Q1289.29 180.825 1290 180.825 Q1290.37 180.825 1290.59 180.887 Q1290.83 180.948 1290.99 181.165 Q1291.14 181.381 1291.2 181.504 Q1291.27 181.628 1291.45 182.091 L1305.1 221.624 Q1305.59 223.199 1306.61 223.693 Q1307.63 224.156 1310.5 224.156 L1311.61 224.156 L1311.61 226.102 Q1307.63 225.917 1303.34 225.917 Q1296.52 225.917 1294.23 226.102 L1294.23 224.156 Q1299.48 224.156 1299.48 222.241 Q1299.48 222.118 1299.29 221.346 L1295.96 211.679 L1280.34 211.679 L1277.4 219.956 Q1277.28 220.203 1277.28 220.913 Q1277.28 222.241 1278.51 223.199 Q1279.75 224.156 1282.03 224.156 L1282.03 226.102 Q1275.95 225.917 1274.75 225.917 Q1272.68 225.917 1268.33 226.102 M1281.02 209.733 L1295.25 209.733 L1288.12 189.164 L1281.02 209.733 Z" fill="#000000" fill-rule="evenodd" fill-opacity="1" /><path clip-path="url(#clip240)" d="M1320.04 225.083 Q1319.15 224.064 1319.15 222.736 Q1319.15 221.408 1320.01 220.419 Q1320.91 219.4 1322.51 219.4 Q1324.4 219.4 1325.48 221.222 Q1326.56 223.014 1326.56 226.04 Q1326.56 229.314 1325.23 232.341 Q1323.9 235.398 1322.61 236.85 Q1321.31 238.302 1320.78 238.302 Q1320.17 238.302 1320.17 237.622 Q1320.17 237.375 1320.6 236.912 Q1325.14 232.032 1325.17 226.04 Q1325.17 225.083 1325.04 225.083 L1324.89 225.206 Q1323.81 226.102 1322.51 226.102 Q1320.94 226.102 1320.04 225.083 Z" fill="#000000" fill-rule="evenodd" fill-opacity="1" /><path clip-path="url(#clip240)" d="M1354.13 203.463 Q1354.13 203.402 1354.25 202.969 Q1354.41 202.506 1354.81 201.827 Q1355.21 201.116 1355.74 200.468 Q1356.29 199.788 1357.25 199.325 Q1358.21 198.831 1359.32 198.831 Q1359.44 198.831 1359.63 198.862 Q1359.84 198.892 1359.9 198.892 L1377.1 198.892 Q1377.94 198.892 1378.24 199.17 Q1378.55 199.417 1378.55 200.344 L1378.55 201.61 Q1378.55 202.506 1378.18 202.753 Q1377.84 203 1377.1 203 L1367.04 203 L1367.04 211.555 Q1367.04 221.994 1371.48 221.994 Q1372.5 221.994 1373.55 221.284 Q1374.63 220.543 1374.88 220.543 Q1375.9 220.543 1375.9 222.365 Q1375.9 224.125 1374.63 225.484 Q1373.37 226.812 1371.48 226.812 Q1369.44 226.812 1368.12 225.608 Q1366.79 224.403 1366.23 222.118 Q1365.71 219.832 1365.59 218.103 Q1365.46 216.373 1365.46 213.779 L1365.46 203 L1360.65 203 Q1360.46 203 1360.12 202.969 Q1359.78 202.938 1359.6 202.938 Q1357.84 202.938 1356.35 203.587 Q1354.9 204.205 1354.84 204.205 Q1354.13 204.236 1354.13 203.463 Z" fill="#000000" fill-rule="evenodd" fill-opacity="1" /><path clip-path="url(#clip240)" d="M1405.82 216.497 Q1405.88 215.725 1407.08 215.725 L1445.83 215.725 Q1447.65 215.725 1447.69 216.435 Q1447.69 217.207 1445.96 217.176 L1407.52 217.176 Q1405.82 217.207 1405.82 216.497 M1405.82 204.143 Q1405.82 203.371 1407.14 203.402 L1445.77 203.402 Q1447.65 203.402 1447.69 204.143 Q1447.69 204.853 1446.08 204.853 L1407.08 204.853 Q1405.82 204.853 1405.82 204.143 Z" fill="#000000" fill-rule="evenodd" fill-opacity="1" /><path clip-path="url(#clip240)" d="M1478.04 189.998 L1478.04 188.021 Q1485.63 188.021 1489.55 183.975 Q1490.63 183.975 1490.82 184.222 Q1491 184.469 1491 185.612 L1491 221.099 Q1491 222.983 1491.93 223.569 Q1492.86 224.156 1496.9 224.156 L1498.91 224.156 L1498.91 226.102 Q1496.69 225.917 1488.66 225.917 Q1480.63 225.917 1478.44 226.102 L1478.44 224.156 L1480.44 224.156 Q1484.43 224.156 1485.38 223.6 Q1486.34 223.014 1486.34 221.099 L1486.34 188.33 Q1483.04 189.998 1478.04 189.998 Z" fill="#000000" fill-rule="evenodd" fill-opacity="1" /><path clip-path="url(#clip240)" d="M1506.5 205.872 Q1506.5 196.576 1508.85 191.511 Q1512.12 183.975 1519.84 183.975 Q1521.48 183.975 1523.18 184.438 Q1524.91 184.871 1527.07 186.569 Q1529.26 188.268 1530.59 191.048 Q1533.12 196.422 1533.12 205.872 Q1533.12 215.107 1530.77 220.141 Q1527.35 227.492 1519.78 227.492 Q1516.94 227.492 1514.04 226.04 Q1511.17 224.589 1509.34 221.099 Q1506.5 215.879 1506.5 205.872 M1511.75 205.1 Q1511.75 214.644 1512.43 218.443 Q1513.2 222.55 1515.3 224.342 Q1517.43 226.102 1519.78 226.102 Q1522.31 226.102 1524.41 224.218 Q1526.54 222.303 1527.19 218.196 Q1527.9 214.15 1527.87 205.1 Q1527.87 196.298 1527.25 192.777 Q1526.42 188.67 1524.2 187.033 Q1522 185.365 1519.78 185.365 Q1518.95 185.365 1518.05 185.612 Q1517.19 185.859 1515.92 186.569 Q1514.66 187.28 1513.67 189.04 Q1512.71 190.801 1512.25 193.457 Q1511.75 196.885 1511.75 205.1 Z" fill="#000000" fill-rule="evenodd" fill-opacity="1" /><path clip-path="url(#clip240)" d="M1538.12 205.872 Q1538.12 196.576 1540.47 191.511 Q1543.74 183.975 1551.46 183.975 Q1553.1 183.975 1554.79 184.438 Q1556.52 184.871 1558.69 186.569 Q1560.88 188.268 1562.2 191.048 Q1564.74 196.422 1564.74 205.872 Q1564.74 215.107 1562.39 220.141 Q1558.96 227.492 1551.4 227.492 Q1548.56 227.492 1545.66 226.04 Q1542.78 224.589 1540.96 221.099 Q1538.12 215.879 1538.12 205.872 M1543.37 205.1 Q1543.37 214.644 1544.05 218.443 Q1544.82 222.55 1546.92 224.342 Q1549.05 226.102 1551.4 226.102 Q1553.93 226.102 1556.03 224.218 Q1558.16 222.303 1558.81 218.196 Q1559.52 214.15 1559.49 205.1 Q1559.49 196.298 1558.87 192.777 Q1558.04 188.67 1555.81 187.033 Q1553.62 185.365 1551.4 185.365 Q1550.56 185.365 1549.67 185.612 Q1548.8 185.859 1547.54 186.569 Q1546.27 187.28 1545.28 189.04 Q1544.33 190.801 1543.86 193.457 Q1543.37 196.885 1543.37 205.1 Z" fill="#000000" fill-rule="evenodd" fill-opacity="1" /><path clip-path="url(#clip240)" d="M1111.67 301.316 L1083.96 285.313 L1083.96 253.307 L1111.67 237.304 L1139.39 253.307 L1139.39 285.313 Z" fill="#f6cf71" fill-rule="evenodd" fill-opacity="1" stroke="#000000" stroke-opacity="1" stroke-width="4.216"/>
<path clip-path="url(#clip240)" d="M1175.08 290.914 L1175.08 288.968 L1176.59 288.968 Q1180.02 288.968 1180.79 288.412 Q1181.59 287.825 1181.59 285.972 L1181.59 252.648 Q1181.59 250.825 1180.79 250.269 Q1179.99 249.683 1176.59 249.683 L1175.08 249.683 L1175.08 247.706 L1198.21 247.706 Q1204.23 247.706 1208.24 250.949 Q1212.25 254.161 1212.25 258.392 Q1212.25 261.882 1209.29 264.662 Q1206.36 267.441 1201.76 268.337 Q1207.01 268.893 1210.46 272.074 Q1213.95 275.224 1213.95 279.332 Q1213.95 283.965 1209.97 287.455 Q1205.99 290.914 1199.87 290.914 L1175.08 290.914 M1186.84 286.436 Q1186.84 288.073 1187.31 288.536 Q1187.77 288.968 1189.93 288.968 L1197.83 288.968 Q1202.37 288.968 1205 286.003 Q1207.62 283.007 1207.62 279.27 Q1207.62 275.533 1205.31 272.352 Q1203.02 269.14 1198.73 269.14 L1186.84 269.14 L1186.84 286.436 M1186.84 267.75 L1196.01 267.75 Q1200.89 267.75 1203.49 264.816 Q1206.11 261.882 1206.11 258.392 Q1206.11 255.304 1204.01 252.493 Q1201.94 249.683 1197.77 249.683 L1189.93 249.683 Q1187.77 249.683 1187.31 250.115 Q1186.84 250.547 1186.84 252.215 L1186.84 267.75 Z" fill="#000000" fill-rule="evenodd" fill-opacity="1" /><path clip-path="url(#clip240)" d="M1219.76 290.914 L1219.76 288.968 L1221.27 288.968 Q1224.7 288.968 1225.47 288.412 Q1226.27 287.825 1226.27 285.972 L1226.27 252.648 Q1226.27 250.825 1225.47 250.269 Q1224.67 249.683 1221.27 249.683 L1219.76 249.683 L1219.76 247.706 L1242.08 247.706 Q1248.47 247.706 1252.73 251.227 Q1256.99 254.748 1256.99 259.473 Q1256.99 264.168 1252.64 267.565 Q1248.32 270.931 1242.57 270.931 L1231.89 270.931 L1231.89 285.972 Q1231.89 287.795 1232.66 288.381 Q1233.47 288.968 1236.89 288.968 L1238.41 288.968 L1238.41 290.914 Q1236.18 290.729 1229.05 290.729 Q1221.98 290.729 1219.76 290.914 M1231.71 269.295 L1240.41 269.295 Q1243.25 269.295 1245.32 268.492 Q1247.39 267.689 1248.32 266.731 Q1249.27 265.743 1249.8 264.168 Q1250.36 262.562 1250.42 261.697 Q1250.48 260.801 1250.48 259.473 Q1250.48 258.083 1250.42 257.219 Q1250.36 256.323 1249.8 254.748 Q1249.27 253.142 1248.32 252.184 Q1247.39 251.196 1245.32 250.455 Q1243.28 249.683 1240.41 249.683 L1234.79 249.683 Q1232.63 249.683 1232.17 250.115 Q1231.71 250.547 1231.71 252.215 L1231.71 269.295 Z" fill="#000000" fill-rule="evenodd" fill-opacity="1" /><path clip-path="url(#clip240)" d="M1257.3 290.914 L1257.3 288.968 Q1262.92 288.845 1264.37 284.706 L1277.46 246.903 Q1277.71 246.131 1277.99 245.884 Q1278.27 245.637 1278.98 245.637 Q1279.35 245.637 1279.56 245.698 Q1279.81 245.76 1279.97 245.976 Q1280.12 246.193 1280.18 246.316 Q1280.24 246.44 1280.43 246.903 L1294.08 286.436 Q1294.57 288.011 1295.59 288.505 Q1296.61 288.968 1299.48 288.968 L1300.59 288.968 L1300.59 290.914 Q1296.61 290.729 1292.32 290.729 Q1285.49 290.729 1283.21 290.914 L1283.21 288.968 Q1288.46 288.968 1288.46 287.053 Q1288.46 286.93 1288.27 286.158 L1284.94 276.491 L1269.31 276.491 L1266.38 284.768 Q1266.26 285.015 1266.26 285.725 Q1266.26 287.053 1267.49 288.011 Q1268.73 288.968 1271.01 288.968 L1271.01 290.914 Q1264.93 290.729 1263.72 290.729 Q1261.66 290.729 1257.3 290.914 M1269.99 274.545 L1284.23 274.545 L1277.09 253.976 L1269.99 274.545 Z" fill="#000000" fill-rule="evenodd" fill-opacity="1" /><path clip-path="url(#clip240)" d="M1306.8 263.025 Q1306.8 261.944 1308.25 261.234 L1317.05 257.064 L1308.12 252.895 Q1306.8 252.277 1306.8 251.196 Q1306.8 250.578 1307.29 250.022 Q1307.82 249.436 1308.5 249.436 Q1308.99 249.436 1309.88 250.115 L1317.73 255.798 Q1316.77 245.359 1316.8 245.05 Q1316.8 244.432 1317.26 243.969 Q1317.73 243.475 1318.5 243.475 Q1319.12 243.475 1319.61 243.938 Q1320.14 244.37 1320.14 245.05 L1319.21 255.798 L1326.22 250.609 Q1327.85 249.405 1328.44 249.436 Q1329.15 249.436 1329.65 249.991 Q1330.14 250.547 1330.14 251.196 Q1330.14 252.277 1328.69 252.956 L1319.89 257.126 L1328.81 261.326 Q1330.14 261.944 1330.14 263.025 Q1330.14 263.643 1329.61 264.229 Q1329.12 264.785 1328.44 264.785 Q1328.07 264.785 1327.42 264.415 Q1327.3 264.353 1325.97 263.365 Q1324.64 262.376 1322.57 260.863 Q1320.54 259.35 1319.21 258.392 Q1320.17 268.831 1320.14 269.14 Q1320.14 269.758 1319.67 270.252 Q1319.21 270.746 1318.44 270.746 Q1317.82 270.746 1317.29 270.314 Q1316.8 269.85 1316.8 269.14 L1317.73 258.392 L1308.9 264.785 Q1307.94 264.785 1307.41 264.322 Q1306.92 263.828 1306.86 263.55 Q1306.8 263.272 1306.8 263.025 Z" fill="#000000" fill-rule="evenodd" fill-opacity="1" /><path clip-path="url(#clip240)" d="M1111.67 302.116 L1104.15 323.752 L1081.23 324.232 L1099.51 338.091 L1092.85 360.015 L1111.67 346.924 L1130.49 360.015 L1123.83 338.091 L1142.11 324.232 L1119.19 323.752 L1111.67 302.116 Z" fill="#66c5cc" fill-rule="evenodd" fill-opacity="1" stroke="#000000" stroke-opacity="1" stroke-width="4.216"/>
<path clip-path="url(#clip240)" d="M1175.08 355.726 L1175.08 353.78 L1176.59 353.78 Q1180.02 353.78 1180.79 353.224 Q1181.59 352.637 1181.59 350.784 L1181.59 317.46 Q1181.59 315.637 1180.79 315.081 Q1179.99 314.495 1176.59 314.495 L1175.08 314.495 L1175.08 312.518 L1198.21 312.518 Q1204.23 312.518 1208.24 315.761 Q1212.25 318.973 1212.25 323.204 Q1212.25 326.694 1209.29 329.474 Q1206.36 332.253 1201.76 333.149 Q1207.01 333.705 1210.46 336.886 Q1213.95 340.036 1213.95 344.144 Q1213.95 348.777 1209.97 352.267 Q1205.99 355.726 1199.87 355.726 L1175.08 355.726 M1186.84 351.248 Q1186.84 352.885 1187.31 353.348 Q1187.77 353.78 1189.93 353.78 L1197.83 353.78 Q1202.37 353.78 1205 350.815 Q1207.62 347.819 1207.62 344.082 Q1207.62 340.345 1205.31 337.164 Q1203.02 333.952 1198.73 333.952 L1186.84 333.952 L1186.84 351.248 M1186.84 332.562 L1196.01 332.562 Q1200.89 332.562 1203.49 329.628 Q1206.11 326.694 1206.11 323.204 Q1206.11 320.116 1204.01 317.305 Q1201.94 314.495 1197.77 314.495 L1189.93 314.495 Q1187.77 314.495 1187.31 314.927 Q1186.84 315.359 1186.84 317.027 L1186.84 332.562 Z" fill="#000000" fill-rule="evenodd" fill-opacity="1" /><path clip-path="url(#clip240)" d="M1219.76 355.726 L1219.76 353.78 L1221.27 353.78 Q1224.7 353.78 1225.47 353.224 Q1226.27 352.637 1226.27 350.784 L1226.27 317.46 Q1226.27 315.637 1225.47 315.081 Q1224.67 314.495 1221.27 314.495 L1219.76 314.495 L1219.76 312.518 L1242.08 312.518 Q1248.47 312.518 1252.73 316.039 Q1256.99 319.56 1256.99 324.285 Q1256.99 328.98 1252.64 332.377 Q1248.32 335.743 1242.57 335.743 L1231.89 335.743 L1231.89 350.784 Q1231.89 352.607 1232.66 353.193 Q1233.47 353.78 1236.89 353.78 L1238.41 353.78 L1238.41 355.726 Q1236.18 355.541 1229.05 355.541 Q1221.98 355.541 1219.76 355.726 M1231.71 334.106 L1240.41 334.106 Q1243.25 334.106 1245.32 333.303 Q1247.39 332.5 1248.32 331.543 Q1249.27 330.555 1249.8 328.98 Q1250.36 327.374 1250.42 326.509 Q1250.48 325.613 1250.48 324.285 Q1250.48 322.895 1250.42 322.031 Q1250.36 321.135 1249.8 319.56 Q1249.27 317.954 1248.32 316.996 Q1247.39 316.008 1245.32 315.267 Q1243.28 314.495 1240.41 314.495 L1234.79 314.495 Q1232.63 314.495 1232.17 314.927 Q1231.71 315.359 1231.71 317.027 L1231.71 334.106 Z" fill="#000000" fill-rule="evenodd" fill-opacity="1" /><path clip-path="url(#clip240)" d="M1257.3 355.726 L1257.3 353.78 Q1262.92 353.657 1264.37 349.518 L1277.46 311.715 Q1277.71 310.943 1277.99 310.696 Q1278.27 310.449 1278.98 310.449 Q1279.35 310.449 1279.56 310.51 Q1279.81 310.572 1279.97 310.788 Q1280.12 311.005 1280.18 311.128 Q1280.24 311.252 1280.43 311.715 L1294.08 351.248 Q1294.57 352.823 1295.59 353.317 Q1296.61 353.78 1299.48 353.78 L1300.59 353.78 L1300.59 355.726 Q1296.61 355.541 1292.32 355.541 Q1285.49 355.541 1283.21 355.726 L1283.21 353.78 Q1288.46 353.78 1288.46 351.865 Q1288.46 351.742 1288.27 350.97 L1284.94 341.303 L1269.31 341.303 L1266.38 349.58 Q1266.26 349.827 1266.26 350.537 Q1266.26 351.865 1267.49 352.823 Q1268.73 353.78 1271.01 353.78 L1271.01 355.726 Q1264.93 355.541 1263.72 355.541 Q1261.66 355.541 1257.3 355.726 M1269.99 339.357 L1284.23 339.357 L1277.09 318.788 L1269.99 339.357 Z" fill="#000000" fill-rule="evenodd" fill-opacity="1" /></svg>
