<?xml version="1.0" encoding="utf-8"?>
<svg xmlns="http://www.w3.org/2000/svg" xmlns:xlink="http://www.w3.org/1999/xlink" width="426.75" height="263.5" viewBox="0 0 1707 1054">
<defs>
  <clipPath id="clip200">
    <rect x="0" y="0" width="1707" height="1054"/>
  </clipPath>
</defs>
<path clip-path="url(#clip200)" d="M0 1054 L1707 1054 L1707 0 L0 0  Z" fill="#ffffff" fill-rule="evenodd" fill-opacity="1"/>
<defs>
  <clipPath id="clip201">
    <rect x="341" y="0" width="1196" height="1054"/>
  </clipPath>
</defs>
<defs>
  <clipPath id="clip202">
    <rect x="242" y="47" width="1418" height="842"/>
  </clipPath>
</defs>
<path clip-path="url(#clip200)" d="M232.475 888.691 L1659.76 888.691 L1659.76 47.2528 L232.475 47.2528  Z" fill="#ffffff" fill-rule="evenodd" fill-opacity="1"/>
<defs>
  <clipPath id="clip203">
    <rect x="232" y="47" width="1428" height="842"/>
  </clipPath>
</defs>
<polyline clip-path="url(#clip203)" style="stroke:#000000; stroke-linecap:round; stroke-linejoin:round; stroke-width:2.00037; stroke-opacity:0.1; fill:none" points="272.87,888.691 272.87,47.2528 "/>
<polyline clip-path="url(#clip203)" style="stroke:#000000; stroke-linecap:round; stroke-linejoin:round; stroke-width:2.00037; stroke-opacity:0.1; fill:none" points="609.494,888.691 609.494,47.2528 "/>
<polyline clip-path="url(#clip203)" style="stroke:#000000; stroke-linecap:round; stroke-linejoin:round; stroke-width:2.00037; stroke-opacity:0.1; fill:none" points="946.118,888.691 946.118,47.2528 "/>
<polyline clip-path="url(#clip203)" style="stroke:#000000; stroke-linecap:round; stroke-linejoin:round; stroke-width:2.00037; stroke-opacity:0.1; fill:none" points="1282.74,888.691 1282.74,47.2528 "/>
<polyline clip-path="url(#clip203)" style="stroke:#000000; stroke-linecap:round; stroke-linejoin:round; stroke-width:2.00037; stroke-opacity:0.1; fill:none" points="1619.37,888.691 1619.37,47.2528 "/>
<polyline clip-path="url(#clip200)" style="stroke:#000000; stroke-linecap:round; stroke-linejoin:round; stroke-width:4.00074; stroke-opacity:1; fill:none" points="232.475,888.691 1659.76,888.691 "/>
<polyline clip-path="url(#clip200)" style="stroke:#000000; stroke-linecap:round; stroke-linejoin:round; stroke-width:4.00074; stroke-opacity:1; fill:none" points="232.475,47.2528 1659.76,47.2528 "/>
<polyline clip-path="url(#clip200)" style="stroke:#000000; stroke-linecap:round; stroke-linejoin:round; stroke-width:4.00074; stroke-opacity:1; fill:none" points="272.87,888.691 272.87,869.79 "/>
<polyline clip-path="url(#clip200)" style="stroke:#000000; stroke-linecap:round; stroke-linejoin:round; stroke-width:4.00074; stroke-opacity:1; fill:none" points="609.494,888.691 609.494,869.79 "/>
<polyline clip-path="url(#clip200)" style="stroke:#000000; stroke-linecap:round; stroke-linejoin:round; stroke-width:4.00074; stroke-opacity:1; fill:none" points="946.118,888.691 946.118,869.79 "/>
<polyline clip-path="url(#clip200)" style="stroke:#000000; stroke-linecap:round; stroke-linejoin:round; stroke-width:4.00074; stroke-opacity:1; fill:none" points="1282.74,888.691 1282.74,869.79 "/>
<polyline clip-path="url(#clip200)" style="stroke:#000000; stroke-linecap:round; stroke-linejoin:round; stroke-width:4.00074; stroke-opacity:1; fill:none" points="1619.37,888.691 1619.37,869.79 "/>
<path clip-path="url(#clip200)" d="M238.76 932.753 Q238.76 924.387 240.871 919.828 Q243.817 913.046 250.764 913.046 Q252.237 913.046 253.765 913.463 Q255.322 913.852 257.267 915.381 Q259.24 916.91 260.435 919.411 Q262.713 924.248 262.713 932.753 Q262.713 941.065 260.601 945.595 Q257.517 952.211 250.709 952.211 Q248.152 952.211 245.54 950.905 Q242.956 949.598 241.316 946.457 Q238.76 941.76 238.76 932.753 M243.484 932.059 Q243.484 940.648 244.095 944.067 Q244.79 947.764 246.679 949.376 Q248.597 950.96 250.709 950.96 Q252.987 950.96 254.877 949.265 Q256.794 947.541 257.378 943.844 Q258.017 940.203 257.989 932.059 Q257.989 924.137 257.433 920.968 Q256.683 917.271 254.682 915.798 Q252.709 914.297 250.709 914.297 Q249.958 914.297 249.152 914.519 Q248.374 914.741 247.235 915.381 Q246.096 916.02 245.206 917.604 Q244.345 919.189 243.928 921.579 Q243.484 924.665 243.484 932.059 Z" fill="#000000" fill-rule="evenodd" fill-opacity="1" /><path clip-path="url(#clip200)" d="M270.689 950.043 Q269.827 949.126 269.827 947.93 Q269.827 946.735 270.689 945.873 Q271.55 944.984 272.856 944.984 Q274.107 944.984 274.94 945.818 Q275.802 946.624 275.802 947.958 Q275.802 949.265 274.885 950.126 Q273.995 950.96 272.856 950.96 Q271.55 950.96 270.689 950.043 Z" fill="#000000" fill-rule="evenodd" fill-opacity="1" /><path clip-path="url(#clip200)" d="M283.027 932.753 Q283.027 924.387 285.139 919.828 Q288.084 913.046 295.031 913.046 Q296.504 913.046 298.033 913.463 Q299.589 913.852 301.534 915.381 Q303.507 916.91 304.702 919.411 Q306.981 924.248 306.981 932.753 Q306.981 941.065 304.869 945.595 Q301.784 952.211 294.976 952.211 Q292.419 952.211 289.807 950.905 Q287.223 949.598 285.583 946.457 Q283.027 941.76 283.027 932.753 M287.751 932.059 Q287.751 940.648 288.362 944.067 Q289.057 947.764 290.946 949.376 Q292.864 950.96 294.976 950.96 Q297.255 950.96 299.144 949.265 Q301.062 947.541 301.645 943.844 Q302.284 940.203 302.256 932.059 Q302.256 924.137 301.701 920.968 Q300.95 917.271 298.95 915.798 Q296.977 914.297 294.976 914.297 Q294.226 914.297 293.42 914.519 Q292.642 914.741 291.502 915.381 Q290.363 916.02 289.474 917.604 Q288.612 919.189 288.195 921.579 Q287.751 924.665 287.751 932.059 Z" fill="#000000" fill-rule="evenodd" fill-opacity="1" /><path clip-path="url(#clip200)" d="M575.689 932.753 Q575.689 924.387 577.801 919.828 Q580.747 913.046 587.694 913.046 Q589.167 913.046 590.695 913.463 Q592.251 913.852 594.196 915.381 Q596.169 916.91 597.364 919.411 Q599.643 924.248 599.643 932.753 Q599.643 941.065 597.531 945.595 Q594.446 952.211 587.638 952.211 Q585.082 952.211 582.47 950.905 Q579.885 949.598 578.246 946.457 Q575.689 941.76 575.689 932.753 M580.413 932.059 Q580.413 940.648 581.025 944.067 Q581.719 947.764 583.609 949.376 Q585.526 950.96 587.638 950.96 Q589.917 950.96 591.806 949.265 Q593.724 947.541 594.307 943.844 Q594.947 940.203 594.919 932.059 Q594.919 924.137 594.363 920.968 Q593.613 917.271 591.612 915.798 Q589.639 914.297 587.638 914.297 Q586.888 914.297 586.082 914.519 Q585.304 914.741 584.165 915.381 Q583.025 916.02 582.136 917.604 Q581.275 919.189 580.858 921.579 Q580.413 924.665 580.413 932.059 Z" fill="#000000" fill-rule="evenodd" fill-opacity="1" /><path clip-path="url(#clip200)" d="M607.618 950.043 Q606.757 949.126 606.757 947.93 Q606.757 946.735 607.618 945.873 Q608.48 944.984 609.786 944.984 Q611.036 944.984 611.87 945.818 Q612.731 946.624 612.731 947.958 Q612.731 949.265 611.814 950.126 Q610.925 950.96 609.786 950.96 Q608.48 950.96 607.618 950.043 Z" fill="#000000" fill-rule="evenodd" fill-opacity="1" /><path clip-path="url(#clip200)" d="M620.568 941.787 Q620.568 940.092 621.485 939.452 Q622.402 938.785 623.374 938.785 Q624.68 938.785 625.431 939.619 Q626.209 940.425 626.209 941.565 Q626.209 942.705 625.431 943.538 Q624.68 944.345 623.374 944.345 Q622.735 944.345 622.402 944.233 Q623.152 946.846 625.431 948.736 Q627.737 950.627 630.766 950.627 Q634.573 950.627 636.852 946.93 Q638.213 944.539 638.213 939.119 Q638.213 934.338 637.185 931.947 Q635.601 928.306 632.35 928.306 Q627.737 928.306 625.014 932.281 Q624.68 932.781 624.291 932.809 Q623.736 932.809 623.597 932.503 Q623.485 932.17 623.485 931.308 L623.485 914.463 Q623.485 913.101 624.041 913.101 Q624.264 913.101 624.736 913.268 Q628.321 914.853 632.294 914.88 Q636.379 914.88 640.047 913.213 Q640.325 913.046 640.492 913.046 Q641.048 913.046 641.076 913.685 Q641.076 913.908 640.603 914.575 Q640.159 915.214 639.186 916.076 Q638.213 916.91 636.963 917.716 Q635.712 918.522 633.878 919.078 Q632.072 919.606 630.071 919.606 Q627.682 919.606 625.236 918.855 L625.236 929.946 Q628.182 927.055 632.461 927.055 Q637.019 927.055 640.159 930.724 Q643.299 934.393 643.299 939.508 Q643.299 944.873 639.575 948.542 Q635.879 952.211 630.877 952.211 Q626.32 952.211 623.43 948.959 Q620.568 945.707 620.568 941.787 Z" fill="#000000" fill-rule="evenodd" fill-opacity="1" /><path clip-path="url(#clip200)" d="M913.425 918.466 L913.425 916.687 Q920.261 916.687 923.79 913.046 Q924.762 913.046 924.929 913.268 Q925.096 913.491 925.096 914.519 L925.096 946.457 Q925.096 948.153 925.929 948.681 Q926.763 949.209 930.403 949.209 L932.21 949.209 L932.21 950.96 Q930.209 950.793 922.984 950.793 Q915.759 950.793 913.786 950.96 L913.786 949.209 L915.592 949.209 Q919.177 949.209 920.038 948.709 Q920.9 948.18 920.9 946.457 L920.9 916.965 Q917.926 918.466 913.425 918.466 Z" fill="#000000" fill-rule="evenodd" fill-opacity="1" /><path clip-path="url(#clip200)" d="M942.519 950.043 Q941.658 949.126 941.658 947.93 Q941.658 946.735 942.519 945.873 Q943.381 944.984 944.687 944.984 Q945.937 944.984 946.771 945.818 Q947.632 946.624 947.632 947.958 Q947.632 949.265 946.715 950.126 Q945.826 950.96 944.687 950.96 Q943.381 950.96 942.519 950.043 Z" fill="#000000" fill-rule="evenodd" fill-opacity="1" /><path clip-path="url(#clip200)" d="M954.857 932.753 Q954.857 924.387 956.969 919.828 Q959.915 913.046 966.862 913.046 Q968.335 913.046 969.863 913.463 Q971.419 913.852 973.365 915.381 Q975.338 916.91 976.532 919.411 Q978.811 924.248 978.811 932.753 Q978.811 941.065 976.699 945.595 Q973.615 952.211 966.806 952.211 Q964.25 952.211 961.638 950.905 Q959.053 949.598 957.414 946.457 Q954.857 941.76 954.857 932.753 M959.581 932.059 Q959.581 940.648 960.193 944.067 Q960.887 947.764 962.777 949.376 Q964.694 950.96 966.806 950.96 Q969.085 950.96 970.975 949.265 Q972.892 947.541 973.476 943.844 Q974.115 940.203 974.087 932.059 Q974.087 924.137 973.531 920.968 Q972.781 917.271 970.78 915.798 Q968.807 914.297 966.806 914.297 Q966.056 914.297 965.25 914.519 Q964.472 914.741 963.333 915.381 Q962.194 916.02 961.304 917.604 Q960.443 919.189 960.026 921.579 Q959.581 924.665 959.581 932.059 Z" fill="#000000" fill-rule="evenodd" fill-opacity="1" /><path clip-path="url(#clip200)" d="M1250.35 918.466 L1250.35 916.687 Q1257.19 916.687 1260.72 913.046 Q1261.69 913.046 1261.86 913.268 Q1262.03 913.491 1262.03 914.519 L1262.03 946.457 Q1262.03 948.153 1262.86 948.681 Q1263.69 949.209 1267.33 949.209 L1269.14 949.209 L1269.14 950.96 Q1267.14 950.793 1259.91 950.793 Q1252.69 950.793 1250.72 950.96 L1250.72 949.209 L1252.52 949.209 Q1256.11 949.209 1256.97 948.709 Q1257.83 948.18 1257.83 946.457 L1257.83 916.965 Q1254.86 918.466 1250.35 918.466 Z" fill="#000000" fill-rule="evenodd" fill-opacity="1" /><path clip-path="url(#clip200)" d="M1279.45 950.043 Q1278.59 949.126 1278.59 947.93 Q1278.59 946.735 1279.45 945.873 Q1280.31 944.984 1281.62 944.984 Q1282.87 944.984 1283.7 945.818 Q1284.56 946.624 1284.56 947.958 Q1284.56 949.265 1283.64 950.126 Q1282.76 950.96 1281.62 950.96 Q1280.31 950.96 1279.45 950.043 Z" fill="#000000" fill-rule="evenodd" fill-opacity="1" /><path clip-path="url(#clip200)" d="M1292.4 941.787 Q1292.4 940.092 1293.32 939.452 Q1294.23 938.785 1295.2 938.785 Q1296.51 938.785 1297.26 939.619 Q1298.04 940.425 1298.04 941.565 Q1298.04 942.705 1297.26 943.538 Q1296.51 944.345 1295.2 944.345 Q1294.57 944.345 1294.23 944.233 Q1294.98 946.846 1297.26 948.736 Q1299.57 950.627 1302.6 950.627 Q1306.4 950.627 1308.68 946.93 Q1310.04 944.539 1310.04 939.119 Q1310.04 934.338 1309.02 931.947 Q1307.43 928.306 1304.18 928.306 Q1299.57 928.306 1296.84 932.281 Q1296.51 932.781 1296.12 932.809 Q1295.57 932.809 1295.43 932.503 Q1295.32 932.17 1295.32 931.308 L1295.32 914.463 Q1295.32 913.101 1295.87 913.101 Q1296.09 913.101 1296.57 913.268 Q1300.15 914.853 1304.13 914.88 Q1308.21 914.88 1311.88 913.213 Q1312.16 913.046 1312.32 913.046 Q1312.88 913.046 1312.91 913.685 Q1312.91 913.908 1312.43 914.575 Q1311.99 915.214 1311.02 916.076 Q1310.04 916.91 1308.79 917.716 Q1307.54 918.522 1305.71 919.078 Q1303.9 919.606 1301.9 919.606 Q1299.51 919.606 1297.07 918.855 L1297.07 929.946 Q1300.01 927.055 1304.29 927.055 Q1308.85 927.055 1311.99 930.724 Q1315.13 934.393 1315.13 939.508 Q1315.13 944.873 1311.41 948.542 Q1307.71 952.211 1302.71 952.211 Q1298.15 952.211 1295.26 948.959 Q1292.4 945.707 1292.4 941.787 Z" fill="#000000" fill-rule="evenodd" fill-opacity="1" /><path clip-path="url(#clip200)" d="M1585.56 950.96 Q1585.56 949.932 1585.64 949.626 Q1585.76 949.32 1586.2 948.848 L1597.12 936.673 Q1603.1 929.946 1603.1 924.081 Q1603.1 920.273 1601.09 917.549 Q1599.12 914.825 1595.48 914.825 Q1592.98 914.825 1590.87 916.354 Q1588.76 917.882 1587.78 920.606 Q1587.95 920.551 1588.53 920.551 Q1589.95 920.551 1590.73 921.44 Q1591.54 922.33 1591.54 923.525 Q1591.54 925.054 1590.53 925.804 Q1589.56 926.527 1588.59 926.527 Q1588.2 926.527 1587.67 926.444 Q1587.17 926.36 1586.37 925.582 Q1585.56 924.776 1585.56 923.358 Q1585.56 919.383 1588.56 916.215 Q1591.59 913.046 1596.2 913.046 Q1601.43 913.046 1604.85 916.159 Q1608.29 919.244 1608.29 924.081 Q1608.29 925.777 1607.76 927.333 Q1607.26 928.862 1606.57 930.057 Q1605.9 931.252 1604.07 933.17 Q1602.23 935.088 1600.76 936.45 Q1599.29 937.812 1595.98 940.703 L1589.95 946.568 L1600.21 946.568 Q1605.21 946.568 1605.6 946.124 Q1606.15 945.317 1606.85 941.065 L1608.29 941.065 L1606.68 950.96 L1585.56 950.96 Z" fill="#000000" fill-rule="evenodd" fill-opacity="1" /><path clip-path="url(#clip200)" d="M1616.88 950.043 Q1616.02 949.126 1616.02 947.93 Q1616.02 946.735 1616.88 945.873 Q1617.74 944.984 1619.05 944.984 Q1620.3 944.984 1621.13 945.818 Q1621.99 946.624 1621.99 947.958 Q1621.99 949.265 1621.07 950.126 Q1620.19 950.96 1619.05 950.96 Q1617.74 950.96 1616.88 950.043 Z" fill="#000000" fill-rule="evenodd" fill-opacity="1" /><path clip-path="url(#clip200)" d="M1629.22 932.753 Q1629.22 924.387 1631.33 919.828 Q1634.27 913.046 1641.22 913.046 Q1642.69 913.046 1644.22 913.463 Q1645.78 913.852 1647.72 915.381 Q1649.7 916.91 1650.89 919.411 Q1653.17 924.248 1653.17 932.753 Q1653.17 941.065 1651.06 945.595 Q1647.97 952.211 1641.17 952.211 Q1638.61 952.211 1636 950.905 Q1633.41 949.598 1631.77 946.457 Q1629.22 941.76 1629.22 932.753 M1633.94 932.059 Q1633.94 940.648 1634.55 944.067 Q1635.25 947.764 1637.14 949.376 Q1639.05 950.96 1641.17 950.96 Q1643.44 950.96 1645.33 949.265 Q1647.25 947.541 1647.84 943.844 Q1648.47 940.203 1648.45 932.059 Q1648.45 924.137 1647.89 920.968 Q1647.14 917.271 1645.14 915.798 Q1643.17 914.297 1641.17 914.297 Q1640.42 914.297 1639.61 914.519 Q1638.83 914.741 1637.69 915.381 Q1636.55 916.02 1635.66 917.604 Q1634.8 919.189 1634.39 921.579 Q1633.94 924.665 1633.94 932.059 Z" fill="#000000" fill-rule="evenodd" fill-opacity="1" /><path clip-path="url(#clip200)" d="M876.245 995.884 L877.449 981.677 L916.075 981.677 L917.279 995.884 L915.705 995.884 Q915.458 993.043 915.211 991.406 Q914.995 989.769 914.439 988.225 Q913.914 986.65 913.235 985.909 Q912.586 985.136 911.32 984.55 Q910.054 983.932 908.418 983.778 Q906.782 983.623 904.311 983.623 Q901.409 983.623 900.699 983.747 Q899.927 983.932 899.742 984.488 Q899.556 985.013 899.556 986.156 L899.556 1019.48 Q899.556 1020.75 899.804 1021.27 Q900.081 1021.77 901.533 1022.17 Q902.984 1022.54 906.195 1022.54 L908.727 1022.54 L908.727 1024.48 Q906.133 1024.3 896.716 1024.3 Q887.36 1024.3 884.767 1024.48 L884.767 1022.54 L887.299 1022.54 Q890.51 1022.54 891.961 1022.17 Q893.443 1021.77 893.69 1021.27 Q893.937 1020.75 893.937 1019.48 L893.937 986.156 Q893.937 985.26 893.875 984.889 Q893.814 984.519 893.536 984.21 Q893.258 983.87 892.609 983.747 Q891.992 983.623 889.213 983.623 Q886.743 983.623 885.076 983.778 Q883.439 983.932 882.173 984.55 Q880.907 985.136 880.228 985.909 Q879.58 986.65 879.024 988.225 Q878.499 989.769 878.283 991.406 Q878.067 993.043 877.82 995.884 L876.245 995.884 Z" fill="#000000" fill-rule="evenodd" fill-opacity="1" /><path clip-path="url(#clip200)" d="M921.695 1024.48 L921.695 1022.54 Q925.06 1022.54 925.832 1022.14 Q926.604 1021.7 926.604 1019.67 L926.604 1002.65 Q926.604 1000.3 925.801 999.745 Q925.029 999.189 921.942 999.189 L921.942 997.212 L930.772 996.533 L930.772 1019.73 Q930.772 1021.61 931.452 1022.07 Q932.131 1022.54 935.219 1022.54 L935.219 1024.48 Q928.765 1024.3 928.642 1024.3 Q927.777 1024.3 921.695 1024.48 M924.35 985.507 Q924.35 984.241 925.307 983.222 Q926.295 982.172 927.685 982.172 Q929.074 982.172 930.062 983.129 Q931.05 984.056 931.05 985.538 Q931.05 986.99 930.062 987.947 Q929.074 988.874 927.685 988.874 Q926.234 988.874 925.276 987.854 Q924.35 986.835 924.35 985.507 Z" fill="#000000" fill-rule="evenodd" fill-opacity="1" /><path clip-path="url(#clip200)" d="M939.14 1024.48 L939.14 1022.54 Q942.505 1022.54 943.277 1022.14 Q944.049 1021.7 944.049 1019.67 L944.049 1002.71 Q944.049 1000.36 943.215 999.776 Q942.413 999.189 939.14 999.189 L939.14 997.212 L948.032 996.533 L948.032 1003.17 Q950.996 996.533 957.388 996.533 Q964.798 996.533 965.817 1002.71 Q966.898 1000.3 969.151 998.417 Q971.436 996.533 974.987 996.533 Q979.742 996.533 981.625 998.88 Q983.015 1000.46 983.293 1002.22 Q983.571 1003.98 983.571 1008.55 L983.571 1020.62 Q983.632 1021.95 984.651 1022.26 Q985.67 1022.54 988.511 1022.54 L988.511 1024.48 Q982.058 1024.3 981.44 1024.3 Q980.946 1024.3 974.277 1024.48 L974.277 1022.54 Q977.642 1022.54 978.414 1022.14 Q979.217 1021.7 979.217 1019.67 L979.217 1004.93 Q979.217 1001.72 978.229 999.838 Q977.241 997.923 974.524 997.923 Q971.251 997.923 968.627 1000.67 Q966.002 1003.42 966.002 1008.05 L966.002 1019.67 Q966.002 1021.7 966.774 1022.14 Q967.577 1022.54 970.942 1022.54 L970.942 1024.48 Q964.489 1024.3 963.841 1024.3 Q963.347 1024.3 956.708 1024.48 L956.708 1022.54 Q960.074 1022.54 960.846 1022.14 Q961.649 1021.7 961.649 1019.67 L961.649 1004.93 Q961.649 1001.72 960.661 999.838 Q959.672 997.923 956.955 997.923 Q953.682 997.923 951.058 1000.67 Q948.434 1003.42 948.434 1008.05 L948.434 1019.67 Q948.434 1021.7 949.205 1022.14 Q950.008 1022.54 953.343 1022.54 L953.343 1024.48 Q946.89 1024.3 946.272 1024.3 Q945.778 1024.3 939.14 1024.48 Z" fill="#000000" fill-rule="evenodd" fill-opacity="1" /><path clip-path="url(#clip200)" d="M991.506 1010.55 Q991.506 1004.59 995.334 1000.36 Q999.163 996.131 1004.66 996.131 Q1010.22 996.131 1013.09 999.745 Q1015.99 1003.36 1015.99 1008.55 Q1015.99 1009.5 1015.74 1009.69 Q1015.5 1009.88 1014.42 1009.88 L996.755 1009.88 Q996.755 1016.33 998.669 1019.36 Q1001.32 1023.59 1005.8 1023.59 Q1006.42 1023.59 1007.16 1023.46 Q1007.9 1023.34 1009.41 1022.82 Q1010.93 1022.26 1012.25 1020.81 Q1013.58 1019.36 1014.35 1017.07 Q1014.54 1016.18 1015.16 1016.21 Q1015.99 1016.21 1015.99 1016.95 Q1015.99 1017.5 1015.37 1018.77 Q1014.79 1020.01 1013.64 1021.49 Q1012.5 1022.97 1010.28 1024.08 Q1008.09 1025.19 1005.43 1025.19 Q999.873 1025.19 995.674 1020.99 Q991.506 1016.76 991.506 1010.55 M996.817 1008.55 L1011.82 1008.55 Q1011.82 1007.22 1011.58 1005.74 Q1011.36 1004.25 1010.68 1002.22 Q1010.03 1000.15 1008.49 998.849 Q1006.94 997.552 1004.66 997.552 Q1003.64 997.552 1002.53 997.985 Q1001.45 998.417 1000.12 999.467 Q998.793 1000.52 997.866 1002.9 Q996.94 1005.27 996.817 1008.55 Z" fill="#000000" fill-rule="evenodd" fill-opacity="1" /><polyline clip-path="url(#clip203)" style="stroke:#000000; stroke-linecap:round; stroke-linejoin:round; stroke-width:2.00037; stroke-opacity:0.1; fill:none" points="232.475,755.531 1659.76,755.531 "/>
<polyline clip-path="url(#clip203)" style="stroke:#000000; stroke-linecap:round; stroke-linejoin:round; stroke-width:2.00037; stroke-opacity:0.1; fill:none" points="232.475,530.743 1659.76,530.743 "/>
<polyline clip-path="url(#clip203)" style="stroke:#000000; stroke-linecap:round; stroke-linejoin:round; stroke-width:2.00037; stroke-opacity:0.1; fill:none" points="232.475,305.954 1659.76,305.954 "/>
<polyline clip-path="url(#clip203)" style="stroke:#000000; stroke-linecap:round; stroke-linejoin:round; stroke-width:2.00037; stroke-opacity:0.1; fill:none" points="232.475,81.166 1659.76,81.166 "/>
<polyline clip-path="url(#clip200)" style="stroke:#000000; stroke-linecap:round; stroke-linejoin:round; stroke-width:4.00074; stroke-opacity:1; fill:none" points="232.475,888.691 232.475,47.2528 "/>
<polyline clip-path="url(#clip200)" style="stroke:#000000; stroke-linecap:round; stroke-linejoin:round; stroke-width:4.00074; stroke-opacity:1; fill:none" points="1659.76,888.691 1659.76,47.2528 "/>
<polyline clip-path="url(#clip200)" style="stroke:#000000; stroke-linecap:round; stroke-linejoin:round; stroke-width:4.00074; stroke-opacity:1; fill:none" points="232.475,755.531 251.371,755.531 "/>
<polyline clip-path="url(#clip200)" style="stroke:#000000; stroke-linecap:round; stroke-linejoin:round; stroke-width:4.00074; stroke-opacity:1; fill:none" points="232.475,530.743 251.371,530.743 "/>
<polyline clip-path="url(#clip200)" style="stroke:#000000; stroke-linecap:round; stroke-linejoin:round; stroke-width:4.00074; stroke-opacity:1; fill:none" points="232.475,305.954 251.371,305.954 "/>
<polyline clip-path="url(#clip200)" style="stroke:#000000; stroke-linecap:round; stroke-linejoin:round; stroke-width:4.00074; stroke-opacity:1; fill:none" points="232.475,81.166 251.371,81.166 "/>
<path clip-path="url(#clip200)" d="M110.194 756.768 Q110.194 748.402 112.306 743.843 Q115.251 737.061 122.198 737.061 Q123.671 737.061 125.199 737.478 Q126.756 737.867 128.701 739.395 Q130.674 740.924 131.869 743.426 Q134.147 748.263 134.147 756.768 Q134.147 765.079 132.035 769.61 Q128.951 776.226 122.143 776.226 Q119.586 776.226 116.974 774.919 Q114.39 773.613 112.75 770.472 Q110.194 765.774 110.194 756.768 M114.918 756.073 Q114.918 764.662 115.529 768.081 Q116.224 771.778 118.113 773.39 Q120.031 774.975 122.143 774.975 Q124.421 774.975 126.311 773.279 Q128.228 771.556 128.812 767.859 Q129.451 764.218 129.423 756.073 Q129.423 748.151 128.868 744.983 Q128.117 741.286 126.117 739.812 Q124.144 738.311 122.143 738.311 Q121.392 738.311 120.587 738.534 Q119.809 738.756 118.669 739.395 Q117.53 740.035 116.641 741.619 Q115.779 743.204 115.362 745.594 Q114.918 748.679 114.918 756.073 Z" fill="#000000" fill-rule="evenodd" fill-opacity="1" /><path clip-path="url(#clip200)" d="M142.123 774.058 Q141.261 773.14 141.261 771.945 Q141.261 770.75 142.123 769.888 Q142.984 768.999 144.29 768.999 Q145.541 768.999 146.374 769.833 Q147.236 770.639 147.236 771.973 Q147.236 773.279 146.319 774.141 Q145.43 774.975 144.29 774.975 Q142.984 774.975 142.123 774.058 Z" fill="#000000" fill-rule="evenodd" fill-opacity="1" /><path clip-path="url(#clip200)" d="M154.461 756.768 Q154.461 748.402 156.573 743.843 Q159.518 737.061 166.466 737.061 Q167.938 737.061 169.467 737.478 Q171.023 737.867 172.968 739.395 Q174.941 740.924 176.136 743.426 Q178.415 748.263 178.415 756.768 Q178.415 765.079 176.303 769.61 Q173.218 776.226 166.41 776.226 Q163.853 776.226 161.241 774.919 Q158.657 773.613 157.017 770.472 Q154.461 765.774 154.461 756.768 M159.185 756.073 Q159.185 764.662 159.796 768.081 Q160.491 771.778 162.381 773.39 Q164.298 774.975 166.41 774.975 Q168.689 774.975 170.578 773.279 Q172.496 771.556 173.079 767.859 Q173.718 764.218 173.691 756.073 Q173.691 748.151 173.135 744.983 Q172.385 741.286 170.384 739.812 Q168.411 738.311 166.41 738.311 Q165.66 738.311 164.854 738.534 Q164.076 738.756 162.936 739.395 Q161.797 740.035 160.908 741.619 Q160.046 743.204 159.63 745.594 Q159.185 748.679 159.185 756.073 Z" fill="#000000" fill-rule="evenodd" fill-opacity="1" /><path clip-path="url(#clip200)" d="M182.916 756.768 Q182.916 748.402 185.028 743.843 Q187.974 737.061 194.921 737.061 Q196.394 737.061 197.922 737.478 Q199.478 737.867 201.424 739.395 Q203.397 740.924 204.591 743.426 Q206.87 748.263 206.87 756.768 Q206.87 765.079 204.758 769.61 Q201.674 776.226 194.865 776.226 Q192.309 776.226 189.697 774.919 Q187.112 773.613 185.473 770.472 Q182.916 765.774 182.916 756.768 M187.64 756.073 Q187.64 764.662 188.252 768.081 Q188.947 771.778 190.836 773.39 Q192.754 774.975 194.865 774.975 Q197.144 774.975 199.034 773.279 Q200.951 771.556 201.535 767.859 Q202.174 764.218 202.146 756.073 Q202.146 748.151 201.59 744.983 Q200.84 741.286 198.839 739.812 Q196.866 738.311 194.865 738.311 Q194.115 738.311 193.309 738.534 Q192.531 738.756 191.392 739.395 Q190.253 740.035 189.363 741.619 Q188.502 743.204 188.085 745.594 Q187.64 748.679 187.64 756.073 Z" fill="#000000" fill-rule="evenodd" fill-opacity="1" /><path clip-path="url(#clip200)" d="M110.805 531.98 Q110.805 523.613 112.917 519.054 Q115.863 512.272 122.81 512.272 Q124.282 512.272 125.811 512.689 Q127.367 513.078 129.312 514.607 Q131.285 516.136 132.48 518.638 Q134.759 523.474 134.759 531.98 Q134.759 540.291 132.647 544.822 Q129.562 551.437 122.754 551.437 Q120.198 551.437 117.585 550.131 Q115.001 548.824 113.362 545.683 Q110.805 540.986 110.805 531.98 M115.529 531.285 Q115.529 539.874 116.14 543.293 Q116.835 546.99 118.725 548.602 Q120.642 550.186 122.754 550.186 Q125.033 550.186 126.922 548.491 Q128.84 546.767 129.423 543.071 Q130.062 539.429 130.035 531.285 Q130.035 523.363 129.479 520.194 Q128.729 516.497 126.728 515.024 Q124.755 513.523 122.754 513.523 Q122.004 513.523 121.198 513.745 Q120.42 513.968 119.281 514.607 Q118.141 515.246 117.252 516.831 Q116.391 518.415 115.974 520.806 Q115.529 523.891 115.529 531.285 Z" fill="#000000" fill-rule="evenodd" fill-opacity="1" /><path clip-path="url(#clip200)" d="M142.734 549.269 Q141.873 548.352 141.873 547.157 Q141.873 545.961 142.734 545.1 Q143.596 544.21 144.902 544.21 Q146.152 544.21 146.986 545.044 Q147.847 545.85 147.847 547.184 Q147.847 548.491 146.93 549.353 Q146.041 550.186 144.902 550.186 Q143.596 550.186 142.734 549.269 Z" fill="#000000" fill-rule="evenodd" fill-opacity="1" /><path clip-path="url(#clip200)" d="M155.072 531.98 Q155.072 523.613 157.184 519.054 Q160.13 512.272 167.077 512.272 Q168.55 512.272 170.078 512.689 Q171.634 513.078 173.579 514.607 Q175.552 516.136 176.747 518.638 Q179.026 523.474 179.026 531.98 Q179.026 540.291 176.914 544.822 Q173.83 551.437 167.021 551.437 Q164.465 551.437 161.853 550.131 Q159.268 548.824 157.629 545.683 Q155.072 540.986 155.072 531.98 M159.796 531.285 Q159.796 539.874 160.408 543.293 Q161.102 546.99 162.992 548.602 Q164.909 550.186 167.021 550.186 Q169.3 550.186 171.19 548.491 Q173.107 546.767 173.691 543.071 Q174.33 539.429 174.302 531.285 Q174.302 523.363 173.746 520.194 Q172.996 516.497 170.995 515.024 Q169.022 513.523 167.021 513.523 Q166.271 513.523 165.465 513.745 Q164.687 513.968 163.548 514.607 Q162.408 515.246 161.519 516.831 Q160.658 518.415 160.241 520.806 Q159.796 523.891 159.796 531.285 Z" fill="#000000" fill-rule="evenodd" fill-opacity="1" /><path clip-path="url(#clip200)" d="M184.139 541.014 Q184.139 539.318 185.056 538.679 Q185.973 538.012 186.946 538.012 Q188.252 538.012 189.002 538.846 Q189.78 539.652 189.78 540.791 Q189.78 541.931 189.002 542.765 Q188.252 543.571 186.946 543.571 Q186.307 543.571 185.973 543.46 Q186.723 546.073 189.002 547.963 Q191.309 549.853 194.337 549.853 Q198.145 549.853 200.423 546.156 Q201.785 543.765 201.785 538.345 Q201.785 533.564 200.757 531.174 Q199.173 527.532 195.921 527.532 Q191.309 527.532 188.585 531.507 Q188.252 532.008 187.863 532.035 Q187.307 532.035 187.168 531.73 Q187.057 531.396 187.057 530.534 L187.057 513.69 Q187.057 512.328 187.613 512.328 Q187.835 512.328 188.307 512.495 Q191.892 514.079 195.866 514.107 Q199.951 514.107 203.619 512.439 Q203.897 512.272 204.063 512.272 Q204.619 512.272 204.647 512.911 Q204.647 513.134 204.175 513.801 Q203.73 514.44 202.757 515.302 Q201.785 516.136 200.534 516.942 Q199.284 517.748 197.45 518.304 Q195.644 518.832 193.643 518.832 Q191.253 518.832 188.808 518.082 L188.808 529.172 Q191.753 526.282 196.033 526.282 Q200.59 526.282 203.73 529.951 Q206.87 533.62 206.87 538.734 Q206.87 544.099 203.146 547.768 Q199.451 551.437 194.449 551.437 Q189.891 551.437 187.001 548.185 Q184.139 544.933 184.139 541.014 Z" fill="#000000" fill-rule="evenodd" fill-opacity="1" /><path clip-path="url(#clip200)" d="M110.194 307.191 Q110.194 298.825 112.306 294.266 Q115.251 287.484 122.198 287.484 Q123.671 287.484 125.199 287.901 Q126.756 288.29 128.701 289.819 Q130.674 291.347 131.869 293.849 Q134.147 298.686 134.147 307.191 Q134.147 315.502 132.035 320.033 Q128.951 326.649 122.143 326.649 Q119.586 326.649 116.974 325.342 Q114.39 324.036 112.75 320.895 Q110.194 316.197 110.194 307.191 M114.918 306.496 Q114.918 315.086 115.529 318.504 Q116.224 322.201 118.113 323.814 Q120.031 325.398 122.143 325.398 Q124.421 325.398 126.311 323.702 Q128.228 321.979 128.812 318.282 Q129.451 314.641 129.423 306.496 Q129.423 298.574 128.868 295.406 Q128.117 291.709 126.117 290.236 Q124.144 288.735 122.143 288.735 Q121.392 288.735 120.587 288.957 Q119.809 289.179 118.669 289.819 Q117.53 290.458 116.641 292.042 Q115.779 293.627 115.362 296.017 Q114.918 299.103 114.918 306.496 Z" fill="#000000" fill-rule="evenodd" fill-opacity="1" /><path clip-path="url(#clip200)" d="M142.123 324.481 Q141.261 323.563 141.261 322.368 Q141.261 321.173 142.123 320.311 Q142.984 319.422 144.29 319.422 Q145.541 319.422 146.374 320.256 Q147.236 321.062 147.236 322.396 Q147.236 323.702 146.319 324.564 Q145.43 325.398 144.29 325.398 Q142.984 325.398 142.123 324.481 Z" fill="#000000" fill-rule="evenodd" fill-opacity="1" /><path clip-path="url(#clip200)" d="M157.295 292.904 L157.295 291.125 Q164.131 291.125 167.66 287.484 Q168.633 287.484 168.8 287.706 Q168.967 287.928 168.967 288.957 L168.967 320.895 Q168.967 322.591 169.8 323.119 Q170.634 323.647 174.274 323.647 L176.08 323.647 L176.08 325.398 Q174.08 325.231 166.855 325.231 Q159.63 325.231 157.657 325.398 L157.657 323.647 L159.463 323.647 Q163.048 323.647 163.909 323.146 Q164.77 322.618 164.77 320.895 L164.77 291.403 Q161.797 292.904 157.295 292.904 Z" fill="#000000" fill-rule="evenodd" fill-opacity="1" /><path clip-path="url(#clip200)" d="M182.916 307.191 Q182.916 298.825 185.028 294.266 Q187.974 287.484 194.921 287.484 Q196.394 287.484 197.922 287.901 Q199.478 288.29 201.424 289.819 Q203.397 291.347 204.591 293.849 Q206.87 298.686 206.87 307.191 Q206.87 315.502 204.758 320.033 Q201.674 326.649 194.865 326.649 Q192.309 326.649 189.697 325.342 Q187.112 324.036 185.473 320.895 Q182.916 316.197 182.916 307.191 M187.64 306.496 Q187.64 315.086 188.252 318.504 Q188.947 322.201 190.836 323.814 Q192.754 325.398 194.865 325.398 Q197.144 325.398 199.034 323.702 Q200.951 321.979 201.535 318.282 Q202.174 314.641 202.146 306.496 Q202.146 298.574 201.59 295.406 Q200.84 291.709 198.839 290.236 Q196.866 288.735 194.865 288.735 Q194.115 288.735 193.309 288.957 Q192.531 289.179 191.392 289.819 Q190.253 290.458 189.363 292.042 Q188.502 293.627 188.085 296.017 Q187.64 299.103 187.64 306.496 Z" fill="#000000" fill-rule="evenodd" fill-opacity="1" /><path clip-path="url(#clip200)" d="M110.805 82.4029 Q110.805 74.0362 112.917 69.4776 Q115.863 62.6953 122.81 62.6953 Q124.282 62.6953 125.811 63.1122 Q127.367 63.5014 129.312 65.0302 Q131.285 66.559 132.48 69.0607 Q134.759 73.8972 134.759 82.4029 Q134.759 90.7141 132.647 95.2449 Q129.562 101.86 122.754 101.86 Q120.198 101.86 117.585 100.554 Q115.001 99.2476 113.362 96.1066 Q110.805 91.409 110.805 82.4029 M115.529 81.708 Q115.529 90.2971 116.14 93.7161 Q116.835 97.413 118.725 99.0252 Q120.642 100.61 122.754 100.61 Q125.033 100.61 126.922 98.914 Q128.84 97.1906 129.423 93.4937 Q130.062 89.8524 130.035 81.708 Q130.035 73.786 129.479 70.6173 Q128.729 66.9203 126.728 65.4471 Q124.755 63.9461 122.754 63.9461 Q122.004 63.9461 121.198 64.1685 Q120.42 64.3909 119.281 65.0302 Q118.141 65.6695 117.252 67.2539 Q116.391 68.8383 115.974 71.2288 Q115.529 74.3142 115.529 81.708 Z" fill="#000000" fill-rule="evenodd" fill-opacity="1" /><path clip-path="url(#clip200)" d="M142.734 99.6923 Q141.873 98.775 141.873 97.5798 Q141.873 96.3845 142.734 95.5228 Q143.596 94.6333 144.902 94.6333 Q146.152 94.6333 146.986 95.4672 Q147.847 96.2733 147.847 97.6076 Q147.847 98.914 146.93 99.7757 Q146.041 100.61 144.902 100.61 Q143.596 100.61 142.734 99.6923 Z" fill="#000000" fill-rule="evenodd" fill-opacity="1" /><path clip-path="url(#clip200)" d="M157.907 68.1156 L157.907 66.3366 Q164.743 66.3366 168.272 62.6953 Q169.244 62.6953 169.411 62.9177 Q169.578 63.14 169.578 64.1685 L169.578 96.1066 Q169.578 97.8021 170.412 98.3303 Q171.245 98.8584 174.885 98.8584 L176.692 98.8584 L176.692 100.61 Q174.691 100.443 167.466 100.443 Q160.241 100.443 158.268 100.61 L158.268 98.8584 L160.074 98.8584 Q163.659 98.8584 164.52 98.3581 Q165.382 97.8299 165.382 96.1066 L165.382 66.6146 Q162.408 68.1156 157.907 68.1156 Z" fill="#000000" fill-rule="evenodd" fill-opacity="1" /><path clip-path="url(#clip200)" d="M184.139 91.4368 Q184.139 89.7412 185.056 89.1019 Q185.973 88.4348 186.946 88.4348 Q188.252 88.4348 189.002 89.2686 Q189.78 90.0747 189.78 91.2144 Q189.78 92.354 189.002 93.1879 Q188.252 93.994 186.946 93.994 Q186.307 93.994 185.973 93.8828 Q186.723 96.4957 189.002 98.3859 Q191.309 100.276 194.337 100.276 Q198.145 100.276 200.423 96.5791 Q201.785 94.1886 201.785 88.7683 Q201.785 83.9873 200.757 81.5968 Q199.173 77.9555 195.921 77.9555 Q191.309 77.9555 188.585 81.9304 Q188.252 82.4307 187.863 82.4585 Q187.307 82.4585 187.168 82.1528 Q187.057 81.8192 187.057 80.9575 L187.057 64.1129 Q187.057 62.7509 187.613 62.7509 Q187.835 62.7509 188.307 62.9177 Q191.892 64.5021 195.866 64.5298 Q199.951 64.5298 203.619 62.8621 Q203.897 62.6953 204.063 62.6953 Q204.619 62.6953 204.647 63.3346 Q204.647 63.557 204.175 64.2241 Q203.73 64.8634 202.757 65.7251 Q201.785 66.559 200.534 67.3651 Q199.284 68.1712 197.45 68.7271 Q195.644 69.2552 193.643 69.2552 Q191.253 69.2552 188.808 68.5047 L188.808 79.5955 Q191.753 76.7047 196.033 76.7047 Q200.59 76.7047 203.73 80.3738 Q206.87 84.0429 206.87 89.1575 Q206.87 94.5222 203.146 98.1913 Q199.451 101.86 194.449 101.86 Q189.891 101.86 187.001 98.6082 Q184.139 95.3561 184.139 91.4368 Z" fill="#000000" fill-rule="evenodd" fill-opacity="1" /><path clip-path="url(#clip200)" d="M85.9642 584.46 Q86.4619 584.46 86.8132 584.811 Q87.1645 585.163 87.1645 585.66 Q87.1645 586.51 86.3741 586.803 L57.5965 597.96 Q57.4794 598.018 57.1867 598.018 Q56.8939 598.018 56.7768 597.96 L27.9993 586.803 Q27.2088 586.51 27.2088 585.66 Q27.2088 585.163 27.5601 584.811 Q27.9114 584.46 28.4091 584.46 Q28.7019 584.46 28.819 584.518 L57.1867 595.558 L85.5544 584.518 Q85.6715 584.46 85.9642 584.46 Z" fill="#000000" fill-rule="evenodd" fill-opacity="1" /><path clip-path="url(#clip200)" d="M31.7758 535.049 Q31.9514 535.049 32.654 535.225 L70.1263 568.754 L70.1263 558.505 Q70.1263 555.489 69.5994 553.205 Q69.0431 550.921 68.1063 549.339 Q67.1695 547.758 65.5594 546.528 Q63.92 545.269 62.1342 544.449 Q60.3191 543.629 57.6551 542.78 Q56.6304 542.458 56.3962 542.311 Q56.162 542.165 56.162 541.784 Q56.162 541.403 56.3962 541.198 Q56.6012 540.993 56.8354 540.993 Q56.9525 540.993 57.1281 541.052 Q57.2745 541.081 57.4501 541.14 Q57.6258 541.198 57.7136 541.228 L70.9753 545.503 Q71.8243 545.767 71.9999 546.03 Q72.1756 546.294 72.1756 547.348 L72.1756 573.44 Q72.1756 574.347 72.117 574.64 Q72.0292 574.933 71.6486 574.933 L70.5654 574.699 L33.0932 541.169 L33.0932 550.95 Q33.0932 553.702 33.5908 555.869 Q34.0592 558.007 34.9375 559.53 Q35.7865 561.053 37.221 562.224 Q38.6262 563.395 40.2656 564.186 Q41.8757 564.977 44.1299 565.709 L44.2763 565.797 Q44.4227 565.884 44.5105 565.943 Q44.569 566.002 44.6569 566.148 Q44.7154 566.294 44.7154 566.47 Q44.7154 566.792 44.5398 566.997 Q44.3641 567.173 44.1885 567.173 L44.0421 567.202 Q43.5151 567.144 43.2224 567.026 L32.4198 563.717 Q31.5709 563.454 31.3952 563.19 Q31.2195 562.927 31.2195 561.873 L31.2195 536.542 Q31.2195 535.605 31.3074 535.342 Q31.3952 535.049 31.7758 535.049 Z" fill="#000000" fill-rule="evenodd" fill-opacity="1" /><path clip-path="url(#clip200)" d="M64.8316 529.035 L63.52 529.035 Q63.52 523.993 60.8355 521.389 Q60.8355 520.672 60.9995 520.549 Q61.1634 520.426 61.9216 520.426 L85.4677 520.426 Q86.7177 520.426 87.1071 519.811 Q87.4965 519.196 87.4965 516.511 L87.4965 515.178 L88.7875 515.178 Q88.6645 516.654 88.6645 521.984 Q88.6645 527.313 88.7875 528.769 L87.4965 528.769 L87.4965 527.436 Q87.4965 524.792 87.1276 524.157 Q86.7382 523.521 85.4677 523.521 L63.725 523.521 Q64.8316 525.714 64.8316 529.035 Z" fill="#000000" fill-rule="evenodd" fill-opacity="1" /><path clip-path="url(#clip200)" d="M31.8929 459.485 Q32.4198 459.485 32.7126 459.69 Q32.9761 459.865 33.0346 460.07 Q33.0639 460.275 33.0932 460.803 Q33.2981 464.99 36.1378 468.416 Q36.8697 469.265 39.1531 471.403 Q41.4366 473.512 44.4812 476.323 Q47.5258 479.105 49.1653 480.715 L67.6672 472.984 Q68.3991 472.662 68.7211 472.545 Q69.0139 472.399 69.3944 472.106 Q69.775 471.784 69.8921 471.55 Q70.0092 471.286 70.1556 470.73 Q70.2727 470.144 70.302 469.558 Q70.302 468.943 70.3312 467.831 Q70.3312 467.479 70.3605 467.333 Q70.3605 467.157 70.5362 466.952 Q70.6825 466.747 71.0338 466.747 Q71.5608 466.747 71.8536 466.981 Q72.117 467.186 72.1463 467.391 Q72.1756 467.567 72.1756 467.889 Q72.1756 468.651 72.0878 471.227 Q71.9999 473.804 71.9999 474.536 L72.1756 482.092 Q72.1756 482.999 71.4437 482.999 Q71.0631 482.999 70.8582 482.941 Q70.624 482.853 70.5362 482.648 Q70.4191 482.443 70.3898 482.297 Q70.3605 482.15 70.3312 481.799 Q70.2141 480.715 69.8921 479.895 Q69.5408 479.046 69.1895 478.695 Q68.8382 478.314 68.5747 478.314 L67.7257 478.607 L53.4102 484.669 L59.2945 490.086 L65.7643 496.206 Q67.4915 497.817 68.4576 497.817 Q70.0678 497.817 70.3312 495.416 Q70.3898 494.683 70.9753 494.683 Q71.5315 494.683 71.8243 494.918 Q72.0878 495.123 72.1463 495.328 Q72.1756 495.503 72.1756 495.767 Q72.1756 496.85 72.0878 499.135 Q71.9999 501.389 71.9999 502.502 Q71.9999 503.439 72.0878 505.343 Q72.1756 507.246 72.1756 508.125 Q72.1756 508.476 71.9999 508.681 Q71.8243 508.886 71.6486 508.886 L71.5022 508.915 Q71.0924 508.915 70.8582 508.857 Q70.624 508.769 70.5069 508.535 Q70.3898 508.271 70.3898 508.154 Q70.3605 508.037 70.3312 507.597 Q70.1849 505.108 69.2188 503 Q68.2527 500.862 65.9985 498.783 Q65.8521 498.607 65.6765 498.402 Q65.5008 498.168 65.3545 497.993 L51.7415 485.342 L34.9961 492.429 Q34.2349 492.751 33.9129 493.044 Q33.5616 493.336 33.3274 494.244 Q33.0932 495.152 33.0932 496.909 Q33.0932 497.407 33.0639 497.641 Q33.0346 497.875 32.8882 498.08 Q32.7419 498.285 32.4198 498.285 Q31.8636 498.285 31.6001 498.08 Q31.3074 497.846 31.2781 497.67 Q31.2195 497.465 31.2195 497.202 Q31.2195 496.47 31.3074 493.864 Q31.3952 491.257 31.3952 490.496 Q31.3952 489.237 31.3074 486.718 Q31.2195 484.171 31.2195 482.941 Q31.2195 482.033 31.9514 482.033 Q32.4198 482.033 32.6833 482.238 Q32.9468 482.443 33.0053 482.648 Q33.0639 482.853 33.0932 483.234 Q33.2103 484.376 33.5908 485.254 Q33.9421 486.103 34.2934 486.455 Q34.6155 486.777 34.8204 486.777 L35.6108 486.484 L47.5258 481.447 L37.1039 471.725 Q35.8158 470.583 34.9375 470.583 Q33.3566 470.583 33.0932 472.984 Q32.9761 473.717 32.4198 473.717 Q31.8636 473.717 31.6001 473.482 Q31.3074 473.248 31.2781 473.072 Q31.2195 472.867 31.2195 472.574 Q31.2195 471.491 31.3074 469.265 Q31.3952 467.011 31.3952 465.898 Q31.3952 464.961 31.3074 463.057 Q31.2195 461.154 31.2195 460.275 Q31.2195 459.924 31.3952 459.719 Q31.5416 459.514 31.7172 459.514 L31.8929 459.485 Z" fill="#000000" fill-rule="evenodd" fill-opacity="1" /><path clip-path="url(#clip200)" d="M83.1315 453.569 Q81.8815 453.569 81.2872 452.851 Q80.6929 452.134 80.6929 451.211 Q80.6929 450.248 81.3282 449.571 Q81.9429 448.874 83.0291 448.874 Q84.1971 448.874 84.8529 449.694 Q85.5087 450.494 85.3447 451.642 Q87.0251 450.637 87.7833 448.792 Q88.5416 446.927 88.5416 445.205 Q88.5416 443.401 86.9841 441.946 Q85.4267 440.47 81.6151 440.47 Q78.3772 440.47 76.5124 441.741 Q74.6476 442.991 74.6476 445.472 L74.6476 447.317 Q74.6476 447.952 74.5861 448.136 Q74.5246 448.321 74.1762 448.321 Q73.7664 448.321 73.6844 447.685 Q73.6844 447.05 73.5614 446.046 Q73.4795 443.606 71.3687 442.315 Q69.4014 441.146 66.5939 441.146 Q64.0324 441.146 62.9667 442.376 Q61.8806 443.586 61.8806 445.164 Q61.8806 446.64 62.4954 448.259 Q63.1102 449.879 64.4832 450.76 Q64.4832 448.157 66.5939 448.157 Q67.5161 448.157 68.1309 448.751 Q68.7252 449.325 68.7252 450.289 Q68.7252 451.211 68.1514 451.826 Q67.5571 452.441 66.553 452.441 Q64.1553 452.441 62.4954 450.309 Q60.8355 448.157 60.8355 445 Q60.8355 441.884 62.4749 439.589 Q64.1143 437.272 66.6349 437.272 Q69.1145 437.272 71.1433 438.912 Q73.1721 440.552 74.0123 443.155 Q74.6476 439.958 76.8198 438.051 Q78.9715 436.145 81.6151 436.145 Q84.8939 436.145 87.312 438.728 Q89.7097 441.31 89.7097 445.082 Q89.7097 448.567 87.8243 451.068 Q85.939 453.569 83.1315 453.569 Z" fill="#000000" fill-rule="evenodd" fill-opacity="1" /><path clip-path="url(#clip200)" d="M31.7758 390.032 Q31.9514 390.032 32.654 390.207 L70.1263 423.737 L70.1263 413.488 Q70.1263 410.472 69.5994 408.187 Q69.0431 405.903 68.1063 404.322 Q67.1695 402.741 65.5594 401.511 Q63.92 400.252 62.1342 399.432 Q60.3191 398.612 57.6551 397.763 Q56.6304 397.44 56.3962 397.294 Q56.162 397.148 56.162 396.767 Q56.162 396.386 56.3962 396.181 Q56.6012 395.976 56.8354 395.976 Q56.9525 395.976 57.1281 396.035 Q57.2745 396.064 57.4501 396.123 Q57.6258 396.181 57.7136 396.211 L70.9753 400.486 Q71.8243 400.749 71.9999 401.013 Q72.1756 401.277 72.1756 402.331 L72.1756 428.422 Q72.1756 429.33 72.117 429.623 Q72.0292 429.916 71.6486 429.916 L70.5654 429.682 L33.0932 396.152 L33.0932 405.933 Q33.0932 408.685 33.5908 410.852 Q34.0592 412.99 34.9375 414.513 Q35.7865 416.035 37.221 417.207 Q38.6262 418.378 40.2656 419.169 Q41.8757 419.959 44.1299 420.692 L44.2763 420.779 Q44.4227 420.867 44.5105 420.926 Q44.569 420.984 44.6569 421.131 Q44.7154 421.277 44.7154 421.453 Q44.7154 421.775 44.5398 421.98 Q44.3641 422.156 44.1885 422.156 L44.0421 422.185 Q43.5151 422.126 43.2224 422.009 L32.4198 418.7 Q31.5709 418.437 31.3952 418.173 Q31.2195 417.91 31.2195 416.855 L31.2195 391.525 Q31.2195 390.588 31.3074 390.325 Q31.3952 390.032 31.7758 390.032 Z" fill="#000000" fill-rule="evenodd" fill-opacity="1" /><path clip-path="url(#clip200)" d="M82.0249 384.018 Q80.7749 384.018 80.3035 383.342 Q79.8117 382.665 79.8117 381.948 Q79.8117 380.984 80.4265 380.431 Q81.0208 379.857 81.861 379.857 Q82.7012 379.857 83.316 380.431 Q83.9102 380.984 83.9102 381.948 Q83.9102 382.419 83.8283 382.665 Q85.7546 382.112 87.1481 380.431 Q88.5416 378.729 88.5416 376.495 Q88.5416 373.687 85.8161 372.006 Q84.0537 371.002 80.0576 371.002 Q76.5329 371.002 74.7705 371.76 Q72.086 372.928 72.086 375.327 Q72.086 378.729 75.0164 380.738 Q75.3853 380.984 75.4058 381.271 Q75.4058 381.681 75.1804 381.784 Q74.9345 381.866 74.2992 381.866 L61.8806 381.866 Q60.8765 381.866 60.8765 381.456 Q60.8765 381.292 60.9995 380.943 Q62.1675 378.299 62.188 375.368 Q62.188 372.354 60.9585 369.649 Q60.8355 369.444 60.8355 369.321 Q60.8355 368.911 61.3068 368.89 Q61.4708 368.89 61.9626 369.239 Q62.4339 369.567 63.0692 370.284 Q63.684 371.002 64.2783 371.924 Q64.8726 372.846 65.2824 374.199 Q65.6718 375.532 65.6718 377.008 Q65.6718 378.77 65.1185 380.574 L73.295 380.574 Q71.1638 378.401 71.1638 375.245 Q71.1638 371.883 73.8688 369.567 Q76.5739 367.25 80.3445 367.25 Q84.2996 367.25 87.0046 369.997 Q89.7097 372.723 89.7097 376.413 Q89.7097 379.775 87.312 381.907 Q84.9144 384.018 82.0249 384.018 Z" fill="#000000" fill-rule="evenodd" fill-opacity="1" /><path clip-path="url(#clip200)" d="M56.7768 347.541 Q56.8939 347.482 57.1867 347.482 Q57.4794 347.482 57.5965 347.541 L86.3741 358.698 Q87.1645 358.991 87.1645 359.811 Q87.1645 360.308 86.8132 360.66 Q86.4619 361.011 85.9642 361.011 Q85.6715 361.011 85.5544 360.953 L57.1867 349.942 L28.819 360.953 Q28.7019 361.011 28.4091 361.011 Q27.9114 361.011 27.5601 360.66 Q27.2088 360.308 27.2088 359.811 Q27.2088 358.991 27.9993 358.698 L56.7768 347.541 Z" fill="#000000" fill-rule="evenodd" fill-opacity="1" /><polyline clip-path="url(#clip203)" style="stroke:#000000; stroke-linecap:round; stroke-linejoin:round; stroke-width:8.00147; stroke-opacity:1; fill:none" stroke-dasharray="32, 20" points="272.87,755.531 306.532,727.841 340.195,649.54 373.857,533.98 407.52,400.456 441.182,270.469 474.844,163.745 508.507,94.8485 542.169,71.0671 575.832,91.9213 609.494,150.234 643.156,234.373 676.819,331.041 710.481,427.945 744.143,515.792 777.806,589.274 811.468,647.022 845.131,690.719 878.793,723.764 912.455,749.874 946.118,772.008 979.78,791.781 1013.44,809.427 1047.1,824.196 1080.77,834.968 1114.43,840.878 1148.09,841.77 1181.75,838.38 1215.42,832.247 1249.08,825.416 1282.74,820.032 1316.4,817.916 1350.07,820.206 1383.73,827.088 1417.39,837.63 1451.05,849.727 1484.72,860.171 1518.38,864.877 1552.04,859.318 1585.7,839.184 1619.37,801.248 "/>
<path clip-path="url(#clip203)" d="M272.87 755.531 L306.532 755.535 L340.195 702.192 L373.857 605.899 L407.52 484.344 L441.182 358.502 L474.844 248.656 L508.507 170.914 L542.169 134.711 L575.832 141.862 L609.494 187.227 L643.156 260.596 L676.819 349.293 L710.481 440.515 L744.143 524.451 L777.806 595.436 L811.468 651.56 L845.131 693.936 L878.793 725.567 L912.455 750.037 L946.118 770.347 L979.78 788.292 L1013.44 804.366 L1047.1 818.038 L1080.77 828.242 L1114.43 833.977 L1148.09 834.825 L1181.75 831.29 L1215.42 824.715 L1249.08 817.049 L1282.74 810.431 L1316.4 806.781 L1350.07 807.388 L1383.73 812.648 L1417.39 821.865 L1451.05 833.175 L1484.72 843.577 L1518.38 849.153 L1552.04 845.443 L1585.7 828.106 L1619.37 793.52 L1619.37 793.52 L1585.7 828.106 L1552.04 845.443 L1518.38 849.153 L1484.72 843.577 L1451.05 833.175 L1417.39 821.865 L1383.73 812.648 L1350.07 807.388 L1316.4 806.781 L1282.74 810.431 L1249.08 817.049 L1215.42 824.715 L1181.75 831.29 L1148.09 834.825 L1114.43 833.977 L1080.77 828.242 L1047.1 818.038 L1013.44 804.366 L979.78 788.292 L946.118 770.347 L912.455 750.037 L878.793 725.567 L845.131 693.936 L811.468 651.56 L777.806 595.436 L744.143 524.451 L710.481 440.515 L676.819 349.293 L643.156 260.596 L609.494 187.227 L575.832 141.862 L542.169 134.711 L508.507 170.914 L474.844 248.656 L441.182 358.502 L407.52 484.344 L373.857 605.899 L340.195 702.192 L306.532 755.535 L272.87 755.531  Z" fill="#87c55f" fill-rule="evenodd" fill-opacity="0.5"/>
<polyline clip-path="url(#clip203)" style="stroke:#87c55f; stroke-linecap:round; stroke-linejoin:round; stroke-width:12.0022; stroke-opacity:1; fill:none" points="272.87,755.531 306.532,755.535 340.195,702.192 373.857,605.899 407.52,484.344 441.182,358.502 474.844,248.656 508.507,170.914 542.169,134.711 575.832,141.862 609.494,187.227 643.156,260.596 676.819,349.293 710.481,440.515 744.143,524.451 777.806,595.436 811.468,651.56 845.131,693.936 878.793,725.567 912.455,750.037 946.118,770.347 979.78,788.292 1013.44,804.366 1047.1,818.038 1080.77,828.242 1114.43,833.977 1148.09,834.825 1181.75,831.29 1215.42,824.715 1249.08,817.049 1282.74,810.431 1316.4,806.781 1350.07,807.388 1383.73,812.648 1417.39,821.865 1451.05,833.175 1484.72,843.577 1518.38,849.153 1552.04,845.443 1585.7,828.106 1619.37,793.52 "/>
<path clip-path="url(#clip203)" d="M272.87 755.531 L306.532 755.535 L340.195 702.192 L373.857 605.899 L407.52 484.344 L441.182 358.502 L474.844 248.656 L508.507 170.914 L542.169 134.711 L575.832 141.862 L609.494 187.227 L643.156 260.596 L676.819 349.293 L710.481 440.515 L744.143 524.451 L777.806 595.436 L811.468 651.56 L845.131 693.936 L878.793 725.567 L912.455 750.037 L946.118 770.347 L979.78 788.292 L1013.44 804.366 L1047.1 818.038 L1080.77 828.242 L1114.43 833.977 L1148.09 835.09 L1181.75 831.931 L1215.42 825.898 L1249.08 818.798 L1282.74 812.671 L1316.4 808.916 L1350.07 809.127 L1383.73 815.246 L1417.39 824.138 L1451.05 834.278 L1484.72 842.32 L1518.38 844.367 L1552.04 835.674 L1585.7 812.486 L1619.37 771.694 L1619.37 771.694 L1585.7 812.486 L1552.04 835.674 L1518.38 844.367 L1484.72 842.32 L1451.05 834.278 L1417.39 824.138 L1383.73 815.246 L1350.07 809.127 L1316.4 808.916 L1282.74 812.671 L1249.08 818.798 L1215.42 825.898 L1181.75 831.931 L1148.09 835.09 L1114.43 833.977 L1080.77 828.242 L1047.1 818.038 L1013.44 804.366 L979.78 788.292 L946.118 770.347 L912.455 750.037 L878.793 725.567 L845.131 693.936 L811.468 651.56 L777.806 595.436 L744.143 524.451 L710.481 440.515 L676.819 349.293 L643.156 260.596 L609.494 187.227 L575.832 141.862 L542.169 134.711 L508.507 170.914 L474.844 248.656 L441.182 358.502 L407.52 484.344 L373.857 605.899 L340.195 702.192 L306.532 755.535 L272.87 755.531  Z" fill="#dcb0f2" fill-rule="evenodd" fill-opacity="0.5"/>
<polyline clip-path="url(#clip203)" style="stroke:#dcb0f2; stroke-linecap:round; stroke-linejoin:round; stroke-width:12.0022; stroke-opacity:1; fill:none" stroke-dasharray="48, 24, 6, 24" points="272.87,755.531 306.532,755.535 340.195,702.192 373.857,605.899 407.52,484.344 441.182,358.502 474.844,248.656 508.507,170.914 542.169,134.711 575.832,141.862 609.494,187.227 643.156,260.596 676.819,349.293 710.481,440.515 744.143,524.451 777.806,595.436 811.468,651.56 845.131,693.936 878.793,725.567 912.455,750.037 946.118,770.347 979.78,788.292 1013.44,804.366 1047.1,818.038 1080.77,828.242 1114.43,833.977 1148.09,835.09 1181.75,831.931 1215.42,825.898 1249.08,818.798 1282.74,812.671 1316.4,808.916 1350.07,809.127 1383.73,815.246 1417.39,824.138 1451.05,834.278 1484.72,842.32 1518.38,844.367 1552.04,835.674 1585.7,812.486 1619.37,771.694 "/>
<path clip-path="url(#clip203)" d="M272.87 755.531 L306.532 755.535 L340.195 702.192 L373.857 605.899 L407.52 484.344 L441.182 358.502 L474.844 248.656 L508.507 170.914 L542.169 134.711 L575.832 141.862 L609.494 187.227 L643.156 260.596 L676.819 349.293 L710.481 440.515 L744.143 524.451 L777.806 595.436 L811.468 652.178 L845.131 695.198 L878.793 726.817 L912.455 750.102 L946.118 767.887 L979.78 781.819 L1013.44 792.642 L1047.1 799.883 L1080.77 804.263 L1114.43 807.118 L1148.09 808.641 L1181.75 809.434 L1215.42 809.632 L1249.08 809.963 L1282.74 811.339 L1316.4 814.913 L1350.07 821.274 L1383.73 830.762 L1417.39 842.583 L1451.05 854.893 L1484.72 860.379 L1518.38 859.742 L1552.04 849.039 L1585.7 824.911 L1619.37 785.712 L1619.37 785.712 L1585.7 824.911 L1552.04 849.039 L1518.38 859.742 L1484.72 860.379 L1451.05 854.893 L1417.39 842.583 L1383.73 830.762 L1350.07 821.274 L1316.4 814.913 L1282.74 811.339 L1249.08 809.963 L1215.42 809.632 L1181.75 809.434 L1148.09 808.641 L1114.43 807.118 L1080.77 804.263 L1047.1 799.883 L1013.44 792.642 L979.78 781.819 L946.118 767.887 L912.455 750.102 L878.793 726.817 L845.131 695.198 L811.468 652.178 L777.806 595.436 L744.143 524.451 L710.481 440.515 L676.819 349.293 L643.156 260.596 L609.494 187.227 L575.832 141.862 L542.169 134.711 L508.507 170.914 L474.844 248.656 L441.182 358.502 L407.52 484.344 L373.857 605.899 L340.195 702.192 L306.532 755.535 L272.87 755.531  Z" fill="#f89c74" fill-rule="evenodd" fill-opacity="0.5"/>
<polyline clip-path="url(#clip203)" style="stroke:#f89c74; stroke-linecap:round; stroke-linejoin:round; stroke-width:12.0022; stroke-opacity:1; fill:none" stroke-dasharray="6, 12" points="272.87,755.531 306.532,755.535 340.195,702.192 373.857,605.899 407.52,484.344 441.182,358.502 474.844,248.656 508.507,170.914 542.169,134.711 575.832,141.862 609.494,187.227 643.156,260.596 676.819,349.293 710.481,440.515 744.143,524.451 777.806,595.436 811.468,652.178 845.131,695.198 878.793,726.817 912.455,750.102 946.118,767.887 979.78,781.819 1013.44,792.642 1047.1,799.883 1080.77,804.263 1114.43,807.118 1148.09,808.641 1181.75,809.434 1215.42,809.632 1249.08,809.963 1282.74,811.339 1316.4,814.913 1350.07,821.274 1383.73,830.762 1417.39,842.583 1451.05,854.893 1484.72,860.379 1518.38,859.742 1552.04,849.039 1585.7,824.911 1619.37,785.712 "/>
<path clip-path="url(#clip203)" d="M272.87 755.531 L306.532 755.531 L340.195 702.329 L373.857 606.18 L407.52 484.745 L441.182 359.243 L474.844 250.209 L508.507 173.983 L542.169 140.15 L575.832 150.569 L609.494 200.012 L643.156 278.093 L676.819 371.886 L710.481 468.554 L744.143 557.457 L777.806 631.412 L811.468 687.035 L845.131 724.326 L878.793 745.757 L912.455 755.165 L946.118 756.718 L979.78 754.124 L1013.44 750.164 L1047.1 746.553 L1080.77 744.036 L1114.43 742.642 L1148.09 741.982 L1181.75 741.51 L1215.42 740.706 L1249.08 739.153 L1282.74 736.535 L1316.4 732.573 L1350.07 726.928 L1383.73 719.101 L1417.39 708.34 L1451.05 693.578 L1484.72 673.421 L1518.38 646.221 L1552.04 610.272 L1585.7 564.161 L1619.37 507.269 L1619.37 507.269 L1585.7 564.161 L1552.04 610.272 L1518.38 646.221 L1484.72 673.421 L1451.05 693.578 L1417.39 708.34 L1383.73 719.101 L1350.07 726.928 L1316.4 732.573 L1282.74 736.535 L1249.08 739.153 L1215.42 740.706 L1181.75 741.51 L1148.09 741.982 L1114.43 742.642 L1080.77 744.036 L1047.1 746.553 L1013.44 750.164 L979.78 754.124 L946.118 756.718 L912.455 755.165 L878.793 745.757 L845.131 724.326 L811.468 687.035 L777.806 631.412 L744.143 557.457 L710.481 468.554 L676.819 371.886 L643.156 278.093 L609.494 200.012 L575.832 150.569 L542.169 140.15 L508.507 173.983 L474.844 250.209 L441.182 359.243 L407.52 484.745 L373.857 606.18 L340.195 702.329 L306.532 755.531 L272.87 755.531  Z" fill="#f6cf71" fill-rule="evenodd" fill-opacity="0.5"/>
<polyline clip-path="url(#clip203)" style="stroke:#f6cf71; stroke-linecap:round; stroke-linejoin:round; stroke-width:12.0022; stroke-opacity:1; fill:none" stroke-dasharray="48, 30" points="272.87,755.531 306.532,755.531 340.195,702.329 373.857,606.18 407.52,484.745 441.182,359.243 474.844,250.209 508.507,173.983 542.169,140.15 575.832,150.569 609.494,200.012 643.156,278.093 676.819,371.886 710.481,468.554 744.143,557.457 777.806,631.412 811.468,687.035 845.131,724.326 878.793,745.757 912.455,755.165 946.118,756.718 979.78,754.124 1013.44,750.164 1047.1,746.553 1080.77,744.036 1114.43,742.642 1148.09,741.982 1181.75,741.51 1215.42,740.706 1249.08,739.153 1282.74,736.535 1316.4,732.573 1350.07,726.928 1383.73,719.101 1417.39,708.34 1451.05,693.578 1484.72,673.421 1518.38,646.221 1552.04,610.272 1585.7,564.161 1619.37,507.269 "/>
<path clip-path="url(#clip203)" d="M272.87 755.531 L306.532 755.531 L340.195 712.797 L373.857 635.511 L407.52 537.535 L441.182 435.523 L474.844 345.941 L508.507 282.272 L542.169 252.922 L575.832 260.214 L609.494 300.593 L643.156 365.891 L676.819 445.291 L710.481 527.54 L744.143 602.929 L777.806 664.678 L811.468 709.539 L845.131 737.618 L878.793 751.578 L912.455 755.516 L946.118 753.817 L979.78 750.21 L1013.44 747.245 L1047.1 746.145 L1080.77 747.012 L1114.43 749.225 L1148.09 751.879 L1181.75 754.142 L1215.42 755.458 L1249.08 755.59 L1282.74 754.541 L1316.4 752.416 L1350.07 749.271 L1383.73 745.003 L1417.39 739.256 L1451.05 731.363 L1484.72 720.308 L1518.38 704.715 L1552.04 682.91 L1585.7 653.09 L1619.37 613.649 L1619.37 613.649 L1585.7 653.09 L1552.04 682.91 L1518.38 704.715 L1484.72 720.308 L1451.05 731.363 L1417.39 739.256 L1383.73 745.003 L1350.07 749.271 L1316.4 752.416 L1282.74 754.541 L1249.08 755.59 L1215.42 755.458 L1181.75 754.142 L1148.09 751.879 L1114.43 749.225 L1080.77 747.012 L1047.1 746.145 L1013.44 747.245 L979.78 750.21 L946.118 753.817 L912.455 755.516 L878.793 751.578 L845.131 737.618 L811.468 709.539 L777.806 664.678 L744.143 602.929 L710.481 527.54 L676.819 445.291 L643.156 365.891 L609.494 300.593 L575.832 260.214 L542.169 252.922 L508.507 282.272 L474.844 345.941 L441.182 435.523 L407.52 537.535 L373.857 635.511 L340.195 712.797 L306.532 755.531 L272.87 755.531  Z" fill="#66c5cc" fill-rule="evenodd" fill-opacity="0.5"/>
<polyline clip-path="url(#clip203)" style="stroke:#66c5cc; stroke-linecap:round; stroke-linejoin:round; stroke-width:12.0022; stroke-opacity:1; fill:none" points="272.87,755.531 306.532,755.531 340.195,712.797 373.857,635.511 407.52,537.535 441.182,435.523 474.844,345.941 508.507,282.272 542.169,252.922 575.832,260.214 609.494,300.593 643.156,365.891 676.819,445.291 710.481,527.54 744.143,602.929 777.806,664.678 811.468,709.539 845.131,737.618 878.793,751.578 912.455,755.516 946.118,753.817 979.78,750.21 1013.44,747.245 1047.1,746.145 1080.77,747.012 1114.43,749.225 1148.09,751.879 1181.75,754.142 1215.42,755.458 1249.08,755.59 1282.74,754.541 1316.4,752.416 1350.07,749.271 1383.73,745.003 1417.39,739.256 1451.05,731.363 1484.72,720.308 1518.38,704.715 1552.04,682.91 1585.7,653.09 1619.37,613.649 "/>
</svg>
