<?xml version="1.0" encoding="utf-8"?>
<svg xmlns="http://www.w3.org/2000/svg" xmlns:xlink="http://www.w3.org/1999/xlink" width="426.75" height="263.5" viewBox="0 0 1707 1054">
<defs>
  <clipPath id="clip820">
    <rect x="0" y="0" width="1707" height="1054"/>
  </clipPath>
</defs>
<path clip-path="url(#clip820)" d="M0 1054 L1707 1054 L1707 0 L0 0  Z" fill="#ffffff" fill-rule="evenodd" fill-opacity="1"/>
<defs>
  <clipPath id="clip821">
    <rect x="341" y="0" width="1196" height="1054"/>
  </clipPath>
</defs>
<path clip-path="url(#clip820)" d="M227.179 872.688 L1659.76 872.688 L1659.76 47.2528 L227.179 47.2528  Z" fill="#ffffff" fill-rule="evenodd" fill-opacity="1"/>
<defs>
  <clipPath id="clip822">
    <rect x="227" y="47" width="1434" height="826"/>
  </clipPath>
</defs>
<polyline clip-path="url(#clip822)" style="stroke:#000000; stroke-linecap:round; stroke-linejoin:round; stroke-width:2.00037; stroke-opacity:0.1; fill:none" points="267.724,872.688 267.724,47.2528 "/>
<polyline clip-path="url(#clip822)" style="stroke:#000000; stroke-linecap:round; stroke-linejoin:round; stroke-width:2.00037; stroke-opacity:0.1; fill:none" points="605.597,872.688 605.597,47.2528 "/>
<polyline clip-path="url(#clip822)" style="stroke:#000000; stroke-linecap:round; stroke-linejoin:round; stroke-width:2.00037; stroke-opacity:0.1; fill:none" points="943.47,872.688 943.47,47.2528 "/>
<polyline clip-path="url(#clip822)" style="stroke:#000000; stroke-linecap:round; stroke-linejoin:round; stroke-width:2.00037; stroke-opacity:0.1; fill:none" points="1281.34,872.688 1281.34,47.2528 "/>
<polyline clip-path="url(#clip822)" style="stroke:#000000; stroke-linecap:round; stroke-linejoin:round; stroke-width:2.00037; stroke-opacity:0.1; fill:none" points="1619.22,872.688 1619.22,47.2528 "/>
<polyline clip-path="url(#clip820)" style="stroke:#000000; stroke-linecap:round; stroke-linejoin:round; stroke-width:4.00074; stroke-opacity:1; fill:none" points="227.179,872.688 1659.76,872.688 "/>
<polyline clip-path="url(#clip820)" style="stroke:#000000; stroke-linecap:round; stroke-linejoin:round; stroke-width:4.00074; stroke-opacity:1; fill:none" points="227.179,47.2528 1659.76,47.2528 "/>
<polyline clip-path="url(#clip820)" style="stroke:#000000; stroke-linecap:round; stroke-linejoin:round; stroke-width:4.00074; stroke-opacity:1; fill:none" points="267.724,872.688 267.724,853.787 "/>
<polyline clip-path="url(#clip820)" style="stroke:#000000; stroke-linecap:round; stroke-linejoin:round; stroke-width:4.00074; stroke-opacity:1; fill:none" points="605.597,872.688 605.597,853.787 "/>
<polyline clip-path="url(#clip820)" style="stroke:#000000; stroke-linecap:round; stroke-linejoin:round; stroke-width:4.00074; stroke-opacity:1; fill:none" points="943.47,872.688 943.47,853.787 "/>
<polyline clip-path="url(#clip820)" style="stroke:#000000; stroke-linecap:round; stroke-linejoin:round; stroke-width:4.00074; stroke-opacity:1; fill:none" points="1281.34,872.688 1281.34,853.787 "/>
<polyline clip-path="url(#clip820)" style="stroke:#000000; stroke-linecap:round; stroke-linejoin:round; stroke-width:4.00074; stroke-opacity:1; fill:none" points="1619.22,872.688 1619.22,853.787 "/>
<path clip-path="url(#clip820)" d="M226.033 923.507 Q226.033 913.281 228.614 907.709 Q232.215 899.419 240.706 899.419 Q242.506 899.419 244.374 899.929 Q246.276 900.405 248.653 902.273 Q251.065 904.142 252.525 907.199 Q255.31 913.111 255.31 923.507 Q255.31 933.665 252.729 939.202 Q248.959 947.288 240.638 947.288 Q237.513 947.288 234.32 945.691 Q231.162 944.094 229.158 940.255 Q226.033 934.514 226.033 923.507 M231.807 922.657 Q231.807 933.155 232.554 937.334 Q233.403 941.852 235.713 943.823 Q238.056 945.759 240.638 945.759 Q243.423 945.759 245.732 943.687 Q248.076 941.58 248.789 937.062 Q249.57 932.611 249.536 922.657 Q249.536 912.975 248.857 909.102 Q247.94 904.583 245.495 902.783 Q243.083 900.948 240.638 900.948 Q239.721 900.948 238.736 901.22 Q237.785 901.492 236.392 902.273 Q235 903.055 233.913 904.991 Q232.86 906.928 232.351 909.849 Q231.807 913.62 231.807 922.657 Z" fill="#000000" fill-rule="evenodd" fill-opacity="1" /><path clip-path="url(#clip820)" d="M265.058 944.638 Q264.005 943.517 264.005 942.056 Q264.005 940.595 265.058 939.542 Q266.111 938.455 267.707 938.455 Q269.235 938.455 270.254 939.474 Q271.307 940.459 271.307 942.09 Q271.307 943.687 270.186 944.74 Q269.099 945.759 267.707 945.759 Q266.111 945.759 265.058 944.638 Z" fill="#000000" fill-rule="evenodd" fill-opacity="1" /><path clip-path="url(#clip820)" d="M280.138 923.507 Q280.138 913.281 282.719 907.709 Q286.319 899.419 294.81 899.419 Q296.61 899.419 298.478 899.929 Q300.38 900.405 302.758 902.273 Q305.169 904.142 306.629 907.199 Q309.414 913.111 309.414 923.507 Q309.414 933.665 306.833 939.202 Q303.063 947.288 294.742 947.288 Q291.617 947.288 288.425 945.691 Q285.266 944.094 283.262 940.255 Q280.138 934.514 280.138 923.507 M285.911 922.657 Q285.911 933.155 286.659 937.334 Q287.508 941.852 289.817 943.823 Q292.161 945.759 294.742 945.759 Q297.527 945.759 299.837 943.687 Q302.18 941.58 302.893 937.062 Q303.675 932.611 303.641 922.657 Q303.641 912.975 302.961 909.102 Q302.044 904.583 299.599 902.783 Q297.187 900.948 294.742 900.948 Q293.825 900.948 292.84 901.22 Q291.889 901.492 290.497 902.273 Q289.104 903.055 288.017 904.991 Q286.964 906.928 286.455 909.849 Q285.911 913.62 285.911 922.657 Z" fill="#000000" fill-rule="evenodd" fill-opacity="1" /><path clip-path="url(#clip820)" d="M564.28 923.507 Q564.28 913.281 566.861 907.709 Q570.461 899.419 578.952 899.419 Q580.752 899.419 582.62 899.929 Q584.522 900.405 586.9 902.273 Q589.311 904.142 590.772 907.199 Q593.557 913.111 593.557 923.507 Q593.557 933.665 590.975 939.202 Q587.205 947.288 578.884 947.288 Q575.76 947.288 572.567 945.691 Q569.408 944.094 567.404 940.255 Q564.28 934.514 564.28 923.507 M570.054 922.657 Q570.054 933.155 570.801 937.334 Q571.65 941.852 573.96 943.823 Q576.303 945.759 578.884 945.759 Q581.669 945.759 583.979 943.687 Q586.322 941.58 587.036 937.062 Q587.817 932.611 587.783 922.657 Q587.783 912.975 587.104 909.102 Q586.186 904.583 583.741 902.783 Q581.33 900.948 578.884 900.948 Q577.967 900.948 576.982 901.22 Q576.031 901.492 574.639 902.273 Q573.246 903.055 572.159 904.991 Q571.107 906.928 570.597 909.849 Q570.054 913.62 570.054 922.657 Z" fill="#000000" fill-rule="evenodd" fill-opacity="1" /><path clip-path="url(#clip820)" d="M603.304 944.638 Q602.251 943.517 602.251 942.056 Q602.251 940.595 603.304 939.542 Q604.357 938.455 605.953 938.455 Q607.482 938.455 608.501 939.474 Q609.554 940.459 609.554 942.09 Q609.554 943.687 608.433 944.74 Q607.346 945.759 605.953 945.759 Q604.357 945.759 603.304 944.638 Z" fill="#000000" fill-rule="evenodd" fill-opacity="1" /><path clip-path="url(#clip820)" d="M619.131 934.548 Q619.131 932.476 620.252 931.694 Q621.373 930.879 622.562 930.879 Q624.158 930.879 625.075 931.898 Q626.026 932.883 626.026 934.276 Q626.026 935.669 625.075 936.688 Q624.158 937.674 622.562 937.674 Q621.781 937.674 621.373 937.538 Q622.29 940.731 625.075 943.041 Q627.894 945.351 631.596 945.351 Q636.249 945.351 639.034 940.833 Q640.698 937.911 640.698 931.287 Q640.698 925.443 639.442 922.521 Q637.506 918.071 633.532 918.071 Q627.894 918.071 624.566 922.929 Q624.158 923.541 623.683 923.575 Q623.003 923.575 622.833 923.201 Q622.698 922.793 622.698 921.74 L622.698 901.152 Q622.698 899.487 623.377 899.487 Q623.649 899.487 624.226 899.691 Q628.607 901.628 633.464 901.662 Q638.457 901.662 642.94 899.623 Q643.28 899.419 643.483 899.419 Q644.163 899.419 644.197 900.201 Q644.197 900.473 643.619 901.288 Q643.076 902.069 641.887 903.123 Q640.698 904.142 639.17 905.127 Q637.642 906.112 635.4 906.792 Q633.192 907.437 630.747 907.437 Q627.826 907.437 624.837 906.52 L624.837 920.075 Q628.437 916.542 633.668 916.542 Q639.238 916.542 643.076 921.027 Q646.914 925.511 646.914 931.762 Q646.914 938.319 642.363 942.803 Q637.845 947.288 631.732 947.288 Q626.162 947.288 622.63 943.313 Q619.131 939.338 619.131 934.548 Z" fill="#000000" fill-rule="evenodd" fill-opacity="1" /><path clip-path="url(#clip820)" d="M903.511 906.044 L903.511 903.87 Q911.866 903.87 916.18 899.419 Q917.369 899.419 917.572 899.691 Q917.776 899.963 917.776 901.22 L917.776 940.255 Q917.776 942.328 918.795 942.973 Q919.814 943.619 924.263 943.619 L926.471 943.619 L926.471 945.759 Q924.025 945.555 915.195 945.555 Q906.364 945.555 903.953 945.759 L903.953 943.619 L906.161 943.619 Q910.542 943.619 911.595 943.007 Q912.648 942.362 912.648 940.255 L912.648 904.21 Q909.013 906.044 903.511 906.044 Z" fill="#000000" fill-rule="evenodd" fill-opacity="1" /><path clip-path="url(#clip820)" d="M939.071 944.638 Q938.019 943.517 938.019 942.056 Q938.019 940.595 939.071 939.542 Q940.124 938.455 941.721 938.455 Q943.249 938.455 944.268 939.474 Q945.321 940.459 945.321 942.09 Q945.321 943.687 944.2 944.74 Q943.113 945.759 941.721 945.759 Q940.124 945.759 939.071 944.638 Z" fill="#000000" fill-rule="evenodd" fill-opacity="1" /><path clip-path="url(#clip820)" d="M954.151 923.507 Q954.151 913.281 956.733 907.709 Q960.333 899.419 968.824 899.419 Q970.624 899.419 972.492 899.929 Q974.394 900.405 976.771 902.273 Q979.183 904.142 980.643 907.199 Q983.428 913.111 983.428 923.507 Q983.428 933.665 980.847 939.202 Q977.077 947.288 968.756 947.288 Q965.631 947.288 962.439 945.691 Q959.28 944.094 957.276 940.255 Q954.151 934.514 954.151 923.507 M959.925 922.657 Q959.925 933.155 960.672 937.334 Q961.522 941.852 963.831 943.823 Q966.175 945.759 968.756 945.759 Q971.541 945.759 973.85 943.687 Q976.194 941.58 976.907 937.062 Q977.688 932.611 977.654 922.657 Q977.654 912.975 976.975 909.102 Q976.058 904.583 973.613 902.783 Q971.201 900.948 968.756 900.948 Q967.839 900.948 966.854 901.22 Q965.903 901.492 964.51 902.273 Q963.118 903.055 962.031 904.991 Q960.978 906.928 960.469 909.849 Q959.925 913.62 959.925 922.657 Z" fill="#000000" fill-rule="evenodd" fill-opacity="1" /><path clip-path="url(#clip820)" d="M1241.76 906.044 L1241.76 903.87 Q1250.11 903.87 1254.43 899.419 Q1255.62 899.419 1255.82 899.691 Q1256.02 899.963 1256.02 901.22 L1256.02 940.255 Q1256.02 942.328 1257.04 942.973 Q1258.06 943.619 1262.51 943.619 L1264.72 943.619 L1264.72 945.759 Q1262.27 945.555 1253.44 945.555 Q1244.61 945.555 1242.2 945.759 L1242.2 943.619 L1244.41 943.619 Q1248.79 943.619 1249.84 943.007 Q1250.89 942.362 1250.89 940.255 L1250.89 904.21 Q1247.26 906.044 1241.76 906.044 Z" fill="#000000" fill-rule="evenodd" fill-opacity="1" /><path clip-path="url(#clip820)" d="M1277.32 944.638 Q1276.27 943.517 1276.27 942.056 Q1276.27 940.595 1277.32 939.542 Q1278.37 938.455 1279.97 938.455 Q1281.5 938.455 1282.51 939.474 Q1283.57 940.459 1283.57 942.09 Q1283.57 943.687 1282.45 944.74 Q1281.36 945.759 1279.97 945.759 Q1278.37 945.759 1277.32 944.638 Z" fill="#000000" fill-rule="evenodd" fill-opacity="1" /><path clip-path="url(#clip820)" d="M1293.15 934.548 Q1293.15 932.476 1294.27 931.694 Q1295.39 930.879 1296.58 930.879 Q1298.17 930.879 1299.09 931.898 Q1300.04 932.883 1300.04 934.276 Q1300.04 935.669 1299.09 936.688 Q1298.17 937.674 1296.58 937.674 Q1295.79 937.674 1295.39 937.538 Q1296.3 940.731 1299.09 943.041 Q1301.91 945.351 1305.61 945.351 Q1310.26 945.351 1313.05 940.833 Q1314.71 937.911 1314.71 931.287 Q1314.71 925.443 1313.46 922.521 Q1311.52 918.071 1307.55 918.071 Q1301.91 918.071 1298.58 922.929 Q1298.17 923.541 1297.7 923.575 Q1297.02 923.575 1296.85 923.201 Q1296.71 922.793 1296.71 921.74 L1296.71 901.152 Q1296.71 899.487 1297.39 899.487 Q1297.66 899.487 1298.24 899.691 Q1302.62 901.628 1307.48 901.662 Q1312.47 901.662 1316.95 899.623 Q1317.29 899.419 1317.5 899.419 Q1318.18 899.419 1318.21 900.201 Q1318.21 900.473 1317.63 901.288 Q1317.09 902.069 1315.9 903.123 Q1314.71 904.142 1313.18 905.127 Q1311.66 906.112 1309.41 906.792 Q1307.21 907.437 1304.76 907.437 Q1301.84 907.437 1298.85 906.52 L1298.85 920.075 Q1302.45 916.542 1307.68 916.542 Q1313.25 916.542 1317.09 921.027 Q1320.93 925.511 1320.93 931.762 Q1320.93 938.319 1316.38 942.803 Q1311.86 947.288 1305.75 947.288 Q1300.18 947.288 1296.64 943.313 Q1293.15 939.338 1293.15 934.548 Z" fill="#000000" fill-rule="evenodd" fill-opacity="1" /><path clip-path="url(#clip820)" d="M1577.9 945.759 Q1577.9 944.502 1578 944.128 Q1578.14 943.755 1578.68 943.177 L1592.03 928.297 Q1599.33 920.075 1599.33 912.907 Q1599.33 908.253 1596.88 904.923 Q1594.47 901.594 1590.02 901.594 Q1586.97 901.594 1584.39 903.462 Q1581.8 905.331 1580.62 908.66 Q1580.82 908.592 1581.53 908.592 Q1583.27 908.592 1584.22 909.679 Q1585.2 910.767 1585.2 912.227 Q1585.2 914.096 1583.98 915.013 Q1582.79 915.897 1581.6 915.897 Q1581.13 915.897 1580.48 915.795 Q1579.87 915.693 1578.88 914.741 Q1577.9 913.756 1577.9 912.024 Q1577.9 907.165 1581.57 903.292 Q1585.27 899.419 1590.91 899.419 Q1597.29 899.419 1601.47 903.224 Q1605.68 906.996 1605.68 912.907 Q1605.68 914.979 1605.04 916.882 Q1604.42 918.75 1603.58 920.211 Q1602.76 921.672 1600.52 924.016 Q1598.28 926.36 1596.48 928.025 Q1594.68 929.69 1590.64 933.223 L1583.27 940.391 L1595.8 940.391 Q1601.91 940.391 1602.39 939.848 Q1603.07 938.863 1603.92 933.665 L1605.68 933.665 L1603.71 945.759 L1577.9 945.759 Z" fill="#000000" fill-rule="evenodd" fill-opacity="1" /><path clip-path="url(#clip820)" d="M1616.18 944.638 Q1615.12 943.517 1615.12 942.056 Q1615.12 940.595 1616.18 939.542 Q1617.23 938.455 1618.83 938.455 Q1620.35 938.455 1621.37 939.474 Q1622.43 940.459 1622.43 942.09 Q1622.43 943.687 1621.3 944.74 Q1620.22 945.759 1618.83 945.759 Q1617.23 945.759 1616.18 944.638 Z" fill="#000000" fill-rule="evenodd" fill-opacity="1" /><path clip-path="url(#clip820)" d="M1631.26 923.507 Q1631.26 913.281 1633.84 907.709 Q1637.44 899.419 1645.93 899.419 Q1647.73 899.419 1649.6 899.929 Q1651.5 900.405 1653.88 902.273 Q1656.29 904.142 1657.75 907.199 Q1660.53 913.111 1660.53 923.507 Q1660.53 933.665 1657.95 939.202 Q1654.18 947.288 1645.86 947.288 Q1642.74 947.288 1639.54 945.691 Q1636.38 944.094 1634.38 940.255 Q1631.26 934.514 1631.26 923.507 M1637.03 922.657 Q1637.03 933.155 1637.78 937.334 Q1638.63 941.852 1640.94 943.823 Q1643.28 945.759 1645.86 945.759 Q1648.65 945.759 1650.95 943.687 Q1653.3 941.58 1654.01 937.062 Q1654.79 932.611 1654.76 922.657 Q1654.76 912.975 1654.08 909.102 Q1653.16 904.583 1650.72 902.783 Q1648.31 900.948 1645.86 900.948 Q1644.94 900.948 1643.96 901.22 Q1643.01 901.492 1641.61 902.273 Q1640.22 903.055 1639.14 904.991 Q1638.08 906.928 1637.57 909.849 Q1637.03 913.62 1637.03 922.657 Z" fill="#000000" fill-rule="evenodd" fill-opacity="1" /><path clip-path="url(#clip820)" d="M859.622 997.494 L861.067 980.445 L907.419 980.445 L908.864 997.494 L906.974 997.494 Q906.678 994.084 906.381 992.12 Q906.122 990.156 905.455 988.303 Q904.825 986.412 904.01 985.523 Q903.232 984.596 901.713 983.892 Q900.194 983.151 898.23 982.966 Q896.266 982.78 893.302 982.78 Q889.819 982.78 888.967 982.929 Q888.041 983.151 887.819 983.818 Q887.596 984.448 887.596 985.819 L887.596 1025.81 Q887.596 1027.33 887.893 1027.96 Q888.226 1028.55 889.967 1029.03 Q891.709 1029.48 895.562 1029.48 L898.6 1029.48 L898.6 1031.81 Q895.488 1031.59 884.187 1031.59 Q872.961 1031.59 869.849 1031.81 L869.849 1029.48 L872.887 1029.48 Q876.74 1029.48 878.482 1029.03 Q880.26 1028.55 880.556 1027.96 Q880.853 1027.33 880.853 1025.81 L880.853 985.819 Q880.853 984.745 880.779 984.3 Q880.705 983.855 880.371 983.485 Q880.038 983.077 879.26 982.929 Q878.519 982.78 875.184 982.78 Q872.22 982.78 870.219 982.966 Q868.255 983.151 866.736 983.892 Q865.217 984.596 864.402 985.523 Q863.624 986.412 862.957 988.303 Q862.327 990.156 862.068 992.12 Q861.808 994.084 861.512 997.494 L859.622 997.494 Z" fill="#000000" fill-rule="evenodd" fill-opacity="1" /><path clip-path="url(#clip820)" d="M914.162 1031.81 L914.162 1029.48 Q918.201 1029.48 919.127 1029 Q920.053 1028.48 920.053 1026.03 L920.053 1005.61 Q920.053 1002.79 919.09 1002.13 Q918.164 1001.46 914.458 1001.46 L914.458 999.088 L925.055 998.272 L925.055 1026.11 Q925.055 1028.37 925.87 1028.92 Q926.685 1029.48 930.391 1029.48 L930.391 1031.81 Q922.647 1031.59 922.499 1031.59 Q921.461 1031.59 914.162 1031.81 M917.349 985.041 Q917.349 983.522 918.497 982.299 Q919.683 981.038 921.35 981.038 Q923.017 981.038 924.203 982.187 Q925.389 983.299 925.389 985.078 Q925.389 986.82 924.203 987.969 Q923.017 989.081 921.35 989.081 Q919.609 989.081 918.46 987.858 Q917.349 986.635 917.349 985.041 Z" fill="#000000" fill-rule="evenodd" fill-opacity="1" /><path clip-path="url(#clip820)" d="M935.096 1031.81 L935.096 1029.48 Q939.135 1029.48 940.061 1029 Q940.987 1028.48 940.987 1026.03 L940.987 1005.68 Q940.987 1002.87 939.987 1002.16 Q939.024 1001.46 935.096 1001.46 L935.096 999.088 L945.767 998.272 L945.767 1006.24 Q949.324 998.272 956.994 998.272 Q965.886 998.272 967.109 1005.68 Q968.405 1002.79 971.11 1000.53 Q973.852 998.272 978.113 998.272 Q983.819 998.272 986.079 1001.09 Q987.746 1002.98 988.08 1005.09 Q988.413 1007.2 988.413 1012.69 L988.413 1027.18 Q988.487 1028.77 989.71 1029.14 Q990.933 1029.48 994.341 1029.48 L994.341 1031.81 Q986.598 1031.59 985.857 1031.59 Q985.264 1031.59 977.261 1031.81 L977.261 1029.48 Q981.299 1029.48 982.226 1029 Q983.189 1028.48 983.189 1026.03 L983.189 1008.35 Q983.189 1004.5 982.003 1002.24 Q980.818 999.94 977.557 999.94 Q973.63 999.94 970.48 1003.24 Q967.331 1006.54 967.331 1012.1 L967.331 1026.03 Q967.331 1028.48 968.257 1029 Q969.221 1029.48 973.259 1029.48 L973.259 1031.81 Q965.515 1031.59 964.737 1031.59 Q964.144 1031.59 956.178 1031.81 L956.178 1029.48 Q960.217 1029.48 961.143 1029 Q962.107 1028.48 962.107 1026.03 L962.107 1008.35 Q962.107 1004.5 960.921 1002.24 Q959.735 999.94 956.475 999.94 Q952.547 999.94 949.398 1003.24 Q946.249 1006.54 946.249 1012.1 L946.249 1026.03 Q946.249 1028.48 947.175 1029 Q948.138 1029.48 952.14 1029.48 L952.14 1031.81 Q944.396 1031.59 943.655 1031.59 Q943.062 1031.59 935.096 1031.81 Z" fill="#000000" fill-rule="evenodd" fill-opacity="1" /><path clip-path="url(#clip820)" d="M997.935 1015.1 Q997.935 1007.95 1002.53 1002.87 Q1007.12 997.79 1013.72 997.79 Q1020.39 997.79 1023.83 1002.13 Q1027.32 1006.46 1027.32 1012.69 Q1027.32 1013.84 1027.02 1014.06 Q1026.72 1014.28 1025.43 1014.28 L1004.23 1014.28 Q1004.23 1022.03 1006.53 1025.66 Q1009.72 1030.74 1015.09 1030.74 Q1015.83 1030.74 1016.72 1030.59 Q1017.61 1030.44 1019.43 1029.81 Q1021.24 1029.14 1022.83 1027.4 Q1024.43 1025.66 1025.35 1022.92 Q1025.58 1021.84 1026.32 1021.88 Q1027.32 1021.88 1027.32 1022.77 Q1027.32 1023.44 1026.58 1024.96 Q1025.87 1026.44 1024.5 1028.22 Q1023.13 1030 1020.46 1031.33 Q1017.83 1032.67 1014.65 1032.67 Q1007.98 1032.67 1002.94 1027.63 Q997.935 1022.55 997.935 1015.1 M1004.31 1012.69 L1022.32 1012.69 Q1022.32 1011.1 1022.02 1009.32 Q1021.76 1007.54 1020.94 1005.09 Q1020.17 1002.61 1018.31 1001.05 Q1016.46 999.495 1013.72 999.495 Q1012.5 999.495 1011.16 1000.01 Q1009.87 1000.53 1008.27 1001.79 Q1006.68 1003.05 1005.57 1005.91 Q1004.46 1008.76 1004.31 1012.69 Z" fill="#000000" fill-rule="evenodd" fill-opacity="1" /><polyline clip-path="url(#clip822)" style="stroke:#000000; stroke-linecap:round; stroke-linejoin:round; stroke-width:2.00037; stroke-opacity:0.1; fill:none" points="227.179,849.327 1659.76,849.327 "/>
<polyline clip-path="url(#clip822)" style="stroke:#000000; stroke-linecap:round; stroke-linejoin:round; stroke-width:2.00037; stroke-opacity:0.1; fill:none" points="227.179,647.786 1659.76,647.786 "/>
<polyline clip-path="url(#clip822)" style="stroke:#000000; stroke-linecap:round; stroke-linejoin:round; stroke-width:2.00037; stroke-opacity:0.1; fill:none" points="227.179,446.246 1659.76,446.246 "/>
<polyline clip-path="url(#clip822)" style="stroke:#000000; stroke-linecap:round; stroke-linejoin:round; stroke-width:2.00037; stroke-opacity:0.1; fill:none" points="227.179,244.705 1659.76,244.705 "/>
<polyline clip-path="url(#clip820)" style="stroke:#000000; stroke-linecap:round; stroke-linejoin:round; stroke-width:4.00074; stroke-opacity:1; fill:none" points="227.179,872.688 227.179,47.2528 "/>
<polyline clip-path="url(#clip820)" style="stroke:#000000; stroke-linecap:round; stroke-linejoin:round; stroke-width:4.00074; stroke-opacity:1; fill:none" points="1659.76,872.688 1659.76,47.2528 "/>
<polyline clip-path="url(#clip820)" style="stroke:#000000; stroke-linecap:round; stroke-linejoin:round; stroke-width:4.00074; stroke-opacity:1; fill:none" points="227.179,849.327 246.075,849.327 "/>
<polyline clip-path="url(#clip820)" style="stroke:#000000; stroke-linecap:round; stroke-linejoin:round; stroke-width:4.00074; stroke-opacity:1; fill:none" points="227.179,647.786 246.075,647.786 "/>
<polyline clip-path="url(#clip820)" style="stroke:#000000; stroke-linecap:round; stroke-linejoin:round; stroke-width:4.00074; stroke-opacity:1; fill:none" points="227.179,446.246 246.075,446.246 "/>
<polyline clip-path="url(#clip820)" style="stroke:#000000; stroke-linecap:round; stroke-linejoin:round; stroke-width:4.00074; stroke-opacity:1; fill:none" points="227.179,244.705 246.075,244.705 "/>
<path clip-path="url(#clip820)" d="M118.193 850.839 Q118.193 840.613 120.774 835.041 Q124.374 826.752 132.865 826.752 Q134.665 826.752 136.533 827.261 Q138.435 827.737 140.813 829.605 Q143.224 831.474 144.685 834.532 Q147.47 840.443 147.47 850.839 Q147.47 860.997 144.888 866.535 Q141.118 874.62 132.797 874.62 Q129.673 874.62 126.48 873.023 Q123.321 871.427 121.318 867.588 Q118.193 861.846 118.193 850.839 M123.967 849.989 Q123.967 860.487 124.714 864.666 Q125.563 869.184 127.873 871.155 Q130.216 873.091 132.797 873.091 Q135.582 873.091 137.892 871.019 Q140.235 868.913 140.949 864.394 Q141.73 859.944 141.696 849.989 Q141.696 840.307 141.017 836.434 Q140.1 831.916 137.654 830.115 Q135.243 828.28 132.797 828.28 Q131.88 828.28 130.895 828.552 Q129.944 828.824 128.552 829.605 Q127.159 830.387 126.072 832.323 Q125.02 834.26 124.51 837.182 Q123.967 840.953 123.967 849.989 Z" fill="#000000" fill-rule="evenodd" fill-opacity="1" /><path clip-path="url(#clip820)" d="M157.217 871.97 Q156.164 870.849 156.164 869.388 Q156.164 867.927 157.217 866.874 Q158.27 865.787 159.866 865.787 Q161.395 865.787 162.414 866.806 Q163.467 867.792 163.467 869.422 Q163.467 871.019 162.346 872.072 Q161.259 873.091 159.866 873.091 Q158.27 873.091 157.217 871.97 Z" fill="#000000" fill-rule="evenodd" fill-opacity="1" /><path clip-path="url(#clip820)" d="M172.297 850.839 Q172.297 840.613 174.879 835.041 Q178.479 826.752 186.97 826.752 Q188.77 826.752 190.638 827.261 Q192.54 827.737 194.917 829.605 Q197.329 831.474 198.789 834.532 Q201.574 840.443 201.574 850.839 Q201.574 860.997 198.993 866.535 Q195.223 874.62 186.902 874.62 Q183.777 874.62 180.584 873.023 Q177.426 871.427 175.422 867.588 Q172.297 861.846 172.297 850.839 M178.071 849.989 Q178.071 860.487 178.818 864.666 Q179.667 869.184 181.977 871.155 Q184.32 873.091 186.902 873.091 Q189.687 873.091 191.996 871.019 Q194.34 868.913 195.053 864.394 Q195.834 859.944 195.8 849.989 Q195.8 840.307 195.121 836.434 Q194.204 831.916 191.759 830.115 Q189.347 828.28 186.902 828.28 Q185.985 828.28 185 828.552 Q184.049 828.824 182.656 829.605 Q181.264 830.387 180.177 832.323 Q179.124 834.26 178.615 837.182 Q178.071 840.953 178.071 849.989 Z" fill="#000000" fill-rule="evenodd" fill-opacity="1" /><path clip-path="url(#clip820)" d="M121.046 649.298 Q121.046 639.072 123.627 633.5 Q127.227 625.211 135.718 625.211 Q137.518 625.211 139.386 625.721 Q141.288 626.196 143.666 628.065 Q146.077 629.933 147.538 632.991 Q150.323 638.902 150.323 649.298 Q150.323 659.456 147.741 664.994 Q143.971 673.079 135.65 673.079 Q132.526 673.079 129.333 671.483 Q126.174 669.886 124.171 666.047 Q121.046 660.305 121.046 649.298 M126.82 648.449 Q126.82 658.947 127.567 663.125 Q128.416 667.644 130.726 669.614 Q133.069 671.551 135.65 671.551 Q138.435 671.551 140.745 669.478 Q143.088 667.372 143.802 662.853 Q144.583 658.403 144.549 648.449 Q144.549 638.766 143.87 634.893 Q142.953 630.375 140.507 628.574 Q138.096 626.74 135.65 626.74 Q134.733 626.74 133.748 627.012 Q132.797 627.283 131.405 628.065 Q130.012 628.846 128.925 630.783 Q127.873 632.719 127.363 635.641 Q126.82 639.412 126.82 648.449 Z" fill="#000000" fill-rule="evenodd" fill-opacity="1" /><path clip-path="url(#clip820)" d="M160.07 670.43 Q159.017 669.308 159.017 667.848 Q159.017 666.387 160.07 665.334 Q161.123 664.246 162.719 664.246 Q164.248 664.246 165.267 665.266 Q166.32 666.251 166.32 667.882 Q166.32 669.478 165.199 670.531 Q164.112 671.551 162.719 671.551 Q161.123 671.551 160.07 670.43 Z" fill="#000000" fill-rule="evenodd" fill-opacity="1" /><path clip-path="url(#clip820)" d="M178.615 631.836 L178.615 629.661 Q186.97 629.661 191.283 625.211 Q192.472 625.211 192.676 625.483 Q192.879 625.755 192.879 627.012 L192.879 666.047 Q192.879 668.119 193.898 668.765 Q194.917 669.41 199.366 669.41 L201.574 669.41 L201.574 671.551 Q199.129 671.347 190.298 671.347 Q181.467 671.347 179.056 671.551 L179.056 669.41 L181.264 669.41 Q185.645 669.41 186.698 668.799 Q187.751 668.153 187.751 666.047 L187.751 630.001 Q184.117 631.836 178.615 631.836 Z" fill="#000000" fill-rule="evenodd" fill-opacity="1" /><path clip-path="url(#clip820)" d="M118.94 447.757 Q118.94 437.531 121.521 431.96 Q125.121 423.67 133.612 423.67 Q135.413 423.67 137.281 424.18 Q139.183 424.655 141.56 426.524 Q143.971 428.393 145.432 431.45 Q148.217 437.361 148.217 447.757 Q148.217 457.915 145.636 463.453 Q141.866 471.539 133.545 471.539 Q130.42 471.539 127.227 469.942 Q124.069 468.345 122.065 464.506 Q118.94 458.765 118.94 447.757 M124.714 446.908 Q124.714 457.406 125.461 461.585 Q126.31 466.103 128.62 468.073 Q130.963 470.01 133.545 470.01 Q136.33 470.01 138.639 467.938 Q140.983 465.831 141.696 461.313 Q142.477 456.862 142.443 446.908 Q142.443 437.226 141.764 433.353 Q140.847 428.834 138.401 427.034 Q135.99 425.199 133.545 425.199 Q132.628 425.199 131.643 425.471 Q130.692 425.743 129.299 426.524 Q127.907 427.305 126.82 429.242 Q125.767 431.178 125.257 434.1 Q124.714 437.871 124.714 446.908 Z" fill="#000000" fill-rule="evenodd" fill-opacity="1" /><path clip-path="url(#clip820)" d="M157.965 468.889 Q156.912 467.768 156.912 466.307 Q156.912 464.846 157.965 463.793 Q159.017 462.706 160.614 462.706 Q162.142 462.706 163.161 463.725 Q164.214 464.71 164.214 466.341 Q164.214 467.938 163.093 468.991 Q162.006 470.01 160.614 470.01 Q159.017 470.01 157.965 468.889 Z" fill="#000000" fill-rule="evenodd" fill-opacity="1" /><path clip-path="url(#clip820)" d="M173.792 470.01 Q173.792 468.753 173.894 468.379 Q174.029 468.005 174.573 467.428 L187.921 452.548 Q195.223 444.326 195.223 437.158 Q195.223 432.503 192.777 429.174 Q190.366 425.845 185.917 425.845 Q182.86 425.845 180.279 427.713 Q177.698 429.582 176.509 432.911 Q176.713 432.843 177.426 432.843 Q179.158 432.843 180.109 433.93 Q181.094 435.017 181.094 436.478 Q181.094 438.347 179.871 439.264 Q178.682 440.147 177.494 440.147 Q177.018 440.147 176.373 440.045 Q175.762 439.943 174.777 438.992 Q173.792 438.007 173.792 436.274 Q173.792 431.416 177.46 427.543 Q181.162 423.67 186.8 423.67 Q193.185 423.67 197.363 427.475 Q201.574 431.246 201.574 437.158 Q201.574 439.23 200.929 441.133 Q200.317 443.001 199.468 444.462 Q198.653 445.923 196.412 448.267 Q194.17 450.611 192.37 452.276 Q190.57 453.941 186.528 457.474 L179.158 464.642 L191.691 464.642 Q197.804 464.642 198.28 464.099 Q198.959 463.113 199.808 457.915 L201.574 457.915 L199.604 470.01 L173.792 470.01 Z" fill="#000000" fill-rule="evenodd" fill-opacity="1" /><path clip-path="url(#clip820)" d="M118.397 246.217 Q118.397 235.991 120.978 230.419 Q124.578 222.129 133.069 222.129 Q134.869 222.129 136.737 222.639 Q138.639 223.115 141.017 224.983 Q143.428 226.852 144.888 229.909 Q147.673 235.821 147.673 246.217 Q147.673 256.375 145.092 261.912 Q141.322 269.998 133.001 269.998 Q129.876 269.998 126.684 268.401 Q123.525 266.804 121.521 262.965 Q118.397 257.224 118.397 246.217 M124.171 245.367 Q124.171 255.865 124.918 260.044 Q125.767 264.562 128.076 266.533 Q130.42 268.469 133.001 268.469 Q135.786 268.469 138.096 266.397 Q140.439 264.29 141.152 259.772 Q141.934 255.321 141.9 245.367 Q141.9 235.685 141.22 231.812 Q140.303 227.293 137.858 225.493 Q135.447 223.658 133.001 223.658 Q132.084 223.658 131.099 223.93 Q130.148 224.202 128.756 224.983 Q127.363 225.765 126.276 227.701 Q125.223 229.638 124.714 232.559 Q124.171 236.33 124.171 245.367 Z" fill="#000000" fill-rule="evenodd" fill-opacity="1" /><path clip-path="url(#clip820)" d="M157.421 267.348 Q156.368 266.227 156.368 264.766 Q156.368 263.305 157.421 262.252 Q158.474 261.165 160.07 261.165 Q161.599 261.165 162.618 262.184 Q163.67 263.169 163.67 264.8 Q163.67 266.397 162.55 267.45 Q161.463 268.469 160.07 268.469 Q158.474 268.469 157.421 267.348 Z" fill="#000000" fill-rule="evenodd" fill-opacity="1" /><path clip-path="url(#clip820)" d="M172.705 259.093 Q172.705 257.02 173.894 256.035 Q175.082 255.05 176.611 255.05 Q178.207 255.05 179.328 256.103 Q180.483 257.122 180.483 258.923 Q180.483 260.859 179.124 261.946 Q177.799 263.033 175.897 262.762 Q177.562 265.547 180.618 266.804 Q183.709 268.062 186.562 268.062 Q189.551 268.062 191.962 265.48 Q194.408 262.898 194.408 256.578 Q194.408 251.211 192.302 248.119 Q190.23 245.028 186.121 245.028 L183.064 245.028 Q182.011 245.028 181.705 244.926 Q181.4 244.824 181.4 244.246 Q181.4 243.567 182.452 243.431 Q183.505 243.431 185.17 243.227 Q189.211 243.091 191.351 239.592 Q193.287 236.33 193.287 231.676 Q193.287 227.429 191.249 225.663 Q189.245 223.862 186.63 223.862 Q184.185 223.862 181.501 224.881 Q178.818 225.901 177.358 228.177 Q181.671 228.177 181.671 231.676 Q181.671 233.205 180.686 234.224 Q179.735 235.209 178.139 235.209 Q176.611 235.209 175.592 234.258 Q174.573 233.273 174.573 231.608 Q174.573 227.633 178.105 224.881 Q181.671 222.129 186.902 222.129 Q192.064 222.129 195.868 224.847 Q199.706 227.565 199.706 231.744 Q199.706 235.855 196.989 239.218 Q194.272 242.581 189.958 243.974 Q195.257 245.028 198.415 248.629 Q201.574 252.196 201.574 256.578 Q201.574 262.014 197.295 266.023 Q193.015 269.998 186.766 269.998 Q180.992 269.998 176.848 266.872 Q172.705 263.747 172.705 259.093 Z" fill="#000000" fill-rule="evenodd" fill-opacity="1" /><path clip-path="url(#clip820)" d="M77.0374 825.957 L74.7031 825.957 L74.7031 824.141 Q74.7031 820.027 74.0362 819.1 Q73.3322 818.136 71.1092 818.136 L31.3529 818.136 Q29.1669 818.136 28.5 819.1 Q27.796 820.064 27.796 824.141 L27.796 825.957 L25.4247 825.957 L25.4247 783.224 L42.5054 781.112 L42.5054 783.002 Q38.1704 783.521 35.688 784.225 Q33.1685 784.892 31.2418 786.56 Q29.3151 788.19 28.5741 790.896 Q27.796 793.564 27.796 797.901 L27.796 807.685 Q27.796 810.279 28.3518 810.835 Q28.8705 811.391 30.8342 811.391 L49.0265 811.391 L49.0265 804.572 Q49.0265 799.346 47.211 797.864 Q45.3954 796.381 40.1712 796.381 L40.1712 794.454 L60.2531 794.454 L60.2531 796.381 Q55.1029 796.381 53.2504 797.864 Q51.3978 799.346 51.3978 804.572 L51.3978 811.391 L71.6649 811.391 Q73.6287 811.391 74.1844 810.835 Q74.7031 810.242 74.7031 807.685 L74.7031 797.567 Q74.7031 794.306 74.2956 791.934 Q73.851 789.525 72.8135 787.857 Q71.739 786.189 70.5163 785.077 Q69.2936 783.928 67.1076 783.15 Q64.8845 782.335 62.8467 781.89 Q60.8089 781.408 57.4742 780.889 L57.4742 778.999 L77.0374 782.186 L77.0374 825.957 Z" fill="#000000" fill-rule="evenodd" fill-opacity="1" /><path clip-path="url(#clip820)" d="M77.0374 774.441 L74.7031 774.441 Q74.7031 770.401 74.2215 769.474 Q73.7028 768.548 71.2574 768.548 L50.9161 768.548 Q48.1002 768.548 47.3962 769.548 Q46.6922 770.512 46.6922 774.441 L44.321 774.441 L43.5058 763.767 L51.4719 763.767 Q43.5058 760.209 43.5058 752.537 Q43.5058 746.829 46.3217 744.569 Q48.2114 742.901 50.3233 742.567 Q52.4352 742.197 57.9188 742.197 L72.406 742.197 Q73.9992 742.123 74.3697 740.9 Q74.7031 739.677 74.7031 736.267 L77.0374 736.267 Q76.8151 744.013 76.8151 744.791 Q76.8151 745.384 77.0374 753.352 L74.7031 753.352 Q74.7031 749.313 74.2215 748.386 Q73.7028 747.422 71.2574 747.422 L53.5838 747.422 Q49.7305 747.422 47.4703 748.608 Q45.1731 749.794 45.1731 753.056 Q45.1731 756.984 48.4707 760.135 Q51.7683 763.285 57.326 763.285 L71.2574 763.285 Q73.7028 763.285 74.2215 762.358 Q74.7031 761.395 74.7031 757.392 L77.0374 757.392 Q76.8151 765.138 76.8151 765.879 Q76.8151 766.472 77.0374 774.441 Z" fill="#000000" fill-rule="evenodd" fill-opacity="1" /><path clip-path="url(#clip820)" d="M46.6922 735.451 L45.0249 735.451 Q44.8767 731.968 42.4313 729.67 Q39.9489 727.335 36.9107 726.557 Q33.8724 725.741 30.3526 725.667 L30.3526 723.777 L44.321 723.777 L44.321 712.918 L46.6922 712.918 L46.6922 723.777 L67.7745 723.777 Q75.9629 723.777 75.9629 718.662 Q75.9629 716.476 73.7398 715.03 Q71.4797 713.585 67.4781 713.585 L63.2913 713.585 L63.2913 711.695 L67.6263 711.695 Q71.739 711.695 74.8143 713.585 Q77.8896 715.475 77.8896 719.218 Q77.8896 720.59 77.5191 721.961 Q77.1856 723.295 76.2964 725.074 Q75.3701 726.816 73.147 727.928 Q70.8868 729.003 67.6263 729.003 L46.6922 729.003 L46.6922 735.451 Z" fill="#000000" fill-rule="evenodd" fill-opacity="1" /><path clip-path="url(#clip820)" d="M69.8124 704.282 Q63.3654 704.282 59.9567 696.685 Q57.7706 692.126 57.2149 682.712 L54.436 682.712 Q49.7305 682.712 47.248 685.196 Q44.7285 687.642 44.7285 690.755 Q44.7285 696.314 48.2114 698.983 Q48.2855 696.722 49.4341 695.906 Q50.5456 695.091 51.6942 695.091 Q53.2133 695.091 54.2137 696.055 Q55.177 696.981 55.177 698.575 Q55.177 700.094 54.2507 701.095 Q53.2874 702.096 51.6201 702.096 Q47.9149 702.096 45.4696 698.76 Q43.0242 695.388 43.0242 690.607 Q43.0242 684.38 47.211 680.229 Q48.5078 678.932 50.1751 678.302 Q51.8424 677.635 52.9539 677.561 Q54.0284 677.487 56.1774 677.487 L71.3315 677.487 Q71.7761 677.487 72.5171 677.338 Q73.2581 677.19 74.2215 676.523 Q75.1478 675.819 75.1478 674.67 Q75.1478 671.927 70.294 671.964 L66.0331 671.964 L66.0331 670.037 L70.294 670.037 Q74.3326 670.037 75.9258 672.187 Q77.482 674.299 77.482 676.264 Q77.482 678.784 75.6294 680.378 Q73.7769 681.971 71.2574 682.194 Q74.1474 683.342 76.037 685.974 Q77.8896 688.568 77.8896 692.126 Q77.8896 694.869 77.1856 697.463 Q76.5187 700.02 74.629 702.17 Q72.7024 704.282 69.8124 704.282 M69.7382 698.427 Q72.5542 698.427 74.3697 696.425 Q76.1852 694.424 76.1852 691.607 Q76.1852 688.42 73.7398 685.566 Q71.2574 682.712 66.4036 682.712 L58.8081 682.712 Q59.1045 691.125 62.4762 694.795 Q65.8108 698.427 69.7382 698.427 Z" fill="#000000" fill-rule="evenodd" fill-opacity="1" /><path clip-path="url(#clip820)" d="M77.0374 667.072 L74.7031 667.072 Q74.7031 663.033 74.2215 662.106 Q73.7028 661.179 71.2574 661.179 L50.9161 661.179 Q48.1002 661.179 47.3962 662.18 Q46.6922 663.144 46.6922 667.072 L44.321 667.072 L43.5058 656.398 L51.4719 656.398 Q43.5058 652.841 43.5058 645.169 Q43.5058 639.461 46.3217 637.2 Q48.2114 635.533 50.3233 635.199 Q52.4352 634.828 57.9188 634.828 L72.406 634.828 Q73.9992 634.754 74.3697 633.531 Q74.7031 632.308 74.7031 628.899 L77.0374 628.899 Q76.8151 636.645 76.8151 637.423 Q76.8151 638.016 77.0374 645.984 L74.7031 645.984 Q74.7031 641.944 74.2215 641.018 Q73.7028 640.054 71.2574 640.054 L53.5838 640.054 Q49.7305 640.054 47.4703 641.24 Q45.1731 642.426 45.1731 645.688 Q45.1731 649.616 48.4707 652.766 Q51.7683 655.917 57.326 655.917 L71.2574 655.917 Q73.7028 655.917 74.2215 654.99 Q74.7031 654.027 74.7031 650.024 L77.0374 650.024 Q76.8151 657.77 76.8151 658.511 Q76.8151 659.104 77.0374 667.072 Z" fill="#000000" fill-rule="evenodd" fill-opacity="1" /><path clip-path="url(#clip820)" d="M83.0397 625.304 Q80.5943 625.304 78.4824 623.45 Q76.3705 621.56 75.4442 618.299 Q73.3322 621.634 68.7008 621.634 Q65.1439 621.634 62.4021 619.3 Q59.4379 622.857 54.5842 622.857 Q50.101 622.857 46.8034 619.3 Q43.5058 615.742 43.5058 610.553 Q43.5058 605.994 46.2476 602.511 Q42.6907 598.878 42.6536 594.468 Q42.6536 592.504 43.8763 591.577 Q45.099 590.614 46.3958 590.614 Q47.5444 590.614 48.1002 591.355 Q48.656 592.059 48.656 592.8 Q48.656 593.727 48.0632 594.394 Q47.4333 595.024 46.4699 595.024 Q44.8767 595.024 44.3951 593.801 Q44.321 594.023 44.321 594.542 Q44.321 598.248 47.2851 601.399 Q50.1751 598.285 54.6583 598.285 Q59.1415 598.285 62.4391 601.843 Q65.7367 605.401 65.7367 610.553 Q65.7367 614.815 63.3654 618.077 Q64.8845 619.374 66.9594 619.374 Q68.849 619.374 70.3311 618.225 Q71.8131 617.076 72.0354 615.334 Q72.1095 614.815 72.1095 609.663 Q72.1095 606.624 72.1836 604.957 Q72.2577 603.289 72.7765 600.917 Q73.2581 598.508 74.2215 596.618 Q76.9633 591.688 82.8915 591.651 Q87.2265 591.651 89.9313 596.655 Q92.6731 601.621 92.6731 608.515 Q92.6731 615.482 89.8942 620.411 Q87.1524 625.304 83.0397 625.304 M83.0397 621.338 Q86.152 621.338 88.5233 617.669 Q90.9317 614 90.9317 608.44 Q90.9317 602.992 88.5604 599.323 Q86.2261 595.617 83.0397 595.617 Q80.7796 595.617 79.3346 596.914 Q77.8896 598.211 77.2967 600.88 Q76.741 603.511 76.6298 605.364 Q76.5187 607.217 76.5187 610.627 L76.5187 615.112 Q76.6669 617.706 78.5565 619.522 Q80.4461 621.338 83.0397 621.338 M54.6583 617.187 Q63.9953 617.187 63.9953 610.553 Q63.9953 607.217 60.9571 605.179 Q58.9192 603.956 54.5842 603.956 Q45.2472 603.956 45.2472 610.553 Q45.2472 613.889 48.2855 615.964 Q50.3233 617.187 54.6583 617.187 Z" fill="#000000" fill-rule="evenodd" fill-opacity="1" /><path clip-path="url(#clip820)" d="M77.0374 586.945 L74.7031 586.945 Q74.7031 582.905 74.2215 581.978 Q73.7028 581.052 71.2574 581.052 L31.7976 581.052 Q28.9817 581.052 28.2777 582.052 Q27.5737 583.016 27.5737 586.945 L25.2024 586.945 L24.3873 576.048 L71.2574 576.048 Q73.7028 576.048 74.2215 575.085 Q74.7031 574.121 74.7031 570.118 L77.0374 570.118 Q77.0374 571.045 76.9633 572.972 Q76.8892 574.899 76.8521 576.308 Q76.8151 577.716 76.8151 578.532 Q76.8151 579.421 77.0374 586.945 Z" fill="#000000" fill-rule="evenodd" fill-opacity="1" /><path clip-path="url(#clip820)" d="M60.3272 566.338 Q53.1763 566.338 48.1002 561.742 Q43.0242 557.147 43.0242 550.55 Q43.0242 543.879 47.3592 540.432 Q51.6942 536.948 57.9188 536.948 Q59.0674 536.948 59.2897 537.245 Q59.512 537.541 59.512 538.838 L59.512 560.038 Q67.2558 560.038 70.8868 557.74 Q75.9629 554.552 75.9629 549.179 Q75.9629 548.437 75.8147 547.548 Q75.6665 546.658 75.0366 544.842 Q74.3697 543.026 72.6283 541.433 Q70.8868 539.839 68.145 538.912 Q67.0705 538.69 67.1076 537.949 Q67.1076 536.948 67.9968 536.948 Q68.6638 536.948 70.1829 537.689 Q71.6649 538.394 73.4434 539.765 Q75.2219 541.136 76.5557 543.805 Q77.8896 546.436 77.8896 549.623 Q77.8896 556.294 72.8506 561.335 Q67.7745 566.338 60.3272 566.338 M57.9188 559.964 L57.9188 541.951 Q56.3256 541.951 54.5472 542.248 Q52.7687 542.507 50.3233 543.323 Q47.8408 544.101 46.2847 545.954 Q44.7285 547.807 44.7285 550.55 Q44.7285 551.773 45.2472 553.107 Q45.766 554.404 47.0257 555.998 Q48.2855 557.592 51.1384 558.703 Q53.9914 559.815 57.9188 559.964 Z" fill="#000000" fill-rule="evenodd" fill-opacity="1" /><path clip-path="url(#clip820)" d="M77.0374 532.315 L74.7031 532.315 Q74.7031 528.276 74.2215 527.349 Q73.7028 526.423 71.2574 526.423 L50.9161 526.423 Q48.1002 526.423 47.3962 527.423 Q46.6922 528.387 46.6922 532.315 L44.321 532.315 L43.5058 521.642 L51.4719 521.642 Q43.5058 518.084 43.5058 510.412 Q43.5058 501.517 50.9161 500.294 Q48.0261 498.997 45.766 496.291 Q43.5058 493.549 43.5058 489.287 Q43.5058 483.579 46.3217 481.318 Q48.2114 479.65 50.3233 479.317 Q52.4352 478.983 57.9188 478.983 L72.406 478.983 Q73.9992 478.909 74.3697 477.686 Q74.7031 476.463 74.7031 473.053 L77.0374 473.053 Q76.8151 480.799 76.8151 481.541 Q76.8151 482.134 77.0374 490.139 L74.7031 490.139 Q74.7031 486.099 74.2215 485.173 Q73.7028 484.209 71.2574 484.209 L53.5838 484.209 Q49.7305 484.209 47.4703 485.395 Q45.1731 486.581 45.1731 489.842 Q45.1731 493.771 48.4707 496.921 Q51.7683 500.072 57.326 500.072 L71.2574 500.072 Q73.7028 500.072 74.2215 499.145 Q74.7031 498.181 74.7031 494.142 L77.0374 494.142 Q76.8151 501.888 76.8151 502.666 Q76.8151 503.259 77.0374 511.227 L74.7031 511.227 Q74.7031 507.187 74.2215 506.261 Q73.7028 505.297 71.2574 505.297 L53.5838 505.297 Q49.7305 505.297 47.4703 506.483 Q45.1731 507.669 45.1731 510.931 Q45.1731 514.859 48.4707 518.009 Q51.7683 521.16 57.326 521.16 L71.2574 521.16 Q73.7028 521.16 74.2215 520.233 Q74.7031 519.27 74.7031 515.267 L77.0374 515.267 Q76.8151 523.013 76.8151 523.754 Q76.8151 524.347 77.0374 532.315 Z" fill="#000000" fill-rule="evenodd" fill-opacity="1" /><path clip-path="url(#clip820)" d="M60.3272 469.458 Q53.1763 469.458 48.1002 464.863 Q43.0242 460.267 43.0242 453.67 Q43.0242 446.999 47.3592 443.552 Q51.6942 440.068 57.9188 440.068 Q59.0674 440.068 59.2897 440.365 Q59.512 440.661 59.512 441.959 L59.512 463.158 Q67.2558 463.158 70.8868 460.86 Q75.9629 457.673 75.9629 452.299 Q75.9629 451.558 75.8147 450.668 Q75.6665 449.779 75.0366 447.963 Q74.3697 446.147 72.6283 444.553 Q70.8868 442.959 68.145 442.033 Q67.0705 441.81 67.1076 441.069 Q67.1076 440.068 67.9968 440.068 Q68.6638 440.068 70.1829 440.81 Q71.6649 441.514 73.4434 442.885 Q75.2219 444.256 76.5557 446.925 Q77.8896 449.556 77.8896 452.744 Q77.8896 459.415 72.8506 464.455 Q67.7745 469.458 60.3272 469.458 M57.9188 463.084 L57.9188 445.072 Q56.3256 445.072 54.5472 445.368 Q52.7687 445.628 50.3233 446.443 Q47.8408 447.221 46.2847 449.074 Q44.7285 450.927 44.7285 453.67 Q44.7285 454.893 45.2472 456.227 Q45.766 457.525 47.0257 459.118 Q48.2855 460.712 51.1384 461.824 Q53.9914 462.936 57.9188 463.084 Z" fill="#000000" fill-rule="evenodd" fill-opacity="1" /><path clip-path="url(#clip820)" d="M77.0374 435.436 L74.7031 435.436 Q74.7031 431.396 74.2215 430.469 Q73.7028 429.543 71.2574 429.543 L50.9161 429.543 Q48.1002 429.543 47.3962 430.543 Q46.6922 431.507 46.6922 435.436 L44.321 435.436 L43.5058 424.762 L51.4719 424.762 Q43.5058 421.204 43.5058 413.532 Q43.5058 407.825 46.3217 405.564 Q48.2114 403.896 50.3233 403.562 Q52.4352 403.192 57.9188 403.192 L72.406 403.192 Q73.9992 403.118 74.3697 401.895 Q74.7031 400.672 74.7031 397.262 L77.0374 397.262 Q76.8151 405.008 76.8151 405.786 Q76.8151 406.379 77.0374 414.347 L74.7031 414.347 Q74.7031 410.308 74.2215 409.381 Q73.7028 408.418 71.2574 408.418 L53.5838 408.418 Q49.7305 408.418 47.4703 409.604 Q45.1731 410.789 45.1731 414.051 Q45.1731 417.979 48.4707 421.13 Q51.7683 424.28 57.326 424.28 L71.2574 424.28 Q73.7028 424.28 74.2215 423.353 Q74.7031 422.39 74.7031 418.387 L77.0374 418.387 Q76.8151 426.133 76.8151 426.874 Q76.8151 427.467 77.0374 435.436 Z" fill="#000000" fill-rule="evenodd" fill-opacity="1" /><path clip-path="url(#clip820)" d="M46.6922 396.447 L45.0249 396.447 Q44.8767 392.963 42.4313 390.665 Q39.9489 388.33 36.9107 387.552 Q33.8724 386.736 30.3526 386.662 L30.3526 384.772 L44.321 384.772 L44.321 373.913 L46.6922 373.913 L46.6922 384.772 L67.7745 384.772 Q75.9629 384.772 75.9629 379.658 Q75.9629 377.471 73.7398 376.025 Q71.4797 374.58 67.4781 374.58 L63.2913 374.58 L63.2913 372.69 L67.6263 372.69 Q71.739 372.69 74.8143 374.58 Q77.8896 376.47 77.8896 380.213 Q77.8896 381.585 77.5191 382.956 Q77.1856 384.29 76.2964 386.069 Q75.3701 387.811 73.147 388.923 Q70.8868 389.998 67.6263 389.998 L46.6922 389.998 L46.6922 396.447 Z" fill="#000000" fill-rule="evenodd" fill-opacity="1" /><path clip-path="url(#clip820)" d="M60.3272 341.113 Q53.1763 341.113 48.1002 336.518 Q43.0242 331.922 43.0242 325.325 Q43.0242 318.654 47.3592 315.207 Q51.6942 311.723 57.9188 311.723 Q59.0674 311.723 59.2897 312.02 Q59.512 312.316 59.512 313.613 L59.512 334.813 Q67.2558 334.813 70.8868 332.515 Q75.9629 329.328 75.9629 323.954 Q75.9629 323.212 75.8147 322.323 Q75.6665 321.433 75.0366 319.617 Q74.3697 317.801 72.6283 316.208 Q70.8868 314.614 68.145 313.687 Q67.0705 313.465 67.1076 312.724 Q67.1076 311.723 67.9968 311.723 Q68.6638 311.723 70.1829 312.464 Q71.6649 313.169 73.4434 314.54 Q75.2219 315.911 76.5557 318.58 Q77.8896 321.211 77.8896 324.398 Q77.8896 331.069 72.8506 336.11 Q67.7745 341.113 60.3272 341.113 M57.9188 334.739 L57.9188 316.726 Q56.3256 316.726 54.5472 317.023 Q52.7687 317.282 50.3233 318.098 Q47.8408 318.876 46.2847 320.729 Q44.7285 322.582 44.7285 325.325 Q44.7285 326.548 45.2472 327.882 Q45.766 329.179 47.0257 330.773 Q48.2855 332.367 51.1384 333.478 Q53.9914 334.59 57.9188 334.739 Z" fill="#000000" fill-rule="evenodd" fill-opacity="1" /><path clip-path="url(#clip820)" d="M77.0374 307.09 L74.7031 307.09 Q74.7031 303.051 74.2215 302.124 Q73.7028 301.198 71.2574 301.198 L50.9161 301.198 Q48.1002 301.198 47.3962 302.198 Q46.6922 303.162 46.6922 307.09 L44.321 307.09 L43.5058 296.417 L51.4719 296.417 Q43.5058 292.859 43.5058 285.187 Q43.5058 279.479 46.3217 277.219 Q48.2114 275.551 50.3233 275.217 Q52.4352 274.847 57.9188 274.847 L72.406 274.847 Q73.9992 274.772 74.3697 273.549 Q74.7031 272.326 74.7031 268.917 L77.0374 268.917 Q76.8151 276.663 76.8151 277.441 Q76.8151 278.034 77.0374 286.002 L74.7031 286.002 Q74.7031 281.962 74.2215 281.036 Q73.7028 280.072 71.2574 280.072 L53.5838 280.072 Q49.7305 280.072 47.4703 281.258 Q45.1731 282.444 45.1731 285.706 Q45.1731 289.634 48.4707 292.785 Q51.7683 295.935 57.326 295.935 L71.2574 295.935 Q73.7028 295.935 74.2215 295.008 Q74.7031 294.045 74.7031 290.042 L77.0374 290.042 Q76.8151 297.788 76.8151 298.529 Q76.8151 299.122 77.0374 307.09 Z" fill="#000000" fill-rule="evenodd" fill-opacity="1" /><path clip-path="url(#clip820)" d="M46.6922 268.101 L45.0249 268.101 Q44.8767 264.617 42.4313 262.32 Q39.9489 259.985 36.9107 259.206 Q33.8724 258.391 30.3526 258.317 L30.3526 256.427 L44.321 256.427 L44.321 245.568 L46.6922 245.568 L46.6922 256.427 L67.7745 256.427 Q75.9629 256.427 75.9629 251.312 Q75.9629 249.126 73.7398 247.68 Q71.4797 246.235 67.4781 246.235 L63.2913 246.235 L63.2913 244.345 L67.6263 244.345 Q71.739 244.345 74.8143 246.235 Q77.8896 248.125 77.8896 251.868 Q77.8896 253.239 77.5191 254.611 Q77.1856 255.945 76.2964 257.724 Q75.3701 259.466 73.147 260.578 Q70.8868 261.653 67.6263 261.653 L46.6922 261.653 L46.6922 268.101 Z" fill="#000000" fill-rule="evenodd" fill-opacity="1" /><path clip-path="url(#clip820)" d="M77.0374 238.007 L74.7031 238.007 Q74.7031 233.967 74.2215 233.041 Q73.7028 232.077 71.2574 232.077 L50.9161 232.077 Q48.1002 232.077 47.3962 233.078 Q46.6922 234.041 46.6922 238.007 L44.321 238.007 L43.5058 227.444 L51.8424 227.444 Q48.5819 226.37 46.0624 224.109 Q43.5058 221.811 43.5058 218.105 Q43.5058 215.659 44.8767 214.102 Q46.2476 212.508 48.1373 212.508 Q49.8046 212.508 50.6568 213.546 Q51.4719 214.547 51.4719 215.77 Q51.4719 217.141 50.6197 218.105 Q49.7305 219.031 48.2114 219.031 Q47.2851 219.031 46.5811 218.624 Q45.8401 218.179 45.5807 217.845 Q45.3213 217.512 45.2472 217.289 Q45.1731 217.438 45.1731 218.105 Q45.1731 222.293 49.36 224.702 Q53.5097 227.074 59.4379 227.074 L71.1092 227.074 Q73.2952 227.074 73.9992 226.184 Q74.7031 225.258 74.7031 221.292 L74.7031 219.698 L77.0374 219.698 Q76.8151 222.738 76.8151 229.335 Q76.8151 230.261 76.8521 231.707 Q76.8892 233.152 76.9633 235.042 Q77.0374 236.932 77.0374 238.007 Z" fill="#000000" fill-rule="evenodd" fill-opacity="1" /><path clip-path="url(#clip820)" d="M72.9617 203.354 Q67.9968 208.358 60.8089 208.358 Q53.5838 208.358 48.3225 203.465 Q43.0242 198.536 43.0242 191.494 Q43.0242 184.601 48.2855 179.672 Q53.5097 174.705 60.8089 174.705 Q67.9598 174.705 72.9247 179.709 Q77.8896 184.675 77.8896 191.569 Q77.8896 198.314 72.9617 203.354 M60.179 202.057 Q67.5522 202.057 70.8868 200.13 Q75.9629 197.165 75.9629 191.494 Q75.9629 188.678 74.4438 186.343 Q72.9247 183.971 70.3681 182.674 Q67.0335 181.006 60.179 181.006 Q52.8798 181.006 49.6564 183.007 Q44.7285 185.972 44.7285 191.569 Q44.7285 194.015 46.0253 196.424 Q47.2851 198.796 49.8046 200.241 Q53.1392 202.057 60.179 202.057 Z" fill="#000000" fill-rule="evenodd" fill-opacity="1" /><path clip-path="url(#clip820)" d="M89.4126 170.406 Q89.4126 166.366 88.8938 165.44 Q88.4122 164.476 86.0038 164.476 L50.4715 164.476 Q47.952 164.476 47.3221 165.44 Q46.6922 166.366 46.6922 170.406 L44.321 170.406 L43.5058 159.473 L48.5078 159.473 Q43.5058 154.914 43.5058 148.836 Q43.5058 142.387 48.5078 137.681 Q53.5097 132.974 60.6606 132.974 Q67.8857 132.974 72.8876 137.977 Q77.8896 142.98 77.8896 149.911 Q77.8896 153.691 75.9629 156.249 Q73.9992 158.769 72.5542 159.251 L73.2581 159.251 L86.0038 159.251 Q88.4492 159.251 88.9309 158.287 Q89.4126 157.323 89.4126 153.321 L91.7468 153.321 Q91.5245 161.289 91.5245 161.882 Q91.5245 162.623 91.7468 170.406 L89.4126 170.406 M68.4044 159.251 Q69.553 159.251 69.9606 159.102 Q70.3681 158.917 71.5908 158.176 Q76.1852 155.174 76.1852 150.282 Q76.1852 150.245 76.1852 150.207 Q76.1852 145.871 71.7761 142.573 Q67.3299 139.274 60.6606 139.274 Q54.2878 139.274 49.8416 142.276 Q45.3954 145.278 45.3954 149.429 Q45.3954 152.394 46.9887 154.988 Q48.5819 157.583 51.4719 159.251 L68.4044 159.251 Z" fill="#000000" fill-rule="evenodd" fill-opacity="1" /><path clip-path="url(#clip820)" d="M86.4485 131.084 Q84.8552 131.084 84.0031 130.157 Q83.1879 129.193 83.1879 127.896 Q83.1879 126.525 84.0401 125.635 Q84.9293 124.709 86.3744 124.709 Q89.1903 124.709 89.5608 127.674 Q90.9317 126.228 90.9317 124.116 Q90.9317 121.855 89.2644 120.039 Q87.597 118.186 86.0038 117.408 Q84.4106 116.592 81.5206 115.443 Q79.2605 114.369 77.0374 113.553 L49.3229 124.931 Q47.5074 125.673 47.0998 126.821 Q46.6922 127.97 46.6922 131.084 L44.321 131.084 Q44.5433 127.674 44.5433 123.708 Q44.5433 121.373 44.321 115.443 L46.6922 115.443 Q46.6922 119.706 48.656 119.706 Q48.8783 119.706 50.0269 119.261 L70.4422 110.811 L51.7683 103.139 Q50.6938 102.694 49.9528 102.694 Q46.8405 102.694 46.6922 106.252 L44.321 106.252 Q44.5433 101.249 44.5433 99.6551 Q44.5433 96.5419 44.321 93.9846 L46.6922 93.9846 Q46.6922 99.0621 51.546 101.026 L83.929 114.406 Q92.5619 118.038 92.599 124.116 Q92.599 127.007 90.8205 129.045 Q89.0421 131.084 86.4485 131.084 Z" fill="#000000" fill-rule="evenodd" fill-opacity="1" /><polyline clip-path="url(#clip822)" style="stroke:#000000; stroke-linecap:round; stroke-linejoin:round; stroke-width:8.00147; stroke-opacity:1; fill:none" stroke-dasharray="32, 20" points="267.724,849.327 301.511,849.327 335.298,849.32 369.086,849.256 402.873,848.989 436.66,848.222 470.448,846.502 504.235,843.234 538.022,837.753 571.81,829.398 605.597,817.607 639.384,801.987 673.171,782.366 706.959,758.81 740.746,731.608 774.533,701.229 808.321,668.268 842.108,633.376 875.895,597.207 909.682,560.355 943.47,523.328 977.257,486.521 1011.04,450.216 1044.83,414.595 1078.62,379.765 1112.41,345.794 1146.19,312.741 1179.98,280.697 1213.77,249.806 1247.56,220.278 1281.34,192.401 1315.13,166.52 1348.92,143.023 1382.7,122.31 1416.49,104.753 1450.28,90.661 1484.07,80.2436 1517.85,73.5829 1551.64,70.6142 1585.43,71.1186 1619.22,74.7295 "/>
<polyline clip-path="url(#clip822)" style="stroke:#f6cf71; stroke-linecap:round; stroke-linejoin:round; stroke-width:12.0022; stroke-opacity:1; fill:none" stroke-dasharray="48, 30" points="267.724,849.327 301.511,849.327 335.298,849.327 369.086,849.327 402.873,849.327 436.66,849.327 470.448,849.327 504.235,849.327 538.022,849.327 571.81,849.327 605.597,849.327 639.384,849.327 673.171,849.327 706.959,849.327 740.746,849.327 774.533,849.327 808.321,849.327 842.108,849.327 875.895,849.327 909.682,849.327 943.47,849.327 977.257,849.327 1011.04,849.327 1044.83,849.327 1078.62,849.327 1112.41,849.327 1146.19,849.327 1179.98,849.327 1213.77,849.327 1247.56,849.327 1281.34,849.327 1315.13,849.327 1348.92,849.327 1382.7,849.327 1416.49,849.327 1450.28,849.327 1484.07,849.327 1517.85,849.327 1551.64,849.327 1585.43,849.327 1619.22,849.327 "/>
<polyline clip-path="url(#clip822)" style="stroke:#f89c74; stroke-linecap:round; stroke-linejoin:round; stroke-width:12.0022; stroke-opacity:1; fill:none" stroke-dasharray="6, 12" points="267.724,849.327 301.511,849.327 335.298,849.326 369.086,849.308 402.873,849.186 436.66,848.739 470.448,847.587 504.235,845.194 538.022,840.909 571.81,834.039 605.597,823.943 639.384,810.115 673.171,792.257 706.959,770.381 740.746,744.731 774.533,715.671 808.321,684.589 842.108,652.127 875.895,619.819 909.682,589.36 943.47,561.306 977.257,537.507 1011.04,514.046 1044.83,496.793 1078.62,484.685 1112.41,476.008 1146.19,465.607 1179.98,449.832 1213.77,431.147 1247.56,413.834 1281.34,395.687 1315.13,379.294 1348.92,364.601 1382.7,351.614 1416.49,340.319 1450.28,331.823 1484.07,340.179 1517.85,347.537 1551.64,354.192 1585.43,360.766 1619.22,365.374 "/>
<polyline clip-path="url(#clip822)" style="stroke:#87c55f; stroke-linecap:round; stroke-linejoin:round; stroke-width:12.0022; stroke-opacity:1; fill:none" stroke-dasharray="48, 24, 6, 24" points="267.724,849.327 301.511,849.327 335.298,849.326 369.086,849.308 402.873,849.186 436.66,848.739 470.448,847.587 504.235,845.194 538.022,840.909 571.81,834.039 605.597,823.943 639.384,810.115 673.171,792.257 706.959,770.381 740.746,744.731 774.533,715.671 808.321,683.736 842.108,649.555 875.895,613.807 909.682,577.135 943.47,540.105 977.257,503.143 1011.04,466.574 1044.83,430.602 1078.62,395.36 1112.41,360.97 1146.19,327.672 1179.98,296.32 1213.77,267.055 1247.56,238.41 1281.34,211.806 1315.13,187.708 1348.92,163.906 1382.7,163.987 1416.49,161.325 1450.28,160.87 1484.07,161.476 1517.85,164.14 1551.64,167.964 1585.43,173.159 1619.22,178.639 "/>
<polyline clip-path="url(#clip822)" style="stroke:#dcb0f2; stroke-linecap:round; stroke-linejoin:round; stroke-width:12.0022; stroke-opacity:1; fill:none" points="267.724,849.327 301.511,849.327 335.298,849.326 369.086,849.308 402.873,849.186 436.66,848.739 470.448,847.587 504.235,845.194 538.022,840.909 571.81,834.039 605.597,823.943 639.384,810.115 673.171,792.257 706.959,770.381 740.746,744.731 774.533,715.671 808.321,683.736 842.108,649.555 875.895,613.807 909.682,577.135 943.47,540.105 977.257,503.143 1011.04,466.574 1044.83,430.602 1078.62,395.36 1112.41,360.97 1146.19,327.486 1179.98,294.99 1213.77,263.606 1247.56,233.519 1281.34,204.964 1315.13,178.258 1348.92,153.778 1382.7,131.948 1416.49,113.176 1450.28,97.8323 1484.07,86.1988 1517.85,78.4793 1551.64,74.784 1585.43,75.0309 1619.22,78.8261 "/>
<path clip-path="url(#clip820)" d="M274.932 541.413 L1041.77 541.413 L1041.77 74.7673 L274.932 74.7673  Z" fill="#ffffff" fill-rule="evenodd" fill-opacity="1"/>
<polyline clip-path="url(#clip820)" style="stroke:#000000; stroke-linecap:round; stroke-linejoin:round; stroke-width:4.00074; stroke-opacity:1; fill:none" points="274.932,541.413 1041.77,541.413 1041.77,74.7673 274.932,74.7673 274.932,541.413 "/>
<polyline clip-path="url(#clip820)" style="stroke:#000000; stroke-linecap:round; stroke-linejoin:round; stroke-width:12.0022; stroke-opacity:1; fill:none" stroke-dasharray="48, 30" points="290.849,152.542 386.355,152.542 "/>
<path clip-path="url(#clip820)" d="M402.272 178.466 L402.272 176.132 L404.088 176.132 Q408.201 176.132 409.127 175.464 Q410.09 174.76 410.09 172.537 L410.09 132.769 Q410.09 130.582 409.127 129.915 Q408.164 129.211 404.088 129.211 L402.272 129.211 L402.272 126.839 L444.993 126.839 L447.105 143.925 L445.215 143.925 Q444.696 139.589 443.992 137.105 Q443.325 134.585 441.658 132.658 Q440.028 130.731 437.323 129.99 Q434.655 129.211 430.32 129.211 L420.539 129.211 Q417.945 129.211 417.389 129.767 Q416.834 130.286 416.834 132.25 L416.834 150.448 L423.651 150.448 Q428.875 150.448 430.357 148.632 Q431.839 146.816 431.839 141.59 L433.766 141.59 L433.766 161.677 L431.839 161.677 Q431.839 156.526 430.357 154.673 Q428.875 152.82 423.651 152.82 L416.834 152.82 L416.834 173.092 Q416.834 175.057 417.389 175.613 Q417.982 176.132 420.539 176.132 L430.654 176.132 Q433.914 176.132 436.286 175.724 Q438.694 175.279 440.361 174.241 Q442.029 173.167 443.14 171.944 Q444.289 170.72 445.067 168.534 Q445.882 166.31 446.327 164.272 Q446.808 162.233 447.327 158.898 L449.217 158.898 L446.03 178.466 L402.272 178.466 Z" fill="#000000" fill-rule="evenodd" fill-opacity="1" /><path clip-path="url(#clip820)" d="M452.255 178.466 L452.255 176.132 Q458.183 176.132 461.962 171.573 Q461.962 171.573 469.076 162.53 L461.555 152.745 Q458.887 149.336 457.701 148.743 Q456.553 148.113 452.625 148.113 L452.625 145.741 Q455.738 145.963 459.813 145.963 Q462.073 145.963 468.039 145.741 L468.039 148.113 Q465.371 148.261 465.371 150.003 Q465.371 150.596 466.038 151.374 L471.966 159.046 L476.672 153.116 Q477.82 151.745 477.82 150.448 Q477.82 148.335 475.597 148.113 L475.597 145.741 Q478.561 145.963 482.896 145.963 Q486.157 145.963 489.121 145.741 L489.121 148.113 Q483.341 148.261 480.08 152.041 Q478.635 153.635 473.115 160.64 L483.267 173.76 Q484.49 175.353 485.86 175.761 Q487.231 176.132 490.492 176.132 L490.492 178.466 Q487.083 178.244 483.193 178.244 Q481.822 178.244 475.004 178.466 L475.004 176.132 Q476.375 176.057 477.042 175.464 Q477.746 174.834 477.746 174.204 Q477.746 173.908 476.153 171.721 L470.373 164.123 Q464.593 170.943 463.852 172.537 Q463.555 173.204 463.555 173.76 Q463.555 175.798 465.741 176.132 L465.741 178.466 Q460.295 178.244 458.554 178.244 Q455.219 178.244 452.255 178.466 Z" fill="#000000" fill-rule="evenodd" fill-opacity="1" /><path clip-path="url(#clip820)" d="M494.493 171.239 Q494.493 164.791 502.089 161.381 Q506.646 159.194 516.057 158.638 L516.057 155.859 Q516.057 151.152 513.575 148.669 Q511.13 146.148 508.017 146.148 Q502.459 146.148 499.792 149.632 Q502.052 149.706 502.867 150.855 Q503.682 151.967 503.682 153.116 Q503.682 154.636 502.719 155.636 Q501.793 156.6 500.199 156.6 Q498.68 156.6 497.68 155.673 Q496.679 154.71 496.679 153.042 Q496.679 149.336 500.014 146.89 Q503.386 144.444 508.165 144.444 Q514.39 144.444 518.54 148.632 Q519.837 149.929 520.466 151.597 Q521.133 153.264 521.208 154.376 Q521.282 155.451 521.282 157.601 L521.282 172.759 Q521.282 173.204 521.43 173.945 Q521.578 174.686 522.245 175.65 Q522.949 176.576 524.098 176.576 Q526.839 176.576 526.802 171.721 L526.802 167.459 L528.729 167.459 L528.729 171.721 Q528.729 175.761 526.58 177.355 Q524.468 178.911 522.504 178.911 Q519.985 178.911 518.392 177.058 Q516.798 175.205 516.576 172.685 Q515.427 175.576 512.797 177.466 Q510.203 179.319 506.646 179.319 Q503.904 179.319 501.311 178.615 Q498.754 177.948 496.605 176.057 Q494.493 174.13 494.493 171.239 M500.348 171.165 Q500.348 173.982 502.348 175.798 Q504.349 177.614 507.165 177.614 Q510.351 177.614 513.204 175.168 Q516.057 172.685 516.057 167.83 L516.057 160.232 Q507.647 160.528 503.979 163.901 Q500.348 167.237 500.348 171.165 Z" fill="#000000" fill-rule="evenodd" fill-opacity="1" /><path clip-path="url(#clip820)" d="M536.658 174.315 Q531.841 169.275 531.841 162.085 Q531.841 154.858 536.584 149.669 Q541.326 144.444 548.292 144.444 Q552.924 144.444 556.406 146.667 Q559.889 148.854 559.889 152.597 Q559.889 154.265 558.889 155.229 Q557.925 156.155 556.406 156.155 Q554.813 156.155 553.85 155.192 Q552.924 154.191 552.924 152.671 Q552.924 152.004 553.146 151.337 Q553.368 150.67 554.183 149.966 Q555.035 149.262 556.48 149.15 Q553.776 146.371 548.514 146.371 Q548.44 146.371 548.366 146.371 Q544.513 146.371 541.326 150.003 Q538.14 153.635 538.14 161.937 Q538.14 166.273 539.177 169.46 Q540.252 172.611 541.993 174.241 Q543.735 175.872 545.439 176.65 Q547.144 177.392 548.811 177.392 Q556.258 177.392 558.778 169.423 Q559 168.682 559.741 168.682 Q560.741 168.682 560.741 169.423 Q560.741 169.794 560.445 170.758 Q560.149 171.721 559.222 173.241 Q558.296 174.76 556.962 176.094 Q555.665 177.392 553.331 178.355 Q551.034 179.319 548.144 179.319 Q541.475 179.319 536.658 174.315 Z" fill="#000000" fill-rule="evenodd" fill-opacity="1" /><path clip-path="url(#clip820)" d="M564.372 148.113 L564.372 146.445 Q567.855 146.297 570.152 143.851 Q572.487 141.367 573.265 138.328 Q574.08 135.289 574.154 131.768 L576.044 131.768 L576.044 145.741 L586.9 145.741 L586.9 148.113 L576.044 148.113 L576.044 169.201 Q576.044 177.392 581.157 177.392 Q583.343 177.392 584.788 175.168 Q586.233 172.907 586.233 168.904 L586.233 164.716 L588.122 164.716 L588.122 169.053 Q588.122 173.167 586.233 176.243 Q584.343 179.319 580.601 179.319 Q579.23 179.319 577.859 178.948 Q576.525 178.615 574.747 177.725 Q573.005 176.799 571.894 174.575 Q570.819 172.314 570.819 169.053 L570.819 148.113 L564.372 148.113 Z" fill="#000000" fill-rule="evenodd" fill-opacity="1" /><polyline clip-path="url(#clip820)" style="stroke:#f6cf71; stroke-linecap:round; stroke-linejoin:round; stroke-width:18.0033; stroke-opacity:1; fill:none" stroke-dasharray="72, 45" points="290.849,230.316 386.355,230.316 "/>
<path clip-path="url(#clip820)" d="M402.272 256.241 L402.272 253.906 L404.088 253.906 Q408.201 253.906 409.127 253.239 Q410.09 252.535 410.09 250.311 L410.09 210.321 Q410.09 208.134 409.127 207.467 Q408.164 206.763 404.088 206.763 L402.272 206.763 L402.272 204.391 L430.024 204.391 Q437.249 204.391 442.066 208.283 Q446.882 212.137 446.882 217.215 Q446.882 221.403 443.325 224.738 Q439.805 228.074 434.285 229.149 Q440.584 229.816 444.733 233.633 Q448.92 237.413 448.92 242.343 Q448.92 247.902 444.14 252.09 Q439.361 256.241 432.025 256.241 L402.272 256.241 M416.389 250.867 Q416.389 252.831 416.945 253.387 Q417.501 253.906 420.094 253.906 L429.579 253.906 Q435.026 253.906 438.175 250.348 Q441.325 246.753 441.325 242.268 Q441.325 237.784 438.546 233.967 Q435.804 230.112 430.654 230.112 L416.389 230.112 L416.389 250.867 M416.389 228.444 L427.393 228.444 Q433.247 228.444 436.36 224.923 Q439.509 221.403 439.509 217.215 Q439.509 213.508 436.99 210.136 Q434.507 206.763 429.505 206.763 L420.094 206.763 Q417.501 206.763 416.945 207.282 Q416.389 207.801 416.389 209.802 L416.389 228.444 Z" fill="#000000" fill-rule="evenodd" fill-opacity="1" /><path clip-path="url(#clip820)" d="M455.886 256.241 L455.886 253.906 L457.701 253.906 Q461.814 253.906 462.74 253.239 Q463.704 252.535 463.704 250.311 L463.704 210.321 Q463.704 208.134 462.74 207.467 Q461.777 206.763 457.701 206.763 L455.886 206.763 L455.886 204.391 L482.674 204.391 Q490.344 204.391 495.457 208.616 Q500.57 212.841 500.57 218.512 Q500.57 224.145 495.346 228.222 Q490.158 232.262 483.267 232.262 L470.447 232.262 L470.447 250.311 Q470.447 252.498 471.373 253.202 Q472.337 253.906 476.449 253.906 L478.265 253.906 L478.265 256.241 Q475.597 256.018 467.038 256.018 Q458.554 256.018 455.886 256.241 M470.225 230.297 L480.673 230.297 Q484.082 230.297 486.564 229.334 Q489.047 228.37 490.158 227.221 Q491.307 226.035 491.937 224.145 Q492.604 222.218 492.678 221.18 Q492.752 220.105 492.752 218.512 Q492.752 216.844 492.678 215.806 Q492.604 214.731 491.937 212.841 Q491.307 210.914 490.158 209.765 Q489.047 208.579 486.564 207.69 Q484.119 206.763 480.673 206.763 L473.93 206.763 Q471.336 206.763 470.78 207.282 Q470.225 207.801 470.225 209.802 L470.225 230.297 Z" fill="#000000" fill-rule="evenodd" fill-opacity="1" /><path clip-path="url(#clip820)" d="M500.94 256.241 L500.94 253.906 Q507.684 253.758 509.425 248.791 L525.135 203.428 Q525.431 202.501 525.765 202.205 Q526.098 201.908 526.95 201.908 Q527.395 201.908 527.654 201.982 Q527.951 202.056 528.136 202.316 Q528.321 202.575 528.395 202.723 Q528.47 202.872 528.692 203.428 L545.069 250.867 Q545.661 252.757 546.884 253.35 Q548.107 253.906 551.553 253.906 L552.887 253.906 L552.887 256.241 Q548.107 256.018 542.957 256.018 Q534.768 256.018 532.027 256.241 L532.027 253.906 Q538.325 253.906 538.325 251.608 Q538.325 251.46 538.103 250.533 L534.101 238.933 L515.353 238.933 L511.833 248.865 Q511.685 249.162 511.685 250.014 Q511.685 251.608 513.167 252.757 Q514.649 253.906 517.391 253.906 L517.391 256.241 Q510.092 256.018 508.647 256.018 Q506.165 256.018 500.94 256.241 M516.169 236.598 L533.249 236.598 L524.69 211.915 L516.169 236.598 Z" fill="#000000" fill-rule="evenodd" fill-opacity="1" /><path clip-path="url(#clip820)" d="M560.334 222.774 Q560.334 221.477 562.075 220.624 L572.635 215.621 L561.927 210.618 Q560.334 209.876 560.334 208.579 Q560.334 207.838 560.927 207.171 Q561.557 206.467 562.372 206.467 Q562.964 206.467 564.039 207.282 L573.45 214.101 Q572.301 201.575 572.339 201.204 Q572.339 200.463 572.894 199.907 Q573.45 199.314 574.376 199.314 Q575.117 199.314 575.71 199.87 Q576.34 200.389 576.34 201.204 L575.229 214.101 L583.639 207.875 Q585.603 206.43 586.307 206.467 Q587.159 206.467 587.752 207.134 Q588.345 207.801 588.345 208.579 Q588.345 209.876 586.603 210.692 L576.044 215.695 L586.752 220.735 Q588.345 221.477 588.345 222.774 Q588.345 223.515 587.715 224.219 Q587.122 224.886 586.307 224.886 Q585.862 224.886 585.084 224.442 Q584.936 224.368 583.343 223.182 Q581.75 221.996 579.267 220.18 Q576.822 218.364 575.229 217.215 Q576.377 229.742 576.34 230.112 Q576.34 230.853 575.784 231.446 Q575.229 232.039 574.302 232.039 Q573.561 232.039 572.931 231.52 Q572.339 230.965 572.339 230.112 L573.45 217.215 L562.853 224.886 Q561.705 224.886 561.075 224.33 Q560.482 223.737 560.408 223.404 Q560.334 223.07 560.334 222.774 Z" fill="#000000" fill-rule="evenodd" fill-opacity="1" /><polyline clip-path="url(#clip820)" style="stroke:#f89c74; stroke-linecap:round; stroke-linejoin:round; stroke-width:18.0033; stroke-opacity:1; fill:none" stroke-dasharray="9, 18" points="290.849,308.09 386.355,308.09 "/>
<path clip-path="url(#clip820)" d="M402.272 308.072 Q402.272 296.62 410.09 288.577 Q417.908 280.498 428.653 280.498 Q431.988 280.498 434.952 281.721 Q437.916 282.944 439.287 284.019 Q440.658 285.056 442.621 287.021 L446.438 281.424 Q447.031 280.498 447.623 280.498 Q448.253 280.498 448.364 280.868 Q448.476 281.202 448.476 282.314 L448.476 300.326 Q448.476 301.549 448.327 301.845 Q448.179 302.142 447.253 302.142 Q446.512 302.142 446.327 301.92 Q446.178 301.697 446.03 300.845 Q444.882 292.654 440.324 287.762 Q435.804 282.87 429.505 282.87 Q427.69 282.87 425.652 283.277 Q423.651 283.685 420.724 285.242 Q417.834 286.798 415.574 289.393 Q413.351 291.95 411.72 296.842 Q410.09 301.697 410.09 308.146 Q410.09 314.521 411.72 319.413 Q413.351 324.305 415.574 326.862 Q417.834 329.382 420.724 330.939 Q423.651 332.496 425.689 332.94 Q427.764 333.348 429.579 333.348 Q436.1 333.348 441.102 328.715 Q446.104 324.083 446.586 316.262 Q446.66 315.892 446.66 315.744 Q446.66 315.558 446.734 315.373 Q446.808 315.188 446.993 315.114 Q447.179 315.039 447.475 315.039 Q448.476 315.039 448.476 316.337 Q448.476 323.564 442.918 329.642 Q437.397 335.683 428.653 335.683 Q417.871 335.683 410.053 327.678 Q402.272 319.672 402.272 308.072 Z" fill="#000000" fill-rule="evenodd" fill-opacity="1" /><path clip-path="url(#clip820)" d="M455.293 334.015 L455.293 331.68 L457.109 331.68 Q461.221 331.68 462.148 331.013 Q463.111 330.309 463.111 328.085 L463.111 288.095 Q463.111 285.909 462.148 285.242 Q461.184 284.537 457.109 284.537 L455.293 284.537 L455.293 282.166 Q457.961 282.388 466.52 282.388 Q475.004 282.388 477.672 282.166 L477.672 284.537 L475.857 284.537 Q471.744 284.537 470.78 285.242 Q469.854 285.909 469.854 288.095 L469.854 312.223 L493.604 289.541 Q494.975 288.318 494.975 287.021 Q494.975 286.576 494.753 286.094 Q494.568 285.575 493.678 285.056 Q492.826 284.537 491.455 284.537 L491.455 282.166 Q494.049 282.388 501.126 282.388 Q505.609 282.388 507.573 282.166 L507.573 284.537 Q501.274 284.612 496.791 289.096 L483.119 302.216 L500.644 328.011 Q502.237 330.346 503.793 331.013 Q505.349 331.68 508.61 331.68 L508.61 334.015 Q503.83 333.793 499.903 333.793 Q491.715 333.793 489.047 334.015 L489.047 331.68 Q493.53 331.68 493.53 329.382 Q493.53 328.53 492.381 326.788 L478.635 306.478 L469.854 314.817 L469.854 328.085 Q469.854 330.272 470.78 330.976 Q471.744 331.68 475.857 331.68 L477.672 331.68 L477.672 334.015 Q475.004 333.793 466.445 333.793 Q457.961 333.793 455.293 334.015 Z" fill="#000000" fill-rule="evenodd" fill-opacity="1" /><path clip-path="url(#clip820)" d="M514.168 334.015 L514.168 331.68 Q520.911 331.532 522.653 326.566 L538.362 281.202 Q538.659 280.275 538.992 279.979 Q539.326 279.682 540.178 279.682 Q540.622 279.682 540.882 279.757 Q541.178 279.831 541.364 280.09 Q541.549 280.35 541.623 280.498 Q541.697 280.646 541.919 281.202 L558.296 328.641 Q558.889 330.531 560.112 331.124 Q561.334 331.68 564.78 331.68 L566.114 331.68 L566.114 334.015 Q561.334 333.793 556.184 333.793 Q547.996 333.793 545.254 334.015 L545.254 331.68 Q551.553 331.68 551.553 329.382 Q551.553 329.234 551.33 328.308 L547.329 316.707 L528.581 316.707 L525.061 326.64 Q524.913 326.936 524.913 327.789 Q524.913 329.382 526.395 330.531 Q527.877 331.68 530.619 331.68 L530.619 334.015 Q523.319 333.793 521.874 333.793 Q519.392 333.793 514.168 334.015 M529.396 314.372 L546.477 314.372 L537.918 289.689 L529.396 314.372 Z" fill="#000000" fill-rule="evenodd" fill-opacity="1" /><path clip-path="url(#clip820)" d="M576.229 332.792 Q575.154 331.569 575.154 329.975 Q575.154 328.382 576.192 327.196 Q577.266 325.973 579.193 325.973 Q581.453 325.973 582.75 328.159 Q584.047 330.309 584.047 333.941 Q584.047 337.87 582.454 341.502 Q580.86 345.171 579.304 346.913 Q577.748 348.655 577.118 348.655 Q576.377 348.655 576.377 347.839 Q576.377 347.543 576.896 346.987 Q582.342 341.131 582.379 333.941 Q582.379 332.792 582.231 332.792 L582.046 332.94 Q580.749 334.015 579.193 334.015 Q577.303 334.015 576.229 332.792 Z" fill="#000000" fill-rule="evenodd" fill-opacity="1" /><path clip-path="url(#clip820)" d="M617.134 306.849 Q617.134 306.775 617.282 306.256 Q617.467 305.7 617.949 304.884 Q618.431 304.032 619.06 303.254 Q619.727 302.438 620.876 301.882 Q622.025 301.289 623.358 301.289 Q623.507 301.289 623.729 301.327 Q623.988 301.364 624.062 301.364 L644.7 301.364 Q645.7 301.364 646.071 301.697 Q646.441 301.994 646.441 303.105 L646.441 304.625 Q646.441 305.7 645.997 305.996 Q645.589 306.293 644.7 306.293 L632.621 306.293 L632.621 316.559 Q632.621 329.086 637.957 329.086 Q639.179 329.086 640.439 328.233 Q641.736 327.344 642.032 327.344 Q643.255 327.344 643.255 329.531 Q643.255 331.643 641.736 333.274 Q640.217 334.868 637.957 334.868 Q635.511 334.868 633.918 333.422 Q632.325 331.977 631.658 329.234 Q631.028 326.492 630.88 324.416 Q630.732 322.341 630.732 319.227 L630.732 306.293 L624.952 306.293 Q624.729 306.293 624.322 306.256 Q623.914 306.219 623.692 306.219 Q621.58 306.219 619.801 306.997 Q618.06 307.738 617.986 307.738 Q617.134 307.775 617.134 306.849 Z" fill="#000000" fill-rule="evenodd" fill-opacity="1" /><path clip-path="url(#clip820)" d="M679.158 322.489 Q679.232 321.562 680.677 321.562 L727.177 321.562 Q729.363 321.562 729.4 322.415 Q729.4 323.341 727.325 323.304 L681.196 323.304 Q679.158 323.341 679.158 322.489 M679.158 307.664 Q679.158 306.738 680.751 306.775 L727.102 306.775 Q729.363 306.775 729.4 307.664 Q729.4 308.517 727.473 308.517 L680.677 308.517 Q679.158 308.517 679.158 307.664 Z" fill="#000000" fill-rule="evenodd" fill-opacity="1" /><path clip-path="url(#clip820)" d="M765.821 290.69 L765.821 288.318 Q774.936 288.318 779.641 283.463 Q780.938 283.463 781.16 283.759 Q781.383 284.056 781.383 285.427 L781.383 328.011 Q781.383 330.272 782.494 330.976 Q783.606 331.68 788.46 331.68 L790.868 331.68 L790.868 334.015 Q788.2 333.793 778.567 333.793 Q768.934 333.793 766.303 334.015 L766.303 331.68 L768.711 331.68 Q773.491 331.68 774.639 331.013 Q775.788 330.309 775.788 328.011 L775.788 288.688 Q771.824 290.69 765.821 290.69 Z" fill="#000000" fill-rule="evenodd" fill-opacity="1" /><path clip-path="url(#clip820)" d="M799.983 309.74 Q799.983 298.584 802.799 292.506 Q806.726 283.463 815.989 283.463 Q817.953 283.463 819.99 284.019 Q822.065 284.537 824.659 286.576 Q827.29 288.614 828.883 291.95 Q831.921 298.399 831.921 309.74 Q831.921 320.821 829.105 326.862 Q824.992 335.683 815.915 335.683 Q812.506 335.683 809.023 333.941 Q805.577 332.199 803.391 328.011 Q799.983 321.748 799.983 309.74 M806.281 308.813 Q806.281 320.265 807.096 324.824 Q808.023 329.753 810.542 331.903 Q813.099 334.015 815.915 334.015 Q818.953 334.015 821.472 331.754 Q824.029 329.456 824.807 324.527 Q825.659 319.672 825.622 308.813 Q825.622 298.25 824.881 294.025 Q823.881 289.096 821.213 287.132 Q818.582 285.13 815.915 285.13 Q814.914 285.13 813.84 285.427 Q812.802 285.723 811.283 286.576 Q809.764 287.428 808.579 289.541 Q807.43 291.653 806.874 294.841 Q806.281 298.955 806.281 308.813 Z" fill="#000000" fill-rule="evenodd" fill-opacity="1" /><path clip-path="url(#clip820)" d="M837.923 309.74 Q837.923 298.584 840.739 292.506 Q844.667 283.463 853.93 283.463 Q855.893 283.463 857.931 284.019 Q860.006 284.537 862.6 286.576 Q865.23 288.614 866.823 291.95 Q869.862 298.399 869.862 309.74 Q869.862 320.821 867.046 326.862 Q862.933 335.683 853.855 335.683 Q850.447 335.683 846.964 333.941 Q843.518 332.199 841.332 328.011 Q837.923 321.748 837.923 309.74 M844.222 308.813 Q844.222 320.265 845.037 324.824 Q845.963 329.753 848.483 331.903 Q851.04 334.015 853.855 334.015 Q856.894 334.015 859.413 331.754 Q861.97 329.456 862.748 324.527 Q863.6 319.672 863.563 308.813 Q863.563 298.25 862.822 294.025 Q861.821 289.096 859.154 287.132 Q856.523 285.13 853.855 285.13 Q852.855 285.13 851.781 285.427 Q850.743 285.723 849.224 286.576 Q847.705 287.428 846.519 289.541 Q845.371 291.653 844.815 294.841 Q844.222 298.955 844.222 308.813 Z" fill="#000000" fill-rule="evenodd" fill-opacity="1" /><polyline clip-path="url(#clip820)" style="stroke:#87c55f; stroke-linecap:round; stroke-linejoin:round; stroke-width:18.0033; stroke-opacity:1; fill:none" stroke-dasharray="72, 36, 9, 36" points="290.849,385.865 386.355,385.865 "/>
<path clip-path="url(#clip820)" d="M402.272 385.846 Q402.272 374.394 410.09 366.352 Q417.908 358.272 428.653 358.272 Q431.988 358.272 434.952 359.495 Q437.916 360.718 439.287 361.793 Q440.658 362.831 442.621 364.795 L446.438 359.199 Q447.031 358.272 447.623 358.272 Q448.253 358.272 448.364 358.643 Q448.476 358.976 448.476 360.088 L448.476 378.1 Q448.476 379.323 448.327 379.62 Q448.179 379.916 447.253 379.916 Q446.512 379.916 446.327 379.694 Q446.178 379.471 446.03 378.619 Q444.882 370.428 440.324 365.536 Q435.804 360.644 429.505 360.644 Q427.69 360.644 425.652 361.052 Q423.651 361.459 420.724 363.016 Q417.834 364.573 415.574 367.167 Q413.351 369.724 411.72 374.616 Q410.09 379.471 410.09 385.92 Q410.09 392.295 411.72 397.187 Q413.351 402.079 415.574 404.636 Q417.834 407.157 420.724 408.713 Q423.651 410.27 425.689 410.715 Q427.764 411.122 429.579 411.122 Q436.1 411.122 441.102 406.49 Q446.104 401.857 446.586 394.037 Q446.66 393.666 446.66 393.518 Q446.66 393.333 446.734 393.147 Q446.808 392.962 446.993 392.888 Q447.179 392.814 447.475 392.814 Q448.476 392.814 448.476 394.111 Q448.476 401.338 442.918 407.416 Q437.397 413.457 428.653 413.457 Q417.871 413.457 410.053 405.452 Q402.272 397.446 402.272 385.846 Z" fill="#000000" fill-rule="evenodd" fill-opacity="1" /><path clip-path="url(#clip820)" d="M455.293 411.789 L455.293 409.455 L457.109 409.455 Q461.221 409.455 462.148 408.787 Q463.111 408.083 463.111 405.86 L463.111 365.87 Q463.111 363.683 462.148 363.016 Q461.184 362.312 457.109 362.312 L455.293 362.312 L455.293 359.94 Q457.961 360.162 466.52 360.162 Q475.004 360.162 477.672 359.94 L477.672 362.312 L475.857 362.312 Q471.744 362.312 470.78 363.016 Q469.854 363.683 469.854 365.87 L469.854 389.997 L493.604 367.315 Q494.975 366.092 494.975 364.795 Q494.975 364.35 494.753 363.868 Q494.568 363.35 493.678 362.831 Q492.826 362.312 491.455 362.312 L491.455 359.94 Q494.049 360.162 501.126 360.162 Q505.609 360.162 507.573 359.94 L507.573 362.312 Q501.274 362.386 496.791 366.87 L483.119 379.99 L500.644 405.785 Q502.237 408.12 503.793 408.787 Q505.349 409.455 508.61 409.455 L508.61 411.789 Q503.83 411.567 499.903 411.567 Q491.715 411.567 489.047 411.789 L489.047 409.455 Q493.53 409.455 493.53 407.157 Q493.53 406.304 492.381 404.562 L478.635 384.252 L469.854 392.591 L469.854 405.86 Q469.854 408.046 470.78 408.75 Q471.744 409.455 475.857 409.455 L477.672 409.455 L477.672 411.789 Q475.004 411.567 466.445 411.567 Q457.961 411.567 455.293 411.789 Z" fill="#000000" fill-rule="evenodd" fill-opacity="1" /><path clip-path="url(#clip820)" d="M514.168 411.789 L514.168 409.455 Q520.911 409.306 522.653 404.34 L538.362 358.976 Q538.659 358.05 538.992 357.753 Q539.326 357.457 540.178 357.457 Q540.622 357.457 540.882 357.531 Q541.178 357.605 541.364 357.864 Q541.549 358.124 541.623 358.272 Q541.697 358.42 541.919 358.976 L558.296 406.415 Q558.889 408.306 560.112 408.899 Q561.334 409.455 564.78 409.455 L566.114 409.455 L566.114 411.789 Q561.334 411.567 556.184 411.567 Q547.996 411.567 545.254 411.789 L545.254 409.455 Q551.553 409.455 551.553 407.157 Q551.553 407.008 551.33 406.082 L547.329 394.482 L528.581 394.482 L525.061 404.414 Q524.913 404.711 524.913 405.563 Q524.913 407.157 526.395 408.306 Q527.877 409.455 530.619 409.455 L530.619 411.789 Q523.319 411.567 521.874 411.567 Q519.392 411.567 514.168 411.789 M529.396 392.147 L546.477 392.147 L537.918 367.463 L529.396 392.147 Z" fill="#000000" fill-rule="evenodd" fill-opacity="1" /><path clip-path="url(#clip820)" d="M576.229 410.566 Q575.154 409.343 575.154 407.75 Q575.154 406.156 576.192 404.97 Q577.266 403.747 579.193 403.747 Q581.453 403.747 582.75 405.934 Q584.047 408.083 584.047 411.715 Q584.047 415.644 582.454 419.276 Q580.86 422.945 579.304 424.687 Q577.748 426.429 577.118 426.429 Q576.377 426.429 576.377 425.613 Q576.377 425.317 576.896 424.761 Q582.342 418.905 582.379 411.715 Q582.379 410.566 582.231 410.566 L582.046 410.715 Q580.749 411.789 579.193 411.789 Q577.303 411.789 576.229 410.566 Z" fill="#000000" fill-rule="evenodd" fill-opacity="1" /><path clip-path="url(#clip820)" d="M617.134 384.623 Q617.134 384.549 617.282 384.03 Q617.467 383.474 617.949 382.659 Q618.431 381.806 619.06 381.028 Q619.727 380.213 620.876 379.657 Q622.025 379.064 623.358 379.064 Q623.507 379.064 623.729 379.101 Q623.988 379.138 624.062 379.138 L644.7 379.138 Q645.7 379.138 646.071 379.471 Q646.441 379.768 646.441 380.88 L646.441 382.399 Q646.441 383.474 645.997 383.771 Q645.589 384.067 644.7 384.067 L632.621 384.067 L632.621 394.333 Q632.621 406.86 637.957 406.86 Q639.179 406.86 640.439 406.008 Q641.736 405.118 642.032 405.118 Q643.255 405.118 643.255 407.305 Q643.255 409.417 641.736 411.048 Q640.217 412.642 637.957 412.642 Q635.511 412.642 633.918 411.196 Q632.325 409.751 631.658 407.008 Q631.028 404.266 630.88 402.19 Q630.732 400.115 630.732 397.002 L630.732 384.067 L624.952 384.067 Q624.729 384.067 624.322 384.03 Q623.914 383.993 623.692 383.993 Q621.58 383.993 619.801 384.771 Q618.06 385.513 617.986 385.513 Q617.134 385.55 617.134 384.623 Z" fill="#000000" fill-rule="evenodd" fill-opacity="1" /><path clip-path="url(#clip820)" d="M679.158 400.263 Q679.232 399.337 680.677 399.337 L727.177 399.337 Q729.363 399.337 729.4 400.189 Q729.4 401.116 727.325 401.079 L681.196 401.079 Q679.158 401.116 679.158 400.263 M679.158 385.438 Q679.158 384.512 680.751 384.549 L727.102 384.549 Q729.363 384.549 729.4 385.438 Q729.4 386.291 727.473 386.291 L680.677 386.291 Q679.158 386.291 679.158 385.438 Z" fill="#000000" fill-rule="evenodd" fill-opacity="1" /><path clip-path="url(#clip820)" d="M765.821 368.464 L765.821 366.092 Q774.936 366.092 779.641 361.237 Q780.938 361.237 781.16 361.534 Q781.383 361.83 781.383 363.201 L781.383 405.785 Q781.383 408.046 782.494 408.75 Q783.606 409.455 788.46 409.455 L790.868 409.455 L790.868 411.789 Q788.2 411.567 778.567 411.567 Q768.934 411.567 766.303 411.789 L766.303 409.455 L768.711 409.455 Q773.491 409.455 774.639 408.787 Q775.788 408.083 775.788 405.785 L775.788 366.463 Q771.824 368.464 765.821 368.464 Z" fill="#000000" fill-rule="evenodd" fill-opacity="1" /><path clip-path="url(#clip820)" d="M799.983 387.514 Q799.983 376.358 802.799 370.28 Q806.726 361.237 815.989 361.237 Q817.953 361.237 819.99 361.793 Q822.065 362.312 824.659 364.35 Q827.29 366.389 828.883 369.724 Q831.921 376.173 831.921 387.514 Q831.921 398.595 829.105 404.636 Q824.992 413.457 815.915 413.457 Q812.506 413.457 809.023 411.715 Q805.577 409.973 803.391 405.785 Q799.983 399.522 799.983 387.514 M806.281 386.587 Q806.281 398.039 807.096 402.598 Q808.023 407.527 810.542 409.677 Q813.099 411.789 815.915 411.789 Q818.953 411.789 821.472 409.529 Q824.029 407.231 824.807 402.302 Q825.659 397.446 825.622 386.587 Q825.622 376.025 824.881 371.8 Q823.881 366.87 821.213 364.906 Q818.582 362.905 815.915 362.905 Q814.914 362.905 813.84 363.201 Q812.802 363.498 811.283 364.35 Q809.764 365.203 808.579 367.315 Q807.43 369.428 806.874 372.615 Q806.281 376.729 806.281 386.587 Z" fill="#000000" fill-rule="evenodd" fill-opacity="1" /><path clip-path="url(#clip820)" d="M837.923 387.514 Q837.923 376.358 840.739 370.28 Q844.667 361.237 853.93 361.237 Q855.893 361.237 857.931 361.793 Q860.006 362.312 862.6 364.35 Q865.23 366.389 866.823 369.724 Q869.862 376.173 869.862 387.514 Q869.862 398.595 867.046 404.636 Q862.933 413.457 853.855 413.457 Q850.447 413.457 846.964 411.715 Q843.518 409.973 841.332 405.785 Q837.923 399.522 837.923 387.514 M844.222 386.587 Q844.222 398.039 845.037 402.598 Q845.963 407.527 848.483 409.677 Q851.04 411.789 853.855 411.789 Q856.894 411.789 859.413 409.529 Q861.97 407.231 862.748 402.302 Q863.6 397.446 863.563 386.587 Q863.563 376.025 862.822 371.8 Q861.821 366.87 859.154 364.906 Q856.523 362.905 853.855 362.905 Q852.855 362.905 851.781 363.201 Q850.743 363.498 849.224 364.35 Q847.705 365.203 846.519 367.315 Q845.371 369.428 844.815 372.615 Q844.222 376.729 844.222 386.587 Z" fill="#000000" fill-rule="evenodd" fill-opacity="1" /><path clip-path="url(#clip820)" d="M875.864 387.514 Q875.864 376.358 878.68 370.28 Q882.607 361.237 891.87 361.237 Q893.834 361.237 895.872 361.793 Q897.947 362.312 900.54 364.35 Q903.171 366.389 904.764 369.724 Q907.802 376.173 907.802 387.514 Q907.802 398.595 904.986 404.636 Q900.874 413.457 891.796 413.457 Q888.387 413.457 884.905 411.715 Q881.459 409.973 879.273 405.785 Q875.864 399.522 875.864 387.514 M882.163 386.587 Q882.163 398.039 882.978 402.598 Q883.904 407.527 886.424 409.677 Q888.98 411.789 891.796 411.789 Q894.834 411.789 897.354 409.529 Q899.91 407.231 900.688 402.302 Q901.541 397.446 901.504 386.587 Q901.504 376.025 900.763 371.8 Q899.762 366.87 897.094 364.906 Q894.464 362.905 891.796 362.905 Q890.796 362.905 889.721 363.201 Q888.684 363.498 887.165 364.35 Q885.646 365.203 884.46 367.315 Q883.311 369.428 882.756 372.615 Q882.163 376.729 882.163 386.587 Z" fill="#000000" fill-rule="evenodd" fill-opacity="1" /><polyline clip-path="url(#clip820)" style="stroke:#dcb0f2; stroke-linecap:round; stroke-linejoin:round; stroke-width:18.0033; stroke-opacity:1; fill:none" points="290.849,463.639 386.355,463.639 "/>
<path clip-path="url(#clip820)" d="M402.272 463.62 Q402.272 452.168 410.09 444.126 Q417.908 436.046 428.653 436.046 Q431.988 436.046 434.952 437.269 Q437.916 438.492 439.287 439.567 Q440.658 440.605 442.621 442.569 L446.438 436.973 Q447.031 436.046 447.623 436.046 Q448.253 436.046 448.364 436.417 Q448.476 436.751 448.476 437.862 L448.476 455.875 Q448.476 457.098 448.327 457.394 Q448.179 457.691 447.253 457.691 Q446.512 457.691 446.327 457.468 Q446.178 457.246 446.03 456.393 Q444.882 448.203 440.324 443.311 Q435.804 438.418 429.505 438.418 Q427.69 438.418 425.652 438.826 Q423.651 439.234 420.724 440.79 Q417.834 442.347 415.574 444.941 Q413.351 447.499 411.72 452.391 Q410.09 457.246 410.09 463.695 Q410.09 470.069 411.72 474.961 Q413.351 479.854 415.574 482.411 Q417.834 484.931 420.724 486.488 Q423.651 488.044 425.689 488.489 Q427.764 488.897 429.579 488.897 Q436.1 488.897 441.102 484.264 Q446.104 479.631 446.586 471.811 Q446.66 471.44 446.66 471.292 Q446.66 471.107 446.734 470.922 Q446.808 470.736 446.993 470.662 Q447.179 470.588 447.475 470.588 Q448.476 470.588 448.476 471.885 Q448.476 479.112 442.918 485.19 Q437.397 491.232 428.653 491.232 Q417.871 491.232 410.053 483.226 Q402.272 475.221 402.272 463.62 Z" fill="#000000" fill-rule="evenodd" fill-opacity="1" /><path clip-path="url(#clip820)" d="M455.293 489.564 L455.293 487.229 L457.109 487.229 Q461.221 487.229 462.148 486.562 Q463.111 485.858 463.111 483.634 L463.111 443.644 Q463.111 441.457 462.148 440.79 Q461.184 440.086 457.109 440.086 L455.293 440.086 L455.293 437.714 Q457.961 437.937 466.52 437.937 Q475.004 437.937 477.672 437.714 L477.672 440.086 L475.857 440.086 Q471.744 440.086 470.78 440.79 Q469.854 441.457 469.854 443.644 L469.854 467.771 L493.604 445.09 Q494.975 443.866 494.975 442.569 Q494.975 442.125 494.753 441.643 Q494.568 441.124 493.678 440.605 Q492.826 440.086 491.455 440.086 L491.455 437.714 Q494.049 437.937 501.126 437.937 Q505.609 437.937 507.573 437.714 L507.573 440.086 Q501.274 440.16 496.791 444.645 L483.119 457.765 L500.644 483.56 Q502.237 485.895 503.793 486.562 Q505.349 487.229 508.61 487.229 L508.61 489.564 Q503.83 489.341 499.903 489.341 Q491.715 489.341 489.047 489.564 L489.047 487.229 Q493.53 487.229 493.53 484.931 Q493.53 484.079 492.381 482.337 L478.635 462.027 L469.854 470.366 L469.854 483.634 Q469.854 485.82 470.78 486.525 Q471.744 487.229 475.857 487.229 L477.672 487.229 L477.672 489.564 Q475.004 489.341 466.445 489.341 Q457.961 489.341 455.293 489.564 Z" fill="#000000" fill-rule="evenodd" fill-opacity="1" /><path clip-path="url(#clip820)" d="M514.168 489.564 L514.168 487.229 Q520.911 487.081 522.653 482.114 L538.362 436.751 Q538.659 435.824 538.992 435.528 Q539.326 435.231 540.178 435.231 Q540.622 435.231 540.882 435.305 Q541.178 435.379 541.364 435.639 Q541.549 435.898 541.623 436.046 Q541.697 436.195 541.919 436.751 L558.296 484.19 Q558.889 486.08 560.112 486.673 Q561.334 487.229 564.78 487.229 L566.114 487.229 L566.114 489.564 Q561.334 489.341 556.184 489.341 Q547.996 489.341 545.254 489.564 L545.254 487.229 Q551.553 487.229 551.553 484.931 Q551.553 484.783 551.33 483.856 L547.329 472.256 L528.581 472.256 L525.061 482.188 Q524.913 482.485 524.913 483.337 Q524.913 484.931 526.395 486.08 Q527.877 487.229 530.619 487.229 L530.619 489.564 Q523.319 489.341 521.874 489.341 Q519.392 489.341 514.168 489.564 M529.396 469.921 L546.477 469.921 L537.918 445.238 L529.396 469.921 Z" fill="#000000" fill-rule="evenodd" fill-opacity="1" /><path clip-path="url(#clip820)" d="M576.229 488.341 Q575.154 487.118 575.154 485.524 Q575.154 483.93 576.192 482.744 Q577.266 481.521 579.193 481.521 Q581.453 481.521 582.75 483.708 Q584.047 485.858 584.047 489.49 Q584.047 493.418 582.454 497.05 Q580.86 500.719 579.304 502.461 Q577.748 504.203 577.118 504.203 Q576.377 504.203 576.377 503.388 Q576.377 503.091 576.896 502.535 Q582.342 496.68 582.379 489.49 Q582.379 488.341 582.231 488.341 L582.046 488.489 Q580.749 489.564 579.193 489.564 Q577.303 489.564 576.229 488.341 Z" fill="#000000" fill-rule="evenodd" fill-opacity="1" /><path clip-path="url(#clip820)" d="M617.319 489.564 L617.319 487.229 Q621.358 487.229 622.284 486.747 Q623.21 486.228 623.21 483.782 L623.21 463.435 Q623.21 460.618 622.21 459.914 Q621.246 459.21 617.319 459.21 L617.319 456.838 L627.99 456.023 L627.99 463.991 Q631.547 456.023 639.216 456.023 Q644.922 456.023 647.182 458.839 Q648.85 460.73 649.183 462.842 Q649.554 464.955 649.554 470.44 L649.554 484.931 Q649.628 486.525 650.851 486.895 Q652.073 487.229 655.482 487.229 L655.482 489.564 Q647.738 489.341 646.96 489.341 Q646.367 489.341 638.401 489.564 L638.401 487.229 Q642.44 487.229 643.366 486.747 Q644.329 486.228 644.329 483.782 L644.329 466.104 Q644.329 462.249 643.144 459.988 Q641.958 457.691 638.698 457.691 Q634.77 457.691 631.621 460.989 Q628.471 464.288 628.471 469.847 L628.471 483.782 Q628.471 486.228 629.398 486.747 Q630.361 487.229 634.363 487.229 L634.363 489.564 Q626.619 489.341 625.878 489.341 Q625.285 489.341 617.319 489.564 Z" fill="#000000" fill-rule="evenodd" fill-opacity="1" /><path clip-path="url(#clip820)" d="M664.078 485.487 Q659.076 480.521 659.076 473.331 Q659.076 466.104 663.967 460.841 Q668.895 455.541 675.934 455.541 Q682.826 455.541 687.754 460.804 Q692.719 466.029 692.719 473.331 Q692.719 480.484 687.717 485.45 Q682.752 490.416 675.86 490.416 Q669.117 490.416 664.078 485.487 M665.375 472.701 Q665.375 480.076 667.301 483.411 Q670.265 488.489 675.934 488.489 Q678.75 488.489 681.085 486.969 Q683.456 485.45 684.753 482.893 Q686.42 479.557 686.42 472.701 Q686.42 465.399 684.419 462.175 Q681.455 457.246 675.86 457.246 Q673.415 457.246 671.007 458.543 Q668.635 459.803 667.19 462.323 Q665.375 465.659 665.375 472.701 Z" fill="#000000" fill-rule="evenodd" fill-opacity="1" /><path clip-path="url(#clip820)" d="M721.582 459.21 L721.582 457.542 Q725.065 457.394 727.362 454.948 Q729.696 452.465 730.474 449.426 Q731.289 446.387 731.363 442.866 L733.253 442.866 L733.253 456.838 L744.109 456.838 L744.109 459.21 L733.253 459.21 L733.253 480.298 Q733.253 488.489 738.366 488.489 Q740.552 488.489 741.997 486.265 Q743.442 484.004 743.442 480.002 L743.442 475.814 L745.332 475.814 L745.332 480.15 Q745.332 484.264 743.442 487.34 Q741.552 490.416 737.81 490.416 Q736.439 490.416 735.068 490.046 Q733.735 489.712 731.956 488.823 Q730.215 487.896 729.103 485.672 Q728.029 483.411 728.029 480.15 L728.029 459.21 L721.582 459.21 Z" fill="#000000" fill-rule="evenodd" fill-opacity="1" /><path clip-path="url(#clip820)" d="M752.001 489.564 L752.001 487.229 Q756.04 487.229 756.966 486.747 Q757.892 486.228 757.892 483.782 L757.892 444.311 Q757.892 441.495 756.892 440.79 Q755.928 440.086 752.001 440.086 L752.001 437.714 L762.894 436.899 L762.894 463.287 L762.968 463.287 Q764.191 460.544 766.933 458.284 Q769.675 456.023 773.898 456.023 Q779.604 456.023 781.864 458.839 Q783.532 460.73 783.865 462.842 Q784.236 464.955 784.236 470.44 L784.236 484.931 Q784.31 486.525 785.533 486.895 Q786.755 487.229 790.164 487.229 L790.164 489.564 Q782.42 489.341 781.642 489.341 Q781.049 489.341 773.083 489.564 L773.083 487.229 Q777.122 487.229 778.048 486.747 Q779.011 486.228 779.011 483.782 L779.011 466.104 Q779.011 462.249 777.826 459.988 Q776.64 457.691 773.38 457.691 Q769.452 457.691 766.303 460.989 Q763.153 464.288 763.153 469.847 L763.153 483.782 Q763.153 486.228 764.08 486.747 Q765.043 487.229 769.045 487.229 L769.045 489.564 Q761.301 489.341 760.56 489.341 Q759.967 489.341 752.001 489.564 Z" fill="#000000" fill-rule="evenodd" fill-opacity="1" /><path clip-path="url(#clip820)" d="M793.758 489.564 L793.758 487.229 Q797.797 487.229 798.723 486.747 Q799.686 486.228 799.686 483.782 L799.686 463.435 Q799.686 460.618 798.686 459.914 Q797.722 459.21 793.758 459.21 L793.758 456.838 L804.318 456.023 L804.318 464.362 Q805.392 461.1 807.652 458.58 Q809.949 456.023 813.655 456.023 Q816.1 456.023 817.656 457.394 Q819.249 458.765 819.249 460.655 Q819.249 462.323 818.212 463.176 Q817.212 463.991 815.989 463.991 Q814.618 463.991 813.655 463.139 Q812.728 462.249 812.728 460.73 Q812.728 459.803 813.136 459.099 Q813.58 458.358 813.914 458.098 Q814.247 457.839 814.47 457.765 Q814.322 457.691 813.655 457.691 Q809.468 457.691 807.059 461.879 Q804.688 466.029 804.688 471.959 L804.688 483.634 Q804.688 485.82 805.577 486.525 Q806.504 487.229 810.468 487.229 L812.061 487.229 L812.061 489.564 Q809.023 489.341 802.428 489.341 Q801.502 489.341 800.057 489.378 Q798.612 489.415 796.722 489.49 Q794.832 489.564 793.758 489.564 Z" fill="#000000" fill-rule="evenodd" fill-opacity="1" /><path clip-path="url(#clip820)" d="M823.399 472.849 Q823.399 465.696 827.994 460.618 Q832.588 455.541 839.183 455.541 Q845.852 455.541 849.298 459.877 Q852.781 464.213 852.781 470.44 Q852.781 471.589 852.485 471.811 Q852.188 472.033 850.891 472.033 L829.698 472.033 Q829.698 479.779 831.995 483.411 Q835.181 488.489 840.554 488.489 Q841.295 488.489 842.184 488.341 Q843.073 488.192 844.889 487.562 Q846.704 486.895 848.298 485.153 Q849.891 483.411 850.817 480.669 Q851.04 479.594 851.781 479.631 Q852.781 479.631 852.781 480.521 Q852.781 481.188 852.04 482.707 Q851.336 484.19 849.965 485.969 Q848.594 487.748 845.926 489.082 Q843.296 490.416 840.109 490.416 Q833.44 490.416 828.401 485.376 Q823.399 480.298 823.399 472.849 M829.772 470.44 L847.779 470.44 Q847.779 468.846 847.483 467.067 Q847.223 465.288 846.408 462.842 Q845.63 460.359 843.777 458.802 Q841.925 457.246 839.183 457.246 Q837.96 457.246 836.626 457.765 Q835.33 458.284 833.736 459.544 Q832.143 460.804 831.032 463.657 Q829.92 466.511 829.772 470.44 Z" fill="#000000" fill-rule="evenodd" fill-opacity="1" /><path clip-path="url(#clip820)" d="M857.486 488.563 L857.486 478.556 Q857.486 477.704 857.524 477.407 Q857.561 477.111 857.783 476.889 Q858.005 476.666 858.45 476.666 Q858.969 476.666 859.154 476.889 Q859.376 477.111 859.524 477.963 Q860.673 483.189 863.118 485.969 Q865.601 488.711 870.084 488.711 Q874.345 488.711 876.494 486.821 Q878.643 484.931 878.643 481.818 Q878.643 476.259 870.751 474.85 Q866.194 473.924 864.304 473.331 Q862.414 472.701 860.747 471.329 Q857.486 468.661 857.486 464.881 Q857.486 461.1 860.339 458.321 Q863.229 455.541 869.602 455.541 Q873.863 455.541 876.753 457.691 Q877.605 457.023 878.05 456.467 Q879.05 455.541 879.569 455.541 Q880.162 455.541 880.273 455.949 Q880.384 456.319 880.384 457.394 L880.384 465.029 Q880.384 465.881 880.347 466.178 Q880.31 466.474 880.088 466.697 Q879.866 466.882 879.384 466.882 Q878.532 466.882 878.495 466.178 Q877.902 456.986 869.602 456.986 Q865.119 456.986 863.118 458.728 Q861.118 460.433 861.118 462.768 Q861.118 464.065 861.71 465.066 Q862.34 466.029 863.118 466.622 Q863.933 467.178 865.415 467.734 Q866.898 468.253 867.787 468.438 Q868.713 468.624 870.454 468.994 Q876.531 470.143 879.087 472.626 Q882.274 475.814 882.274 479.854 Q882.274 484.338 879.236 487.377 Q876.197 490.416 870.084 490.416 Q865.156 490.416 861.71 487.118 Q861.266 487.562 860.932 487.97 Q860.599 488.341 860.451 488.489 Q860.339 488.637 860.302 488.748 Q860.265 488.823 860.191 488.897 Q858.672 490.416 858.302 490.416 Q857.709 490.416 857.598 490.008 Q857.486 489.638 857.486 488.563 Z" fill="#000000" fill-rule="evenodd" fill-opacity="1" /><path clip-path="url(#clip820)" d="M887.276 489.564 L887.276 487.229 Q891.314 487.229 892.241 486.747 Q893.167 486.228 893.167 483.782 L893.167 444.311 Q893.167 441.495 892.167 440.79 Q891.203 440.086 887.276 440.086 L887.276 437.714 L898.169 436.899 L898.169 463.287 L898.243 463.287 Q899.466 460.544 902.208 458.284 Q904.949 456.023 909.173 456.023 Q914.879 456.023 917.139 458.839 Q918.807 460.73 919.14 462.842 Q919.511 464.955 919.511 470.44 L919.511 484.931 Q919.585 486.525 920.807 486.895 Q922.03 487.229 925.439 487.229 L925.439 489.564 Q917.695 489.341 916.917 489.341 Q916.324 489.341 908.358 489.564 L908.358 487.229 Q912.397 487.229 913.323 486.747 Q914.286 486.228 914.286 483.782 L914.286 466.104 Q914.286 462.249 913.101 459.988 Q911.915 457.691 908.655 457.691 Q904.727 457.691 901.578 460.989 Q898.428 464.288 898.428 469.847 L898.428 483.782 Q898.428 486.228 899.355 486.747 Q900.318 487.229 904.319 487.229 L904.319 489.564 Q896.576 489.341 895.835 489.341 Q895.242 489.341 887.276 489.564 Z" fill="#000000" fill-rule="evenodd" fill-opacity="1" /><path clip-path="url(#clip820)" d="M934.035 485.487 Q929.033 480.521 929.033 473.331 Q929.033 466.104 933.924 460.841 Q938.851 455.541 945.891 455.541 Q952.783 455.541 957.711 460.804 Q962.676 466.029 962.676 473.331 Q962.676 480.484 957.674 485.45 Q952.709 490.416 945.817 490.416 Q939.074 490.416 934.035 485.487 M935.332 472.701 Q935.332 480.076 937.258 483.411 Q940.222 488.489 945.891 488.489 Q948.707 488.489 951.041 486.969 Q953.413 485.45 954.709 482.893 Q956.377 479.557 956.377 472.701 Q956.377 465.399 954.376 462.175 Q951.412 457.246 945.817 457.246 Q943.372 457.246 940.963 458.543 Q938.592 459.803 937.147 462.323 Q935.332 465.659 935.332 472.701 Z" fill="#000000" fill-rule="evenodd" fill-opacity="1" /><path clip-path="url(#clip820)" d="M967.381 489.564 L967.381 487.229 Q971.42 487.229 972.346 486.747 Q973.272 486.228 973.272 483.782 L973.272 444.311 Q973.272 441.495 972.272 440.79 Q971.309 440.086 967.381 440.086 L967.381 437.714 L978.274 436.899 L978.274 483.782 Q978.274 486.228 979.238 486.747 Q980.201 487.229 984.202 487.229 L984.202 489.564 Q983.276 489.564 981.349 489.49 Q979.423 489.415 978.015 489.378 Q976.607 489.341 975.792 489.341 Q974.903 489.341 967.381 489.564 Z" fill="#000000" fill-rule="evenodd" fill-opacity="1" /><path clip-path="url(#clip820)" d="M988.463 473.257 Q988.463 466.029 993.502 461.026 Q998.541 456.023 1005.36 456.023 Q1011.14 456.023 1014.92 460.73 L1014.92 444.311 Q1014.92 441.495 1013.92 440.79 Q1012.95 440.086 1009.03 440.086 L1009.03 437.714 L1019.96 436.899 L1019.96 482.967 Q1019.96 485.783 1020.92 486.525 Q1021.92 487.229 1025.85 487.229 L1025.85 489.564 L1014.7 490.416 L1014.7 485.376 Q1010.77 490.379 1004.54 490.416 Q998.023 490.416 993.243 485.413 Q988.463 480.409 988.463 473.257 M994.762 473.331 Q994.762 480.372 996.948 483.856 Q999.986 488.711 1004.91 488.711 Q1010.55 488.711 1013.88 483.411 Q1014.73 482.114 1014.7 480.595 L1014.7 465.029 Q1014.7 463.509 1013.88 462.249 Q1010.77 457.691 1005.69 457.691 Q1000.39 457.691 997.096 462.546 Q994.762 466.178 994.762 473.331 Z" fill="#000000" fill-rule="evenodd" fill-opacity="1" /></svg>
