<?xml version="1.0" encoding="utf-8"?>
<svg xmlns="http://www.w3.org/2000/svg" xmlns:xlink="http://www.w3.org/1999/xlink" width="426.75" height="263.5" viewBox="0 0 1707 1054">
<defs>
  <clipPath id="clip210">
    <rect x="0" y="0" width="1707" height="1054"/>
  </clipPath>
</defs>
<path clip-path="url(#clip210)" d="M0 1054 L1707 1054 L1707 0 L0 0  Z" fill="#ffffff" fill-rule="evenodd" fill-opacity="1"/>
<defs>
  <clipPath id="clip211">
    <rect x="341" y="0" width="1196" height="1054"/>
  </clipPath>
</defs>
<path clip-path="url(#clip210)" d="M242.285 888.691 L1659.76 888.691 L1659.76 47.2528 L242.285 47.2528  Z" fill="#ffffff" fill-rule="evenodd" fill-opacity="1"/>
<defs>
  <clipPath id="clip212">
    <rect x="242" y="47" width="1418" height="842"/>
  </clipPath>
</defs>
<polyline clip-path="url(#clip212)" style="stroke:#000000; stroke-linecap:round; stroke-linejoin:round; stroke-width:2.00037; stroke-opacity:0.1; fill:none" points="248.114,888.691 248.114,47.2528 "/>
<polyline clip-path="url(#clip212)" style="stroke:#000000; stroke-linecap:round; stroke-linejoin:round; stroke-width:2.00037; stroke-opacity:0.1; fill:none" points="590.996,888.691 590.996,47.2528 "/>
<polyline clip-path="url(#clip212)" style="stroke:#000000; stroke-linecap:round; stroke-linejoin:round; stroke-width:2.00037; stroke-opacity:0.1; fill:none" points="933.878,888.691 933.878,47.2528 "/>
<polyline clip-path="url(#clip212)" style="stroke:#000000; stroke-linecap:round; stroke-linejoin:round; stroke-width:2.00037; stroke-opacity:0.1; fill:none" points="1276.76,888.691 1276.76,47.2528 "/>
<polyline clip-path="url(#clip212)" style="stroke:#000000; stroke-linecap:round; stroke-linejoin:round; stroke-width:2.00037; stroke-opacity:0.1; fill:none" points="1619.64,888.691 1619.64,47.2528 "/>
<polyline clip-path="url(#clip210)" style="stroke:#000000; stroke-linecap:round; stroke-linejoin:round; stroke-width:4.00074; stroke-opacity:1; fill:none" points="242.285,888.691 1659.76,888.691 "/>
<polyline clip-path="url(#clip210)" style="stroke:#000000; stroke-linecap:round; stroke-linejoin:round; stroke-width:4.00074; stroke-opacity:1; fill:none" points="242.285,47.2528 1659.76,47.2528 "/>
<polyline clip-path="url(#clip210)" style="stroke:#000000; stroke-linecap:round; stroke-linejoin:round; stroke-width:4.00074; stroke-opacity:1; fill:none" points="248.114,888.691 248.114,869.79 "/>
<polyline clip-path="url(#clip210)" style="stroke:#000000; stroke-linecap:round; stroke-linejoin:round; stroke-width:4.00074; stroke-opacity:1; fill:none" points="590.996,888.691 590.996,869.79 "/>
<polyline clip-path="url(#clip210)" style="stroke:#000000; stroke-linecap:round; stroke-linejoin:round; stroke-width:4.00074; stroke-opacity:1; fill:none" points="933.878,888.691 933.878,869.79 "/>
<polyline clip-path="url(#clip210)" style="stroke:#000000; stroke-linecap:round; stroke-linejoin:round; stroke-width:4.00074; stroke-opacity:1; fill:none" points="1276.76,888.691 1276.76,869.79 "/>
<polyline clip-path="url(#clip210)" style="stroke:#000000; stroke-linecap:round; stroke-linejoin:round; stroke-width:4.00074; stroke-opacity:1; fill:none" points="1619.64,888.691 1619.64,869.79 "/>
<path clip-path="url(#clip210)" d="M214.003 932.753 Q214.003 924.387 216.115 919.828 Q219.061 913.046 226.008 913.046 Q227.48 913.046 229.009 913.463 Q230.565 913.852 232.51 915.381 Q234.483 916.91 235.678 919.411 Q237.957 924.248 237.957 932.753 Q237.957 941.065 235.845 945.595 Q232.76 952.211 225.952 952.211 Q223.396 952.211 220.783 950.905 Q218.199 949.598 216.56 946.457 Q214.003 941.76 214.003 932.753 M218.727 932.059 Q218.727 940.648 219.338 944.067 Q220.033 947.764 221.923 949.376 Q223.84 950.96 225.952 950.96 Q228.231 950.96 230.12 949.265 Q232.038 947.541 232.621 943.844 Q233.261 940.203 233.233 932.059 Q233.233 924.137 232.677 920.968 Q231.927 917.271 229.926 915.798 Q227.953 914.297 225.952 914.297 Q225.202 914.297 224.396 914.519 Q223.618 914.741 222.479 915.381 Q221.339 916.02 220.45 917.604 Q219.589 919.189 219.172 921.579 Q218.727 924.665 218.727 932.059 Z" fill="#000000" fill-rule="evenodd" fill-opacity="1" /><path clip-path="url(#clip210)" d="M245.932 950.043 Q245.071 949.126 245.071 947.93 Q245.071 946.735 245.932 945.873 Q246.794 944.984 248.1 944.984 Q249.35 944.984 250.184 945.818 Q251.045 946.624 251.045 947.958 Q251.045 949.265 250.128 950.126 Q249.239 950.96 248.1 950.96 Q246.794 950.96 245.932 950.043 Z" fill="#000000" fill-rule="evenodd" fill-opacity="1" /><path clip-path="url(#clip210)" d="M258.27 932.753 Q258.27 924.387 260.382 919.828 Q263.328 913.046 270.275 913.046 Q271.748 913.046 273.276 913.463 Q274.832 913.852 276.777 915.381 Q278.75 916.91 279.945 919.411 Q282.224 924.248 282.224 932.753 Q282.224 941.065 280.112 945.595 Q277.028 952.211 270.219 952.211 Q267.663 952.211 265.051 950.905 Q262.466 949.598 260.827 946.457 Q258.27 941.76 258.27 932.753 M262.994 932.059 Q262.994 940.648 263.606 944.067 Q264.3 947.764 266.19 949.376 Q268.107 950.96 270.219 950.96 Q272.498 950.96 274.388 949.265 Q276.305 947.541 276.889 943.844 Q277.528 940.203 277.5 932.059 Q277.5 924.137 276.944 920.968 Q276.194 917.271 274.193 915.798 Q272.22 914.297 270.219 914.297 Q269.469 914.297 268.663 914.519 Q267.885 914.741 266.746 915.381 Q265.606 916.02 264.717 917.604 Q263.856 919.189 263.439 921.579 Q262.994 924.665 262.994 932.059 Z" fill="#000000" fill-rule="evenodd" fill-opacity="1" /><path clip-path="url(#clip210)" d="M557.191 932.753 Q557.191 924.387 559.303 919.828 Q562.249 913.046 569.196 913.046 Q570.669 913.046 572.197 913.463 Q573.753 913.852 575.698 915.381 Q577.671 916.91 578.866 919.411 Q581.145 924.248 581.145 932.753 Q581.145 941.065 579.033 945.595 Q575.948 952.211 569.14 952.211 Q566.584 952.211 563.972 950.905 Q561.387 949.598 559.748 946.457 Q557.191 941.76 557.191 932.753 M561.915 932.059 Q561.915 940.648 562.527 944.067 Q563.221 947.764 565.111 949.376 Q567.028 950.96 569.14 950.96 Q571.419 950.96 573.309 949.265 Q575.226 947.541 575.809 943.844 Q576.449 940.203 576.421 932.059 Q576.421 924.137 575.865 920.968 Q575.115 917.271 573.114 915.798 Q571.141 914.297 569.14 914.297 Q568.39 914.297 567.584 914.519 Q566.806 914.741 565.667 915.381 Q564.527 916.02 563.638 917.604 Q562.777 919.189 562.36 921.579 Q561.915 924.665 561.915 932.059 Z" fill="#000000" fill-rule="evenodd" fill-opacity="1" /><path clip-path="url(#clip210)" d="M589.12 950.043 Q588.259 949.126 588.259 947.93 Q588.259 946.735 589.12 945.873 Q589.982 944.984 591.288 944.984 Q592.538 944.984 593.372 945.818 Q594.233 946.624 594.233 947.958 Q594.233 949.265 593.316 950.126 Q592.427 950.96 591.288 950.96 Q589.982 950.96 589.12 950.043 Z" fill="#000000" fill-rule="evenodd" fill-opacity="1" /><path clip-path="url(#clip210)" d="M602.07 941.787 Q602.07 940.092 602.987 939.452 Q603.904 938.785 604.876 938.785 Q606.182 938.785 606.933 939.619 Q607.711 940.425 607.711 941.565 Q607.711 942.705 606.933 943.538 Q606.182 944.345 604.876 944.345 Q604.237 944.345 603.904 944.233 Q604.654 946.846 606.933 948.736 Q609.239 950.627 612.268 950.627 Q616.075 950.627 618.354 946.93 Q619.715 944.539 619.715 939.119 Q619.715 934.338 618.687 931.947 Q617.103 928.306 613.852 928.306 Q609.239 928.306 606.516 932.281 Q606.182 932.781 605.793 932.809 Q605.238 932.809 605.099 932.503 Q604.988 932.17 604.988 931.308 L604.988 914.463 Q604.988 913.101 605.543 913.101 Q605.766 913.101 606.238 913.268 Q609.823 914.853 613.796 914.88 Q617.881 914.88 621.55 913.213 Q621.827 913.046 621.994 913.046 Q622.55 913.046 622.578 913.685 Q622.578 913.908 622.105 914.575 Q621.661 915.214 620.688 916.076 Q619.715 916.91 618.465 917.716 Q617.214 918.522 615.38 919.078 Q613.574 919.606 611.573 919.606 Q609.184 919.606 606.738 918.855 L606.738 929.946 Q609.684 927.055 613.963 927.055 Q618.521 927.055 621.661 930.724 Q624.801 934.393 624.801 939.508 Q624.801 944.873 621.077 948.542 Q617.381 952.211 612.379 952.211 Q607.822 952.211 604.932 948.959 Q602.07 945.707 602.07 941.787 Z" fill="#000000" fill-rule="evenodd" fill-opacity="1" /><path clip-path="url(#clip210)" d="M901.185 918.466 L901.185 916.687 Q908.021 916.687 911.55 913.046 Q912.523 913.046 912.69 913.268 Q912.856 913.491 912.856 914.519 L912.856 946.457 Q912.856 948.153 913.69 948.681 Q914.524 949.209 918.164 949.209 L919.97 949.209 L919.97 950.96 Q917.969 950.793 910.744 950.793 Q903.519 950.793 901.546 950.96 L901.546 949.209 L903.353 949.209 Q906.937 949.209 907.799 948.709 Q908.66 948.18 908.66 946.457 L908.66 916.965 Q905.687 918.466 901.185 918.466 Z" fill="#000000" fill-rule="evenodd" fill-opacity="1" /><path clip-path="url(#clip210)" d="M930.28 950.043 Q929.418 949.126 929.418 947.93 Q929.418 946.735 930.28 945.873 Q931.141 944.984 932.447 944.984 Q933.698 944.984 934.531 945.818 Q935.393 946.624 935.393 947.958 Q935.393 949.265 934.476 950.126 Q933.587 950.96 932.447 950.96 Q931.141 950.96 930.28 950.043 Z" fill="#000000" fill-rule="evenodd" fill-opacity="1" /><path clip-path="url(#clip210)" d="M942.618 932.753 Q942.618 924.387 944.73 919.828 Q947.675 913.046 954.623 913.046 Q956.095 913.046 957.624 913.463 Q959.18 913.852 961.125 915.381 Q963.098 916.91 964.293 919.411 Q966.572 924.248 966.572 932.753 Q966.572 941.065 964.46 945.595 Q961.375 952.211 954.567 952.211 Q952.01 952.211 949.398 950.905 Q946.814 949.598 945.174 946.457 Q942.618 941.76 942.618 932.753 M947.342 932.059 Q947.342 940.648 947.953 944.067 Q948.648 947.764 950.538 949.376 Q952.455 950.96 954.567 950.96 Q956.846 950.96 958.735 949.265 Q960.653 947.541 961.236 943.844 Q961.875 940.203 961.848 932.059 Q961.848 924.137 961.292 920.968 Q960.542 917.271 958.541 915.798 Q956.568 914.297 954.567 914.297 Q953.817 914.297 953.011 914.519 Q952.233 914.741 951.093 915.381 Q949.954 916.02 949.065 917.604 Q948.203 919.189 947.787 921.579 Q947.342 924.665 947.342 932.059 Z" fill="#000000" fill-rule="evenodd" fill-opacity="1" /><path clip-path="url(#clip210)" d="M1244.37 918.466 L1244.37 916.687 Q1251.21 916.687 1254.74 913.046 Q1255.71 913.046 1255.88 913.268 Q1256.04 913.491 1256.04 914.519 L1256.04 946.457 Q1256.04 948.153 1256.88 948.681 Q1257.71 949.209 1261.35 949.209 L1263.16 949.209 L1263.16 950.96 Q1261.16 950.793 1253.93 950.793 Q1246.71 950.793 1244.73 950.96 L1244.73 949.209 L1246.54 949.209 Q1250.13 949.209 1250.99 948.709 Q1251.85 948.18 1251.85 946.457 L1251.85 916.965 Q1248.87 918.466 1244.37 918.466 Z" fill="#000000" fill-rule="evenodd" fill-opacity="1" /><path clip-path="url(#clip210)" d="M1273.47 950.043 Q1272.61 949.126 1272.61 947.93 Q1272.61 946.735 1273.47 945.873 Q1274.33 944.984 1275.64 944.984 Q1276.89 944.984 1277.72 945.818 Q1278.58 946.624 1278.58 947.958 Q1278.58 949.265 1277.66 950.126 Q1276.77 950.96 1275.64 950.96 Q1274.33 950.96 1273.47 950.043 Z" fill="#000000" fill-rule="evenodd" fill-opacity="1" /><path clip-path="url(#clip210)" d="M1286.42 941.787 Q1286.42 940.092 1287.33 939.452 Q1288.25 938.785 1289.22 938.785 Q1290.53 938.785 1291.28 939.619 Q1292.06 940.425 1292.06 941.565 Q1292.06 942.705 1291.28 943.538 Q1290.53 944.345 1289.22 944.345 Q1288.58 944.345 1288.25 944.233 Q1289 946.846 1291.28 948.736 Q1293.59 950.627 1296.62 950.627 Q1300.42 950.627 1302.7 946.93 Q1304.06 944.539 1304.06 939.119 Q1304.06 934.338 1303.03 931.947 Q1301.45 928.306 1298.2 928.306 Q1293.59 928.306 1290.86 932.281 Q1290.53 932.781 1290.14 932.809 Q1289.59 932.809 1289.45 932.503 Q1289.34 932.17 1289.34 931.308 L1289.34 914.463 Q1289.34 913.101 1289.89 913.101 Q1290.11 913.101 1290.59 913.268 Q1294.17 914.853 1298.14 914.88 Q1302.23 914.88 1305.9 913.213 Q1306.18 913.046 1306.34 913.046 Q1306.9 913.046 1306.93 913.685 Q1306.93 913.908 1306.45 914.575 Q1306.01 915.214 1305.04 916.076 Q1304.06 916.91 1302.81 917.716 Q1301.56 918.522 1299.73 919.078 Q1297.92 919.606 1295.92 919.606 Q1293.53 919.606 1291.09 918.855 L1291.09 929.946 Q1294.03 927.055 1298.31 927.055 Q1302.87 927.055 1306.01 930.724 Q1309.15 934.393 1309.15 939.508 Q1309.15 944.873 1305.42 948.542 Q1301.73 952.211 1296.73 952.211 Q1292.17 952.211 1289.28 948.959 Q1286.42 945.707 1286.42 941.787 Z" fill="#000000" fill-rule="evenodd" fill-opacity="1" /><path clip-path="url(#clip210)" d="M1585.84 950.96 Q1585.84 949.932 1585.92 949.626 Q1586.03 949.32 1586.48 948.848 L1597.4 936.673 Q1603.37 929.946 1603.37 924.081 Q1603.37 920.273 1601.37 917.549 Q1599.4 914.825 1595.76 914.825 Q1593.26 914.825 1591.15 916.354 Q1589.03 917.882 1588.06 920.606 Q1588.23 920.551 1588.81 920.551 Q1590.23 920.551 1591.01 921.44 Q1591.81 922.33 1591.81 923.525 Q1591.81 925.054 1590.81 925.804 Q1589.84 926.527 1588.87 926.527 Q1588.48 926.527 1587.95 926.444 Q1587.45 926.36 1586.64 925.582 Q1585.84 924.776 1585.84 923.358 Q1585.84 919.383 1588.84 916.215 Q1591.87 913.046 1596.48 913.046 Q1601.71 913.046 1605.12 916.159 Q1608.57 919.244 1608.57 924.081 Q1608.57 925.777 1608.04 927.333 Q1607.54 928.862 1606.85 930.057 Q1606.18 931.252 1604.35 933.17 Q1602.51 935.088 1601.04 936.45 Q1599.57 937.812 1596.26 940.703 L1590.23 946.568 L1600.48 946.568 Q1605.48 946.568 1605.87 946.124 Q1606.43 945.317 1607.12 941.065 L1608.57 941.065 L1606.96 950.96 L1585.84 950.96 Z" fill="#000000" fill-rule="evenodd" fill-opacity="1" /><path clip-path="url(#clip210)" d="M1617.16 950.043 Q1616.29 949.126 1616.29 947.93 Q1616.29 946.735 1617.16 945.873 Q1618.02 944.984 1619.32 944.984 Q1620.57 944.984 1621.41 945.818 Q1622.27 946.624 1622.27 947.958 Q1622.27 949.265 1621.35 950.126 Q1620.46 950.96 1619.32 950.96 Q1618.02 950.96 1617.16 950.043 Z" fill="#000000" fill-rule="evenodd" fill-opacity="1" /><path clip-path="url(#clip210)" d="M1629.49 932.753 Q1629.49 924.387 1631.61 919.828 Q1634.55 913.046 1641.5 913.046 Q1642.97 913.046 1644.5 913.463 Q1646.06 913.852 1648 915.381 Q1649.97 916.91 1651.17 919.411 Q1653.45 924.248 1653.45 932.753 Q1653.45 941.065 1651.34 945.595 Q1648.25 952.211 1641.44 952.211 Q1638.89 952.211 1636.27 950.905 Q1633.69 949.598 1632.05 946.457 Q1629.49 941.76 1629.49 932.753 M1634.22 932.059 Q1634.22 940.648 1634.83 944.067 Q1635.52 947.764 1637.41 949.376 Q1639.33 950.96 1641.44 950.96 Q1643.72 950.96 1645.61 949.265 Q1647.53 947.541 1648.11 943.844 Q1648.75 940.203 1648.72 932.059 Q1648.72 924.137 1648.17 920.968 Q1647.42 917.271 1645.42 915.798 Q1643.44 914.297 1641.44 914.297 Q1640.69 914.297 1639.89 914.519 Q1639.11 914.741 1637.97 915.381 Q1636.83 916.02 1635.94 917.604 Q1635.08 919.189 1634.66 921.579 Q1634.22 924.665 1634.22 932.059 Z" fill="#000000" fill-rule="evenodd" fill-opacity="1" /><path clip-path="url(#clip210)" d="M881.15 995.884 L882.354 981.677 L920.98 981.677 L922.184 995.884 L920.609 995.884 Q920.362 993.043 920.115 991.406 Q919.899 989.769 919.344 988.225 Q918.819 986.65 918.139 985.909 Q917.491 985.136 916.225 984.55 Q914.959 983.932 913.323 983.778 Q911.686 983.623 909.216 983.623 Q906.314 983.623 905.604 983.747 Q904.832 983.932 904.646 984.488 Q904.461 985.013 904.461 986.156 L904.461 1019.48 Q904.461 1020.75 904.708 1021.27 Q904.986 1021.77 906.437 1022.17 Q907.888 1022.54 911.1 1022.54 L913.631 1022.54 L913.631 1024.48 Q911.038 1024.3 901.621 1024.3 Q892.265 1024.3 889.671 1024.48 L889.671 1022.54 L892.203 1022.54 Q895.414 1022.54 896.866 1022.17 Q898.348 1021.77 898.595 1021.27 Q898.842 1020.75 898.842 1019.48 L898.842 986.156 Q898.842 985.26 898.78 984.889 Q898.718 984.519 898.44 984.21 Q898.162 983.87 897.514 983.747 Q896.897 983.623 894.118 983.623 Q891.648 983.623 889.98 983.778 Q888.344 983.932 887.078 984.55 Q885.812 985.136 885.133 985.909 Q884.484 986.65 883.929 988.225 Q883.404 989.769 883.187 991.406 Q882.971 993.043 882.724 995.884 L881.15 995.884 Z" fill="#000000" fill-rule="evenodd" fill-opacity="1" /><path clip-path="url(#clip210)" d="M926.599 1024.48 L926.599 1022.54 Q929.965 1022.54 930.737 1022.14 Q931.509 1021.7 931.509 1019.67 L931.509 1002.65 Q931.509 1000.3 930.706 999.745 Q929.934 999.189 926.846 999.189 L926.846 997.212 L935.677 996.533 L935.677 1019.73 Q935.677 1021.61 936.356 1022.07 Q937.036 1022.54 940.123 1022.54 L940.123 1024.48 Q933.67 1024.3 933.547 1024.3 Q932.682 1024.3 926.599 1024.48 M929.255 985.507 Q929.255 984.241 930.212 983.222 Q931.2 982.172 932.589 982.172 Q933.979 982.172 934.967 983.129 Q935.955 984.056 935.955 985.538 Q935.955 986.99 934.967 987.947 Q933.979 988.874 932.589 988.874 Q931.138 988.874 930.181 987.854 Q929.255 986.835 929.255 985.507 Z" fill="#000000" fill-rule="evenodd" fill-opacity="1" /><path clip-path="url(#clip210)" d="M944.044 1024.48 L944.044 1022.54 Q947.41 1022.54 948.182 1022.14 Q948.954 1021.7 948.954 1019.67 L948.954 1002.71 Q948.954 1000.36 948.12 999.776 Q947.317 999.189 944.044 999.189 L944.044 997.212 L952.937 996.533 L952.937 1003.17 Q955.901 996.533 962.292 996.533 Q969.703 996.533 970.722 1002.71 Q971.802 1000.3 974.056 998.417 Q976.341 996.533 979.892 996.533 Q984.647 996.533 986.53 998.88 Q987.92 1000.46 988.197 1002.22 Q988.475 1003.98 988.475 1008.55 L988.475 1020.62 Q988.537 1021.95 989.556 1022.26 Q990.575 1022.54 993.416 1022.54 L993.416 1024.48 Q986.962 1024.3 986.345 1024.3 Q985.851 1024.3 979.182 1024.48 L979.182 1022.54 Q982.547 1022.54 983.319 1022.14 Q984.122 1021.7 984.122 1019.67 L984.122 1004.93 Q984.122 1001.72 983.134 999.838 Q982.146 997.923 979.429 997.923 Q976.156 997.923 973.531 1000.67 Q970.907 1003.42 970.907 1008.05 L970.907 1019.67 Q970.907 1021.7 971.679 1022.14 Q972.481 1022.54 975.847 1022.54 L975.847 1024.48 Q969.394 1024.3 968.745 1024.3 Q968.251 1024.3 961.613 1024.48 L961.613 1022.54 Q964.979 1022.54 965.75 1022.14 Q966.553 1021.7 966.553 1019.67 L966.553 1004.93 Q966.553 1001.72 965.565 999.838 Q964.577 997.923 961.86 997.923 Q958.587 997.923 955.963 1000.67 Q953.338 1003.42 953.338 1008.05 L953.338 1019.67 Q953.338 1021.7 954.11 1022.14 Q954.913 1022.54 958.248 1022.54 L958.248 1024.48 Q951.794 1024.3 951.177 1024.3 Q950.683 1024.3 944.044 1024.48 Z" fill="#000000" fill-rule="evenodd" fill-opacity="1" /><path clip-path="url(#clip210)" d="M996.411 1010.55 Q996.411 1004.59 1000.24 1000.36 Q1004.07 996.131 1009.56 996.131 Q1015.12 996.131 1017.99 999.745 Q1020.9 1003.36 1020.9 1008.55 Q1020.9 1009.5 1020.65 1009.69 Q1020.4 1009.88 1019.32 1009.88 L1001.66 1009.88 Q1001.66 1016.33 1003.57 1019.36 Q1006.23 1023.59 1010.71 1023.59 Q1011.32 1023.59 1012.06 1023.46 Q1012.81 1023.34 1014.32 1022.82 Q1015.83 1022.26 1017.16 1020.81 Q1018.49 1019.36 1019.26 1017.07 Q1019.44 1016.18 1020.06 1016.21 Q1020.9 1016.21 1020.9 1016.95 Q1020.9 1017.5 1020.28 1018.77 Q1019.69 1020.01 1018.55 1021.49 Q1017.41 1022.97 1015.18 1024.08 Q1012.99 1025.19 1010.34 1025.19 Q1004.78 1025.19 1000.58 1020.99 Q996.411 1016.76 996.411 1010.55 M1001.72 1008.55 L1016.73 1008.55 Q1016.73 1007.22 1016.48 1005.74 Q1016.26 1004.25 1015.58 1002.22 Q1014.94 1000.15 1013.39 998.849 Q1011.85 997.552 1009.56 997.552 Q1008.54 997.552 1007.43 997.985 Q1006.35 998.417 1005.02 999.467 Q1003.7 1000.52 1002.77 1002.9 Q1001.84 1005.27 1001.72 1008.55 Z" fill="#000000" fill-rule="evenodd" fill-opacity="1" /><polyline clip-path="url(#clip212)" style="stroke:#000000; stroke-linecap:round; stroke-linejoin:round; stroke-width:2.00037; stroke-opacity:0.1; fill:none" points="242.285,864.877 1659.76,864.877 "/>
<polyline clip-path="url(#clip212)" style="stroke:#000000; stroke-linecap:round; stroke-linejoin:round; stroke-width:2.00037; stroke-opacity:0.1; fill:none" points="242.285,689.271 1659.76,689.271 "/>
<polyline clip-path="url(#clip212)" style="stroke:#000000; stroke-linecap:round; stroke-linejoin:round; stroke-width:2.00037; stroke-opacity:0.1; fill:none" points="242.285,513.665 1659.76,513.665 "/>
<polyline clip-path="url(#clip212)" style="stroke:#000000; stroke-linecap:round; stroke-linejoin:round; stroke-width:2.00037; stroke-opacity:0.1; fill:none" points="242.285,338.059 1659.76,338.059 "/>
<polyline clip-path="url(#clip210)" style="stroke:#000000; stroke-linecap:round; stroke-linejoin:round; stroke-width:4.00074; stroke-opacity:1; fill:none" points="242.285,888.691 242.285,47.2528 "/>
<polyline clip-path="url(#clip210)" style="stroke:#000000; stroke-linecap:round; stroke-linejoin:round; stroke-width:4.00074; stroke-opacity:1; fill:none" points="1659.76,888.691 1659.76,47.2528 "/>
<polyline clip-path="url(#clip210)" style="stroke:#000000; stroke-linecap:round; stroke-linejoin:round; stroke-width:4.00074; stroke-opacity:1; fill:none" points="242.285,864.877 261.18,864.877 "/>
<polyline clip-path="url(#clip210)" style="stroke:#000000; stroke-linecap:round; stroke-linejoin:round; stroke-width:4.00074; stroke-opacity:1; fill:none" points="242.285,689.271 261.18,689.271 "/>
<polyline clip-path="url(#clip210)" style="stroke:#000000; stroke-linecap:round; stroke-linejoin:round; stroke-width:4.00074; stroke-opacity:1; fill:none" points="242.285,513.665 261.18,513.665 "/>
<polyline clip-path="url(#clip210)" style="stroke:#000000; stroke-linecap:round; stroke-linejoin:round; stroke-width:4.00074; stroke-opacity:1; fill:none" points="242.285,338.059 261.18,338.059 "/>
<path clip-path="url(#clip210)" d="M197.894 851.827 L197.894 850.048 Q204.73 850.048 208.26 846.406 Q209.232 846.406 209.399 846.629 Q209.566 846.851 209.566 847.88 L209.566 879.818 Q209.566 881.513 210.399 882.041 Q211.233 882.569 214.873 882.569 L216.68 882.569 L216.68 884.321 Q214.679 884.154 207.454 884.154 Q200.229 884.154 198.256 884.321 L198.256 882.569 L200.062 882.569 Q203.647 882.569 204.508 882.069 Q205.37 881.541 205.37 879.818 L205.37 850.326 Q202.396 851.827 197.894 851.827 Z" fill="#000000" fill-rule="evenodd" fill-opacity="1" /><path clip-path="url(#clip210)" d="M167.105 676.22 L167.105 674.442 Q173.941 674.442 177.47 670.8 Q178.442 670.8 178.609 671.023 Q178.776 671.245 178.776 672.273 L178.776 704.211 Q178.776 705.907 179.61 706.435 Q180.443 706.963 184.084 706.963 L185.89 706.963 L185.89 708.714 Q183.889 708.548 176.664 708.548 Q169.439 708.548 167.466 708.714 L167.466 706.963 L169.272 706.963 Q172.857 706.963 173.718 706.463 Q174.58 705.935 174.58 704.211 L174.58 674.719 Q171.606 676.22 167.105 676.22 Z" fill="#000000" fill-rule="evenodd" fill-opacity="1" /><path clip-path="url(#clip210)" d="M192.726 690.508 Q192.726 682.141 194.838 677.583 Q197.783 670.8 204.73 670.8 Q206.203 670.8 207.732 671.217 Q209.288 671.606 211.233 673.135 Q213.206 674.664 214.401 677.166 Q216.68 682.002 216.68 690.508 Q216.68 698.819 214.568 703.35 Q211.483 709.965 204.675 709.965 Q202.118 709.965 199.506 708.659 Q196.922 707.352 195.282 704.211 Q192.726 699.514 192.726 690.508 M197.45 689.813 Q197.45 698.402 198.061 701.821 Q198.756 705.518 200.646 707.13 Q202.563 708.714 204.675 708.714 Q206.954 708.714 208.843 707.019 Q210.761 705.296 211.344 701.599 Q211.983 697.957 211.955 689.813 Q211.955 681.891 211.4 678.722 Q210.649 675.025 208.649 673.552 Q206.676 672.051 204.675 672.051 Q203.925 672.051 203.119 672.273 Q202.341 672.496 201.201 673.135 Q200.062 673.774 199.173 675.359 Q198.311 676.943 197.894 679.334 Q197.45 682.419 197.45 689.813 Z" fill="#000000" fill-rule="evenodd" fill-opacity="1" /><path clip-path="url(#clip210)" d="M138.649 500.614 L138.649 498.835 Q145.485 498.835 149.014 495.194 Q149.987 495.194 150.154 495.416 Q150.32 495.639 150.32 496.667 L150.32 528.605 Q150.32 530.301 151.154 530.829 Q151.988 531.357 155.628 531.357 L157.434 531.357 L157.434 533.108 Q155.433 532.942 148.208 532.942 Q140.983 532.942 139.01 533.108 L139.01 531.357 L140.817 531.357 Q144.401 531.357 145.263 530.857 Q146.124 530.329 146.124 528.605 L146.124 499.113 Q143.151 500.614 138.649 500.614 Z" fill="#000000" fill-rule="evenodd" fill-opacity="1" /><path clip-path="url(#clip210)" d="M164.27 514.902 Q164.27 506.535 166.382 501.976 Q169.328 495.194 176.275 495.194 Q177.748 495.194 179.276 495.611 Q180.832 496 182.777 497.529 Q184.75 499.058 185.945 501.559 Q188.224 506.396 188.224 514.902 Q188.224 523.213 186.112 527.744 Q183.028 534.359 176.219 534.359 Q173.663 534.359 171.051 533.053 Q168.466 531.746 166.827 528.605 Q164.27 523.908 164.27 514.902 M168.994 514.207 Q168.994 522.796 169.606 526.215 Q170.3 529.912 172.19 531.524 Q174.107 533.108 176.219 533.108 Q178.498 533.108 180.388 531.413 Q182.305 529.689 182.889 525.992 Q183.528 522.351 183.5 514.207 Q183.5 506.285 182.944 503.116 Q182.194 499.419 180.193 497.946 Q178.22 496.445 176.219 496.445 Q175.469 496.445 174.663 496.667 Q173.885 496.89 172.746 497.529 Q171.606 498.168 170.717 499.753 Q169.856 501.337 169.439 503.728 Q168.994 506.813 168.994 514.207 Z" fill="#000000" fill-rule="evenodd" fill-opacity="1" /><path clip-path="url(#clip210)" d="M192.726 514.902 Q192.726 506.535 194.838 501.976 Q197.783 495.194 204.73 495.194 Q206.203 495.194 207.732 495.611 Q209.288 496 211.233 497.529 Q213.206 499.058 214.401 501.559 Q216.68 506.396 216.68 514.902 Q216.68 523.213 214.568 527.744 Q211.483 534.359 204.675 534.359 Q202.118 534.359 199.506 533.053 Q196.922 531.746 195.282 528.605 Q192.726 523.908 192.726 514.902 M197.45 514.207 Q197.45 522.796 198.061 526.215 Q198.756 529.912 200.646 531.524 Q202.563 533.108 204.675 533.108 Q206.954 533.108 208.843 531.413 Q210.761 529.689 211.344 525.992 Q211.983 522.351 211.955 514.207 Q211.955 506.285 211.4 503.116 Q210.649 499.419 208.649 497.946 Q206.676 496.445 204.675 496.445 Q203.925 496.445 203.119 496.667 Q202.341 496.89 201.201 497.529 Q200.062 498.168 199.173 499.753 Q198.311 501.337 197.894 503.728 Q197.45 506.813 197.45 514.207 Z" fill="#000000" fill-rule="evenodd" fill-opacity="1" /><path clip-path="url(#clip210)" d="M110.194 325.008 L110.194 323.229 Q117.03 323.229 120.559 319.588 Q121.531 319.588 121.698 319.81 Q121.865 320.033 121.865 321.061 L121.865 352.999 Q121.865 354.695 122.699 355.223 Q123.532 355.751 127.172 355.751 L128.979 355.751 L128.979 357.502 Q126.978 357.335 119.753 357.335 Q112.528 357.335 110.555 357.502 L110.555 355.751 L112.361 355.751 Q115.946 355.751 116.807 355.251 Q117.669 354.723 117.669 352.999 L117.669 323.507 Q114.695 325.008 110.194 325.008 Z" fill="#000000" fill-rule="evenodd" fill-opacity="1" /><path clip-path="url(#clip210)" d="M135.815 339.296 Q135.815 330.929 137.927 326.37 Q140.872 319.588 147.819 319.588 Q149.292 319.588 150.821 320.005 Q152.377 320.394 154.322 321.923 Q156.295 323.452 157.49 325.953 Q159.768 330.79 159.768 339.296 Q159.768 347.607 157.657 352.138 Q154.572 358.753 147.764 358.753 Q145.207 358.753 142.595 357.447 Q140.011 356.14 138.371 352.999 Q135.815 348.302 135.815 339.296 M140.539 338.601 Q140.539 347.19 141.15 350.609 Q141.845 354.306 143.734 355.918 Q145.652 357.502 147.764 357.502 Q150.042 357.502 151.932 355.807 Q153.85 354.083 154.433 350.386 Q155.072 346.745 155.044 338.601 Q155.044 330.679 154.489 327.51 Q153.738 323.813 151.738 322.34 Q149.765 320.839 147.764 320.839 Q147.014 320.839 146.208 321.061 Q145.43 321.284 144.29 321.923 Q143.151 322.562 142.262 324.147 Q141.4 325.731 140.983 328.121 Q140.539 331.207 140.539 338.601 Z" fill="#000000" fill-rule="evenodd" fill-opacity="1" /><path clip-path="url(#clip210)" d="M164.27 339.296 Q164.27 330.929 166.382 326.37 Q169.328 319.588 176.275 319.588 Q177.748 319.588 179.276 320.005 Q180.832 320.394 182.777 321.923 Q184.75 323.452 185.945 325.953 Q188.224 330.79 188.224 339.296 Q188.224 347.607 186.112 352.138 Q183.028 358.753 176.219 358.753 Q173.663 358.753 171.051 357.447 Q168.466 356.14 166.827 352.999 Q164.27 348.302 164.27 339.296 M168.994 338.601 Q168.994 347.19 169.606 350.609 Q170.3 354.306 172.19 355.918 Q174.107 357.502 176.219 357.502 Q178.498 357.502 180.388 355.807 Q182.305 354.083 182.889 350.386 Q183.528 346.745 183.5 338.601 Q183.5 330.679 182.944 327.51 Q182.194 323.813 180.193 322.34 Q178.22 320.839 176.219 320.839 Q175.469 320.839 174.663 321.061 Q173.885 321.284 172.746 321.923 Q171.606 322.562 170.717 324.147 Q169.856 325.731 169.439 328.121 Q168.994 331.207 168.994 338.601 Z" fill="#000000" fill-rule="evenodd" fill-opacity="1" /><path clip-path="url(#clip210)" d="M192.726 339.296 Q192.726 330.929 194.838 326.37 Q197.783 319.588 204.73 319.588 Q206.203 319.588 207.732 320.005 Q209.288 320.394 211.233 321.923 Q213.206 323.452 214.401 325.953 Q216.68 330.79 216.68 339.296 Q216.68 347.607 214.568 352.138 Q211.483 358.753 204.675 358.753 Q202.118 358.753 199.506 357.447 Q196.922 356.14 195.282 352.999 Q192.726 348.302 192.726 339.296 M197.45 338.601 Q197.45 347.19 198.061 350.609 Q198.756 354.306 200.646 355.918 Q202.563 357.502 204.675 357.502 Q206.954 357.502 208.843 355.807 Q210.761 354.083 211.344 350.386 Q211.983 346.745 211.955 338.601 Q211.955 330.679 211.4 327.51 Q210.649 323.813 208.649 322.34 Q206.676 320.839 204.675 320.839 Q203.925 320.839 203.119 321.061 Q202.341 321.284 201.201 321.923 Q200.062 322.562 199.173 324.147 Q198.311 325.731 197.894 328.121 Q197.45 331.207 197.45 338.601 Z" fill="#000000" fill-rule="evenodd" fill-opacity="1" /><path clip-path="url(#clip210)" d="M50.2018 596.994 Q40.5376 596.994 33.8066 590.817 Q27.0447 584.609 27.0447 575.992 Q27.0447 567.313 33.8066 561.136 Q40.5684 554.928 50.2018 554.928 Q59.7426 554.928 66.381 561.136 Q73.0193 567.344 73.0193 575.992 Q73.0193 584.516 66.4118 590.755 Q59.8043 596.994 50.2018 596.994 M49.3064 590.477 Q55.1729 590.477 59.6808 589.087 Q64.1579 587.697 66.5971 585.474 Q69.0363 583.219 70.2096 580.81 Q71.3829 578.401 71.3829 575.93 Q71.3829 573.521 70.2405 571.174 Q69.0981 568.796 66.6897 566.541 Q64.2814 564.287 59.7734 562.866 Q55.2655 561.445 49.3064 561.445 Q44.675 561.445 40.9698 562.433 Q37.2338 563.422 34.9799 564.966 Q32.7259 566.51 31.2438 568.518 Q29.7618 570.494 29.206 572.378 Q28.6194 574.232 28.6194 575.992 Q28.6194 578.216 29.6074 580.532 Q30.5954 582.848 32.7876 585.196 Q34.949 587.512 39.2408 588.995 Q43.5017 590.477 49.3064 590.477 Z" fill="#000000" fill-rule="evenodd" fill-opacity="1" /><path clip-path="url(#clip210)" d="M46.3423 550.203 L44.3662 550.203 Q44.5515 547.362 44.5515 544.057 Q44.5515 542.852 44.3662 537.17 L46.3423 537.17 Q46.3423 540.783 47.9787 540.783 Q48.2257 540.783 49.0594 540.413 L66.6897 533.309 L50.5723 526.854 Q49.4917 526.483 49.0594 526.483 Q47.9787 526.483 47.2068 527.225 Q46.404 527.935 46.3423 529.51 L44.3662 529.51 Q44.5515 526.298 44.5515 524.013 Q44.5515 521.418 44.3662 519.287 L46.3423 519.287 Q46.3423 521.171 47.2068 522.499 Q48.0405 523.827 48.7815 524.26 Q49.4917 524.661 50.5723 525.094 L71.1359 533.371 Q72.3401 533.865 72.3401 534.699 Q72.3401 535.255 72.0931 535.502 Q71.8769 535.718 71.1359 536.027 L48.6889 545.138 Q47.1142 545.756 46.7437 546.559 Q46.3423 547.362 46.3423 550.203 Z" fill="#000000" fill-rule="evenodd" fill-opacity="1" /><path clip-path="url(#clip210)" d="M57.7047 518.083 Q51.7456 518.083 47.5156 514.253 Q43.2856 510.423 43.2856 504.926 Q43.2856 499.367 46.8981 496.494 Q50.5106 493.591 55.6978 493.591 Q56.6549 493.591 56.8402 493.838 Q57.0255 494.085 57.0255 495.166 L57.0255 512.832 Q63.4786 512.832 66.5045 510.918 Q70.7345 508.261 70.7345 503.783 Q70.7345 503.165 70.611 502.424 Q70.4875 501.683 69.9626 500.17 Q69.4068 498.656 67.9556 497.328 Q66.5045 496 64.2196 495.228 Q63.3242 495.043 63.3551 494.425 Q63.3551 493.591 64.0961 493.591 Q64.6519 493.591 65.9178 494.209 Q67.1529 494.796 68.6349 495.938 Q70.117 497.081 71.2285 499.305 Q72.3401 501.498 72.3401 504.154 Q72.3401 509.713 68.1409 513.913 Q63.9109 518.083 57.7047 518.083 M55.6978 512.771 L55.6978 497.761 Q54.3701 497.761 52.8881 498.008 Q51.406 498.224 49.3682 498.903 Q47.2995 499.552 46.0027 501.096 Q44.7059 502.64 44.7059 504.926 Q44.7059 505.945 45.1381 507.057 Q45.5704 508.138 46.6202 509.466 Q47.67 510.794 50.0474 511.721 Q52.4249 512.647 55.6978 512.771 Z" fill="#000000" fill-rule="evenodd" fill-opacity="1" /><path clip-path="url(#clip210)" d="M71.6299 490.008 L69.6847 490.008 Q69.6847 486.642 69.2833 485.87 Q68.8511 485.067 66.8132 485.067 L49.8622 485.067 Q47.5156 485.067 46.9289 485.901 Q46.3423 486.704 46.3423 490.008 L44.3662 490.008 L43.6869 481.206 L50.6341 481.206 Q47.917 480.311 45.8174 478.427 Q43.6869 476.512 43.6869 473.423 Q43.6869 471.385 44.8294 470.088 Q45.9718 468.76 47.5465 468.76 Q48.9359 468.76 49.646 469.624 Q50.3253 470.458 50.3253 471.477 Q50.3253 472.62 49.6152 473.423 Q48.8741 474.195 47.6082 474.195 Q46.8363 474.195 46.2497 473.856 Q45.6321 473.485 45.416 473.207 Q45.1999 472.929 45.1381 472.744 Q45.0764 472.867 45.0764 473.423 Q45.0764 476.913 48.5654 478.921 Q52.0235 480.897 56.9637 480.897 L66.6897 480.897 Q68.5114 480.897 69.0981 480.156 Q69.6847 479.384 69.6847 476.079 L69.6847 474.751 L71.6299 474.751 Q71.4447 477.284 71.4447 482.781 Q71.4447 483.553 71.4755 484.758 Q71.5064 485.963 71.5682 487.538 Q71.6299 489.113 71.6299 490.008 Z" fill="#000000" fill-rule="evenodd" fill-opacity="1" /><path clip-path="url(#clip210)" d="M71.6299 465.023 L69.6847 465.023 Q69.6847 461.656 69.2833 460.884 Q68.8511 460.112 66.8132 460.112 L33.9301 460.112 Q31.5835 460.112 30.9968 460.946 Q30.4102 461.749 30.4102 465.023 L28.4341 465.023 L27.7548 455.942 L49.7387 455.942 L49.7387 455.881 Q47.4538 454.861 45.5704 452.576 Q43.6869 450.29 43.6869 446.77 Q43.6869 442.013 46.0335 440.129 Q47.6082 438.74 49.3682 438.462 Q51.1281 438.153 55.6978 438.153 L67.7704 438.153 Q69.0981 438.091 69.4068 437.072 Q69.6847 436.053 69.6847 433.211 L71.6299 433.211 Q71.4447 439.666 71.4447 440.315 Q71.4447 440.809 71.6299 447.449 L69.6847 447.449 Q69.6847 444.083 69.2833 443.31 Q68.8511 442.507 66.8132 442.507 L52.0853 442.507 Q48.8741 442.507 46.9907 443.496 Q45.0764 444.484 45.0764 447.202 Q45.0764 450.476 47.8244 453.101 Q50.5723 455.726 55.2038 455.726 L66.8132 455.726 Q68.8511 455.726 69.2833 454.954 Q69.6847 454.151 69.6847 450.816 L71.6299 450.816 Q71.4447 457.27 71.4447 457.888 Q71.4447 458.382 71.6299 465.023 Z" fill="#000000" fill-rule="evenodd" fill-opacity="1" /><path clip-path="url(#clip210)" d="M57.7047 430.215 Q51.7456 430.215 47.5156 426.386 Q43.2856 422.556 43.2856 417.058 Q43.2856 411.499 46.8981 408.627 Q50.5106 405.724 55.6978 405.724 Q56.6549 405.724 56.8402 405.971 Q57.0255 406.218 57.0255 407.299 L57.0255 424.965 Q63.4786 424.965 66.5045 423.05 Q70.7345 420.394 70.7345 415.916 Q70.7345 415.298 70.611 414.557 Q70.4875 413.815 69.9626 412.302 Q69.4068 410.789 67.9556 409.461 Q66.5045 408.133 64.2196 407.36 Q63.3242 407.175 63.3551 406.557 Q63.3551 405.724 64.0961 405.724 Q64.6519 405.724 65.9178 406.341 Q67.1529 406.928 68.6349 408.071 Q70.117 409.214 71.2285 411.437 Q72.3401 413.63 72.3401 416.286 Q72.3401 421.845 68.1409 426.046 Q63.9109 430.215 57.7047 430.215 M55.6978 424.903 L55.6978 409.893 Q54.3701 409.893 52.8881 410.14 Q51.406 410.356 49.3682 411.036 Q47.2995 411.684 46.0027 413.229 Q44.7059 414.773 44.7059 417.058 Q44.7059 418.078 45.1381 419.189 Q45.5704 420.27 46.6202 421.598 Q47.67 422.926 50.0474 423.853 Q52.4249 424.78 55.6978 424.903 Z" fill="#000000" fill-rule="evenodd" fill-opacity="1" /><path clip-path="url(#clip210)" d="M65.609 401.245 Q60.2366 401.245 57.396 394.914 Q55.5743 391.115 55.1111 383.27 L52.7954 383.27 Q48.8741 383.27 46.8054 385.34 Q44.7059 387.378 44.7059 389.972 Q44.7059 394.605 47.6082 396.829 Q47.67 394.945 48.6271 394.265 Q49.5534 393.586 50.5106 393.586 Q51.7765 393.586 52.6102 394.389 Q53.4129 395.161 53.4129 396.489 Q53.4129 397.755 52.641 398.589 Q51.8383 399.423 50.4488 399.423 Q47.3612 399.423 45.3234 396.643 Q43.2856 393.833 43.2856 389.849 Q43.2856 384.66 46.7746 381.201 Q47.8552 380.12 49.2447 379.595 Q50.6341 379.039 51.5604 378.977 Q52.4558 378.915 54.2466 378.915 L66.875 378.915 Q67.2455 378.915 67.863 378.792 Q68.4805 378.668 69.2833 378.112 Q70.0552 377.526 70.0552 376.568 Q70.0552 374.283 66.0104 374.314 L62.4597 374.314 L62.4597 372.708 L66.0104 372.708 Q69.3759 372.708 70.7036 374.499 Q72.0004 376.259 72.0004 377.896 Q72.0004 379.996 70.4566 381.325 Q68.9128 382.653 66.8132 382.838 Q69.2216 383.795 70.7963 385.988 Q72.3401 388.15 72.3401 391.115 Q72.3401 393.4 71.7534 395.562 Q71.1976 397.693 69.623 399.485 Q68.0174 401.245 65.609 401.245 M65.5473 396.365 Q67.8939 396.365 69.4068 394.698 Q70.9198 393.03 70.9198 390.683 Q70.9198 388.027 68.8819 385.648 Q66.8132 383.27 62.7684 383.27 L56.4388 383.27 Q56.6858 390.281 59.4956 393.339 Q62.2744 396.365 65.5473 396.365 Z" fill="#000000" fill-rule="evenodd" fill-opacity="1" /><path clip-path="url(#clip210)" d="M58.0444 370.113 Q52.0235 370.113 47.8552 365.913 Q43.6869 361.713 43.6869 356.03 Q43.6869 351.212 47.6082 348.061 L33.9301 348.061 Q31.5835 348.061 30.9968 348.895 Q30.4102 349.698 30.4102 352.972 L28.4341 352.972 L27.7548 343.861 L66.1339 343.861 Q68.4805 343.861 69.0981 343.058 Q69.6847 342.224 69.6847 338.95 L71.6299 338.95 L72.3401 348.247 L68.1409 348.247 Q72.3092 351.521 72.3401 356.709 Q72.3401 362.145 68.1718 366.129 Q64.0035 370.113 58.0444 370.113 M58.1061 364.863 Q63.9726 364.863 66.875 363.041 Q70.9198 360.508 70.9198 356.4 Q70.9198 351.706 66.5045 348.926 Q65.4238 348.216 64.1579 348.247 L51.1899 348.247 Q49.9239 348.247 48.8741 348.926 Q45.0764 351.521 45.0764 355.752 Q45.0764 360.168 49.1212 362.917 Q52.147 364.863 58.1061 364.863 Z" fill="#000000" fill-rule="evenodd" fill-opacity="1" /><path clip-path="url(#clip212)" d="M282.402 849.976 L316.69 830.89 L350.978 807.808 L385.266 786.448 L419.555 766.304 L453.843 747.596 L488.131 729.966 L522.419 712.923 L556.708 695.849 L590.996 677.776 L625.284 657.051 L659.572 632.065 L693.861 597.982 L728.149 561.848 L762.437 528.362 L796.725 498.125 L831.014 470.392 L865.302 444.441 L899.59 420.534 L933.878 399.156 L968.167 380.965 L1002.45 367.814 L1036.74 358.701 L1071.03 351.456 L1105.32 343.246 L1139.61 333.426 L1173.9 322.974 L1208.18 312.982 L1242.47 302.91 L1276.76 292.344 L1311.05 280.829 L1345.34 268.373 L1379.63 254.846 L1413.91 239.751 L1448.2 222.364 L1482.49 201.513 L1516.78 175.897 L1551.07 143.744 L1585.35 106.57 L1619.64 71.0671 L1619.64 71.0671 L1585.35 106.57 L1551.07 143.744 L1516.78 175.897 L1482.49 201.513 L1448.2 222.364 L1413.91 239.751 L1379.63 254.846 L1345.34 268.373 L1311.05 280.829 L1276.76 292.344 L1242.47 302.91 L1208.18 312.982 L1173.9 322.974 L1139.61 333.426 L1105.32 343.246 L1071.03 351.456 L1036.74 358.701 L1002.45 367.814 L968.167 380.965 L933.878 399.156 L899.59 420.534 L865.302 444.441 L831.014 470.392 L796.725 498.125 L762.437 528.362 L728.149 561.848 L693.861 597.982 L659.572 632.065 L625.284 657.051 L590.996 677.776 L556.708 695.849 L522.419 712.923 L488.131 729.966 L453.843 747.596 L419.555 766.304 L385.266 786.448 L350.978 807.808 L316.69 830.89 L282.402 849.976  Z" fill="#b30000" fill-rule="evenodd" fill-opacity="0.5"/>
<polyline clip-path="url(#clip212)" style="stroke:#b30000; stroke-linecap:round; stroke-linejoin:round; stroke-width:12.0022; stroke-opacity:1; fill:none" points="282.402,849.976 316.69,830.89 350.978,807.808 385.266,786.448 419.555,766.304 453.843,747.596 488.131,729.966 522.419,712.923 556.708,695.849 590.996,677.776 625.284,657.051 659.572,632.065 693.861,597.982 728.149,561.848 762.437,528.362 796.725,498.125 831.014,470.392 865.302,444.441 899.59,420.534 933.878,399.156 968.167,380.965 1002.45,367.814 1036.74,358.701 1071.03,351.456 1105.32,343.246 1139.61,333.426 1173.9,322.974 1208.18,312.982 1242.47,302.91 1276.76,292.344 1311.05,280.829 1345.34,268.373 1379.63,254.846 1413.91,239.751 1448.2,222.364 1482.49,201.513 1516.78,175.897 1551.07,143.744 1585.35,106.57 1619.64,71.0671 "/>
<path clip-path="url(#clip212)" d="M282.402 849.976 L316.69 830.89 L350.978 807.808 L385.266 786.448 L419.555 766.304 L453.843 747.596 L488.131 729.966 L522.419 712.923 L556.708 695.849 L590.996 677.776 L625.284 657.051 L659.572 632.065 L693.861 597.982 L728.149 561.848 L762.437 528.362 L796.725 498.125 L831.014 470.392 L865.302 444.441 L899.59 420.534 L933.878 399.156 L968.167 380.965 L1002.45 367.814 L1036.74 358.701 L1071.03 351.456 L1105.32 343.246 L1139.61 338.13 L1173.9 338.113 L1208.18 338.785 L1242.47 338.067 L1276.76 338.194 L1311.05 339.133 L1345.34 338.503 L1379.63 339.062 L1413.91 339.07 L1448.2 338.586 L1482.49 338.128 L1516.78 338.157 L1551.07 338.578 L1585.35 338.228 L1619.64 338.561 L1619.64 338.561 L1585.35 338.228 L1551.07 338.578 L1516.78 338.157 L1482.49 338.128 L1448.2 338.586 L1413.91 339.07 L1379.63 339.062 L1345.34 338.503 L1311.05 339.133 L1276.76 338.194 L1242.47 338.067 L1208.18 338.785 L1173.9 338.113 L1139.61 338.13 L1105.32 343.246 L1071.03 351.456 L1036.74 358.701 L1002.45 367.814 L968.167 380.965 L933.878 399.156 L899.59 420.534 L865.302 444.441 L831.014 470.392 L796.725 498.125 L762.437 528.362 L728.149 561.848 L693.861 597.982 L659.572 632.065 L625.284 657.051 L590.996 677.776 L556.708 695.849 L522.419 712.923 L488.131 729.966 L453.843 747.596 L419.555 766.304 L385.266 786.448 L350.978 807.808 L316.69 830.89 L282.402 849.976  Z" fill="#e34a33" fill-rule="evenodd" fill-opacity="0.5"/>
<polyline clip-path="url(#clip212)" style="stroke:#e34a33; stroke-linecap:round; stroke-linejoin:round; stroke-width:12.0022; stroke-opacity:1; fill:none" stroke-dasharray="48, 24, 6, 24" points="282.402,849.976 316.69,830.89 350.978,807.808 385.266,786.448 419.555,766.304 453.843,747.596 488.131,729.966 522.419,712.923 556.708,695.849 590.996,677.776 625.284,657.051 659.572,632.065 693.861,597.982 728.149,561.848 762.437,528.362 796.725,498.125 831.014,470.392 865.302,444.441 899.59,420.534 933.878,399.156 968.167,380.965 1002.45,367.814 1036.74,358.701 1071.03,351.456 1105.32,343.246 1139.61,338.13 1173.9,338.113 1208.18,338.785 1242.47,338.067 1276.76,338.194 1311.05,339.133 1345.34,338.503 1379.63,339.062 1413.91,339.07 1448.2,338.586 1482.49,338.128 1516.78,338.157 1551.07,338.578 1585.35,338.228 1619.64,338.561 "/>
<path clip-path="url(#clip212)" d="M282.402 849.976 L316.69 830.89 L350.978 807.808 L385.266 786.448 L419.555 766.304 L453.843 747.596 L488.131 729.966 L522.419 712.923 L556.708 695.849 L590.996 677.776 L625.284 657.051 L659.572 632.065 L693.861 597.982 L728.149 561.848 L762.437 528.362 L796.725 514.213 L831.014 513.906 L865.302 514.213 L899.59 514.089 L933.878 513.841 L968.167 514.823 L1002.45 514.004 L1036.74 514.414 L1071.03 514.839 L1105.32 514.518 L1139.61 514.637 L1173.9 514.533 L1208.18 513.81 L1242.47 514.536 L1276.76 513.764 L1311.05 513.99 L1345.34 514.229 L1379.63 514.231 L1413.91 514.082 L1448.2 513.711 L1482.49 514.065 L1516.78 513.901 L1551.07 513.953 L1585.35 514.084 L1619.64 514.075 L1619.64 514.075 L1585.35 514.084 L1551.07 513.953 L1516.78 513.901 L1482.49 514.065 L1448.2 513.711 L1413.91 514.082 L1379.63 514.231 L1345.34 514.229 L1311.05 513.99 L1276.76 513.764 L1242.47 514.536 L1208.18 513.81 L1173.9 514.533 L1139.61 514.637 L1105.32 514.518 L1071.03 514.839 L1036.74 514.414 L1002.45 514.004 L968.167 514.823 L933.878 513.841 L899.59 514.089 L865.302 514.213 L831.014 513.906 L796.725 514.213 L762.437 528.362 L728.149 561.848 L693.861 597.982 L659.572 632.065 L625.284 657.051 L590.996 677.776 L556.708 695.849 L522.419 712.923 L488.131 729.966 L453.843 747.596 L419.555 766.304 L385.266 786.448 L350.978 807.808 L316.69 830.89 L282.402 849.976  Z" fill="#fc8d59" fill-rule="evenodd" fill-opacity="0.5"/>
<polyline clip-path="url(#clip212)" style="stroke:#fc8d59; stroke-linecap:round; stroke-linejoin:round; stroke-width:12.0022; stroke-opacity:1; fill:none" stroke-dasharray="6, 12" points="282.402,849.976 316.69,830.89 350.978,807.808 385.266,786.448 419.555,766.304 453.843,747.596 488.131,729.966 522.419,712.923 556.708,695.849 590.996,677.776 625.284,657.051 659.572,632.065 693.861,597.982 728.149,561.848 762.437,528.362 796.725,514.213 831.014,513.906 865.302,514.213 899.59,514.089 933.878,513.841 968.167,514.823 1002.45,514.004 1036.74,514.414 1071.03,514.839 1105.32,514.518 1139.61,514.637 1173.9,514.533 1208.18,513.81 1242.47,514.536 1276.76,513.764 1311.05,513.99 1345.34,514.229 1379.63,514.231 1413.91,514.082 1448.2,513.711 1482.49,514.065 1516.78,513.901 1551.07,513.953 1585.35,514.084 1619.64,514.075 "/>
<path clip-path="url(#clip212)" d="M282.402 849.995 L316.69 849.995 L350.978 849.995 L385.266 849.995 L419.555 849.995 L453.843 849.995 L488.131 849.995 L522.419 849.995 L556.708 849.995 L590.996 849.995 L625.284 849.995 L659.572 849.995 L693.861 849.995 L728.149 849.995 L762.437 849.995 L796.725 849.995 L831.014 849.995 L865.302 849.995 L899.59 849.995 L933.878 849.995 L968.167 849.995 L1002.45 849.995 L1036.74 849.995 L1071.03 849.995 L1105.32 849.995 L1139.61 849.995 L1173.9 849.995 L1208.18 849.995 L1242.47 849.995 L1276.76 849.995 L1311.05 849.995 L1345.34 849.995 L1379.63 849.995 L1413.91 849.995 L1448.2 849.995 L1482.49 849.995 L1516.78 849.995 L1551.07 849.995 L1585.35 849.995 L1619.64 849.995 L1619.64 849.995 L1585.35 849.995 L1551.07 849.995 L1516.78 849.995 L1482.49 849.995 L1448.2 849.995 L1413.91 849.995 L1379.63 849.995 L1345.34 849.995 L1311.05 849.995 L1276.76 849.995 L1242.47 849.995 L1208.18 849.995 L1173.9 849.995 L1139.61 849.995 L1105.32 849.995 L1071.03 849.995 L1036.74 849.995 L1002.45 849.995 L968.167 849.995 L933.878 849.995 L899.59 849.995 L865.302 849.995 L831.014 849.995 L796.725 849.995 L762.437 849.995 L728.149 849.995 L693.861 849.995 L659.572 849.995 L625.284 849.995 L590.996 849.995 L556.708 849.995 L522.419 849.995 L488.131 849.995 L453.843 849.995 L419.555 849.995 L385.266 849.995 L350.978 849.995 L316.69 849.995 L282.402 849.995  Z" fill="#fdbb84" fill-rule="evenodd" fill-opacity="0.5"/>
<polyline clip-path="url(#clip212)" style="stroke:#fdbb84; stroke-linecap:round; stroke-linejoin:round; stroke-width:12.0022; stroke-opacity:1; fill:none" stroke-dasharray="48, 30" points="282.402,849.995 316.69,849.995 350.978,849.995 385.266,849.995 419.555,849.995 453.843,849.995 488.131,849.995 522.419,849.995 556.708,849.995 590.996,849.995 625.284,849.995 659.572,849.995 693.861,849.995 728.149,849.995 762.437,849.995 796.725,849.995 831.014,849.995 865.302,849.995 899.59,849.995 933.878,849.995 968.167,849.995 1002.45,849.995 1036.74,849.995 1071.03,849.995 1105.32,849.995 1139.61,849.995 1173.9,849.995 1208.18,849.995 1242.47,849.995 1276.76,849.995 1311.05,849.995 1345.34,849.995 1379.63,849.995 1413.91,849.995 1448.2,849.995 1482.49,849.995 1516.78,849.995 1551.07,849.995 1585.35,849.995 1619.64,849.995 "/>
<path clip-path="url(#clip212)" d="M282.402 864.877 L316.69 864.877 L350.978 864.877 L385.266 864.877 L419.555 864.877 L453.843 864.877 L488.131 864.877 L522.419 864.877 L556.708 864.877 L590.996 864.877 L625.284 864.877 L659.572 864.877 L693.861 864.877 L728.149 864.877 L762.437 864.877 L796.725 864.877 L831.014 864.877 L865.302 864.877 L899.59 864.877 L933.878 864.877 L968.167 864.877 L1002.45 864.877 L1036.74 864.877 L1071.03 864.877 L1105.32 864.877 L1139.61 864.877 L1173.9 864.877 L1208.18 864.877 L1242.47 864.877 L1276.76 864.877 L1311.05 864.877 L1345.34 864.877 L1379.63 864.877 L1413.91 864.877 L1448.2 864.877 L1482.49 864.877 L1516.78 864.877 L1551.07 864.877 L1585.35 864.877 L1619.64 864.877 L1619.64 864.877 L1585.35 864.877 L1551.07 864.877 L1516.78 864.877 L1482.49 864.877 L1448.2 864.877 L1413.91 864.877 L1379.63 864.877 L1345.34 864.877 L1311.05 864.877 L1276.76 864.877 L1242.47 864.877 L1208.18 864.877 L1173.9 864.877 L1139.61 864.877 L1105.32 864.877 L1071.03 864.877 L1036.74 864.877 L1002.45 864.877 L968.167 864.877 L933.878 864.877 L899.59 864.877 L865.302 864.877 L831.014 864.877 L796.725 864.877 L762.437 864.877 L728.149 864.877 L693.861 864.877 L659.572 864.877 L625.284 864.877 L590.996 864.877 L556.708 864.877 L522.419 864.877 L488.131 864.877 L453.843 864.877 L419.555 864.877 L385.266 864.877 L350.978 864.877 L316.69 864.877 L282.402 864.877  Z" fill="#fdd49e" fill-rule="evenodd" fill-opacity="0.5"/>
<polyline clip-path="url(#clip212)" style="stroke:#fdd49e; stroke-linecap:round; stroke-linejoin:round; stroke-width:12.0022; stroke-opacity:1; fill:none" points="282.402,864.877 316.69,864.877 350.978,864.877 385.266,864.877 419.555,864.877 453.843,864.877 488.131,864.877 522.419,864.877 556.708,864.877 590.996,864.877 625.284,864.877 659.572,864.877 693.861,864.877 728.149,864.877 762.437,864.877 796.725,864.877 831.014,864.877 865.302,864.877 899.59,864.877 933.878,864.877 968.167,864.877 1002.45,864.877 1036.74,864.877 1071.03,864.877 1105.32,864.877 1139.61,864.877 1173.9,864.877 1208.18,864.877 1242.47,864.877 1276.76,864.877 1311.05,864.877 1345.34,864.877 1379.63,864.877 1413.91,864.877 1448.2,864.877 1482.49,864.877 1516.78,864.877 1551.07,864.877 1585.35,864.877 1619.64,864.877 "/>
</svg>
